G04 FreePCB version 1.359*
G04 C:\Users\Dwight Springthorpe\Documents\GitHub\DAQpack_mk2\DAQ_v2_4_CAM\bottom_copper.grb*
G04 bottom copper layer *
G04 Scale: 100 percent, Rotated: No, Reflected: No *
%FSLAX24Y24*%
%MOIN*%
%LN bottom copper *%
G04 Rounded Rectangle Macro, params: W/2, H/2, R *
%AMRNDREC*
21,1,$1+$1,$2+$2-$3-$3,0,0,0*
21,1,$1+$1-$3-$3,$2+$2,0,0,0*
1,1,$3+$3,$1-$3,$2-$3*
1,1,$3+$3,$3-$1,$2-$3*
1,1,$3+$3,$1-$3,$3-$2*
1,1,$3+$3,$3-$1,$3-$2*%
G04 Rectangular Thermal Macro, params: W/2, H/2, T/2 *
%AMRECTHERM*
$4=$3/2*
21,1,$1-$3,$2-$3,0-$1/2-$4,0-$2/2-$4,0*
21,1,$1-$3,$2-$3,0-$1/2-$4,$2/2+$4,0*
21,1,$1-$3,$2-$3,$1/2+$4,0-$2/2-$4,0*
21,1,$1-$3,$2-$3,$1/2+$4,$2/2+$4,0*%
%ADD10C,0.005000*%
%ADD11R,0.011811X0.027559*%
%ADD12R,0.011811X0.039370*%
%ADD13R,0.023622X0.009055*%
%ADD14R,0.009055X0.023622*%
%ADD15R,0.122047X0.122047*%
%ADD16R,0.011811X0.011811*%
%ADD17C,0.040000*%
%ADD18R,0.062992X0.062992*%
%ADD19R,0.063000X0.043000*%
%ADD20C,0.008000*%
%ADD21C,0.016000*%
%ADD22C,0.004000*%
G90*
G70D02*

G04 Step and Repeat for panelization *

G04 ----------------------- Draw board outline (positive)*
%LPD*%
G54D10*
G01X0Y0D02*
G01X0Y6500D01*
G04 end of side 1*
G01X3500Y6500D01*
G04 end of side 2*
G01X3500Y0D01*
G04 end of side 3*
G01X0Y0D01*

G04 -------------- Draw Parts, Pads, Traces, Vias and Text (positive)*
%LPD*%
G04 Draw part U3*
G04 Draw part C14*
G04 Draw part C15*
G04 Draw part H2*
G54D11*
G01X1100Y5100D03*
G01X1296Y5100D03*
G01X1493Y5100D03*
G01X1690Y5100D03*
G01X1887Y5100D03*
G01X2084Y5100D03*
G01X2281Y5100D03*
G01X2477Y5100D03*
G54D12*
G01X788Y6143D03*
G01X2788Y6143D03*
G04 Draw part U1*
G54D13*
G01X2725Y3877D03*
G01X2725Y3681D03*
G01X2725Y3484D03*
G01X2725Y3287D03*
G01X2725Y3090D03*
G01X2725Y2893D03*
G01X2725Y2696D03*
G01X2725Y2500D03*
G54D14*
G01X2470Y2244D03*
G01X2273Y2244D03*
G01X2076Y2244D03*
G01X1879Y2244D03*
G01X1682Y2244D03*
G01X1485Y2244D03*
G01X1288Y2244D03*
G01X1092Y2244D03*
G54D13*
G01X836Y2500D03*
G01X836Y2696D03*
G01X836Y2893D03*
G01X836Y3090D03*
G01X836Y3287D03*
G01X836Y3484D03*
G01X836Y3681D03*
G01X836Y3877D03*
G54D14*
G01X1092Y4133D03*
G01X1288Y4133D03*
G01X1485Y4133D03*
G01X1682Y4133D03*
G01X1879Y4133D03*
G01X2076Y4133D03*
G01X2273Y4133D03*
G01X2470Y4133D03*
G54D15*
G01X1781Y3188D03*
G04 Draw part C16*
G54D16*
G01X500Y3100D03*
G01X500Y3306D03*
G04 Draw part R1*
G01X2100Y4450D03*
G01X2306Y4450D03*
G04 Draw part D1*
G04 Draw part R2*
G04 Draw part U2*
G04 Draw part H1*
G04 Draw part B1*
G54D17*
G01X3200Y800D03*
G04 Draw part B2*
G01X300Y800D03*
G04 Draw part hole2*
G04 Draw part hole4*
G04 Draw part B3*
G01X3200Y300D03*
G04 Draw part B4*
G01X300Y300D03*
G04 Draw part S2*
G54D18*
G01X1179Y800D03*
G54D19*
G01X2320Y1252D03*
G01X2320Y347D03*
G04 Draw part C17*
G54D16*
G01X3000Y3300D03*
G01X3000Y3506D03*
G04 Draw part C18*

G04 Draw traces*
G54D20*
G01X836Y2696D02*
G01X860Y2700D01*
G01X860Y2700D02*
G01X160Y2700D01*
G01X160Y2700D02*
G01X160Y5100D01*
G01X160Y5100D02*
G01X690Y5630D01*
G54D21*
G01X690Y5630D03*
G01X1500Y5470D03*
G54D20*
G01X1500Y5470D02*
G01X1500Y5090D01*
G01X1500Y5090D02*
G01X1493Y5100D01*
G54D10*
G01X1493Y5100D02*
G01X1493Y4886D01*
G01X1493Y4886D02*
G01X1500Y4880D01*
G01X1500Y4880D02*
G01X1990Y4880D01*
G01X1990Y4880D02*
G01X2300Y4570D01*
G01X2300Y4570D02*
G01X2300Y4460D01*
G01X2300Y4460D02*
G01X2306Y4450D01*
G54D21*
G01X690Y550D03*
G54D20*
G01X690Y550D02*
G01X690Y1140D01*
G01X690Y1140D02*
G01X540Y1290D01*
G01X540Y1290D02*
G01X300Y1290D01*
G01X300Y1290D02*
G01X160Y1430D01*
G01X160Y1430D02*
G01X160Y2700D01*
G01X3000Y3300D02*
G01X3120Y3300D01*
G01X3120Y3300D02*
G01X3190Y3370D01*
G01X3190Y3370D02*
G01X3190Y3900D01*
G54D21*
G01X3190Y3900D03*
G54D20*
G01X3000Y3300D02*
G01X2980Y3290D01*
G01X2980Y3290D02*
G01X2977Y3287D01*
G01X2977Y3287D02*
G01X2725Y3287D01*
G01X3000Y3300D02*
G01X3000Y2940D01*
G01X3000Y2940D02*
G01X2953Y2893D01*
G01X2953Y2893D02*
G01X2725Y2893D01*
G54D21*
G01X690Y4620D03*
G54D22*
G01X690Y4620D02*
G01X690Y4090D01*
G01X690Y4090D02*
G01X580Y3980D01*
G01X580Y3980D02*
G01X580Y3770D01*
G01X580Y3770D02*
G01X670Y3680D01*
G01X670Y3680D02*
G01X880Y3680D01*
G01X880Y3680D02*
G01X836Y3681D01*
G54D21*
G01X880Y4440D03*
G54D22*
G01X880Y4440D02*
G01X880Y3890D01*
G01X880Y3890D02*
G01X830Y3900D01*
G01X830Y3900D02*
G01X836Y3877D01*
G01X1092Y4133D02*
G01X1090Y4120D01*
G01X1090Y4120D02*
G01X1090Y4620D01*
G54D21*
G01X1090Y4620D03*
G54D22*
G01X1288Y4133D02*
G01X1290Y4140D01*
G01X1290Y4140D02*
G01X1290Y4440D01*
G54D21*
G01X1290Y4440D03*
G54D22*
G01X1682Y2244D02*
G01X1680Y2240D01*
G01X1680Y2240D02*
G01X1680Y1950D01*
G54D21*
G01X1680Y1950D03*
G01X1400Y1640D03*
G54D22*
G01X1400Y1640D02*
G01X1485Y1725D01*
G01X1485Y1725D02*
G01X1485Y2244D01*
G54D20*
G01X300Y300D02*
G01X1040Y300D01*
G01X1040Y300D02*
G01X1179Y439D01*
G01X1179Y439D02*
G01X1179Y800D01*
G01X300Y800D02*
G01X300Y300D01*
G54D22*
G01X836Y3090D02*
G01X820Y3100D01*
G01X820Y3100D02*
G01X500Y3100D01*
G54D21*
G01X2190Y5710D03*
G54D22*
G01X2190Y5710D02*
G01X2190Y5660D01*
G01X2190Y5660D02*
G01X2480Y5370D01*
G01X2480Y5370D02*
G01X2480Y5120D01*
G01X2480Y5120D02*
G01X2477Y5100D01*
G54D21*
G01X730Y1950D03*
G54D22*
G01X730Y1950D02*
G01X580Y1950D01*
G01X580Y1950D02*
G01X520Y2010D01*
G01X520Y2010D02*
G01X520Y2430D01*
G01X520Y2430D02*
G01X590Y2500D01*
G01X590Y2500D02*
G01X836Y2500D01*
G54D21*
G01X2950Y4620D03*
G54D22*
G01X2950Y4620D02*
G01X2950Y4850D01*
G01X2950Y4850D02*
G01X2900Y4900D01*
G01X2900Y4900D02*
G01X2530Y4900D01*
G01X2530Y4900D02*
G01X2480Y4950D01*
G01X2480Y4950D02*
G01X2480Y5070D01*
G01X2480Y5070D02*
G01X2477Y5100D01*
G01X2076Y2244D02*
G01X2076Y1916D01*
G01X2076Y1916D02*
G01X2070Y1950D01*
G54D21*
G01X2070Y1950D03*
G54D22*
G01X1682Y4133D02*
G01X1682Y4437D01*
G01X1682Y4437D02*
G01X1680Y4440D01*
G54D21*
G01X1680Y4440D03*
G01X2950Y4390D03*
G54D22*
G01X2950Y4390D02*
G01X2650Y4390D01*
G01X2650Y4390D02*
G01X2080Y4960D01*
G01X2080Y4960D02*
G01X2080Y5050D01*
G01X2080Y5050D02*
G01X2084Y5100D01*
G54D21*
G01X1870Y5710D03*
G54D22*
G01X1870Y5710D02*
G01X1870Y5650D01*
G01X1870Y5650D02*
G01X2080Y5440D01*
G01X2080Y5440D02*
G01X2080Y5110D01*
G01X2080Y5110D02*
G01X2084Y5100D01*
G54D21*
G01X1080Y1640D03*
G54D22*
G01X1080Y1640D02*
G01X1290Y1850D01*
G01X1290Y1850D02*
G01X1288Y2244D01*
G54D21*
G01X2030Y5870D03*
G54D22*
G01X2030Y5870D02*
G01X2030Y5640D01*
G01X2030Y5640D02*
G01X2280Y5390D01*
G01X2280Y5390D02*
G01X2280Y4980D01*
G01X2280Y4980D02*
G01X2281Y5100D01*
G54D21*
G01X730Y1640D03*
G54D22*
G01X730Y1640D02*
G01X1090Y2000D01*
G01X1090Y2000D02*
G01X1092Y2244D01*
G01X2281Y5100D02*
G01X2280Y5070D01*
G01X2280Y5070D02*
G01X2280Y4910D01*
G01X2280Y4910D02*
G01X2400Y4790D01*
G01X2400Y4790D02*
G01X2680Y4790D01*
G01X2680Y4790D02*
G01X2720Y4750D01*
G01X2720Y4750D02*
G01X2720Y4620D01*
G54D21*
G01X2720Y4620D03*
G54D22*
G01X1879Y2244D02*
G01X1870Y2180D01*
G01X1870Y2180D02*
G01X1870Y1760D01*
G54D21*
G01X1870Y1760D03*
G54D20*
G01X1781Y3188D02*
G01X1480Y3240D01*
G01X1480Y3240D02*
G01X1432Y3287D01*
G01X1432Y3287D02*
G01X836Y3287D01*
G01X2725Y3484D02*
G01X2335Y3484D01*
G01X2335Y3484D02*
G01X2300Y3520D01*
G01X2300Y3520D02*
G01X1781Y3188D01*
G01X1781Y3188D02*
G01X2130Y3110D01*
G01X2130Y3110D02*
G01X2149Y3090D01*
G01X2149Y3090D02*
G01X2725Y3090D01*
G01X500Y3306D02*
G01X530Y3290D01*
G01X530Y3290D02*
G01X770Y3290D01*
G01X770Y3290D02*
G01X836Y3287D01*
G01X1781Y3188D02*
G01X1780Y3150D01*
G54D21*
G01X1780Y3150D03*
G54D20*
G01X500Y3306D02*
G01X360Y3470D01*
G01X360Y3470D02*
G01X360Y4970D01*
G01X360Y4970D02*
G01X1260Y5870D01*
G01X1260Y5870D02*
G01X1300Y5870D01*
G54D21*
G01X1300Y5870D03*
G54D20*
G01X1300Y5870D02*
G01X1300Y5100D01*
G01X1300Y5100D02*
G01X1296Y5100D01*
G01X2470Y2244D02*
G01X2470Y2490D01*
G01X2470Y2490D02*
G01X2280Y2680D01*
G01X2280Y2680D02*
G01X1781Y3188D01*
G01X3000Y3506D02*
G01X3000Y3480D01*
G01X3000Y3480D02*
G01X2790Y3480D01*
G01X2790Y3480D02*
G01X2725Y3484D01*
G54D21*
G01X2730Y2000D03*
G54D20*
G01X2730Y2000D02*
G01X2530Y2000D01*
G01X2530Y2000D02*
G01X2470Y2060D01*
G01X2470Y2060D02*
G01X2470Y2244D01*
G54D21*
G01X2350Y5870D03*
G54D22*
G01X2350Y5870D02*
G01X2350Y5720D01*
G01X2350Y5720D02*
G01X2800Y5270D01*
G01X2800Y5270D02*
G01X3020Y5270D01*
G01X3020Y5270D02*
G01X3090Y5200D01*
G01X3090Y5200D02*
G01X3090Y4160D01*
G01X3090Y4160D02*
G01X3040Y4110D01*
G01X3040Y4110D02*
G01X2490Y4110D01*
G01X2490Y4110D02*
G01X2470Y4133D01*
G01X1485Y4133D02*
G01X1480Y4210D01*
G01X1480Y4210D02*
G01X1480Y4540D01*
G01X1480Y4540D02*
G01X1560Y4620D01*
G01X1560Y4620D02*
G01X1860Y4620D01*
G54D21*
G01X1860Y4620D03*
G54D20*
G01X2320Y347D02*
G01X2570Y330D01*
G01X2570Y330D02*
G01X2710Y330D01*
G01X2710Y330D02*
G01X2820Y440D01*
G01X2820Y440D02*
G01X2820Y970D01*
G01X2820Y970D02*
G01X3050Y1200D01*
G01X3050Y1200D02*
G01X3280Y1200D01*
G01X3280Y1200D02*
G01X3360Y1280D01*
G01X3360Y1280D02*
G01X3360Y5310D01*
G01X3360Y5310D02*
G01X3160Y5510D01*
G01X3160Y5510D02*
G01X2860Y5510D01*
G01X2860Y5510D02*
G01X2580Y5790D01*
G01X2580Y5790D02*
G01X2580Y5950D01*
G01X2580Y5950D02*
G01X2440Y6090D01*
G01X2440Y6090D02*
G01X1680Y6090D01*
G01X1680Y6090D02*
G01X1570Y5980D01*
G01X1570Y5980D02*
G01X1570Y5700D01*
G01X1570Y5700D02*
G01X1887Y5382D01*
G01X1887Y5382D02*
G01X1887Y5100D01*
G54D22*
G01X1100Y5100D02*
G01X1100Y4840D01*
G01X1100Y4840D02*
G01X1180Y4760D01*
G01X1180Y4760D02*
G01X1940Y4760D01*
G01X1940Y4760D02*
G01X2100Y4600D01*
G01X2100Y4600D02*
G01X2100Y4450D01*
G01X1879Y4133D02*
G01X1890Y4090D01*
G01X1890Y4090D02*
G01X1890Y4390D01*
G01X1890Y4390D02*
G01X1950Y4450D01*
G01X1950Y4450D02*
G01X2100Y4450D01*
G54D20*
G01X2320Y1252D02*
G01X2320Y1250D01*
G01X2320Y1250D02*
G01X2320Y1250D01*
G54D21*
G01X2320Y1250D03*

G04 Draw Text*
M00*
M02*
