;Holesize 1 =   25.0 PLATED MILS
;Holesize 2 =    8.0 PLATED MILS
M48
INCH,00.0000
T01C0.025
T02C0.008
%
G05
G90
T01
X003200Y000800
X000300Y000800
X003200Y006200
X000300Y006200
X003200Y000300
X000300Y000300
T02
X000690Y005630
X001500Y005470
X000690Y000550
X003190Y003900
X000690Y004620
X000880Y004440
X001090Y004620
X001290Y004440
X001680Y001950
X001400Y001640
X002190Y005710
X000730Y001950
X002950Y004620
X002070Y001950
X001680Y004440
X002950Y004390
X001870Y005710
X001080Y001640
X002030Y005870
X000730Y001640
X002720Y004620
X001870Y001760
X001780Y003150
X001300Y005870
X002730Y002000
X002350Y005870
X001860Y004620
X002320Y001250
M30
