G04 FreePCB version 1.359*
G04 C:\Users\Dwight Springthorpe\Documents\GitHub\DAQpack_mk2\DAQ_v2_4_CAM\top_silk.grb*
G04 top silk layer *
G04 Scale: 100 percent, Rotated: No, Reflected: No *
%FSLAX24Y24*%
%MOIN*%
%LN top silk *%
G04 Rounded Rectangle Macro, params: W/2, H/2, R *
%AMRNDREC*
21,1,$1+$1,$2+$2-$3-$3,0,0,0*
21,1,$1+$1-$3-$3,$2+$2,0,0,0*
1,1,$3+$3,$1-$3,$2-$3*
1,1,$3+$3,$3-$1,$2-$3*
1,1,$3+$3,$1-$3,$3-$2*
1,1,$3+$3,$3-$1,$3-$2*%
G04 Rectangular Thermal Macro, params: W/2, H/2, T/2 *
%AMRECTHERM*
$4=$3/2*
21,1,$1-$3,$2-$3,0-$1/2-$4,0-$2/2-$4,0*
21,1,$1-$3,$2-$3,0-$1/2-$4,$2/2+$4,0*
21,1,$1-$3,$2-$3,$1/2+$4,0-$2/2-$4,0*
21,1,$1-$3,$2-$3,$1/2+$4,$2/2+$4,0*%
%ADD10C,0.005000*%
%ADD11C,0.010000*%
G90*
G70D02*

G04 Step and Repeat for panelization *

G04 ----------------------- Draw board outline (positive)*
%LPD*%
G54D10*
G01X0Y0D02*
G01X0Y6500D01*
G04 end of side 1*
G01X3500Y6500D01*
G04 end of side 2*
G01X3500Y0D01*
G04 end of side 3*
G01X0Y0D01*

G04 -------------- Draw Parts, Pads, Traces, Vias and Text (positive)*
%LPD*%
G04 draw part outline for part P1*
G04 draw part outline for part P2*
G04 Draw part U3*
G04 draw part outline for part U3*
G54D11*
G01X1220Y954D02*
G01X1175Y1000D01*
G01X1175Y1000D02*
G01X1130Y954D01*
G01X1175Y909D02*
G01X1130Y954D01*
G01X1220Y954D02*
G01X1175Y909D01*
G04 draw reference designator for part U3*
G54D10*
G01X3207Y-900D02*
G01X2866Y-900D01*
G01X2866Y-900D02*
G01X2798Y-922D01*
G01X2798Y-922D02*
G01X2752Y-968D01*
G01X2752Y-968D02*
G01X2730Y-1036D01*
G01X2730Y-1081D02*
G01X2730Y-1036D01*
G01X2752Y-1150D02*
G01X2730Y-1081D01*
G01X2798Y-1195D02*
G01X2752Y-1150D01*
G01X2866Y-1218D02*
G01X2798Y-1195D01*
G01X3207Y-1218D02*
G01X2866Y-1218D01*
G01X3207Y-1695D02*
G01X3207Y-1445D01*
G01X3207Y-1695D02*
G01X3025Y-1559D01*
G01X3025Y-1627D02*
G01X3025Y-1559D01*
G01X3025Y-1627D02*
G01X3002Y-1672D01*
G01X3002Y-1672D02*
G01X2980Y-1695D01*
G01X2980Y-1695D02*
G01X2911Y-1718D01*
G01X2911Y-1718D02*
G01X2866Y-1718D01*
G01X2866Y-1718D02*
G01X2798Y-1695D01*
G01X2798Y-1695D02*
G01X2752Y-1650D01*
G01X2752Y-1650D02*
G01X2730Y-1581D01*
G01X2730Y-1513D02*
G01X2730Y-1581D01*
G01X2752Y-1445D02*
G01X2730Y-1513D01*
G01X2775Y-1422D02*
G01X2752Y-1445D01*
G01X2820Y-1400D02*
G01X2775Y-1422D01*
G04 Draw part C14*
G04 draw part outline for part C14*
G04 draw reference designator for part C14*
G01X1790Y2618D02*
G01X1836Y2640D01*
G01X1745Y2572D02*
G01X1790Y2618D01*
G01X1722Y2527D02*
G01X1745Y2572D01*
G01X1722Y2436D02*
G01X1722Y2527D01*
G01X1722Y2436D02*
G01X1745Y2390D01*
G01X1745Y2390D02*
G01X1790Y2345D01*
G01X1790Y2345D02*
G01X1836Y2322D01*
G01X1836Y2322D02*
G01X1904Y2300D01*
G01X1904Y2300D02*
G01X2018Y2300D01*
G01X2018Y2300D02*
G01X2086Y2322D01*
G01X2086Y2322D02*
G01X2131Y2345D01*
G01X2131Y2345D02*
G01X2177Y2390D01*
G01X2177Y2390D02*
G01X2200Y2436D01*
G01X2200Y2527D02*
G01X2200Y2436D01*
G01X2177Y2572D02*
G01X2200Y2527D01*
G01X2131Y2618D02*
G01X2177Y2572D01*
G01X2086Y2640D02*
G01X2131Y2618D01*
G01X1790Y2868D02*
G01X1813Y2822D01*
G01X1722Y2936D02*
G01X1790Y2868D01*
G01X1722Y2936D02*
G01X2200Y2936D01*
G01X1722Y3345D02*
G01X2040Y3118D01*
G01X2040Y3459D02*
G01X2040Y3118D01*
G01X1722Y3345D02*
G01X2200Y3345D01*
G04 Draw part C15*
G04 draw part outline for part C15*
G04 draw reference designator for part C15*
G01X1709Y-1318D02*
G01X1663Y-1340D01*
G01X1754Y-1272D02*
G01X1709Y-1318D01*
G01X1777Y-1227D02*
G01X1754Y-1272D01*
G01X1777Y-1136D02*
G01X1777Y-1227D01*
G01X1777Y-1136D02*
G01X1754Y-1090D01*
G01X1754Y-1090D02*
G01X1709Y-1045D01*
G01X1709Y-1045D02*
G01X1663Y-1022D01*
G01X1663Y-1022D02*
G01X1595Y-1000D01*
G01X1595Y-1000D02*
G01X1481Y-1000D01*
G01X1481Y-1000D02*
G01X1413Y-1022D01*
G01X1413Y-1022D02*
G01X1368Y-1045D01*
G01X1368Y-1045D02*
G01X1322Y-1090D01*
G01X1322Y-1090D02*
G01X1300Y-1136D01*
G01X1300Y-1227D02*
G01X1300Y-1136D01*
G01X1322Y-1272D02*
G01X1300Y-1227D01*
G01X1368Y-1318D02*
G01X1322Y-1272D01*
G01X1413Y-1340D02*
G01X1368Y-1318D01*
G01X1709Y-1568D02*
G01X1686Y-1522D01*
G01X1777Y-1636D02*
G01X1709Y-1568D01*
G01X1777Y-1636D02*
G01X1300Y-1636D01*
G01X1777Y-1863D02*
G01X1777Y-2090D01*
G01X1777Y-1863D02*
G01X1572Y-1840D01*
G01X1595Y-1863D02*
G01X1572Y-1840D01*
G01X1618Y-1931D02*
G01X1595Y-1863D01*
G01X1618Y-2000D02*
G01X1618Y-1931D01*
G01X1618Y-2000D02*
G01X1595Y-2068D01*
G01X1595Y-2068D02*
G01X1550Y-2113D01*
G01X1550Y-2113D02*
G01X1481Y-2136D01*
G01X1481Y-2136D02*
G01X1436Y-2136D01*
G01X1436Y-2136D02*
G01X1368Y-2113D01*
G01X1368Y-2113D02*
G01X1322Y-2068D01*
G01X1322Y-2068D02*
G01X1300Y-2000D01*
G01X1300Y-1931D02*
G01X1300Y-2000D01*
G01X1322Y-1863D02*
G01X1300Y-1931D01*
G01X1345Y-1840D02*
G01X1322Y-1863D01*
G01X1390Y-1818D02*
G01X1345Y-1840D01*
G04 Draw part H2*
G04 Draw part U1*
G04 Draw part C16*
G04 Draw part R1*
G04 Draw part D1*
G04 draw part outline for part D1*
G04 Draw part R2*
G04 draw part outline for part R2*
G04 Draw part U2*
G04 draw part outline for part U2*
G04 Draw part H1*
G04 draw part outline for part H1*
G04 Draw part B1*
G04 draw part outline for part B1*
G04 Draw part B2*
G04 draw part outline for part B2*
G04 draw reference designator for part B2*
G54D11*
G01X7550Y7604D02*
G01X7550Y6650D01*
G01X7959Y7604D02*
G01X7550Y7604D01*
G01X7959Y7604D02*
G01X8095Y7559D01*
G01X8095Y7559D02*
G01X8140Y7513D01*
G01X8140Y7513D02*
G01X8186Y7422D01*
G01X8186Y7422D02*
G01X8186Y7331D01*
G01X8186Y7331D02*
G01X8140Y7240D01*
G01X8140Y7240D02*
G01X8095Y7195D01*
G01X8095Y7195D02*
G01X7959Y7150D01*
G01X7959Y7150D02*
G01X7550Y7150D01*
G01X7959Y7150D02*
G01X8095Y7104D01*
G01X8095Y7104D02*
G01X8140Y7059D01*
G01X8140Y7059D02*
G01X8186Y6968D01*
G01X8186Y6968D02*
G01X8186Y6831D01*
G01X8186Y6831D02*
G01X8140Y6740D01*
G01X8140Y6740D02*
G01X8095Y6695D01*
G01X8095Y6695D02*
G01X7959Y6650D01*
G01X7550Y6650D02*
G01X7959Y6650D01*
G01X8595Y7422D02*
G01X8595Y7377D01*
G01X8640Y7513D02*
G01X8595Y7422D01*
G01X8686Y7559D02*
G01X8640Y7513D01*
G01X8777Y7604D02*
G01X8686Y7559D01*
G01X8959Y7604D02*
G01X8777Y7604D01*
G01X8959Y7604D02*
G01X9050Y7559D01*
G01X9050Y7559D02*
G01X9095Y7513D01*
G01X9095Y7513D02*
G01X9140Y7422D01*
G01X9140Y7422D02*
G01X9140Y7331D01*
G01X9140Y7331D02*
G01X9095Y7240D01*
G01X9095Y7240D02*
G01X9004Y7104D01*
G01X9004Y7104D02*
G01X8550Y6650D01*
G01X9186Y6650D02*
G01X8550Y6650D01*
G04 Draw part hole2*
G04 draw part outline for part hole2*
G04 Draw part hole4*
G04 draw part outline for part hole4*
G04 Draw part B3*
G04 draw part outline for part B3*
G04 draw reference designator for part B3*
G01X10950Y6004D02*
G01X10950Y5050D01*
G01X11359Y6004D02*
G01X10950Y6004D01*
G01X11359Y6004D02*
G01X11495Y5959D01*
G01X11495Y5959D02*
G01X11540Y5913D01*
G01X11540Y5913D02*
G01X11586Y5822D01*
G01X11586Y5822D02*
G01X11586Y5731D01*
G01X11586Y5731D02*
G01X11540Y5640D01*
G01X11540Y5640D02*
G01X11495Y5595D01*
G01X11495Y5595D02*
G01X11359Y5550D01*
G01X11359Y5550D02*
G01X10950Y5550D01*
G01X11359Y5550D02*
G01X11495Y5504D01*
G01X11495Y5504D02*
G01X11540Y5459D01*
G01X11540Y5459D02*
G01X11586Y5368D01*
G01X11586Y5368D02*
G01X11586Y5231D01*
G01X11586Y5231D02*
G01X11540Y5140D01*
G01X11540Y5140D02*
G01X11495Y5095D01*
G01X11495Y5095D02*
G01X11359Y5050D01*
G01X10950Y5050D02*
G01X11359Y5050D01*
G01X12540Y6004D02*
G01X12040Y6004D01*
G01X12540Y6004D02*
G01X12268Y5640D01*
G01X12404Y5640D02*
G01X12268Y5640D01*
G01X12404Y5640D02*
G01X12495Y5595D01*
G01X12495Y5595D02*
G01X12540Y5550D01*
G01X12540Y5550D02*
G01X12586Y5413D01*
G01X12586Y5413D02*
G01X12586Y5322D01*
G01X12586Y5322D02*
G01X12540Y5186D01*
G01X12540Y5186D02*
G01X12450Y5095D01*
G01X12450Y5095D02*
G01X12313Y5050D01*
G01X12177Y5050D02*
G01X12313Y5050D01*
G01X12040Y5095D02*
G01X12177Y5050D01*
G01X11995Y5140D02*
G01X12040Y5095D01*
G01X11950Y5231D02*
G01X11995Y5140D01*
G04 Draw part B4*
G04 draw part outline for part B4*
G04 draw reference designator for part B4*
G01X7550Y7104D02*
G01X7550Y6150D01*
G01X7959Y7104D02*
G01X7550Y7104D01*
G01X7959Y7104D02*
G01X8095Y7059D01*
G01X8095Y7059D02*
G01X8140Y7013D01*
G01X8140Y7013D02*
G01X8186Y6922D01*
G01X8186Y6922D02*
G01X8186Y6831D01*
G01X8186Y6831D02*
G01X8140Y6740D01*
G01X8140Y6740D02*
G01X8095Y6695D01*
G01X8095Y6695D02*
G01X7959Y6650D01*
G01X7959Y6650D02*
G01X7550Y6650D01*
G01X7959Y6650D02*
G01X8095Y6604D01*
G01X8095Y6604D02*
G01X8140Y6559D01*
G01X8140Y6559D02*
G01X8186Y6468D01*
G01X8186Y6468D02*
G01X8186Y6331D01*
G01X8186Y6331D02*
G01X8140Y6240D01*
G01X8140Y6240D02*
G01X8095Y6195D01*
G01X8095Y6195D02*
G01X7959Y6150D01*
G01X7550Y6150D02*
G01X7959Y6150D01*
G01X9004Y7104D02*
G01X8550Y6468D01*
G01X9231Y6468D02*
G01X8550Y6468D01*
G01X9004Y7104D02*
G01X9004Y6150D01*
G04 Draw part S2*
G04 Draw part C17*
G04 Draw part C18*
G04 draw part outline for part C18*
G04 draw reference designator for part C18*
G54D10*
G01X1481Y1390D02*
G01X1459Y1436D01*
G01X1527Y1345D02*
G01X1481Y1390D01*
G01X1572Y1322D02*
G01X1527Y1345D01*
G01X1663Y1322D02*
G01X1572Y1322D01*
G01X1663Y1322D02*
G01X1709Y1345D01*
G01X1709Y1345D02*
G01X1754Y1390D01*
G01X1754Y1390D02*
G01X1777Y1436D01*
G01X1777Y1436D02*
G01X1800Y1504D01*
G01X1800Y1504D02*
G01X1800Y1618D01*
G01X1800Y1618D02*
G01X1777Y1686D01*
G01X1777Y1686D02*
G01X1754Y1731D01*
G01X1754Y1731D02*
G01X1709Y1777D01*
G01X1709Y1777D02*
G01X1663Y1800D01*
G01X1572Y1800D02*
G01X1663Y1800D01*
G01X1527Y1777D02*
G01X1572Y1800D01*
G01X1481Y1731D02*
G01X1527Y1777D01*
G01X1459Y1686D02*
G01X1481Y1731D01*
G01X1231Y1390D02*
G01X1277Y1413D01*
G01X1163Y1322D02*
G01X1231Y1390D01*
G01X1163Y1322D02*
G01X1163Y1800D01*
G01X868Y1322D02*
G01X936Y1345D01*
G01X936Y1345D02*
G01X959Y1390D01*
G01X959Y1390D02*
G01X959Y1436D01*
G01X959Y1436D02*
G01X936Y1481D01*
G01X936Y1481D02*
G01X890Y1504D01*
G01X890Y1504D02*
G01X800Y1527D01*
G01X800Y1527D02*
G01X731Y1550D01*
G01X731Y1550D02*
G01X686Y1595D01*
G01X686Y1595D02*
G01X663Y1640D01*
G01X663Y1640D02*
G01X663Y1709D01*
G01X663Y1709D02*
G01X686Y1754D01*
G01X686Y1754D02*
G01X709Y1777D01*
G01X709Y1777D02*
G01X777Y1800D01*
G01X868Y1800D02*
G01X777Y1800D01*
G01X936Y1777D02*
G01X868Y1800D01*
G01X959Y1754D02*
G01X936Y1777D01*
G01X981Y1709D02*
G01X959Y1754D01*
G01X981Y1640D02*
G01X981Y1709D01*
G01X959Y1595D02*
G01X981Y1640D01*
G01X913Y1550D02*
G01X959Y1595D01*
G01X845Y1527D02*
G01X913Y1550D01*
G01X754Y1504D02*
G01X845Y1527D01*
G01X709Y1481D02*
G01X754Y1504D01*
G01X686Y1436D02*
G01X709Y1481D01*
G01X686Y1390D02*
G01X686Y1436D01*
G01X709Y1345D02*
G01X686Y1390D01*
G01X777Y1322D02*
G01X709Y1345D01*
G01X868Y1322D02*
G01X777Y1322D01*

G04 Draw traces*

G04 Draw Text*
M00*
M02*
