G04 FreePCB version 1.359*
G04 C:\Users\Dwight Springthorpe\Documents\GitHub\DAQpack_mk2\DAQ_v2_4_CAM\top_copper.grb*
G04 top copper layer *
G04 Scale: 100 percent, Rotated: No, Reflected: No *
%FSLAX24Y24*%
%MOIN*%
%LN top copper *%
G04 Rounded Rectangle Macro, params: W/2, H/2, R *
%AMRNDREC*
21,1,$1+$1,$2+$2-$3-$3,0,0,0*
21,1,$1+$1-$3-$3,$2+$2,0,0,0*
1,1,$3+$3,$1-$3,$2-$3*
1,1,$3+$3,$3-$1,$2-$3*
1,1,$3+$3,$1-$3,$3-$2*
1,1,$3+$3,$3-$1,$3-$2*%
G04 Rectangular Thermal Macro, params: W/2, H/2, T/2 *
%AMRECTHERM*
$4=$3/2*
21,1,$1-$3,$2-$3,0-$1/2-$4,0-$2/2-$4,0*
21,1,$1-$3,$2-$3,0-$1/2-$4,$2/2+$4,0*
21,1,$1-$3,$2-$3,$1/2+$4,0-$2/2-$4,0*
21,1,$1-$3,$2-$3,$1/2+$4,$2/2+$4,0*%
%ADD10C,0.005000*%
%ADD11R,0.033465X0.011024*%
%ADD12R,0.023622X0.019685*%
%ADD13R,0.027559X0.019685*%
%ADD14R,0.011811X0.011811*%
%ADD15R,0.035433X0.019685*%
%ADD16R,0.086614X0.086614*%
%ADD17R,0.008661X0.027559*%
%ADD18R,0.039370X0.019685*%
%ADD19C,0.040000*%
%ADD20C,0.008000*%
%ADD21C,0.016000*%
%ADD22C,0.004000*%
G90*
G70D02*

G04 Step and Repeat for panelization *

G04 ----------------------- Draw board outline (positive)*
%LPD*%
G54D10*
G01X0Y0D02*
G01X0Y6500D01*
G04 end of side 1*
G01X3500Y6500D01*
G04 end of side 2*
G01X3500Y0D01*
G04 end of side 3*
G01X0Y0D01*

G04 -------------- Draw Parts, Pads, Traces, Vias and Text (positive)*
%LPD*%
G04 Draw part U3*
G54D11*
G01X1530Y700D03*
G01X1530Y503D03*
G01X1530Y306D03*
G01X1982Y306D03*
G01X1982Y503D03*
G01X1982Y700D03*
G04 Draw part C14*
G54D12*
G01X2500Y500D03*
G01X2500Y795D03*
G04 Draw part C15*
G01X1000Y800D03*
G01X1000Y504D03*
G04 Draw part H2*
G04 Draw part U1*
G04 Draw part C16*
G04 Draw part R1*
G04 Draw part D1*
G54D13*
G01X2300Y1600D03*
G01X2733Y1600D03*
G04 Draw part R2*
G54D14*
G01X3300Y1600D03*
G01X3093Y1600D03*
G04 Draw part U2*
G54D15*
G01X700Y3900D03*
G01X700Y3400D03*
G01X700Y2900D03*
G01X700Y2400D03*
G01X2865Y2400D03*
G01X2865Y2900D03*
G01X2865Y3400D03*
G01X2865Y3900D03*
G54D16*
G01X1782Y3150D03*
G04 Draw part H1*
G54D17*
G01X1395Y5000D03*
G01X1552Y5000D03*
G01X1709Y5000D03*
G01X1867Y5000D03*
G01X2024Y5000D03*
G01X2182Y5000D03*
G01X2182Y6220D03*
G01X2024Y6220D03*
G01X1867Y6220D03*
G01X1709Y6220D03*
G01X1552Y6220D03*
G01X1395Y6220D03*
G54D18*
G01X1020Y5019D03*
G01X1020Y6200D03*
G01X2556Y6200D03*
G01X2556Y5019D03*
G04 Draw part B1*
G54D19*
G01X3200Y800D03*
G04 Draw part B2*
G01X300Y800D03*
G04 Draw part hole2*
G04 Draw part hole4*
G04 Draw part B3*
G01X3200Y300D03*
G04 Draw part B4*
G01X300Y300D03*
G04 Draw part S2*
G04 Draw part C17*
G04 Draw part C18*
G54D14*
G01X3300Y2000D03*
G01X3093Y2000D03*

G04 Draw traces*
G54D20*
G01X1530Y306D02*
G01X1083Y306D01*
G01X1083Y306D02*
G01X1000Y390D01*
G01X1000Y390D02*
G01X1000Y504D01*
G54D21*
G01X690Y5630D03*
G54D20*
G01X690Y5630D02*
G01X1030Y5630D01*
G01X1030Y5630D02*
G01X1190Y5470D01*
G01X1190Y5470D02*
G01X1500Y5470D01*
G01X1552Y6220D02*
G01X1550Y6100D01*
G01X1550Y6100D02*
G01X1550Y5910D01*
G01X1550Y5910D02*
G01X1500Y5860D01*
G01X1500Y5860D02*
G01X1500Y5470D01*
G54D21*
G01X1500Y5470D03*
G54D20*
G01X1000Y504D02*
G01X950Y550D01*
G01X950Y550D02*
G01X690Y550D01*
G54D21*
G01X690Y550D03*
G54D20*
G01X2865Y3900D02*
G01X2830Y3900D01*
G01X2830Y3900D02*
G01X3360Y3900D01*
G01X3360Y3900D02*
G01X3360Y5180D01*
G01X3360Y5180D02*
G01X3090Y5450D01*
G01X3090Y5450D02*
G01X1510Y5450D01*
G01X1510Y5450D02*
G01X1500Y5470D01*
G54D21*
G01X3190Y3900D03*
G54D20*
G01X3190Y3900D02*
G01X3360Y3900D01*
G01X3300Y2000D02*
G01X3290Y2000D01*
G01X3290Y2000D02*
G01X3360Y2000D01*
G01X3360Y2000D02*
G01X3360Y3900D01*
G54D22*
G01X1395Y5000D02*
G01X1400Y5020D01*
G01X1400Y5020D02*
G01X1390Y5070D01*
G01X1390Y5070D02*
G01X1390Y5310D01*
G01X1390Y5310D02*
G01X780Y5310D01*
G01X780Y5310D02*
G01X690Y5220D01*
G01X690Y5220D02*
G01X690Y4620D01*
G54D21*
G01X690Y4620D03*
G54D22*
G01X1552Y5000D02*
G01X1557Y4857D01*
G01X1557Y4857D02*
G01X1490Y4790D01*
G01X1490Y4790D02*
G01X1000Y4790D01*
G01X1000Y4790D02*
G01X880Y4670D01*
G01X880Y4670D02*
G01X880Y4440D01*
G54D21*
G01X880Y4440D03*
G01X1090Y4620D03*
G54D22*
G01X1090Y4620D02*
G01X1150Y4680D01*
G01X1150Y4680D02*
G01X1520Y4680D01*
G01X1520Y4680D02*
G01X1714Y4874D01*
G01X1714Y4874D02*
G01X1709Y5000D01*
G54D21*
G01X1290Y4440D03*
G54D22*
G01X1290Y4440D02*
G01X1290Y4510D01*
G01X1290Y4510D02*
G01X1350Y4570D01*
G01X1350Y4570D02*
G01X1580Y4570D01*
G01X1580Y4570D02*
G01X1870Y4860D01*
G01X1870Y4860D02*
G01X1870Y4930D01*
G01X1870Y4930D02*
G01X1867Y5000D01*
G54D21*
G01X1680Y1950D03*
G54D22*
G01X1680Y1950D02*
G01X1680Y1500D01*
G01X1680Y1500D02*
G01X1590Y1410D01*
G01X1590Y1410D02*
G01X630Y1410D01*
G01X630Y1410D02*
G01X280Y1760D01*
G01X280Y1760D02*
G01X280Y2800D01*
G01X280Y2800D02*
G01X380Y2900D01*
G01X380Y2900D02*
G01X700Y2900D01*
G01X2865Y3400D02*
G01X3120Y3400D01*
G01X3120Y3400D02*
G01X3230Y3290D01*
G01X3230Y3290D02*
G01X3230Y2270D01*
G01X3230Y2270D02*
G01X3150Y2190D01*
G01X3150Y2190D02*
G01X2550Y2190D01*
G01X2550Y2190D02*
G01X2510Y2230D01*
G01X2510Y2230D02*
G01X1590Y2230D01*
G01X1590Y2230D02*
G01X1480Y2120D01*
G01X1480Y2120D02*
G01X1480Y1720D01*
G01X1480Y1720D02*
G01X1400Y1640D01*
G54D21*
G01X1400Y1640D03*
G54D22*
G01X2024Y6220D02*
G01X2030Y6200D01*
G01X2030Y6200D02*
G01X2030Y6090D01*
G01X2030Y6090D02*
G01X2190Y5930D01*
G01X2190Y5930D02*
G01X2190Y5710D01*
G54D21*
G01X2190Y5710D03*
G54D22*
G01X2865Y2900D02*
G01X2350Y2900D01*
G01X2350Y2900D02*
G01X2350Y2630D01*
G01X2350Y2630D02*
G01X2290Y2570D01*
G01X2290Y2570D02*
G01X1380Y2570D01*
G01X1380Y2570D02*
G01X760Y1950D01*
G01X760Y1950D02*
G01X730Y1950D01*
G54D21*
G01X730Y1950D03*
G54D22*
G01X2865Y2900D02*
G01X2350Y2900D01*
G01X2350Y2900D02*
G01X2350Y4010D01*
G01X2350Y4010D02*
G01X2950Y4610D01*
G01X2950Y4610D02*
G01X2950Y4620D01*
G54D21*
G01X2950Y4620D03*
G01X2070Y1950D03*
G54D22*
G01X2070Y1950D02*
G01X2070Y1680D01*
G01X2070Y1680D02*
G01X2150Y1600D01*
G01X2150Y1600D02*
G01X2310Y1600D01*
G01X2310Y1600D02*
G01X2300Y1600D01*
G54D21*
G01X1680Y4440D03*
G54D22*
G01X1680Y4440D02*
G01X1920Y4440D01*
G01X1920Y4440D02*
G01X2190Y4710D01*
G01X2190Y4710D02*
G01X2190Y4950D01*
G01X2190Y4950D02*
G01X2182Y5000D01*
G01X3093Y1600D02*
G01X2733Y1600D01*
G01X2865Y2400D02*
G01X3090Y2400D01*
G01X3090Y2400D02*
G01X3130Y2440D01*
G01X3130Y2440D02*
G01X3130Y3070D01*
G01X3130Y3070D02*
G01X3060Y3140D01*
G01X3060Y3140D02*
G01X2580Y3140D01*
G01X2580Y3140D02*
G01X2510Y3210D01*
G01X2510Y3210D02*
G01X2510Y3970D01*
G01X2510Y3970D02*
G01X2920Y4380D01*
G01X2920Y4380D02*
G01X2950Y4390D01*
G54D21*
G01X2950Y4390D03*
G54D22*
G01X1709Y6220D02*
G01X1720Y6210D01*
G01X1720Y6210D02*
G01X1714Y6204D01*
G01X1714Y6204D02*
G01X1710Y6140D01*
G01X1710Y6140D02*
G01X1710Y5800D01*
G01X1710Y5800D02*
G01X1800Y5710D01*
G01X1800Y5710D02*
G01X1870Y5710D01*
G54D21*
G01X1870Y5710D03*
G54D22*
G01X2865Y2400D02*
G01X2880Y2400D01*
G01X2880Y2400D02*
G01X1480Y2400D01*
G01X1480Y2400D02*
G01X1290Y2210D01*
G01X1290Y2210D02*
G01X1290Y1850D01*
G01X1290Y1850D02*
G01X1080Y1640D01*
G54D21*
G01X1080Y1640D03*
G54D22*
G01X1867Y6220D02*
G01X1870Y6210D01*
G01X1870Y6210D02*
G01X1872Y6207D01*
G01X1872Y6207D02*
G01X1870Y6200D01*
G01X1870Y6200D02*
G01X1870Y5950D01*
G01X1870Y5950D02*
G01X1950Y5870D01*
G01X1950Y5870D02*
G01X2030Y5870D01*
G54D21*
G01X2030Y5870D03*
G54D22*
G01X700Y3400D02*
G01X1030Y3400D01*
G01X1030Y3400D02*
G01X1030Y2790D01*
G01X1030Y2790D02*
G01X900Y2660D01*
G01X900Y2660D02*
G01X490Y2660D01*
G01X490Y2660D02*
G01X410Y2580D01*
G01X410Y2580D02*
G01X410Y1960D01*
G01X410Y1960D02*
G01X730Y1640D01*
G54D21*
G01X730Y1640D03*
G01X2720Y4620D03*
G54D22*
G01X2720Y4620D02*
G01X2720Y4570D01*
G01X2720Y4570D02*
G01X2410Y4260D01*
G01X2410Y4260D02*
G01X1140Y4260D01*
G01X1140Y4260D02*
G01X1030Y4150D01*
G01X1030Y4150D02*
G01X1030Y3400D01*
G54D21*
G01X1870Y1760D03*
G54D22*
G01X1870Y1760D02*
G01X1870Y1410D01*
G01X1870Y1410D02*
G01X1710Y1250D01*
G01X1710Y1250D02*
G01X600Y1250D01*
G01X600Y1250D02*
G01X150Y1700D01*
G01X150Y1700D02*
G01X150Y3780D01*
G01X150Y3780D02*
G01X270Y3900D01*
G01X270Y3900D02*
G01X700Y3900D01*
G54D21*
G01X1780Y3150D03*
G54D20*
G01X1780Y3150D02*
G01X1782Y3150D01*
G01X1395Y6220D02*
G01X1400Y6280D01*
G01X1400Y6280D02*
G01X1400Y6050D01*
G01X1400Y6050D02*
G01X1300Y5950D01*
G01X1300Y5950D02*
G01X1300Y5870D01*
G54D21*
G01X1300Y5870D03*
G54D20*
G01X700Y2400D02*
G01X850Y2400D01*
G01X850Y2400D02*
G01X1210Y2760D01*
G01X1210Y2760D02*
G01X1410Y2760D01*
G01X1410Y2760D02*
G01X1480Y3110D01*
G01X1480Y3110D02*
G01X1782Y3150D01*
G01X3200Y300D02*
G01X3200Y800D01*
G01X2500Y500D02*
G01X2510Y480D01*
G01X2510Y480D02*
G01X2510Y360D01*
G01X2510Y360D02*
G01X2456Y306D01*
G01X2456Y306D02*
G01X1982Y306D01*
G01X1982Y503D02*
G01X1556Y503D01*
G01X1556Y503D02*
G01X1550Y510D01*
G01X1550Y510D02*
G01X1530Y503D01*
G01X1982Y503D02*
G01X2493Y503D01*
G01X2493Y503D02*
G01X2500Y510D01*
G01X2500Y510D02*
G01X2500Y500D01*
G01X1000Y800D02*
G01X1180Y800D01*
G01X1180Y800D02*
G01X1240Y740D01*
G01X1240Y740D02*
G01X1240Y550D01*
G01X1240Y550D02*
G01X1286Y503D01*
G01X1286Y503D02*
G01X1530Y503D01*
G01X3300Y1600D02*
G01X3300Y1350D01*
G01X3300Y1350D02*
G01X3200Y1250D01*
G01X3200Y1250D02*
G01X3200Y800D01*
G01X3200Y300D02*
G01X3000Y300D01*
G01X3000Y300D02*
G01X2800Y500D01*
G01X2800Y500D02*
G01X2500Y500D01*
G01X1395Y6220D02*
G01X1400Y6230D01*
G01X1400Y6230D02*
G01X1400Y6050D01*
G01X1400Y6050D02*
G01X1300Y5950D01*
G01X1300Y5950D02*
G01X1300Y5870D01*
G01X3093Y2000D02*
G01X2730Y2000D01*
G54D21*
G01X2730Y2000D03*
G54D20*
G01X3093Y2000D02*
G01X3090Y1990D01*
G01X3090Y1990D02*
G01X3090Y1920D01*
G01X3090Y1920D02*
G01X3300Y1710D01*
G01X3300Y1710D02*
G01X3300Y1600D01*
G54D22*
G01X2182Y6220D02*
G01X2190Y6080D01*
G01X2190Y6080D02*
G01X2350Y5920D01*
G01X2350Y5920D02*
G01X2350Y5870D01*
G54D21*
G01X2350Y5870D03*
G01X1860Y4620D03*
G54D22*
G01X1860Y4620D02*
G01X2030Y4790D01*
G01X2030Y4790D02*
G01X2030Y4980D01*
G01X2030Y4980D02*
G01X2024Y5000D01*
G54D20*
G01X1982Y700D02*
G01X1530Y700D01*
G54D21*
G01X2320Y1250D03*
G54D20*
G01X2320Y1250D02*
G01X2440Y1250D01*
G01X2440Y1250D02*
G01X2500Y1190D01*
G01X2500Y1190D02*
G01X2500Y790D01*
G01X2500Y790D02*
G01X2500Y795D01*
G01X1982Y700D02*
G01X2220Y700D01*
G01X2220Y700D02*
G01X2310Y790D01*
G01X2310Y790D02*
G01X2480Y790D01*
G01X2480Y790D02*
G01X2500Y795D01*

G04 Draw Text*
M00*
M02*
