G04 FreePCB version 1.359*
G04 C:\Users\Jack Ruby\Documents\GitHub\DAQpack_mk2\FlexCAM_addedOutlines\bottom_paste_mask.grb*
G04 bottom paste mask layer *
G04 Scale: 100 percent, Rotated: No, Reflected: No *
%FSLAX24Y24*%
%MOIN*%
%LN bottom paste mask *%
G04 Rounded Rectangle Macro, params: W/2, H/2, R *
%AMRNDREC*
21,1,$1+$1,$2+$2-$3-$3,0,0,0*
21,1,$1+$1-$3-$3,$2+$2,0,0,0*
1,1,$3+$3,$1-$3,$2-$3*
1,1,$3+$3,$3-$1,$2-$3*
1,1,$3+$3,$1-$3,$3-$2*
1,1,$3+$3,$3-$1,$3-$2*%
G04 Rectangular Thermal Macro, params: W/2, H/2, T/2 *
%AMRECTHERM*
$4=$3/2*
21,1,$1-$3,$2-$3,0-$1/2-$4,0-$2/2-$4,0*
21,1,$1-$3,$2-$3,0-$1/2-$4,$2/2+$4,0*
21,1,$1-$3,$2-$3,$1/2+$4,0-$2/2-$4,0*
21,1,$1-$3,$2-$3,$1/2+$4,$2/2+$4,0*%
%ADD10C,0.005000*%
%ADD11R,0.011811X0.027559*%
%ADD12R,0.011811X0.039370*%
%ADD13R,0.023622X0.009055*%
%ADD14R,0.009055X0.023622*%
%ADD15R,0.122047X0.122047*%
%ADD16R,0.011811X0.011811*%
%ADD17R,0.062992X0.062992*%
%ADD18R,0.063000X0.043000*%
%ADD19R,0.008661X0.035433*%
%ADD20R,0.019685X0.033465*%
%ADD21R,0.035433X0.031496*%
%ADD22R,0.019685X0.039370*%
%ADD23R,0.041339X0.047244*%
G90*
G70D02*

G04 Step and Repeat for panelization *

G04 ----------------------- Draw board outline (positive)*
%LPD*%
G54D10*
G01X24600Y14500D02*
G01X24600Y19800D01*
G04 end of side 1*
G01X28100Y19800D01*
G04 end of side 2*
G01X28100Y14500D01*
G04 end of side 3*
G01X24600Y14500D01*
G01X500Y27500D02*
G01X4000Y27500D01*
G04 end of side 1*
G01X4000Y32700D01*
G04 end of side 2*
G01X500Y32700D01*
G04 end of side 3*
G01X500Y27500D01*
G01X16000Y37800D02*
G01X16000Y41000D01*
G04 end of side 1*
G01X19100Y41000D01*
G04 end of side 2*
G01X19100Y37800D01*
G04 end of side 3*
G01X16000Y37800D01*
G01X500Y14500D02*
G01X500Y19700D01*
G04 end of side 1*
G01X4000Y19700D01*
G04 end of side 2*
G01X4000Y14500D01*
G04 end of side 3*
G01X500Y14500D01*
G01X400Y8100D02*
G01X400Y13300D01*
G04 end of side 1*
G01X3900Y13300D01*
G04 end of side 2*
G01X3900Y8100D01*
G04 end of side 3*
G01X400Y8100D01*
G01X5200Y300D02*
G01X8700Y300D01*
G04 end of side 1*
G01X8700Y6800D01*
G04 end of side 2*
G01X5200Y6800D01*
G04 end of side 3*
G01X5200Y300D01*
G01X600Y36700D02*
G01X600Y38000D01*
G04 end of side 1*
G01X4300Y38000D01*
G04 end of side 2*
G01X4300Y36700D01*
G04 end of side 3*
G01X600Y36700D01*
G01X600Y34100D02*
G01X600Y35400D01*
G04 end of side 1*
G01X4300Y35400D01*
G04 end of side 2*
G01X4300Y34100D01*
G04 end of side 3*
G01X600Y34100D01*
G01X300Y300D02*
G01X3800Y300D01*
G04 end of side 1*
G01X3800Y6800D01*
G04 end of side 2*
G01X300Y6800D01*
G04 end of side 3*
G01X300Y300D01*
G01X500Y21000D02*
G01X4000Y21000D01*
G04 end of side 1*
G01X4000Y26200D01*
G04 end of side 2*
G01X500Y26200D01*
G04 end of side 3*
G01X500Y21000D01*
G01X16000Y41900D02*
G01X21000Y41900D01*
G04 end of side 1*
G01X21000Y49400D01*
G04 end of side 2*
G01X16000Y49400D01*
G04 end of side 3*
G01X16000Y41900D01*
G01X500Y39200D02*
G01X7000Y39200D01*
G04 end of side 1*
G01X7000Y49500D01*
G04 end of side 2*
G01X500Y49500D01*
G04 end of side 3*
G01X500Y39200D01*
G01X5200Y8100D02*
G01X5200Y13300D01*
G04 end of side 1*
G01X8700Y13300D01*
G04 end of side 2*
G01X8700Y8100D01*
G04 end of side 3*
G01X5200Y8100D01*
G01X5200Y14500D02*
G01X5200Y19700D01*
G04 end of side 1*
G01X8700Y19700D01*
G04 end of side 2*
G01X8700Y14500D01*
G04 end of side 3*
G01X5200Y14500D01*
G01X20100Y37800D02*
G01X20100Y41000D01*
G04 end of side 1*
G01X23200Y41000D01*
G04 end of side 2*
G01X23200Y37800D01*
G04 end of side 3*
G01X20100Y37800D01*
G01X5300Y27400D02*
G01X8800Y27400D01*
G04 end of side 1*
G01X8800Y32600D01*
G04 end of side 2*
G01X5300Y32600D01*
G04 end of side 3*
G01X5300Y27400D01*
G01X29500Y14500D02*
G01X29500Y19800D01*
G04 end of side 1*
G01X33000Y19800D01*
G04 end of side 2*
G01X33000Y14500D01*
G04 end of side 3*
G01X29500Y14500D01*
G01X5200Y21000D02*
G01X8700Y21000D01*
G04 end of side 1*
G01X8700Y26200D01*
G04 end of side 2*
G01X5200Y26200D01*
G04 end of side 3*
G01X5200Y21000D01*
G01X22300Y41900D02*
G01X27300Y41900D01*
G04 end of side 1*
G01X27300Y49400D01*
G04 end of side 2*
G01X22300Y49400D01*
G04 end of side 3*
G01X22300Y41900D01*
G01X8000Y39200D02*
G01X14500Y39200D01*
G04 end of side 1*
G01X14500Y49500D01*
G04 end of side 2*
G01X8000Y49500D01*
G04 end of side 3*
G01X8000Y39200D01*
G01X10100Y300D02*
G01X13600Y300D01*
G04 end of side 1*
G01X13600Y6800D01*
G04 end of side 2*
G01X10100Y6800D01*
G04 end of side 3*
G01X10100Y300D01*
G01X15000Y300D02*
G01X18500Y300D01*
G04 end of side 1*
G01X18500Y6800D01*
G04 end of side 2*
G01X15000Y6800D01*
G04 end of side 3*
G01X15000Y300D01*
G01X19900Y300D02*
G01X23400Y300D01*
G04 end of side 1*
G01X23400Y6800D01*
G04 end of side 2*
G01X19900Y6800D01*
G04 end of side 3*
G01X19900Y300D01*
G01X24600Y300D02*
G01X28100Y300D01*
G04 end of side 1*
G01X28100Y6800D01*
G04 end of side 2*
G01X24600Y6800D01*
G04 end of side 3*
G01X24600Y300D01*
G01X29500Y300D02*
G01X33000Y300D01*
G04 end of side 1*
G01X33000Y6800D01*
G04 end of side 2*
G01X29500Y6800D01*
G04 end of side 3*
G01X29500Y300D01*
G01X34400Y300D02*
G01X37900Y300D01*
G04 end of side 1*
G01X37900Y6800D01*
G04 end of side 2*
G01X34400Y6800D01*
G04 end of side 3*
G01X34400Y300D01*
G01X39300Y300D02*
G01X42800Y300D01*
G04 end of side 1*
G01X42800Y6800D01*
G04 end of side 2*
G01X39300Y6800D01*
G04 end of side 3*
G01X39300Y300D01*
G01X44100Y300D02*
G01X47600Y300D01*
G04 end of side 1*
G01X47600Y6800D01*
G04 end of side 2*
G01X44100Y6800D01*
G04 end of side 3*
G01X44100Y300D01*
G01X10000Y8000D02*
G01X10000Y13200D01*
G04 end of side 1*
G01X13500Y13200D01*
G04 end of side 2*
G01X13500Y8000D01*
G04 end of side 3*
G01X10000Y8000D01*
G01X15000Y8000D02*
G01X15000Y13200D01*
G04 end of side 1*
G01X18500Y13200D01*
G04 end of side 2*
G01X18500Y8000D01*
G04 end of side 3*
G01X15000Y8000D01*
G01X19800Y7900D02*
G01X19800Y13100D01*
G04 end of side 1*
G01X23300Y13100D01*
G04 end of side 2*
G01X23300Y7900D01*
G04 end of side 3*
G01X19800Y7900D01*
G01X24700Y7900D02*
G01X24700Y13100D01*
G04 end of side 1*
G01X28200Y13100D01*
G04 end of side 2*
G01X28200Y7900D01*
G04 end of side 3*
G01X24700Y7900D01*
G01X29500Y7800D02*
G01X29500Y13000D01*
G04 end of side 1*
G01X33000Y13000D01*
G04 end of side 2*
G01X33000Y7800D01*
G04 end of side 3*
G01X29500Y7800D01*
G01X34500Y7800D02*
G01X34500Y13000D01*
G04 end of side 1*
G01X38000Y13000D01*
G04 end of side 2*
G01X38000Y7800D01*
G04 end of side 3*
G01X34500Y7800D01*
G01X39300Y7700D02*
G01X39300Y12900D01*
G04 end of side 1*
G01X42800Y12900D01*
G04 end of side 2*
G01X42800Y7700D01*
G04 end of side 3*
G01X39300Y7700D01*
G01X44100Y7700D02*
G01X44100Y12900D01*
G04 end of side 1*
G01X47600Y12900D01*
G04 end of side 2*
G01X47600Y7700D01*
G04 end of side 3*
G01X44100Y7700D01*
G01X10000Y14500D02*
G01X10000Y19700D01*
G04 end of side 1*
G01X13500Y19700D01*
G04 end of side 2*
G01X13500Y14500D01*
G04 end of side 3*
G01X10000Y14500D01*
G01X15000Y14500D02*
G01X15000Y19700D01*
G04 end of side 1*
G01X18500Y19700D01*
G04 end of side 2*
G01X18500Y14500D01*
G04 end of side 3*
G01X15000Y14500D01*
G01X19800Y14500D02*
G01X19800Y19700D01*
G04 end of side 1*
G01X23300Y19700D01*
G04 end of side 2*
G01X23300Y14500D01*
G04 end of side 3*
G01X19800Y14500D01*
G01X34500Y14500D02*
G01X34500Y19800D01*
G04 end of side 1*
G01X38000Y19800D01*
G04 end of side 2*
G01X38000Y14500D01*
G04 end of side 3*
G01X34500Y14500D01*
G01X39400Y14500D02*
G01X39400Y19800D01*
G04 end of side 1*
G01X42900Y19800D01*
G04 end of side 2*
G01X42900Y14500D01*
G04 end of side 3*
G01X39400Y14500D01*
G01X44100Y14500D02*
G01X44100Y19800D01*
G04 end of side 1*
G01X47600Y19800D01*
G04 end of side 2*
G01X47600Y14500D01*
G04 end of side 3*
G01X44100Y14500D01*
G01X10000Y21000D02*
G01X13500Y21000D01*
G04 end of side 1*
G01X13500Y26200D01*
G04 end of side 2*
G01X10000Y26200D01*
G04 end of side 3*
G01X10000Y21000D01*
G01X15000Y21000D02*
G01X18500Y21000D01*
G04 end of side 1*
G01X18500Y26200D01*
G04 end of side 2*
G01X15000Y26200D01*
G04 end of side 3*
G01X15000Y21000D01*
G01X19700Y21000D02*
G01X23200Y21000D01*
G04 end of side 1*
G01X23200Y26200D01*
G04 end of side 2*
G01X19700Y26200D01*
G04 end of side 3*
G01X19700Y21000D01*
G01X24500Y21000D02*
G01X28000Y21000D01*
G04 end of side 1*
G01X28000Y26200D01*
G04 end of side 2*
G01X24500Y26200D01*
G04 end of side 3*
G01X24500Y21000D01*
G01X29500Y21000D02*
G01X33000Y21000D01*
G04 end of side 1*
G01X33000Y26200D01*
G04 end of side 2*
G01X29500Y26200D01*
G04 end of side 3*
G01X29500Y21000D01*
G01X34500Y21000D02*
G01X38000Y21000D01*
G04 end of side 1*
G01X38000Y26200D01*
G04 end of side 2*
G01X34500Y26200D01*
G04 end of side 3*
G01X34500Y21000D01*
G01X39200Y21000D02*
G01X42700Y21000D01*
G04 end of side 1*
G01X42700Y26200D01*
G04 end of side 2*
G01X39200Y26200D01*
G04 end of side 3*
G01X39200Y21000D01*
G01X44000Y21000D02*
G01X47500Y21000D01*
G04 end of side 1*
G01X47500Y26200D01*
G04 end of side 2*
G01X44000Y26200D01*
G04 end of side 3*
G01X44000Y21000D01*
G01X28600Y42000D02*
G01X33600Y42000D01*
G04 end of side 1*
G01X33600Y49500D01*
G04 end of side 2*
G01X28600Y49500D01*
G04 end of side 3*
G01X28600Y42000D01*
G01X34900Y42000D02*
G01X39900Y42000D01*
G04 end of side 1*
G01X39900Y49500D01*
G04 end of side 2*
G01X34900Y49500D01*
G04 end of side 3*
G01X34900Y42000D01*
G01X41000Y42000D02*
G01X46000Y42000D01*
G04 end of side 1*
G01X46000Y49500D01*
G04 end of side 2*
G01X41000Y49500D01*
G04 end of side 3*
G01X41000Y42000D01*
G01X10000Y27400D02*
G01X13500Y27400D01*
G04 end of side 1*
G01X13500Y32600D01*
G04 end of side 2*
G01X10000Y32600D01*
G04 end of side 3*
G01X10000Y27400D01*
G01X14800Y27300D02*
G01X18300Y27300D01*
G04 end of side 1*
G01X18300Y32500D01*
G04 end of side 2*
G01X14800Y32500D01*
G04 end of side 3*
G01X14800Y27300D01*
G01X19700Y27300D02*
G01X23200Y27300D01*
G04 end of side 1*
G01X23200Y32500D01*
G04 end of side 2*
G01X19700Y32500D01*
G04 end of side 3*
G01X19700Y27300D01*
G01X24500Y37800D02*
G01X24500Y41000D01*
G04 end of side 1*
G01X27600Y41000D01*
G04 end of side 2*
G01X27600Y37800D01*
G04 end of side 3*
G01X24500Y37800D01*
G01X28600Y37800D02*
G01X28600Y41000D01*
G04 end of side 1*
G01X31700Y41000D01*
G04 end of side 2*
G01X31700Y37800D01*
G04 end of side 3*
G01X28600Y37800D01*
G01X32800Y37800D02*
G01X32800Y41000D01*
G04 end of side 1*
G01X35900Y41000D01*
G04 end of side 2*
G01X35900Y37800D01*
G04 end of side 3*
G01X32800Y37800D01*
G01X36900Y37800D02*
G01X36900Y41000D01*
G04 end of side 1*
G01X40000Y41000D01*
G04 end of side 2*
G01X40000Y37800D01*
G04 end of side 3*
G01X36900Y37800D01*
G01X41100Y37800D02*
G01X41100Y41000D01*
G04 end of side 1*
G01X44200Y41000D01*
G04 end of side 2*
G01X44200Y37800D01*
G04 end of side 3*
G01X41100Y37800D01*
G01X45200Y37800D02*
G01X45200Y41000D01*
G04 end of side 1*
G01X48300Y41000D01*
G04 end of side 2*
G01X48300Y37800D01*
G04 end of side 3*
G01X45200Y37800D01*
G01X5300Y36700D02*
G01X5300Y38000D01*
G04 end of side 1*
G01X9000Y38000D01*
G04 end of side 2*
G01X9000Y36700D01*
G04 end of side 3*
G01X5300Y36700D01*
G01X5300Y34100D02*
G01X5300Y35400D01*
G04 end of side 1*
G01X9000Y35400D01*
G04 end of side 2*
G01X9000Y34100D01*
G04 end of side 3*
G01X5300Y34100D01*
G01X10000Y36700D02*
G01X10000Y38000D01*
G04 end of side 1*
G01X13700Y38000D01*
G04 end of side 2*
G01X13700Y36700D01*
G04 end of side 3*
G01X10000Y36700D01*
G01X10000Y34100D02*
G01X10000Y35400D01*
G04 end of side 1*
G01X13700Y35400D01*
G04 end of side 2*
G01X13700Y34100D01*
G04 end of side 3*
G01X10000Y34100D01*
G01X14800Y34100D02*
G01X14800Y35400D01*
G04 end of side 1*
G01X18500Y35400D01*
G04 end of side 2*
G01X18500Y34100D01*
G04 end of side 3*
G01X14800Y34100D01*
G01X19500Y34100D02*
G01X19500Y35400D01*
G04 end of side 1*
G01X23200Y35400D01*
G04 end of side 2*
G01X23200Y34100D01*
G04 end of side 3*
G01X19500Y34100D01*
G01X48700Y8900D02*
G01X50000Y8900D01*
G04 end of side 1*
G01X50000Y5200D01*
G04 end of side 2*
G01X48700Y5200D01*
G04 end of side 3*
G01X48700Y8900D01*
G01X48700Y4000D02*
G01X50000Y4000D01*
G04 end of side 1*
G01X50000Y300D01*
G04 end of side 2*
G01X48700Y300D01*
G04 end of side 3*
G01X48700Y4000D01*
G01X46900Y41900D02*
G01X46900Y45100D01*
G04 end of side 1*
G01X50000Y45100D01*
G04 end of side 2*
G01X50000Y41900D01*
G04 end of side 3*
G01X46900Y41900D01*
G01X46900Y46300D02*
G01X46900Y49500D01*
G04 end of side 1*
G01X50000Y49500D01*
G04 end of side 2*
G01X50000Y46300D01*
G04 end of side 3*
G01X46900Y46300D01*
G01X24500Y34100D02*
G01X24500Y35400D01*
G04 end of side 1*
G01X28200Y35400D01*
G04 end of side 2*
G01X28200Y34100D01*
G04 end of side 3*
G01X24500Y34100D01*
G01X29200Y34100D02*
G01X29200Y35400D01*
G04 end of side 1*
G01X32900Y35400D01*
G04 end of side 2*
G01X32900Y34100D01*
G04 end of side 3*
G01X29200Y34100D01*
G01X33900Y34100D02*
G01X33900Y35400D01*
G04 end of side 1*
G01X37600Y35400D01*
G04 end of side 2*
G01X37600Y34100D01*
G04 end of side 3*
G01X33900Y34100D01*
G01X38700Y34100D02*
G01X38700Y35400D01*
G04 end of side 1*
G01X42400Y35400D01*
G04 end of side 2*
G01X42400Y34100D01*
G04 end of side 3*
G01X38700Y34100D01*
G01X43400Y34100D02*
G01X43400Y35400D01*
G04 end of side 1*
G01X47100Y35400D01*
G04 end of side 2*
G01X47100Y34100D01*
G04 end of side 3*
G01X43400Y34100D01*
G01X48700Y18800D02*
G01X50000Y18800D01*
G04 end of side 1*
G01X50000Y15100D01*
G04 end of side 2*
G01X48700Y15100D01*
G04 end of side 3*
G01X48700Y18800D01*
G01X48700Y13900D02*
G01X50000Y13900D01*
G04 end of side 1*
G01X50000Y10200D01*
G04 end of side 2*
G01X48700Y10200D01*
G04 end of side 3*
G01X48700Y13900D01*
G01X48700Y28800D02*
G01X50000Y28800D01*
G04 end of side 1*
G01X50000Y25100D01*
G04 end of side 2*
G01X48700Y25100D01*
G04 end of side 3*
G01X48700Y28800D01*
G01X48700Y23900D02*
G01X50000Y23900D01*
G04 end of side 1*
G01X50000Y20200D01*
G04 end of side 2*
G01X48700Y20200D01*
G04 end of side 3*
G01X48700Y23900D01*
G01X48700Y33700D02*
G01X50000Y33700D01*
G04 end of side 1*
G01X50000Y30000D01*
G04 end of side 2*
G01X48700Y30000D01*
G04 end of side 3*
G01X48700Y33700D01*
G01X24500Y27300D02*
G01X24500Y32500D01*
G04 end of side 1*
G01X28000Y32500D01*
G04 end of side 2*
G01X28000Y27300D01*
G04 end of side 3*
G01X24500Y27300D01*
G01X29300Y27200D02*
G01X29300Y32400D01*
G04 end of side 1*
G01X32800Y32400D01*
G04 end of side 2*
G01X32800Y27200D01*
G04 end of side 3*
G01X29300Y27200D01*
G01X34300Y27200D02*
G01X34300Y32400D01*
G04 end of side 1*
G01X37800Y32400D01*
G04 end of side 2*
G01X37800Y27200D01*
G04 end of side 3*
G01X34300Y27200D01*
G01X39100Y27100D02*
G01X39100Y32300D01*
G04 end of side 1*
G01X42600Y32300D01*
G04 end of side 2*
G01X42600Y27100D01*
G04 end of side 3*
G01X39100Y27100D01*
G01X43900Y27100D02*
G01X43900Y32300D01*
G04 end of side 1*
G01X47400Y32300D01*
G04 end of side 2*
G01X47400Y27100D01*
G04 end of side 3*
G01X43900Y27100D01*

G04 -------------- Draw Parts, Pads, Traces, Vias and Text (positive)*
%LPD*%
G04 Draw part A_p2*
G04 Draw part A_p3*
G04 Draw part A_p4*
G04 Draw part A_p5*
G04 Draw part A_p6*
G04 Draw part B_U3*
G04 Draw part B_C14*
G04 Draw part B_C15*
G04 Draw part B_H2*
G54D11*
G01X1400Y5400D03*
G01X1596Y5400D03*
G01X1793Y5400D03*
G01X1990Y5400D03*
G01X2187Y5400D03*
G01X2384Y5400D03*
G01X2581Y5400D03*
G01X2777Y5400D03*
G54D12*
G01X1088Y6443D03*
G01X3088Y6443D03*
G04 Draw part B_U1*
G54D13*
G01X3025Y4177D03*
G01X3025Y3981D03*
G01X3025Y3784D03*
G01X3025Y3587D03*
G01X3025Y3390D03*
G01X3025Y3193D03*
G01X3025Y2996D03*
G01X3025Y2800D03*
G54D14*
G01X2770Y2544D03*
G01X2573Y2544D03*
G01X2376Y2544D03*
G01X2179Y2544D03*
G01X1982Y2544D03*
G01X1785Y2544D03*
G01X1588Y2544D03*
G01X1392Y2544D03*
G54D13*
G01X1136Y2800D03*
G01X1136Y2996D03*
G01X1136Y3193D03*
G01X1136Y3390D03*
G01X1136Y3587D03*
G01X1136Y3784D03*
G01X1136Y3981D03*
G01X1136Y4177D03*
G54D14*
G01X1392Y4433D03*
G01X1588Y4433D03*
G01X1785Y4433D03*
G01X1982Y4433D03*
G01X2179Y4433D03*
G01X2376Y4433D03*
G01X2573Y4433D03*
G01X2770Y4433D03*
G54D15*
G01X2081Y3488D03*
G04 Draw part B_C16*
G54D16*
G01X800Y3400D03*
G01X800Y3606D03*
G04 Draw part B_R1*
G01X2400Y4750D03*
G01X2606Y4750D03*
G04 Draw part B_D1*
G04 Draw part B_R2*
G04 Draw part B_U2*
G04 Draw part B_H1*
G04 Draw part B_B1*
G04 Draw part B_B2*
G04 Draw part B_hole2*
G04 Draw part B_hole4*
G04 Draw part B_B3*
G04 Draw part B_B4*
G04 Draw part B_S2*
G54D17*
G01X1479Y1100D03*
G54D18*
G01X2620Y1552D03*
G01X2620Y647D03*
G04 Draw part B_C17*
G54D16*
G01X3300Y3600D03*
G01X3300Y3806D03*
G04 Draw part B_C18*
G04 Draw part C_H1*
G04 Draw part C_H2*
G54D19*
G01X2495Y11790D03*
G01X2337Y11790D03*
G01X2180Y11790D03*
G01X2022Y11790D03*
G01X1865Y11790D03*
G01X1707Y11790D03*
G01X1707Y12825D03*
G01X1865Y12825D03*
G01X2022Y12825D03*
G01X2180Y12825D03*
G01X2337Y12825D03*
G01X2495Y12825D03*
G54D20*
G01X2809Y12016D03*
G01X2809Y12599D03*
G01X1392Y12599D03*
G01X1392Y12016D03*
G04 Draw part C_U1*
G04 Draw part C_J6*
G04 Draw part C_C2*
G04 Draw part C_J5*
G04 Draw part C_J4*
G04 Draw part C_C3*
G04 Draw part C_J2*
G04 Draw part C_J1*
G04 Draw part C_C1*
G04 Draw part C_J3*
G04 Draw part C_J8*
G04 Draw part C_C4*
G04 Draw part C_J10*
G04 Draw part C_J9*
G04 Draw part C_J7*
G04 Draw part C_J11*
G04 Draw part C_R1*
G54D16*
G01X2600Y11200D03*
G01X2600Y11406D03*
G04 Draw part C_R2*
G01X2250Y11200D03*
G01X2250Y11406D03*
G04 Draw part D_U1*
G04 Draw part D_H1*
G04 Draw part D_H2*
G54D19*
G01X2595Y18240D03*
G01X2437Y18240D03*
G01X2280Y18240D03*
G01X2122Y18240D03*
G01X1965Y18240D03*
G01X1807Y18240D03*
G01X1807Y19275D03*
G01X1965Y19275D03*
G01X2122Y19275D03*
G01X2280Y19275D03*
G01X2437Y19275D03*
G01X2595Y19275D03*
G54D20*
G01X2909Y18466D03*
G01X2909Y19049D03*
G01X1492Y19049D03*
G01X1492Y18466D03*
G04 Draw part D_U2*
G04 Draw part D_U3*
G04 Draw part D_C1*
G04 Draw part D_R1*
G04 Draw part D_R2*
G04 Draw part D_R3*
G04 Draw part D_R4*
G04 Draw part D_R5*
G04 Draw part D_C2*
G04 Draw part D_C3*
G04 Draw part D_P1*
G04 Draw part D_P2*
G04 Draw part D_P3*
G04 Draw part D_R6*
G04 Draw part D_R7*
G04 Draw part D_R8*
G04 Draw part D_R9*
G04 Draw part D_R10*
G04 Draw part D_C4*
G04 Draw part D_R11*
G04 Draw part E_P1*
G54D19*
G01X17950Y38900D03*
G01X17792Y38900D03*
G01X17635Y38900D03*
G01X17477Y38900D03*
G01X17320Y38900D03*
G01X17162Y38900D03*
G01X17162Y39935D03*
G01X17320Y39935D03*
G01X17477Y39935D03*
G01X17635Y39935D03*
G01X17792Y39935D03*
G01X17950Y39935D03*
G54D20*
G01X18264Y39126D03*
G01X18264Y39709D03*
G01X16847Y39709D03*
G01X16847Y39126D03*
G04 Draw part E_P3*
G04 Draw part E_P4*
G04 Draw part E_P5*
G04 Draw part E_P6*
G04 Draw part E_P7*
G04 Draw part E_P8*
G04 Draw part E_P9*
G04 Draw part E_P10*
G04 Draw part E_P11*
G04 Draw part E_P12*
G04 Draw part E_P13*
G04 Draw part E_P14*
G04 Draw part F_H2*
G54D19*
G01X2590Y31190D03*
G01X2432Y31190D03*
G01X2275Y31190D03*
G01X2117Y31190D03*
G01X1960Y31190D03*
G01X1802Y31190D03*
G01X1802Y32225D03*
G01X1960Y32225D03*
G01X2117Y32225D03*
G01X2275Y32225D03*
G01X2432Y32225D03*
G01X2590Y32225D03*
G54D20*
G01X2904Y31416D03*
G01X2904Y31999D03*
G01X1487Y31999D03*
G01X1487Y31416D03*
G04 Draw part F_U1*
G04 Draw part F_U2*
G04 Draw part F_R1*
G54D16*
G01X3500Y29900D03*
G01X3500Y30106D03*
G04 Draw part F_R2*
G01X3500Y29600D03*
G01X3500Y29393D03*
G04 Draw part F_C4*
G01X2650Y29400D03*
G01X2443Y29400D03*
G04 Draw part F_C3*
G01X2650Y29100D03*
G01X2443Y29100D03*
G04 Draw part F_C1*
G01X2160Y28300D03*
G01X2160Y28093D03*
G04 Draw part F_C2*
G01X2850Y28100D03*
G01X2850Y28306D03*
G04 Draw part F_C5*
G01X1400Y30700D03*
G01X1193Y30700D03*
G04 Draw part F_C6*
G01X2200Y30130D03*
G01X1993Y30130D03*
G04 Draw part F_J1*
G04 Draw part F_J2*
G04 Draw part F_J4*
G04 Draw part F_J5*
G04 Draw part F_J6*
G04 Draw part F_J3*
G04 Draw part F_T1*
G04 Draw part F_R3*
G01X1950Y30700D03*
G01X1743Y30700D03*
G04 Draw part F_U3*
G04 Draw part F_J7*
G04 Draw part F_J8*
G04 Draw part F_R4*
G01X670Y29200D03*
G01X876Y29200D03*
G04 Draw part F_C7*
G01X1200Y30100D03*
G01X1200Y30306D03*
G04 Draw part F_P9*
G01X3300Y29100D03*
G01X3506Y29100D03*
G04 Draw part F_hole4*
G04 Draw part G_U2*
G04 Draw part G_H1*
G04 Draw part G_H2*
G54D19*
G01X26690Y18240D03*
G01X26532Y18240D03*
G01X26375Y18240D03*
G01X26217Y18240D03*
G01X26060Y18240D03*
G01X25902Y18240D03*
G01X25902Y19275D03*
G01X26060Y19275D03*
G01X26217Y19275D03*
G01X26375Y19275D03*
G01X26532Y19275D03*
G01X26690Y19275D03*
G54D20*
G01X27004Y18466D03*
G01X27004Y19049D03*
G01X25587Y19049D03*
G01X25587Y18466D03*
G04 Draw part G_P2*
G04 Draw part G_P4*
G04 Draw part G_P6*
G04 Draw part G_P1*
G04 Draw part G_P3*
G04 Draw part G_P5*
G04 Draw part G_P8*
G04 Draw part G_P7*
G04 Draw part G_P9*
G04 Draw part G_C1*
G04 Draw part G_P10*
G04 Draw part G_P11*
G04 Draw part H_H1*
G54D19*
G01X2595Y24740D03*
G01X2437Y24740D03*
G01X2280Y24740D03*
G01X2122Y24740D03*
G01X1965Y24740D03*
G01X1807Y24740D03*
G01X1807Y25775D03*
G01X1965Y25775D03*
G01X2122Y25775D03*
G01X2280Y25775D03*
G01X2437Y25775D03*
G01X2595Y25775D03*
G54D20*
G01X2909Y24966D03*
G01X2909Y25549D03*
G01X1492Y25549D03*
G01X1492Y24966D03*
G04 Draw part H_U1*
G04 Draw part H_R2*
G04 Draw part H_X1*
G54D21*
G01X2100Y23750D03*
G01X2651Y23750D03*
G01X2651Y23316D03*
G01X2100Y23316D03*
G04 Draw part H_C1*
G54D16*
G01X2800Y24050D03*
G01X2593Y24050D03*
G04 Draw part H_C2*
G01X1800Y23250D03*
G01X1800Y23456D03*
G04 Draw part H_C7*
G04 Draw part H_C8*
G01X1100Y25000D03*
G01X893Y25000D03*
G04 Draw part H_C9*
G01X1100Y25550D03*
G01X893Y25550D03*
G04 Draw part H_H2*
G04 Draw part H_A1*
G04 Draw part H_hole3*
G04 Draw part H_L1*
G04 Draw part H_C4*
G04 Draw part H_C3*
G04 Draw part I_U3*
G04 Draw part I_C14*
G04 Draw part I_C15*
G04 Draw part I_P1*
G04 Draw part I_P2*
G04 Draw part I_H2*
G54D11*
G01X17900Y48000D03*
G01X18096Y48000D03*
G01X18293Y48000D03*
G01X18490Y48000D03*
G01X18687Y48000D03*
G01X18884Y48000D03*
G01X19081Y48000D03*
G01X19277Y48000D03*
G54D12*
G01X17588Y49043D03*
G01X19588Y49043D03*
G04 Draw part I_U1*
G04 Draw part I_C16*
G04 Draw part I_R1*
G04 Draw part I_H1*
G04 Draw part I_D1*
G04 Draw part I_R2*
G04 Draw part I_S1*
G04 Draw part I_H3*
G54D22*
G01X17009Y44996D03*
G01X17442Y44996D03*
G01X17875Y44996D03*
G01X18170Y44996D03*
G01X18446Y44996D03*
G01X18741Y44996D03*
G01X19174Y44996D03*
G01X19607Y44996D03*
G01X20040Y44996D03*
G54D23*
G01X20582Y47382D03*
G01X16467Y47382D03*
G01X20582Y45630D03*
G01X16467Y45630D03*
G04 Draw part I_P3*
G04 Draw part I_P4*
G04 Draw part I_C17*
G04 Draw part I_hole1*
G04 Draw part I_hole2*
G04 Draw part J_J1*
G54D16*
G01X4600Y47700D03*
G01X4806Y47700D03*
G04 Draw part J_J2*
G01X4600Y48100D03*
G01X4806Y48100D03*
G04 Draw part J_J3*
G01X4800Y47300D03*
G01X4593Y47300D03*
G04 Draw part J_C2*
G04 Draw part J_R7*
G01X3000Y46100D03*
G01X3206Y46100D03*
G04 Draw part J_R8*
G01X3000Y45100D03*
G01X3206Y45100D03*
G04 Draw part J_R9*
G01X3000Y44100D03*
G01X3206Y44100D03*
G04 Draw part J_R3*
G04 Draw part J_R4*
G04 Draw part J_R5*
G04 Draw part J_R6*
G04 Draw part J_P1*
G04 Draw part J_P2*
G04 Draw part J_P3*
G04 Draw part J_P6*
G04 Draw part J_P8*
G04 Draw part J_P4*
G04 Draw part J_P5*
G04 Draw part J_P7*
G04 Draw part J_R1*
G04 Draw part J_R10*
G01X4700Y46100D03*
G01X4493Y46100D03*
G04 Draw part J_R11*
G01X4700Y45100D03*
G01X4493Y45100D03*
G04 Draw part J_R12*
G01X4700Y44100D03*
G01X4493Y44100D03*
G04 Draw part J_P9*
G04 Draw part J_P12*
G04 Draw part J_P14*
G04 Draw part J_P10*
G04 Draw part J_P11*
G04 Draw part J_P13*
G04 Draw part J_P20*
G04 Draw part J_P17*
G04 Draw part J_P15*
G04 Draw part J_P19*
G04 Draw part J_P18*
G04 Draw part J_P16*
G04 Draw part J_P26*
G04 Draw part J_P23*
G04 Draw part J_P21*
G04 Draw part J_P25*
G04 Draw part J_P24*
G04 Draw part J_P22*
G04 Draw part J_C1*
G04 Draw part J_U1*
G04 Draw part J_D5*
G04 Draw part J_D1*
G04 Draw part J_D2*
G04 Draw part J_D3*
G04 Draw part J_D4*
G04 Draw part J_D6*
G04 Draw part J_D7*
G04 Draw part J_D8*
G04 Draw part J_D9*
G04 Draw part J_D10*
G04 Draw part J_J11*
G04 Draw part J_J12*
G04 Draw part J_J13*
G04 Draw part J_J14*
G04 Draw part J_J15*
G04 Draw part J_J16*
G04 Draw part A_p7*
G04 Draw part A_p8*
G04 Draw part A_p9*
G04 Draw part A_p10*
G04 Draw part A_p11*
G04 Draw part B_U4*
G04 Draw part B_C19*
G04 Draw part B_C20*
G04 Draw part B_H3*
G54D11*
G01X6300Y5400D03*
G01X6496Y5400D03*
G01X6693Y5400D03*
G01X6890Y5400D03*
G01X7087Y5400D03*
G01X7284Y5400D03*
G01X7481Y5400D03*
G01X7677Y5400D03*
G54D12*
G01X5988Y6443D03*
G01X7988Y6443D03*
G04 Draw part B_U5*
G54D13*
G01X7925Y4177D03*
G01X7925Y3981D03*
G01X7925Y3784D03*
G01X7925Y3587D03*
G01X7925Y3390D03*
G01X7925Y3193D03*
G01X7925Y2996D03*
G01X7925Y2800D03*
G54D14*
G01X7670Y2544D03*
G01X7473Y2544D03*
G01X7276Y2544D03*
G01X7079Y2544D03*
G01X6882Y2544D03*
G01X6685Y2544D03*
G01X6488Y2544D03*
G01X6292Y2544D03*
G54D13*
G01X6036Y2800D03*
G01X6036Y2996D03*
G01X6036Y3193D03*
G01X6036Y3390D03*
G01X6036Y3587D03*
G01X6036Y3784D03*
G01X6036Y3981D03*
G01X6036Y4177D03*
G54D14*
G01X6292Y4433D03*
G01X6488Y4433D03*
G01X6685Y4433D03*
G01X6882Y4433D03*
G01X7079Y4433D03*
G01X7276Y4433D03*
G01X7473Y4433D03*
G01X7670Y4433D03*
G54D15*
G01X6981Y3488D03*
G04 Draw part B_C21*
G54D16*
G01X5700Y3400D03*
G01X5700Y3606D03*
G04 Draw part B_R3*
G01X7300Y4750D03*
G01X7506Y4750D03*
G04 Draw part B_D2*
G04 Draw part B_R4*
G04 Draw part B_U6*
G04 Draw part B_H4*
G04 Draw part B_B5*
G04 Draw part B_B6*
G04 Draw part B_hole5*
G04 Draw part B_hole6*
G04 Draw part B_B7*
G04 Draw part B_B8*
G04 Draw part B_S3*
G54D17*
G01X6379Y1100D03*
G54D18*
G01X7520Y1552D03*
G01X7520Y647D03*
G04 Draw part B_C22*
G54D16*
G01X8200Y3600D03*
G01X8200Y3806D03*
G04 Draw part B_C23*
G04 Draw part C_H3*
G04 Draw part C_H4*
G54D19*
G01X7295Y11790D03*
G01X7137Y11790D03*
G01X6980Y11790D03*
G01X6822Y11790D03*
G01X6665Y11790D03*
G01X6507Y11790D03*
G01X6507Y12825D03*
G01X6665Y12825D03*
G01X6822Y12825D03*
G01X6980Y12825D03*
G01X7137Y12825D03*
G01X7295Y12825D03*
G54D20*
G01X7609Y12016D03*
G01X7609Y12599D03*
G01X6192Y12599D03*
G01X6192Y12016D03*
G04 Draw part C_U2*
G04 Draw part C_J12*
G04 Draw part C_C5*
G04 Draw part C_J13*
G04 Draw part C_J14*
G04 Draw part C_C6*
G04 Draw part C_J15*
G04 Draw part C_J16*
G04 Draw part C_C7*
G04 Draw part C_J17*
G04 Draw part C_J18*
G04 Draw part C_C8*
G04 Draw part C_J19*
G04 Draw part C_J20*
G04 Draw part C_J21*
G04 Draw part C_J22*
G04 Draw part C_R3*
G54D16*
G01X7400Y11200D03*
G01X7400Y11406D03*
G04 Draw part C_R4*
G01X7050Y11200D03*
G01X7050Y11406D03*
G04 Draw part D_U4*
G04 Draw part D_H3*
G04 Draw part D_H4*
G54D19*
G01X7295Y18240D03*
G01X7137Y18240D03*
G01X6980Y18240D03*
G01X6822Y18240D03*
G01X6665Y18240D03*
G01X6507Y18240D03*
G01X6507Y19275D03*
G01X6665Y19275D03*
G01X6822Y19275D03*
G01X6980Y19275D03*
G01X7137Y19275D03*
G01X7295Y19275D03*
G54D20*
G01X7609Y18466D03*
G01X7609Y19049D03*
G01X6192Y19049D03*
G01X6192Y18466D03*
G04 Draw part D_U5*
G04 Draw part D_U6*
G04 Draw part D_C5*
G04 Draw part D_R12*
G04 Draw part D_R13*
G04 Draw part D_R14*
G04 Draw part D_R15*
G04 Draw part D_R16*
G04 Draw part D_C6*
G04 Draw part D_C7*
G04 Draw part D_P4*
G04 Draw part D_P5*
G04 Draw part D_P6*
G04 Draw part D_R17*
G04 Draw part D_R18*
G04 Draw part D_R19*
G04 Draw part D_R20*
G04 Draw part D_R21*
G04 Draw part D_C8*
G04 Draw part D_R22*
G04 Draw part E_P15*
G54D19*
G01X22050Y38900D03*
G01X21892Y38900D03*
G01X21735Y38900D03*
G01X21577Y38900D03*
G01X21420Y38900D03*
G01X21262Y38900D03*
G01X21262Y39935D03*
G01X21420Y39935D03*
G01X21577Y39935D03*
G01X21735Y39935D03*
G01X21892Y39935D03*
G01X22050Y39935D03*
G54D20*
G01X22364Y39126D03*
G01X22364Y39709D03*
G01X20947Y39709D03*
G01X20947Y39126D03*
G04 Draw part E_P16*
G04 Draw part E_P17*
G04 Draw part E_P18*
G04 Draw part E_P19*
G04 Draw part E_P20*
G04 Draw part E_P21*
G04 Draw part E_P22*
G04 Draw part E_P23*
G04 Draw part E_P24*
G04 Draw part E_P25*
G04 Draw part E_P26*
G04 Draw part E_P27*
G04 Draw part F_H3*
G54D19*
G01X7390Y31090D03*
G01X7232Y31090D03*
G01X7075Y31090D03*
G01X6917Y31090D03*
G01X6760Y31090D03*
G01X6602Y31090D03*
G01X6602Y32125D03*
G01X6760Y32125D03*
G01X6917Y32125D03*
G01X7075Y32125D03*
G01X7232Y32125D03*
G01X7390Y32125D03*
G54D20*
G01X7704Y31316D03*
G01X7704Y31899D03*
G01X6287Y31899D03*
G01X6287Y31316D03*
G04 Draw part F_U4*
G04 Draw part F_U5*
G04 Draw part F_R5*
G54D16*
G01X8300Y29800D03*
G01X8300Y30006D03*
G04 Draw part F_R6*
G01X8300Y29500D03*
G01X8300Y29293D03*
G04 Draw part F_C8*
G01X7450Y29300D03*
G01X7243Y29300D03*
G04 Draw part F_C9*
G01X7450Y29000D03*
G01X7243Y29000D03*
G04 Draw part F_C10*
G01X6960Y28200D03*
G01X6960Y27993D03*
G04 Draw part F_C11*
G01X7650Y28000D03*
G01X7650Y28206D03*
G04 Draw part F_C12*
G01X6200Y30600D03*
G01X5993Y30600D03*
G04 Draw part F_C13*
G01X7000Y30030D03*
G01X6793Y30030D03*
G04 Draw part F_J9*
G04 Draw part F_J10*
G04 Draw part F_J11*
G04 Draw part F_J12*
G04 Draw part F_J13*
G04 Draw part F_J14*
G04 Draw part F_T2*
G04 Draw part F_R7*
G01X6750Y30600D03*
G01X6543Y30600D03*
G04 Draw part F_U6*
G04 Draw part F_J15*
G04 Draw part F_J16*
G04 Draw part F_R8*
G01X5470Y29100D03*
G01X5676Y29100D03*
G04 Draw part F_C14*
G01X6000Y30000D03*
G01X6000Y30206D03*
G04 Draw part F_P10*
G01X8100Y29000D03*
G01X8306Y29000D03*
G04 Draw part F_hole5*
G04 Draw part G_U3*
G04 Draw part G_H3*
G04 Draw part G_H4*
G54D19*
G01X31590Y18240D03*
G01X31432Y18240D03*
G01X31275Y18240D03*
G01X31117Y18240D03*
G01X30960Y18240D03*
G01X30802Y18240D03*
G01X30802Y19275D03*
G01X30960Y19275D03*
G01X31117Y19275D03*
G01X31275Y19275D03*
G01X31432Y19275D03*
G01X31590Y19275D03*
G54D20*
G01X31904Y18466D03*
G01X31904Y19049D03*
G01X30487Y19049D03*
G01X30487Y18466D03*
G04 Draw part G_P12*
G04 Draw part G_P13*
G04 Draw part G_P14*
G04 Draw part G_P15*
G04 Draw part G_P16*
G04 Draw part G_P17*
G04 Draw part G_P18*
G04 Draw part G_P19*
G04 Draw part G_P20*
G04 Draw part G_C2*
G04 Draw part G_P21*
G04 Draw part G_P22*
G04 Draw part H_H3*
G54D19*
G01X7295Y24740D03*
G01X7137Y24740D03*
G01X6980Y24740D03*
G01X6822Y24740D03*
G01X6665Y24740D03*
G01X6507Y24740D03*
G01X6507Y25775D03*
G01X6665Y25775D03*
G01X6822Y25775D03*
G01X6980Y25775D03*
G01X7137Y25775D03*
G01X7295Y25775D03*
G54D20*
G01X7609Y24966D03*
G01X7609Y25549D03*
G01X6192Y25549D03*
G01X6192Y24966D03*
G04 Draw part H_U2*
G04 Draw part H_R3*
G04 Draw part H_X2*
G54D21*
G01X6800Y23750D03*
G01X7351Y23750D03*
G01X7351Y23316D03*
G01X6800Y23316D03*
G04 Draw part H_C10*
G54D16*
G01X7500Y24050D03*
G01X7293Y24050D03*
G04 Draw part H_C11*
G01X6500Y23250D03*
G01X6500Y23456D03*
G04 Draw part H_C12*
G04 Draw part H_C13*
G01X5800Y25000D03*
G01X5593Y25000D03*
G04 Draw part H_C14*
G01X5800Y25550D03*
G01X5593Y25550D03*
G04 Draw part H_H4*
G04 Draw part H_A2*
G04 Draw part H_hole4*
G04 Draw part H_L2*
G04 Draw part H_C15*
G04 Draw part H_C16*
G04 Draw part I_U4*
G04 Draw part I_C18*
G04 Draw part I_C19*
G04 Draw part I_P5*
G04 Draw part I_P6*
G04 Draw part I_H4*
G54D11*
G01X24200Y48000D03*
G01X24396Y48000D03*
G01X24593Y48000D03*
G01X24790Y48000D03*
G01X24987Y48000D03*
G01X25184Y48000D03*
G01X25381Y48000D03*
G01X25577Y48000D03*
G54D12*
G01X23888Y49043D03*
G01X25888Y49043D03*
G04 Draw part I_U5*
G04 Draw part I_C20*
G04 Draw part I_R3*
G04 Draw part I_H5*
G04 Draw part I_D2*
G04 Draw part I_R4*
G04 Draw part I_S2*
G04 Draw part I_H6*
G54D22*
G01X23309Y44996D03*
G01X23742Y44996D03*
G01X24175Y44996D03*
G01X24470Y44996D03*
G01X24746Y44996D03*
G01X25041Y44996D03*
G01X25474Y44996D03*
G01X25907Y44996D03*
G01X26340Y44996D03*
G54D23*
G01X26882Y47382D03*
G01X22767Y47382D03*
G01X26882Y45630D03*
G01X22767Y45630D03*
G04 Draw part I_P7*
G04 Draw part I_P8*
G04 Draw part I_C21*
G04 Draw part I_hole3*
G04 Draw part I_hole4*
G04 Draw part J_J17*
G54D16*
G01X12100Y47700D03*
G01X12306Y47700D03*
G04 Draw part J_J18*
G01X12100Y48100D03*
G01X12306Y48100D03*
G04 Draw part J_J19*
G01X12300Y47300D03*
G01X12093Y47300D03*
G04 Draw part J_C3*
G04 Draw part J_R13*
G01X10500Y46100D03*
G01X10706Y46100D03*
G04 Draw part J_R14*
G01X10500Y45100D03*
G01X10706Y45100D03*
G04 Draw part J_R15*
G01X10500Y44100D03*
G01X10706Y44100D03*
G04 Draw part J_R16*
G04 Draw part J_R17*
G04 Draw part J_R18*
G04 Draw part J_R19*
G04 Draw part J_P27*
G04 Draw part J_P28*
G04 Draw part J_P29*
G04 Draw part J_P30*
G04 Draw part J_P31*
G04 Draw part J_P32*
G04 Draw part J_P33*
G04 Draw part J_P34*
G04 Draw part J_R20*
G04 Draw part J_R21*
G01X12200Y46100D03*
G01X11993Y46100D03*
G04 Draw part J_R22*
G01X12200Y45100D03*
G01X11993Y45100D03*
G04 Draw part J_R23*
G01X12200Y44100D03*
G01X11993Y44100D03*
G04 Draw part J_P35*
G04 Draw part J_P36*
G04 Draw part J_P37*
G04 Draw part J_P38*
G04 Draw part J_P39*
G04 Draw part J_P40*
G04 Draw part J_P41*
G04 Draw part J_P42*
G04 Draw part J_P43*
G04 Draw part J_P44*
G04 Draw part J_P45*
G04 Draw part J_P46*
G04 Draw part J_P47*
G04 Draw part J_P48*
G04 Draw part J_P49*
G04 Draw part J_P50*
G04 Draw part J_P51*
G04 Draw part J_P52*
G04 Draw part J_C4*
G04 Draw part J_U2*
G04 Draw part J_D11*
G04 Draw part J_D12*
G04 Draw part J_D13*
G04 Draw part J_D14*
G04 Draw part J_D15*
G04 Draw part J_D16*
G04 Draw part J_D17*
G04 Draw part J_D18*
G04 Draw part J_D19*
G04 Draw part J_D20*
G04 Draw part J_J20*
G04 Draw part J_J21*
G04 Draw part J_J22*
G04 Draw part J_J23*
G04 Draw part J_J24*
G04 Draw part J_J25*
G04 Draw part B_U7*
G04 Draw part B_C24*
G04 Draw part B_C25*
G04 Draw part B_H5*
G54D11*
G01X11200Y5400D03*
G01X11396Y5400D03*
G01X11593Y5400D03*
G01X11790Y5400D03*
G01X11987Y5400D03*
G01X12184Y5400D03*
G01X12381Y5400D03*
G01X12577Y5400D03*
G54D12*
G01X10888Y6443D03*
G01X12888Y6443D03*
G04 Draw part B_U8*
G54D13*
G01X12825Y4177D03*
G01X12825Y3981D03*
G01X12825Y3784D03*
G01X12825Y3587D03*
G01X12825Y3390D03*
G01X12825Y3193D03*
G01X12825Y2996D03*
G01X12825Y2800D03*
G54D14*
G01X12570Y2544D03*
G01X12373Y2544D03*
G01X12176Y2544D03*
G01X11979Y2544D03*
G01X11782Y2544D03*
G01X11585Y2544D03*
G01X11388Y2544D03*
G01X11192Y2544D03*
G54D13*
G01X10936Y2800D03*
G01X10936Y2996D03*
G01X10936Y3193D03*
G01X10936Y3390D03*
G01X10936Y3587D03*
G01X10936Y3784D03*
G01X10936Y3981D03*
G01X10936Y4177D03*
G54D14*
G01X11192Y4433D03*
G01X11388Y4433D03*
G01X11585Y4433D03*
G01X11782Y4433D03*
G01X11979Y4433D03*
G01X12176Y4433D03*
G01X12373Y4433D03*
G01X12570Y4433D03*
G54D15*
G01X11881Y3488D03*
G04 Draw part B_C26*
G54D16*
G01X10600Y3400D03*
G01X10600Y3606D03*
G04 Draw part B_R5*
G01X12200Y4750D03*
G01X12406Y4750D03*
G04 Draw part B_D3*
G04 Draw part B_R6*
G04 Draw part B_U9*
G04 Draw part B_H6*
G04 Draw part B_B9*
G04 Draw part B_B10*
G04 Draw part B_hole7*
G04 Draw part B_hole8*
G04 Draw part B_B11*
G04 Draw part B_B12*
G04 Draw part B_S4*
G54D17*
G01X11279Y1100D03*
G54D18*
G01X12420Y1552D03*
G01X12420Y647D03*
G04 Draw part B_C27*
G54D16*
G01X13100Y3600D03*
G01X13100Y3806D03*
G04 Draw part B_C28*
G04 Draw part B_U10*
G04 Draw part B_C29*
G04 Draw part B_C30*
G04 Draw part B_H7*
G54D11*
G01X16100Y5400D03*
G01X16296Y5400D03*
G01X16493Y5400D03*
G01X16690Y5400D03*
G01X16887Y5400D03*
G01X17084Y5400D03*
G01X17281Y5400D03*
G01X17477Y5400D03*
G54D12*
G01X15788Y6443D03*
G01X17788Y6443D03*
G04 Draw part B_U11*
G54D13*
G01X17725Y4177D03*
G01X17725Y3981D03*
G01X17725Y3784D03*
G01X17725Y3587D03*
G01X17725Y3390D03*
G01X17725Y3193D03*
G01X17725Y2996D03*
G01X17725Y2800D03*
G54D14*
G01X17470Y2544D03*
G01X17273Y2544D03*
G01X17076Y2544D03*
G01X16879Y2544D03*
G01X16682Y2544D03*
G01X16485Y2544D03*
G01X16288Y2544D03*
G01X16092Y2544D03*
G54D13*
G01X15836Y2800D03*
G01X15836Y2996D03*
G01X15836Y3193D03*
G01X15836Y3390D03*
G01X15836Y3587D03*
G01X15836Y3784D03*
G01X15836Y3981D03*
G01X15836Y4177D03*
G54D14*
G01X16092Y4433D03*
G01X16288Y4433D03*
G01X16485Y4433D03*
G01X16682Y4433D03*
G01X16879Y4433D03*
G01X17076Y4433D03*
G01X17273Y4433D03*
G01X17470Y4433D03*
G54D15*
G01X16781Y3488D03*
G04 Draw part B_C31*
G54D16*
G01X15500Y3400D03*
G01X15500Y3606D03*
G04 Draw part B_R7*
G01X17100Y4750D03*
G01X17306Y4750D03*
G04 Draw part B_D4*
G04 Draw part B_R8*
G04 Draw part B_U12*
G04 Draw part B_H8*
G04 Draw part B_B13*
G04 Draw part B_B14*
G04 Draw part B_hole9*
G04 Draw part B_hole10*
G04 Draw part B_B15*
G04 Draw part B_B16*
G04 Draw part B_S5*
G54D17*
G01X16179Y1100D03*
G54D18*
G01X17320Y1552D03*
G01X17320Y647D03*
G04 Draw part B_C32*
G54D16*
G01X18000Y3600D03*
G01X18000Y3806D03*
G04 Draw part B_C33*
G04 Draw part B_U13*
G04 Draw part B_C34*
G04 Draw part B_C35*
G04 Draw part B_H9*
G54D11*
G01X21000Y5400D03*
G01X21196Y5400D03*
G01X21393Y5400D03*
G01X21590Y5400D03*
G01X21787Y5400D03*
G01X21984Y5400D03*
G01X22181Y5400D03*
G01X22377Y5400D03*
G54D12*
G01X20688Y6443D03*
G01X22688Y6443D03*
G04 Draw part B_U14*
G54D13*
G01X22625Y4177D03*
G01X22625Y3981D03*
G01X22625Y3784D03*
G01X22625Y3587D03*
G01X22625Y3390D03*
G01X22625Y3193D03*
G01X22625Y2996D03*
G01X22625Y2800D03*
G54D14*
G01X22370Y2544D03*
G01X22173Y2544D03*
G01X21976Y2544D03*
G01X21779Y2544D03*
G01X21582Y2544D03*
G01X21385Y2544D03*
G01X21188Y2544D03*
G01X20992Y2544D03*
G54D13*
G01X20736Y2800D03*
G01X20736Y2996D03*
G01X20736Y3193D03*
G01X20736Y3390D03*
G01X20736Y3587D03*
G01X20736Y3784D03*
G01X20736Y3981D03*
G01X20736Y4177D03*
G54D14*
G01X20992Y4433D03*
G01X21188Y4433D03*
G01X21385Y4433D03*
G01X21582Y4433D03*
G01X21779Y4433D03*
G01X21976Y4433D03*
G01X22173Y4433D03*
G01X22370Y4433D03*
G54D15*
G01X21681Y3488D03*
G04 Draw part B_C36*
G54D16*
G01X20400Y3400D03*
G01X20400Y3606D03*
G04 Draw part B_R9*
G01X22000Y4750D03*
G01X22206Y4750D03*
G04 Draw part B_D5*
G04 Draw part B_R10*
G04 Draw part B_U15*
G04 Draw part B_H10*
G04 Draw part B_B17*
G04 Draw part B_B18*
G04 Draw part B_hole11*
G04 Draw part B_hole12*
G04 Draw part B_B19*
G04 Draw part B_B20*
G04 Draw part B_S6*
G54D17*
G01X21079Y1100D03*
G54D18*
G01X22220Y1552D03*
G01X22220Y647D03*
G04 Draw part B_C37*
G54D16*
G01X22900Y3600D03*
G01X22900Y3806D03*
G04 Draw part B_C38*
G04 Draw part B_U16*
G04 Draw part B_C39*
G04 Draw part B_C40*
G04 Draw part B_H11*
G54D11*
G01X25700Y5400D03*
G01X25896Y5400D03*
G01X26093Y5400D03*
G01X26290Y5400D03*
G01X26487Y5400D03*
G01X26684Y5400D03*
G01X26881Y5400D03*
G01X27077Y5400D03*
G54D12*
G01X25388Y6443D03*
G01X27388Y6443D03*
G04 Draw part B_U17*
G54D13*
G01X27325Y4177D03*
G01X27325Y3981D03*
G01X27325Y3784D03*
G01X27325Y3587D03*
G01X27325Y3390D03*
G01X27325Y3193D03*
G01X27325Y2996D03*
G01X27325Y2800D03*
G54D14*
G01X27070Y2544D03*
G01X26873Y2544D03*
G01X26676Y2544D03*
G01X26479Y2544D03*
G01X26282Y2544D03*
G01X26085Y2544D03*
G01X25888Y2544D03*
G01X25692Y2544D03*
G54D13*
G01X25436Y2800D03*
G01X25436Y2996D03*
G01X25436Y3193D03*
G01X25436Y3390D03*
G01X25436Y3587D03*
G01X25436Y3784D03*
G01X25436Y3981D03*
G01X25436Y4177D03*
G54D14*
G01X25692Y4433D03*
G01X25888Y4433D03*
G01X26085Y4433D03*
G01X26282Y4433D03*
G01X26479Y4433D03*
G01X26676Y4433D03*
G01X26873Y4433D03*
G01X27070Y4433D03*
G54D15*
G01X26381Y3488D03*
G04 Draw part B_C41*
G54D16*
G01X25100Y3400D03*
G01X25100Y3606D03*
G04 Draw part B_R11*
G01X26700Y4750D03*
G01X26906Y4750D03*
G04 Draw part B_D6*
G04 Draw part B_R12*
G04 Draw part B_U18*
G04 Draw part B_H12*
G04 Draw part B_B21*
G04 Draw part B_B22*
G04 Draw part B_hole13*
G04 Draw part B_hole14*
G04 Draw part B_B23*
G04 Draw part B_B24*
G04 Draw part B_S7*
G54D17*
G01X25779Y1100D03*
G54D18*
G01X26920Y1552D03*
G01X26920Y647D03*
G04 Draw part B_C42*
G54D16*
G01X27600Y3600D03*
G01X27600Y3806D03*
G04 Draw part B_C43*
G04 Draw part B_U19*
G04 Draw part B_C44*
G04 Draw part B_C45*
G04 Draw part B_H13*
G54D11*
G01X30600Y5400D03*
G01X30796Y5400D03*
G01X30993Y5400D03*
G01X31190Y5400D03*
G01X31387Y5400D03*
G01X31584Y5400D03*
G01X31781Y5400D03*
G01X31977Y5400D03*
G54D12*
G01X30288Y6443D03*
G01X32288Y6443D03*
G04 Draw part B_U20*
G54D13*
G01X32225Y4177D03*
G01X32225Y3981D03*
G01X32225Y3784D03*
G01X32225Y3587D03*
G01X32225Y3390D03*
G01X32225Y3193D03*
G01X32225Y2996D03*
G01X32225Y2800D03*
G54D14*
G01X31970Y2544D03*
G01X31773Y2544D03*
G01X31576Y2544D03*
G01X31379Y2544D03*
G01X31182Y2544D03*
G01X30985Y2544D03*
G01X30788Y2544D03*
G01X30592Y2544D03*
G54D13*
G01X30336Y2800D03*
G01X30336Y2996D03*
G01X30336Y3193D03*
G01X30336Y3390D03*
G01X30336Y3587D03*
G01X30336Y3784D03*
G01X30336Y3981D03*
G01X30336Y4177D03*
G54D14*
G01X30592Y4433D03*
G01X30788Y4433D03*
G01X30985Y4433D03*
G01X31182Y4433D03*
G01X31379Y4433D03*
G01X31576Y4433D03*
G01X31773Y4433D03*
G01X31970Y4433D03*
G54D15*
G01X31281Y3488D03*
G04 Draw part B_C46*
G54D16*
G01X30000Y3400D03*
G01X30000Y3606D03*
G04 Draw part B_R13*
G01X31600Y4750D03*
G01X31806Y4750D03*
G04 Draw part B_D7*
G04 Draw part B_R14*
G04 Draw part B_U21*
G04 Draw part B_H14*
G04 Draw part B_B25*
G04 Draw part B_B26*
G04 Draw part B_hole15*
G04 Draw part B_hole16*
G04 Draw part B_B27*
G04 Draw part B_B28*
G04 Draw part B_S8*
G54D17*
G01X30679Y1100D03*
G54D18*
G01X31820Y1552D03*
G01X31820Y647D03*
G04 Draw part B_C47*
G54D16*
G01X32500Y3600D03*
G01X32500Y3806D03*
G04 Draw part B_C48*
G04 Draw part B_U22*
G04 Draw part B_C49*
G04 Draw part B_C50*
G04 Draw part B_H15*
G54D11*
G01X35500Y5400D03*
G01X35696Y5400D03*
G01X35893Y5400D03*
G01X36090Y5400D03*
G01X36287Y5400D03*
G01X36484Y5400D03*
G01X36681Y5400D03*
G01X36877Y5400D03*
G54D12*
G01X35188Y6443D03*
G01X37188Y6443D03*
G04 Draw part B_U23*
G54D13*
G01X37125Y4177D03*
G01X37125Y3981D03*
G01X37125Y3784D03*
G01X37125Y3587D03*
G01X37125Y3390D03*
G01X37125Y3193D03*
G01X37125Y2996D03*
G01X37125Y2800D03*
G54D14*
G01X36870Y2544D03*
G01X36673Y2544D03*
G01X36476Y2544D03*
G01X36279Y2544D03*
G01X36082Y2544D03*
G01X35885Y2544D03*
G01X35688Y2544D03*
G01X35492Y2544D03*
G54D13*
G01X35236Y2800D03*
G01X35236Y2996D03*
G01X35236Y3193D03*
G01X35236Y3390D03*
G01X35236Y3587D03*
G01X35236Y3784D03*
G01X35236Y3981D03*
G01X35236Y4177D03*
G54D14*
G01X35492Y4433D03*
G01X35688Y4433D03*
G01X35885Y4433D03*
G01X36082Y4433D03*
G01X36279Y4433D03*
G01X36476Y4433D03*
G01X36673Y4433D03*
G01X36870Y4433D03*
G54D15*
G01X36181Y3488D03*
G04 Draw part B_C51*
G54D16*
G01X34900Y3400D03*
G01X34900Y3606D03*
G04 Draw part B_R15*
G01X36500Y4750D03*
G01X36706Y4750D03*
G04 Draw part B_D8*
G04 Draw part B_R16*
G04 Draw part B_U24*
G04 Draw part B_H16*
G04 Draw part B_B29*
G04 Draw part B_B30*
G04 Draw part B_hole17*
G04 Draw part B_hole18*
G04 Draw part B_B31*
G04 Draw part B_B32*
G04 Draw part B_S9*
G54D17*
G01X35579Y1100D03*
G54D18*
G01X36720Y1552D03*
G01X36720Y647D03*
G04 Draw part B_C52*
G54D16*
G01X37400Y3600D03*
G01X37400Y3806D03*
G04 Draw part B_C53*
G04 Draw part B_U25*
G04 Draw part B_C54*
G04 Draw part B_C55*
G04 Draw part B_H17*
G54D11*
G01X40400Y5400D03*
G01X40596Y5400D03*
G01X40793Y5400D03*
G01X40990Y5400D03*
G01X41187Y5400D03*
G01X41384Y5400D03*
G01X41581Y5400D03*
G01X41777Y5400D03*
G54D12*
G01X40088Y6443D03*
G01X42088Y6443D03*
G04 Draw part B_U26*
G54D13*
G01X42025Y4177D03*
G01X42025Y3981D03*
G01X42025Y3784D03*
G01X42025Y3587D03*
G01X42025Y3390D03*
G01X42025Y3193D03*
G01X42025Y2996D03*
G01X42025Y2800D03*
G54D14*
G01X41770Y2544D03*
G01X41573Y2544D03*
G01X41376Y2544D03*
G01X41179Y2544D03*
G01X40982Y2544D03*
G01X40785Y2544D03*
G01X40588Y2544D03*
G01X40392Y2544D03*
G54D13*
G01X40136Y2800D03*
G01X40136Y2996D03*
G01X40136Y3193D03*
G01X40136Y3390D03*
G01X40136Y3587D03*
G01X40136Y3784D03*
G01X40136Y3981D03*
G01X40136Y4177D03*
G54D14*
G01X40392Y4433D03*
G01X40588Y4433D03*
G01X40785Y4433D03*
G01X40982Y4433D03*
G01X41179Y4433D03*
G01X41376Y4433D03*
G01X41573Y4433D03*
G01X41770Y4433D03*
G54D15*
G01X41081Y3488D03*
G04 Draw part B_C56*
G54D16*
G01X39800Y3400D03*
G01X39800Y3606D03*
G04 Draw part B_R17*
G01X41400Y4750D03*
G01X41606Y4750D03*
G04 Draw part B_D9*
G04 Draw part B_R18*
G04 Draw part B_U27*
G04 Draw part B_H18*
G04 Draw part B_B33*
G04 Draw part B_B34*
G04 Draw part B_hole19*
G04 Draw part B_hole20*
G04 Draw part B_B35*
G04 Draw part B_B36*
G04 Draw part B_S10*
G54D17*
G01X40479Y1100D03*
G54D18*
G01X41620Y1552D03*
G01X41620Y647D03*
G04 Draw part B_C57*
G54D16*
G01X42300Y3600D03*
G01X42300Y3806D03*
G04 Draw part B_C58*
G04 Draw part B_U28*
G04 Draw part B_C59*
G04 Draw part B_C60*
G04 Draw part B_H19*
G54D11*
G01X45200Y5400D03*
G01X45396Y5400D03*
G01X45593Y5400D03*
G01X45790Y5400D03*
G01X45987Y5400D03*
G01X46184Y5400D03*
G01X46381Y5400D03*
G01X46577Y5400D03*
G54D12*
G01X44888Y6443D03*
G01X46888Y6443D03*
G04 Draw part B_U29*
G54D13*
G01X46825Y4177D03*
G01X46825Y3981D03*
G01X46825Y3784D03*
G01X46825Y3587D03*
G01X46825Y3390D03*
G01X46825Y3193D03*
G01X46825Y2996D03*
G01X46825Y2800D03*
G54D14*
G01X46570Y2544D03*
G01X46373Y2544D03*
G01X46176Y2544D03*
G01X45979Y2544D03*
G01X45782Y2544D03*
G01X45585Y2544D03*
G01X45388Y2544D03*
G01X45192Y2544D03*
G54D13*
G01X44936Y2800D03*
G01X44936Y2996D03*
G01X44936Y3193D03*
G01X44936Y3390D03*
G01X44936Y3587D03*
G01X44936Y3784D03*
G01X44936Y3981D03*
G01X44936Y4177D03*
G54D14*
G01X45192Y4433D03*
G01X45388Y4433D03*
G01X45585Y4433D03*
G01X45782Y4433D03*
G01X45979Y4433D03*
G01X46176Y4433D03*
G01X46373Y4433D03*
G01X46570Y4433D03*
G54D15*
G01X45881Y3488D03*
G04 Draw part B_C61*
G54D16*
G01X44600Y3400D03*
G01X44600Y3606D03*
G04 Draw part B_R19*
G01X46200Y4750D03*
G01X46406Y4750D03*
G04 Draw part B_D10*
G04 Draw part B_R20*
G04 Draw part B_U30*
G04 Draw part B_H20*
G04 Draw part B_B37*
G04 Draw part B_B38*
G04 Draw part B_hole21*
G04 Draw part B_hole22*
G04 Draw part B_B39*
G04 Draw part B_B40*
G04 Draw part B_S11*
G54D17*
G01X45279Y1100D03*
G54D18*
G01X46420Y1552D03*
G01X46420Y647D03*
G04 Draw part B_C62*
G54D16*
G01X47100Y3600D03*
G01X47100Y3806D03*
G04 Draw part B_C63*
G04 Draw part C_H5*
G04 Draw part C_H6*
G54D19*
G01X12095Y11690D03*
G01X11937Y11690D03*
G01X11780Y11690D03*
G01X11622Y11690D03*
G01X11465Y11690D03*
G01X11307Y11690D03*
G01X11307Y12725D03*
G01X11465Y12725D03*
G01X11622Y12725D03*
G01X11780Y12725D03*
G01X11937Y12725D03*
G01X12095Y12725D03*
G54D20*
G01X12409Y11916D03*
G01X12409Y12499D03*
G01X10992Y12499D03*
G01X10992Y11916D03*
G04 Draw part C_U3*
G04 Draw part C_J23*
G04 Draw part C_C9*
G04 Draw part C_J24*
G04 Draw part C_J25*
G04 Draw part C_C10*
G04 Draw part C_J26*
G04 Draw part C_J27*
G04 Draw part C_C11*
G04 Draw part C_J28*
G04 Draw part C_J29*
G04 Draw part C_C12*
G04 Draw part C_J30*
G04 Draw part C_J31*
G04 Draw part C_J32*
G04 Draw part C_J33*
G04 Draw part C_R5*
G54D16*
G01X12200Y11100D03*
G01X12200Y11306D03*
G04 Draw part C_R6*
G01X11850Y11100D03*
G01X11850Y11306D03*
G04 Draw part C_H7*
G04 Draw part C_H8*
G54D19*
G01X17095Y11690D03*
G01X16937Y11690D03*
G01X16780Y11690D03*
G01X16622Y11690D03*
G01X16465Y11690D03*
G01X16307Y11690D03*
G01X16307Y12725D03*
G01X16465Y12725D03*
G01X16622Y12725D03*
G01X16780Y12725D03*
G01X16937Y12725D03*
G01X17095Y12725D03*
G54D20*
G01X17409Y11916D03*
G01X17409Y12499D03*
G01X15992Y12499D03*
G01X15992Y11916D03*
G04 Draw part C_U4*
G04 Draw part C_J34*
G04 Draw part C_C13*
G04 Draw part C_J35*
G04 Draw part C_J36*
G04 Draw part C_C14*
G04 Draw part C_J37*
G04 Draw part C_J38*
G04 Draw part C_C15*
G04 Draw part C_J39*
G04 Draw part C_J40*
G04 Draw part C_C16*
G04 Draw part C_J41*
G04 Draw part C_J42*
G04 Draw part C_J43*
G04 Draw part C_J44*
G04 Draw part C_R7*
G54D16*
G01X17200Y11100D03*
G01X17200Y11306D03*
G04 Draw part C_R8*
G01X16850Y11100D03*
G01X16850Y11306D03*
G04 Draw part C_H9*
G04 Draw part C_H10*
G54D19*
G01X21895Y11590D03*
G01X21737Y11590D03*
G01X21580Y11590D03*
G01X21422Y11590D03*
G01X21265Y11590D03*
G01X21107Y11590D03*
G01X21107Y12625D03*
G01X21265Y12625D03*
G01X21422Y12625D03*
G01X21580Y12625D03*
G01X21737Y12625D03*
G01X21895Y12625D03*
G54D20*
G01X22209Y11816D03*
G01X22209Y12399D03*
G01X20792Y12399D03*
G01X20792Y11816D03*
G04 Draw part C_U5*
G04 Draw part C_J45*
G04 Draw part C_C17*
G04 Draw part C_J46*
G04 Draw part C_J47*
G04 Draw part C_C18*
G04 Draw part C_J48*
G04 Draw part C_J49*
G04 Draw part C_C19*
G04 Draw part C_J50*
G04 Draw part C_J51*
G04 Draw part C_C20*
G04 Draw part C_J52*
G04 Draw part C_J53*
G04 Draw part C_J54*
G04 Draw part C_J55*
G04 Draw part C_R9*
G54D16*
G01X22000Y11000D03*
G01X22000Y11206D03*
G04 Draw part C_R10*
G01X21650Y11000D03*
G01X21650Y11206D03*
G04 Draw part C_H11*
G04 Draw part C_H12*
G54D19*
G01X26795Y11590D03*
G01X26637Y11590D03*
G01X26480Y11590D03*
G01X26322Y11590D03*
G01X26165Y11590D03*
G01X26007Y11590D03*
G01X26007Y12625D03*
G01X26165Y12625D03*
G01X26322Y12625D03*
G01X26480Y12625D03*
G01X26637Y12625D03*
G01X26795Y12625D03*
G54D20*
G01X27109Y11816D03*
G01X27109Y12399D03*
G01X25692Y12399D03*
G01X25692Y11816D03*
G04 Draw part C_U6*
G04 Draw part C_J56*
G04 Draw part C_C21*
G04 Draw part C_J57*
G04 Draw part C_J58*
G04 Draw part C_C22*
G04 Draw part C_J59*
G04 Draw part C_J60*
G04 Draw part C_C23*
G04 Draw part C_J61*
G04 Draw part C_J62*
G04 Draw part C_C24*
G04 Draw part C_J63*
G04 Draw part C_J64*
G04 Draw part C_J65*
G04 Draw part C_J66*
G04 Draw part C_R11*
G54D16*
G01X26900Y11000D03*
G01X26900Y11206D03*
G04 Draw part C_R12*
G01X26550Y11000D03*
G01X26550Y11206D03*
G04 Draw part C_H13*
G04 Draw part C_H14*
G54D19*
G01X31595Y11490D03*
G01X31437Y11490D03*
G01X31280Y11490D03*
G01X31122Y11490D03*
G01X30965Y11490D03*
G01X30807Y11490D03*
G01X30807Y12525D03*
G01X30965Y12525D03*
G01X31122Y12525D03*
G01X31280Y12525D03*
G01X31437Y12525D03*
G01X31595Y12525D03*
G54D20*
G01X31909Y11716D03*
G01X31909Y12299D03*
G01X30492Y12299D03*
G01X30492Y11716D03*
G04 Draw part C_U7*
G04 Draw part C_J67*
G04 Draw part C_C25*
G04 Draw part C_J68*
G04 Draw part C_J69*
G04 Draw part C_C26*
G04 Draw part C_J70*
G04 Draw part C_J71*
G04 Draw part C_C27*
G04 Draw part C_J72*
G04 Draw part C_J73*
G04 Draw part C_C28*
G04 Draw part C_J74*
G04 Draw part C_J75*
G04 Draw part C_J76*
G04 Draw part C_J77*
G04 Draw part C_R13*
G54D16*
G01X31700Y10900D03*
G01X31700Y11106D03*
G04 Draw part C_R14*
G01X31350Y10900D03*
G01X31350Y11106D03*
G04 Draw part C_H15*
G04 Draw part C_H16*
G54D19*
G01X36595Y11490D03*
G01X36437Y11490D03*
G01X36280Y11490D03*
G01X36122Y11490D03*
G01X35965Y11490D03*
G01X35807Y11490D03*
G01X35807Y12525D03*
G01X35965Y12525D03*
G01X36122Y12525D03*
G01X36280Y12525D03*
G01X36437Y12525D03*
G01X36595Y12525D03*
G54D20*
G01X36909Y11716D03*
G01X36909Y12299D03*
G01X35492Y12299D03*
G01X35492Y11716D03*
G04 Draw part C_U8*
G04 Draw part C_J78*
G04 Draw part C_C29*
G04 Draw part C_J79*
G04 Draw part C_J80*
G04 Draw part C_C30*
G04 Draw part C_J81*
G04 Draw part C_J82*
G04 Draw part C_C31*
G04 Draw part C_J83*
G04 Draw part C_J84*
G04 Draw part C_C32*
G04 Draw part C_J85*
G04 Draw part C_J86*
G04 Draw part C_J87*
G04 Draw part C_J88*
G04 Draw part C_R15*
G54D16*
G01X36700Y10900D03*
G01X36700Y11106D03*
G04 Draw part C_R16*
G01X36350Y10900D03*
G01X36350Y11106D03*
G04 Draw part C_H17*
G04 Draw part C_H18*
G54D19*
G01X41395Y11390D03*
G01X41237Y11390D03*
G01X41080Y11390D03*
G01X40922Y11390D03*
G01X40765Y11390D03*
G01X40607Y11390D03*
G01X40607Y12425D03*
G01X40765Y12425D03*
G01X40922Y12425D03*
G01X41080Y12425D03*
G01X41237Y12425D03*
G01X41395Y12425D03*
G54D20*
G01X41709Y11616D03*
G01X41709Y12199D03*
G01X40292Y12199D03*
G01X40292Y11616D03*
G04 Draw part C_U9*
G04 Draw part C_J89*
G04 Draw part C_C33*
G04 Draw part C_J90*
G04 Draw part C_J91*
G04 Draw part C_C34*
G04 Draw part C_J92*
G04 Draw part C_J93*
G04 Draw part C_C35*
G04 Draw part C_J94*
G04 Draw part C_J95*
G04 Draw part C_C36*
G04 Draw part C_J96*
G04 Draw part C_J97*
G04 Draw part C_J98*
G04 Draw part C_J99*
G04 Draw part C_R17*
G54D16*
G01X41500Y10800D03*
G01X41500Y11006D03*
G04 Draw part C_R18*
G01X41150Y10800D03*
G01X41150Y11006D03*
G04 Draw part C_H19*
G04 Draw part C_H20*
G54D19*
G01X46195Y11390D03*
G01X46037Y11390D03*
G01X45880Y11390D03*
G01X45722Y11390D03*
G01X45565Y11390D03*
G01X45407Y11390D03*
G01X45407Y12425D03*
G01X45565Y12425D03*
G01X45722Y12425D03*
G01X45880Y12425D03*
G01X46037Y12425D03*
G01X46195Y12425D03*
G54D20*
G01X46509Y11616D03*
G01X46509Y12199D03*
G01X45092Y12199D03*
G01X45092Y11616D03*
G04 Draw part C_U10*
G04 Draw part C_J100*
G04 Draw part C_C37*
G04 Draw part C_J101*
G04 Draw part C_J102*
G04 Draw part C_C38*
G04 Draw part C_J103*
G04 Draw part C_J104*
G04 Draw part C_C39*
G04 Draw part C_J105*
G04 Draw part C_J106*
G04 Draw part C_C40*
G04 Draw part C_J107*
G04 Draw part C_J108*
G04 Draw part C_J109*
G04 Draw part C_J110*
G04 Draw part C_R19*
G54D16*
G01X46300Y10800D03*
G01X46300Y11006D03*
G04 Draw part C_R20*
G01X45950Y10800D03*
G01X45950Y11006D03*
G04 Draw part D_U7*
G04 Draw part D_H5*
G04 Draw part D_H6*
G54D19*
G01X12095Y18240D03*
G01X11937Y18240D03*
G01X11780Y18240D03*
G01X11622Y18240D03*
G01X11465Y18240D03*
G01X11307Y18240D03*
G01X11307Y19275D03*
G01X11465Y19275D03*
G01X11622Y19275D03*
G01X11780Y19275D03*
G01X11937Y19275D03*
G01X12095Y19275D03*
G54D20*
G01X12409Y18466D03*
G01X12409Y19049D03*
G01X10992Y19049D03*
G01X10992Y18466D03*
G04 Draw part D_U8*
G04 Draw part D_U9*
G04 Draw part D_C9*
G04 Draw part D_R23*
G04 Draw part D_R24*
G04 Draw part D_R25*
G04 Draw part D_R26*
G04 Draw part D_R27*
G04 Draw part D_C10*
G04 Draw part D_C11*
G04 Draw part D_P7*
G04 Draw part D_P8*
G04 Draw part D_P9*
G04 Draw part D_R28*
G04 Draw part D_R29*
G04 Draw part D_R30*
G04 Draw part D_R31*
G04 Draw part D_R32*
G04 Draw part D_C12*
G04 Draw part D_R33*
G04 Draw part D_U10*
G04 Draw part D_H7*
G04 Draw part D_H8*
G54D19*
G01X17095Y18240D03*
G01X16937Y18240D03*
G01X16780Y18240D03*
G01X16622Y18240D03*
G01X16465Y18240D03*
G01X16307Y18240D03*
G01X16307Y19275D03*
G01X16465Y19275D03*
G01X16622Y19275D03*
G01X16780Y19275D03*
G01X16937Y19275D03*
G01X17095Y19275D03*
G54D20*
G01X17409Y18466D03*
G01X17409Y19049D03*
G01X15992Y19049D03*
G01X15992Y18466D03*
G04 Draw part D_U11*
G04 Draw part D_U12*
G04 Draw part D_C13*
G04 Draw part D_R34*
G04 Draw part D_R35*
G04 Draw part D_R36*
G04 Draw part D_R37*
G04 Draw part D_R38*
G04 Draw part D_C14*
G04 Draw part D_C15*
G04 Draw part D_P10*
G04 Draw part D_P11*
G04 Draw part D_P12*
G04 Draw part D_R39*
G04 Draw part D_R40*
G04 Draw part D_R41*
G04 Draw part D_R42*
G04 Draw part D_R43*
G04 Draw part D_C16*
G04 Draw part D_R44*
G04 Draw part D_U13*
G04 Draw part D_H9*
G04 Draw part D_H10*
G54D19*
G01X21895Y18240D03*
G01X21737Y18240D03*
G01X21580Y18240D03*
G01X21422Y18240D03*
G01X21265Y18240D03*
G01X21107Y18240D03*
G01X21107Y19275D03*
G01X21265Y19275D03*
G01X21422Y19275D03*
G01X21580Y19275D03*
G01X21737Y19275D03*
G01X21895Y19275D03*
G54D20*
G01X22209Y18466D03*
G01X22209Y19049D03*
G01X20792Y19049D03*
G01X20792Y18466D03*
G04 Draw part D_U14*
G04 Draw part D_U15*
G04 Draw part D_C17*
G04 Draw part D_R45*
G04 Draw part D_R46*
G04 Draw part D_R47*
G04 Draw part D_R48*
G04 Draw part D_R49*
G04 Draw part D_C18*
G04 Draw part D_C19*
G04 Draw part D_P13*
G04 Draw part D_P14*
G04 Draw part D_P15*
G04 Draw part D_R50*
G04 Draw part D_R51*
G04 Draw part D_R52*
G04 Draw part D_R53*
G04 Draw part D_R54*
G04 Draw part D_C20*
G04 Draw part D_R55*
G04 Draw part G_U4*
G04 Draw part G_H5*
G04 Draw part G_H6*
G54D19*
G01X36590Y18240D03*
G01X36432Y18240D03*
G01X36275Y18240D03*
G01X36117Y18240D03*
G01X35960Y18240D03*
G01X35802Y18240D03*
G01X35802Y19275D03*
G01X35960Y19275D03*
G01X36117Y19275D03*
G01X36275Y19275D03*
G01X36432Y19275D03*
G01X36590Y19275D03*
G54D20*
G01X36904Y18466D03*
G01X36904Y19049D03*
G01X35487Y19049D03*
G01X35487Y18466D03*
G04 Draw part G_P23*
G04 Draw part G_P24*
G04 Draw part G_P25*
G04 Draw part G_P26*
G04 Draw part G_P27*
G04 Draw part G_P28*
G04 Draw part G_P29*
G04 Draw part G_P30*
G04 Draw part G_P31*
G04 Draw part G_C3*
G04 Draw part G_P32*
G04 Draw part G_P33*
G04 Draw part G_U5*
G04 Draw part G_H7*
G04 Draw part G_H8*
G54D19*
G01X41490Y18240D03*
G01X41332Y18240D03*
G01X41175Y18240D03*
G01X41017Y18240D03*
G01X40860Y18240D03*
G01X40702Y18240D03*
G01X40702Y19275D03*
G01X40860Y19275D03*
G01X41017Y19275D03*
G01X41175Y19275D03*
G01X41332Y19275D03*
G01X41490Y19275D03*
G54D20*
G01X41804Y18466D03*
G01X41804Y19049D03*
G01X40387Y19049D03*
G01X40387Y18466D03*
G04 Draw part G_P34*
G04 Draw part G_P35*
G04 Draw part G_P36*
G04 Draw part G_P37*
G04 Draw part G_P38*
G04 Draw part G_P39*
G04 Draw part G_P40*
G04 Draw part G_P41*
G04 Draw part G_P42*
G04 Draw part G_C4*
G04 Draw part G_P43*
G04 Draw part G_P44*
G04 Draw part G_U6*
G04 Draw part G_H9*
G04 Draw part G_H10*
G54D19*
G01X46190Y18240D03*
G01X46032Y18240D03*
G01X45875Y18240D03*
G01X45717Y18240D03*
G01X45560Y18240D03*
G01X45402Y18240D03*
G01X45402Y19275D03*
G01X45560Y19275D03*
G01X45717Y19275D03*
G01X45875Y19275D03*
G01X46032Y19275D03*
G01X46190Y19275D03*
G54D20*
G01X46504Y18466D03*
G01X46504Y19049D03*
G01X45087Y19049D03*
G01X45087Y18466D03*
G04 Draw part G_P45*
G04 Draw part G_P46*
G04 Draw part G_P47*
G04 Draw part G_P48*
G04 Draw part G_P49*
G04 Draw part G_P50*
G04 Draw part G_P51*
G04 Draw part G_P52*
G04 Draw part G_P53*
G04 Draw part G_C5*
G04 Draw part G_P54*
G04 Draw part G_P55*
G04 Draw part H_H5*
G54D19*
G01X12095Y24740D03*
G01X11937Y24740D03*
G01X11780Y24740D03*
G01X11622Y24740D03*
G01X11465Y24740D03*
G01X11307Y24740D03*
G01X11307Y25775D03*
G01X11465Y25775D03*
G01X11622Y25775D03*
G01X11780Y25775D03*
G01X11937Y25775D03*
G01X12095Y25775D03*
G54D20*
G01X12409Y24966D03*
G01X12409Y25549D03*
G01X10992Y25549D03*
G01X10992Y24966D03*
G04 Draw part H_U3*
G04 Draw part H_R4*
G04 Draw part H_X3*
G54D21*
G01X11600Y23750D03*
G01X12151Y23750D03*
G01X12151Y23316D03*
G01X11600Y23316D03*
G04 Draw part H_C17*
G54D16*
G01X12300Y24050D03*
G01X12093Y24050D03*
G04 Draw part H_C18*
G01X11300Y23250D03*
G01X11300Y23456D03*
G04 Draw part H_C19*
G04 Draw part H_C20*
G01X10600Y25000D03*
G01X10393Y25000D03*
G04 Draw part H_C21*
G01X10600Y25550D03*
G01X10393Y25550D03*
G04 Draw part H_H6*
G04 Draw part H_A3*
G04 Draw part H_hole5*
G04 Draw part H_L3*
G04 Draw part H_C22*
G04 Draw part H_C23*
G04 Draw part H_H7*
G54D19*
G01X17095Y24740D03*
G01X16937Y24740D03*
G01X16780Y24740D03*
G01X16622Y24740D03*
G01X16465Y24740D03*
G01X16307Y24740D03*
G01X16307Y25775D03*
G01X16465Y25775D03*
G01X16622Y25775D03*
G01X16780Y25775D03*
G01X16937Y25775D03*
G01X17095Y25775D03*
G54D20*
G01X17409Y24966D03*
G01X17409Y25549D03*
G01X15992Y25549D03*
G01X15992Y24966D03*
G04 Draw part H_U4*
G04 Draw part H_R5*
G04 Draw part H_X4*
G54D21*
G01X16600Y23750D03*
G01X17151Y23750D03*
G01X17151Y23316D03*
G01X16600Y23316D03*
G04 Draw part H_C24*
G54D16*
G01X17300Y24050D03*
G01X17093Y24050D03*
G04 Draw part H_C25*
G01X16300Y23250D03*
G01X16300Y23456D03*
G04 Draw part H_C26*
G04 Draw part H_C27*
G01X15600Y25000D03*
G01X15393Y25000D03*
G04 Draw part H_C28*
G01X15600Y25550D03*
G01X15393Y25550D03*
G04 Draw part H_H8*
G04 Draw part H_A4*
G04 Draw part H_hole6*
G04 Draw part H_L4*
G04 Draw part H_C29*
G04 Draw part H_C30*
G04 Draw part H_H9*
G54D19*
G01X21795Y24740D03*
G01X21637Y24740D03*
G01X21480Y24740D03*
G01X21322Y24740D03*
G01X21165Y24740D03*
G01X21007Y24740D03*
G01X21007Y25775D03*
G01X21165Y25775D03*
G01X21322Y25775D03*
G01X21480Y25775D03*
G01X21637Y25775D03*
G01X21795Y25775D03*
G54D20*
G01X22109Y24966D03*
G01X22109Y25549D03*
G01X20692Y25549D03*
G01X20692Y24966D03*
G04 Draw part H_U5*
G04 Draw part H_R6*
G04 Draw part H_X5*
G54D21*
G01X21300Y23750D03*
G01X21851Y23750D03*
G01X21851Y23316D03*
G01X21300Y23316D03*
G04 Draw part H_C31*
G54D16*
G01X22000Y24050D03*
G01X21793Y24050D03*
G04 Draw part H_C32*
G01X21000Y23250D03*
G01X21000Y23456D03*
G04 Draw part H_C33*
G04 Draw part H_C34*
G01X20300Y25000D03*
G01X20093Y25000D03*
G04 Draw part H_C35*
G01X20300Y25550D03*
G01X20093Y25550D03*
G04 Draw part H_H10*
G04 Draw part H_A5*
G04 Draw part H_hole7*
G04 Draw part H_L5*
G04 Draw part H_C36*
G04 Draw part H_C37*
G04 Draw part H_H11*
G54D19*
G01X26595Y24740D03*
G01X26437Y24740D03*
G01X26280Y24740D03*
G01X26122Y24740D03*
G01X25965Y24740D03*
G01X25807Y24740D03*
G01X25807Y25775D03*
G01X25965Y25775D03*
G01X26122Y25775D03*
G01X26280Y25775D03*
G01X26437Y25775D03*
G01X26595Y25775D03*
G54D20*
G01X26909Y24966D03*
G01X26909Y25549D03*
G01X25492Y25549D03*
G01X25492Y24966D03*
G04 Draw part H_U6*
G04 Draw part H_R7*
G04 Draw part H_X6*
G54D21*
G01X26100Y23750D03*
G01X26651Y23750D03*
G01X26651Y23316D03*
G01X26100Y23316D03*
G04 Draw part H_C38*
G54D16*
G01X26800Y24050D03*
G01X26593Y24050D03*
G04 Draw part H_C39*
G01X25800Y23250D03*
G01X25800Y23456D03*
G04 Draw part H_C40*
G04 Draw part H_C41*
G01X25100Y25000D03*
G01X24893Y25000D03*
G04 Draw part H_C42*
G01X25100Y25550D03*
G01X24893Y25550D03*
G04 Draw part H_H12*
G04 Draw part H_A6*
G04 Draw part H_hole8*
G04 Draw part H_L6*
G04 Draw part H_C43*
G04 Draw part H_C44*
G04 Draw part H_H13*
G54D19*
G01X31595Y24740D03*
G01X31437Y24740D03*
G01X31280Y24740D03*
G01X31122Y24740D03*
G01X30965Y24740D03*
G01X30807Y24740D03*
G01X30807Y25775D03*
G01X30965Y25775D03*
G01X31122Y25775D03*
G01X31280Y25775D03*
G01X31437Y25775D03*
G01X31595Y25775D03*
G54D20*
G01X31909Y24966D03*
G01X31909Y25549D03*
G01X30492Y25549D03*
G01X30492Y24966D03*
G04 Draw part H_U7*
G04 Draw part H_R8*
G04 Draw part H_X7*
G54D21*
G01X31100Y23750D03*
G01X31651Y23750D03*
G01X31651Y23316D03*
G01X31100Y23316D03*
G04 Draw part H_C45*
G54D16*
G01X31800Y24050D03*
G01X31593Y24050D03*
G04 Draw part H_C46*
G01X30800Y23250D03*
G01X30800Y23456D03*
G04 Draw part H_C47*
G04 Draw part H_C48*
G01X30100Y25000D03*
G01X29893Y25000D03*
G04 Draw part H_C49*
G01X30100Y25550D03*
G01X29893Y25550D03*
G04 Draw part H_H14*
G04 Draw part H_A7*
G04 Draw part H_hole9*
G04 Draw part H_L7*
G04 Draw part H_C50*
G04 Draw part H_C51*
G04 Draw part H_H15*
G54D19*
G01X36595Y24740D03*
G01X36437Y24740D03*
G01X36280Y24740D03*
G01X36122Y24740D03*
G01X35965Y24740D03*
G01X35807Y24740D03*
G01X35807Y25775D03*
G01X35965Y25775D03*
G01X36122Y25775D03*
G01X36280Y25775D03*
G01X36437Y25775D03*
G01X36595Y25775D03*
G54D20*
G01X36909Y24966D03*
G01X36909Y25549D03*
G01X35492Y25549D03*
G01X35492Y24966D03*
G04 Draw part H_U8*
G04 Draw part H_R9*
G04 Draw part H_X8*
G54D21*
G01X36100Y23750D03*
G01X36651Y23750D03*
G01X36651Y23316D03*
G01X36100Y23316D03*
G04 Draw part H_C52*
G54D16*
G01X36800Y24050D03*
G01X36593Y24050D03*
G04 Draw part H_C53*
G01X35800Y23250D03*
G01X35800Y23456D03*
G04 Draw part H_C54*
G04 Draw part H_C55*
G01X35100Y25000D03*
G01X34893Y25000D03*
G04 Draw part H_C56*
G01X35100Y25550D03*
G01X34893Y25550D03*
G04 Draw part H_H16*
G04 Draw part H_A8*
G04 Draw part H_hole10*
G04 Draw part H_L8*
G04 Draw part H_C57*
G04 Draw part H_C58*
G04 Draw part H_H17*
G54D19*
G01X41295Y24740D03*
G01X41137Y24740D03*
G01X40980Y24740D03*
G01X40822Y24740D03*
G01X40665Y24740D03*
G01X40507Y24740D03*
G01X40507Y25775D03*
G01X40665Y25775D03*
G01X40822Y25775D03*
G01X40980Y25775D03*
G01X41137Y25775D03*
G01X41295Y25775D03*
G54D20*
G01X41609Y24966D03*
G01X41609Y25549D03*
G01X40192Y25549D03*
G01X40192Y24966D03*
G04 Draw part H_U9*
G04 Draw part H_R10*
G04 Draw part H_X9*
G54D21*
G01X40800Y23750D03*
G01X41351Y23750D03*
G01X41351Y23316D03*
G01X40800Y23316D03*
G04 Draw part H_C59*
G54D16*
G01X41500Y24050D03*
G01X41293Y24050D03*
G04 Draw part H_C60*
G01X40500Y23250D03*
G01X40500Y23456D03*
G04 Draw part H_C61*
G04 Draw part H_C62*
G01X39800Y25000D03*
G01X39593Y25000D03*
G04 Draw part H_C63*
G01X39800Y25550D03*
G01X39593Y25550D03*
G04 Draw part H_H18*
G04 Draw part H_A9*
G04 Draw part H_hole11*
G04 Draw part H_L9*
G04 Draw part H_C64*
G04 Draw part H_C65*
G04 Draw part H_H19*
G54D19*
G01X46095Y24740D03*
G01X45937Y24740D03*
G01X45780Y24740D03*
G01X45622Y24740D03*
G01X45465Y24740D03*
G01X45307Y24740D03*
G01X45307Y25775D03*
G01X45465Y25775D03*
G01X45622Y25775D03*
G01X45780Y25775D03*
G01X45937Y25775D03*
G01X46095Y25775D03*
G54D20*
G01X46409Y24966D03*
G01X46409Y25549D03*
G01X44992Y25549D03*
G01X44992Y24966D03*
G04 Draw part H_U10*
G04 Draw part H_R11*
G04 Draw part H_X10*
G54D21*
G01X45600Y23750D03*
G01X46151Y23750D03*
G01X46151Y23316D03*
G01X45600Y23316D03*
G04 Draw part H_C66*
G54D16*
G01X46300Y24050D03*
G01X46093Y24050D03*
G04 Draw part H_C67*
G01X45300Y23250D03*
G01X45300Y23456D03*
G04 Draw part H_C68*
G04 Draw part H_C69*
G01X44600Y25000D03*
G01X44393Y25000D03*
G04 Draw part H_C70*
G01X44600Y25550D03*
G01X44393Y25550D03*
G04 Draw part H_H20*
G04 Draw part H_A10*
G04 Draw part H_hole12*
G04 Draw part H_L10*
G04 Draw part H_C71*
G04 Draw part H_C72*
G04 Draw part I_U6*
G04 Draw part I_C22*
G04 Draw part I_C23*
G04 Draw part I_P9*
G04 Draw part I_P10*
G04 Draw part I_H7*
G54D11*
G01X30500Y48100D03*
G01X30696Y48100D03*
G01X30893Y48100D03*
G01X31090Y48100D03*
G01X31287Y48100D03*
G01X31484Y48100D03*
G01X31681Y48100D03*
G01X31877Y48100D03*
G54D12*
G01X30188Y49143D03*
G01X32188Y49143D03*
G04 Draw part I_U7*
G04 Draw part I_C24*
G04 Draw part I_R5*
G04 Draw part I_H8*
G04 Draw part I_D3*
G04 Draw part I_R6*
G04 Draw part I_S3*
G04 Draw part I_H9*
G54D22*
G01X29609Y45096D03*
G01X30042Y45096D03*
G01X30475Y45096D03*
G01X30770Y45096D03*
G01X31046Y45096D03*
G01X31341Y45096D03*
G01X31774Y45096D03*
G01X32207Y45096D03*
G01X32640Y45096D03*
G54D23*
G01X33182Y47482D03*
G01X29067Y47482D03*
G01X33182Y45730D03*
G01X29067Y45730D03*
G04 Draw part I_P11*
G04 Draw part I_P12*
G04 Draw part I_C25*
G04 Draw part I_hole5*
G04 Draw part I_hole6*
G04 Draw part I_U8*
G04 Draw part I_C26*
G04 Draw part I_C27*
G04 Draw part I_P13*
G04 Draw part I_P14*
G04 Draw part I_H10*
G54D11*
G01X36800Y48100D03*
G01X36996Y48100D03*
G01X37193Y48100D03*
G01X37390Y48100D03*
G01X37587Y48100D03*
G01X37784Y48100D03*
G01X37981Y48100D03*
G01X38177Y48100D03*
G54D12*
G01X36488Y49143D03*
G01X38488Y49143D03*
G04 Draw part I_U9*
G04 Draw part I_C28*
G04 Draw part I_R7*
G04 Draw part I_H11*
G04 Draw part I_D4*
G04 Draw part I_R8*
G04 Draw part I_S4*
G04 Draw part I_H12*
G54D22*
G01X35909Y45096D03*
G01X36342Y45096D03*
G01X36775Y45096D03*
G01X37070Y45096D03*
G01X37346Y45096D03*
G01X37641Y45096D03*
G01X38074Y45096D03*
G01X38507Y45096D03*
G01X38940Y45096D03*
G54D23*
G01X39482Y47482D03*
G01X35367Y47482D03*
G01X39482Y45730D03*
G01X35367Y45730D03*
G04 Draw part I_P15*
G04 Draw part I_P16*
G04 Draw part I_C29*
G04 Draw part I_hole7*
G04 Draw part I_hole8*
G04 Draw part I_U10*
G04 Draw part I_C30*
G04 Draw part I_C31*
G04 Draw part I_P17*
G04 Draw part I_P18*
G04 Draw part I_H13*
G54D11*
G01X42900Y48100D03*
G01X43096Y48100D03*
G01X43293Y48100D03*
G01X43490Y48100D03*
G01X43687Y48100D03*
G01X43884Y48100D03*
G01X44081Y48100D03*
G01X44277Y48100D03*
G54D12*
G01X42588Y49143D03*
G01X44588Y49143D03*
G04 Draw part I_U11*
G04 Draw part I_C32*
G04 Draw part I_R9*
G04 Draw part I_H14*
G04 Draw part I_D5*
G04 Draw part I_R10*
G04 Draw part I_S5*
G04 Draw part I_H15*
G54D22*
G01X42109Y45096D03*
G01X42542Y45096D03*
G01X42975Y45096D03*
G01X43270Y45096D03*
G01X43546Y45096D03*
G01X43841Y45096D03*
G01X44274Y45096D03*
G01X44707Y45096D03*
G01X45140Y45096D03*
G54D23*
G01X45682Y47482D03*
G01X41567Y47482D03*
G01X45682Y45730D03*
G01X41567Y45730D03*
G04 Draw part I_P19*
G04 Draw part I_P20*
G04 Draw part I_C33*
G04 Draw part I_hole9*
G04 Draw part I_hole10*
G04 Draw part F_H4*
G54D19*
G01X12090Y31090D03*
G01X11932Y31090D03*
G01X11775Y31090D03*
G01X11617Y31090D03*
G01X11460Y31090D03*
G01X11302Y31090D03*
G01X11302Y32125D03*
G01X11460Y32125D03*
G01X11617Y32125D03*
G01X11775Y32125D03*
G01X11932Y32125D03*
G01X12090Y32125D03*
G54D20*
G01X12404Y31316D03*
G01X12404Y31899D03*
G01X10987Y31899D03*
G01X10987Y31316D03*
G04 Draw part F_U7*
G04 Draw part F_U8*
G04 Draw part F_R9*
G54D16*
G01X13000Y29800D03*
G01X13000Y30006D03*
G04 Draw part F_R10*
G01X13000Y29500D03*
G01X13000Y29293D03*
G04 Draw part F_C15*
G01X12150Y29300D03*
G01X11943Y29300D03*
G04 Draw part F_C16*
G01X12150Y29000D03*
G01X11943Y29000D03*
G04 Draw part F_C17*
G01X11660Y28200D03*
G01X11660Y27993D03*
G04 Draw part F_C18*
G01X12350Y28000D03*
G01X12350Y28206D03*
G04 Draw part F_C19*
G01X10900Y30600D03*
G01X10693Y30600D03*
G04 Draw part F_C20*
G01X11700Y30030D03*
G01X11493Y30030D03*
G04 Draw part F_J17*
G04 Draw part F_J18*
G04 Draw part F_J19*
G04 Draw part F_J20*
G04 Draw part F_J21*
G04 Draw part F_J22*
G04 Draw part F_T3*
G04 Draw part F_R11*
G01X11450Y30600D03*
G01X11243Y30600D03*
G04 Draw part F_U9*
G04 Draw part F_J23*
G04 Draw part F_J24*
G04 Draw part F_R12*
G01X10170Y29100D03*
G01X10376Y29100D03*
G04 Draw part F_C21*
G01X10700Y30000D03*
G01X10700Y30206D03*
G04 Draw part F_P11*
G01X12800Y29000D03*
G01X13006Y29000D03*
G04 Draw part F_hole6*
G04 Draw part F_H5*
G54D19*
G01X16890Y30990D03*
G01X16732Y30990D03*
G01X16575Y30990D03*
G01X16417Y30990D03*
G01X16260Y30990D03*
G01X16102Y30990D03*
G01X16102Y32025D03*
G01X16260Y32025D03*
G01X16417Y32025D03*
G01X16575Y32025D03*
G01X16732Y32025D03*
G01X16890Y32025D03*
G54D20*
G01X17204Y31216D03*
G01X17204Y31799D03*
G01X15787Y31799D03*
G01X15787Y31216D03*
G04 Draw part F_U10*
G04 Draw part F_U11*
G04 Draw part F_R13*
G54D16*
G01X17800Y29700D03*
G01X17800Y29906D03*
G04 Draw part F_R14*
G01X17800Y29400D03*
G01X17800Y29193D03*
G04 Draw part F_C22*
G01X16950Y29200D03*
G01X16743Y29200D03*
G04 Draw part F_C23*
G01X16950Y28900D03*
G01X16743Y28900D03*
G04 Draw part F_C24*
G01X16460Y28100D03*
G01X16460Y27893D03*
G04 Draw part F_C25*
G01X17150Y27900D03*
G01X17150Y28106D03*
G04 Draw part F_C26*
G01X15700Y30500D03*
G01X15493Y30500D03*
G04 Draw part F_C27*
G01X16500Y29930D03*
G01X16293Y29930D03*
G04 Draw part F_J25*
G04 Draw part F_J26*
G04 Draw part F_J27*
G04 Draw part F_J28*
G04 Draw part F_J29*
G04 Draw part F_J30*
G04 Draw part F_T4*
G04 Draw part F_R15*
G01X16250Y30500D03*
G01X16043Y30500D03*
G04 Draw part F_U12*
G04 Draw part F_J31*
G04 Draw part F_J32*
G04 Draw part F_R16*
G01X14970Y29000D03*
G01X15176Y29000D03*
G04 Draw part F_C28*
G01X15500Y29900D03*
G01X15500Y30106D03*
G04 Draw part F_P12*
G01X17600Y28900D03*
G01X17806Y28900D03*
G04 Draw part F_hole7*
G04 Draw part F_H6*
G54D19*
G01X21790Y30990D03*
G01X21632Y30990D03*
G01X21475Y30990D03*
G01X21317Y30990D03*
G01X21160Y30990D03*
G01X21002Y30990D03*
G01X21002Y32025D03*
G01X21160Y32025D03*
G01X21317Y32025D03*
G01X21475Y32025D03*
G01X21632Y32025D03*
G01X21790Y32025D03*
G54D20*
G01X22104Y31216D03*
G01X22104Y31799D03*
G01X20687Y31799D03*
G01X20687Y31216D03*
G04 Draw part F_U13*
G04 Draw part F_U14*
G04 Draw part F_R17*
G54D16*
G01X22700Y29700D03*
G01X22700Y29906D03*
G04 Draw part F_R18*
G01X22700Y29400D03*
G01X22700Y29193D03*
G04 Draw part F_C29*
G01X21850Y29200D03*
G01X21643Y29200D03*
G04 Draw part F_C30*
G01X21850Y28900D03*
G01X21643Y28900D03*
G04 Draw part F_C31*
G01X21360Y28100D03*
G01X21360Y27893D03*
G04 Draw part F_C32*
G01X22050Y27900D03*
G01X22050Y28106D03*
G04 Draw part F_C33*
G01X20600Y30500D03*
G01X20393Y30500D03*
G04 Draw part F_C34*
G01X21400Y29930D03*
G01X21193Y29930D03*
G04 Draw part F_J33*
G04 Draw part F_J34*
G04 Draw part F_J35*
G04 Draw part F_J36*
G04 Draw part F_J37*
G04 Draw part F_J38*
G04 Draw part F_T5*
G04 Draw part F_R19*
G01X21150Y30500D03*
G01X20943Y30500D03*
G04 Draw part F_U15*
G04 Draw part F_J39*
G04 Draw part F_J40*
G04 Draw part F_R20*
G01X19870Y29000D03*
G01X20076Y29000D03*
G04 Draw part F_C35*
G01X20400Y29900D03*
G01X20400Y30106D03*
G04 Draw part F_P13*
G01X22500Y28900D03*
G01X22706Y28900D03*
G04 Draw part F_hole8*
G04 Draw part E_P28*
G54D19*
G01X26450Y38900D03*
G01X26292Y38900D03*
G01X26135Y38900D03*
G01X25977Y38900D03*
G01X25820Y38900D03*
G01X25662Y38900D03*
G01X25662Y39935D03*
G01X25820Y39935D03*
G01X25977Y39935D03*
G01X26135Y39935D03*
G01X26292Y39935D03*
G01X26450Y39935D03*
G54D20*
G01X26764Y39126D03*
G01X26764Y39709D03*
G01X25347Y39709D03*
G01X25347Y39126D03*
G04 Draw part E_P29*
G04 Draw part E_P30*
G04 Draw part E_P31*
G04 Draw part E_P32*
G04 Draw part E_P33*
G04 Draw part E_P34*
G04 Draw part E_P35*
G04 Draw part E_P36*
G04 Draw part E_P37*
G04 Draw part E_P38*
G04 Draw part E_P39*
G04 Draw part E_P40*
G04 Draw part E_P41*
G54D19*
G01X30550Y38900D03*
G01X30392Y38900D03*
G01X30235Y38900D03*
G01X30077Y38900D03*
G01X29920Y38900D03*
G01X29762Y38900D03*
G01X29762Y39935D03*
G01X29920Y39935D03*
G01X30077Y39935D03*
G01X30235Y39935D03*
G01X30392Y39935D03*
G01X30550Y39935D03*
G54D20*
G01X30864Y39126D03*
G01X30864Y39709D03*
G01X29447Y39709D03*
G01X29447Y39126D03*
G04 Draw part E_P42*
G04 Draw part E_P43*
G04 Draw part E_P44*
G04 Draw part E_P45*
G04 Draw part E_P46*
G04 Draw part E_P47*
G04 Draw part E_P48*
G04 Draw part E_P49*
G04 Draw part E_P50*
G04 Draw part E_P51*
G04 Draw part E_P52*
G04 Draw part E_P53*
G04 Draw part E_P54*
G54D19*
G01X34750Y38900D03*
G01X34592Y38900D03*
G01X34435Y38900D03*
G01X34277Y38900D03*
G01X34120Y38900D03*
G01X33962Y38900D03*
G01X33962Y39935D03*
G01X34120Y39935D03*
G01X34277Y39935D03*
G01X34435Y39935D03*
G01X34592Y39935D03*
G01X34750Y39935D03*
G54D20*
G01X35064Y39126D03*
G01X35064Y39709D03*
G01X33647Y39709D03*
G01X33647Y39126D03*
G04 Draw part E_P55*
G04 Draw part E_P56*
G04 Draw part E_P57*
G04 Draw part E_P58*
G04 Draw part E_P59*
G04 Draw part E_P60*
G04 Draw part E_P61*
G04 Draw part E_P62*
G04 Draw part E_P63*
G04 Draw part E_P64*
G04 Draw part E_P65*
G04 Draw part E_P66*
G04 Draw part E_P67*
G54D19*
G01X38850Y38900D03*
G01X38692Y38900D03*
G01X38535Y38900D03*
G01X38377Y38900D03*
G01X38220Y38900D03*
G01X38062Y38900D03*
G01X38062Y39935D03*
G01X38220Y39935D03*
G01X38377Y39935D03*
G01X38535Y39935D03*
G01X38692Y39935D03*
G01X38850Y39935D03*
G54D20*
G01X39164Y39126D03*
G01X39164Y39709D03*
G01X37747Y39709D03*
G01X37747Y39126D03*
G04 Draw part E_P68*
G04 Draw part E_P69*
G04 Draw part E_P70*
G04 Draw part E_P71*
G04 Draw part E_P72*
G04 Draw part E_P73*
G04 Draw part E_P74*
G04 Draw part E_P75*
G04 Draw part E_P76*
G04 Draw part E_P77*
G04 Draw part E_P78*
G04 Draw part E_P79*
G04 Draw part E_P80*
G54D19*
G01X43050Y38900D03*
G01X42892Y38900D03*
G01X42735Y38900D03*
G01X42577Y38900D03*
G01X42420Y38900D03*
G01X42262Y38900D03*
G01X42262Y39935D03*
G01X42420Y39935D03*
G01X42577Y39935D03*
G01X42735Y39935D03*
G01X42892Y39935D03*
G01X43050Y39935D03*
G54D20*
G01X43364Y39126D03*
G01X43364Y39709D03*
G01X41947Y39709D03*
G01X41947Y39126D03*
G04 Draw part E_P81*
G04 Draw part E_P82*
G04 Draw part E_P83*
G04 Draw part E_P84*
G04 Draw part E_P85*
G04 Draw part E_P86*
G04 Draw part E_P87*
G04 Draw part E_P88*
G04 Draw part E_P89*
G04 Draw part E_P90*
G04 Draw part E_P91*
G04 Draw part E_P92*
G04 Draw part E_P93*
G54D19*
G01X47150Y38900D03*
G01X46992Y38900D03*
G01X46835Y38900D03*
G01X46677Y38900D03*
G01X46520Y38900D03*
G01X46362Y38900D03*
G01X46362Y39935D03*
G01X46520Y39935D03*
G01X46677Y39935D03*
G01X46835Y39935D03*
G01X46992Y39935D03*
G01X47150Y39935D03*
G54D20*
G01X47464Y39126D03*
G01X47464Y39709D03*
G01X46047Y39709D03*
G01X46047Y39126D03*
G04 Draw part E_P94*
G04 Draw part E_P95*
G04 Draw part E_P96*
G04 Draw part E_P97*
G04 Draw part E_P98*
G04 Draw part E_P99*
G04 Draw part E_P100*
G04 Draw part E_P101*
G04 Draw part E_P102*
G04 Draw part E_P103*
G04 Draw part E_P104*
G04 Draw part E_P105*
G04 Draw part A_p12*
G04 Draw part A_p13*
G04 Draw part A_p14*
G04 Draw part A_p15*
G04 Draw part A_p16*
G04 Draw part A_p17*
G04 Draw part A_p18*
G04 Draw part A_p19*
G04 Draw part A_p20*
G04 Draw part A_p21*
G04 Draw part A_p22*
G04 Draw part A_p23*
G04 Draw part A_p24*
G04 Draw part A_p25*
G04 Draw part A_p26*
G04 Draw part A_p27*
G04 Draw part A_p28*
G04 Draw part A_p29*
G04 Draw part A_p30*
G04 Draw part A_p31*
G04 Draw part A_p32*
G04 Draw part A_p33*
G04 Draw part A_p34*
G04 Draw part A_p35*
G04 Draw part A_p36*
G04 Draw part A_p37*
G04 Draw part A_p38*
G04 Draw part A_p39*
G04 Draw part A_p40*
G04 Draw part A_p41*
G04 Draw part A_p42*
G04 Draw part A_p43*
G04 Draw part A_p44*
G04 Draw part A_p45*
G04 Draw part A_p46*
G04 Draw part A_p47*
G04 Draw part A_p48*
G04 Draw part A_p49*
G04 Draw part A_p50*
G04 Draw part A_p51*
G04 Draw part E_P106*
G54D19*
G01X48850Y43000D03*
G01X48692Y43000D03*
G01X48535Y43000D03*
G01X48377Y43000D03*
G01X48220Y43000D03*
G01X48062Y43000D03*
G01X48062Y44035D03*
G01X48220Y44035D03*
G01X48377Y44035D03*
G01X48535Y44035D03*
G01X48692Y44035D03*
G01X48850Y44035D03*
G54D20*
G01X49164Y43226D03*
G01X49164Y43809D03*
G01X47747Y43809D03*
G01X47747Y43226D03*
G04 Draw part E_P107*
G04 Draw part E_P108*
G04 Draw part E_P109*
G04 Draw part E_P110*
G04 Draw part E_P111*
G04 Draw part E_P112*
G04 Draw part E_P113*
G04 Draw part E_P114*
G04 Draw part E_P115*
G04 Draw part E_P116*
G04 Draw part E_P117*
G04 Draw part E_P118*
G04 Draw part E_P119*
G54D19*
G01X48850Y47400D03*
G01X48692Y47400D03*
G01X48535Y47400D03*
G01X48377Y47400D03*
G01X48220Y47400D03*
G01X48062Y47400D03*
G01X48062Y48435D03*
G01X48220Y48435D03*
G01X48377Y48435D03*
G01X48535Y48435D03*
G01X48692Y48435D03*
G01X48850Y48435D03*
G54D20*
G01X49164Y47626D03*
G01X49164Y48209D03*
G01X47747Y48209D03*
G01X47747Y47626D03*
G04 Draw part E_P120*
G04 Draw part E_P121*
G04 Draw part E_P122*
G04 Draw part E_P123*
G04 Draw part E_P124*
G04 Draw part E_P125*
G04 Draw part E_P126*
G04 Draw part E_P127*
G04 Draw part E_P128*
G04 Draw part E_P129*
G04 Draw part E_P130*
G04 Draw part E_P131*
G04 Draw part A_p52*
G04 Draw part A_p53*
G04 Draw part A_p54*
G04 Draw part A_p55*
G04 Draw part A_p56*
G04 Draw part A_p57*
G04 Draw part A_p58*
G04 Draw part A_p59*
G04 Draw part A_p60*
G04 Draw part A_p61*
G04 Draw part A_p62*
G04 Draw part A_p63*
G04 Draw part A_p64*
G04 Draw part A_p65*
G04 Draw part A_p66*
G04 Draw part A_p67*
G04 Draw part A_p68*
G04 Draw part A_p69*
G04 Draw part A_p70*
G04 Draw part A_p71*
G04 Draw part A_p72*
G04 Draw part A_p73*
G04 Draw part A_p74*
G04 Draw part A_p75*
G04 Draw part A_p76*
G04 Draw part A_p77*
G04 Draw part A_p78*
G04 Draw part A_p79*
G04 Draw part A_p80*
G04 Draw part A_p81*
G04 Draw part A_p82*
G04 Draw part A_p83*
G04 Draw part A_p84*
G04 Draw part A_p85*
G04 Draw part A_p86*
G04 Draw part A_p87*
G04 Draw part A_p88*
G04 Draw part A_p89*
G04 Draw part A_p90*
G04 Draw part A_p91*
G04 Draw part A_p92*
G04 Draw part A_p93*
G04 Draw part A_p94*
G04 Draw part A_p95*
G04 Draw part A_p96*
G04 Draw part A_p102*
G04 Draw part A_p103*
G04 Draw part A_p104*
G04 Draw part A_p105*
G04 Draw part A_p106*
G04 Draw part C_H21*
G04 Draw part C_H22*
G54D19*
G01X26595Y30990D03*
G01X26437Y30990D03*
G01X26280Y30990D03*
G01X26122Y30990D03*
G01X25965Y30990D03*
G01X25807Y30990D03*
G01X25807Y32025D03*
G01X25965Y32025D03*
G01X26122Y32025D03*
G01X26280Y32025D03*
G01X26437Y32025D03*
G01X26595Y32025D03*
G54D20*
G01X26909Y31216D03*
G01X26909Y31799D03*
G01X25492Y31799D03*
G01X25492Y31216D03*
G04 Draw part C_U11*
G04 Draw part C_J111*
G04 Draw part C_C41*
G04 Draw part C_J112*
G04 Draw part C_J113*
G04 Draw part C_C42*
G04 Draw part C_J114*
G04 Draw part C_J115*
G04 Draw part C_C43*
G04 Draw part C_J116*
G04 Draw part C_J117*
G04 Draw part C_C44*
G04 Draw part C_J118*
G04 Draw part C_J119*
G04 Draw part C_J120*
G04 Draw part C_J121*
G04 Draw part C_R21*
G54D16*
G01X26700Y30400D03*
G01X26700Y30606D03*
G04 Draw part C_R22*
G01X26350Y30400D03*
G01X26350Y30606D03*
G04 Draw part C_H23*
G04 Draw part C_H24*
G54D19*
G01X31395Y30890D03*
G01X31237Y30890D03*
G01X31080Y30890D03*
G01X30922Y30890D03*
G01X30765Y30890D03*
G01X30607Y30890D03*
G01X30607Y31925D03*
G01X30765Y31925D03*
G01X30922Y31925D03*
G01X31080Y31925D03*
G01X31237Y31925D03*
G01X31395Y31925D03*
G54D20*
G01X31709Y31116D03*
G01X31709Y31699D03*
G01X30292Y31699D03*
G01X30292Y31116D03*
G04 Draw part C_U12*
G04 Draw part C_J122*
G04 Draw part C_C45*
G04 Draw part C_J123*
G04 Draw part C_J124*
G04 Draw part C_C46*
G04 Draw part C_J125*
G04 Draw part C_J126*
G04 Draw part C_C47*
G04 Draw part C_J127*
G04 Draw part C_J128*
G04 Draw part C_C48*
G04 Draw part C_J129*
G04 Draw part C_J130*
G04 Draw part C_J131*
G04 Draw part C_J132*
G04 Draw part C_R23*
G54D16*
G01X31500Y30300D03*
G01X31500Y30506D03*
G04 Draw part C_R24*
G01X31150Y30300D03*
G01X31150Y30506D03*
G04 Draw part C_H25*
G04 Draw part C_H26*
G54D19*
G01X36395Y30890D03*
G01X36237Y30890D03*
G01X36080Y30890D03*
G01X35922Y30890D03*
G01X35765Y30890D03*
G01X35607Y30890D03*
G01X35607Y31925D03*
G01X35765Y31925D03*
G01X35922Y31925D03*
G01X36080Y31925D03*
G01X36237Y31925D03*
G01X36395Y31925D03*
G54D20*
G01X36709Y31116D03*
G01X36709Y31699D03*
G01X35292Y31699D03*
G01X35292Y31116D03*
G04 Draw part C_U13*
G04 Draw part C_J133*
G04 Draw part C_C49*
G04 Draw part C_J134*
G04 Draw part C_J135*
G04 Draw part C_C50*
G04 Draw part C_J136*
G04 Draw part C_J137*
G04 Draw part C_C51*
G04 Draw part C_J138*
G04 Draw part C_J139*
G04 Draw part C_C52*
G04 Draw part C_J140*
G04 Draw part C_J141*
G04 Draw part C_J142*
G04 Draw part C_J143*
G04 Draw part C_R25*
G54D16*
G01X36500Y30300D03*
G01X36500Y30506D03*
G04 Draw part C_R26*
G01X36150Y30300D03*
G01X36150Y30506D03*
G04 Draw part C_H27*
G04 Draw part C_H28*
G54D19*
G01X41195Y30790D03*
G01X41037Y30790D03*
G01X40880Y30790D03*
G01X40722Y30790D03*
G01X40565Y30790D03*
G01X40407Y30790D03*
G01X40407Y31825D03*
G01X40565Y31825D03*
G01X40722Y31825D03*
G01X40880Y31825D03*
G01X41037Y31825D03*
G01X41195Y31825D03*
G54D20*
G01X41509Y31016D03*
G01X41509Y31599D03*
G01X40092Y31599D03*
G01X40092Y31016D03*
G04 Draw part C_U14*
G04 Draw part C_J144*
G04 Draw part C_C53*
G04 Draw part C_J145*
G04 Draw part C_J146*
G04 Draw part C_C54*
G04 Draw part C_J147*
G04 Draw part C_J148*
G04 Draw part C_C55*
G04 Draw part C_J149*
G04 Draw part C_J150*
G04 Draw part C_C56*
G04 Draw part C_J151*
G04 Draw part C_J152*
G04 Draw part C_J153*
G04 Draw part C_J154*
G04 Draw part C_R27*
G54D16*
G01X41300Y30200D03*
G01X41300Y30406D03*
G04 Draw part C_R28*
G01X40950Y30200D03*
G01X40950Y30406D03*
G04 Draw part C_H29*
G04 Draw part C_H30*
G54D19*
G01X45995Y30790D03*
G01X45837Y30790D03*
G01X45680Y30790D03*
G01X45522Y30790D03*
G01X45365Y30790D03*
G01X45207Y30790D03*
G01X45207Y31825D03*
G01X45365Y31825D03*
G01X45522Y31825D03*
G01X45680Y31825D03*
G01X45837Y31825D03*
G01X45995Y31825D03*
G54D20*
G01X46309Y31016D03*
G01X46309Y31599D03*
G01X44892Y31599D03*
G01X44892Y31016D03*
G04 Draw part C_U15*
G04 Draw part C_J155*
G04 Draw part C_C57*
G04 Draw part C_J156*
G04 Draw part C_J157*
G04 Draw part C_C58*
G04 Draw part C_J158*
G04 Draw part C_J159*
G04 Draw part C_C59*
G04 Draw part C_J160*
G04 Draw part C_J161*
G04 Draw part C_C60*
G04 Draw part C_J162*
G04 Draw part C_J163*
G04 Draw part C_J164*
G04 Draw part C_J165*
G04 Draw part C_R29*
G54D16*
G01X46100Y30200D03*
G01X46100Y30406D03*
G04 Draw part C_R30*
G01X45750Y30200D03*
G01X45750Y30406D03*

G04 Draw traces*

G04 Draw Text*
M00*
M02*
