G04 FreePCB version 1.359*
G04 C:\Users\Jack Ruby\Documents\GitHub\DAQpack_mk2\FlexCAM_addedOutlines\top_solder_mask.grb*
G04 top solder mask layer *
G04 Scale: 100 percent, Rotated: No, Reflected: No *
%FSLAX24Y24*%
%MOIN*%
%LN top solder mask *%
G04 Rounded Rectangle Macro, params: W/2, H/2, R *
%AMRNDREC*
21,1,$1+$1,$2+$2-$3-$3,0,0,0*
21,1,$1+$1-$3-$3,$2+$2,0,0,0*
1,1,$3+$3,$1-$3,$2-$3*
1,1,$3+$3,$3-$1,$2-$3*
1,1,$3+$3,$1-$3,$3-$2*
1,1,$3+$3,$3-$1,$3-$2*%
G04 Rectangular Thermal Macro, params: W/2, H/2, T/2 *
%AMRECTHERM*
$4=$3/2*
21,1,$1-$3,$2-$3,0-$1/2-$4,0-$2/2-$4,0*
21,1,$1-$3,$2-$3,0-$1/2-$4,$2/2+$4,0*
21,1,$1-$3,$2-$3,$1/2+$4,0-$2/2-$4,0*
21,1,$1-$3,$2-$3,$1/2+$4,$2/2+$4,0*%
%ADD10C,0.005000*%
%ADD11C,0.052000*%
%ADD12R,0.102000X0.077000*%
%ADD13R,0.045465X0.023024*%
%ADD14R,0.035622X0.031685*%
%ADD15R,0.039559X0.031685*%
%ADD16R,0.023811X0.023811*%
%ADD17R,0.047433X0.031685*%
%ADD18R,0.098614X0.098614*%
%ADD19R,0.020661X0.039559*%
%ADD20R,0.051370X0.031685*%
%ADD21C,0.037000*%
%ADD22R,0.025780X0.045465*%
%ADD23R,0.045465X0.025780*%
%ADD24C,0.025780*%
%ADD25C,0.022236*%
%ADD26C,0.046000*%
%ADD27R,0.077748X0.043496*%
%ADD28R,0.043496X0.110425*%
%ADD29R,0.043496X0.077748*%
%ADD30R,0.043496X0.043496*%
%ADD31R,0.026173X0.030898*%
%ADD32R,0.067118X0.039953*%
%ADD33R,0.039559X0.021843*%
%ADD34R,0.021843X0.039559*%
%ADD35R,0.114362X0.114362*%
%ADD36R,0.052000X0.102000*%
%ADD37R,0.026000X0.026000*%
%ADD38R,0.023000X0.023000*%
%ADD39R,0.023024X0.045465*%
%ADD40R,0.031685X0.035622*%
%ADD41R,0.035622X0.021055*%
%ADD42R,0.021055X0.035622*%
%ADD43R,0.134047X0.134047*%
%ADD44R,0.031685X0.039559*%
%ADD45R,0.074992X0.074992*%
%ADD46R,0.075000X0.055000*%
%ADD47R,0.209000X0.091000*%
%ADD48R,0.130110X0.079000*%
%ADD49R,0.033654X0.021055*%
%ADD50R,0.074992X0.090740*%
%ADD51R,0.035622X0.035622*%
%ADD52R,0.031685X0.031685*%
%ADD53R,0.077000X0.102000*%
G90*
G70D02*

G04 Step and Repeat for panelization *

G04 ----------------------- Draw board outline (positive)*
%LPD*%
G54D10*
G01X24600Y14500D02*
G01X24600Y19800D01*
G04 end of side 1*
G01X28100Y19800D01*
G04 end of side 2*
G01X28100Y14500D01*
G04 end of side 3*
G01X24600Y14500D01*
G01X500Y27500D02*
G01X4000Y27500D01*
G04 end of side 1*
G01X4000Y32700D01*
G04 end of side 2*
G01X500Y32700D01*
G04 end of side 3*
G01X500Y27500D01*
G01X16000Y37800D02*
G01X16000Y41000D01*
G04 end of side 1*
G01X19100Y41000D01*
G04 end of side 2*
G01X19100Y37800D01*
G04 end of side 3*
G01X16000Y37800D01*
G01X500Y14500D02*
G01X500Y19700D01*
G04 end of side 1*
G01X4000Y19700D01*
G04 end of side 2*
G01X4000Y14500D01*
G04 end of side 3*
G01X500Y14500D01*
G01X400Y8100D02*
G01X400Y13300D01*
G04 end of side 1*
G01X3900Y13300D01*
G04 end of side 2*
G01X3900Y8100D01*
G04 end of side 3*
G01X400Y8100D01*
G01X5200Y300D02*
G01X8700Y300D01*
G04 end of side 1*
G01X8700Y6800D01*
G04 end of side 2*
G01X5200Y6800D01*
G04 end of side 3*
G01X5200Y300D01*
G01X600Y36700D02*
G01X600Y38000D01*
G04 end of side 1*
G01X4300Y38000D01*
G04 end of side 2*
G01X4300Y36700D01*
G04 end of side 3*
G01X600Y36700D01*
G01X600Y34100D02*
G01X600Y35400D01*
G04 end of side 1*
G01X4300Y35400D01*
G04 end of side 2*
G01X4300Y34100D01*
G04 end of side 3*
G01X600Y34100D01*
G01X300Y300D02*
G01X3800Y300D01*
G04 end of side 1*
G01X3800Y6800D01*
G04 end of side 2*
G01X300Y6800D01*
G04 end of side 3*
G01X300Y300D01*
G01X500Y21000D02*
G01X4000Y21000D01*
G04 end of side 1*
G01X4000Y26200D01*
G04 end of side 2*
G01X500Y26200D01*
G04 end of side 3*
G01X500Y21000D01*
G01X16000Y41900D02*
G01X21000Y41900D01*
G04 end of side 1*
G01X21000Y49400D01*
G04 end of side 2*
G01X16000Y49400D01*
G04 end of side 3*
G01X16000Y41900D01*
G01X500Y39200D02*
G01X7000Y39200D01*
G04 end of side 1*
G01X7000Y49500D01*
G04 end of side 2*
G01X500Y49500D01*
G04 end of side 3*
G01X500Y39200D01*
G01X5200Y8100D02*
G01X5200Y13300D01*
G04 end of side 1*
G01X8700Y13300D01*
G04 end of side 2*
G01X8700Y8100D01*
G04 end of side 3*
G01X5200Y8100D01*
G01X5200Y14500D02*
G01X5200Y19700D01*
G04 end of side 1*
G01X8700Y19700D01*
G04 end of side 2*
G01X8700Y14500D01*
G04 end of side 3*
G01X5200Y14500D01*
G01X20100Y37800D02*
G01X20100Y41000D01*
G04 end of side 1*
G01X23200Y41000D01*
G04 end of side 2*
G01X23200Y37800D01*
G04 end of side 3*
G01X20100Y37800D01*
G01X5300Y27400D02*
G01X8800Y27400D01*
G04 end of side 1*
G01X8800Y32600D01*
G04 end of side 2*
G01X5300Y32600D01*
G04 end of side 3*
G01X5300Y27400D01*
G01X29500Y14500D02*
G01X29500Y19800D01*
G04 end of side 1*
G01X33000Y19800D01*
G04 end of side 2*
G01X33000Y14500D01*
G04 end of side 3*
G01X29500Y14500D01*
G01X5200Y21000D02*
G01X8700Y21000D01*
G04 end of side 1*
G01X8700Y26200D01*
G04 end of side 2*
G01X5200Y26200D01*
G04 end of side 3*
G01X5200Y21000D01*
G01X22300Y41900D02*
G01X27300Y41900D01*
G04 end of side 1*
G01X27300Y49400D01*
G04 end of side 2*
G01X22300Y49400D01*
G04 end of side 3*
G01X22300Y41900D01*
G01X8000Y39200D02*
G01X14500Y39200D01*
G04 end of side 1*
G01X14500Y49500D01*
G04 end of side 2*
G01X8000Y49500D01*
G04 end of side 3*
G01X8000Y39200D01*
G01X10100Y300D02*
G01X13600Y300D01*
G04 end of side 1*
G01X13600Y6800D01*
G04 end of side 2*
G01X10100Y6800D01*
G04 end of side 3*
G01X10100Y300D01*
G01X15000Y300D02*
G01X18500Y300D01*
G04 end of side 1*
G01X18500Y6800D01*
G04 end of side 2*
G01X15000Y6800D01*
G04 end of side 3*
G01X15000Y300D01*
G01X19900Y300D02*
G01X23400Y300D01*
G04 end of side 1*
G01X23400Y6800D01*
G04 end of side 2*
G01X19900Y6800D01*
G04 end of side 3*
G01X19900Y300D01*
G01X24600Y300D02*
G01X28100Y300D01*
G04 end of side 1*
G01X28100Y6800D01*
G04 end of side 2*
G01X24600Y6800D01*
G04 end of side 3*
G01X24600Y300D01*
G01X29500Y300D02*
G01X33000Y300D01*
G04 end of side 1*
G01X33000Y6800D01*
G04 end of side 2*
G01X29500Y6800D01*
G04 end of side 3*
G01X29500Y300D01*
G01X34400Y300D02*
G01X37900Y300D01*
G04 end of side 1*
G01X37900Y6800D01*
G04 end of side 2*
G01X34400Y6800D01*
G04 end of side 3*
G01X34400Y300D01*
G01X39300Y300D02*
G01X42800Y300D01*
G04 end of side 1*
G01X42800Y6800D01*
G04 end of side 2*
G01X39300Y6800D01*
G04 end of side 3*
G01X39300Y300D01*
G01X44100Y300D02*
G01X47600Y300D01*
G04 end of side 1*
G01X47600Y6800D01*
G04 end of side 2*
G01X44100Y6800D01*
G04 end of side 3*
G01X44100Y300D01*
G01X10000Y8000D02*
G01X10000Y13200D01*
G04 end of side 1*
G01X13500Y13200D01*
G04 end of side 2*
G01X13500Y8000D01*
G04 end of side 3*
G01X10000Y8000D01*
G01X15000Y8000D02*
G01X15000Y13200D01*
G04 end of side 1*
G01X18500Y13200D01*
G04 end of side 2*
G01X18500Y8000D01*
G04 end of side 3*
G01X15000Y8000D01*
G01X19800Y7900D02*
G01X19800Y13100D01*
G04 end of side 1*
G01X23300Y13100D01*
G04 end of side 2*
G01X23300Y7900D01*
G04 end of side 3*
G01X19800Y7900D01*
G01X24700Y7900D02*
G01X24700Y13100D01*
G04 end of side 1*
G01X28200Y13100D01*
G04 end of side 2*
G01X28200Y7900D01*
G04 end of side 3*
G01X24700Y7900D01*
G01X29500Y7800D02*
G01X29500Y13000D01*
G04 end of side 1*
G01X33000Y13000D01*
G04 end of side 2*
G01X33000Y7800D01*
G04 end of side 3*
G01X29500Y7800D01*
G01X34500Y7800D02*
G01X34500Y13000D01*
G04 end of side 1*
G01X38000Y13000D01*
G04 end of side 2*
G01X38000Y7800D01*
G04 end of side 3*
G01X34500Y7800D01*
G01X39300Y7700D02*
G01X39300Y12900D01*
G04 end of side 1*
G01X42800Y12900D01*
G04 end of side 2*
G01X42800Y7700D01*
G04 end of side 3*
G01X39300Y7700D01*
G01X44100Y7700D02*
G01X44100Y12900D01*
G04 end of side 1*
G01X47600Y12900D01*
G04 end of side 2*
G01X47600Y7700D01*
G04 end of side 3*
G01X44100Y7700D01*
G01X10000Y14500D02*
G01X10000Y19700D01*
G04 end of side 1*
G01X13500Y19700D01*
G04 end of side 2*
G01X13500Y14500D01*
G04 end of side 3*
G01X10000Y14500D01*
G01X15000Y14500D02*
G01X15000Y19700D01*
G04 end of side 1*
G01X18500Y19700D01*
G04 end of side 2*
G01X18500Y14500D01*
G04 end of side 3*
G01X15000Y14500D01*
G01X19800Y14500D02*
G01X19800Y19700D01*
G04 end of side 1*
G01X23300Y19700D01*
G04 end of side 2*
G01X23300Y14500D01*
G04 end of side 3*
G01X19800Y14500D01*
G01X34500Y14500D02*
G01X34500Y19800D01*
G04 end of side 1*
G01X38000Y19800D01*
G04 end of side 2*
G01X38000Y14500D01*
G04 end of side 3*
G01X34500Y14500D01*
G01X39400Y14500D02*
G01X39400Y19800D01*
G04 end of side 1*
G01X42900Y19800D01*
G04 end of side 2*
G01X42900Y14500D01*
G04 end of side 3*
G01X39400Y14500D01*
G01X44100Y14500D02*
G01X44100Y19800D01*
G04 end of side 1*
G01X47600Y19800D01*
G04 end of side 2*
G01X47600Y14500D01*
G04 end of side 3*
G01X44100Y14500D01*
G01X10000Y21000D02*
G01X13500Y21000D01*
G04 end of side 1*
G01X13500Y26200D01*
G04 end of side 2*
G01X10000Y26200D01*
G04 end of side 3*
G01X10000Y21000D01*
G01X15000Y21000D02*
G01X18500Y21000D01*
G04 end of side 1*
G01X18500Y26200D01*
G04 end of side 2*
G01X15000Y26200D01*
G04 end of side 3*
G01X15000Y21000D01*
G01X19700Y21000D02*
G01X23200Y21000D01*
G04 end of side 1*
G01X23200Y26200D01*
G04 end of side 2*
G01X19700Y26200D01*
G04 end of side 3*
G01X19700Y21000D01*
G01X24500Y21000D02*
G01X28000Y21000D01*
G04 end of side 1*
G01X28000Y26200D01*
G04 end of side 2*
G01X24500Y26200D01*
G04 end of side 3*
G01X24500Y21000D01*
G01X29500Y21000D02*
G01X33000Y21000D01*
G04 end of side 1*
G01X33000Y26200D01*
G04 end of side 2*
G01X29500Y26200D01*
G04 end of side 3*
G01X29500Y21000D01*
G01X34500Y21000D02*
G01X38000Y21000D01*
G04 end of side 1*
G01X38000Y26200D01*
G04 end of side 2*
G01X34500Y26200D01*
G04 end of side 3*
G01X34500Y21000D01*
G01X39200Y21000D02*
G01X42700Y21000D01*
G04 end of side 1*
G01X42700Y26200D01*
G04 end of side 2*
G01X39200Y26200D01*
G04 end of side 3*
G01X39200Y21000D01*
G01X44000Y21000D02*
G01X47500Y21000D01*
G04 end of side 1*
G01X47500Y26200D01*
G04 end of side 2*
G01X44000Y26200D01*
G04 end of side 3*
G01X44000Y21000D01*
G01X28600Y42000D02*
G01X33600Y42000D01*
G04 end of side 1*
G01X33600Y49500D01*
G04 end of side 2*
G01X28600Y49500D01*
G04 end of side 3*
G01X28600Y42000D01*
G01X34900Y42000D02*
G01X39900Y42000D01*
G04 end of side 1*
G01X39900Y49500D01*
G04 end of side 2*
G01X34900Y49500D01*
G04 end of side 3*
G01X34900Y42000D01*
G01X41000Y42000D02*
G01X46000Y42000D01*
G04 end of side 1*
G01X46000Y49500D01*
G04 end of side 2*
G01X41000Y49500D01*
G04 end of side 3*
G01X41000Y42000D01*
G01X10000Y27400D02*
G01X13500Y27400D01*
G04 end of side 1*
G01X13500Y32600D01*
G04 end of side 2*
G01X10000Y32600D01*
G04 end of side 3*
G01X10000Y27400D01*
G01X14800Y27300D02*
G01X18300Y27300D01*
G04 end of side 1*
G01X18300Y32500D01*
G04 end of side 2*
G01X14800Y32500D01*
G04 end of side 3*
G01X14800Y27300D01*
G01X19700Y27300D02*
G01X23200Y27300D01*
G04 end of side 1*
G01X23200Y32500D01*
G04 end of side 2*
G01X19700Y32500D01*
G04 end of side 3*
G01X19700Y27300D01*
G01X24500Y37800D02*
G01X24500Y41000D01*
G04 end of side 1*
G01X27600Y41000D01*
G04 end of side 2*
G01X27600Y37800D01*
G04 end of side 3*
G01X24500Y37800D01*
G01X28600Y37800D02*
G01X28600Y41000D01*
G04 end of side 1*
G01X31700Y41000D01*
G04 end of side 2*
G01X31700Y37800D01*
G04 end of side 3*
G01X28600Y37800D01*
G01X32800Y37800D02*
G01X32800Y41000D01*
G04 end of side 1*
G01X35900Y41000D01*
G04 end of side 2*
G01X35900Y37800D01*
G04 end of side 3*
G01X32800Y37800D01*
G01X36900Y37800D02*
G01X36900Y41000D01*
G04 end of side 1*
G01X40000Y41000D01*
G04 end of side 2*
G01X40000Y37800D01*
G04 end of side 3*
G01X36900Y37800D01*
G01X41100Y37800D02*
G01X41100Y41000D01*
G04 end of side 1*
G01X44200Y41000D01*
G04 end of side 2*
G01X44200Y37800D01*
G04 end of side 3*
G01X41100Y37800D01*
G01X45200Y37800D02*
G01X45200Y41000D01*
G04 end of side 1*
G01X48300Y41000D01*
G04 end of side 2*
G01X48300Y37800D01*
G04 end of side 3*
G01X45200Y37800D01*
G01X5300Y36700D02*
G01X5300Y38000D01*
G04 end of side 1*
G01X9000Y38000D01*
G04 end of side 2*
G01X9000Y36700D01*
G04 end of side 3*
G01X5300Y36700D01*
G01X5300Y34100D02*
G01X5300Y35400D01*
G04 end of side 1*
G01X9000Y35400D01*
G04 end of side 2*
G01X9000Y34100D01*
G04 end of side 3*
G01X5300Y34100D01*
G01X10000Y36700D02*
G01X10000Y38000D01*
G04 end of side 1*
G01X13700Y38000D01*
G04 end of side 2*
G01X13700Y36700D01*
G04 end of side 3*
G01X10000Y36700D01*
G01X10000Y34100D02*
G01X10000Y35400D01*
G04 end of side 1*
G01X13700Y35400D01*
G04 end of side 2*
G01X13700Y34100D01*
G04 end of side 3*
G01X10000Y34100D01*
G01X14800Y34100D02*
G01X14800Y35400D01*
G04 end of side 1*
G01X18500Y35400D01*
G04 end of side 2*
G01X18500Y34100D01*
G04 end of side 3*
G01X14800Y34100D01*
G01X19500Y34100D02*
G01X19500Y35400D01*
G04 end of side 1*
G01X23200Y35400D01*
G04 end of side 2*
G01X23200Y34100D01*
G04 end of side 3*
G01X19500Y34100D01*
G01X48700Y8900D02*
G01X50000Y8900D01*
G04 end of side 1*
G01X50000Y5200D01*
G04 end of side 2*
G01X48700Y5200D01*
G04 end of side 3*
G01X48700Y8900D01*
G01X48700Y4000D02*
G01X50000Y4000D01*
G04 end of side 1*
G01X50000Y300D01*
G04 end of side 2*
G01X48700Y300D01*
G04 end of side 3*
G01X48700Y4000D01*
G01X46900Y41900D02*
G01X46900Y45100D01*
G04 end of side 1*
G01X50000Y45100D01*
G04 end of side 2*
G01X50000Y41900D01*
G04 end of side 3*
G01X46900Y41900D01*
G01X46900Y46300D02*
G01X46900Y49500D01*
G04 end of side 1*
G01X50000Y49500D01*
G04 end of side 2*
G01X50000Y46300D01*
G04 end of side 3*
G01X46900Y46300D01*
G01X24500Y34100D02*
G01X24500Y35400D01*
G04 end of side 1*
G01X28200Y35400D01*
G04 end of side 2*
G01X28200Y34100D01*
G04 end of side 3*
G01X24500Y34100D01*
G01X29200Y34100D02*
G01X29200Y35400D01*
G04 end of side 1*
G01X32900Y35400D01*
G04 end of side 2*
G01X32900Y34100D01*
G04 end of side 3*
G01X29200Y34100D01*
G01X33900Y34100D02*
G01X33900Y35400D01*
G04 end of side 1*
G01X37600Y35400D01*
G04 end of side 2*
G01X37600Y34100D01*
G04 end of side 3*
G01X33900Y34100D01*
G01X38700Y34100D02*
G01X38700Y35400D01*
G04 end of side 1*
G01X42400Y35400D01*
G04 end of side 2*
G01X42400Y34100D01*
G04 end of side 3*
G01X38700Y34100D01*
G01X43400Y34100D02*
G01X43400Y35400D01*
G04 end of side 1*
G01X47100Y35400D01*
G04 end of side 2*
G01X47100Y34100D01*
G04 end of side 3*
G01X43400Y34100D01*
G01X48700Y18800D02*
G01X50000Y18800D01*
G04 end of side 1*
G01X50000Y15100D01*
G04 end of side 2*
G01X48700Y15100D01*
G04 end of side 3*
G01X48700Y18800D01*
G01X48700Y13900D02*
G01X50000Y13900D01*
G04 end of side 1*
G01X50000Y10200D01*
G04 end of side 2*
G01X48700Y10200D01*
G04 end of side 3*
G01X48700Y13900D01*
G01X48700Y28800D02*
G01X50000Y28800D01*
G04 end of side 1*
G01X50000Y25100D01*
G04 end of side 2*
G01X48700Y25100D01*
G04 end of side 3*
G01X48700Y28800D01*
G01X48700Y23900D02*
G01X50000Y23900D01*
G04 end of side 1*
G01X50000Y20200D01*
G04 end of side 2*
G01X48700Y20200D01*
G04 end of side 3*
G01X48700Y23900D01*
G01X48700Y33700D02*
G01X50000Y33700D01*
G04 end of side 1*
G01X50000Y30000D01*
G04 end of side 2*
G01X48700Y30000D01*
G04 end of side 3*
G01X48700Y33700D01*
G01X24500Y27300D02*
G01X24500Y32500D01*
G04 end of side 1*
G01X28000Y32500D01*
G04 end of side 2*
G01X28000Y27300D01*
G04 end of side 3*
G01X24500Y27300D01*
G01X29300Y27200D02*
G01X29300Y32400D01*
G04 end of side 1*
G01X32800Y32400D01*
G04 end of side 2*
G01X32800Y27200D01*
G04 end of side 3*
G01X29300Y27200D01*
G01X34300Y27200D02*
G01X34300Y32400D01*
G04 end of side 1*
G01X37800Y32400D01*
G04 end of side 2*
G01X37800Y27200D01*
G04 end of side 3*
G01X34300Y27200D01*
G01X39100Y27100D02*
G01X39100Y32300D01*
G04 end of side 1*
G01X42600Y32300D01*
G04 end of side 2*
G01X42600Y27100D01*
G04 end of side 3*
G01X39100Y27100D01*
G01X43900Y27100D02*
G01X43900Y32300D01*
G04 end of side 1*
G01X47400Y32300D01*
G04 end of side 2*
G01X47400Y27100D01*
G04 end of side 3*
G01X43900Y27100D01*

G04 -------------- Draw Parts, Pads, Traces, Vias and Text (positive)*
%LPD*%
G04 Draw part A_p2*
G54D11*
G01X1000Y37100D03*
G04 Draw part A_p3*
G01X1000Y37600D03*
G04 Draw part A_p4*
G01X3900Y37100D03*
G04 Draw part A_p5*
G01X3900Y37600D03*
G04 Draw part A_p6*
G54D12*
G01X1400Y37350D03*
G01X3400Y37350D03*
G04 Draw part B_U3*
G54D13*
G01X1830Y1000D03*
G01X1830Y803D03*
G01X1830Y606D03*
G01X2282Y606D03*
G01X2282Y803D03*
G01X2282Y1000D03*
G04 Draw part B_C14*
G54D14*
G01X2800Y800D03*
G01X2800Y1095D03*
G04 Draw part B_C15*
G01X1300Y1100D03*
G01X1300Y804D03*
G04 Draw part B_H2*
G04 Draw part B_U1*
G04 Draw part B_C16*
G04 Draw part B_R1*
G04 Draw part B_D1*
G54D15*
G01X2600Y1900D03*
G01X3033Y1900D03*
G04 Draw part B_R2*
G54D16*
G01X3600Y1900D03*
G01X3393Y1900D03*
G04 Draw part B_U2*
G54D17*
G01X1000Y4200D03*
G01X1000Y3700D03*
G01X1000Y3200D03*
G01X1000Y2700D03*
G01X3165Y2700D03*
G01X3165Y3200D03*
G01X3165Y3700D03*
G01X3165Y4200D03*
G54D18*
G01X2082Y3450D03*
G04 Draw part B_H1*
G54D19*
G01X1695Y5300D03*
G01X1852Y5300D03*
G01X2009Y5300D03*
G01X2167Y5300D03*
G01X2324Y5300D03*
G01X2482Y5300D03*
G01X2482Y6520D03*
G01X2324Y6520D03*
G01X2167Y6520D03*
G01X2009Y6520D03*
G01X1852Y6520D03*
G01X1695Y6520D03*
G54D20*
G01X1320Y5319D03*
G01X1320Y6500D03*
G01X2856Y6500D03*
G01X2856Y5319D03*
G04 Draw part B_B1*
G54D11*
G01X3500Y1100D03*
G04 Draw part B_B2*
G01X600Y1100D03*
G04 Draw part B_hole2*
G54D21*
G01X3500Y6500D03*
G04 Draw part B_hole4*
G01X600Y6500D03*
G04 Draw part B_B3*
G54D11*
G01X3500Y600D03*
G04 Draw part B_B4*
G01X600Y600D03*
G04 Draw part B_S2*
G04 Draw part B_C17*
G04 Draw part B_C18*
G54D16*
G01X3600Y2300D03*
G01X3393Y2300D03*
G04 Draw part C_H1*
G54D19*
G01X1705Y11700D03*
G01X1862Y11700D03*
G01X2019Y11700D03*
G01X2177Y11700D03*
G01X2334Y11700D03*
G01X2492Y11700D03*
G01X2492Y12920D03*
G01X2334Y12920D03*
G01X2177Y12920D03*
G01X2019Y12920D03*
G01X1862Y12920D03*
G01X1705Y12920D03*
G54D20*
G01X1330Y11719D03*
G01X1330Y12900D03*
G01X2866Y12900D03*
G01X2866Y11719D03*
G04 Draw part C_H2*
G04 Draw part C_U1*
G54D22*
G01X2590Y10585D03*
G01X2393Y10585D03*
G01X2196Y10585D03*
G01X1999Y10585D03*
G01X1802Y10585D03*
G01X1605Y10585D03*
G54D23*
G01X1320Y10300D03*
G01X1320Y10103D03*
G01X1320Y9906D03*
G01X1320Y9709D03*
G01X1320Y9512D03*
G01X1320Y9315D03*
G54D22*
G01X1605Y9030D03*
G01X1802Y9030D03*
G01X1999Y9030D03*
G01X2196Y9030D03*
G01X2393Y9030D03*
G01X2590Y9030D03*
G54D23*
G01X2875Y9315D03*
G01X2875Y9512D03*
G01X2875Y9709D03*
G01X2875Y9906D03*
G01X2875Y10103D03*
G01X2875Y10300D03*
G04 Draw part C_J6*
G54D16*
G01X3600Y9900D03*
G01X3393Y9900D03*
G04 Draw part C_C2*
G01X3600Y9500D03*
G01X3393Y9500D03*
G04 Draw part C_J5*
G01X2400Y8400D03*
G01X2400Y8606D03*
G04 Draw part C_J4*
G01X2000Y8400D03*
G01X2000Y8606D03*
G04 Draw part C_C3*
G01X1600Y8600D03*
G01X1600Y8393D03*
G04 Draw part C_J2*
G01X800Y8800D03*
G01X593Y8800D03*
G04 Draw part C_J1*
G01X800Y9400D03*
G01X593Y9400D03*
G04 Draw part C_C1*
G01X800Y9700D03*
G01X593Y9700D03*
G04 Draw part C_J3*
G01X800Y10900D03*
G01X1006Y10900D03*
G01X593Y10900D03*
G04 Draw part C_J8*
G01X1000Y11300D03*
G01X1206Y11300D03*
G01X793Y11300D03*
G04 Draw part C_C4*
G01X790Y11850D03*
G01X790Y12056D03*
G04 Draw part C_J10*
G01X3400Y11300D03*
G01X3606Y11300D03*
G01X3193Y11300D03*
G04 Draw part C_J9*
G01X3100Y10900D03*
G01X3306Y10900D03*
G01X2893Y10900D03*
G04 Draw part C_J7*
G01X2600Y11000D03*
G01X2600Y11206D03*
G04 Draw part C_J11*
G01X2100Y11000D03*
G01X2100Y11206D03*
G04 Draw part C_R1*
G04 Draw part C_R2*
G04 Draw part D_U1*
G54D24*
G01X2000Y14950D03*
G01X2196Y14950D03*
G01X2393Y14950D03*
G01X2000Y15146D03*
G01X2393Y15146D03*
G01X2000Y15343D03*
G01X2196Y15343D03*
G01X2393Y15343D03*
G01X2000Y15540D03*
G01X2196Y15540D03*
G01X2393Y15540D03*
G04 Draw part D_H1*
G54D19*
G01X1805Y18150D03*
G01X1962Y18150D03*
G01X2119Y18150D03*
G01X2277Y18150D03*
G01X2434Y18150D03*
G01X2592Y18150D03*
G01X2592Y19370D03*
G01X2434Y19370D03*
G01X2277Y19370D03*
G01X2119Y19370D03*
G01X1962Y19370D03*
G01X1805Y19370D03*
G54D20*
G01X1430Y18169D03*
G01X1430Y19350D03*
G01X2966Y19350D03*
G01X2966Y18169D03*
G04 Draw part D_H2*
G04 Draw part D_U2*
G54D25*
G01X2400Y16880D03*
G01X2203Y16880D03*
G01X2006Y16880D03*
G01X2400Y16683D03*
G01X2006Y16683D03*
G01X2400Y16486D03*
G01X2203Y16486D03*
G01X2006Y16486D03*
G04 Draw part D_U3*
G01X1500Y16890D03*
G01X1303Y16890D03*
G01X1106Y16890D03*
G01X1500Y16693D03*
G01X1106Y16693D03*
G01X1500Y16496D03*
G01X1303Y16496D03*
G01X1106Y16496D03*
G04 Draw part D_C1*
G54D16*
G01X2200Y17550D03*
G01X2406Y17550D03*
G04 Draw part D_R1*
G01X3100Y16550D03*
G01X3306Y16550D03*
G04 Draw part D_R2*
G01X2200Y17250D03*
G01X2406Y17250D03*
G04 Draw part D_R3*
G01X2700Y17550D03*
G01X2700Y17343D03*
G04 Draw part D_R4*
G01X3100Y17050D03*
G01X3306Y17050D03*
G04 Draw part D_R5*
G01X3300Y16050D03*
G01X3093Y16050D03*
G04 Draw part D_C2*
G01X1200Y15950D03*
G01X1406Y15950D03*
G04 Draw part D_C3*
G01X1200Y17550D03*
G01X1406Y17550D03*
G04 Draw part D_P1*
G54D26*
G01X3650Y16550D03*
G04 Draw part D_P2*
G01X3650Y17050D03*
G04 Draw part D_P3*
G01X3650Y16050D03*
G04 Draw part D_R6*
G54D16*
G01X700Y15950D03*
G01X906Y15950D03*
G04 Draw part D_R7*
G01X900Y17550D03*
G01X693Y17550D03*
G04 Draw part D_R8*
G01X1200Y17250D03*
G01X1406Y17250D03*
G04 Draw part D_R9*
G01X3550Y18050D03*
G01X3550Y17843D03*
G04 Draw part D_R10*
G01X3400Y18550D03*
G01X3400Y18343D03*
G04 Draw part D_C4*
G01X3700Y18350D03*
G01X3700Y18556D03*
G04 Draw part D_R11*
G01X2800Y15150D03*
G01X2800Y15356D03*
G04 Draw part E_P1*
G04 Draw part E_P3*
G54D26*
G01X16300Y38200D03*
G04 Draw part E_P4*
G01X16800Y40600D03*
G04 Draw part E_P5*
G01X16300Y40600D03*
G04 Draw part E_P6*
G01X17300Y40600D03*
G04 Draw part E_P7*
G01X18300Y40600D03*
G04 Draw part E_P8*
G01X18800Y40600D03*
G04 Draw part E_P9*
G01X16800Y38200D03*
G04 Draw part E_P10*
G01X17800Y40600D03*
G04 Draw part E_P11*
G01X18800Y38200D03*
G04 Draw part E_P12*
G01X18300Y38200D03*
G04 Draw part E_P13*
G01X17300Y38200D03*
G04 Draw part E_P14*
G01X17800Y38200D03*
G04 Draw part F_H2*
G04 Draw part F_U1*
G54D22*
G01X3050Y29385D03*
G01X2853Y29385D03*
G01X2656Y29385D03*
G01X2459Y29385D03*
G01X2262Y29385D03*
G01X2065Y29385D03*
G54D23*
G01X1780Y29100D03*
G01X1780Y28903D03*
G01X1780Y28706D03*
G01X1780Y28509D03*
G01X1780Y28312D03*
G01X1780Y28115D03*
G54D22*
G01X2065Y27830D03*
G01X2262Y27830D03*
G01X2459Y27830D03*
G01X2656Y27830D03*
G01X2853Y27830D03*
G01X3050Y27830D03*
G54D23*
G01X3335Y28115D03*
G01X3335Y28312D03*
G01X3335Y28509D03*
G01X3335Y28706D03*
G01X3335Y28903D03*
G01X3335Y29100D03*
G04 Draw part F_U2*
G54D27*
G01X1700Y31900D03*
G01X1700Y31400D03*
G01X1700Y30900D03*
G01X3325Y30900D03*
G01X3325Y31400D03*
G01X3325Y31900D03*
G54D28*
G01X2512Y32049D03*
G54D29*
G01X2512Y30587D03*
G04 Draw part F_R1*
G04 Draw part F_R2*
G04 Draw part F_C4*
G04 Draw part F_C3*
G04 Draw part F_C1*
G04 Draw part F_C2*
G04 Draw part F_C5*
G04 Draw part F_C6*
G04 Draw part F_J1*
G54D16*
G01X1300Y28200D03*
G01X1093Y28200D03*
G04 Draw part F_J2*
G01X1300Y28000D03*
G01X1093Y28000D03*
G04 Draw part F_J4*
G01X1100Y31200D03*
G01X1100Y31406D03*
G04 Draw part F_J5*
G01X1100Y32280D03*
G01X1100Y32486D03*
G04 Draw part F_J6*
G01X1300Y28700D03*
G01X1300Y28906D03*
G01X1300Y28493D03*
G04 Draw part F_J3*
G01X3770Y28400D03*
G01X3770Y28606D03*
G04 Draw part F_T1*
G54D30*
G01X760Y31760D03*
G01X760Y32389D03*
G04 Draw part F_R3*
G04 Draw part F_U3*
G54D31*
G01X1300Y30300D03*
G01X1044Y30300D03*
G01X788Y30300D03*
G01X788Y29571D03*
G01X1044Y29571D03*
G01X1300Y29571D03*
G54D32*
G01X1044Y29935D03*
G04 Draw part F_J7*
G54D16*
G01X800Y30900D03*
G01X800Y31106D03*
G01X800Y30693D03*
G04 Draw part F_J8*
G01X780Y29200D03*
G01X780Y28993D03*
G04 Draw part F_R4*
G04 Draw part F_C7*
G04 Draw part F_P9*
G04 Draw part F_hole4*
G01X1100Y28900D03*
G01X1100Y28693D03*
G04 Draw part G_U2*
G54D17*
G01X25300Y16350D03*
G01X25300Y15850D03*
G01X25300Y15350D03*
G01X25300Y14850D03*
G01X27465Y14850D03*
G01X27465Y15350D03*
G01X27465Y15850D03*
G01X27465Y16350D03*
G54D18*
G01X26382Y15600D03*
G04 Draw part G_H1*
G54D19*
G01X25900Y18150D03*
G01X26057Y18150D03*
G01X26214Y18150D03*
G01X26372Y18150D03*
G01X26529Y18150D03*
G01X26687Y18150D03*
G01X26687Y19370D03*
G01X26529Y19370D03*
G01X26372Y19370D03*
G01X26214Y19370D03*
G01X26057Y19370D03*
G01X25900Y19370D03*
G54D20*
G01X25525Y18169D03*
G01X25525Y19350D03*
G01X27061Y19350D03*
G01X27061Y18169D03*
G04 Draw part G_H2*
G04 Draw part G_P2*
G54D11*
G01X27350Y17050D03*
G04 Draw part G_P4*
G01X26100Y17550D03*
G04 Draw part G_P6*
G01X27100Y17550D03*
G04 Draw part G_P1*
G01X27600Y17550D03*
G04 Draw part G_P3*
G01X25600Y17550D03*
G04 Draw part G_P5*
G01X26600Y17550D03*
G04 Draw part G_P8*
G01X25850Y17050D03*
G04 Draw part G_P7*
G01X26350Y17050D03*
G04 Draw part G_P9*
G01X26850Y17050D03*
G04 Draw part G_C1*
G54D16*
G01X25000Y18550D03*
G01X25000Y18343D03*
G04 Draw part G_P10*
G54D11*
G01X25350Y17050D03*
G04 Draw part G_P11*
G01X25100Y17550D03*
G04 Draw part H_H1*
G04 Draw part H_U1*
G54D33*
G01X3174Y22862D03*
G01X3174Y23059D03*
G01X3174Y23256D03*
G01X3174Y23453D03*
G01X3174Y23650D03*
G54D34*
G01X2800Y24024D03*
G01X2603Y24024D03*
G01X2406Y24024D03*
G01X2209Y24024D03*
G01X2012Y24024D03*
G54D33*
G01X1638Y23650D03*
G01X1638Y23453D03*
G01X1638Y23256D03*
G01X1638Y23059D03*
G01X1638Y22862D03*
G54D34*
G01X2012Y22488D03*
G01X2209Y22488D03*
G01X2406Y22488D03*
G01X2603Y22488D03*
G01X2800Y22488D03*
G54D35*
G01X2406Y23256D03*
G04 Draw part H_R2*
G54D16*
G01X1800Y22150D03*
G01X2006Y22150D03*
G04 Draw part H_X1*
G04 Draw part H_C1*
G04 Draw part H_C2*
G04 Draw part H_C7*
G01X2800Y22150D03*
G01X3006Y22150D03*
G04 Draw part H_C8*
G04 Draw part H_C9*
G04 Draw part H_H2*
G54D19*
G01X1805Y24650D03*
G01X1962Y24650D03*
G01X2119Y24650D03*
G01X2277Y24650D03*
G01X2434Y24650D03*
G01X2592Y24650D03*
G01X2592Y25870D03*
G01X2434Y25870D03*
G01X2277Y25870D03*
G01X2119Y25870D03*
G01X1962Y25870D03*
G01X1805Y25870D03*
G54D20*
G01X1430Y24669D03*
G01X1430Y25850D03*
G01X2966Y25850D03*
G01X2966Y24669D03*
G04 Draw part H_A1*
G54D36*
G01X3520Y21600D03*
G01X920Y21600D03*
G04 Draw part H_hole3*
G54D37*
G01X1085Y23465D03*
G54D38*
G01X1100Y23250D03*
G01X1300Y23250D03*
G01X1300Y23450D03*
G04 Draw part H_L1*
G54D16*
G01X1100Y22750D03*
G01X1100Y22956D03*
G04 Draw part H_C4*
G01X900Y23950D03*
G01X900Y23743D03*
G04 Draw part H_C3*
G01X1200Y23950D03*
G01X1200Y23743D03*
G04 Draw part I_U3*
G54D39*
G01X20700Y43200D03*
G01X20503Y43200D03*
G01X20306Y43200D03*
G01X20306Y42747D03*
G01X20503Y42747D03*
G01X20700Y42747D03*
G04 Draw part I_C14*
G54D40*
G01X20300Y42200D03*
G01X20595Y42200D03*
G04 Draw part I_C15*
G01X20500Y43800D03*
G01X20204Y43800D03*
G04 Draw part I_P1*
G54D11*
G01X16650Y42700D03*
G04 Draw part I_P2*
G01X19550Y42700D03*
G04 Draw part I_H2*
G04 Draw part I_U1*
G54D41*
G01X17644Y46177D03*
G01X17644Y45981D03*
G01X17644Y45784D03*
G01X17644Y45587D03*
G01X17644Y45390D03*
G01X17644Y45193D03*
G01X17644Y44996D03*
G01X17644Y44800D03*
G54D42*
G01X17900Y44544D03*
G01X18096Y44544D03*
G01X18293Y44544D03*
G01X18490Y44544D03*
G01X18687Y44544D03*
G01X18884Y44544D03*
G01X19081Y44544D03*
G01X19277Y44544D03*
G54D41*
G01X19533Y44800D03*
G01X19533Y44996D03*
G01X19533Y45193D03*
G01X19533Y45390D03*
G01X19533Y45587D03*
G01X19533Y45784D03*
G01X19533Y45981D03*
G01X19533Y46177D03*
G54D42*
G01X19277Y46433D03*
G01X19081Y46433D03*
G01X18884Y46433D03*
G01X18687Y46433D03*
G01X18490Y46433D03*
G01X18293Y46433D03*
G01X18096Y46433D03*
G01X17900Y46433D03*
G54D43*
G01X18588Y45488D03*
G04 Draw part I_C16*
G54D16*
G01X20000Y45390D03*
G01X20000Y45596D03*
G04 Draw part I_R1*
G01X17400Y46950D03*
G01X17193Y46950D03*
G04 Draw part I_H1*
G54D19*
G01X18200Y47900D03*
G01X18357Y47900D03*
G01X18514Y47900D03*
G01X18672Y47900D03*
G01X18829Y47900D03*
G01X18987Y47900D03*
G01X18987Y49120D03*
G01X18829Y49120D03*
G01X18672Y49120D03*
G01X18514Y49120D03*
G01X18357Y49120D03*
G01X18200Y49120D03*
G54D20*
G01X17825Y47919D03*
G01X17825Y49100D03*
G01X19361Y49100D03*
G01X19361Y47919D03*
G04 Draw part I_D1*
G54D44*
G01X16900Y44500D03*
G01X16900Y44933D03*
G04 Draw part I_R2*
G54D16*
G01X16500Y44800D03*
G01X16500Y45006D03*
G04 Draw part I_S1*
G54D45*
G01X17529Y42700D03*
G54D46*
G01X18670Y42247D03*
G01X18670Y43152D03*
G04 Draw part I_H3*
G04 Draw part I_P3*
G54D11*
G01X16650Y42200D03*
G04 Draw part I_P4*
G01X19550Y42200D03*
G04 Draw part I_C17*
G54D16*
G01X17100Y45800D03*
G01X17100Y45593D03*
G04 Draw part I_hole1*
G54D21*
G01X20700Y49100D03*
G04 Draw part I_hole2*
G01X16300Y49100D03*
G04 Draw part J_J1*
G04 Draw part J_J2*
G04 Draw part J_J3*
G04 Draw part J_C2*
G54D16*
G01X4200Y48700D03*
G01X4406Y48700D03*
G04 Draw part J_R7*
G04 Draw part J_R8*
G04 Draw part J_R9*
G04 Draw part J_R3*
G01X2800Y48900D03*
G01X2593Y48900D03*
G04 Draw part J_R4*
G01X5000Y48900D03*
G01X5206Y48900D03*
G04 Draw part J_R5*
G01X4600Y46400D03*
G01X4393Y46400D03*
G04 Draw part J_R6*
G01X4700Y40300D03*
G01X4493Y40300D03*
G04 Draw part J_P1*
G54D11*
G01X3600Y39700D03*
G04 Draw part J_P2*
G01X4100Y39700D03*
G04 Draw part J_P3*
G01X2500Y46600D03*
G04 Draw part J_P6*
G01X2500Y45100D03*
G04 Draw part J_P8*
G01X2500Y44100D03*
G04 Draw part J_P4*
G01X2500Y46100D03*
G04 Draw part J_P5*
G01X2500Y45600D03*
G04 Draw part J_P7*
G01X2500Y44600D03*
G04 Draw part J_R1*
G54D16*
G01X2900Y48200D03*
G01X2900Y48406D03*
G04 Draw part J_R10*
G04 Draw part J_R11*
G04 Draw part J_R12*
G04 Draw part J_P9*
G54D11*
G01X5200Y46600D03*
G04 Draw part J_P12*
G01X5200Y45100D03*
G04 Draw part J_P14*
G01X5200Y44100D03*
G04 Draw part J_P10*
G01X5200Y46100D03*
G04 Draw part J_P11*
G01X5200Y45600D03*
G04 Draw part J_P13*
G01X5200Y44600D03*
G04 Draw part J_P20*
G01X1100Y46000D03*
G04 Draw part J_P17*
G01X1100Y44950D03*
G04 Draw part J_P15*
G01X1100Y42750D03*
G04 Draw part J_P19*
G01X1100Y47150D03*
G04 Draw part J_P18*
G01X1100Y43800D03*
G04 Draw part J_P16*
G01X1100Y41600D03*
G04 Draw part J_P26*
G01X6500Y41600D03*
G04 Draw part J_P23*
G01X6500Y44950D03*
G04 Draw part J_P21*
G01X6500Y47150D03*
G04 Draw part J_P25*
G01X6500Y42750D03*
G04 Draw part J_P24*
G01X6500Y43800D03*
G04 Draw part J_P22*
G01X6500Y46000D03*
G04 Draw part J_C1*
G54D47*
G01X3900Y41205D03*
G54D48*
G01X3900Y45200D03*
G04 Draw part J_U1*
G54D49*
G01X3300Y48300D03*
G01X3300Y48103D03*
G01X3300Y47906D03*
G01X3300Y47709D03*
G01X3300Y47512D03*
G01X4422Y47512D03*
G01X4422Y47709D03*
G01X4422Y47906D03*
G01X4422Y48103D03*
G01X4422Y48300D03*
G54D50*
G01X3861Y47906D03*
G04 Draw part J_D5*
G54D51*
G01X1100Y42400D03*
G01X1100Y41966D03*
G04 Draw part J_D1*
G01X1800Y48900D03*
G01X2233Y48900D03*
G04 Draw part J_D2*
G01X6000Y48900D03*
G01X5566Y48900D03*
G04 Draw part J_D3*
G01X3600Y46400D03*
G01X4033Y46400D03*
G04 Draw part J_D4*
G01X3600Y40300D03*
G01X4033Y40300D03*
G04 Draw part J_D6*
G01X1100Y44600D03*
G01X1100Y44166D03*
G04 Draw part J_D7*
G01X1100Y46800D03*
G01X1100Y46366D03*
G04 Draw part J_D8*
G01X6500Y46800D03*
G01X6500Y46366D03*
G04 Draw part J_D9*
G01X6500Y44600D03*
G01X6500Y44166D03*
G04 Draw part J_D10*
G01X6500Y42400D03*
G01X6500Y41966D03*
G04 Draw part J_J11*
G54D52*
G01X4800Y48500D03*
G04 Draw part J_J12*
G01X4800Y47900D03*
G04 Draw part J_J13*
G01X2500Y47500D03*
G04 Draw part J_J14*
G01X4800Y47300D03*
G04 Draw part J_J15*
G01X2500Y48300D03*
G04 Draw part J_J16*
G01X2500Y47900D03*
G04 Draw part A_p7*
G54D11*
G01X1000Y34500D03*
G04 Draw part A_p8*
G01X1000Y35000D03*
G04 Draw part A_p9*
G01X3900Y34500D03*
G04 Draw part A_p10*
G01X3900Y35000D03*
G04 Draw part A_p11*
G54D12*
G01X1400Y34750D03*
G01X3400Y34750D03*
G04 Draw part B_U4*
G54D13*
G01X6730Y1000D03*
G01X6730Y803D03*
G01X6730Y606D03*
G01X7182Y606D03*
G01X7182Y803D03*
G01X7182Y1000D03*
G04 Draw part B_C19*
G54D14*
G01X7700Y800D03*
G01X7700Y1095D03*
G04 Draw part B_C20*
G01X6200Y1100D03*
G01X6200Y804D03*
G04 Draw part B_H3*
G04 Draw part B_U5*
G04 Draw part B_C21*
G04 Draw part B_R3*
G04 Draw part B_D2*
G54D15*
G01X7500Y1900D03*
G01X7933Y1900D03*
G04 Draw part B_R4*
G54D16*
G01X8500Y1900D03*
G01X8293Y1900D03*
G04 Draw part B_U6*
G54D17*
G01X5900Y4200D03*
G01X5900Y3700D03*
G01X5900Y3200D03*
G01X5900Y2700D03*
G01X8065Y2700D03*
G01X8065Y3200D03*
G01X8065Y3700D03*
G01X8065Y4200D03*
G54D18*
G01X6982Y3450D03*
G04 Draw part B_H4*
G54D19*
G01X6595Y5300D03*
G01X6752Y5300D03*
G01X6909Y5300D03*
G01X7067Y5300D03*
G01X7224Y5300D03*
G01X7382Y5300D03*
G01X7382Y6520D03*
G01X7224Y6520D03*
G01X7067Y6520D03*
G01X6909Y6520D03*
G01X6752Y6520D03*
G01X6595Y6520D03*
G54D20*
G01X6220Y5319D03*
G01X6220Y6500D03*
G01X7756Y6500D03*
G01X7756Y5319D03*
G04 Draw part B_B5*
G54D11*
G01X8400Y1100D03*
G04 Draw part B_B6*
G01X5500Y1100D03*
G04 Draw part B_hole5*
G54D21*
G01X8400Y6500D03*
G04 Draw part B_hole6*
G01X5500Y6500D03*
G04 Draw part B_B7*
G54D11*
G01X8400Y600D03*
G04 Draw part B_B8*
G01X5500Y600D03*
G04 Draw part B_S3*
G04 Draw part B_C22*
G04 Draw part B_C23*
G54D16*
G01X8500Y2300D03*
G01X8293Y2300D03*
G04 Draw part C_H3*
G54D19*
G01X6505Y11700D03*
G01X6662Y11700D03*
G01X6819Y11700D03*
G01X6977Y11700D03*
G01X7134Y11700D03*
G01X7292Y11700D03*
G01X7292Y12920D03*
G01X7134Y12920D03*
G01X6977Y12920D03*
G01X6819Y12920D03*
G01X6662Y12920D03*
G01X6505Y12920D03*
G54D20*
G01X6130Y11719D03*
G01X6130Y12900D03*
G01X7666Y12900D03*
G01X7666Y11719D03*
G04 Draw part C_H4*
G04 Draw part C_U2*
G54D22*
G01X7390Y10585D03*
G01X7193Y10585D03*
G01X6996Y10585D03*
G01X6799Y10585D03*
G01X6602Y10585D03*
G01X6405Y10585D03*
G54D23*
G01X6120Y10300D03*
G01X6120Y10103D03*
G01X6120Y9906D03*
G01X6120Y9709D03*
G01X6120Y9512D03*
G01X6120Y9315D03*
G54D22*
G01X6405Y9030D03*
G01X6602Y9030D03*
G01X6799Y9030D03*
G01X6996Y9030D03*
G01X7193Y9030D03*
G01X7390Y9030D03*
G54D23*
G01X7675Y9315D03*
G01X7675Y9512D03*
G01X7675Y9709D03*
G01X7675Y9906D03*
G01X7675Y10103D03*
G01X7675Y10300D03*
G04 Draw part C_J12*
G54D16*
G01X8400Y9900D03*
G01X8193Y9900D03*
G04 Draw part C_C5*
G01X8400Y9500D03*
G01X8193Y9500D03*
G04 Draw part C_J13*
G01X7200Y8400D03*
G01X7200Y8606D03*
G04 Draw part C_J14*
G01X6800Y8400D03*
G01X6800Y8606D03*
G04 Draw part C_C6*
G01X6400Y8600D03*
G01X6400Y8393D03*
G04 Draw part C_J15*
G01X5600Y8800D03*
G01X5393Y8800D03*
G04 Draw part C_J16*
G01X5600Y9400D03*
G01X5393Y9400D03*
G04 Draw part C_C7*
G01X5600Y9700D03*
G01X5393Y9700D03*
G04 Draw part C_J17*
G01X5600Y10900D03*
G01X5806Y10900D03*
G01X5393Y10900D03*
G04 Draw part C_J18*
G01X5800Y11300D03*
G01X6006Y11300D03*
G01X5593Y11300D03*
G04 Draw part C_C8*
G01X5590Y11850D03*
G01X5590Y12056D03*
G04 Draw part C_J19*
G01X8200Y11300D03*
G01X8406Y11300D03*
G01X7993Y11300D03*
G04 Draw part C_J20*
G01X7900Y10900D03*
G01X8106Y10900D03*
G01X7693Y10900D03*
G04 Draw part C_J21*
G01X7400Y11000D03*
G01X7400Y11206D03*
G04 Draw part C_J22*
G01X6900Y11000D03*
G01X6900Y11206D03*
G04 Draw part C_R3*
G04 Draw part C_R4*
G04 Draw part D_U4*
G54D24*
G01X6700Y14950D03*
G01X6896Y14950D03*
G01X7093Y14950D03*
G01X6700Y15146D03*
G01X7093Y15146D03*
G01X6700Y15343D03*
G01X6896Y15343D03*
G01X7093Y15343D03*
G01X6700Y15540D03*
G01X6896Y15540D03*
G01X7093Y15540D03*
G04 Draw part D_H3*
G54D19*
G01X6505Y18150D03*
G01X6662Y18150D03*
G01X6819Y18150D03*
G01X6977Y18150D03*
G01X7134Y18150D03*
G01X7292Y18150D03*
G01X7292Y19370D03*
G01X7134Y19370D03*
G01X6977Y19370D03*
G01X6819Y19370D03*
G01X6662Y19370D03*
G01X6505Y19370D03*
G54D20*
G01X6130Y18169D03*
G01X6130Y19350D03*
G01X7666Y19350D03*
G01X7666Y18169D03*
G04 Draw part D_H4*
G04 Draw part D_U5*
G54D25*
G01X7100Y16880D03*
G01X6903Y16880D03*
G01X6706Y16880D03*
G01X7100Y16683D03*
G01X6706Y16683D03*
G01X7100Y16486D03*
G01X6903Y16486D03*
G01X6706Y16486D03*
G04 Draw part D_U6*
G01X6200Y16890D03*
G01X6003Y16890D03*
G01X5806Y16890D03*
G01X6200Y16693D03*
G01X5806Y16693D03*
G01X6200Y16496D03*
G01X6003Y16496D03*
G01X5806Y16496D03*
G04 Draw part D_C5*
G54D16*
G01X6900Y17550D03*
G01X7106Y17550D03*
G04 Draw part D_R12*
G01X7800Y16550D03*
G01X8006Y16550D03*
G04 Draw part D_R13*
G01X6900Y17250D03*
G01X7106Y17250D03*
G04 Draw part D_R14*
G01X7400Y17550D03*
G01X7400Y17343D03*
G04 Draw part D_R15*
G01X7800Y17050D03*
G01X8006Y17050D03*
G04 Draw part D_R16*
G01X8000Y16050D03*
G01X7793Y16050D03*
G04 Draw part D_C6*
G01X5900Y15950D03*
G01X6106Y15950D03*
G04 Draw part D_C7*
G01X5900Y17550D03*
G01X6106Y17550D03*
G04 Draw part D_P4*
G54D26*
G01X8350Y16550D03*
G04 Draw part D_P5*
G01X8350Y17050D03*
G04 Draw part D_P6*
G01X8350Y16050D03*
G04 Draw part D_R17*
G54D16*
G01X5400Y15950D03*
G01X5606Y15950D03*
G04 Draw part D_R18*
G01X5600Y17550D03*
G01X5393Y17550D03*
G04 Draw part D_R19*
G01X5900Y17250D03*
G01X6106Y17250D03*
G04 Draw part D_R20*
G01X8250Y18050D03*
G01X8250Y17843D03*
G04 Draw part D_R21*
G01X8100Y18550D03*
G01X8100Y18343D03*
G04 Draw part D_C8*
G01X8400Y18350D03*
G01X8400Y18556D03*
G04 Draw part D_R22*
G01X7500Y15150D03*
G01X7500Y15356D03*
G04 Draw part E_P15*
G04 Draw part E_P16*
G54D26*
G01X20400Y38200D03*
G04 Draw part E_P17*
G01X20900Y40600D03*
G04 Draw part E_P18*
G01X20400Y40600D03*
G04 Draw part E_P19*
G01X21400Y40600D03*
G04 Draw part E_P20*
G01X22400Y40600D03*
G04 Draw part E_P21*
G01X22900Y40600D03*
G04 Draw part E_P22*
G01X20900Y38200D03*
G04 Draw part E_P23*
G01X21900Y40600D03*
G04 Draw part E_P24*
G01X22900Y38200D03*
G04 Draw part E_P25*
G01X22400Y38200D03*
G04 Draw part E_P26*
G01X21400Y38200D03*
G04 Draw part E_P27*
G01X21900Y38200D03*
G04 Draw part F_H3*
G04 Draw part F_U4*
G54D22*
G01X7850Y29285D03*
G01X7653Y29285D03*
G01X7456Y29285D03*
G01X7259Y29285D03*
G01X7062Y29285D03*
G01X6865Y29285D03*
G54D23*
G01X6580Y29000D03*
G01X6580Y28803D03*
G01X6580Y28606D03*
G01X6580Y28409D03*
G01X6580Y28212D03*
G01X6580Y28015D03*
G54D22*
G01X6865Y27730D03*
G01X7062Y27730D03*
G01X7259Y27730D03*
G01X7456Y27730D03*
G01X7653Y27730D03*
G01X7850Y27730D03*
G54D23*
G01X8135Y28015D03*
G01X8135Y28212D03*
G01X8135Y28409D03*
G01X8135Y28606D03*
G01X8135Y28803D03*
G01X8135Y29000D03*
G04 Draw part F_U5*
G54D27*
G01X6500Y31800D03*
G01X6500Y31300D03*
G01X6500Y30800D03*
G01X8125Y30800D03*
G01X8125Y31300D03*
G01X8125Y31800D03*
G54D28*
G01X7312Y31949D03*
G54D29*
G01X7312Y30487D03*
G04 Draw part F_R5*
G04 Draw part F_R6*
G04 Draw part F_C8*
G04 Draw part F_C9*
G04 Draw part F_C10*
G04 Draw part F_C11*
G04 Draw part F_C12*
G04 Draw part F_C13*
G04 Draw part F_J9*
G54D16*
G01X6100Y28100D03*
G01X5893Y28100D03*
G04 Draw part F_J10*
G01X6100Y27900D03*
G01X5893Y27900D03*
G04 Draw part F_J11*
G01X5900Y31100D03*
G01X5900Y31306D03*
G04 Draw part F_J12*
G01X5900Y32180D03*
G01X5900Y32386D03*
G04 Draw part F_J13*
G01X6100Y28600D03*
G01X6100Y28806D03*
G01X6100Y28393D03*
G04 Draw part F_J14*
G01X8570Y28300D03*
G01X8570Y28506D03*
G04 Draw part F_T2*
G54D30*
G01X5560Y31660D03*
G01X5560Y32289D03*
G04 Draw part F_R7*
G04 Draw part F_U6*
G54D31*
G01X6100Y30200D03*
G01X5844Y30200D03*
G01X5588Y30200D03*
G01X5588Y29471D03*
G01X5844Y29471D03*
G01X6100Y29471D03*
G54D32*
G01X5844Y29835D03*
G04 Draw part F_J15*
G54D16*
G01X5600Y30800D03*
G01X5600Y31006D03*
G01X5600Y30593D03*
G04 Draw part F_J16*
G01X5580Y29100D03*
G01X5580Y28893D03*
G04 Draw part F_R8*
G04 Draw part F_C14*
G04 Draw part F_P10*
G04 Draw part F_hole5*
G01X5900Y28800D03*
G01X5900Y28593D03*
G04 Draw part G_U3*
G54D17*
G01X30200Y16350D03*
G01X30200Y15850D03*
G01X30200Y15350D03*
G01X30200Y14850D03*
G01X32365Y14850D03*
G01X32365Y15350D03*
G01X32365Y15850D03*
G01X32365Y16350D03*
G54D18*
G01X31282Y15600D03*
G04 Draw part G_H3*
G54D19*
G01X30800Y18150D03*
G01X30957Y18150D03*
G01X31114Y18150D03*
G01X31272Y18150D03*
G01X31429Y18150D03*
G01X31587Y18150D03*
G01X31587Y19370D03*
G01X31429Y19370D03*
G01X31272Y19370D03*
G01X31114Y19370D03*
G01X30957Y19370D03*
G01X30800Y19370D03*
G54D20*
G01X30425Y18169D03*
G01X30425Y19350D03*
G01X31961Y19350D03*
G01X31961Y18169D03*
G04 Draw part G_H4*
G04 Draw part G_P12*
G54D11*
G01X32250Y17050D03*
G04 Draw part G_P13*
G01X31000Y17550D03*
G04 Draw part G_P14*
G01X32000Y17550D03*
G04 Draw part G_P15*
G01X32500Y17550D03*
G04 Draw part G_P16*
G01X30500Y17550D03*
G04 Draw part G_P17*
G01X31500Y17550D03*
G04 Draw part G_P18*
G01X30750Y17050D03*
G04 Draw part G_P19*
G01X31250Y17050D03*
G04 Draw part G_P20*
G01X31750Y17050D03*
G04 Draw part G_C2*
G54D16*
G01X29900Y18550D03*
G01X29900Y18343D03*
G04 Draw part G_P21*
G54D11*
G01X30250Y17050D03*
G04 Draw part G_P22*
G01X30000Y17550D03*
G04 Draw part H_H3*
G04 Draw part H_U2*
G54D33*
G01X7874Y22862D03*
G01X7874Y23059D03*
G01X7874Y23256D03*
G01X7874Y23453D03*
G01X7874Y23650D03*
G54D34*
G01X7500Y24024D03*
G01X7303Y24024D03*
G01X7106Y24024D03*
G01X6909Y24024D03*
G01X6712Y24024D03*
G54D33*
G01X6338Y23650D03*
G01X6338Y23453D03*
G01X6338Y23256D03*
G01X6338Y23059D03*
G01X6338Y22862D03*
G54D34*
G01X6712Y22488D03*
G01X6909Y22488D03*
G01X7106Y22488D03*
G01X7303Y22488D03*
G01X7500Y22488D03*
G54D35*
G01X7106Y23256D03*
G04 Draw part H_R3*
G54D16*
G01X6500Y22150D03*
G01X6706Y22150D03*
G04 Draw part H_X2*
G04 Draw part H_C10*
G04 Draw part H_C11*
G04 Draw part H_C12*
G01X7500Y22150D03*
G01X7706Y22150D03*
G04 Draw part H_C13*
G04 Draw part H_C14*
G04 Draw part H_H4*
G54D19*
G01X6505Y24650D03*
G01X6662Y24650D03*
G01X6819Y24650D03*
G01X6977Y24650D03*
G01X7134Y24650D03*
G01X7292Y24650D03*
G01X7292Y25870D03*
G01X7134Y25870D03*
G01X6977Y25870D03*
G01X6819Y25870D03*
G01X6662Y25870D03*
G01X6505Y25870D03*
G54D20*
G01X6130Y24669D03*
G01X6130Y25850D03*
G01X7666Y25850D03*
G01X7666Y24669D03*
G04 Draw part H_A2*
G54D36*
G01X8220Y21600D03*
G01X5620Y21600D03*
G04 Draw part H_hole4*
G54D37*
G01X5785Y23465D03*
G54D38*
G01X5800Y23250D03*
G01X6000Y23250D03*
G01X6000Y23450D03*
G04 Draw part H_L2*
G54D16*
G01X5800Y22750D03*
G01X5800Y22956D03*
G04 Draw part H_C15*
G01X5600Y23950D03*
G01X5600Y23743D03*
G04 Draw part H_C16*
G01X5900Y23950D03*
G01X5900Y23743D03*
G04 Draw part I_U4*
G54D39*
G01X27000Y43200D03*
G01X26803Y43200D03*
G01X26606Y43200D03*
G01X26606Y42747D03*
G01X26803Y42747D03*
G01X27000Y42747D03*
G04 Draw part I_C18*
G54D40*
G01X26600Y42200D03*
G01X26895Y42200D03*
G04 Draw part I_C19*
G01X26800Y43800D03*
G01X26504Y43800D03*
G04 Draw part I_P5*
G54D11*
G01X22950Y42700D03*
G04 Draw part I_P6*
G01X25850Y42700D03*
G04 Draw part I_H4*
G04 Draw part I_U5*
G54D41*
G01X23944Y46177D03*
G01X23944Y45981D03*
G01X23944Y45784D03*
G01X23944Y45587D03*
G01X23944Y45390D03*
G01X23944Y45193D03*
G01X23944Y44996D03*
G01X23944Y44800D03*
G54D42*
G01X24200Y44544D03*
G01X24396Y44544D03*
G01X24593Y44544D03*
G01X24790Y44544D03*
G01X24987Y44544D03*
G01X25184Y44544D03*
G01X25381Y44544D03*
G01X25577Y44544D03*
G54D41*
G01X25833Y44800D03*
G01X25833Y44996D03*
G01X25833Y45193D03*
G01X25833Y45390D03*
G01X25833Y45587D03*
G01X25833Y45784D03*
G01X25833Y45981D03*
G01X25833Y46177D03*
G54D42*
G01X25577Y46433D03*
G01X25381Y46433D03*
G01X25184Y46433D03*
G01X24987Y46433D03*
G01X24790Y46433D03*
G01X24593Y46433D03*
G01X24396Y46433D03*
G01X24200Y46433D03*
G54D43*
G01X24888Y45488D03*
G04 Draw part I_C20*
G54D16*
G01X26300Y45390D03*
G01X26300Y45596D03*
G04 Draw part I_R3*
G01X23700Y46950D03*
G01X23493Y46950D03*
G04 Draw part I_H5*
G54D19*
G01X24500Y47900D03*
G01X24657Y47900D03*
G01X24814Y47900D03*
G01X24972Y47900D03*
G01X25129Y47900D03*
G01X25287Y47900D03*
G01X25287Y49120D03*
G01X25129Y49120D03*
G01X24972Y49120D03*
G01X24814Y49120D03*
G01X24657Y49120D03*
G01X24500Y49120D03*
G54D20*
G01X24125Y47919D03*
G01X24125Y49100D03*
G01X25661Y49100D03*
G01X25661Y47919D03*
G04 Draw part I_D2*
G54D44*
G01X23200Y44500D03*
G01X23200Y44933D03*
G04 Draw part I_R4*
G54D16*
G01X22800Y44800D03*
G01X22800Y45006D03*
G04 Draw part I_S2*
G54D45*
G01X23829Y42700D03*
G54D46*
G01X24970Y42247D03*
G01X24970Y43152D03*
G04 Draw part I_H6*
G04 Draw part I_P7*
G54D11*
G01X22950Y42200D03*
G04 Draw part I_P8*
G01X25850Y42200D03*
G04 Draw part I_C21*
G54D16*
G01X23400Y45800D03*
G01X23400Y45593D03*
G04 Draw part I_hole3*
G54D21*
G01X27000Y49100D03*
G04 Draw part I_hole4*
G01X22600Y49100D03*
G04 Draw part J_J17*
G04 Draw part J_J18*
G04 Draw part J_J19*
G04 Draw part J_C3*
G54D16*
G01X11700Y48700D03*
G01X11906Y48700D03*
G04 Draw part J_R13*
G04 Draw part J_R14*
G04 Draw part J_R15*
G04 Draw part J_R16*
G01X10300Y48900D03*
G01X10093Y48900D03*
G04 Draw part J_R17*
G01X12500Y48900D03*
G01X12706Y48900D03*
G04 Draw part J_R18*
G01X12100Y46400D03*
G01X11893Y46400D03*
G04 Draw part J_R19*
G01X12200Y40300D03*
G01X11993Y40300D03*
G04 Draw part J_P27*
G54D11*
G01X11100Y39700D03*
G04 Draw part J_P28*
G01X11600Y39700D03*
G04 Draw part J_P29*
G01X10000Y46600D03*
G04 Draw part J_P30*
G01X10000Y45100D03*
G04 Draw part J_P31*
G01X10000Y44100D03*
G04 Draw part J_P32*
G01X10000Y46100D03*
G04 Draw part J_P33*
G01X10000Y45600D03*
G04 Draw part J_P34*
G01X10000Y44600D03*
G04 Draw part J_R20*
G54D16*
G01X10400Y48200D03*
G01X10400Y48406D03*
G04 Draw part J_R21*
G04 Draw part J_R22*
G04 Draw part J_R23*
G04 Draw part J_P35*
G54D11*
G01X12700Y46600D03*
G04 Draw part J_P36*
G01X12700Y45100D03*
G04 Draw part J_P37*
G01X12700Y44100D03*
G04 Draw part J_P38*
G01X12700Y46100D03*
G04 Draw part J_P39*
G01X12700Y45600D03*
G04 Draw part J_P40*
G01X12700Y44600D03*
G04 Draw part J_P41*
G01X8600Y46000D03*
G04 Draw part J_P42*
G01X8600Y44950D03*
G04 Draw part J_P43*
G01X8600Y42750D03*
G04 Draw part J_P44*
G01X8600Y47150D03*
G04 Draw part J_P45*
G01X8600Y43800D03*
G04 Draw part J_P46*
G01X8600Y41600D03*
G04 Draw part J_P47*
G01X14000Y41600D03*
G04 Draw part J_P48*
G01X14000Y44950D03*
G04 Draw part J_P49*
G01X14000Y47150D03*
G04 Draw part J_P50*
G01X14000Y42750D03*
G04 Draw part J_P51*
G01X14000Y43800D03*
G04 Draw part J_P52*
G01X14000Y46000D03*
G04 Draw part J_C4*
G54D47*
G01X11400Y41205D03*
G54D48*
G01X11400Y45200D03*
G04 Draw part J_U2*
G54D49*
G01X10800Y48300D03*
G01X10800Y48103D03*
G01X10800Y47906D03*
G01X10800Y47709D03*
G01X10800Y47512D03*
G01X11922Y47512D03*
G01X11922Y47709D03*
G01X11922Y47906D03*
G01X11922Y48103D03*
G01X11922Y48300D03*
G54D50*
G01X11361Y47906D03*
G04 Draw part J_D11*
G54D51*
G01X8600Y42400D03*
G01X8600Y41966D03*
G04 Draw part J_D12*
G01X9300Y48900D03*
G01X9733Y48900D03*
G04 Draw part J_D13*
G01X13500Y48900D03*
G01X13066Y48900D03*
G04 Draw part J_D14*
G01X11100Y46400D03*
G01X11533Y46400D03*
G04 Draw part J_D15*
G01X11100Y40300D03*
G01X11533Y40300D03*
G04 Draw part J_D16*
G01X8600Y44600D03*
G01X8600Y44166D03*
G04 Draw part J_D17*
G01X8600Y46800D03*
G01X8600Y46366D03*
G04 Draw part J_D18*
G01X14000Y46800D03*
G01X14000Y46366D03*
G04 Draw part J_D19*
G01X14000Y44600D03*
G01X14000Y44166D03*
G04 Draw part J_D20*
G01X14000Y42400D03*
G01X14000Y41966D03*
G04 Draw part J_J20*
G54D52*
G01X12300Y48500D03*
G04 Draw part J_J21*
G01X12300Y47900D03*
G04 Draw part J_J22*
G01X10000Y47500D03*
G04 Draw part J_J23*
G01X12300Y47300D03*
G04 Draw part J_J24*
G01X10000Y48300D03*
G04 Draw part J_J25*
G01X10000Y47900D03*
G04 Draw part B_U7*
G54D13*
G01X11630Y1000D03*
G01X11630Y803D03*
G01X11630Y606D03*
G01X12082Y606D03*
G01X12082Y803D03*
G01X12082Y1000D03*
G04 Draw part B_C24*
G54D14*
G01X12600Y800D03*
G01X12600Y1095D03*
G04 Draw part B_C25*
G01X11100Y1100D03*
G01X11100Y804D03*
G04 Draw part B_H5*
G04 Draw part B_U8*
G04 Draw part B_C26*
G04 Draw part B_R5*
G04 Draw part B_D3*
G54D15*
G01X12400Y1900D03*
G01X12833Y1900D03*
G04 Draw part B_R6*
G54D16*
G01X13400Y1900D03*
G01X13193Y1900D03*
G04 Draw part B_U9*
G54D17*
G01X10800Y4200D03*
G01X10800Y3700D03*
G01X10800Y3200D03*
G01X10800Y2700D03*
G01X12965Y2700D03*
G01X12965Y3200D03*
G01X12965Y3700D03*
G01X12965Y4200D03*
G54D18*
G01X11882Y3450D03*
G04 Draw part B_H6*
G54D19*
G01X11495Y5300D03*
G01X11652Y5300D03*
G01X11809Y5300D03*
G01X11967Y5300D03*
G01X12124Y5300D03*
G01X12282Y5300D03*
G01X12282Y6520D03*
G01X12124Y6520D03*
G01X11967Y6520D03*
G01X11809Y6520D03*
G01X11652Y6520D03*
G01X11495Y6520D03*
G54D20*
G01X11120Y5319D03*
G01X11120Y6500D03*
G01X12656Y6500D03*
G01X12656Y5319D03*
G04 Draw part B_B9*
G54D11*
G01X13300Y1100D03*
G04 Draw part B_B10*
G01X10400Y1100D03*
G04 Draw part B_hole7*
G54D21*
G01X13300Y6500D03*
G04 Draw part B_hole8*
G01X10400Y6500D03*
G04 Draw part B_B11*
G54D11*
G01X13300Y600D03*
G04 Draw part B_B12*
G01X10400Y600D03*
G04 Draw part B_S4*
G04 Draw part B_C27*
G04 Draw part B_C28*
G54D16*
G01X13400Y2300D03*
G01X13193Y2300D03*
G04 Draw part B_U10*
G54D13*
G01X16530Y1000D03*
G01X16530Y803D03*
G01X16530Y606D03*
G01X16982Y606D03*
G01X16982Y803D03*
G01X16982Y1000D03*
G04 Draw part B_C29*
G54D14*
G01X17500Y800D03*
G01X17500Y1095D03*
G04 Draw part B_C30*
G01X16000Y1100D03*
G01X16000Y804D03*
G04 Draw part B_H7*
G04 Draw part B_U11*
G04 Draw part B_C31*
G04 Draw part B_R7*
G04 Draw part B_D4*
G54D15*
G01X17300Y1900D03*
G01X17733Y1900D03*
G04 Draw part B_R8*
G54D16*
G01X18300Y1900D03*
G01X18093Y1900D03*
G04 Draw part B_U12*
G54D17*
G01X15700Y4200D03*
G01X15700Y3700D03*
G01X15700Y3200D03*
G01X15700Y2700D03*
G01X17865Y2700D03*
G01X17865Y3200D03*
G01X17865Y3700D03*
G01X17865Y4200D03*
G54D18*
G01X16782Y3450D03*
G04 Draw part B_H8*
G54D19*
G01X16395Y5300D03*
G01X16552Y5300D03*
G01X16709Y5300D03*
G01X16867Y5300D03*
G01X17024Y5300D03*
G01X17182Y5300D03*
G01X17182Y6520D03*
G01X17024Y6520D03*
G01X16867Y6520D03*
G01X16709Y6520D03*
G01X16552Y6520D03*
G01X16395Y6520D03*
G54D20*
G01X16020Y5319D03*
G01X16020Y6500D03*
G01X17556Y6500D03*
G01X17556Y5319D03*
G04 Draw part B_B13*
G54D11*
G01X18200Y1100D03*
G04 Draw part B_B14*
G01X15300Y1100D03*
G04 Draw part B_hole9*
G54D21*
G01X18200Y6500D03*
G04 Draw part B_hole10*
G01X15300Y6500D03*
G04 Draw part B_B15*
G54D11*
G01X18200Y600D03*
G04 Draw part B_B16*
G01X15300Y600D03*
G04 Draw part B_S5*
G04 Draw part B_C32*
G04 Draw part B_C33*
G54D16*
G01X18300Y2300D03*
G01X18093Y2300D03*
G04 Draw part B_U13*
G54D13*
G01X21430Y1000D03*
G01X21430Y803D03*
G01X21430Y606D03*
G01X21882Y606D03*
G01X21882Y803D03*
G01X21882Y1000D03*
G04 Draw part B_C34*
G54D14*
G01X22400Y800D03*
G01X22400Y1095D03*
G04 Draw part B_C35*
G01X20900Y1100D03*
G01X20900Y804D03*
G04 Draw part B_H9*
G04 Draw part B_U14*
G04 Draw part B_C36*
G04 Draw part B_R9*
G04 Draw part B_D5*
G54D15*
G01X22200Y1900D03*
G01X22633Y1900D03*
G04 Draw part B_R10*
G54D16*
G01X23200Y1900D03*
G01X22993Y1900D03*
G04 Draw part B_U15*
G54D17*
G01X20600Y4200D03*
G01X20600Y3700D03*
G01X20600Y3200D03*
G01X20600Y2700D03*
G01X22765Y2700D03*
G01X22765Y3200D03*
G01X22765Y3700D03*
G01X22765Y4200D03*
G54D18*
G01X21682Y3450D03*
G04 Draw part B_H10*
G54D19*
G01X21295Y5300D03*
G01X21452Y5300D03*
G01X21609Y5300D03*
G01X21767Y5300D03*
G01X21924Y5300D03*
G01X22082Y5300D03*
G01X22082Y6520D03*
G01X21924Y6520D03*
G01X21767Y6520D03*
G01X21609Y6520D03*
G01X21452Y6520D03*
G01X21295Y6520D03*
G54D20*
G01X20920Y5319D03*
G01X20920Y6500D03*
G01X22456Y6500D03*
G01X22456Y5319D03*
G04 Draw part B_B17*
G54D11*
G01X23100Y1100D03*
G04 Draw part B_B18*
G01X20200Y1100D03*
G04 Draw part B_hole11*
G54D21*
G01X23100Y6500D03*
G04 Draw part B_hole12*
G01X20200Y6500D03*
G04 Draw part B_B19*
G54D11*
G01X23100Y600D03*
G04 Draw part B_B20*
G01X20200Y600D03*
G04 Draw part B_S6*
G04 Draw part B_C37*
G04 Draw part B_C38*
G54D16*
G01X23200Y2300D03*
G01X22993Y2300D03*
G04 Draw part B_U16*
G54D13*
G01X26130Y1000D03*
G01X26130Y803D03*
G01X26130Y606D03*
G01X26582Y606D03*
G01X26582Y803D03*
G01X26582Y1000D03*
G04 Draw part B_C39*
G54D14*
G01X27100Y800D03*
G01X27100Y1095D03*
G04 Draw part B_C40*
G01X25600Y1100D03*
G01X25600Y804D03*
G04 Draw part B_H11*
G04 Draw part B_U17*
G04 Draw part B_C41*
G04 Draw part B_R11*
G04 Draw part B_D6*
G54D15*
G01X26900Y1900D03*
G01X27333Y1900D03*
G04 Draw part B_R12*
G54D16*
G01X27900Y1900D03*
G01X27693Y1900D03*
G04 Draw part B_U18*
G54D17*
G01X25300Y4200D03*
G01X25300Y3700D03*
G01X25300Y3200D03*
G01X25300Y2700D03*
G01X27465Y2700D03*
G01X27465Y3200D03*
G01X27465Y3700D03*
G01X27465Y4200D03*
G54D18*
G01X26382Y3450D03*
G04 Draw part B_H12*
G54D19*
G01X25995Y5300D03*
G01X26152Y5300D03*
G01X26309Y5300D03*
G01X26467Y5300D03*
G01X26624Y5300D03*
G01X26782Y5300D03*
G01X26782Y6520D03*
G01X26624Y6520D03*
G01X26467Y6520D03*
G01X26309Y6520D03*
G01X26152Y6520D03*
G01X25995Y6520D03*
G54D20*
G01X25620Y5319D03*
G01X25620Y6500D03*
G01X27156Y6500D03*
G01X27156Y5319D03*
G04 Draw part B_B21*
G54D11*
G01X27800Y1100D03*
G04 Draw part B_B22*
G01X24900Y1100D03*
G04 Draw part B_hole13*
G54D21*
G01X27800Y6500D03*
G04 Draw part B_hole14*
G01X24900Y6500D03*
G04 Draw part B_B23*
G54D11*
G01X27800Y600D03*
G04 Draw part B_B24*
G01X24900Y600D03*
G04 Draw part B_S7*
G04 Draw part B_C42*
G04 Draw part B_C43*
G54D16*
G01X27900Y2300D03*
G01X27693Y2300D03*
G04 Draw part B_U19*
G54D13*
G01X31030Y1000D03*
G01X31030Y803D03*
G01X31030Y606D03*
G01X31482Y606D03*
G01X31482Y803D03*
G01X31482Y1000D03*
G04 Draw part B_C44*
G54D14*
G01X32000Y800D03*
G01X32000Y1095D03*
G04 Draw part B_C45*
G01X30500Y1100D03*
G01X30500Y804D03*
G04 Draw part B_H13*
G04 Draw part B_U20*
G04 Draw part B_C46*
G04 Draw part B_R13*
G04 Draw part B_D7*
G54D15*
G01X31800Y1900D03*
G01X32233Y1900D03*
G04 Draw part B_R14*
G54D16*
G01X32800Y1900D03*
G01X32593Y1900D03*
G04 Draw part B_U21*
G54D17*
G01X30200Y4200D03*
G01X30200Y3700D03*
G01X30200Y3200D03*
G01X30200Y2700D03*
G01X32365Y2700D03*
G01X32365Y3200D03*
G01X32365Y3700D03*
G01X32365Y4200D03*
G54D18*
G01X31282Y3450D03*
G04 Draw part B_H14*
G54D19*
G01X30895Y5300D03*
G01X31052Y5300D03*
G01X31209Y5300D03*
G01X31367Y5300D03*
G01X31524Y5300D03*
G01X31682Y5300D03*
G01X31682Y6520D03*
G01X31524Y6520D03*
G01X31367Y6520D03*
G01X31209Y6520D03*
G01X31052Y6520D03*
G01X30895Y6520D03*
G54D20*
G01X30520Y5319D03*
G01X30520Y6500D03*
G01X32056Y6500D03*
G01X32056Y5319D03*
G04 Draw part B_B25*
G54D11*
G01X32700Y1100D03*
G04 Draw part B_B26*
G01X29800Y1100D03*
G04 Draw part B_hole15*
G54D21*
G01X32700Y6500D03*
G04 Draw part B_hole16*
G01X29800Y6500D03*
G04 Draw part B_B27*
G54D11*
G01X32700Y600D03*
G04 Draw part B_B28*
G01X29800Y600D03*
G04 Draw part B_S8*
G04 Draw part B_C47*
G04 Draw part B_C48*
G54D16*
G01X32800Y2300D03*
G01X32593Y2300D03*
G04 Draw part B_U22*
G54D13*
G01X35930Y1000D03*
G01X35930Y803D03*
G01X35930Y606D03*
G01X36382Y606D03*
G01X36382Y803D03*
G01X36382Y1000D03*
G04 Draw part B_C49*
G54D14*
G01X36900Y800D03*
G01X36900Y1095D03*
G04 Draw part B_C50*
G01X35400Y1100D03*
G01X35400Y804D03*
G04 Draw part B_H15*
G04 Draw part B_U23*
G04 Draw part B_C51*
G04 Draw part B_R15*
G04 Draw part B_D8*
G54D15*
G01X36700Y1900D03*
G01X37133Y1900D03*
G04 Draw part B_R16*
G54D16*
G01X37700Y1900D03*
G01X37493Y1900D03*
G04 Draw part B_U24*
G54D17*
G01X35100Y4200D03*
G01X35100Y3700D03*
G01X35100Y3200D03*
G01X35100Y2700D03*
G01X37265Y2700D03*
G01X37265Y3200D03*
G01X37265Y3700D03*
G01X37265Y4200D03*
G54D18*
G01X36182Y3450D03*
G04 Draw part B_H16*
G54D19*
G01X35795Y5300D03*
G01X35952Y5300D03*
G01X36109Y5300D03*
G01X36267Y5300D03*
G01X36424Y5300D03*
G01X36582Y5300D03*
G01X36582Y6520D03*
G01X36424Y6520D03*
G01X36267Y6520D03*
G01X36109Y6520D03*
G01X35952Y6520D03*
G01X35795Y6520D03*
G54D20*
G01X35420Y5319D03*
G01X35420Y6500D03*
G01X36956Y6500D03*
G01X36956Y5319D03*
G04 Draw part B_B29*
G54D11*
G01X37600Y1100D03*
G04 Draw part B_B30*
G01X34700Y1100D03*
G04 Draw part B_hole17*
G54D21*
G01X37600Y6500D03*
G04 Draw part B_hole18*
G01X34700Y6500D03*
G04 Draw part B_B31*
G54D11*
G01X37600Y600D03*
G04 Draw part B_B32*
G01X34700Y600D03*
G04 Draw part B_S9*
G04 Draw part B_C52*
G04 Draw part B_C53*
G54D16*
G01X37700Y2300D03*
G01X37493Y2300D03*
G04 Draw part B_U25*
G54D13*
G01X40830Y1000D03*
G01X40830Y803D03*
G01X40830Y606D03*
G01X41282Y606D03*
G01X41282Y803D03*
G01X41282Y1000D03*
G04 Draw part B_C54*
G54D14*
G01X41800Y800D03*
G01X41800Y1095D03*
G04 Draw part B_C55*
G01X40300Y1100D03*
G01X40300Y804D03*
G04 Draw part B_H17*
G04 Draw part B_U26*
G04 Draw part B_C56*
G04 Draw part B_R17*
G04 Draw part B_D9*
G54D15*
G01X41600Y1900D03*
G01X42033Y1900D03*
G04 Draw part B_R18*
G54D16*
G01X42600Y1900D03*
G01X42393Y1900D03*
G04 Draw part B_U27*
G54D17*
G01X40000Y4200D03*
G01X40000Y3700D03*
G01X40000Y3200D03*
G01X40000Y2700D03*
G01X42165Y2700D03*
G01X42165Y3200D03*
G01X42165Y3700D03*
G01X42165Y4200D03*
G54D18*
G01X41082Y3450D03*
G04 Draw part B_H18*
G54D19*
G01X40695Y5300D03*
G01X40852Y5300D03*
G01X41009Y5300D03*
G01X41167Y5300D03*
G01X41324Y5300D03*
G01X41482Y5300D03*
G01X41482Y6520D03*
G01X41324Y6520D03*
G01X41167Y6520D03*
G01X41009Y6520D03*
G01X40852Y6520D03*
G01X40695Y6520D03*
G54D20*
G01X40320Y5319D03*
G01X40320Y6500D03*
G01X41856Y6500D03*
G01X41856Y5319D03*
G04 Draw part B_B33*
G54D11*
G01X42500Y1100D03*
G04 Draw part B_B34*
G01X39600Y1100D03*
G04 Draw part B_hole19*
G54D21*
G01X42500Y6500D03*
G04 Draw part B_hole20*
G01X39600Y6500D03*
G04 Draw part B_B35*
G54D11*
G01X42500Y600D03*
G04 Draw part B_B36*
G01X39600Y600D03*
G04 Draw part B_S10*
G04 Draw part B_C57*
G04 Draw part B_C58*
G54D16*
G01X42600Y2300D03*
G01X42393Y2300D03*
G04 Draw part B_U28*
G54D13*
G01X45630Y1000D03*
G01X45630Y803D03*
G01X45630Y606D03*
G01X46082Y606D03*
G01X46082Y803D03*
G01X46082Y1000D03*
G04 Draw part B_C59*
G54D14*
G01X46600Y800D03*
G01X46600Y1095D03*
G04 Draw part B_C60*
G01X45100Y1100D03*
G01X45100Y804D03*
G04 Draw part B_H19*
G04 Draw part B_U29*
G04 Draw part B_C61*
G04 Draw part B_R19*
G04 Draw part B_D10*
G54D15*
G01X46400Y1900D03*
G01X46833Y1900D03*
G04 Draw part B_R20*
G54D16*
G01X47400Y1900D03*
G01X47193Y1900D03*
G04 Draw part B_U30*
G54D17*
G01X44800Y4200D03*
G01X44800Y3700D03*
G01X44800Y3200D03*
G01X44800Y2700D03*
G01X46965Y2700D03*
G01X46965Y3200D03*
G01X46965Y3700D03*
G01X46965Y4200D03*
G54D18*
G01X45882Y3450D03*
G04 Draw part B_H20*
G54D19*
G01X45495Y5300D03*
G01X45652Y5300D03*
G01X45809Y5300D03*
G01X45967Y5300D03*
G01X46124Y5300D03*
G01X46282Y5300D03*
G01X46282Y6520D03*
G01X46124Y6520D03*
G01X45967Y6520D03*
G01X45809Y6520D03*
G01X45652Y6520D03*
G01X45495Y6520D03*
G54D20*
G01X45120Y5319D03*
G01X45120Y6500D03*
G01X46656Y6500D03*
G01X46656Y5319D03*
G04 Draw part B_B37*
G54D11*
G01X47300Y1100D03*
G04 Draw part B_B38*
G01X44400Y1100D03*
G04 Draw part B_hole21*
G54D21*
G01X47300Y6500D03*
G04 Draw part B_hole22*
G01X44400Y6500D03*
G04 Draw part B_B39*
G54D11*
G01X47300Y600D03*
G04 Draw part B_B40*
G01X44400Y600D03*
G04 Draw part B_S11*
G04 Draw part B_C62*
G04 Draw part B_C63*
G54D16*
G01X47400Y2300D03*
G01X47193Y2300D03*
G04 Draw part C_H5*
G54D19*
G01X11305Y11600D03*
G01X11462Y11600D03*
G01X11619Y11600D03*
G01X11777Y11600D03*
G01X11934Y11600D03*
G01X12092Y11600D03*
G01X12092Y12820D03*
G01X11934Y12820D03*
G01X11777Y12820D03*
G01X11619Y12820D03*
G01X11462Y12820D03*
G01X11305Y12820D03*
G54D20*
G01X10930Y11619D03*
G01X10930Y12800D03*
G01X12466Y12800D03*
G01X12466Y11619D03*
G04 Draw part C_H6*
G04 Draw part C_U3*
G54D22*
G01X12190Y10485D03*
G01X11993Y10485D03*
G01X11796Y10485D03*
G01X11599Y10485D03*
G01X11402Y10485D03*
G01X11205Y10485D03*
G54D23*
G01X10920Y10200D03*
G01X10920Y10003D03*
G01X10920Y9806D03*
G01X10920Y9609D03*
G01X10920Y9412D03*
G01X10920Y9215D03*
G54D22*
G01X11205Y8930D03*
G01X11402Y8930D03*
G01X11599Y8930D03*
G01X11796Y8930D03*
G01X11993Y8930D03*
G01X12190Y8930D03*
G54D23*
G01X12475Y9215D03*
G01X12475Y9412D03*
G01X12475Y9609D03*
G01X12475Y9806D03*
G01X12475Y10003D03*
G01X12475Y10200D03*
G04 Draw part C_J23*
G54D16*
G01X13200Y9800D03*
G01X12993Y9800D03*
G04 Draw part C_C9*
G01X13200Y9400D03*
G01X12993Y9400D03*
G04 Draw part C_J24*
G01X12000Y8300D03*
G01X12000Y8506D03*
G04 Draw part C_J25*
G01X11600Y8300D03*
G01X11600Y8506D03*
G04 Draw part C_C10*
G01X11200Y8500D03*
G01X11200Y8293D03*
G04 Draw part C_J26*
G01X10400Y8700D03*
G01X10193Y8700D03*
G04 Draw part C_J27*
G01X10400Y9300D03*
G01X10193Y9300D03*
G04 Draw part C_C11*
G01X10400Y9600D03*
G01X10193Y9600D03*
G04 Draw part C_J28*
G01X10400Y10800D03*
G01X10606Y10800D03*
G01X10193Y10800D03*
G04 Draw part C_J29*
G01X10600Y11200D03*
G01X10806Y11200D03*
G01X10393Y11200D03*
G04 Draw part C_C12*
G01X10390Y11750D03*
G01X10390Y11956D03*
G04 Draw part C_J30*
G01X13000Y11200D03*
G01X13206Y11200D03*
G01X12793Y11200D03*
G04 Draw part C_J31*
G01X12700Y10800D03*
G01X12906Y10800D03*
G01X12493Y10800D03*
G04 Draw part C_J32*
G01X12200Y10900D03*
G01X12200Y11106D03*
G04 Draw part C_J33*
G01X11700Y10900D03*
G01X11700Y11106D03*
G04 Draw part C_R5*
G04 Draw part C_R6*
G04 Draw part C_H7*
G54D19*
G01X16305Y11600D03*
G01X16462Y11600D03*
G01X16619Y11600D03*
G01X16777Y11600D03*
G01X16934Y11600D03*
G01X17092Y11600D03*
G01X17092Y12820D03*
G01X16934Y12820D03*
G01X16777Y12820D03*
G01X16619Y12820D03*
G01X16462Y12820D03*
G01X16305Y12820D03*
G54D20*
G01X15930Y11619D03*
G01X15930Y12800D03*
G01X17466Y12800D03*
G01X17466Y11619D03*
G04 Draw part C_H8*
G04 Draw part C_U4*
G54D22*
G01X17190Y10485D03*
G01X16993Y10485D03*
G01X16796Y10485D03*
G01X16599Y10485D03*
G01X16402Y10485D03*
G01X16205Y10485D03*
G54D23*
G01X15920Y10200D03*
G01X15920Y10003D03*
G01X15920Y9806D03*
G01X15920Y9609D03*
G01X15920Y9412D03*
G01X15920Y9215D03*
G54D22*
G01X16205Y8930D03*
G01X16402Y8930D03*
G01X16599Y8930D03*
G01X16796Y8930D03*
G01X16993Y8930D03*
G01X17190Y8930D03*
G54D23*
G01X17475Y9215D03*
G01X17475Y9412D03*
G01X17475Y9609D03*
G01X17475Y9806D03*
G01X17475Y10003D03*
G01X17475Y10200D03*
G04 Draw part C_J34*
G54D16*
G01X18200Y9800D03*
G01X17993Y9800D03*
G04 Draw part C_C13*
G01X18200Y9400D03*
G01X17993Y9400D03*
G04 Draw part C_J35*
G01X17000Y8300D03*
G01X17000Y8506D03*
G04 Draw part C_J36*
G01X16600Y8300D03*
G01X16600Y8506D03*
G04 Draw part C_C14*
G01X16200Y8500D03*
G01X16200Y8293D03*
G04 Draw part C_J37*
G01X15400Y8700D03*
G01X15193Y8700D03*
G04 Draw part C_J38*
G01X15400Y9300D03*
G01X15193Y9300D03*
G04 Draw part C_C15*
G01X15400Y9600D03*
G01X15193Y9600D03*
G04 Draw part C_J39*
G01X15400Y10800D03*
G01X15606Y10800D03*
G01X15193Y10800D03*
G04 Draw part C_J40*
G01X15600Y11200D03*
G01X15806Y11200D03*
G01X15393Y11200D03*
G04 Draw part C_C16*
G01X15390Y11750D03*
G01X15390Y11956D03*
G04 Draw part C_J41*
G01X18000Y11200D03*
G01X18206Y11200D03*
G01X17793Y11200D03*
G04 Draw part C_J42*
G01X17700Y10800D03*
G01X17906Y10800D03*
G01X17493Y10800D03*
G04 Draw part C_J43*
G01X17200Y10900D03*
G01X17200Y11106D03*
G04 Draw part C_J44*
G01X16700Y10900D03*
G01X16700Y11106D03*
G04 Draw part C_R7*
G04 Draw part C_R8*
G04 Draw part C_H9*
G54D19*
G01X21105Y11500D03*
G01X21262Y11500D03*
G01X21419Y11500D03*
G01X21577Y11500D03*
G01X21734Y11500D03*
G01X21892Y11500D03*
G01X21892Y12720D03*
G01X21734Y12720D03*
G01X21577Y12720D03*
G01X21419Y12720D03*
G01X21262Y12720D03*
G01X21105Y12720D03*
G54D20*
G01X20730Y11519D03*
G01X20730Y12700D03*
G01X22266Y12700D03*
G01X22266Y11519D03*
G04 Draw part C_H10*
G04 Draw part C_U5*
G54D22*
G01X21990Y10385D03*
G01X21793Y10385D03*
G01X21596Y10385D03*
G01X21399Y10385D03*
G01X21202Y10385D03*
G01X21005Y10385D03*
G54D23*
G01X20720Y10100D03*
G01X20720Y9903D03*
G01X20720Y9706D03*
G01X20720Y9509D03*
G01X20720Y9312D03*
G01X20720Y9115D03*
G54D22*
G01X21005Y8830D03*
G01X21202Y8830D03*
G01X21399Y8830D03*
G01X21596Y8830D03*
G01X21793Y8830D03*
G01X21990Y8830D03*
G54D23*
G01X22275Y9115D03*
G01X22275Y9312D03*
G01X22275Y9509D03*
G01X22275Y9706D03*
G01X22275Y9903D03*
G01X22275Y10100D03*
G04 Draw part C_J45*
G54D16*
G01X23000Y9700D03*
G01X22793Y9700D03*
G04 Draw part C_C17*
G01X23000Y9300D03*
G01X22793Y9300D03*
G04 Draw part C_J46*
G01X21800Y8200D03*
G01X21800Y8406D03*
G04 Draw part C_J47*
G01X21400Y8200D03*
G01X21400Y8406D03*
G04 Draw part C_C18*
G01X21000Y8400D03*
G01X21000Y8193D03*
G04 Draw part C_J48*
G01X20200Y8600D03*
G01X19993Y8600D03*
G04 Draw part C_J49*
G01X20200Y9200D03*
G01X19993Y9200D03*
G04 Draw part C_C19*
G01X20200Y9500D03*
G01X19993Y9500D03*
G04 Draw part C_J50*
G01X20200Y10700D03*
G01X20406Y10700D03*
G01X19993Y10700D03*
G04 Draw part C_J51*
G01X20400Y11100D03*
G01X20606Y11100D03*
G01X20193Y11100D03*
G04 Draw part C_C20*
G01X20190Y11650D03*
G01X20190Y11856D03*
G04 Draw part C_J52*
G01X22800Y11100D03*
G01X23006Y11100D03*
G01X22593Y11100D03*
G04 Draw part C_J53*
G01X22500Y10700D03*
G01X22706Y10700D03*
G01X22293Y10700D03*
G04 Draw part C_J54*
G01X22000Y10800D03*
G01X22000Y11006D03*
G04 Draw part C_J55*
G01X21500Y10800D03*
G01X21500Y11006D03*
G04 Draw part C_R9*
G04 Draw part C_R10*
G04 Draw part C_H11*
G54D19*
G01X26005Y11500D03*
G01X26162Y11500D03*
G01X26319Y11500D03*
G01X26477Y11500D03*
G01X26634Y11500D03*
G01X26792Y11500D03*
G01X26792Y12720D03*
G01X26634Y12720D03*
G01X26477Y12720D03*
G01X26319Y12720D03*
G01X26162Y12720D03*
G01X26005Y12720D03*
G54D20*
G01X25630Y11519D03*
G01X25630Y12700D03*
G01X27166Y12700D03*
G01X27166Y11519D03*
G04 Draw part C_H12*
G04 Draw part C_U6*
G54D22*
G01X26890Y10385D03*
G01X26693Y10385D03*
G01X26496Y10385D03*
G01X26299Y10385D03*
G01X26102Y10385D03*
G01X25905Y10385D03*
G54D23*
G01X25620Y10100D03*
G01X25620Y9903D03*
G01X25620Y9706D03*
G01X25620Y9509D03*
G01X25620Y9312D03*
G01X25620Y9115D03*
G54D22*
G01X25905Y8830D03*
G01X26102Y8830D03*
G01X26299Y8830D03*
G01X26496Y8830D03*
G01X26693Y8830D03*
G01X26890Y8830D03*
G54D23*
G01X27175Y9115D03*
G01X27175Y9312D03*
G01X27175Y9509D03*
G01X27175Y9706D03*
G01X27175Y9903D03*
G01X27175Y10100D03*
G04 Draw part C_J56*
G54D16*
G01X27900Y9700D03*
G01X27693Y9700D03*
G04 Draw part C_C21*
G01X27900Y9300D03*
G01X27693Y9300D03*
G04 Draw part C_J57*
G01X26700Y8200D03*
G01X26700Y8406D03*
G04 Draw part C_J58*
G01X26300Y8200D03*
G01X26300Y8406D03*
G04 Draw part C_C22*
G01X25900Y8400D03*
G01X25900Y8193D03*
G04 Draw part C_J59*
G01X25100Y8600D03*
G01X24893Y8600D03*
G04 Draw part C_J60*
G01X25100Y9200D03*
G01X24893Y9200D03*
G04 Draw part C_C23*
G01X25100Y9500D03*
G01X24893Y9500D03*
G04 Draw part C_J61*
G01X25100Y10700D03*
G01X25306Y10700D03*
G01X24893Y10700D03*
G04 Draw part C_J62*
G01X25300Y11100D03*
G01X25506Y11100D03*
G01X25093Y11100D03*
G04 Draw part C_C24*
G01X25090Y11650D03*
G01X25090Y11856D03*
G04 Draw part C_J63*
G01X27700Y11100D03*
G01X27906Y11100D03*
G01X27493Y11100D03*
G04 Draw part C_J64*
G01X27400Y10700D03*
G01X27606Y10700D03*
G01X27193Y10700D03*
G04 Draw part C_J65*
G01X26900Y10800D03*
G01X26900Y11006D03*
G04 Draw part C_J66*
G01X26400Y10800D03*
G01X26400Y11006D03*
G04 Draw part C_R11*
G04 Draw part C_R12*
G04 Draw part C_H13*
G54D19*
G01X30805Y11400D03*
G01X30962Y11400D03*
G01X31119Y11400D03*
G01X31277Y11400D03*
G01X31434Y11400D03*
G01X31592Y11400D03*
G01X31592Y12620D03*
G01X31434Y12620D03*
G01X31277Y12620D03*
G01X31119Y12620D03*
G01X30962Y12620D03*
G01X30805Y12620D03*
G54D20*
G01X30430Y11419D03*
G01X30430Y12600D03*
G01X31966Y12600D03*
G01X31966Y11419D03*
G04 Draw part C_H14*
G04 Draw part C_U7*
G54D22*
G01X31690Y10285D03*
G01X31493Y10285D03*
G01X31296Y10285D03*
G01X31099Y10285D03*
G01X30902Y10285D03*
G01X30705Y10285D03*
G54D23*
G01X30420Y10000D03*
G01X30420Y9803D03*
G01X30420Y9606D03*
G01X30420Y9409D03*
G01X30420Y9212D03*
G01X30420Y9015D03*
G54D22*
G01X30705Y8730D03*
G01X30902Y8730D03*
G01X31099Y8730D03*
G01X31296Y8730D03*
G01X31493Y8730D03*
G01X31690Y8730D03*
G54D23*
G01X31975Y9015D03*
G01X31975Y9212D03*
G01X31975Y9409D03*
G01X31975Y9606D03*
G01X31975Y9803D03*
G01X31975Y10000D03*
G04 Draw part C_J67*
G54D16*
G01X32700Y9600D03*
G01X32493Y9600D03*
G04 Draw part C_C25*
G01X32700Y9200D03*
G01X32493Y9200D03*
G04 Draw part C_J68*
G01X31500Y8100D03*
G01X31500Y8306D03*
G04 Draw part C_J69*
G01X31100Y8100D03*
G01X31100Y8306D03*
G04 Draw part C_C26*
G01X30700Y8300D03*
G01X30700Y8093D03*
G04 Draw part C_J70*
G01X29900Y8500D03*
G01X29693Y8500D03*
G04 Draw part C_J71*
G01X29900Y9100D03*
G01X29693Y9100D03*
G04 Draw part C_C27*
G01X29900Y9400D03*
G01X29693Y9400D03*
G04 Draw part C_J72*
G01X29900Y10600D03*
G01X30106Y10600D03*
G01X29693Y10600D03*
G04 Draw part C_J73*
G01X30100Y11000D03*
G01X30306Y11000D03*
G01X29893Y11000D03*
G04 Draw part C_C28*
G01X29890Y11550D03*
G01X29890Y11756D03*
G04 Draw part C_J74*
G01X32500Y11000D03*
G01X32706Y11000D03*
G01X32293Y11000D03*
G04 Draw part C_J75*
G01X32200Y10600D03*
G01X32406Y10600D03*
G01X31993Y10600D03*
G04 Draw part C_J76*
G01X31700Y10700D03*
G01X31700Y10906D03*
G04 Draw part C_J77*
G01X31200Y10700D03*
G01X31200Y10906D03*
G04 Draw part C_R13*
G04 Draw part C_R14*
G04 Draw part C_H15*
G54D19*
G01X35805Y11400D03*
G01X35962Y11400D03*
G01X36119Y11400D03*
G01X36277Y11400D03*
G01X36434Y11400D03*
G01X36592Y11400D03*
G01X36592Y12620D03*
G01X36434Y12620D03*
G01X36277Y12620D03*
G01X36119Y12620D03*
G01X35962Y12620D03*
G01X35805Y12620D03*
G54D20*
G01X35430Y11419D03*
G01X35430Y12600D03*
G01X36966Y12600D03*
G01X36966Y11419D03*
G04 Draw part C_H16*
G04 Draw part C_U8*
G54D22*
G01X36690Y10285D03*
G01X36493Y10285D03*
G01X36296Y10285D03*
G01X36099Y10285D03*
G01X35902Y10285D03*
G01X35705Y10285D03*
G54D23*
G01X35420Y10000D03*
G01X35420Y9803D03*
G01X35420Y9606D03*
G01X35420Y9409D03*
G01X35420Y9212D03*
G01X35420Y9015D03*
G54D22*
G01X35705Y8730D03*
G01X35902Y8730D03*
G01X36099Y8730D03*
G01X36296Y8730D03*
G01X36493Y8730D03*
G01X36690Y8730D03*
G54D23*
G01X36975Y9015D03*
G01X36975Y9212D03*
G01X36975Y9409D03*
G01X36975Y9606D03*
G01X36975Y9803D03*
G01X36975Y10000D03*
G04 Draw part C_J78*
G54D16*
G01X37700Y9600D03*
G01X37493Y9600D03*
G04 Draw part C_C29*
G01X37700Y9200D03*
G01X37493Y9200D03*
G04 Draw part C_J79*
G01X36500Y8100D03*
G01X36500Y8306D03*
G04 Draw part C_J80*
G01X36100Y8100D03*
G01X36100Y8306D03*
G04 Draw part C_C30*
G01X35700Y8300D03*
G01X35700Y8093D03*
G04 Draw part C_J81*
G01X34900Y8500D03*
G01X34693Y8500D03*
G04 Draw part C_J82*
G01X34900Y9100D03*
G01X34693Y9100D03*
G04 Draw part C_C31*
G01X34900Y9400D03*
G01X34693Y9400D03*
G04 Draw part C_J83*
G01X34900Y10600D03*
G01X35106Y10600D03*
G01X34693Y10600D03*
G04 Draw part C_J84*
G01X35100Y11000D03*
G01X35306Y11000D03*
G01X34893Y11000D03*
G04 Draw part C_C32*
G01X34890Y11550D03*
G01X34890Y11756D03*
G04 Draw part C_J85*
G01X37500Y11000D03*
G01X37706Y11000D03*
G01X37293Y11000D03*
G04 Draw part C_J86*
G01X37200Y10600D03*
G01X37406Y10600D03*
G01X36993Y10600D03*
G04 Draw part C_J87*
G01X36700Y10700D03*
G01X36700Y10906D03*
G04 Draw part C_J88*
G01X36200Y10700D03*
G01X36200Y10906D03*
G04 Draw part C_R15*
G04 Draw part C_R16*
G04 Draw part C_H17*
G54D19*
G01X40605Y11300D03*
G01X40762Y11300D03*
G01X40919Y11300D03*
G01X41077Y11300D03*
G01X41234Y11300D03*
G01X41392Y11300D03*
G01X41392Y12520D03*
G01X41234Y12520D03*
G01X41077Y12520D03*
G01X40919Y12520D03*
G01X40762Y12520D03*
G01X40605Y12520D03*
G54D20*
G01X40230Y11319D03*
G01X40230Y12500D03*
G01X41766Y12500D03*
G01X41766Y11319D03*
G04 Draw part C_H18*
G04 Draw part C_U9*
G54D22*
G01X41490Y10185D03*
G01X41293Y10185D03*
G01X41096Y10185D03*
G01X40899Y10185D03*
G01X40702Y10185D03*
G01X40505Y10185D03*
G54D23*
G01X40220Y9900D03*
G01X40220Y9703D03*
G01X40220Y9506D03*
G01X40220Y9309D03*
G01X40220Y9112D03*
G01X40220Y8915D03*
G54D22*
G01X40505Y8630D03*
G01X40702Y8630D03*
G01X40899Y8630D03*
G01X41096Y8630D03*
G01X41293Y8630D03*
G01X41490Y8630D03*
G54D23*
G01X41775Y8915D03*
G01X41775Y9112D03*
G01X41775Y9309D03*
G01X41775Y9506D03*
G01X41775Y9703D03*
G01X41775Y9900D03*
G04 Draw part C_J89*
G54D16*
G01X42500Y9500D03*
G01X42293Y9500D03*
G04 Draw part C_C33*
G01X42500Y9100D03*
G01X42293Y9100D03*
G04 Draw part C_J90*
G01X41300Y8000D03*
G01X41300Y8206D03*
G04 Draw part C_J91*
G01X40900Y8000D03*
G01X40900Y8206D03*
G04 Draw part C_C34*
G01X40500Y8200D03*
G01X40500Y7993D03*
G04 Draw part C_J92*
G01X39700Y8400D03*
G01X39493Y8400D03*
G04 Draw part C_J93*
G01X39700Y9000D03*
G01X39493Y9000D03*
G04 Draw part C_C35*
G01X39700Y9300D03*
G01X39493Y9300D03*
G04 Draw part C_J94*
G01X39700Y10500D03*
G01X39906Y10500D03*
G01X39493Y10500D03*
G04 Draw part C_J95*
G01X39900Y10900D03*
G01X40106Y10900D03*
G01X39693Y10900D03*
G04 Draw part C_C36*
G01X39690Y11450D03*
G01X39690Y11656D03*
G04 Draw part C_J96*
G01X42300Y10900D03*
G01X42506Y10900D03*
G01X42093Y10900D03*
G04 Draw part C_J97*
G01X42000Y10500D03*
G01X42206Y10500D03*
G01X41793Y10500D03*
G04 Draw part C_J98*
G01X41500Y10600D03*
G01X41500Y10806D03*
G04 Draw part C_J99*
G01X41000Y10600D03*
G01X41000Y10806D03*
G04 Draw part C_R17*
G04 Draw part C_R18*
G04 Draw part C_H19*
G54D19*
G01X45405Y11300D03*
G01X45562Y11300D03*
G01X45719Y11300D03*
G01X45877Y11300D03*
G01X46034Y11300D03*
G01X46192Y11300D03*
G01X46192Y12520D03*
G01X46034Y12520D03*
G01X45877Y12520D03*
G01X45719Y12520D03*
G01X45562Y12520D03*
G01X45405Y12520D03*
G54D20*
G01X45030Y11319D03*
G01X45030Y12500D03*
G01X46566Y12500D03*
G01X46566Y11319D03*
G04 Draw part C_H20*
G04 Draw part C_U10*
G54D22*
G01X46290Y10185D03*
G01X46093Y10185D03*
G01X45896Y10185D03*
G01X45699Y10185D03*
G01X45502Y10185D03*
G01X45305Y10185D03*
G54D23*
G01X45020Y9900D03*
G01X45020Y9703D03*
G01X45020Y9506D03*
G01X45020Y9309D03*
G01X45020Y9112D03*
G01X45020Y8915D03*
G54D22*
G01X45305Y8630D03*
G01X45502Y8630D03*
G01X45699Y8630D03*
G01X45896Y8630D03*
G01X46093Y8630D03*
G01X46290Y8630D03*
G54D23*
G01X46575Y8915D03*
G01X46575Y9112D03*
G01X46575Y9309D03*
G01X46575Y9506D03*
G01X46575Y9703D03*
G01X46575Y9900D03*
G04 Draw part C_J100*
G54D16*
G01X47300Y9500D03*
G01X47093Y9500D03*
G04 Draw part C_C37*
G01X47300Y9100D03*
G01X47093Y9100D03*
G04 Draw part C_J101*
G01X46100Y8000D03*
G01X46100Y8206D03*
G04 Draw part C_J102*
G01X45700Y8000D03*
G01X45700Y8206D03*
G04 Draw part C_C38*
G01X45300Y8200D03*
G01X45300Y7993D03*
G04 Draw part C_J103*
G01X44500Y8400D03*
G01X44293Y8400D03*
G04 Draw part C_J104*
G01X44500Y9000D03*
G01X44293Y9000D03*
G04 Draw part C_C39*
G01X44500Y9300D03*
G01X44293Y9300D03*
G04 Draw part C_J105*
G01X44500Y10500D03*
G01X44706Y10500D03*
G01X44293Y10500D03*
G04 Draw part C_J106*
G01X44700Y10900D03*
G01X44906Y10900D03*
G01X44493Y10900D03*
G04 Draw part C_C40*
G01X44490Y11450D03*
G01X44490Y11656D03*
G04 Draw part C_J107*
G01X47100Y10900D03*
G01X47306Y10900D03*
G01X46893Y10900D03*
G04 Draw part C_J108*
G01X46800Y10500D03*
G01X47006Y10500D03*
G01X46593Y10500D03*
G04 Draw part C_J109*
G01X46300Y10600D03*
G01X46300Y10806D03*
G04 Draw part C_J110*
G01X45800Y10600D03*
G01X45800Y10806D03*
G04 Draw part C_R19*
G04 Draw part C_R20*
G04 Draw part D_U7*
G54D24*
G01X11500Y14950D03*
G01X11696Y14950D03*
G01X11893Y14950D03*
G01X11500Y15146D03*
G01X11893Y15146D03*
G01X11500Y15343D03*
G01X11696Y15343D03*
G01X11893Y15343D03*
G01X11500Y15540D03*
G01X11696Y15540D03*
G01X11893Y15540D03*
G04 Draw part D_H5*
G54D19*
G01X11305Y18150D03*
G01X11462Y18150D03*
G01X11619Y18150D03*
G01X11777Y18150D03*
G01X11934Y18150D03*
G01X12092Y18150D03*
G01X12092Y19370D03*
G01X11934Y19370D03*
G01X11777Y19370D03*
G01X11619Y19370D03*
G01X11462Y19370D03*
G01X11305Y19370D03*
G54D20*
G01X10930Y18169D03*
G01X10930Y19350D03*
G01X12466Y19350D03*
G01X12466Y18169D03*
G04 Draw part D_H6*
G04 Draw part D_U8*
G54D25*
G01X11900Y16880D03*
G01X11703Y16880D03*
G01X11506Y16880D03*
G01X11900Y16683D03*
G01X11506Y16683D03*
G01X11900Y16486D03*
G01X11703Y16486D03*
G01X11506Y16486D03*
G04 Draw part D_U9*
G01X11000Y16890D03*
G01X10803Y16890D03*
G01X10606Y16890D03*
G01X11000Y16693D03*
G01X10606Y16693D03*
G01X11000Y16496D03*
G01X10803Y16496D03*
G01X10606Y16496D03*
G04 Draw part D_C9*
G54D16*
G01X11700Y17550D03*
G01X11906Y17550D03*
G04 Draw part D_R23*
G01X12600Y16550D03*
G01X12806Y16550D03*
G04 Draw part D_R24*
G01X11700Y17250D03*
G01X11906Y17250D03*
G04 Draw part D_R25*
G01X12200Y17550D03*
G01X12200Y17343D03*
G04 Draw part D_R26*
G01X12600Y17050D03*
G01X12806Y17050D03*
G04 Draw part D_R27*
G01X12800Y16050D03*
G01X12593Y16050D03*
G04 Draw part D_C10*
G01X10700Y15950D03*
G01X10906Y15950D03*
G04 Draw part D_C11*
G01X10700Y17550D03*
G01X10906Y17550D03*
G04 Draw part D_P7*
G54D26*
G01X13150Y16550D03*
G04 Draw part D_P8*
G01X13150Y17050D03*
G04 Draw part D_P9*
G01X13150Y16050D03*
G04 Draw part D_R28*
G54D16*
G01X10200Y15950D03*
G01X10406Y15950D03*
G04 Draw part D_R29*
G01X10400Y17550D03*
G01X10193Y17550D03*
G04 Draw part D_R30*
G01X10700Y17250D03*
G01X10906Y17250D03*
G04 Draw part D_R31*
G01X13050Y18050D03*
G01X13050Y17843D03*
G04 Draw part D_R32*
G01X12900Y18550D03*
G01X12900Y18343D03*
G04 Draw part D_C12*
G01X13200Y18350D03*
G01X13200Y18556D03*
G04 Draw part D_R33*
G01X12300Y15150D03*
G01X12300Y15356D03*
G04 Draw part D_U10*
G54D24*
G01X16500Y14950D03*
G01X16696Y14950D03*
G01X16893Y14950D03*
G01X16500Y15146D03*
G01X16893Y15146D03*
G01X16500Y15343D03*
G01X16696Y15343D03*
G01X16893Y15343D03*
G01X16500Y15540D03*
G01X16696Y15540D03*
G01X16893Y15540D03*
G04 Draw part D_H7*
G54D19*
G01X16305Y18150D03*
G01X16462Y18150D03*
G01X16619Y18150D03*
G01X16777Y18150D03*
G01X16934Y18150D03*
G01X17092Y18150D03*
G01X17092Y19370D03*
G01X16934Y19370D03*
G01X16777Y19370D03*
G01X16619Y19370D03*
G01X16462Y19370D03*
G01X16305Y19370D03*
G54D20*
G01X15930Y18169D03*
G01X15930Y19350D03*
G01X17466Y19350D03*
G01X17466Y18169D03*
G04 Draw part D_H8*
G04 Draw part D_U11*
G54D25*
G01X16900Y16880D03*
G01X16703Y16880D03*
G01X16506Y16880D03*
G01X16900Y16683D03*
G01X16506Y16683D03*
G01X16900Y16486D03*
G01X16703Y16486D03*
G01X16506Y16486D03*
G04 Draw part D_U12*
G01X16000Y16890D03*
G01X15803Y16890D03*
G01X15606Y16890D03*
G01X16000Y16693D03*
G01X15606Y16693D03*
G01X16000Y16496D03*
G01X15803Y16496D03*
G01X15606Y16496D03*
G04 Draw part D_C13*
G54D16*
G01X16700Y17550D03*
G01X16906Y17550D03*
G04 Draw part D_R34*
G01X17600Y16550D03*
G01X17806Y16550D03*
G04 Draw part D_R35*
G01X16700Y17250D03*
G01X16906Y17250D03*
G04 Draw part D_R36*
G01X17200Y17550D03*
G01X17200Y17343D03*
G04 Draw part D_R37*
G01X17600Y17050D03*
G01X17806Y17050D03*
G04 Draw part D_R38*
G01X17800Y16050D03*
G01X17593Y16050D03*
G04 Draw part D_C14*
G01X15700Y15950D03*
G01X15906Y15950D03*
G04 Draw part D_C15*
G01X15700Y17550D03*
G01X15906Y17550D03*
G04 Draw part D_P10*
G54D26*
G01X18150Y16550D03*
G04 Draw part D_P11*
G01X18150Y17050D03*
G04 Draw part D_P12*
G01X18150Y16050D03*
G04 Draw part D_R39*
G54D16*
G01X15200Y15950D03*
G01X15406Y15950D03*
G04 Draw part D_R40*
G01X15400Y17550D03*
G01X15193Y17550D03*
G04 Draw part D_R41*
G01X15700Y17250D03*
G01X15906Y17250D03*
G04 Draw part D_R42*
G01X18050Y18050D03*
G01X18050Y17843D03*
G04 Draw part D_R43*
G01X17900Y18550D03*
G01X17900Y18343D03*
G04 Draw part D_C16*
G01X18200Y18350D03*
G01X18200Y18556D03*
G04 Draw part D_R44*
G01X17300Y15150D03*
G01X17300Y15356D03*
G04 Draw part D_U13*
G54D24*
G01X21300Y14950D03*
G01X21496Y14950D03*
G01X21693Y14950D03*
G01X21300Y15146D03*
G01X21693Y15146D03*
G01X21300Y15343D03*
G01X21496Y15343D03*
G01X21693Y15343D03*
G01X21300Y15540D03*
G01X21496Y15540D03*
G01X21693Y15540D03*
G04 Draw part D_H9*
G54D19*
G01X21105Y18150D03*
G01X21262Y18150D03*
G01X21419Y18150D03*
G01X21577Y18150D03*
G01X21734Y18150D03*
G01X21892Y18150D03*
G01X21892Y19370D03*
G01X21734Y19370D03*
G01X21577Y19370D03*
G01X21419Y19370D03*
G01X21262Y19370D03*
G01X21105Y19370D03*
G54D20*
G01X20730Y18169D03*
G01X20730Y19350D03*
G01X22266Y19350D03*
G01X22266Y18169D03*
G04 Draw part D_H10*
G04 Draw part D_U14*
G54D25*
G01X21700Y16880D03*
G01X21503Y16880D03*
G01X21306Y16880D03*
G01X21700Y16683D03*
G01X21306Y16683D03*
G01X21700Y16486D03*
G01X21503Y16486D03*
G01X21306Y16486D03*
G04 Draw part D_U15*
G01X20800Y16890D03*
G01X20603Y16890D03*
G01X20406Y16890D03*
G01X20800Y16693D03*
G01X20406Y16693D03*
G01X20800Y16496D03*
G01X20603Y16496D03*
G01X20406Y16496D03*
G04 Draw part D_C17*
G54D16*
G01X21500Y17550D03*
G01X21706Y17550D03*
G04 Draw part D_R45*
G01X22400Y16550D03*
G01X22606Y16550D03*
G04 Draw part D_R46*
G01X21500Y17250D03*
G01X21706Y17250D03*
G04 Draw part D_R47*
G01X22000Y17550D03*
G01X22000Y17343D03*
G04 Draw part D_R48*
G01X22400Y17050D03*
G01X22606Y17050D03*
G04 Draw part D_R49*
G01X22600Y16050D03*
G01X22393Y16050D03*
G04 Draw part D_C18*
G01X20500Y15950D03*
G01X20706Y15950D03*
G04 Draw part D_C19*
G01X20500Y17550D03*
G01X20706Y17550D03*
G04 Draw part D_P13*
G54D26*
G01X22950Y16550D03*
G04 Draw part D_P14*
G01X22950Y17050D03*
G04 Draw part D_P15*
G01X22950Y16050D03*
G04 Draw part D_R50*
G54D16*
G01X20000Y15950D03*
G01X20206Y15950D03*
G04 Draw part D_R51*
G01X20200Y17550D03*
G01X19993Y17550D03*
G04 Draw part D_R52*
G01X20500Y17250D03*
G01X20706Y17250D03*
G04 Draw part D_R53*
G01X22850Y18050D03*
G01X22850Y17843D03*
G04 Draw part D_R54*
G01X22700Y18550D03*
G01X22700Y18343D03*
G04 Draw part D_C20*
G01X23000Y18350D03*
G01X23000Y18556D03*
G04 Draw part D_R55*
G01X22100Y15150D03*
G01X22100Y15356D03*
G04 Draw part G_U4*
G54D17*
G01X35200Y16350D03*
G01X35200Y15850D03*
G01X35200Y15350D03*
G01X35200Y14850D03*
G01X37365Y14850D03*
G01X37365Y15350D03*
G01X37365Y15850D03*
G01X37365Y16350D03*
G54D18*
G01X36282Y15600D03*
G04 Draw part G_H5*
G54D19*
G01X35800Y18150D03*
G01X35957Y18150D03*
G01X36114Y18150D03*
G01X36272Y18150D03*
G01X36429Y18150D03*
G01X36587Y18150D03*
G01X36587Y19370D03*
G01X36429Y19370D03*
G01X36272Y19370D03*
G01X36114Y19370D03*
G01X35957Y19370D03*
G01X35800Y19370D03*
G54D20*
G01X35425Y18169D03*
G01X35425Y19350D03*
G01X36961Y19350D03*
G01X36961Y18169D03*
G04 Draw part G_H6*
G04 Draw part G_P23*
G54D11*
G01X37250Y17050D03*
G04 Draw part G_P24*
G01X36000Y17550D03*
G04 Draw part G_P25*
G01X37000Y17550D03*
G04 Draw part G_P26*
G01X37500Y17550D03*
G04 Draw part G_P27*
G01X35500Y17550D03*
G04 Draw part G_P28*
G01X36500Y17550D03*
G04 Draw part G_P29*
G01X35750Y17050D03*
G04 Draw part G_P30*
G01X36250Y17050D03*
G04 Draw part G_P31*
G01X36750Y17050D03*
G04 Draw part G_C3*
G54D16*
G01X34900Y18550D03*
G01X34900Y18343D03*
G04 Draw part G_P32*
G54D11*
G01X35250Y17050D03*
G04 Draw part G_P33*
G01X35000Y17550D03*
G04 Draw part G_U5*
G54D17*
G01X40100Y16350D03*
G01X40100Y15850D03*
G01X40100Y15350D03*
G01X40100Y14850D03*
G01X42265Y14850D03*
G01X42265Y15350D03*
G01X42265Y15850D03*
G01X42265Y16350D03*
G54D18*
G01X41182Y15600D03*
G04 Draw part G_H7*
G54D19*
G01X40700Y18150D03*
G01X40857Y18150D03*
G01X41014Y18150D03*
G01X41172Y18150D03*
G01X41329Y18150D03*
G01X41487Y18150D03*
G01X41487Y19370D03*
G01X41329Y19370D03*
G01X41172Y19370D03*
G01X41014Y19370D03*
G01X40857Y19370D03*
G01X40700Y19370D03*
G54D20*
G01X40325Y18169D03*
G01X40325Y19350D03*
G01X41861Y19350D03*
G01X41861Y18169D03*
G04 Draw part G_H8*
G04 Draw part G_P34*
G54D11*
G01X42150Y17050D03*
G04 Draw part G_P35*
G01X40900Y17550D03*
G04 Draw part G_P36*
G01X41900Y17550D03*
G04 Draw part G_P37*
G01X42400Y17550D03*
G04 Draw part G_P38*
G01X40400Y17550D03*
G04 Draw part G_P39*
G01X41400Y17550D03*
G04 Draw part G_P40*
G01X40650Y17050D03*
G04 Draw part G_P41*
G01X41150Y17050D03*
G04 Draw part G_P42*
G01X41650Y17050D03*
G04 Draw part G_C4*
G54D16*
G01X39800Y18550D03*
G01X39800Y18343D03*
G04 Draw part G_P43*
G54D11*
G01X40150Y17050D03*
G04 Draw part G_P44*
G01X39900Y17550D03*
G04 Draw part G_U6*
G54D17*
G01X44800Y16350D03*
G01X44800Y15850D03*
G01X44800Y15350D03*
G01X44800Y14850D03*
G01X46965Y14850D03*
G01X46965Y15350D03*
G01X46965Y15850D03*
G01X46965Y16350D03*
G54D18*
G01X45882Y15600D03*
G04 Draw part G_H9*
G54D19*
G01X45400Y18150D03*
G01X45557Y18150D03*
G01X45714Y18150D03*
G01X45872Y18150D03*
G01X46029Y18150D03*
G01X46187Y18150D03*
G01X46187Y19370D03*
G01X46029Y19370D03*
G01X45872Y19370D03*
G01X45714Y19370D03*
G01X45557Y19370D03*
G01X45400Y19370D03*
G54D20*
G01X45025Y18169D03*
G01X45025Y19350D03*
G01X46561Y19350D03*
G01X46561Y18169D03*
G04 Draw part G_H10*
G04 Draw part G_P45*
G54D11*
G01X46850Y17050D03*
G04 Draw part G_P46*
G01X45600Y17550D03*
G04 Draw part G_P47*
G01X46600Y17550D03*
G04 Draw part G_P48*
G01X47100Y17550D03*
G04 Draw part G_P49*
G01X45100Y17550D03*
G04 Draw part G_P50*
G01X46100Y17550D03*
G04 Draw part G_P51*
G01X45350Y17050D03*
G04 Draw part G_P52*
G01X45850Y17050D03*
G04 Draw part G_P53*
G01X46350Y17050D03*
G04 Draw part G_C5*
G54D16*
G01X44500Y18550D03*
G01X44500Y18343D03*
G04 Draw part G_P54*
G54D11*
G01X44850Y17050D03*
G04 Draw part G_P55*
G01X44600Y17550D03*
G04 Draw part H_H5*
G04 Draw part H_U3*
G54D33*
G01X12674Y22862D03*
G01X12674Y23059D03*
G01X12674Y23256D03*
G01X12674Y23453D03*
G01X12674Y23650D03*
G54D34*
G01X12300Y24024D03*
G01X12103Y24024D03*
G01X11906Y24024D03*
G01X11709Y24024D03*
G01X11512Y24024D03*
G54D33*
G01X11138Y23650D03*
G01X11138Y23453D03*
G01X11138Y23256D03*
G01X11138Y23059D03*
G01X11138Y22862D03*
G54D34*
G01X11512Y22488D03*
G01X11709Y22488D03*
G01X11906Y22488D03*
G01X12103Y22488D03*
G01X12300Y22488D03*
G54D35*
G01X11906Y23256D03*
G04 Draw part H_R4*
G54D16*
G01X11300Y22150D03*
G01X11506Y22150D03*
G04 Draw part H_X3*
G04 Draw part H_C17*
G04 Draw part H_C18*
G04 Draw part H_C19*
G01X12300Y22150D03*
G01X12506Y22150D03*
G04 Draw part H_C20*
G04 Draw part H_C21*
G04 Draw part H_H6*
G54D19*
G01X11305Y24650D03*
G01X11462Y24650D03*
G01X11619Y24650D03*
G01X11777Y24650D03*
G01X11934Y24650D03*
G01X12092Y24650D03*
G01X12092Y25870D03*
G01X11934Y25870D03*
G01X11777Y25870D03*
G01X11619Y25870D03*
G01X11462Y25870D03*
G01X11305Y25870D03*
G54D20*
G01X10930Y24669D03*
G01X10930Y25850D03*
G01X12466Y25850D03*
G01X12466Y24669D03*
G04 Draw part H_A3*
G54D36*
G01X13020Y21600D03*
G01X10420Y21600D03*
G04 Draw part H_hole5*
G54D37*
G01X10585Y23465D03*
G54D38*
G01X10600Y23250D03*
G01X10800Y23250D03*
G01X10800Y23450D03*
G04 Draw part H_L3*
G54D16*
G01X10600Y22750D03*
G01X10600Y22956D03*
G04 Draw part H_C22*
G01X10400Y23950D03*
G01X10400Y23743D03*
G04 Draw part H_C23*
G01X10700Y23950D03*
G01X10700Y23743D03*
G04 Draw part H_H7*
G04 Draw part H_U4*
G54D33*
G01X17674Y22862D03*
G01X17674Y23059D03*
G01X17674Y23256D03*
G01X17674Y23453D03*
G01X17674Y23650D03*
G54D34*
G01X17300Y24024D03*
G01X17103Y24024D03*
G01X16906Y24024D03*
G01X16709Y24024D03*
G01X16512Y24024D03*
G54D33*
G01X16138Y23650D03*
G01X16138Y23453D03*
G01X16138Y23256D03*
G01X16138Y23059D03*
G01X16138Y22862D03*
G54D34*
G01X16512Y22488D03*
G01X16709Y22488D03*
G01X16906Y22488D03*
G01X17103Y22488D03*
G01X17300Y22488D03*
G54D35*
G01X16906Y23256D03*
G04 Draw part H_R5*
G54D16*
G01X16300Y22150D03*
G01X16506Y22150D03*
G04 Draw part H_X4*
G04 Draw part H_C24*
G04 Draw part H_C25*
G04 Draw part H_C26*
G01X17300Y22150D03*
G01X17506Y22150D03*
G04 Draw part H_C27*
G04 Draw part H_C28*
G04 Draw part H_H8*
G54D19*
G01X16305Y24650D03*
G01X16462Y24650D03*
G01X16619Y24650D03*
G01X16777Y24650D03*
G01X16934Y24650D03*
G01X17092Y24650D03*
G01X17092Y25870D03*
G01X16934Y25870D03*
G01X16777Y25870D03*
G01X16619Y25870D03*
G01X16462Y25870D03*
G01X16305Y25870D03*
G54D20*
G01X15930Y24669D03*
G01X15930Y25850D03*
G01X17466Y25850D03*
G01X17466Y24669D03*
G04 Draw part H_A4*
G54D36*
G01X18020Y21600D03*
G01X15420Y21600D03*
G04 Draw part H_hole6*
G54D37*
G01X15585Y23465D03*
G54D38*
G01X15600Y23250D03*
G01X15800Y23250D03*
G01X15800Y23450D03*
G04 Draw part H_L4*
G54D16*
G01X15600Y22750D03*
G01X15600Y22956D03*
G04 Draw part H_C29*
G01X15400Y23950D03*
G01X15400Y23743D03*
G04 Draw part H_C30*
G01X15700Y23950D03*
G01X15700Y23743D03*
G04 Draw part H_H9*
G04 Draw part H_U5*
G54D33*
G01X22374Y22862D03*
G01X22374Y23059D03*
G01X22374Y23256D03*
G01X22374Y23453D03*
G01X22374Y23650D03*
G54D34*
G01X22000Y24024D03*
G01X21803Y24024D03*
G01X21606Y24024D03*
G01X21409Y24024D03*
G01X21212Y24024D03*
G54D33*
G01X20838Y23650D03*
G01X20838Y23453D03*
G01X20838Y23256D03*
G01X20838Y23059D03*
G01X20838Y22862D03*
G54D34*
G01X21212Y22488D03*
G01X21409Y22488D03*
G01X21606Y22488D03*
G01X21803Y22488D03*
G01X22000Y22488D03*
G54D35*
G01X21606Y23256D03*
G04 Draw part H_R6*
G54D16*
G01X21000Y22150D03*
G01X21206Y22150D03*
G04 Draw part H_X5*
G04 Draw part H_C31*
G04 Draw part H_C32*
G04 Draw part H_C33*
G01X22000Y22150D03*
G01X22206Y22150D03*
G04 Draw part H_C34*
G04 Draw part H_C35*
G04 Draw part H_H10*
G54D19*
G01X21005Y24650D03*
G01X21162Y24650D03*
G01X21319Y24650D03*
G01X21477Y24650D03*
G01X21634Y24650D03*
G01X21792Y24650D03*
G01X21792Y25870D03*
G01X21634Y25870D03*
G01X21477Y25870D03*
G01X21319Y25870D03*
G01X21162Y25870D03*
G01X21005Y25870D03*
G54D20*
G01X20630Y24669D03*
G01X20630Y25850D03*
G01X22166Y25850D03*
G01X22166Y24669D03*
G04 Draw part H_A5*
G54D36*
G01X22720Y21600D03*
G01X20120Y21600D03*
G04 Draw part H_hole7*
G54D37*
G01X20285Y23465D03*
G54D38*
G01X20300Y23250D03*
G01X20500Y23250D03*
G01X20500Y23450D03*
G04 Draw part H_L5*
G54D16*
G01X20300Y22750D03*
G01X20300Y22956D03*
G04 Draw part H_C36*
G01X20100Y23950D03*
G01X20100Y23743D03*
G04 Draw part H_C37*
G01X20400Y23950D03*
G01X20400Y23743D03*
G04 Draw part H_H11*
G04 Draw part H_U6*
G54D33*
G01X27174Y22862D03*
G01X27174Y23059D03*
G01X27174Y23256D03*
G01X27174Y23453D03*
G01X27174Y23650D03*
G54D34*
G01X26800Y24024D03*
G01X26603Y24024D03*
G01X26406Y24024D03*
G01X26209Y24024D03*
G01X26012Y24024D03*
G54D33*
G01X25638Y23650D03*
G01X25638Y23453D03*
G01X25638Y23256D03*
G01X25638Y23059D03*
G01X25638Y22862D03*
G54D34*
G01X26012Y22488D03*
G01X26209Y22488D03*
G01X26406Y22488D03*
G01X26603Y22488D03*
G01X26800Y22488D03*
G54D35*
G01X26406Y23256D03*
G04 Draw part H_R7*
G54D16*
G01X25800Y22150D03*
G01X26006Y22150D03*
G04 Draw part H_X6*
G04 Draw part H_C38*
G04 Draw part H_C39*
G04 Draw part H_C40*
G01X26800Y22150D03*
G01X27006Y22150D03*
G04 Draw part H_C41*
G04 Draw part H_C42*
G04 Draw part H_H12*
G54D19*
G01X25805Y24650D03*
G01X25962Y24650D03*
G01X26119Y24650D03*
G01X26277Y24650D03*
G01X26434Y24650D03*
G01X26592Y24650D03*
G01X26592Y25870D03*
G01X26434Y25870D03*
G01X26277Y25870D03*
G01X26119Y25870D03*
G01X25962Y25870D03*
G01X25805Y25870D03*
G54D20*
G01X25430Y24669D03*
G01X25430Y25850D03*
G01X26966Y25850D03*
G01X26966Y24669D03*
G04 Draw part H_A6*
G54D36*
G01X27520Y21600D03*
G01X24920Y21600D03*
G04 Draw part H_hole8*
G54D37*
G01X25085Y23465D03*
G54D38*
G01X25100Y23250D03*
G01X25300Y23250D03*
G01X25300Y23450D03*
G04 Draw part H_L6*
G54D16*
G01X25100Y22750D03*
G01X25100Y22956D03*
G04 Draw part H_C43*
G01X24900Y23950D03*
G01X24900Y23743D03*
G04 Draw part H_C44*
G01X25200Y23950D03*
G01X25200Y23743D03*
G04 Draw part H_H13*
G04 Draw part H_U7*
G54D33*
G01X32174Y22862D03*
G01X32174Y23059D03*
G01X32174Y23256D03*
G01X32174Y23453D03*
G01X32174Y23650D03*
G54D34*
G01X31800Y24024D03*
G01X31603Y24024D03*
G01X31406Y24024D03*
G01X31209Y24024D03*
G01X31012Y24024D03*
G54D33*
G01X30638Y23650D03*
G01X30638Y23453D03*
G01X30638Y23256D03*
G01X30638Y23059D03*
G01X30638Y22862D03*
G54D34*
G01X31012Y22488D03*
G01X31209Y22488D03*
G01X31406Y22488D03*
G01X31603Y22488D03*
G01X31800Y22488D03*
G54D35*
G01X31406Y23256D03*
G04 Draw part H_R8*
G54D16*
G01X30800Y22150D03*
G01X31006Y22150D03*
G04 Draw part H_X7*
G04 Draw part H_C45*
G04 Draw part H_C46*
G04 Draw part H_C47*
G01X31800Y22150D03*
G01X32006Y22150D03*
G04 Draw part H_C48*
G04 Draw part H_C49*
G04 Draw part H_H14*
G54D19*
G01X30805Y24650D03*
G01X30962Y24650D03*
G01X31119Y24650D03*
G01X31277Y24650D03*
G01X31434Y24650D03*
G01X31592Y24650D03*
G01X31592Y25870D03*
G01X31434Y25870D03*
G01X31277Y25870D03*
G01X31119Y25870D03*
G01X30962Y25870D03*
G01X30805Y25870D03*
G54D20*
G01X30430Y24669D03*
G01X30430Y25850D03*
G01X31966Y25850D03*
G01X31966Y24669D03*
G04 Draw part H_A7*
G54D36*
G01X32520Y21600D03*
G01X29920Y21600D03*
G04 Draw part H_hole9*
G54D37*
G01X30085Y23465D03*
G54D38*
G01X30100Y23250D03*
G01X30300Y23250D03*
G01X30300Y23450D03*
G04 Draw part H_L7*
G54D16*
G01X30100Y22750D03*
G01X30100Y22956D03*
G04 Draw part H_C50*
G01X29900Y23950D03*
G01X29900Y23743D03*
G04 Draw part H_C51*
G01X30200Y23950D03*
G01X30200Y23743D03*
G04 Draw part H_H15*
G04 Draw part H_U8*
G54D33*
G01X37174Y22862D03*
G01X37174Y23059D03*
G01X37174Y23256D03*
G01X37174Y23453D03*
G01X37174Y23650D03*
G54D34*
G01X36800Y24024D03*
G01X36603Y24024D03*
G01X36406Y24024D03*
G01X36209Y24024D03*
G01X36012Y24024D03*
G54D33*
G01X35638Y23650D03*
G01X35638Y23453D03*
G01X35638Y23256D03*
G01X35638Y23059D03*
G01X35638Y22862D03*
G54D34*
G01X36012Y22488D03*
G01X36209Y22488D03*
G01X36406Y22488D03*
G01X36603Y22488D03*
G01X36800Y22488D03*
G54D35*
G01X36406Y23256D03*
G04 Draw part H_R9*
G54D16*
G01X35800Y22150D03*
G01X36006Y22150D03*
G04 Draw part H_X8*
G04 Draw part H_C52*
G04 Draw part H_C53*
G04 Draw part H_C54*
G01X36800Y22150D03*
G01X37006Y22150D03*
G04 Draw part H_C55*
G04 Draw part H_C56*
G04 Draw part H_H16*
G54D19*
G01X35805Y24650D03*
G01X35962Y24650D03*
G01X36119Y24650D03*
G01X36277Y24650D03*
G01X36434Y24650D03*
G01X36592Y24650D03*
G01X36592Y25870D03*
G01X36434Y25870D03*
G01X36277Y25870D03*
G01X36119Y25870D03*
G01X35962Y25870D03*
G01X35805Y25870D03*
G54D20*
G01X35430Y24669D03*
G01X35430Y25850D03*
G01X36966Y25850D03*
G01X36966Y24669D03*
G04 Draw part H_A8*
G54D36*
G01X37520Y21600D03*
G01X34920Y21600D03*
G04 Draw part H_hole10*
G54D37*
G01X35085Y23465D03*
G54D38*
G01X35100Y23250D03*
G01X35300Y23250D03*
G01X35300Y23450D03*
G04 Draw part H_L8*
G54D16*
G01X35100Y22750D03*
G01X35100Y22956D03*
G04 Draw part H_C57*
G01X34900Y23950D03*
G01X34900Y23743D03*
G04 Draw part H_C58*
G01X35200Y23950D03*
G01X35200Y23743D03*
G04 Draw part H_H17*
G04 Draw part H_U9*
G54D33*
G01X41874Y22862D03*
G01X41874Y23059D03*
G01X41874Y23256D03*
G01X41874Y23453D03*
G01X41874Y23650D03*
G54D34*
G01X41500Y24024D03*
G01X41303Y24024D03*
G01X41106Y24024D03*
G01X40909Y24024D03*
G01X40712Y24024D03*
G54D33*
G01X40338Y23650D03*
G01X40338Y23453D03*
G01X40338Y23256D03*
G01X40338Y23059D03*
G01X40338Y22862D03*
G54D34*
G01X40712Y22488D03*
G01X40909Y22488D03*
G01X41106Y22488D03*
G01X41303Y22488D03*
G01X41500Y22488D03*
G54D35*
G01X41106Y23256D03*
G04 Draw part H_R10*
G54D16*
G01X40500Y22150D03*
G01X40706Y22150D03*
G04 Draw part H_X9*
G04 Draw part H_C59*
G04 Draw part H_C60*
G04 Draw part H_C61*
G01X41500Y22150D03*
G01X41706Y22150D03*
G04 Draw part H_C62*
G04 Draw part H_C63*
G04 Draw part H_H18*
G54D19*
G01X40505Y24650D03*
G01X40662Y24650D03*
G01X40819Y24650D03*
G01X40977Y24650D03*
G01X41134Y24650D03*
G01X41292Y24650D03*
G01X41292Y25870D03*
G01X41134Y25870D03*
G01X40977Y25870D03*
G01X40819Y25870D03*
G01X40662Y25870D03*
G01X40505Y25870D03*
G54D20*
G01X40130Y24669D03*
G01X40130Y25850D03*
G01X41666Y25850D03*
G01X41666Y24669D03*
G04 Draw part H_A9*
G54D36*
G01X42220Y21600D03*
G01X39620Y21600D03*
G04 Draw part H_hole11*
G54D37*
G01X39785Y23465D03*
G54D38*
G01X39800Y23250D03*
G01X40000Y23250D03*
G01X40000Y23450D03*
G04 Draw part H_L9*
G54D16*
G01X39800Y22750D03*
G01X39800Y22956D03*
G04 Draw part H_C64*
G01X39600Y23950D03*
G01X39600Y23743D03*
G04 Draw part H_C65*
G01X39900Y23950D03*
G01X39900Y23743D03*
G04 Draw part H_H19*
G04 Draw part H_U10*
G54D33*
G01X46674Y22862D03*
G01X46674Y23059D03*
G01X46674Y23256D03*
G01X46674Y23453D03*
G01X46674Y23650D03*
G54D34*
G01X46300Y24024D03*
G01X46103Y24024D03*
G01X45906Y24024D03*
G01X45709Y24024D03*
G01X45512Y24024D03*
G54D33*
G01X45138Y23650D03*
G01X45138Y23453D03*
G01X45138Y23256D03*
G01X45138Y23059D03*
G01X45138Y22862D03*
G54D34*
G01X45512Y22488D03*
G01X45709Y22488D03*
G01X45906Y22488D03*
G01X46103Y22488D03*
G01X46300Y22488D03*
G54D35*
G01X45906Y23256D03*
G04 Draw part H_R11*
G54D16*
G01X45300Y22150D03*
G01X45506Y22150D03*
G04 Draw part H_X10*
G04 Draw part H_C66*
G04 Draw part H_C67*
G04 Draw part H_C68*
G01X46300Y22150D03*
G01X46506Y22150D03*
G04 Draw part H_C69*
G04 Draw part H_C70*
G04 Draw part H_H20*
G54D19*
G01X45305Y24650D03*
G01X45462Y24650D03*
G01X45619Y24650D03*
G01X45777Y24650D03*
G01X45934Y24650D03*
G01X46092Y24650D03*
G01X46092Y25870D03*
G01X45934Y25870D03*
G01X45777Y25870D03*
G01X45619Y25870D03*
G01X45462Y25870D03*
G01X45305Y25870D03*
G54D20*
G01X44930Y24669D03*
G01X44930Y25850D03*
G01X46466Y25850D03*
G01X46466Y24669D03*
G04 Draw part H_A10*
G54D36*
G01X47020Y21600D03*
G01X44420Y21600D03*
G04 Draw part H_hole12*
G54D37*
G01X44585Y23465D03*
G54D38*
G01X44600Y23250D03*
G01X44800Y23250D03*
G01X44800Y23450D03*
G04 Draw part H_L10*
G54D16*
G01X44600Y22750D03*
G01X44600Y22956D03*
G04 Draw part H_C71*
G01X44400Y23950D03*
G01X44400Y23743D03*
G04 Draw part H_C72*
G01X44700Y23950D03*
G01X44700Y23743D03*
G04 Draw part I_U6*
G54D39*
G01X33300Y43300D03*
G01X33103Y43300D03*
G01X32906Y43300D03*
G01X32906Y42847D03*
G01X33103Y42847D03*
G01X33300Y42847D03*
G04 Draw part I_C22*
G54D40*
G01X32900Y42300D03*
G01X33195Y42300D03*
G04 Draw part I_C23*
G01X33100Y43900D03*
G01X32804Y43900D03*
G04 Draw part I_P9*
G54D11*
G01X29250Y42800D03*
G04 Draw part I_P10*
G01X32150Y42800D03*
G04 Draw part I_H7*
G04 Draw part I_U7*
G54D41*
G01X30244Y46277D03*
G01X30244Y46081D03*
G01X30244Y45884D03*
G01X30244Y45687D03*
G01X30244Y45490D03*
G01X30244Y45293D03*
G01X30244Y45096D03*
G01X30244Y44900D03*
G54D42*
G01X30500Y44644D03*
G01X30696Y44644D03*
G01X30893Y44644D03*
G01X31090Y44644D03*
G01X31287Y44644D03*
G01X31484Y44644D03*
G01X31681Y44644D03*
G01X31877Y44644D03*
G54D41*
G01X32133Y44900D03*
G01X32133Y45096D03*
G01X32133Y45293D03*
G01X32133Y45490D03*
G01X32133Y45687D03*
G01X32133Y45884D03*
G01X32133Y46081D03*
G01X32133Y46277D03*
G54D42*
G01X31877Y46533D03*
G01X31681Y46533D03*
G01X31484Y46533D03*
G01X31287Y46533D03*
G01X31090Y46533D03*
G01X30893Y46533D03*
G01X30696Y46533D03*
G01X30500Y46533D03*
G54D43*
G01X31188Y45588D03*
G04 Draw part I_C24*
G54D16*
G01X32600Y45490D03*
G01X32600Y45696D03*
G04 Draw part I_R5*
G01X30000Y47050D03*
G01X29793Y47050D03*
G04 Draw part I_H8*
G54D19*
G01X30800Y48000D03*
G01X30957Y48000D03*
G01X31114Y48000D03*
G01X31272Y48000D03*
G01X31429Y48000D03*
G01X31587Y48000D03*
G01X31587Y49220D03*
G01X31429Y49220D03*
G01X31272Y49220D03*
G01X31114Y49220D03*
G01X30957Y49220D03*
G01X30800Y49220D03*
G54D20*
G01X30425Y48019D03*
G01X30425Y49200D03*
G01X31961Y49200D03*
G01X31961Y48019D03*
G04 Draw part I_D3*
G54D44*
G01X29500Y44600D03*
G01X29500Y45033D03*
G04 Draw part I_R6*
G54D16*
G01X29100Y44900D03*
G01X29100Y45106D03*
G04 Draw part I_S3*
G54D45*
G01X30129Y42800D03*
G54D46*
G01X31270Y42347D03*
G01X31270Y43252D03*
G04 Draw part I_H9*
G04 Draw part I_P11*
G54D11*
G01X29250Y42300D03*
G04 Draw part I_P12*
G01X32150Y42300D03*
G04 Draw part I_C25*
G54D16*
G01X29700Y45900D03*
G01X29700Y45693D03*
G04 Draw part I_hole5*
G54D21*
G01X33300Y49200D03*
G04 Draw part I_hole6*
G01X28900Y49200D03*
G04 Draw part I_U8*
G54D39*
G01X39600Y43300D03*
G01X39403Y43300D03*
G01X39206Y43300D03*
G01X39206Y42847D03*
G01X39403Y42847D03*
G01X39600Y42847D03*
G04 Draw part I_C26*
G54D40*
G01X39200Y42300D03*
G01X39495Y42300D03*
G04 Draw part I_C27*
G01X39400Y43900D03*
G01X39104Y43900D03*
G04 Draw part I_P13*
G54D11*
G01X35550Y42800D03*
G04 Draw part I_P14*
G01X38450Y42800D03*
G04 Draw part I_H10*
G04 Draw part I_U9*
G54D41*
G01X36544Y46277D03*
G01X36544Y46081D03*
G01X36544Y45884D03*
G01X36544Y45687D03*
G01X36544Y45490D03*
G01X36544Y45293D03*
G01X36544Y45096D03*
G01X36544Y44900D03*
G54D42*
G01X36800Y44644D03*
G01X36996Y44644D03*
G01X37193Y44644D03*
G01X37390Y44644D03*
G01X37587Y44644D03*
G01X37784Y44644D03*
G01X37981Y44644D03*
G01X38177Y44644D03*
G54D41*
G01X38433Y44900D03*
G01X38433Y45096D03*
G01X38433Y45293D03*
G01X38433Y45490D03*
G01X38433Y45687D03*
G01X38433Y45884D03*
G01X38433Y46081D03*
G01X38433Y46277D03*
G54D42*
G01X38177Y46533D03*
G01X37981Y46533D03*
G01X37784Y46533D03*
G01X37587Y46533D03*
G01X37390Y46533D03*
G01X37193Y46533D03*
G01X36996Y46533D03*
G01X36800Y46533D03*
G54D43*
G01X37488Y45588D03*
G04 Draw part I_C28*
G54D16*
G01X38900Y45490D03*
G01X38900Y45696D03*
G04 Draw part I_R7*
G01X36300Y47050D03*
G01X36093Y47050D03*
G04 Draw part I_H11*
G54D19*
G01X37100Y48000D03*
G01X37257Y48000D03*
G01X37414Y48000D03*
G01X37572Y48000D03*
G01X37729Y48000D03*
G01X37887Y48000D03*
G01X37887Y49220D03*
G01X37729Y49220D03*
G01X37572Y49220D03*
G01X37414Y49220D03*
G01X37257Y49220D03*
G01X37100Y49220D03*
G54D20*
G01X36725Y48019D03*
G01X36725Y49200D03*
G01X38261Y49200D03*
G01X38261Y48019D03*
G04 Draw part I_D4*
G54D44*
G01X35800Y44600D03*
G01X35800Y45033D03*
G04 Draw part I_R8*
G54D16*
G01X35400Y44900D03*
G01X35400Y45106D03*
G04 Draw part I_S4*
G54D45*
G01X36429Y42800D03*
G54D46*
G01X37570Y42347D03*
G01X37570Y43252D03*
G04 Draw part I_H12*
G04 Draw part I_P15*
G54D11*
G01X35550Y42300D03*
G04 Draw part I_P16*
G01X38450Y42300D03*
G04 Draw part I_C29*
G54D16*
G01X36000Y45900D03*
G01X36000Y45693D03*
G04 Draw part I_hole7*
G54D21*
G01X39600Y49200D03*
G04 Draw part I_hole8*
G01X35200Y49200D03*
G04 Draw part I_U10*
G54D39*
G01X45700Y43300D03*
G01X45503Y43300D03*
G01X45306Y43300D03*
G01X45306Y42847D03*
G01X45503Y42847D03*
G01X45700Y42847D03*
G04 Draw part I_C30*
G54D40*
G01X45300Y42300D03*
G01X45595Y42300D03*
G04 Draw part I_C31*
G01X45500Y43900D03*
G01X45204Y43900D03*
G04 Draw part I_P17*
G54D11*
G01X41650Y42800D03*
G04 Draw part I_P18*
G01X44550Y42800D03*
G04 Draw part I_H13*
G04 Draw part I_U11*
G54D41*
G01X42644Y46277D03*
G01X42644Y46081D03*
G01X42644Y45884D03*
G01X42644Y45687D03*
G01X42644Y45490D03*
G01X42644Y45293D03*
G01X42644Y45096D03*
G01X42644Y44900D03*
G54D42*
G01X42900Y44644D03*
G01X43096Y44644D03*
G01X43293Y44644D03*
G01X43490Y44644D03*
G01X43687Y44644D03*
G01X43884Y44644D03*
G01X44081Y44644D03*
G01X44277Y44644D03*
G54D41*
G01X44533Y44900D03*
G01X44533Y45096D03*
G01X44533Y45293D03*
G01X44533Y45490D03*
G01X44533Y45687D03*
G01X44533Y45884D03*
G01X44533Y46081D03*
G01X44533Y46277D03*
G54D42*
G01X44277Y46533D03*
G01X44081Y46533D03*
G01X43884Y46533D03*
G01X43687Y46533D03*
G01X43490Y46533D03*
G01X43293Y46533D03*
G01X43096Y46533D03*
G01X42900Y46533D03*
G54D43*
G01X43588Y45588D03*
G04 Draw part I_C32*
G54D16*
G01X45000Y45490D03*
G01X45000Y45696D03*
G04 Draw part I_R9*
G01X42400Y47050D03*
G01X42193Y47050D03*
G04 Draw part I_H14*
G54D19*
G01X43200Y48000D03*
G01X43357Y48000D03*
G01X43514Y48000D03*
G01X43672Y48000D03*
G01X43829Y48000D03*
G01X43987Y48000D03*
G01X43987Y49220D03*
G01X43829Y49220D03*
G01X43672Y49220D03*
G01X43514Y49220D03*
G01X43357Y49220D03*
G01X43200Y49220D03*
G54D20*
G01X42825Y48019D03*
G01X42825Y49200D03*
G01X44361Y49200D03*
G01X44361Y48019D03*
G04 Draw part I_D5*
G54D44*
G01X41900Y44600D03*
G01X41900Y45033D03*
G04 Draw part I_R10*
G54D16*
G01X41500Y44900D03*
G01X41500Y45106D03*
G04 Draw part I_S5*
G54D45*
G01X42529Y42800D03*
G54D46*
G01X43670Y42347D03*
G01X43670Y43252D03*
G04 Draw part I_H15*
G04 Draw part I_P19*
G54D11*
G01X41650Y42300D03*
G04 Draw part I_P20*
G01X44550Y42300D03*
G04 Draw part I_C33*
G54D16*
G01X42100Y45900D03*
G01X42100Y45693D03*
G04 Draw part I_hole9*
G54D21*
G01X45700Y49200D03*
G04 Draw part I_hole10*
G01X41300Y49200D03*
G04 Draw part F_H4*
G04 Draw part F_U7*
G54D22*
G01X12550Y29285D03*
G01X12353Y29285D03*
G01X12156Y29285D03*
G01X11959Y29285D03*
G01X11762Y29285D03*
G01X11565Y29285D03*
G54D23*
G01X11280Y29000D03*
G01X11280Y28803D03*
G01X11280Y28606D03*
G01X11280Y28409D03*
G01X11280Y28212D03*
G01X11280Y28015D03*
G54D22*
G01X11565Y27730D03*
G01X11762Y27730D03*
G01X11959Y27730D03*
G01X12156Y27730D03*
G01X12353Y27730D03*
G01X12550Y27730D03*
G54D23*
G01X12835Y28015D03*
G01X12835Y28212D03*
G01X12835Y28409D03*
G01X12835Y28606D03*
G01X12835Y28803D03*
G01X12835Y29000D03*
G04 Draw part F_U8*
G54D27*
G01X11200Y31800D03*
G01X11200Y31300D03*
G01X11200Y30800D03*
G01X12825Y30800D03*
G01X12825Y31300D03*
G01X12825Y31800D03*
G54D28*
G01X12012Y31949D03*
G54D29*
G01X12012Y30487D03*
G04 Draw part F_R9*
G04 Draw part F_R10*
G04 Draw part F_C15*
G04 Draw part F_C16*
G04 Draw part F_C17*
G04 Draw part F_C18*
G04 Draw part F_C19*
G04 Draw part F_C20*
G04 Draw part F_J17*
G54D16*
G01X10800Y28100D03*
G01X10593Y28100D03*
G04 Draw part F_J18*
G01X10800Y27900D03*
G01X10593Y27900D03*
G04 Draw part F_J19*
G01X10600Y31100D03*
G01X10600Y31306D03*
G04 Draw part F_J20*
G01X10600Y32180D03*
G01X10600Y32386D03*
G04 Draw part F_J21*
G01X10800Y28600D03*
G01X10800Y28806D03*
G01X10800Y28393D03*
G04 Draw part F_J22*
G01X13270Y28300D03*
G01X13270Y28506D03*
G04 Draw part F_T3*
G54D30*
G01X10260Y31660D03*
G01X10260Y32289D03*
G04 Draw part F_R11*
G04 Draw part F_U9*
G54D31*
G01X10800Y30200D03*
G01X10544Y30200D03*
G01X10288Y30200D03*
G01X10288Y29471D03*
G01X10544Y29471D03*
G01X10800Y29471D03*
G54D32*
G01X10544Y29835D03*
G04 Draw part F_J23*
G54D16*
G01X10300Y30800D03*
G01X10300Y31006D03*
G01X10300Y30593D03*
G04 Draw part F_J24*
G01X10280Y29100D03*
G01X10280Y28893D03*
G04 Draw part F_R12*
G04 Draw part F_C21*
G04 Draw part F_P11*
G04 Draw part F_hole6*
G01X10600Y28800D03*
G01X10600Y28593D03*
G04 Draw part F_H5*
G04 Draw part F_U10*
G54D22*
G01X17350Y29185D03*
G01X17153Y29185D03*
G01X16956Y29185D03*
G01X16759Y29185D03*
G01X16562Y29185D03*
G01X16365Y29185D03*
G54D23*
G01X16080Y28900D03*
G01X16080Y28703D03*
G01X16080Y28506D03*
G01X16080Y28309D03*
G01X16080Y28112D03*
G01X16080Y27915D03*
G54D22*
G01X16365Y27630D03*
G01X16562Y27630D03*
G01X16759Y27630D03*
G01X16956Y27630D03*
G01X17153Y27630D03*
G01X17350Y27630D03*
G54D23*
G01X17635Y27915D03*
G01X17635Y28112D03*
G01X17635Y28309D03*
G01X17635Y28506D03*
G01X17635Y28703D03*
G01X17635Y28900D03*
G04 Draw part F_U11*
G54D27*
G01X16000Y31700D03*
G01X16000Y31200D03*
G01X16000Y30700D03*
G01X17625Y30700D03*
G01X17625Y31200D03*
G01X17625Y31700D03*
G54D28*
G01X16812Y31849D03*
G54D29*
G01X16812Y30387D03*
G04 Draw part F_R13*
G04 Draw part F_R14*
G04 Draw part F_C22*
G04 Draw part F_C23*
G04 Draw part F_C24*
G04 Draw part F_C25*
G04 Draw part F_C26*
G04 Draw part F_C27*
G04 Draw part F_J25*
G54D16*
G01X15600Y28000D03*
G01X15393Y28000D03*
G04 Draw part F_J26*
G01X15600Y27800D03*
G01X15393Y27800D03*
G04 Draw part F_J27*
G01X15400Y31000D03*
G01X15400Y31206D03*
G04 Draw part F_J28*
G01X15400Y32080D03*
G01X15400Y32286D03*
G04 Draw part F_J29*
G01X15600Y28500D03*
G01X15600Y28706D03*
G01X15600Y28293D03*
G04 Draw part F_J30*
G01X18070Y28200D03*
G01X18070Y28406D03*
G04 Draw part F_T4*
G54D30*
G01X15060Y31560D03*
G01X15060Y32189D03*
G04 Draw part F_R15*
G04 Draw part F_U12*
G54D31*
G01X15600Y30100D03*
G01X15344Y30100D03*
G01X15088Y30100D03*
G01X15088Y29371D03*
G01X15344Y29371D03*
G01X15600Y29371D03*
G54D32*
G01X15344Y29735D03*
G04 Draw part F_J31*
G54D16*
G01X15100Y30700D03*
G01X15100Y30906D03*
G01X15100Y30493D03*
G04 Draw part F_J32*
G01X15080Y29000D03*
G01X15080Y28793D03*
G04 Draw part F_R16*
G04 Draw part F_C28*
G04 Draw part F_P12*
G04 Draw part F_hole7*
G01X15400Y28700D03*
G01X15400Y28493D03*
G04 Draw part F_H6*
G04 Draw part F_U13*
G54D22*
G01X22250Y29185D03*
G01X22053Y29185D03*
G01X21856Y29185D03*
G01X21659Y29185D03*
G01X21462Y29185D03*
G01X21265Y29185D03*
G54D23*
G01X20980Y28900D03*
G01X20980Y28703D03*
G01X20980Y28506D03*
G01X20980Y28309D03*
G01X20980Y28112D03*
G01X20980Y27915D03*
G54D22*
G01X21265Y27630D03*
G01X21462Y27630D03*
G01X21659Y27630D03*
G01X21856Y27630D03*
G01X22053Y27630D03*
G01X22250Y27630D03*
G54D23*
G01X22535Y27915D03*
G01X22535Y28112D03*
G01X22535Y28309D03*
G01X22535Y28506D03*
G01X22535Y28703D03*
G01X22535Y28900D03*
G04 Draw part F_U14*
G54D27*
G01X20900Y31700D03*
G01X20900Y31200D03*
G01X20900Y30700D03*
G01X22525Y30700D03*
G01X22525Y31200D03*
G01X22525Y31700D03*
G54D28*
G01X21712Y31849D03*
G54D29*
G01X21712Y30387D03*
G04 Draw part F_R17*
G04 Draw part F_R18*
G04 Draw part F_C29*
G04 Draw part F_C30*
G04 Draw part F_C31*
G04 Draw part F_C32*
G04 Draw part F_C33*
G04 Draw part F_C34*
G04 Draw part F_J33*
G54D16*
G01X20500Y28000D03*
G01X20293Y28000D03*
G04 Draw part F_J34*
G01X20500Y27800D03*
G01X20293Y27800D03*
G04 Draw part F_J35*
G01X20300Y31000D03*
G01X20300Y31206D03*
G04 Draw part F_J36*
G01X20300Y32080D03*
G01X20300Y32286D03*
G04 Draw part F_J37*
G01X20500Y28500D03*
G01X20500Y28706D03*
G01X20500Y28293D03*
G04 Draw part F_J38*
G01X22970Y28200D03*
G01X22970Y28406D03*
G04 Draw part F_T5*
G54D30*
G01X19960Y31560D03*
G01X19960Y32189D03*
G04 Draw part F_R19*
G04 Draw part F_U15*
G54D31*
G01X20500Y30100D03*
G01X20244Y30100D03*
G01X19988Y30100D03*
G01X19988Y29371D03*
G01X20244Y29371D03*
G01X20500Y29371D03*
G54D32*
G01X20244Y29735D03*
G04 Draw part F_J39*
G54D16*
G01X20000Y30700D03*
G01X20000Y30906D03*
G01X20000Y30493D03*
G04 Draw part F_J40*
G01X19980Y29000D03*
G01X19980Y28793D03*
G04 Draw part F_R20*
G04 Draw part F_C35*
G04 Draw part F_P13*
G04 Draw part F_hole8*
G01X20300Y28700D03*
G01X20300Y28493D03*
G04 Draw part E_P28*
G04 Draw part E_P29*
G54D26*
G01X24800Y38200D03*
G04 Draw part E_P30*
G01X25300Y40600D03*
G04 Draw part E_P31*
G01X24800Y40600D03*
G04 Draw part E_P32*
G01X25800Y40600D03*
G04 Draw part E_P33*
G01X26800Y40600D03*
G04 Draw part E_P34*
G01X27300Y40600D03*
G04 Draw part E_P35*
G01X25300Y38200D03*
G04 Draw part E_P36*
G01X26300Y40600D03*
G04 Draw part E_P37*
G01X27300Y38200D03*
G04 Draw part E_P38*
G01X26800Y38200D03*
G04 Draw part E_P39*
G01X25800Y38200D03*
G04 Draw part E_P40*
G01X26300Y38200D03*
G04 Draw part E_P41*
G04 Draw part E_P42*
G01X28900Y38200D03*
G04 Draw part E_P43*
G01X29400Y40600D03*
G04 Draw part E_P44*
G01X28900Y40600D03*
G04 Draw part E_P45*
G01X29900Y40600D03*
G04 Draw part E_P46*
G01X30900Y40600D03*
G04 Draw part E_P47*
G01X31400Y40600D03*
G04 Draw part E_P48*
G01X29400Y38200D03*
G04 Draw part E_P49*
G01X30400Y40600D03*
G04 Draw part E_P50*
G01X31400Y38200D03*
G04 Draw part E_P51*
G01X30900Y38200D03*
G04 Draw part E_P52*
G01X29900Y38200D03*
G04 Draw part E_P53*
G01X30400Y38200D03*
G04 Draw part E_P54*
G04 Draw part E_P55*
G01X33100Y38200D03*
G04 Draw part E_P56*
G01X33600Y40600D03*
G04 Draw part E_P57*
G01X33100Y40600D03*
G04 Draw part E_P58*
G01X34100Y40600D03*
G04 Draw part E_P59*
G01X35100Y40600D03*
G04 Draw part E_P60*
G01X35600Y40600D03*
G04 Draw part E_P61*
G01X33600Y38200D03*
G04 Draw part E_P62*
G01X34600Y40600D03*
G04 Draw part E_P63*
G01X35600Y38200D03*
G04 Draw part E_P64*
G01X35100Y38200D03*
G04 Draw part E_P65*
G01X34100Y38200D03*
G04 Draw part E_P66*
G01X34600Y38200D03*
G04 Draw part E_P67*
G04 Draw part E_P68*
G01X37200Y38200D03*
G04 Draw part E_P69*
G01X37700Y40600D03*
G04 Draw part E_P70*
G01X37200Y40600D03*
G04 Draw part E_P71*
G01X38200Y40600D03*
G04 Draw part E_P72*
G01X39200Y40600D03*
G04 Draw part E_P73*
G01X39700Y40600D03*
G04 Draw part E_P74*
G01X37700Y38200D03*
G04 Draw part E_P75*
G01X38700Y40600D03*
G04 Draw part E_P76*
G01X39700Y38200D03*
G04 Draw part E_P77*
G01X39200Y38200D03*
G04 Draw part E_P78*
G01X38200Y38200D03*
G04 Draw part E_P79*
G01X38700Y38200D03*
G04 Draw part E_P80*
G04 Draw part E_P81*
G01X41400Y38200D03*
G04 Draw part E_P82*
G01X41900Y40600D03*
G04 Draw part E_P83*
G01X41400Y40600D03*
G04 Draw part E_P84*
G01X42400Y40600D03*
G04 Draw part E_P85*
G01X43400Y40600D03*
G04 Draw part E_P86*
G01X43900Y40600D03*
G04 Draw part E_P87*
G01X41900Y38200D03*
G04 Draw part E_P88*
G01X42900Y40600D03*
G04 Draw part E_P89*
G01X43900Y38200D03*
G04 Draw part E_P90*
G01X43400Y38200D03*
G04 Draw part E_P91*
G01X42400Y38200D03*
G04 Draw part E_P92*
G01X42900Y38200D03*
G04 Draw part E_P93*
G04 Draw part E_P94*
G01X45500Y38200D03*
G04 Draw part E_P95*
G01X46000Y40600D03*
G04 Draw part E_P96*
G01X45500Y40600D03*
G04 Draw part E_P97*
G01X46500Y40600D03*
G04 Draw part E_P98*
G01X47500Y40600D03*
G04 Draw part E_P99*
G01X48000Y40600D03*
G04 Draw part E_P100*
G01X46000Y38200D03*
G04 Draw part E_P101*
G01X47000Y40600D03*
G04 Draw part E_P102*
G01X48000Y38200D03*
G04 Draw part E_P103*
G01X47500Y38200D03*
G04 Draw part E_P104*
G01X46500Y38200D03*
G04 Draw part E_P105*
G01X47000Y38200D03*
G04 Draw part A_p12*
G54D11*
G01X5700Y37100D03*
G04 Draw part A_p13*
G01X5700Y37600D03*
G04 Draw part A_p14*
G01X8600Y37100D03*
G04 Draw part A_p15*
G01X8600Y37600D03*
G04 Draw part A_p16*
G54D12*
G01X6100Y37350D03*
G01X8100Y37350D03*
G04 Draw part A_p17*
G54D11*
G01X5700Y34500D03*
G04 Draw part A_p18*
G01X5700Y35000D03*
G04 Draw part A_p19*
G01X8600Y34500D03*
G04 Draw part A_p20*
G01X8600Y35000D03*
G04 Draw part A_p21*
G54D12*
G01X6100Y34750D03*
G01X8100Y34750D03*
G04 Draw part A_p22*
G54D11*
G01X10400Y37100D03*
G04 Draw part A_p23*
G01X10400Y37600D03*
G04 Draw part A_p24*
G01X13300Y37100D03*
G04 Draw part A_p25*
G01X13300Y37600D03*
G04 Draw part A_p26*
G54D12*
G01X10800Y37350D03*
G01X12800Y37350D03*
G04 Draw part A_p27*
G54D11*
G01X10400Y34500D03*
G04 Draw part A_p28*
G01X10400Y35000D03*
G04 Draw part A_p29*
G01X13300Y34500D03*
G04 Draw part A_p30*
G01X13300Y35000D03*
G04 Draw part A_p31*
G54D12*
G01X10800Y34750D03*
G01X12800Y34750D03*
G04 Draw part A_p32*
G54D11*
G01X15200Y34500D03*
G04 Draw part A_p33*
G01X15200Y35000D03*
G04 Draw part A_p34*
G01X18100Y34500D03*
G04 Draw part A_p35*
G01X18100Y35000D03*
G04 Draw part A_p36*
G54D12*
G01X15600Y34750D03*
G01X17600Y34750D03*
G04 Draw part A_p37*
G54D11*
G01X19900Y34500D03*
G04 Draw part A_p38*
G01X19900Y35000D03*
G04 Draw part A_p39*
G01X22800Y34500D03*
G04 Draw part A_p40*
G01X22800Y35000D03*
G04 Draw part A_p41*
G54D12*
G01X20300Y34750D03*
G01X22300Y34750D03*
G04 Draw part A_p42*
G54D11*
G01X49100Y8500D03*
G04 Draw part A_p43*
G01X49600Y8500D03*
G04 Draw part A_p44*
G01X49100Y5600D03*
G04 Draw part A_p45*
G01X49600Y5600D03*
G04 Draw part A_p46*
G54D53*
G01X49350Y8100D03*
G01X49350Y6100D03*
G04 Draw part A_p47*
G54D11*
G01X49100Y3600D03*
G04 Draw part A_p48*
G01X49600Y3600D03*
G04 Draw part A_p49*
G01X49100Y700D03*
G04 Draw part A_p50*
G01X49600Y700D03*
G04 Draw part A_p51*
G54D53*
G01X49350Y3200D03*
G01X49350Y1200D03*
G04 Draw part E_P106*
G04 Draw part E_P107*
G54D26*
G01X47200Y42300D03*
G04 Draw part E_P108*
G01X47700Y44700D03*
G04 Draw part E_P109*
G01X47200Y44700D03*
G04 Draw part E_P110*
G01X48200Y44700D03*
G04 Draw part E_P111*
G01X49200Y44700D03*
G04 Draw part E_P112*
G01X49700Y44700D03*
G04 Draw part E_P113*
G01X47700Y42300D03*
G04 Draw part E_P114*
G01X48700Y44700D03*
G04 Draw part E_P115*
G01X49700Y42300D03*
G04 Draw part E_P116*
G01X49200Y42300D03*
G04 Draw part E_P117*
G01X48200Y42300D03*
G04 Draw part E_P118*
G01X48700Y42300D03*
G04 Draw part E_P119*
G04 Draw part E_P120*
G01X47200Y46700D03*
G04 Draw part E_P121*
G01X47700Y49100D03*
G04 Draw part E_P122*
G01X47200Y49100D03*
G04 Draw part E_P123*
G01X48200Y49100D03*
G04 Draw part E_P124*
G01X49200Y49100D03*
G04 Draw part E_P125*
G01X49700Y49100D03*
G04 Draw part E_P126*
G01X47700Y46700D03*
G04 Draw part E_P127*
G01X48700Y49100D03*
G04 Draw part E_P128*
G01X49700Y46700D03*
G04 Draw part E_P129*
G01X49200Y46700D03*
G04 Draw part E_P130*
G01X48200Y46700D03*
G04 Draw part E_P131*
G01X48700Y46700D03*
G04 Draw part A_p52*
G54D11*
G01X24900Y34500D03*
G04 Draw part A_p53*
G01X24900Y35000D03*
G04 Draw part A_p54*
G01X27800Y34500D03*
G04 Draw part A_p55*
G01X27800Y35000D03*
G04 Draw part A_p56*
G54D12*
G01X25300Y34750D03*
G01X27300Y34750D03*
G04 Draw part A_p57*
G54D11*
G01X29600Y34500D03*
G04 Draw part A_p58*
G01X29600Y35000D03*
G04 Draw part A_p59*
G01X32500Y34500D03*
G04 Draw part A_p60*
G01X32500Y35000D03*
G04 Draw part A_p61*
G54D12*
G01X30000Y34750D03*
G01X32000Y34750D03*
G04 Draw part A_p62*
G54D11*
G01X34300Y34500D03*
G04 Draw part A_p63*
G01X34300Y35000D03*
G04 Draw part A_p64*
G01X37200Y34500D03*
G04 Draw part A_p65*
G01X37200Y35000D03*
G04 Draw part A_p66*
G54D12*
G01X34700Y34750D03*
G01X36700Y34750D03*
G04 Draw part A_p67*
G54D11*
G01X39100Y34500D03*
G04 Draw part A_p68*
G01X39100Y35000D03*
G04 Draw part A_p69*
G01X42000Y34500D03*
G04 Draw part A_p70*
G01X42000Y35000D03*
G04 Draw part A_p71*
G54D12*
G01X39500Y34750D03*
G01X41500Y34750D03*
G04 Draw part A_p72*
G54D11*
G01X43800Y34500D03*
G04 Draw part A_p73*
G01X43800Y35000D03*
G04 Draw part A_p74*
G01X46700Y34500D03*
G04 Draw part A_p75*
G01X46700Y35000D03*
G04 Draw part A_p76*
G54D12*
G01X44200Y34750D03*
G01X46200Y34750D03*
G04 Draw part A_p77*
G54D11*
G01X49100Y18400D03*
G04 Draw part A_p78*
G01X49600Y18400D03*
G04 Draw part A_p79*
G01X49100Y15500D03*
G04 Draw part A_p80*
G01X49600Y15500D03*
G04 Draw part A_p81*
G54D53*
G01X49350Y18000D03*
G01X49350Y16000D03*
G04 Draw part A_p82*
G54D11*
G01X49100Y13500D03*
G04 Draw part A_p83*
G01X49600Y13500D03*
G04 Draw part A_p84*
G01X49100Y10600D03*
G04 Draw part A_p85*
G01X49600Y10600D03*
G04 Draw part A_p86*
G54D53*
G01X49350Y13100D03*
G01X49350Y11100D03*
G04 Draw part A_p87*
G54D11*
G01X49100Y28400D03*
G04 Draw part A_p88*
G01X49600Y28400D03*
G04 Draw part A_p89*
G01X49100Y25500D03*
G04 Draw part A_p90*
G01X49600Y25500D03*
G04 Draw part A_p91*
G54D53*
G01X49350Y28000D03*
G01X49350Y26000D03*
G04 Draw part A_p92*
G54D11*
G01X49100Y23500D03*
G04 Draw part A_p93*
G01X49600Y23500D03*
G04 Draw part A_p94*
G01X49100Y20600D03*
G04 Draw part A_p95*
G01X49600Y20600D03*
G04 Draw part A_p96*
G54D53*
G01X49350Y23100D03*
G01X49350Y21100D03*
G04 Draw part A_p102*
G54D11*
G01X49100Y33300D03*
G04 Draw part A_p103*
G01X49600Y33300D03*
G04 Draw part A_p104*
G01X49100Y30400D03*
G04 Draw part A_p105*
G01X49600Y30400D03*
G04 Draw part A_p106*
G54D53*
G01X49350Y32900D03*
G01X49350Y30900D03*
G04 Draw part C_H21*
G54D19*
G01X25805Y30900D03*
G01X25962Y30900D03*
G01X26119Y30900D03*
G01X26277Y30900D03*
G01X26434Y30900D03*
G01X26592Y30900D03*
G01X26592Y32120D03*
G01X26434Y32120D03*
G01X26277Y32120D03*
G01X26119Y32120D03*
G01X25962Y32120D03*
G01X25805Y32120D03*
G54D20*
G01X25430Y30919D03*
G01X25430Y32100D03*
G01X26966Y32100D03*
G01X26966Y30919D03*
G04 Draw part C_H22*
G04 Draw part C_U11*
G54D22*
G01X26690Y29785D03*
G01X26493Y29785D03*
G01X26296Y29785D03*
G01X26099Y29785D03*
G01X25902Y29785D03*
G01X25705Y29785D03*
G54D23*
G01X25420Y29500D03*
G01X25420Y29303D03*
G01X25420Y29106D03*
G01X25420Y28909D03*
G01X25420Y28712D03*
G01X25420Y28515D03*
G54D22*
G01X25705Y28230D03*
G01X25902Y28230D03*
G01X26099Y28230D03*
G01X26296Y28230D03*
G01X26493Y28230D03*
G01X26690Y28230D03*
G54D23*
G01X26975Y28515D03*
G01X26975Y28712D03*
G01X26975Y28909D03*
G01X26975Y29106D03*
G01X26975Y29303D03*
G01X26975Y29500D03*
G04 Draw part C_J111*
G54D16*
G01X27700Y29100D03*
G01X27493Y29100D03*
G04 Draw part C_C41*
G01X27700Y28700D03*
G01X27493Y28700D03*
G04 Draw part C_J112*
G01X26500Y27600D03*
G01X26500Y27806D03*
G04 Draw part C_J113*
G01X26100Y27600D03*
G01X26100Y27806D03*
G04 Draw part C_C42*
G01X25700Y27800D03*
G01X25700Y27593D03*
G04 Draw part C_J114*
G01X24900Y28000D03*
G01X24693Y28000D03*
G04 Draw part C_J115*
G01X24900Y28600D03*
G01X24693Y28600D03*
G04 Draw part C_C43*
G01X24900Y28900D03*
G01X24693Y28900D03*
G04 Draw part C_J116*
G01X24900Y30100D03*
G01X25106Y30100D03*
G01X24693Y30100D03*
G04 Draw part C_J117*
G01X25100Y30500D03*
G01X25306Y30500D03*
G01X24893Y30500D03*
G04 Draw part C_C44*
G01X24890Y31050D03*
G01X24890Y31256D03*
G04 Draw part C_J118*
G01X27500Y30500D03*
G01X27706Y30500D03*
G01X27293Y30500D03*
G04 Draw part C_J119*
G01X27200Y30100D03*
G01X27406Y30100D03*
G01X26993Y30100D03*
G04 Draw part C_J120*
G01X26700Y30200D03*
G01X26700Y30406D03*
G04 Draw part C_J121*
G01X26200Y30200D03*
G01X26200Y30406D03*
G04 Draw part C_R21*
G04 Draw part C_R22*
G04 Draw part C_H23*
G54D19*
G01X30605Y30800D03*
G01X30762Y30800D03*
G01X30919Y30800D03*
G01X31077Y30800D03*
G01X31234Y30800D03*
G01X31392Y30800D03*
G01X31392Y32020D03*
G01X31234Y32020D03*
G01X31077Y32020D03*
G01X30919Y32020D03*
G01X30762Y32020D03*
G01X30605Y32020D03*
G54D20*
G01X30230Y30819D03*
G01X30230Y32000D03*
G01X31766Y32000D03*
G01X31766Y30819D03*
G04 Draw part C_H24*
G04 Draw part C_U12*
G54D22*
G01X31490Y29685D03*
G01X31293Y29685D03*
G01X31096Y29685D03*
G01X30899Y29685D03*
G01X30702Y29685D03*
G01X30505Y29685D03*
G54D23*
G01X30220Y29400D03*
G01X30220Y29203D03*
G01X30220Y29006D03*
G01X30220Y28809D03*
G01X30220Y28612D03*
G01X30220Y28415D03*
G54D22*
G01X30505Y28130D03*
G01X30702Y28130D03*
G01X30899Y28130D03*
G01X31096Y28130D03*
G01X31293Y28130D03*
G01X31490Y28130D03*
G54D23*
G01X31775Y28415D03*
G01X31775Y28612D03*
G01X31775Y28809D03*
G01X31775Y29006D03*
G01X31775Y29203D03*
G01X31775Y29400D03*
G04 Draw part C_J122*
G54D16*
G01X32500Y29000D03*
G01X32293Y29000D03*
G04 Draw part C_C45*
G01X32500Y28600D03*
G01X32293Y28600D03*
G04 Draw part C_J123*
G01X31300Y27500D03*
G01X31300Y27706D03*
G04 Draw part C_J124*
G01X30900Y27500D03*
G01X30900Y27706D03*
G04 Draw part C_C46*
G01X30500Y27700D03*
G01X30500Y27493D03*
G04 Draw part C_J125*
G01X29700Y27900D03*
G01X29493Y27900D03*
G04 Draw part C_J126*
G01X29700Y28500D03*
G01X29493Y28500D03*
G04 Draw part C_C47*
G01X29700Y28800D03*
G01X29493Y28800D03*
G04 Draw part C_J127*
G01X29700Y30000D03*
G01X29906Y30000D03*
G01X29493Y30000D03*
G04 Draw part C_J128*
G01X29900Y30400D03*
G01X30106Y30400D03*
G01X29693Y30400D03*
G04 Draw part C_C48*
G01X29690Y30950D03*
G01X29690Y31156D03*
G04 Draw part C_J129*
G01X32300Y30400D03*
G01X32506Y30400D03*
G01X32093Y30400D03*
G04 Draw part C_J130*
G01X32000Y30000D03*
G01X32206Y30000D03*
G01X31793Y30000D03*
G04 Draw part C_J131*
G01X31500Y30100D03*
G01X31500Y30306D03*
G04 Draw part C_J132*
G01X31000Y30100D03*
G01X31000Y30306D03*
G04 Draw part C_R23*
G04 Draw part C_R24*
G04 Draw part C_H25*
G54D19*
G01X35605Y30800D03*
G01X35762Y30800D03*
G01X35919Y30800D03*
G01X36077Y30800D03*
G01X36234Y30800D03*
G01X36392Y30800D03*
G01X36392Y32020D03*
G01X36234Y32020D03*
G01X36077Y32020D03*
G01X35919Y32020D03*
G01X35762Y32020D03*
G01X35605Y32020D03*
G54D20*
G01X35230Y30819D03*
G01X35230Y32000D03*
G01X36766Y32000D03*
G01X36766Y30819D03*
G04 Draw part C_H26*
G04 Draw part C_U13*
G54D22*
G01X36490Y29685D03*
G01X36293Y29685D03*
G01X36096Y29685D03*
G01X35899Y29685D03*
G01X35702Y29685D03*
G01X35505Y29685D03*
G54D23*
G01X35220Y29400D03*
G01X35220Y29203D03*
G01X35220Y29006D03*
G01X35220Y28809D03*
G01X35220Y28612D03*
G01X35220Y28415D03*
G54D22*
G01X35505Y28130D03*
G01X35702Y28130D03*
G01X35899Y28130D03*
G01X36096Y28130D03*
G01X36293Y28130D03*
G01X36490Y28130D03*
G54D23*
G01X36775Y28415D03*
G01X36775Y28612D03*
G01X36775Y28809D03*
G01X36775Y29006D03*
G01X36775Y29203D03*
G01X36775Y29400D03*
G04 Draw part C_J133*
G54D16*
G01X37500Y29000D03*
G01X37293Y29000D03*
G04 Draw part C_C49*
G01X37500Y28600D03*
G01X37293Y28600D03*
G04 Draw part C_J134*
G01X36300Y27500D03*
G01X36300Y27706D03*
G04 Draw part C_J135*
G01X35900Y27500D03*
G01X35900Y27706D03*
G04 Draw part C_C50*
G01X35500Y27700D03*
G01X35500Y27493D03*
G04 Draw part C_J136*
G01X34700Y27900D03*
G01X34493Y27900D03*
G04 Draw part C_J137*
G01X34700Y28500D03*
G01X34493Y28500D03*
G04 Draw part C_C51*
G01X34700Y28800D03*
G01X34493Y28800D03*
G04 Draw part C_J138*
G01X34700Y30000D03*
G01X34906Y30000D03*
G01X34493Y30000D03*
G04 Draw part C_J139*
G01X34900Y30400D03*
G01X35106Y30400D03*
G01X34693Y30400D03*
G04 Draw part C_C52*
G01X34690Y30950D03*
G01X34690Y31156D03*
G04 Draw part C_J140*
G01X37300Y30400D03*
G01X37506Y30400D03*
G01X37093Y30400D03*
G04 Draw part C_J141*
G01X37000Y30000D03*
G01X37206Y30000D03*
G01X36793Y30000D03*
G04 Draw part C_J142*
G01X36500Y30100D03*
G01X36500Y30306D03*
G04 Draw part C_J143*
G01X36000Y30100D03*
G01X36000Y30306D03*
G04 Draw part C_R25*
G04 Draw part C_R26*
G04 Draw part C_H27*
G54D19*
G01X40405Y30700D03*
G01X40562Y30700D03*
G01X40719Y30700D03*
G01X40877Y30700D03*
G01X41034Y30700D03*
G01X41192Y30700D03*
G01X41192Y31920D03*
G01X41034Y31920D03*
G01X40877Y31920D03*
G01X40719Y31920D03*
G01X40562Y31920D03*
G01X40405Y31920D03*
G54D20*
G01X40030Y30719D03*
G01X40030Y31900D03*
G01X41566Y31900D03*
G01X41566Y30719D03*
G04 Draw part C_H28*
G04 Draw part C_U14*
G54D22*
G01X41290Y29585D03*
G01X41093Y29585D03*
G01X40896Y29585D03*
G01X40699Y29585D03*
G01X40502Y29585D03*
G01X40305Y29585D03*
G54D23*
G01X40020Y29300D03*
G01X40020Y29103D03*
G01X40020Y28906D03*
G01X40020Y28709D03*
G01X40020Y28512D03*
G01X40020Y28315D03*
G54D22*
G01X40305Y28030D03*
G01X40502Y28030D03*
G01X40699Y28030D03*
G01X40896Y28030D03*
G01X41093Y28030D03*
G01X41290Y28030D03*
G54D23*
G01X41575Y28315D03*
G01X41575Y28512D03*
G01X41575Y28709D03*
G01X41575Y28906D03*
G01X41575Y29103D03*
G01X41575Y29300D03*
G04 Draw part C_J144*
G54D16*
G01X42300Y28900D03*
G01X42093Y28900D03*
G04 Draw part C_C53*
G01X42300Y28500D03*
G01X42093Y28500D03*
G04 Draw part C_J145*
G01X41100Y27400D03*
G01X41100Y27606D03*
G04 Draw part C_J146*
G01X40700Y27400D03*
G01X40700Y27606D03*
G04 Draw part C_C54*
G01X40300Y27600D03*
G01X40300Y27393D03*
G04 Draw part C_J147*
G01X39500Y27800D03*
G01X39293Y27800D03*
G04 Draw part C_J148*
G01X39500Y28400D03*
G01X39293Y28400D03*
G04 Draw part C_C55*
G01X39500Y28700D03*
G01X39293Y28700D03*
G04 Draw part C_J149*
G01X39500Y29900D03*
G01X39706Y29900D03*
G01X39293Y29900D03*
G04 Draw part C_J150*
G01X39700Y30300D03*
G01X39906Y30300D03*
G01X39493Y30300D03*
G04 Draw part C_C56*
G01X39490Y30850D03*
G01X39490Y31056D03*
G04 Draw part C_J151*
G01X42100Y30300D03*
G01X42306Y30300D03*
G01X41893Y30300D03*
G04 Draw part C_J152*
G01X41800Y29900D03*
G01X42006Y29900D03*
G01X41593Y29900D03*
G04 Draw part C_J153*
G01X41300Y30000D03*
G01X41300Y30206D03*
G04 Draw part C_J154*
G01X40800Y30000D03*
G01X40800Y30206D03*
G04 Draw part C_R27*
G04 Draw part C_R28*
G04 Draw part C_H29*
G54D19*
G01X45205Y30700D03*
G01X45362Y30700D03*
G01X45519Y30700D03*
G01X45677Y30700D03*
G01X45834Y30700D03*
G01X45992Y30700D03*
G01X45992Y31920D03*
G01X45834Y31920D03*
G01X45677Y31920D03*
G01X45519Y31920D03*
G01X45362Y31920D03*
G01X45205Y31920D03*
G54D20*
G01X44830Y30719D03*
G01X44830Y31900D03*
G01X46366Y31900D03*
G01X46366Y30719D03*
G04 Draw part C_H30*
G04 Draw part C_U15*
G54D22*
G01X46090Y29585D03*
G01X45893Y29585D03*
G01X45696Y29585D03*
G01X45499Y29585D03*
G01X45302Y29585D03*
G01X45105Y29585D03*
G54D23*
G01X44820Y29300D03*
G01X44820Y29103D03*
G01X44820Y28906D03*
G01X44820Y28709D03*
G01X44820Y28512D03*
G01X44820Y28315D03*
G54D22*
G01X45105Y28030D03*
G01X45302Y28030D03*
G01X45499Y28030D03*
G01X45696Y28030D03*
G01X45893Y28030D03*
G01X46090Y28030D03*
G54D23*
G01X46375Y28315D03*
G01X46375Y28512D03*
G01X46375Y28709D03*
G01X46375Y28906D03*
G01X46375Y29103D03*
G01X46375Y29300D03*
G04 Draw part C_J155*
G54D16*
G01X47100Y28900D03*
G01X46893Y28900D03*
G04 Draw part C_C57*
G01X47100Y28500D03*
G01X46893Y28500D03*
G04 Draw part C_J156*
G01X45900Y27400D03*
G01X45900Y27606D03*
G04 Draw part C_J157*
G01X45500Y27400D03*
G01X45500Y27606D03*
G04 Draw part C_C58*
G01X45100Y27600D03*
G01X45100Y27393D03*
G04 Draw part C_J158*
G01X44300Y27800D03*
G01X44093Y27800D03*
G04 Draw part C_J159*
G01X44300Y28400D03*
G01X44093Y28400D03*
G04 Draw part C_C59*
G01X44300Y28700D03*
G01X44093Y28700D03*
G04 Draw part C_J160*
G01X44300Y29900D03*
G01X44506Y29900D03*
G01X44093Y29900D03*
G04 Draw part C_J161*
G01X44500Y30300D03*
G01X44706Y30300D03*
G01X44293Y30300D03*
G04 Draw part C_C60*
G01X44290Y30850D03*
G01X44290Y31056D03*
G04 Draw part C_J162*
G01X46900Y30300D03*
G01X47106Y30300D03*
G01X46693Y30300D03*
G04 Draw part C_J163*
G01X46600Y29900D03*
G01X46806Y29900D03*
G01X46393Y29900D03*
G04 Draw part C_J164*
G01X46100Y30000D03*
G01X46100Y30206D03*
G04 Draw part C_J165*
G01X45600Y30000D03*
G01X45600Y30206D03*
G04 Draw part C_R29*
G04 Draw part C_R30*

G04 Draw traces*

G04 Draw Text*

G04 Draw solder mask cutouts*
M00*
M02*
