G04 FreePCB version 1.359*
G04 C:\Users\Jack Ruby\Documents\GitHub\DAQpack_mk2\breakoutModule_CAM\bottom_copper.grb*
G04 bottom copper layer *
G04 Scale: 100 percent, Rotated: No, Reflected: No *
%FSLAX24Y24*%
%MOIN*%
%LN bottom copper *%
G04 Rounded Rectangle Macro, params: W/2, H/2, R *
%AMRNDREC*
21,1,$1+$1,$2+$2-$3-$3,0,0,0*
21,1,$1+$1-$3-$3,$2+$2,0,0,0*
1,1,$3+$3,$1-$3,$2-$3*
1,1,$3+$3,$3-$1,$2-$3*
1,1,$3+$3,$1-$3,$3-$2*
1,1,$3+$3,$3-$1,$3-$2*%
G04 Rectangular Thermal Macro, params: W/2, H/2, T/2 *
%AMRECTHERM*
$4=$3/2*
21,1,$1-$3,$2-$3,0-$1/2-$4,0-$2/2-$4,0*
21,1,$1-$3,$2-$3,0-$1/2-$4,$2/2+$4,0*
21,1,$1-$3,$2-$3,$1/2+$4,0-$2/2-$4,0*
21,1,$1-$3,$2-$3,$1/2+$4,$2/2+$4,0*%
%ADD10C,0.005000*%
%ADD11R,0.008661X0.035433*%
%ADD12R,0.019685X0.033465*%
%ADD13C,0.034000*%
%ADD14C,0.004000*%
G90*
G70D02*

G04 Step and Repeat for panelization *

G04 ----------------------- Draw board outline (positive)*
%LPD*%
G54D10*
G01X-1600Y1500D02*
G01X1500Y1500D01*
G04 end of side 1*
G01X1500Y-1500D01*
G04 end of side 2*
G01X-1600Y-1500D01*
G04 end of side 3*
G01X-1600Y1500D01*

G04 -------------- Draw Parts, Pads, Traces, Vias and Text (positive)*
%LPD*%
G04 Draw part P1*
G54D11*
G01X350Y-500D03*
G01X192Y-500D03*
G01X35Y-500D03*
G01X-122Y-500D03*
G01X-279Y-500D03*
G01X-437Y-500D03*
G01X-437Y535D03*
G01X-279Y535D03*
G01X-122Y535D03*
G01X35Y535D03*
G01X192Y535D03*
G01X350Y535D03*
G54D12*
G01X664Y-273D03*
G01X664Y309D03*
G01X-752Y309D03*
G01X-752Y-273D03*
G04 Draw part P3*
G54D13*
G01X-1300Y-1200D03*
G04 Draw part P4*
G01X-800Y1200D03*
G04 Draw part P5*
G01X-1300Y1200D03*
G04 Draw part P6*
G01X-300Y1200D03*
G04 Draw part P7*
G01X700Y1200D03*
G04 Draw part P8*
G01X1200Y1200D03*
G04 Draw part P9*
G01X-800Y-1200D03*
G04 Draw part P10*
G01X200Y1200D03*
G04 Draw part P11*
G01X1200Y-1200D03*
G04 Draw part P12*
G01X700Y-1200D03*
G04 Draw part P13*
G01X-300Y-1200D03*
G04 Draw part P14*
G01X200Y-1200D03*

G04 Draw traces*
G54D14*
G01X35Y-500D02*
G01X40Y-690D01*
G01X40Y-690D02*
G01X40Y-1040D01*
G01X40Y-1040D02*
G01X200Y-1200D01*
G01X192Y-500D02*
G01X190Y-700D01*
G01X190Y-700D02*
G01X700Y-1210D01*
G01X700Y-1210D02*
G01X720Y-1210D01*
G01X720Y-1210D02*
G01X700Y-1200D01*
G01X350Y535D02*
G01X360Y630D01*
G01X360Y630D02*
G01X640Y630D01*
G01X640Y630D02*
G01X1210Y1200D01*
G01X1210Y1200D02*
G01X1170Y1220D01*
G01X1170Y1220D02*
G01X1200Y1200D01*
G01X350Y-500D02*
G01X350Y-590D01*
G01X350Y-590D02*
G01X640Y-590D01*
G01X640Y-590D02*
G01X1170Y-1120D01*
G01X1170Y-1120D02*
G01X1180Y-1240D01*
G01X1180Y-1240D02*
G01X1200Y-1200D01*
G01X192Y535D02*
G01X190Y730D01*
G01X190Y730D02*
G01X570Y1110D01*
G01X570Y1110D02*
G01X630Y1140D01*
G01X630Y1140D02*
G01X700Y1200D01*
G01X35Y535D02*
G01X40Y600D01*
G01X40Y600D02*
G01X40Y1040D01*
G01X40Y1040D02*
G01X200Y1200D01*
G01X-122Y535D02*
G01X-140Y600D01*
G01X-140Y600D02*
G01X-130Y690D01*
G01X-130Y690D02*
G01X-130Y1030D01*
G01X-130Y1030D02*
G01X-300Y1200D01*
G01X-279Y535D02*
G01X-280Y670D01*
G01X-280Y670D02*
G01X-280Y730D01*
G01X-280Y730D02*
G01X-660Y1110D01*
G01X-660Y1110D02*
G01X-800Y1200D01*
G01X-437Y535D02*
G01X-460Y630D01*
G01X-460Y630D02*
G01X-740Y630D01*
G01X-740Y630D02*
G01X-1320Y1210D01*
G01X-1320Y1210D02*
G01X-1300Y1200D01*
G01X-437Y-500D02*
G01X-430Y-590D01*
G01X-430Y-590D02*
G01X-700Y-590D01*
G01X-700Y-590D02*
G01X-1300Y-1190D01*
G01X-1300Y-1190D02*
G01X-1240Y-1210D01*
G01X-1240Y-1210D02*
G01X-1300Y-1200D01*
G01X-279Y-500D02*
G01X-280Y-700D01*
G01X-280Y-700D02*
G01X-730Y-1150D01*
G01X-730Y-1150D02*
G01X-750Y-1140D01*
G01X-750Y-1140D02*
G01X-800Y-1200D01*
G01X-122Y-500D02*
G01X-130Y-690D01*
G01X-130Y-690D02*
G01X-130Y-1040D01*
G01X-130Y-1040D02*
G01X-220Y-1140D01*
G01X-220Y-1140D02*
G01X-300Y-1200D01*

G04 Draw Text*
M00*
M02*
