;Holesize 1 =   25.0 PLATED MILS
;Holesize 2 =    8.0 PLATED MILS
M48
INCH,00.0000
T01C0.025
T02C0.008
%
G05
G90
T01
X000650Y000800
X003550Y000800
X000650Y000300
X003550Y000300
T02
X001790Y005050
X003590Y005490
X002290Y006530
X002170Y001970
X002090Y005050
X003590Y004900
X002390Y005050
X003590Y005190
X002620Y005490
X003290Y005190
X003180Y006530
X003320Y002240
X002620Y005190
X002990Y005190
X002690Y002240
X002680Y006530
X002990Y002240
X001450Y002210
X002780Y006780
X003790Y002460
X002100Y006780
X000500Y002600
X002590Y003790
X003290Y005490
X001400Y004540
X002670Y000350
X001400Y005690
X002680Y001250
X004770Y001700
M30
