G04 FreePCB version 1.359*
G04 C:\Users\Jack Ruby\Documents\GitHub\DAQpack_mk2\DAQ_v2_SD_CAM\top_copper.grb*
G04 top copper layer *
G04 Scale: 100 percent, Rotated: No, Reflected: No *
%FSLAX24Y24*%
%MOIN*%
%LN top copper *%
G04 Rounded Rectangle Macro, params: W/2, H/2, R *
%AMRNDREC*
21,1,$1+$1,$2+$2-$3-$3,0,0,0*
21,1,$1+$1-$3-$3,$2+$2,0,0,0*
1,1,$3+$3,$1-$3,$2-$3*
1,1,$3+$3,$3-$1,$2-$3*
1,1,$3+$3,$1-$3,$3-$2*
1,1,$3+$3,$3-$1,$3-$2*%
G04 Rectangular Thermal Macro, params: W/2, H/2, T/2 *
%AMRECTHERM*
$4=$3/2*
21,1,$1-$3,$2-$3,0-$1/2-$4,0-$2/2-$4,0*
21,1,$1-$3,$2-$3,0-$1/2-$4,$2/2+$4,0*
21,1,$1-$3,$2-$3,$1/2+$4,0-$2/2-$4,0*
21,1,$1-$3,$2-$3,$1/2+$4,$2/2+$4,0*%
%ADD10C,0.005000*%
%ADD11R,0.011024X0.033465*%
%ADD12R,0.019685X0.023622*%
%ADD13C,0.040000*%
%ADD14R,0.023622X0.009055*%
%ADD15R,0.009055X0.023622*%
%ADD16R,0.122047X0.122047*%
%ADD17R,0.011811X0.011811*%
%ADD18R,0.008661X0.027559*%
%ADD19R,0.039370X0.019685*%
%ADD20R,0.019685X0.027559*%
%ADD21R,0.062992X0.062992*%
%ADD22R,0.063000X0.043000*%
%ADD23C,0.004000*%
%ADD24C,0.016000*%
%ADD25C,0.008000*%
G90*
G70D02*

G04 Step and Repeat for panelization *

G04 ----------------------- Draw board outline (positive)*
%LPD*%
G54D10*
G01X0Y0D02*
G01X5000Y0D01*
G04 end of side 1*
G01X5000Y7500D01*
G04 end of side 2*
G01X0Y7500D01*
G04 end of side 3*
G01X0Y0D01*

G04 -------------- Draw Parts, Pads, Traces, Vias and Text (positive)*
%LPD*%
G04 Draw part U3*
G54D11*
G01X4700Y1300D03*
G01X4503Y1300D03*
G01X4306Y1300D03*
G01X4306Y847D03*
G01X4503Y847D03*
G01X4700Y847D03*
G04 Draw part C14*
G54D12*
G01X4300Y300D03*
G01X4595Y300D03*
G04 Draw part C15*
G01X4500Y1900D03*
G01X4204Y1900D03*
G04 Draw part P1*
G54D13*
G01X650Y800D03*
G04 Draw part P2*
G01X3550Y800D03*
G04 Draw part H2*
G04 Draw part U1*
G54D14*
G01X1644Y4277D03*
G01X1644Y4081D03*
G01X1644Y3884D03*
G01X1644Y3687D03*
G01X1644Y3490D03*
G01X1644Y3293D03*
G01X1644Y3096D03*
G01X1644Y2900D03*
G54D15*
G01X1900Y2644D03*
G01X2096Y2644D03*
G01X2293Y2644D03*
G01X2490Y2644D03*
G01X2687Y2644D03*
G01X2884Y2644D03*
G01X3081Y2644D03*
G01X3277Y2644D03*
G54D14*
G01X3533Y2900D03*
G01X3533Y3096D03*
G01X3533Y3293D03*
G01X3533Y3490D03*
G01X3533Y3687D03*
G01X3533Y3884D03*
G01X3533Y4081D03*
G01X3533Y4277D03*
G54D15*
G01X3277Y4533D03*
G01X3081Y4533D03*
G01X2884Y4533D03*
G01X2687Y4533D03*
G01X2490Y4533D03*
G01X2293Y4533D03*
G01X2096Y4533D03*
G01X1900Y4533D03*
G54D16*
G01X2588Y3588D03*
G04 Draw part C16*
G54D17*
G01X4000Y3490D03*
G01X4000Y3696D03*
G04 Draw part R1*
G01X1400Y5050D03*
G01X1193Y5050D03*
G04 Draw part H1*
G54D18*
G01X2200Y6000D03*
G01X2357Y6000D03*
G01X2514Y6000D03*
G01X2672Y6000D03*
G01X2829Y6000D03*
G01X2987Y6000D03*
G01X2987Y7220D03*
G01X2829Y7220D03*
G01X2672Y7220D03*
G01X2514Y7220D03*
G01X2357Y7220D03*
G01X2200Y7220D03*
G54D19*
G01X1825Y6019D03*
G01X1825Y7200D03*
G01X3361Y7200D03*
G01X3361Y6019D03*
G04 Draw part D1*
G54D20*
G01X900Y2600D03*
G01X900Y3033D03*
G04 Draw part R2*
G54D17*
G01X500Y2900D03*
G01X500Y3106D03*
G04 Draw part S1*
G54D21*
G01X1529Y800D03*
G54D22*
G01X2670Y347D03*
G01X2670Y1252D03*
G04 Draw part H3*
G04 Draw part P3*
G54D13*
G01X650Y300D03*
G04 Draw part P4*
G01X3550Y300D03*
G04 Draw part C17*
G54D17*
G01X1100Y3900D03*
G01X1100Y3693D03*

G04 Draw traces*
G54D23*
G01X2200Y6000D02*
G01X2200Y5820D01*
G01X2200Y5820D02*
G01X1790Y5410D01*
G01X1790Y5410D02*
G01X1790Y5050D01*
G54D24*
G01X1790Y5050D03*
G01X3590Y5490D03*
G54D23*
G01X3590Y5490D02*
G01X3890Y5190D01*
G01X3890Y5190D02*
G01X3890Y4190D01*
G01X3890Y4190D02*
G01X3780Y4080D01*
G01X3780Y4080D02*
G01X3533Y4081D01*
G54D25*
G01X2357Y7220D02*
G01X2360Y7160D01*
G01X2360Y7160D02*
G01X2360Y6600D01*
G01X2360Y6600D02*
G01X2290Y6530D01*
G54D24*
G01X2290Y6530D03*
G54D25*
G01X1193Y5050D02*
G01X210Y5050D01*
G01X210Y5050D02*
G01X210Y6340D01*
G01X210Y6340D02*
G01X400Y6530D01*
G01X400Y6530D02*
G01X2290Y6530D01*
G01X1644Y3687D02*
G01X1630Y3690D01*
G01X1630Y3690D02*
G01X1340Y3690D01*
G01X1340Y3690D02*
G01X210Y3690D01*
G01X210Y3690D02*
G01X210Y5050D01*
G01X1644Y3293D02*
G01X1740Y3290D01*
G01X1740Y3290D02*
G01X1400Y3290D01*
G01X1400Y3290D02*
G01X1340Y3350D01*
G01X1340Y3350D02*
G01X1340Y3690D01*
G54D24*
G01X2170Y1970D03*
G54D25*
G01X2170Y1970D02*
G01X2170Y1890D01*
G01X2170Y1890D02*
G01X310Y1890D01*
G01X310Y1890D02*
G01X210Y1990D01*
G01X210Y1990D02*
G01X210Y3690D01*
G01X3533Y3096D02*
G01X3893Y3096D01*
G01X3893Y3096D02*
G01X4170Y2820D01*
G01X4170Y2820D02*
G01X4170Y1970D01*
G01X4170Y1970D02*
G01X4150Y1890D01*
G01X4150Y1890D02*
G01X2170Y1890D01*
G01X2170Y1890D02*
G01X2170Y1970D01*
G01X4204Y1900D02*
G01X4170Y1970D01*
G01X4306Y1300D02*
G01X4306Y1563D01*
G01X4306Y1563D02*
G01X4200Y1670D01*
G01X4200Y1670D02*
G01X4200Y1850D01*
G01X4200Y1850D02*
G01X4204Y1900D01*
G01X1100Y3693D02*
G01X1146Y3693D01*
G01X1146Y3693D02*
G01X1150Y3690D01*
G01X1150Y3690D02*
G01X1640Y3690D01*
G01X1640Y3690D02*
G01X1644Y3687D01*
G54D23*
G01X2357Y6000D02*
G01X2360Y6000D01*
G01X2360Y6000D02*
G01X2360Y5780D01*
G01X2360Y5780D02*
G01X2090Y5510D01*
G01X2090Y5510D02*
G01X2090Y5050D01*
G54D24*
G01X2090Y5050D03*
G01X3590Y4900D03*
G54D23*
G01X3590Y4900D02*
G01X3590Y4640D01*
G01X3590Y4640D02*
G01X3530Y4580D01*
G01X3530Y4580D02*
G01X3530Y4310D01*
G01X3530Y4310D02*
G01X3533Y4277D01*
G01X2514Y6000D02*
G01X2520Y6030D01*
G01X2520Y6030D02*
G01X2520Y5740D01*
G01X2520Y5740D02*
G01X2390Y5610D01*
G01X2390Y5610D02*
G01X2390Y5050D01*
G54D24*
G01X2390Y5050D03*
G01X3590Y5190D03*
G54D23*
G01X3590Y5190D02*
G01X3280Y4880D01*
G01X3280Y4880D02*
G01X3280Y4530D01*
G01X3280Y4530D02*
G01X3277Y4533D01*
G54D25*
G01X3533Y3490D02*
G01X4000Y3490D01*
G54D23*
G01X4000Y3490D02*
G01X4010Y3500D01*
G01X4010Y3500D02*
G01X4000Y3490D01*
G01X2672Y6000D02*
G01X2670Y5980D01*
G01X2670Y5980D02*
G01X2670Y5690D01*
G01X2670Y5690D02*
G01X2620Y5640D01*
G01X2620Y5640D02*
G01X2620Y5490D01*
G54D24*
G01X2620Y5490D03*
G01X3290Y5190D03*
G54D23*
G01X3290Y5190D02*
G01X3080Y4980D01*
G01X3080Y4980D02*
G01X3080Y4640D01*
G01X3080Y4640D02*
G01X3081Y4533D01*
G01X2293Y2644D02*
G01X2293Y2473D01*
G01X2293Y2473D02*
G01X2220Y2400D01*
G01X2220Y2400D02*
G01X950Y2400D01*
G01X950Y2400D02*
G01X900Y2450D01*
G01X900Y2450D02*
G01X900Y2600D01*
G01X500Y3106D02*
G01X500Y3160D01*
G01X500Y3160D02*
G01X530Y3190D01*
G01X530Y3190D02*
G01X870Y3190D01*
G01X870Y3190D02*
G01X900Y3160D01*
G01X900Y3160D02*
G01X900Y3033D01*
G01X2829Y7220D02*
G01X2830Y7140D01*
G01X2830Y7140D02*
G01X2830Y7000D01*
G01X2830Y7000D02*
G01X3180Y6650D01*
G01X3180Y6650D02*
G01X3180Y6530D01*
G54D24*
G01X3180Y6530D03*
G01X3320Y2240D03*
G54D23*
G01X3320Y2240D02*
G01X3490Y2140D01*
G01X3490Y2140D02*
G01X3880Y2140D01*
G01X3880Y2140D02*
G01X3990Y2250D01*
G01X3990Y2250D02*
G01X3990Y2700D01*
G01X3990Y2700D02*
G01X3790Y2900D01*
G01X3790Y2900D02*
G01X3530Y2900D01*
G01X3530Y2900D02*
G01X3533Y2900D01*
G54D25*
G01X650Y800D02*
G01X1370Y800D01*
G01X1370Y800D02*
G01X1320Y800D01*
G01X1320Y800D02*
G01X1529Y800D01*
G54D23*
G01X2687Y4533D02*
G01X2690Y4570D01*
G01X2690Y4570D02*
G01X2690Y4960D01*
G01X2690Y4960D02*
G01X2620Y5030D01*
G01X2620Y5030D02*
G01X2620Y5190D01*
G54D24*
G01X2620Y5190D03*
G01X2990Y5190D03*
G54D23*
G01X2990Y5190D02*
G01X2990Y5970D01*
G01X2990Y5970D02*
G01X2987Y6000D01*
G54D24*
G01X2690Y2240D03*
G54D23*
G01X2690Y2240D02*
G01X2690Y2650D01*
G01X2690Y2650D02*
G01X2687Y2644D01*
G01X2514Y7220D02*
G01X2520Y7140D01*
G01X2520Y7140D02*
G01X2520Y6690D01*
G01X2520Y6690D02*
G01X2680Y6530D01*
G54D24*
G01X2680Y6530D03*
G01X2990Y2240D03*
G54D23*
G01X2990Y2240D02*
G01X2990Y2310D01*
G01X2990Y2310D02*
G01X3080Y2400D01*
G01X3080Y2400D02*
G01X3080Y2580D01*
G01X3080Y2580D02*
G01X3081Y2644D01*
G54D24*
G01X1450Y2210D03*
G54D23*
G01X1450Y2210D02*
G01X2370Y2210D01*
G01X2370Y2210D02*
G01X2490Y2330D01*
G01X2490Y2330D02*
G01X2490Y2390D01*
G01X2490Y2390D02*
G01X2490Y2644D01*
G01X2672Y7220D02*
G01X2670Y7160D01*
G01X2670Y7160D02*
G01X2670Y6890D01*
G01X2670Y6890D02*
G01X2780Y6780D01*
G54D24*
G01X2780Y6780D03*
G01X3790Y2460D03*
G54D23*
G01X3790Y2460D02*
G01X3350Y2460D01*
G01X3350Y2460D02*
G01X3280Y2530D01*
G01X3280Y2530D02*
G01X3277Y2644D01*
G54D25*
G01X2200Y7220D02*
G01X2200Y6880D01*
G01X2200Y6880D02*
G01X2100Y6780D01*
G54D24*
G01X2100Y6780D03*
G54D25*
G01X2588Y3588D02*
G01X2110Y3510D01*
G01X2110Y3510D02*
G01X2090Y3490D01*
G01X2090Y3490D02*
G01X1644Y3490D01*
G01X1644Y3884D02*
G01X2104Y3884D01*
G01X2104Y3884D02*
G01X2130Y3910D01*
G01X2130Y3910D02*
G01X2588Y3588D01*
G01X3533Y3687D02*
G01X3102Y3687D01*
G01X3102Y3687D02*
G01X3040Y3750D01*
G01X3040Y3750D02*
G01X2588Y3588D01*
G01X4000Y3696D02*
G01X3596Y3696D01*
G01X3596Y3696D02*
G01X3590Y3690D01*
G01X3590Y3690D02*
G01X3533Y3687D01*
G01X4300Y300D02*
G01X4310Y310D01*
G01X4310Y310D02*
G01X4310Y450D01*
G01X4310Y450D02*
G01X4503Y643D01*
G01X4503Y643D02*
G01X4503Y847D01*
G01X4306Y847D02*
G01X4310Y770D01*
G01X4310Y770D02*
G01X4310Y450D01*
G01X4503Y847D02*
G01X4503Y1273D01*
G01X4503Y1273D02*
G01X4520Y1290D01*
G01X4520Y1290D02*
G01X4503Y1300D01*
G01X4500Y1900D02*
G01X4510Y1900D01*
G01X4510Y1900D02*
G01X4503Y1893D01*
G01X4503Y1893D02*
G01X4503Y1300D01*
G01X3550Y300D02*
G01X3550Y800D01*
G01X3550Y300D02*
G01X4320Y300D01*
G01X4320Y300D02*
G01X4300Y300D01*
G01X2588Y3588D02*
G01X2588Y3588D01*
G01X2588Y3588D02*
G01X2590Y3820D01*
G01X2590Y3820D02*
G01X2590Y3890D01*
G01X500Y2900D02*
G01X500Y2600D01*
G54D24*
G01X500Y2600D03*
G54D25*
G01X1100Y3900D02*
G01X1110Y3910D01*
G01X1110Y3910D02*
G01X1135Y3884D01*
G01X1135Y3884D02*
G01X1644Y3884D01*
G01X2588Y3588D02*
G01X2588Y3588D01*
G01X2588Y3588D02*
G01X2590Y3650D01*
G01X2590Y3650D02*
G01X2590Y3790D01*
G54D24*
G01X2590Y3790D03*
G54D23*
G01X2987Y7220D02*
G01X2987Y7082D01*
G01X2987Y7082D02*
G01X3710Y6360D01*
G01X3710Y6360D02*
G01X3710Y5740D01*
G01X3710Y5740D02*
G01X3650Y5680D01*
G01X3650Y5680D02*
G01X3460Y5680D01*
G01X3460Y5680D02*
G01X3290Y5510D01*
G01X3290Y5510D02*
G01X3290Y5490D01*
G54D24*
G01X3290Y5490D03*
G01X1400Y4540D03*
G54D23*
G01X1400Y4540D02*
G01X1890Y4540D01*
G01X1890Y4540D02*
G01X1900Y4533D01*
G01X2884Y4533D02*
G01X2890Y4540D01*
G01X2890Y4540D02*
G01X2890Y5001D01*
G01X2890Y5001D02*
G01X2800Y5090D01*
G01X2800Y5090D02*
G01X2800Y5390D01*
G01X2800Y5390D02*
G01X2830Y5420D01*
G01X2830Y5420D02*
G01X2829Y6039D01*
G01X2829Y6039D02*
G01X2830Y6040D01*
G01X2830Y6040D02*
G01X2829Y6000D01*
G54D25*
G01X2670Y347D02*
G01X2670Y349D01*
G01X2670Y349D02*
G01X2670Y350D01*
G54D24*
G01X2670Y350D03*
G54D23*
G01X1400Y5050D02*
G01X1400Y5690D01*
G54D24*
G01X1400Y5690D03*
G54D23*
G01X2490Y4533D02*
G01X2490Y4729D01*
G01X2490Y4729D02*
G01X2400Y4820D01*
G01X2400Y4820D02*
G01X1550Y4820D01*
G01X1550Y4820D02*
G01X1400Y4970D01*
G01X1400Y4970D02*
G01X1400Y5050D01*
G54D25*
G01X4700Y847D02*
G01X4700Y1340D01*
G01X4700Y1340D02*
G01X4700Y1300D01*
G01X4700Y847D02*
G01X4700Y880D01*
G01X4700Y880D02*
G01X4700Y540D01*
G01X4700Y540D02*
G01X4595Y435D01*
G01X4595Y435D02*
G01X4595Y300D01*
G01X2670Y1252D02*
G01X2677Y1252D01*
G01X2677Y1252D02*
G01X2680Y1250D01*
G54D24*
G01X2680Y1250D03*
G01X4770Y1700D03*
G54D25*
G01X4770Y1700D02*
G01X4700Y1630D01*
G01X4700Y1630D02*
G01X4700Y1300D01*

G04 Draw Text*
M00*
M02*
