G04 FreePCB version 1.359*
G04 C:\Users\Jack Ruby\Documents\GitHub\DAQpack_mk2\bioampModule_CAM\bottom_copper.grb*
G04 bottom copper layer *
G04 Scale: 100 percent, Rotated: No, Reflected: No *
%FSLAX24Y24*%
%MOIN*%
%LN bottom copper *%
G04 Rounded Rectangle Macro, params: W/2, H/2, R *
%AMRNDREC*
21,1,$1+$1,$2+$2-$3-$3,0,0,0*
21,1,$1+$1-$3-$3,$2+$2,0,0,0*
1,1,$3+$3,$1-$3,$2-$3*
1,1,$3+$3,$3-$1,$2-$3*
1,1,$3+$3,$1-$3,$3-$2*
1,1,$3+$3,$3-$1,$3-$2*%
G04 Rectangular Thermal Macro, params: W/2, H/2, T/2 *
%AMRECTHERM*
$4=$3/2*
21,1,$1-$3,$2-$3,0-$1/2-$4,0-$2/2-$4,0*
21,1,$1-$3,$2-$3,0-$1/2-$4,$2/2+$4,0*
21,1,$1-$3,$2-$3,$1/2+$4,0-$2/2-$4,0*
21,1,$1-$3,$2-$3,$1/2+$4,$2/2+$4,0*%
%ADD10C,0.005000*%
%ADD11R,0.030000X0.055433*%
%ADD12R,0.039685X0.053465*%
%ADD13C,0.054000*%
%ADD14C,0.038000*%
%ADD15C,0.026000*%
%ADD16C,0.024000*%
%ADD17R,0.008661X0.035433*%
%ADD18R,0.019685X0.033465*%
%ADD19C,0.034000*%
%ADD20C,0.016000*%
%ADD21C,0.006000*%
%ADD22C,0.004000*%
G90*
G70D02*

G04 Step and Repeat for panelization *

G04 ----------------------- Draw board outline (positive)*
%LPD*%
G54D10*
G01X0Y0D02*
G01X0Y5150D01*
G04 end of side 1*
G01X3430Y5150D01*
G04 end of side 2*
G01X3430Y0D01*
G04 end of side 3*
G01X0Y0D01*

G04 ----------------------- Draw copper area (positive)*
G36*
G01X3330Y3170D02*
G01X3320Y3160D01*
G01X3220Y3060D01*
G01X2620Y3060D01*
G01X2140Y2580D01*
G01X2140Y2400D01*
G01X2230Y2310D01*
G01X2230Y1730D01*
G01X2360Y1730D01*
G01X2360Y1630D01*
G01X2360Y1540D01*
G01X2670Y1540D01*
G01X2750Y1620D01*
G01X3330Y1620D01*
G01X3330Y100D01*
G01X100Y100D01*
G01X100Y5050D01*
G01X3330Y5050D01*
G01X3330Y3170D01*
G37*

G04 -------------------- Draw copper area cutout (negative)*
%LPC*%
G36*
G01X1450Y4420D02*
G01X1150Y4420D01*
G01X1150Y4170D01*
G01X1450Y4170D01*
G01X1450Y4420D01*
G37*

G04 -------------------- Draw copper area cutout (negative)*
G36*
G01X2510Y3760D02*
G01X1090Y3750D01*
G01X1090Y3110D01*
G01X2230Y3110D01*
G01X2510Y3350D01*
G01X2710Y3390D01*
G01X2710Y3580D01*
G01X2510Y3580D01*
G01X2510Y3760D01*
G37*

G04 -------------------- Draw copper area clearances (negative)*
%LPC*%

G04 Draw clearances for pads*
G54D11*
G01X2095Y3690D03*
G01X1937Y3690D03*
G01X1780Y3690D03*
G01X1622Y3690D03*
G01X1465Y3690D03*
G01X1307Y3690D03*
G01X1307Y4725D03*
G01X1465Y4725D03*
G01X1622Y4725D03*
G01X1780Y4725D03*
G01X1937Y4725D03*
G01X2095Y4725D03*
G54D12*
G01X2409Y3916D03*
G01X2409Y4499D03*
G01X992Y4499D03*
G01X992Y3916D03*
G54D13*
G01X3150Y2000D03*
G01X3150Y2500D03*
G01X3150Y1500D03*

G04 Draw clearances for traces*
G54D14*
G01X1370Y2890D03*
G54D15*
G01X1370Y2890D02*
G01X2410Y2890D01*
G01X2410Y2890D02*
G01X2110Y2590D01*
G01X2110Y2590D02*
G01X2220Y2700D01*
G01X2220Y2700D02*
G01X2110Y2590D01*
G01X2110Y2590D02*
G01X2110Y2410D01*
G01X2110Y2410D02*
G01X2210Y2310D01*
G54D14*
G01X2210Y2030D03*
G54D15*
G01X2210Y2310D02*
G01X2210Y2030D01*
G54D14*
G01X1700Y1390D03*
G54D15*
G01X1700Y1390D02*
G01X1850Y1390D01*
G01X1850Y1390D02*
G01X2210Y1750D01*
G01X2210Y1750D02*
G01X2210Y2030D01*
G01X1465Y4725D02*
G01X1470Y4730D01*
G01X1470Y4730D02*
G01X1470Y5020D01*
G01X1470Y5020D02*
G01X3300Y5020D01*
G01X3300Y5020D02*
G01X3300Y3170D01*
G01X3300Y3170D02*
G01X3220Y3090D01*
G01X3220Y3090D02*
G01X2820Y3090D01*
G54D14*
G01X2880Y3090D03*
G54D15*
G01X2820Y3090D02*
G01X2880Y3090D01*
G01X2880Y3090D02*
G01X2610Y3090D01*
G01X2610Y3090D02*
G01X2110Y2590D01*
G01X2110Y2590D02*
G01X2410Y2890D01*
G01X2410Y2890D02*
G01X1370Y2890D01*
G54D14*
G01X1461Y4420D03*
G54D16*
G01X1461Y4420D02*
G01X1465Y4425D01*
G01X1465Y4425D02*
G01X1465Y4725D01*
G01X1307Y3690D02*
G01X1307Y4007D01*
G54D14*
G01X1305Y4000D03*
G54D16*
G01X1307Y4007D02*
G01X1305Y4000D01*
G01X1465Y3690D02*
G01X1465Y4175D01*
G54D14*
G01X1461Y4140D03*
G54D16*
G01X1465Y4175D02*
G01X1461Y4140D01*
G01X1622Y3690D02*
G01X1622Y4007D01*
G54D14*
G01X1620Y4000D03*
G54D16*
G01X1622Y4007D02*
G01X1620Y4000D01*
G54D14*
G01X1370Y2630D03*
G54D15*
G01X1370Y2630D02*
G01X1050Y2630D01*
G01X1050Y2630D02*
G01X1050Y3050D01*
G01X1050Y3050D02*
G01X1090Y3090D01*
G01X1090Y3090D02*
G01X2260Y3090D01*
G01X2260Y3090D02*
G01X2500Y3330D01*
G54D14*
G01X2710Y3330D03*
G54D15*
G01X2500Y3330D02*
G01X2710Y3330D01*
G54D14*
G01X400Y2700D03*
G54D15*
G01X400Y2700D02*
G01X640Y2460D01*
G01X640Y2460D02*
G01X810Y2630D01*
G01X810Y2630D02*
G01X1050Y2630D01*
G54D14*
G01X410Y1600D03*
G54D15*
G01X410Y1600D02*
G01X640Y1830D01*
G01X640Y1830D02*
G01X640Y2460D01*
G01X640Y2460D02*
G01X400Y2700D01*
G54D16*
G01X1780Y3690D02*
G01X1780Y4179D01*
G54D14*
G01X1777Y4140D03*
G54D16*
G01X1780Y4179D02*
G01X1777Y4140D01*
G01X1937Y4725D02*
G01X1937Y4302D01*
G54D14*
G01X1940Y4280D03*
G54D16*
G01X1937Y4302D02*
G01X1940Y4280D01*
G01X2095Y3690D02*
G01X2095Y4175D01*
G54D14*
G01X2092Y4140D03*
G54D16*
G01X2095Y4175D02*
G01X2092Y4140D01*
G54D14*
G01X2380Y1590D03*
G01X2380Y2500D03*
G54D16*
G01X2380Y1590D02*
G01X2380Y2500D01*
G01X1622Y4725D02*
G01X1620Y4740D01*
G54D14*
G01X1620Y4280D03*
G54D16*
G01X1620Y4740D02*
G01X1620Y4280D01*
G01X1780Y4725D02*
G01X1790Y4710D01*
G01X1790Y4710D02*
G01X1780Y4610D01*
G01X1780Y4610D02*
G01X1780Y4480D01*
G54D14*
G01X1777Y4420D03*
G54D16*
G01X1780Y4480D02*
G01X1777Y4420D01*
G54D14*
G01X2600Y2720D03*
G01X2600Y1750D03*
G54D16*
G01X2600Y2720D02*
G01X2600Y1750D01*
G54D14*
G01X1305Y4280D03*
G01X900Y590D03*
G01X900Y1000D03*
G54D16*
G01X900Y590D02*
G01X900Y1000D01*
G01X2095Y4725D02*
G01X2095Y4435D01*
G54D14*
G01X2092Y4420D03*
G54D16*
G01X2095Y4435D02*
G01X2092Y4420D01*
G54D14*
G01X2600Y970D03*
G54D16*
G01X2600Y970D02*
G01X2600Y1470D01*
G01X2600Y1470D02*
G01X2810Y1680D01*
G54D14*
G01X2810Y2260D03*
G54D16*
G01X2810Y1680D02*
G01X2810Y2260D01*
G01X1937Y3690D02*
G01X1937Y4007D01*
G54D14*
G01X1935Y4000D03*
G54D16*
G01X1937Y4007D02*
G01X1935Y4000D01*

G04 Draw clearances for text*

G04 -------------- Draw Parts, Pads, Traces, Vias and Text (positive)*
%LPD*%
G04 Draw part U1*
G04 Draw part H1*
G04 Draw part H2*
G54D17*
G01X2095Y3690D03*
G01X1937Y3690D03*
G01X1780Y3690D03*
G01X1622Y3690D03*
G01X1465Y3690D03*
G01X1307Y3690D03*
G01X1307Y4725D03*
G01X1465Y4725D03*
G01X1622Y4725D03*
G01X1780Y4725D03*
G01X1937Y4725D03*
G01X2095Y4725D03*
G54D18*
G01X2409Y3916D03*
G01X2409Y4499D03*
G01X992Y4499D03*
G01X992Y3916D03*
G04 Draw part U2*
G04 Draw part U3*
G04 Draw part C1*
G04 Draw part R1*
G04 Draw part R2*
G04 Draw part R3*
G04 Draw part R4*
G04 Draw part R5*
G04 Draw part C2*
G04 Draw part C3*
G04 Draw part P1*
G54D19*
G01X3150Y2000D03*
G04 Draw part P2*
G01X3150Y2500D03*
G04 Draw part P3*
G01X3150Y1500D03*
G04 Draw part R6*
G04 Draw part R7*
G04 Draw part R8*
G04 Draw part R9*
G04 Draw part R10*
G04 Draw part C4*
G04 Draw part R11*

G04 Draw traces*
G54D20*
G01X1370Y2890D03*
G54D21*
G01X1370Y2890D02*
G01X2410Y2890D01*
G01X2410Y2890D02*
G01X2110Y2590D01*
G01X2110Y2590D02*
G01X2220Y2700D01*
G01X2220Y2700D02*
G01X2110Y2590D01*
G01X2110Y2590D02*
G01X2110Y2410D01*
G01X2110Y2410D02*
G01X2210Y2310D01*
G01X2210Y2310D02*
G01X2210Y2030D01*
G54D20*
G01X2210Y2030D03*
G01X1700Y1390D03*
G54D21*
G01X1700Y1390D02*
G01X1850Y1390D01*
G01X1850Y1390D02*
G01X2210Y1750D01*
G01X2210Y1750D02*
G01X2210Y2030D01*
G01X1465Y4725D02*
G01X1470Y4730D01*
G01X1470Y4730D02*
G01X1470Y5020D01*
G01X1470Y5020D02*
G01X3300Y5020D01*
G01X3300Y5020D02*
G01X3300Y3170D01*
G01X3300Y3170D02*
G01X3220Y3090D01*
G01X3220Y3090D02*
G01X2820Y3090D01*
G01X2820Y3090D02*
G01X2880Y3090D01*
G54D20*
G01X2880Y3090D03*
G54D21*
G01X2880Y3090D02*
G01X2610Y3090D01*
G01X2610Y3090D02*
G01X2110Y2590D01*
G01X2110Y2590D02*
G01X2410Y2890D01*
G01X2410Y2890D02*
G01X1370Y2890D01*
G54D20*
G01X1461Y4420D03*
G54D22*
G01X1461Y4420D02*
G01X1465Y4425D01*
G01X1465Y4425D02*
G01X1465Y4725D01*
G01X1307Y3690D02*
G01X1307Y4007D01*
G01X1307Y4007D02*
G01X1305Y4000D01*
G54D20*
G01X1305Y4000D03*
G54D22*
G01X1465Y3690D02*
G01X1465Y4175D01*
G01X1465Y4175D02*
G01X1461Y4140D01*
G54D20*
G01X1461Y4140D03*
G54D22*
G01X1622Y3690D02*
G01X1622Y4007D01*
G01X1622Y4007D02*
G01X1620Y4000D01*
G54D20*
G01X1620Y4000D03*
G01X1370Y2630D03*
G54D21*
G01X1370Y2630D02*
G01X1050Y2630D01*
G01X1050Y2630D02*
G01X1050Y3050D01*
G01X1050Y3050D02*
G01X1090Y3090D01*
G01X1090Y3090D02*
G01X2260Y3090D01*
G01X2260Y3090D02*
G01X2500Y3330D01*
G01X2500Y3330D02*
G01X2710Y3330D01*
G54D20*
G01X2710Y3330D03*
G01X400Y2700D03*
G54D21*
G01X400Y2700D02*
G01X640Y2460D01*
G01X640Y2460D02*
G01X810Y2630D01*
G01X810Y2630D02*
G01X1050Y2630D01*
G54D20*
G01X410Y1600D03*
G54D21*
G01X410Y1600D02*
G01X640Y1830D01*
G01X640Y1830D02*
G01X640Y2460D01*
G01X640Y2460D02*
G01X400Y2700D01*
G54D22*
G01X1780Y3690D02*
G01X1780Y4179D01*
G01X1780Y4179D02*
G01X1777Y4140D01*
G54D20*
G01X1777Y4140D03*
G54D22*
G01X1937Y4725D02*
G01X1937Y4302D01*
G01X1937Y4302D02*
G01X1940Y4280D01*
G54D20*
G01X1940Y4280D03*
G54D22*
G01X2095Y3690D02*
G01X2095Y4175D01*
G01X2095Y4175D02*
G01X2092Y4140D01*
G54D20*
G01X2092Y4140D03*
G01X2380Y1590D03*
G54D22*
G01X2380Y1590D02*
G01X2380Y2500D01*
G54D20*
G01X2380Y2500D03*
G54D22*
G01X1622Y4725D02*
G01X1620Y4740D01*
G01X1620Y4740D02*
G01X1620Y4280D01*
G54D20*
G01X1620Y4280D03*
G54D22*
G01X1780Y4725D02*
G01X1790Y4710D01*
G01X1790Y4710D02*
G01X1780Y4610D01*
G01X1780Y4610D02*
G01X1780Y4480D01*
G01X1780Y4480D02*
G01X1777Y4420D01*
G54D20*
G01X1777Y4420D03*
G01X2600Y2720D03*
G54D22*
G01X2600Y2720D02*
G01X2600Y1750D01*
G54D20*
G01X2600Y1750D03*
G01X300Y2040D03*
G01X1090Y400D03*
G54D21*
G01X1307Y4725D02*
G01X1307Y4762D01*
G54D20*
G01X1260Y1600D03*
G54D21*
G01X1307Y4725D02*
G01X1310Y4670D01*
G01X1310Y4670D02*
G01X1310Y5020D01*
G01X1310Y5020D02*
G01X130Y5020D01*
G01X130Y5020D02*
G01X130Y3310D01*
G01X130Y3310D02*
G01X2180Y3310D01*
G01X2180Y3310D02*
G01X2440Y3570D01*
G01X2440Y3570D02*
G01X2950Y3570D01*
G01X2950Y3570D02*
G01X3050Y3670D01*
G01X3050Y3670D02*
G01X3050Y4280D01*
G54D20*
G01X3050Y4280D03*
G54D21*
G01X1307Y4725D02*
G01X1307Y4312D01*
G01X1307Y4312D02*
G01X1305Y4280D01*
G54D20*
G01X1305Y4280D03*
G01X900Y590D03*
G54D22*
G01X900Y590D02*
G01X900Y1000D01*
G54D20*
G01X900Y1000D03*
G54D22*
G01X2095Y4725D02*
G01X2095Y4435D01*
G01X2095Y4435D02*
G01X2092Y4420D01*
G54D20*
G01X2092Y4420D03*
G01X2600Y970D03*
G54D22*
G01X2600Y970D02*
G01X2600Y1470D01*
G01X2600Y1470D02*
G01X2810Y1680D01*
G01X2810Y1680D02*
G01X2810Y2260D01*
G54D20*
G01X2810Y2260D03*
G54D22*
G01X1937Y3690D02*
G01X1937Y4007D01*
G01X1937Y4007D02*
G01X1935Y4000D01*
G54D20*
G01X1935Y4000D03*

G04 Draw Text*
M00*
M02*
