;Holesize 1 =   18.0 PLATED MILS
;Holesize 2 =    8.0 PLATED MILS
M48
INCH,00.0000
T01C0.018
T02C0.008
%
G05
G90
T01
X003150Y002000
X003150Y002500
X003150Y001500
T02
X001370Y002890
X002210Y002030
X001700Y001390
X002880Y003090
X001461Y004420
X001305Y004000
X001461Y004140
X001620Y004000
X001370Y002630
X002710Y003330
X000400Y002700
X000410Y001600
X001777Y004140
X001940Y004280
X002092Y004140
X002380Y001590
X002380Y002500
X001620Y004280
X001777Y004420
X002600Y002720
X002600Y001750
X000300Y002040
X001090Y000400
X001260Y001600
X003050Y004280
X001305Y004280
X000900Y000590
X000900Y001000
X002092Y004420
X002600Y000970
X002810Y002260
X001935Y004000
M30
