;Holesize 1 =   40.0 PLATED MILS
;Holesize 2 =  117.0 PLATED MILS
;Holesize 3 =   15.0 PLATED MILS
M48
INCH,00.0000
T01C0.040
T02C0.117
T03C0.015
%
G05
G90
T01
X008400Y015000
X008400Y014000
X008400Y013000
X009400Y013000
X009400Y014000
X009400Y015000
X008400Y004000
X008400Y005000
X008400Y006000
X009400Y006000
X009400Y005000
X009400Y004000
X008400Y010220
X009400Y010220
X000500Y018000
X001500Y018000
X002500Y018000
X003500Y018000
X004500Y018000
X005500Y018000
X006500Y018000
X007500Y018000
X008500Y018000
X009500Y018000
X000500Y020000
X001500Y020000
X002500Y020000
X003500Y020000
X004500Y020000
X005500Y020000
X006500Y020000
X007500Y020000
X008500Y020000
X009500Y020000
X005500Y000700
X004500Y000700
X008400Y002000
X008400Y003000
X009400Y003000
X004500Y021000
X005500Y021000
X006500Y021000
T02
X001000Y001000
X009000Y001000
X009000Y021500
X001000Y021500
T03
X004640Y007120
X002190Y009850
X003300Y001580
X007220Y013220
X007720Y013900
X007260Y003370
X005690Y010860
X003660Y013540
X003660Y014170
X006880Y012880
X003430Y004620
X003430Y005320
X006550Y012540
X003950Y012040
X003360Y007000
X006550Y012030
X006700Y004410
X005030Y010860
X004920Y012030
X003950Y012530
X003900Y003340
X003550Y015000
X007890Y007660
X004150Y015600
X005580Y003370
X004730Y010560
X004440Y012030
X003360Y009000
X005620Y012030
X003850Y015300
X000500Y013600
X000700Y002150
X007320Y010200
X002510Y005800
X001600Y002140
X002530Y010190
X006090Y012030
X007070Y003990
X005330Y010560
M30
