G04 FreePCB version 1.359*
G04 C:\Users\Jack Ruby\Documents\GitHub\DAQpack_mk2\baseCAM\bottom_silk.grb*
G04 bottom silk layer *
G04 Scale: 100 percent, Rotated: No, Reflected: No *
%FSLAX24Y24*%
%MOIN*%
%LN bottom silk *%
G04 Rounded Rectangle Macro, params: W/2, H/2, R *
%AMRNDREC*
21,1,$1+$1,$2+$2-$3-$3,0,0,0*
21,1,$1+$1-$3-$3,$2+$2,0,0,0*
1,1,$3+$3,$1-$3,$2-$3*
1,1,$3+$3,$3-$1,$2-$3*
1,1,$3+$3,$1-$3,$3-$2*
1,1,$3+$3,$3-$1,$3-$2*%
G04 Rectangular Thermal Macro, params: W/2, H/2, T/2 *
%AMRECTHERM*
$4=$3/2*
21,1,$1-$3,$2-$3,0-$1/2-$4,0-$2/2-$4,0*
21,1,$1-$3,$2-$3,0-$1/2-$4,$2/2+$4,0*
21,1,$1-$3,$2-$3,$1/2+$4,0-$2/2-$4,0*
21,1,$1-$3,$2-$3,$1/2+$4,$2/2+$4,0*%
%ADD10C,0.005000*%
%ADD11C,0.010000*%
%ADD12C,0.007000*%
G90*
G70D02*

G04 Step and Repeat for panelization *

G04 ----------------------- Draw board outline (positive)*
%LPD*%
G54D10*
G01X0Y0D02*
G01X10200Y0D01*
G04 end of side 1*
G01X10200Y22700D01*
G04 end of side 2*
G01X0Y22700D01*
G04 end of side 3*
G01X0Y0D01*
G01X0Y23700D02*
G01X0Y31400D01*
G04 end of side 1*
G01X10300Y31400D01*
G04 end of side 2*
G01X10300Y23700D01*
G04 end of side 3*
G01X0Y23700D01*

G04 -------------- Draw Parts, Pads, Traces, Vias and Text (positive)*
%LPD*%
G04 Draw part A_U1*
G04 draw part outline for part A_U1*
G54D11*
G01X4175Y12709D02*
G01X4130Y12754D01*
G01X4130Y12754D02*
G01X4175Y12800D01*
G01X4220Y12754D02*
G01X4175Y12800D01*
G01X4175Y12709D02*
G01X4220Y12754D01*
G04 draw reference designator for part A_U1*
G54D10*
G01X7811Y12122D02*
G01X7630Y12600D01*
G01X7811Y12122D02*
G01X7993Y12600D01*
G01X7925Y12440D02*
G01X7698Y12440D01*
G01X8584Y12600D02*
G01X8175Y12600D01*
G01X8766Y12122D02*
G01X8766Y12463D01*
G01X8766Y12463D02*
G01X8789Y12531D01*
G01X8789Y12531D02*
G01X8834Y12577D01*
G01X8834Y12577D02*
G01X8902Y12600D01*
G01X8948Y12600D02*
G01X8902Y12600D01*
G01X9016Y12577D02*
G01X8948Y12600D01*
G01X9061Y12531D02*
G01X9016Y12577D01*
G01X9084Y12463D02*
G01X9061Y12531D01*
G01X9084Y12122D02*
G01X9084Y12463D01*
G01X9311Y12190D02*
G01X9266Y12213D01*
G01X9380Y12122D02*
G01X9311Y12190D01*
G01X9380Y12122D02*
G01X9380Y12600D01*
G04 Draw part A_U5*
G04 draw part outline for part A_U5*
G04 draw reference designator for part A_U5*
G01X5022Y518D02*
G01X5500Y700D01*
G01X5022Y518D02*
G01X5500Y336D01*
G01X5340Y404D02*
G01X5340Y631D01*
G01X5500Y-254D02*
G01X5500Y154D01*
G01X5022Y-436D02*
G01X5363Y-436D01*
G01X5363Y-436D02*
G01X5431Y-459D01*
G01X5431Y-459D02*
G01X5477Y-504D01*
G01X5477Y-504D02*
G01X5500Y-572D01*
G01X5500Y-618D02*
G01X5500Y-572D01*
G01X5477Y-686D02*
G01X5500Y-618D01*
G01X5431Y-731D02*
G01X5477Y-686D01*
G01X5363Y-754D02*
G01X5431Y-731D01*
G01X5022Y-754D02*
G01X5363Y-754D01*
G01X5022Y-981D02*
G01X5022Y-1209D01*
G01X5022Y-981D02*
G01X5227Y-959D01*
G01X5204Y-981D02*
G01X5227Y-959D01*
G01X5181Y-1050D02*
G01X5204Y-981D01*
G01X5181Y-1118D02*
G01X5181Y-1050D01*
G01X5181Y-1118D02*
G01X5204Y-1186D01*
G01X5204Y-1186D02*
G01X5250Y-1231D01*
G01X5250Y-1231D02*
G01X5318Y-1254D01*
G01X5318Y-1254D02*
G01X5363Y-1254D01*
G01X5363Y-1254D02*
G01X5431Y-1231D01*
G01X5431Y-1231D02*
G01X5477Y-1186D01*
G01X5477Y-1186D02*
G01X5500Y-1118D01*
G01X5500Y-1050D02*
G01X5500Y-1118D01*
G01X5477Y-981D02*
G01X5500Y-1050D01*
G01X5454Y-959D02*
G01X5477Y-981D01*
G01X5409Y-936D02*
G01X5454Y-959D01*
G04 Draw part A_U6*
G04 draw part outline for part A_U6*
G54D11*
G01X9300Y12400D02*
G01X9300Y12400D01*
G01X9300Y12400D02*
G01X9300Y12400D01*
G04 draw reference designator for part A_U6*
G54D10*
G01X7422Y9818D02*
G01X7900Y10000D01*
G01X7422Y9818D02*
G01X7900Y9636D01*
G01X7740Y9704D02*
G01X7740Y9931D01*
G01X7900Y9045D02*
G01X7900Y9454D01*
G01X7422Y8863D02*
G01X7763Y8863D01*
G01X7763Y8863D02*
G01X7831Y8840D01*
G01X7831Y8840D02*
G01X7877Y8795D01*
G01X7877Y8795D02*
G01X7900Y8727D01*
G01X7900Y8681D02*
G01X7900Y8727D01*
G01X7877Y8613D02*
G01X7900Y8681D01*
G01X7831Y8568D02*
G01X7877Y8613D01*
G01X7763Y8545D02*
G01X7831Y8568D01*
G01X7422Y8545D02*
G01X7763Y8545D01*
G01X7445Y8113D02*
G01X7490Y8090D01*
G01X7422Y8181D02*
G01X7445Y8113D01*
G01X7422Y8227D02*
G01X7422Y8181D01*
G01X7422Y8227D02*
G01X7445Y8295D01*
G01X7445Y8295D02*
G01X7513Y8340D01*
G01X7513Y8340D02*
G01X7627Y8363D01*
G01X7627Y8363D02*
G01X7740Y8363D01*
G01X7740Y8363D02*
G01X7831Y8340D01*
G01X7831Y8340D02*
G01X7877Y8295D01*
G01X7877Y8295D02*
G01X7900Y8227D01*
G01X7900Y8204D02*
G01X7900Y8227D01*
G01X7877Y8136D02*
G01X7900Y8204D01*
G01X7831Y8090D02*
G01X7877Y8136D01*
G01X7763Y8068D02*
G01X7831Y8090D01*
G01X7740Y8068D02*
G01X7763Y8068D01*
G01X7672Y8090D02*
G01X7740Y8068D01*
G01X7627Y8136D02*
G01X7672Y8090D01*
G01X7604Y8204D02*
G01X7627Y8136D01*
G01X7604Y8227D02*
G01X7604Y8204D01*
G01X7604Y8227D02*
G01X7627Y8295D01*
G01X7627Y8295D02*
G01X7672Y8340D01*
G01X7672Y8340D02*
G01X7740Y8363D01*
G04 Draw part A_C3*
G04 draw part outline for part A_C3*
G04 draw reference designator for part A_C3*
G01X8781Y13222D02*
G01X8600Y13700D01*
G01X8781Y13222D02*
G01X8963Y13700D01*
G01X8895Y13540D02*
G01X8668Y13540D01*
G01X9554Y13700D02*
G01X9145Y13700D01*
G01X10054Y13290D02*
G01X10077Y13336D01*
G01X10009Y13245D02*
G01X10054Y13290D01*
G01X9963Y13222D02*
G01X10009Y13245D01*
G01X9872Y13222D02*
G01X9963Y13222D01*
G01X9872Y13222D02*
G01X9827Y13245D01*
G01X9827Y13245D02*
G01X9781Y13290D01*
G01X9781Y13290D02*
G01X9759Y13336D01*
G01X9759Y13336D02*
G01X9736Y13404D01*
G01X9736Y13404D02*
G01X9736Y13518D01*
G01X9736Y13518D02*
G01X9759Y13586D01*
G01X9759Y13586D02*
G01X9781Y13631D01*
G01X9781Y13631D02*
G01X9827Y13677D01*
G01X9827Y13677D02*
G01X9872Y13700D01*
G01X9963Y13700D02*
G01X9872Y13700D01*
G01X10009Y13677D02*
G01X9963Y13700D01*
G01X10054Y13631D02*
G01X10009Y13677D01*
G01X10077Y13586D02*
G01X10054Y13631D01*
G01X10554Y13222D02*
G01X10304Y13222D01*
G01X10554Y13222D02*
G01X10418Y13404D01*
G01X10486Y13404D02*
G01X10418Y13404D01*
G01X10486Y13404D02*
G01X10531Y13427D01*
G01X10531Y13427D02*
G01X10554Y13450D01*
G01X10554Y13450D02*
G01X10577Y13518D01*
G01X10577Y13518D02*
G01X10577Y13563D01*
G01X10577Y13563D02*
G01X10554Y13631D01*
G01X10554Y13631D02*
G01X10509Y13677D01*
G01X10509Y13677D02*
G01X10440Y13700D01*
G01X10372Y13700D02*
G01X10440Y13700D01*
G01X10304Y13677D02*
G01X10372Y13700D01*
G01X10281Y13654D02*
G01X10304Y13677D01*
G01X10259Y13609D02*
G01X10281Y13654D01*
G04 Draw part A_R4*
G04 draw part outline for part A_R4*
G04 draw reference designator for part A_R4*
G01X5022Y9718D02*
G01X5500Y9900D01*
G01X5022Y9718D02*
G01X5500Y9536D01*
G01X5340Y9604D02*
G01X5340Y9831D01*
G01X5500Y8945D02*
G01X5500Y9354D01*
G01X5022Y8763D02*
G01X5500Y8763D01*
G01X5022Y8559D02*
G01X5022Y8763D01*
G01X5022Y8559D02*
G01X5045Y8490D01*
G01X5045Y8490D02*
G01X5068Y8468D01*
G01X5068Y8468D02*
G01X5113Y8445D01*
G01X5113Y8445D02*
G01X5159Y8445D01*
G01X5159Y8445D02*
G01X5204Y8468D01*
G01X5204Y8468D02*
G01X5227Y8490D01*
G01X5227Y8490D02*
G01X5250Y8559D01*
G01X5250Y8763D02*
G01X5250Y8559D01*
G01X5250Y8604D02*
G01X5500Y8445D01*
G01X5022Y8036D02*
G01X5340Y8263D01*
G01X5340Y7922D02*
G01X5340Y8263D01*
G01X5022Y8036D02*
G01X5500Y8036D01*
G04 Draw part A_C4*
G04 draw part outline for part A_C4*
G04 draw reference designator for part A_C4*
G01X6177Y13281D02*
G01X5700Y13100D01*
G01X6177Y13281D02*
G01X5700Y13463D01*
G01X5859Y13395D02*
G01X5859Y13168D01*
G01X5700Y14054D02*
G01X5700Y13645D01*
G01X6109Y14554D02*
G01X6063Y14577D01*
G01X6154Y14509D02*
G01X6109Y14554D01*
G01X6177Y14463D02*
G01X6154Y14509D01*
G01X6177Y14372D02*
G01X6177Y14463D01*
G01X6177Y14372D02*
G01X6154Y14327D01*
G01X6154Y14327D02*
G01X6109Y14281D01*
G01X6109Y14281D02*
G01X6063Y14259D01*
G01X6063Y14259D02*
G01X5995Y14236D01*
G01X5995Y14236D02*
G01X5881Y14236D01*
G01X5881Y14236D02*
G01X5813Y14259D01*
G01X5813Y14259D02*
G01X5768Y14281D01*
G01X5768Y14281D02*
G01X5722Y14327D01*
G01X5722Y14327D02*
G01X5700Y14372D01*
G01X5700Y14463D02*
G01X5700Y14372D01*
G01X5722Y14509D02*
G01X5700Y14463D01*
G01X5768Y14554D02*
G01X5722Y14509D01*
G01X5813Y14577D02*
G01X5768Y14554D01*
G01X6177Y14986D02*
G01X5859Y14759D01*
G01X5859Y15100D02*
G01X5859Y14759D01*
G01X6177Y14986D02*
G01X5700Y14986D01*
G04 Draw part A_X1*
G04 draw part outline for part A_X1*
G54D12*
G01X1997Y12595D02*
G01X1997Y15218D01*
G01X1997Y15218D02*
G01X3202Y15218D01*
G01X3202Y15218D02*
G01X3202Y12595D01*
G01X3202Y12595D02*
G01X1997Y12595D01*
G04 draw reference designator for part A_X1*
G54D10*
G01X5177Y17881D02*
G01X4700Y17700D01*
G01X5177Y17881D02*
G01X4700Y18063D01*
G01X4859Y17995D02*
G01X4859Y17768D01*
G01X4700Y18654D02*
G01X4700Y18245D01*
G01X5177Y18836D02*
G01X4700Y19154D01*
G01X5177Y19154D02*
G01X4700Y18836D01*
G01X5109Y19381D02*
G01X5086Y19336D01*
G01X5177Y19450D02*
G01X5109Y19381D01*
G01X5177Y19450D02*
G01X4700Y19450D01*
G04 Draw part A_C1*
G04 draw part outline for part A_C1*
G04 draw reference designator for part A_C1*
G01X3481Y12322D02*
G01X3300Y12800D01*
G01X3481Y12322D02*
G01X3663Y12800D01*
G01X3595Y12640D02*
G01X3368Y12640D01*
G01X4254Y12800D02*
G01X3845Y12800D01*
G01X4754Y12390D02*
G01X4777Y12436D01*
G01X4709Y12345D02*
G01X4754Y12390D01*
G01X4663Y12322D02*
G01X4709Y12345D01*
G01X4572Y12322D02*
G01X4663Y12322D01*
G01X4572Y12322D02*
G01X4527Y12345D01*
G01X4527Y12345D02*
G01X4481Y12390D01*
G01X4481Y12390D02*
G01X4459Y12436D01*
G01X4459Y12436D02*
G01X4436Y12504D01*
G01X4436Y12504D02*
G01X4436Y12618D01*
G01X4436Y12618D02*
G01X4459Y12686D01*
G01X4459Y12686D02*
G01X4481Y12731D01*
G01X4481Y12731D02*
G01X4527Y12777D01*
G01X4527Y12777D02*
G01X4572Y12800D01*
G01X4663Y12800D02*
G01X4572Y12800D01*
G01X4709Y12777D02*
G01X4663Y12800D01*
G01X4754Y12731D02*
G01X4709Y12777D01*
G01X4777Y12686D02*
G01X4754Y12731D01*
G01X5004Y12390D02*
G01X4959Y12413D01*
G01X5072Y12322D02*
G01X5004Y12390D01*
G01X5072Y12322D02*
G01X5072Y12800D01*
G04 Draw part A_C2*
G04 draw part outline for part A_C2*
G04 draw reference designator for part A_C2*
G01X3481Y13932D02*
G01X3300Y14410D01*
G01X3481Y13932D02*
G01X3663Y14410D01*
G01X3595Y14250D02*
G01X3368Y14250D01*
G01X4254Y14410D02*
G01X3845Y14410D01*
G01X4754Y14000D02*
G01X4777Y14046D01*
G01X4709Y13955D02*
G01X4754Y14000D01*
G01X4663Y13932D02*
G01X4709Y13955D01*
G01X4572Y13932D02*
G01X4663Y13932D01*
G01X4572Y13932D02*
G01X4527Y13955D01*
G01X4527Y13955D02*
G01X4481Y14000D01*
G01X4481Y14000D02*
G01X4459Y14046D01*
G01X4459Y14046D02*
G01X4436Y14114D01*
G01X4436Y14114D02*
G01X4436Y14228D01*
G01X4436Y14228D02*
G01X4459Y14296D01*
G01X4459Y14296D02*
G01X4481Y14341D01*
G01X4481Y14341D02*
G01X4527Y14387D01*
G01X4527Y14387D02*
G01X4572Y14410D01*
G01X4663Y14410D02*
G01X4572Y14410D01*
G01X4709Y14387D02*
G01X4663Y14410D01*
G01X4754Y14341D02*
G01X4709Y14387D01*
G01X4777Y14296D02*
G01X4754Y14341D01*
G01X4981Y14023D02*
G01X4981Y14046D01*
G01X5004Y13978D02*
G01X4981Y14023D01*
G01X5027Y13955D02*
G01X5004Y13978D01*
G01X5072Y13932D02*
G01X5027Y13955D01*
G01X5163Y13932D02*
G01X5072Y13932D01*
G01X5163Y13932D02*
G01X5209Y13955D01*
G01X5209Y13955D02*
G01X5231Y13978D01*
G01X5231Y13978D02*
G01X5254Y14023D01*
G01X5254Y14023D02*
G01X5254Y14069D01*
G01X5254Y14069D02*
G01X5231Y14114D01*
G01X5231Y14114D02*
G01X5186Y14182D01*
G01X5186Y14182D02*
G01X4959Y14410D01*
G01X5277Y14410D02*
G01X4959Y14410D01*
G04 Draw part A_D3*
G04 Draw part A_R3*
G04 Draw part A_D2*
G04 Draw part A_R2*
G04 Draw part A_D1*
G04 Draw part A_R1*
G04 Draw part A_H2*
G04 draw part outline for part A_H2*
G04 draw reference designator for part A_H2*
G54D11*
G01X5054Y6463D02*
G01X4100Y6100D01*
G01X5054Y6463D02*
G01X4100Y6827D01*
G01X4418Y6690D02*
G01X4418Y6236D01*
G01X4100Y8009D02*
G01X4100Y7190D01*
G01X5054Y8372D02*
G01X4100Y8372D01*
G01X5054Y9009D02*
G01X4100Y9009D01*
G01X4600Y9009D02*
G01X4600Y8372D01*
G01X4872Y9418D02*
G01X4827Y9418D01*
G01X4963Y9463D02*
G01X4872Y9418D01*
G01X5009Y9509D02*
G01X4963Y9463D01*
G01X5054Y9600D02*
G01X5009Y9509D01*
G01X5054Y9781D02*
G01X5054Y9600D01*
G01X5054Y9781D02*
G01X5009Y9872D01*
G01X5009Y9872D02*
G01X4963Y9918D01*
G01X4963Y9918D02*
G01X4872Y9963D01*
G01X4872Y9963D02*
G01X4781Y9963D01*
G01X4781Y9963D02*
G01X4690Y9918D01*
G01X4690Y9918D02*
G01X4554Y9827D01*
G01X4554Y9827D02*
G01X4100Y9372D01*
G01X4100Y10009D02*
G01X4100Y9372D01*
G04 Draw part A_R5*
G04 Draw part A_D4*
G04 Draw part A_D5*
G04 Draw part A_R6*
G04 Draw part A_C7*
G04 draw part outline for part A_C7*
G04 draw reference designator for part A_C7*
G54D10*
G01X5481Y5122D02*
G01X5300Y5600D01*
G01X5481Y5122D02*
G01X5663Y5600D01*
G01X5595Y5440D02*
G01X5368Y5440D01*
G01X6254Y5600D02*
G01X5845Y5600D01*
G01X6754Y5190D02*
G01X6777Y5236D01*
G01X6709Y5145D02*
G01X6754Y5190D01*
G01X6663Y5122D02*
G01X6709Y5145D01*
G01X6572Y5122D02*
G01X6663Y5122D01*
G01X6572Y5122D02*
G01X6527Y5145D01*
G01X6527Y5145D02*
G01X6481Y5190D01*
G01X6481Y5190D02*
G01X6459Y5236D01*
G01X6459Y5236D02*
G01X6436Y5304D01*
G01X6436Y5304D02*
G01X6436Y5418D01*
G01X6436Y5418D02*
G01X6459Y5486D01*
G01X6459Y5486D02*
G01X6481Y5531D01*
G01X6481Y5531D02*
G01X6527Y5577D01*
G01X6527Y5577D02*
G01X6572Y5600D01*
G01X6663Y5600D02*
G01X6572Y5600D01*
G01X6709Y5577D02*
G01X6663Y5600D01*
G01X6754Y5531D02*
G01X6709Y5577D01*
G01X6777Y5486D02*
G01X6754Y5531D01*
G01X7277Y5122D02*
G01X7050Y5600D01*
G01X7277Y5122D02*
G01X6959Y5122D01*
G04 draw value for part A_C7*
G01X4472Y3745D02*
G01X4336Y3790D01*
G01X4336Y3790D02*
G01X4245Y3927D01*
G01X4245Y3927D02*
G01X4200Y4154D01*
G01X4200Y4154D02*
G01X4200Y4290D01*
G01X4200Y4290D02*
G01X4245Y4518D01*
G01X4245Y4518D02*
G01X4336Y4654D01*
G01X4336Y4654D02*
G01X4472Y4700D01*
G01X4563Y4700D02*
G01X4472Y4700D01*
G01X4700Y4654D02*
G01X4563Y4700D01*
G01X4790Y4518D02*
G01X4700Y4654D01*
G01X4836Y4290D02*
G01X4790Y4518D01*
G01X4836Y4154D02*
G01X4836Y4290D01*
G01X4790Y3927D02*
G01X4836Y4154D01*
G01X4700Y3790D02*
G01X4790Y3927D01*
G01X4563Y3745D02*
G01X4700Y3790D01*
G01X4472Y3745D02*
G01X4563Y3745D01*
G01X5245Y4609D02*
G01X5200Y4654D01*
G01X5200Y4654D02*
G01X5245Y4700D01*
G01X5290Y4654D02*
G01X5245Y4700D01*
G01X5245Y4609D02*
G01X5290Y4654D01*
G01X5745Y3881D02*
G01X5654Y3927D01*
G01X5881Y3745D02*
G01X5745Y3881D01*
G01X5881Y3745D02*
G01X5881Y4700D01*
G01X6245Y4063D02*
G01X6245Y4518D01*
G01X6245Y4518D02*
G01X6290Y4654D01*
G01X6290Y4654D02*
G01X6381Y4700D01*
G01X6518Y4700D02*
G01X6381Y4700D01*
G01X6609Y4654D02*
G01X6518Y4700D01*
G01X6745Y4518D02*
G01X6609Y4654D01*
G01X6745Y4063D02*
G01X6745Y4700D01*
G01X7109Y3745D02*
G01X7109Y4700D01*
G01X7700Y3745D02*
G01X7109Y3745D01*
G01X7472Y4200D02*
G01X7109Y4200D01*
G04 Draw part A_C6*
G04 draw part outline for part A_C6*
G04 draw reference designator for part A_C6*
G01X6681Y6022D02*
G01X6500Y6500D01*
G01X6681Y6022D02*
G01X6863Y6500D01*
G01X6795Y6340D02*
G01X6568Y6340D01*
G01X7454Y6500D02*
G01X7045Y6500D01*
G01X7954Y6090D02*
G01X7977Y6136D01*
G01X7909Y6045D02*
G01X7954Y6090D01*
G01X7863Y6022D02*
G01X7909Y6045D01*
G01X7772Y6022D02*
G01X7863Y6022D01*
G01X7772Y6022D02*
G01X7727Y6045D01*
G01X7727Y6045D02*
G01X7681Y6090D01*
G01X7681Y6090D02*
G01X7659Y6136D01*
G01X7659Y6136D02*
G01X7636Y6204D01*
G01X7636Y6204D02*
G01X7636Y6318D01*
G01X7636Y6318D02*
G01X7659Y6386D01*
G01X7659Y6386D02*
G01X7681Y6431D01*
G01X7681Y6431D02*
G01X7727Y6477D01*
G01X7727Y6477D02*
G01X7772Y6500D01*
G01X7863Y6500D02*
G01X7772Y6500D01*
G01X7909Y6477D02*
G01X7863Y6500D01*
G01X7954Y6431D02*
G01X7909Y6477D01*
G01X7977Y6386D02*
G01X7954Y6431D01*
G01X8409Y6045D02*
G01X8431Y6090D01*
G01X8340Y6022D02*
G01X8409Y6045D01*
G01X8295Y6022D02*
G01X8340Y6022D01*
G01X8295Y6022D02*
G01X8227Y6045D01*
G01X8227Y6045D02*
G01X8181Y6113D01*
G01X8181Y6113D02*
G01X8159Y6227D01*
G01X8159Y6227D02*
G01X8159Y6340D01*
G01X8159Y6340D02*
G01X8181Y6431D01*
G01X8181Y6431D02*
G01X8227Y6477D01*
G01X8227Y6477D02*
G01X8295Y6500D01*
G01X8318Y6500D02*
G01X8295Y6500D01*
G01X8386Y6477D02*
G01X8318Y6500D01*
G01X8431Y6431D02*
G01X8386Y6477D01*
G01X8454Y6363D02*
G01X8431Y6431D01*
G01X8454Y6340D02*
G01X8454Y6363D01*
G01X8431Y6272D02*
G01X8454Y6340D01*
G01X8386Y6227D02*
G01X8431Y6272D01*
G01X8318Y6204D02*
G01X8386Y6227D01*
G01X8295Y6204D02*
G01X8318Y6204D01*
G01X8295Y6204D02*
G01X8227Y6227D01*
G01X8227Y6227D02*
G01X8181Y6272D01*
G01X8181Y6272D02*
G01X8159Y6340D01*
G04 Draw part A_C5*
G04 draw part outline for part A_C5*
G04 draw reference designator for part A_C5*
G01X6681Y5522D02*
G01X6500Y6000D01*
G01X6681Y5522D02*
G01X6863Y6000D01*
G01X6795Y5840D02*
G01X6568Y5840D01*
G01X7454Y6000D02*
G01X7045Y6000D01*
G01X7954Y5590D02*
G01X7977Y5636D01*
G01X7909Y5545D02*
G01X7954Y5590D01*
G01X7863Y5522D02*
G01X7909Y5545D01*
G01X7772Y5522D02*
G01X7863Y5522D01*
G01X7772Y5522D02*
G01X7727Y5545D01*
G01X7727Y5545D02*
G01X7681Y5590D01*
G01X7681Y5590D02*
G01X7659Y5636D01*
G01X7659Y5636D02*
G01X7636Y5704D01*
G01X7636Y5704D02*
G01X7636Y5818D01*
G01X7636Y5818D02*
G01X7659Y5886D01*
G01X7659Y5886D02*
G01X7681Y5931D01*
G01X7681Y5931D02*
G01X7727Y5977D01*
G01X7727Y5977D02*
G01X7772Y6000D01*
G01X7863Y6000D02*
G01X7772Y6000D01*
G01X7909Y5977D02*
G01X7863Y6000D01*
G01X7954Y5931D02*
G01X7909Y5977D01*
G01X7977Y5886D02*
G01X7954Y5931D01*
G01X8204Y5522D02*
G01X8431Y5522D01*
G01X8204Y5522D02*
G01X8181Y5727D01*
G01X8204Y5704D02*
G01X8181Y5727D01*
G01X8272Y5681D02*
G01X8204Y5704D01*
G01X8340Y5681D02*
G01X8272Y5681D01*
G01X8340Y5681D02*
G01X8409Y5704D01*
G01X8409Y5704D02*
G01X8454Y5750D01*
G01X8454Y5750D02*
G01X8477Y5818D01*
G01X8477Y5818D02*
G01X8477Y5863D01*
G01X8477Y5863D02*
G01X8454Y5931D01*
G01X8454Y5931D02*
G01X8409Y5977D01*
G01X8409Y5977D02*
G01X8340Y6000D01*
G01X8272Y6000D02*
G01X8340Y6000D01*
G01X8204Y5977D02*
G01X8272Y6000D01*
G01X8181Y5954D02*
G01X8204Y5977D01*
G01X8159Y5909D02*
G01X8181Y5954D01*
G04 Draw part A_F1*
G04 draw part outline for part A_F1*
G54D12*
G01X2851Y4507D02*
G01X3938Y4507D01*
G01X3938Y4507D02*
G01X3938Y3892D01*
G01X3938Y3892D02*
G01X2851Y3892D01*
G01X2851Y3892D02*
G01X2851Y4507D01*
G04 draw reference designator for part A_F1*
G54D10*
G01X5081Y3422D02*
G01X4900Y3900D01*
G01X5081Y3422D02*
G01X5263Y3900D01*
G01X5195Y3740D02*
G01X4968Y3740D01*
G01X5854Y3900D02*
G01X5445Y3900D01*
G01X6036Y3422D02*
G01X6036Y3900D01*
G01X6331Y3422D02*
G01X6036Y3422D01*
G01X6218Y3650D02*
G01X6036Y3650D01*
G01X6559Y3490D02*
G01X6513Y3513D01*
G01X6627Y3422D02*
G01X6559Y3490D01*
G01X6627Y3422D02*
G01X6627Y3900D01*
G04 Draw part A_C11*
G04 draw part outline for part A_C11*
G54D12*
G01X6992Y10351D02*
G01X6992Y11438D01*
G01X6992Y11438D02*
G01X7607Y11438D01*
G01X7607Y11438D02*
G01X7607Y10351D01*
G01X7607Y10351D02*
G01X6992Y10351D01*
G04 draw reference designator for part A_C11*
G54D10*
G01X8077Y12581D02*
G01X7600Y12400D01*
G01X8077Y12581D02*
G01X7600Y12763D01*
G01X7759Y12695D02*
G01X7759Y12468D01*
G01X7600Y13354D02*
G01X7600Y12945D01*
G01X8009Y13854D02*
G01X7963Y13877D01*
G01X8054Y13809D02*
G01X8009Y13854D01*
G01X8077Y13763D02*
G01X8054Y13809D01*
G01X8077Y13672D02*
G01X8077Y13763D01*
G01X8077Y13672D02*
G01X8054Y13627D01*
G01X8054Y13627D02*
G01X8009Y13581D01*
G01X8009Y13581D02*
G01X7963Y13559D01*
G01X7963Y13559D02*
G01X7895Y13536D01*
G01X7895Y13536D02*
G01X7781Y13536D01*
G01X7781Y13536D02*
G01X7713Y13559D01*
G01X7713Y13559D02*
G01X7668Y13581D01*
G01X7668Y13581D02*
G01X7622Y13627D01*
G01X7622Y13627D02*
G01X7600Y13672D01*
G01X7600Y13763D02*
G01X7600Y13672D01*
G01X7622Y13809D02*
G01X7600Y13763D01*
G01X7668Y13854D02*
G01X7622Y13809D01*
G01X7713Y13877D02*
G01X7668Y13854D01*
G01X8009Y14104D02*
G01X7986Y14059D01*
G01X8077Y14172D02*
G01X8009Y14104D01*
G01X8077Y14172D02*
G01X7600Y14172D01*
G01X8009Y14400D02*
G01X7986Y14354D01*
G01X8077Y14468D02*
G01X8009Y14400D01*
G01X8077Y14468D02*
G01X7600Y14468D01*
G04 Draw part A_R9*
G04 draw part outline for part A_R9*
G04 draw reference designator for part A_R9*
G01X6522Y10318D02*
G01X7000Y10500D01*
G01X6522Y10318D02*
G01X7000Y10136D01*
G01X6840Y10204D02*
G01X6840Y10431D01*
G01X7000Y9545D02*
G01X7000Y9954D01*
G01X6522Y9363D02*
G01X7000Y9363D01*
G01X6522Y9159D02*
G01X6522Y9363D01*
G01X6522Y9159D02*
G01X6545Y9090D01*
G01X6545Y9090D02*
G01X6568Y9068D01*
G01X6568Y9068D02*
G01X6613Y9045D01*
G01X6613Y9045D02*
G01X6659Y9045D01*
G01X6659Y9045D02*
G01X6704Y9068D01*
G01X6704Y9068D02*
G01X6727Y9090D01*
G01X6727Y9090D02*
G01X6750Y9159D01*
G01X6750Y9363D02*
G01X6750Y9159D01*
G01X6750Y9204D02*
G01X7000Y9045D01*
G01X6681Y8568D02*
G01X6750Y8590D01*
G01X6750Y8590D02*
G01X6795Y8636D01*
G01X6795Y8636D02*
G01X6818Y8704D01*
G01X6818Y8727D02*
G01X6818Y8704D01*
G01X6795Y8795D02*
G01X6818Y8727D01*
G01X6750Y8840D02*
G01X6795Y8795D01*
G01X6681Y8863D02*
G01X6750Y8840D01*
G01X6659Y8863D02*
G01X6681Y8863D01*
G01X6590Y8840D02*
G01X6659Y8863D01*
G01X6545Y8795D02*
G01X6590Y8840D01*
G01X6522Y8727D02*
G01X6545Y8795D01*
G01X6522Y8704D02*
G01X6522Y8727D01*
G01X6522Y8704D02*
G01X6545Y8636D01*
G01X6545Y8636D02*
G01X6590Y8590D01*
G01X6590Y8590D02*
G01X6681Y8568D01*
G01X6681Y8568D02*
G01X6795Y8568D01*
G01X6795Y8568D02*
G01X6909Y8590D01*
G01X6909Y8590D02*
G01X6977Y8636D01*
G01X6977Y8636D02*
G01X7000Y8704D01*
G01X7000Y8750D02*
G01X7000Y8704D01*
G01X6977Y8818D02*
G01X7000Y8750D01*
G01X6931Y8840D02*
G01X6977Y8818D01*
G04 Draw part A_D7*
G04 Draw part A_R10*
G04 Draw part A_C10*
G04 draw part outline for part A_C10*
G54D12*
G01X9907Y12148D02*
G01X9907Y11061D01*
G01X9907Y11061D02*
G01X9292Y11061D01*
G01X9292Y11061D02*
G01X9292Y12148D01*
G01X9292Y12148D02*
G01X9907Y12148D01*
G04 draw reference designator for part A_C10*
G54D10*
G01X8822Y9918D02*
G01X9300Y10100D01*
G01X8822Y9918D02*
G01X9300Y9736D01*
G01X9140Y9804D02*
G01X9140Y10031D01*
G01X9300Y9145D02*
G01X9300Y9554D01*
G01X8890Y8645D02*
G01X8936Y8622D01*
G01X8845Y8690D02*
G01X8890Y8645D01*
G01X8822Y8736D02*
G01X8845Y8690D01*
G01X8822Y8827D02*
G01X8822Y8736D01*
G01X8822Y8827D02*
G01X8845Y8872D01*
G01X8845Y8872D02*
G01X8890Y8918D01*
G01X8890Y8918D02*
G01X8936Y8940D01*
G01X8936Y8940D02*
G01X9004Y8963D01*
G01X9004Y8963D02*
G01X9118Y8963D01*
G01X9118Y8963D02*
G01X9186Y8940D01*
G01X9186Y8940D02*
G01X9231Y8918D01*
G01X9231Y8918D02*
G01X9277Y8872D01*
G01X9277Y8872D02*
G01X9300Y8827D01*
G01X9300Y8736D02*
G01X9300Y8827D01*
G01X9277Y8690D02*
G01X9300Y8736D01*
G01X9231Y8645D02*
G01X9277Y8690D01*
G01X9186Y8622D02*
G01X9231Y8645D01*
G01X8890Y8395D02*
G01X8913Y8440D01*
G01X8822Y8327D02*
G01X8890Y8395D01*
G01X8822Y8327D02*
G01X9300Y8327D01*
G01X8822Y8009D02*
G01X8845Y8077D01*
G01X8845Y8077D02*
G01X8913Y8122D01*
G01X8913Y8122D02*
G01X9027Y8145D01*
G01X9027Y8145D02*
G01X9095Y8145D01*
G01X9095Y8145D02*
G01X9209Y8122D01*
G01X9209Y8122D02*
G01X9277Y8077D01*
G01X9277Y8077D02*
G01X9300Y8009D01*
G01X9300Y7963D02*
G01X9300Y8009D01*
G01X9277Y7895D02*
G01X9300Y7963D01*
G01X9209Y7850D02*
G01X9277Y7895D01*
G01X9095Y7827D02*
G01X9209Y7850D01*
G01X9027Y7827D02*
G01X9095Y7827D01*
G01X8913Y7850D02*
G01X9027Y7827D01*
G01X8845Y7895D02*
G01X8913Y7850D01*
G01X8822Y7963D02*
G01X8845Y7895D01*
G01X8822Y8009D02*
G01X8822Y7963D01*
G04 Draw part A_C9*
G04 draw part outline for part A_C9*
G04 draw reference designator for part A_C9*
G01X5677Y3881D02*
G01X5200Y3700D01*
G01X5677Y3881D02*
G01X5200Y4063D01*
G01X5359Y3995D02*
G01X5359Y3768D01*
G01X5200Y4654D02*
G01X5200Y4245D01*
G01X5609Y5154D02*
G01X5563Y5177D01*
G01X5654Y5109D02*
G01X5609Y5154D01*
G01X5677Y5063D02*
G01X5654Y5109D01*
G01X5677Y4972D02*
G01X5677Y5063D01*
G01X5677Y4972D02*
G01X5654Y4927D01*
G01X5654Y4927D02*
G01X5609Y4881D01*
G01X5609Y4881D02*
G01X5563Y4859D01*
G01X5563Y4859D02*
G01X5495Y4836D01*
G01X5495Y4836D02*
G01X5381Y4836D01*
G01X5381Y4836D02*
G01X5313Y4859D01*
G01X5313Y4859D02*
G01X5268Y4881D01*
G01X5268Y4881D02*
G01X5222Y4927D01*
G01X5222Y4927D02*
G01X5200Y4972D01*
G01X5200Y5063D02*
G01X5200Y4972D01*
G01X5222Y5109D02*
G01X5200Y5063D01*
G01X5268Y5154D02*
G01X5222Y5109D01*
G01X5313Y5177D02*
G01X5268Y5154D01*
G01X5518Y5654D02*
G01X5450Y5631D01*
G01X5450Y5631D02*
G01X5404Y5586D01*
G01X5404Y5586D02*
G01X5381Y5518D01*
G01X5381Y5495D02*
G01X5381Y5518D01*
G01X5404Y5427D02*
G01X5381Y5495D01*
G01X5450Y5381D02*
G01X5404Y5427D01*
G01X5518Y5359D02*
G01X5450Y5381D01*
G01X5540Y5359D02*
G01X5518Y5359D01*
G01X5609Y5381D02*
G01X5540Y5359D01*
G01X5654Y5427D02*
G01X5609Y5381D01*
G01X5677Y5495D02*
G01X5654Y5427D01*
G01X5677Y5518D02*
G01X5677Y5495D01*
G01X5677Y5518D02*
G01X5654Y5586D01*
G01X5654Y5586D02*
G01X5609Y5631D01*
G01X5609Y5631D02*
G01X5518Y5654D01*
G01X5518Y5654D02*
G01X5404Y5654D01*
G01X5404Y5654D02*
G01X5290Y5631D01*
G01X5290Y5631D02*
G01X5222Y5586D01*
G01X5222Y5586D02*
G01X5200Y5518D01*
G01X5200Y5472D02*
G01X5200Y5518D01*
G01X5222Y5404D02*
G01X5200Y5472D01*
G01X5268Y5381D02*
G01X5222Y5404D01*
G04 Draw part A_C8*
G04 draw part outline for part A_C8*
G04 draw reference designator for part A_C8*
G01X6222Y218D02*
G01X6700Y400D01*
G01X6222Y218D02*
G01X6700Y36D01*
G01X6540Y104D02*
G01X6540Y331D01*
G01X6700Y-554D02*
G01X6700Y-145D01*
G01X6290Y-1054D02*
G01X6336Y-1077D01*
G01X6245Y-1009D02*
G01X6290Y-1054D01*
G01X6222Y-963D02*
G01X6245Y-1009D01*
G01X6222Y-872D02*
G01X6222Y-963D01*
G01X6222Y-872D02*
G01X6245Y-827D01*
G01X6245Y-827D02*
G01X6290Y-781D01*
G01X6290Y-781D02*
G01X6336Y-759D01*
G01X6336Y-759D02*
G01X6404Y-736D01*
G01X6404Y-736D02*
G01X6518Y-736D01*
G01X6518Y-736D02*
G01X6586Y-759D01*
G01X6586Y-759D02*
G01X6631Y-781D01*
G01X6631Y-781D02*
G01X6677Y-827D01*
G01X6677Y-827D02*
G01X6700Y-872D01*
G01X6700Y-963D02*
G01X6700Y-872D01*
G01X6677Y-1009D02*
G01X6700Y-963D01*
G01X6631Y-1054D02*
G01X6677Y-1009D01*
G01X6586Y-1077D02*
G01X6631Y-1054D01*
G01X6222Y-1372D02*
G01X6245Y-1304D01*
G01X6245Y-1304D02*
G01X6290Y-1281D01*
G01X6290Y-1281D02*
G01X6336Y-1281D01*
G01X6336Y-1281D02*
G01X6381Y-1304D01*
G01X6381Y-1304D02*
G01X6404Y-1350D01*
G01X6404Y-1350D02*
G01X6427Y-1440D01*
G01X6427Y-1440D02*
G01X6450Y-1509D01*
G01X6450Y-1509D02*
G01X6495Y-1554D01*
G01X6495Y-1554D02*
G01X6540Y-1577D01*
G01X6540Y-1577D02*
G01X6609Y-1577D01*
G01X6609Y-1577D02*
G01X6654Y-1554D01*
G01X6654Y-1554D02*
G01X6677Y-1531D01*
G01X6677Y-1531D02*
G01X6700Y-1463D01*
G01X6700Y-1372D02*
G01X6700Y-1463D01*
G01X6677Y-1304D02*
G01X6700Y-1372D01*
G01X6654Y-1281D02*
G01X6677Y-1304D01*
G01X6609Y-1259D02*
G01X6654Y-1281D01*
G01X6540Y-1259D02*
G01X6609Y-1259D01*
G01X6495Y-1281D02*
G01X6540Y-1259D01*
G01X6450Y-1327D02*
G01X6495Y-1281D01*
G01X6427Y-1395D02*
G01X6450Y-1327D01*
G01X6404Y-1486D02*
G01X6427Y-1395D01*
G01X6381Y-1531D02*
G01X6404Y-1486D01*
G01X6336Y-1554D02*
G01X6381Y-1531D01*
G01X6290Y-1554D02*
G01X6336Y-1554D01*
G01X6245Y-1531D02*
G01X6290Y-1554D01*
G01X6222Y-1463D02*
G01X6245Y-1531D01*
G01X6222Y-1372D02*
G01X6222Y-1463D01*
G04 Draw part A_D6*
G04 Draw part A_R8*
G04 Draw part A_H4*
G04 draw part outline for part A_H4*
G04 draw reference designator for part A_H4*
G01X8022Y5718D02*
G01X8500Y5900D01*
G01X8022Y5718D02*
G01X8500Y5536D01*
G01X8340Y5604D02*
G01X8340Y5831D01*
G01X8500Y4945D02*
G01X8500Y5354D01*
G01X8022Y4763D02*
G01X8500Y4763D01*
G01X8022Y4445D02*
G01X8500Y4445D01*
G01X8250Y4445D02*
G01X8250Y4763D01*
G01X8022Y4036D02*
G01X8340Y4263D01*
G01X8340Y3922D02*
G01X8340Y4263D01*
G01X8022Y4036D02*
G01X8500Y4036D01*
G04 Draw part A_U2*
G04 draw part outline for part A_U2*
G04 draw reference designator for part A_U2*
G01X4818Y6597D02*
G01X5000Y6120D01*
G01X4818Y6597D02*
G01X4636Y6120D01*
G01X4704Y6279D02*
G01X4931Y6279D01*
G01X4045Y6120D02*
G01X4454Y6120D01*
G01X3863Y6597D02*
G01X3863Y6256D01*
G01X3863Y6256D02*
G01X3840Y6188D01*
G01X3840Y6188D02*
G01X3795Y6142D01*
G01X3795Y6142D02*
G01X3727Y6120D01*
G01X3681Y6120D02*
G01X3727Y6120D01*
G01X3613Y6142D02*
G01X3681Y6120D01*
G01X3568Y6188D02*
G01X3613Y6142D01*
G01X3545Y6256D02*
G01X3568Y6188D01*
G01X3545Y6597D02*
G01X3545Y6256D01*
G01X3340Y6506D02*
G01X3340Y6483D01*
G01X3318Y6551D02*
G01X3340Y6506D01*
G01X3295Y6574D02*
G01X3318Y6551D01*
G01X3250Y6597D02*
G01X3295Y6574D01*
G01X3159Y6597D02*
G01X3250Y6597D01*
G01X3159Y6597D02*
G01X3113Y6574D01*
G01X3113Y6574D02*
G01X3090Y6551D01*
G01X3090Y6551D02*
G01X3068Y6506D01*
G01X3068Y6506D02*
G01X3068Y6460D01*
G01X3068Y6460D02*
G01X3090Y6415D01*
G01X3090Y6415D02*
G01X3136Y6347D01*
G01X3136Y6347D02*
G01X3363Y6120D01*
G01X3045Y6120D02*
G01X3363Y6120D01*
G04 Draw part A_H1*
G04 Draw part A_H3*
G04 draw part outline for part A_H3*
G54D11*
G01X7990Y3645D02*
G01X7945Y3600D01*
G01X7945Y3600D02*
G01X7900Y3645D01*
G01X7945Y3690D02*
G01X7900Y3645D01*
G01X7990Y3645D02*
G01X7945Y3690D01*
G04 draw reference designator for part A_H3*
G54D10*
G01X10977Y5281D02*
G01X10500Y5100D01*
G01X10977Y5281D02*
G01X10500Y5463D01*
G01X10659Y5395D02*
G01X10659Y5168D01*
G01X10500Y6054D02*
G01X10500Y5645D01*
G01X10977Y6236D02*
G01X10500Y6236D01*
G01X10977Y6554D02*
G01X10500Y6554D01*
G01X10750Y6554D02*
G01X10750Y6236D01*
G01X10977Y7031D02*
G01X10977Y6781D01*
G01X10977Y7031D02*
G01X10795Y6895D01*
G01X10795Y6963D02*
G01X10795Y6895D01*
G01X10795Y6963D02*
G01X10772Y7009D01*
G01X10772Y7009D02*
G01X10750Y7031D01*
G01X10750Y7031D02*
G01X10681Y7054D01*
G01X10681Y7054D02*
G01X10636Y7054D01*
G01X10636Y7054D02*
G01X10568Y7031D01*
G01X10568Y7031D02*
G01X10522Y6986D01*
G01X10522Y6986D02*
G01X10500Y6918D01*
G01X10500Y6850D02*
G01X10500Y6918D01*
G01X10522Y6781D02*
G01X10500Y6850D01*
G01X10545Y6759D02*
G01X10522Y6781D01*
G01X10590Y6736D02*
G01X10545Y6759D01*
G04 Draw part A_H7*
G04 Draw part A_H6*
G04 Draw part A_H5*
G04 Draw part A_H8*
G04 Draw part A_H9*
G04 Draw part A_H10*
G04 Draw part A_H11*
G04 Draw part A_H12*
G04 Draw part A_H13*
G04 Draw part A_H14*
G04 Draw part A_C12*
G04 draw part outline for part A_C12*
G54D12*
G01X3892Y1451D02*
G01X3892Y2538D01*
G01X3892Y2538D02*
G01X4507Y2538D01*
G01X4507Y2538D02*
G01X4507Y1451D01*
G01X4507Y1451D02*
G01X3892Y1451D01*
G04 draw reference designator for part A_C12*
G54D10*
G01X5677Y2881D02*
G01X5200Y2700D01*
G01X5677Y2881D02*
G01X5200Y3063D01*
G01X5359Y2995D02*
G01X5359Y2768D01*
G01X5200Y3654D02*
G01X5200Y3245D01*
G01X5609Y4154D02*
G01X5563Y4177D01*
G01X5654Y4109D02*
G01X5609Y4154D01*
G01X5677Y4063D02*
G01X5654Y4109D01*
G01X5677Y3972D02*
G01X5677Y4063D01*
G01X5677Y3972D02*
G01X5654Y3927D01*
G01X5654Y3927D02*
G01X5609Y3881D01*
G01X5609Y3881D02*
G01X5563Y3859D01*
G01X5563Y3859D02*
G01X5495Y3836D01*
G01X5495Y3836D02*
G01X5381Y3836D01*
G01X5381Y3836D02*
G01X5313Y3859D01*
G01X5313Y3859D02*
G01X5268Y3881D01*
G01X5268Y3881D02*
G01X5222Y3927D01*
G01X5222Y3927D02*
G01X5200Y3972D01*
G01X5200Y4063D02*
G01X5200Y3972D01*
G01X5222Y4109D02*
G01X5200Y4063D01*
G01X5268Y4154D02*
G01X5222Y4109D01*
G01X5313Y4177D02*
G01X5268Y4154D01*
G01X5609Y4404D02*
G01X5586Y4359D01*
G01X5677Y4472D02*
G01X5609Y4404D01*
G01X5677Y4472D02*
G01X5200Y4472D01*
G01X5586Y4677D02*
G01X5563Y4677D01*
G01X5631Y4700D02*
G01X5586Y4677D01*
G01X5654Y4722D02*
G01X5631Y4700D01*
G01X5677Y4768D02*
G01X5654Y4722D01*
G01X5677Y4859D02*
G01X5677Y4768D01*
G01X5677Y4859D02*
G01X5654Y4904D01*
G01X5654Y4904D02*
G01X5631Y4927D01*
G01X5631Y4927D02*
G01X5586Y4950D01*
G01X5586Y4950D02*
G01X5540Y4950D01*
G01X5540Y4950D02*
G01X5495Y4927D01*
G01X5495Y4927D02*
G01X5427Y4881D01*
G01X5427Y4881D02*
G01X5200Y4654D01*
G01X5200Y4972D02*
G01X5200Y4654D01*
G04 Draw part A_C13*
G04 draw part outline for part A_C13*
G54D12*
G01X2292Y1451D02*
G01X2292Y2538D01*
G01X2292Y2538D02*
G01X2907Y2538D01*
G01X2907Y2538D02*
G01X2907Y1451D01*
G01X2907Y1451D02*
G01X2292Y1451D01*
G04 draw reference designator for part A_C13*
G54D10*
G01X4077Y2881D02*
G01X3600Y2700D01*
G01X4077Y2881D02*
G01X3600Y3063D01*
G01X3759Y2995D02*
G01X3759Y2768D01*
G01X3600Y3654D02*
G01X3600Y3245D01*
G01X4009Y4154D02*
G01X3963Y4177D01*
G01X4054Y4109D02*
G01X4009Y4154D01*
G01X4077Y4063D02*
G01X4054Y4109D01*
G01X4077Y3972D02*
G01X4077Y4063D01*
G01X4077Y3972D02*
G01X4054Y3927D01*
G01X4054Y3927D02*
G01X4009Y3881D01*
G01X4009Y3881D02*
G01X3963Y3859D01*
G01X3963Y3859D02*
G01X3895Y3836D01*
G01X3895Y3836D02*
G01X3781Y3836D01*
G01X3781Y3836D02*
G01X3713Y3859D01*
G01X3713Y3859D02*
G01X3668Y3881D01*
G01X3668Y3881D02*
G01X3622Y3927D01*
G01X3622Y3927D02*
G01X3600Y3972D01*
G01X3600Y4063D02*
G01X3600Y3972D01*
G01X3622Y4109D02*
G01X3600Y4063D01*
G01X3668Y4154D02*
G01X3622Y4109D01*
G01X3713Y4177D02*
G01X3668Y4154D01*
G01X4009Y4404D02*
G01X3986Y4359D01*
G01X4077Y4472D02*
G01X4009Y4404D01*
G01X4077Y4472D02*
G01X3600Y4472D01*
G01X4077Y4950D02*
G01X4077Y4700D01*
G01X4077Y4950D02*
G01X3895Y4813D01*
G01X3895Y4881D02*
G01X3895Y4813D01*
G01X3895Y4881D02*
G01X3872Y4927D01*
G01X3872Y4927D02*
G01X3850Y4950D01*
G01X3850Y4950D02*
G01X3781Y4972D01*
G01X3781Y4972D02*
G01X3736Y4972D01*
G01X3736Y4972D02*
G01X3668Y4950D01*
G01X3668Y4950D02*
G01X3622Y4904D01*
G01X3622Y4904D02*
G01X3600Y4836D01*
G01X3600Y4768D02*
G01X3600Y4836D01*
G01X3622Y4700D02*
G01X3600Y4768D01*
G01X3645Y4677D02*
G01X3622Y4700D01*
G01X3690Y4654D02*
G01X3645Y4677D01*
G04 Draw part A_Fuse1*
G04 draw part outline for part A_Fuse1*
G54D12*
G01X2955Y1992D02*
G01X2955Y3748D01*
G01X2955Y3748D02*
G01X3844Y3748D01*
G01X3844Y3748D02*
G01X3844Y1992D01*
G01X3844Y1992D02*
G01X2955Y1992D01*
G04 draw reference designator for part A_Fuse1*
G54D10*
G01X4277Y4081D02*
G01X3800Y3900D01*
G01X4277Y4081D02*
G01X3800Y4263D01*
G01X3959Y4195D02*
G01X3959Y3968D01*
G01X3800Y4854D02*
G01X3800Y4445D01*
G01X4277Y5036D02*
G01X3800Y5036D01*
G01X4277Y5331D02*
G01X4277Y5036D01*
G01X4050Y5218D02*
G01X4050Y5036D01*
G01X4118Y5513D02*
G01X3890Y5513D01*
G01X3890Y5513D02*
G01X3822Y5536D01*
G01X3822Y5536D02*
G01X3800Y5581D01*
G01X3800Y5650D02*
G01X3800Y5581D01*
G01X3822Y5695D02*
G01X3800Y5650D01*
G01X3890Y5763D02*
G01X3822Y5695D01*
G01X4118Y5763D02*
G01X3800Y5763D01*
G01X4095Y6172D02*
G01X4050Y6195D01*
G01X4118Y6104D02*
G01X4095Y6172D01*
G01X4118Y6036D02*
G01X4118Y6104D01*
G01X4118Y6036D02*
G01X4095Y5968D01*
G01X4095Y5968D02*
G01X4050Y5945D01*
G01X4050Y5945D02*
G01X4004Y5968D01*
G01X4004Y5968D02*
G01X3981Y6013D01*
G01X3981Y6013D02*
G01X3959Y6127D01*
G01X3959Y6127D02*
G01X3936Y6172D01*
G01X3936Y6172D02*
G01X3890Y6195D01*
G01X3890Y6195D02*
G01X3868Y6195D01*
G01X3868Y6195D02*
G01X3822Y6172D01*
G01X3822Y6172D02*
G01X3800Y6104D01*
G01X3800Y6036D02*
G01X3800Y6104D01*
G01X3822Y5968D02*
G01X3800Y6036D01*
G01X3868Y5945D02*
G01X3822Y5968D01*
G01X3981Y6649D02*
G01X3981Y6377D01*
G01X4027Y6649D02*
G01X3981Y6649D01*
G01X4072Y6627D02*
G01X4027Y6649D01*
G01X4095Y6604D02*
G01X4072Y6627D01*
G01X4118Y6559D02*
G01X4095Y6604D01*
G01X4118Y6490D02*
G01X4118Y6559D01*
G01X4118Y6490D02*
G01X4095Y6445D01*
G01X4095Y6445D02*
G01X4050Y6399D01*
G01X4050Y6399D02*
G01X3981Y6377D01*
G01X3981Y6377D02*
G01X3936Y6377D01*
G01X3936Y6377D02*
G01X3868Y6399D01*
G01X3868Y6399D02*
G01X3822Y6445D01*
G01X3822Y6445D02*
G01X3800Y6490D01*
G01X3800Y6559D02*
G01X3800Y6490D01*
G01X3822Y6604D02*
G01X3800Y6559D01*
G01X3868Y6649D02*
G01X3822Y6604D01*
G01X4209Y6877D02*
G01X4186Y6831D01*
G01X4277Y6945D02*
G01X4209Y6877D01*
G01X4277Y6945D02*
G01X3800Y6945D01*
G04 Draw part A_c10*
G04 Draw part A_c11*
G04 draw part outline for part A_c11*
G54D12*
G01X7192Y751D02*
G01X7192Y1838D01*
G01X7192Y1838D02*
G01X7807Y1838D01*
G01X7807Y1838D02*
G01X7807Y751D01*
G01X7807Y751D02*
G01X7192Y751D01*
G04 draw reference designator for part A_c11*
G54D10*
G01X8977Y2181D02*
G01X8500Y2000D01*
G01X8977Y2181D02*
G01X8500Y2363D01*
G01X8659Y2295D02*
G01X8659Y2068D01*
G01X8500Y2954D02*
G01X8500Y2545D01*
G01X8795Y3363D02*
G01X8750Y3409D01*
G01X8818Y3318D02*
G01X8795Y3363D01*
G01X8818Y3250D02*
G01X8818Y3318D01*
G01X8818Y3250D02*
G01X8795Y3204D01*
G01X8795Y3204D02*
G01X8750Y3159D01*
G01X8750Y3159D02*
G01X8681Y3136D01*
G01X8681Y3136D02*
G01X8636Y3136D01*
G01X8636Y3136D02*
G01X8568Y3159D01*
G01X8568Y3159D02*
G01X8522Y3204D01*
G01X8522Y3204D02*
G01X8500Y3250D01*
G01X8500Y3318D02*
G01X8500Y3250D01*
G01X8522Y3363D02*
G01X8500Y3318D01*
G01X8568Y3409D02*
G01X8522Y3363D01*
G01X8909Y3636D02*
G01X8886Y3590D01*
G01X8977Y3704D02*
G01X8909Y3636D01*
G01X8977Y3704D02*
G01X8500Y3704D01*
G01X8909Y3931D02*
G01X8886Y3886D01*
G01X8977Y4000D02*
G01X8909Y3931D01*
G01X8977Y4000D02*
G01X8500Y4000D01*
G04 Draw part B_H2*
G04 Draw part B_H1*
G04 Draw part B_U1*
G04 draw part outline for part B_U1*
G54D11*
G01X2045Y27709D02*
G01X2000Y27754D01*
G01X2000Y27754D02*
G01X2045Y27800D01*
G01X2090Y27754D02*
G01X2045Y27800D01*
G01X2045Y27709D02*
G01X2090Y27754D01*
G04 draw reference designator for part B_U1*
G54D10*
G01X5200Y27322D02*
G01X5200Y27800D01*
G01X5404Y27322D02*
G01X5200Y27322D01*
G01X5404Y27322D02*
G01X5472Y27345D01*
G01X5472Y27345D02*
G01X5495Y27368D01*
G01X5495Y27368D02*
G01X5518Y27413D01*
G01X5518Y27413D02*
G01X5518Y27459D01*
G01X5518Y27459D02*
G01X5495Y27504D01*
G01X5495Y27504D02*
G01X5472Y27527D01*
G01X5472Y27527D02*
G01X5404Y27550D01*
G01X5404Y27550D02*
G01X5200Y27550D01*
G01X5404Y27550D02*
G01X5472Y27572D01*
G01X5472Y27572D02*
G01X5495Y27595D01*
G01X5495Y27595D02*
G01X5518Y27640D01*
G01X5518Y27640D02*
G01X5518Y27709D01*
G01X5518Y27709D02*
G01X5495Y27754D01*
G01X5495Y27754D02*
G01X5472Y27777D01*
G01X5472Y27777D02*
G01X5404Y27800D01*
G01X5200Y27800D02*
G01X5404Y27800D01*
G01X6109Y27800D02*
G01X5700Y27800D01*
G01X6290Y27322D02*
G01X6290Y27663D01*
G01X6290Y27663D02*
G01X6313Y27731D01*
G01X6313Y27731D02*
G01X6359Y27777D01*
G01X6359Y27777D02*
G01X6427Y27800D01*
G01X6472Y27800D02*
G01X6427Y27800D01*
G01X6540Y27777D02*
G01X6472Y27800D01*
G01X6586Y27731D02*
G01X6540Y27777D01*
G01X6609Y27663D02*
G01X6586Y27731D01*
G01X6609Y27322D02*
G01X6609Y27663D01*
G01X6836Y27390D02*
G01X6790Y27413D01*
G01X6904Y27322D02*
G01X6836Y27390D01*
G01X6904Y27322D02*
G01X6904Y27800D01*
G04 Draw part B_L1*
G04 draw part outline for part B_L1*
G04 draw reference designator for part B_L1*
G01X6400Y27722D02*
G01X6400Y28200D01*
G01X6604Y27722D02*
G01X6400Y27722D01*
G01X6604Y27722D02*
G01X6672Y27745D01*
G01X6672Y27745D02*
G01X6695Y27768D01*
G01X6695Y27768D02*
G01X6718Y27813D01*
G01X6718Y27813D02*
G01X6718Y27859D01*
G01X6718Y27859D02*
G01X6695Y27904D01*
G01X6695Y27904D02*
G01X6672Y27927D01*
G01X6672Y27927D02*
G01X6604Y27950D01*
G01X6604Y27950D02*
G01X6400Y27950D01*
G01X6604Y27950D02*
G01X6672Y27972D01*
G01X6672Y27972D02*
G01X6695Y27995D01*
G01X6695Y27995D02*
G01X6718Y28040D01*
G01X6718Y28040D02*
G01X6718Y28109D01*
G01X6718Y28109D02*
G01X6695Y28154D01*
G01X6695Y28154D02*
G01X6672Y28177D01*
G01X6672Y28177D02*
G01X6604Y28200D01*
G01X6400Y28200D02*
G01X6604Y28200D01*
G01X7309Y28200D02*
G01X6900Y28200D01*
G01X7490Y27722D02*
G01X7490Y28200D01*
G01X7763Y28200D02*
G01X7490Y28200D01*
G01X7990Y27790D02*
G01X7945Y27813D01*
G01X8059Y27722D02*
G01X7990Y27790D01*
G01X8059Y27722D02*
G01X8059Y28200D01*
G04 Draw part B_R2*
G04 draw part outline for part B_R2*
G04 draw reference designator for part B_R2*
G01X5500Y26922D02*
G01X5500Y27400D01*
G01X5704Y26922D02*
G01X5500Y26922D01*
G01X5704Y26922D02*
G01X5772Y26945D01*
G01X5772Y26945D02*
G01X5795Y26968D01*
G01X5795Y26968D02*
G01X5818Y27013D01*
G01X5818Y27013D02*
G01X5818Y27059D01*
G01X5818Y27059D02*
G01X5795Y27104D01*
G01X5795Y27104D02*
G01X5772Y27127D01*
G01X5772Y27127D02*
G01X5704Y27150D01*
G01X5704Y27150D02*
G01X5500Y27150D01*
G01X5704Y27150D02*
G01X5772Y27172D01*
G01X5772Y27172D02*
G01X5795Y27195D01*
G01X5795Y27195D02*
G01X5818Y27240D01*
G01X5818Y27240D02*
G01X5818Y27309D01*
G01X5818Y27309D02*
G01X5795Y27354D01*
G01X5795Y27354D02*
G01X5772Y27377D01*
G01X5772Y27377D02*
G01X5704Y27400D01*
G01X5500Y27400D02*
G01X5704Y27400D01*
G01X6409Y27400D02*
G01X6000Y27400D01*
G01X6590Y26922D02*
G01X6590Y27400D01*
G01X6795Y26922D02*
G01X6590Y26922D01*
G01X6795Y26922D02*
G01X6863Y26945D01*
G01X6863Y26945D02*
G01X6886Y26968D01*
G01X6886Y26968D02*
G01X6909Y27013D01*
G01X6909Y27013D02*
G01X6909Y27059D01*
G01X6909Y27059D02*
G01X6886Y27104D01*
G01X6886Y27104D02*
G01X6863Y27127D01*
G01X6863Y27127D02*
G01X6795Y27150D01*
G01X6590Y27150D02*
G01X6795Y27150D01*
G01X6750Y27150D02*
G01X6909Y27400D01*
G01X7113Y27013D02*
G01X7113Y27036D01*
G01X7136Y26968D02*
G01X7113Y27013D01*
G01X7159Y26945D02*
G01X7136Y26968D01*
G01X7204Y26922D02*
G01X7159Y26945D01*
G01X7295Y26922D02*
G01X7204Y26922D01*
G01X7295Y26922D02*
G01X7340Y26945D01*
G01X7340Y26945D02*
G01X7363Y26968D01*
G01X7363Y26968D02*
G01X7386Y27013D01*
G01X7386Y27013D02*
G01X7386Y27059D01*
G01X7386Y27059D02*
G01X7363Y27104D01*
G01X7363Y27104D02*
G01X7318Y27172D01*
G01X7318Y27172D02*
G01X7090Y27400D01*
G01X7409Y27400D02*
G01X7090Y27400D01*
G04 Draw part B_X1*
G04 draw part outline for part B_X1*
G04 draw reference designator for part B_X1*
G01X2400Y33977D02*
G01X2400Y33500D01*
G01X2195Y33977D02*
G01X2400Y33977D01*
G01X2195Y33977D02*
G01X2127Y33954D01*
G01X2127Y33954D02*
G01X2104Y33931D01*
G01X2104Y33931D02*
G01X2081Y33886D01*
G01X2081Y33886D02*
G01X2081Y33840D01*
G01X2081Y33840D02*
G01X2104Y33795D01*
G01X2104Y33795D02*
G01X2127Y33772D01*
G01X2127Y33772D02*
G01X2195Y33750D01*
G01X2195Y33750D02*
G01X2400Y33750D01*
G01X2195Y33750D02*
G01X2127Y33727D01*
G01X2127Y33727D02*
G01X2104Y33704D01*
G01X2104Y33704D02*
G01X2081Y33659D01*
G01X2081Y33659D02*
G01X2081Y33590D01*
G01X2081Y33590D02*
G01X2104Y33545D01*
G01X2104Y33545D02*
G01X2127Y33522D01*
G01X2127Y33522D02*
G01X2195Y33500D01*
G01X2400Y33500D02*
G01X2195Y33500D01*
G01X1490Y33500D02*
G01X1900Y33500D01*
G01X1309Y33977D02*
G01X990Y33500D01*
G01X990Y33977D02*
G01X1309Y33500D01*
G01X763Y33909D02*
G01X809Y33886D01*
G01X695Y33977D02*
G01X763Y33909D01*
G01X695Y33977D02*
G01X695Y33500D01*
G04 Draw part B_C1*
G04 draw part outline for part B_C1*
G04 draw reference designator for part B_C1*
G01X3800Y30172D02*
G01X3800Y30650D01*
G01X4004Y30172D02*
G01X3800Y30172D01*
G01X4004Y30172D02*
G01X4072Y30195D01*
G01X4072Y30195D02*
G01X4095Y30218D01*
G01X4095Y30218D02*
G01X4118Y30263D01*
G01X4118Y30263D02*
G01X4118Y30309D01*
G01X4118Y30309D02*
G01X4095Y30354D01*
G01X4095Y30354D02*
G01X4072Y30377D01*
G01X4072Y30377D02*
G01X4004Y30400D01*
G01X4004Y30400D02*
G01X3800Y30400D01*
G01X4004Y30400D02*
G01X4072Y30422D01*
G01X4072Y30422D02*
G01X4095Y30445D01*
G01X4095Y30445D02*
G01X4118Y30490D01*
G01X4118Y30490D02*
G01X4118Y30559D01*
G01X4118Y30559D02*
G01X4095Y30604D01*
G01X4095Y30604D02*
G01X4072Y30627D01*
G01X4072Y30627D02*
G01X4004Y30650D01*
G01X3800Y30650D02*
G01X4004Y30650D01*
G01X4709Y30650D02*
G01X4300Y30650D01*
G01X5209Y30240D02*
G01X5231Y30286D01*
G01X5163Y30195D02*
G01X5209Y30240D01*
G01X5118Y30172D02*
G01X5163Y30195D01*
G01X5027Y30172D02*
G01X5118Y30172D01*
G01X5027Y30172D02*
G01X4981Y30195D01*
G01X4981Y30195D02*
G01X4936Y30240D01*
G01X4936Y30240D02*
G01X4913Y30286D01*
G01X4913Y30286D02*
G01X4890Y30354D01*
G01X4890Y30354D02*
G01X4890Y30468D01*
G01X4890Y30468D02*
G01X4913Y30536D01*
G01X4913Y30536D02*
G01X4936Y30581D01*
G01X4936Y30581D02*
G01X4981Y30627D01*
G01X4981Y30627D02*
G01X5027Y30650D01*
G01X5118Y30650D02*
G01X5027Y30650D01*
G01X5163Y30627D02*
G01X5118Y30650D01*
G01X5209Y30581D02*
G01X5163Y30627D01*
G01X5231Y30536D02*
G01X5209Y30581D01*
G01X5459Y30240D02*
G01X5413Y30263D01*
G01X5527Y30172D02*
G01X5459Y30240D01*
G01X5527Y30172D02*
G01X5527Y30650D01*
G04 Draw part B_C2*
G04 draw part outline for part B_C2*
G04 draw reference designator for part B_C2*
G01X2450Y31277D02*
G01X2450Y30800D01*
G01X2245Y31277D02*
G01X2450Y31277D01*
G01X2245Y31277D02*
G01X2177Y31254D01*
G01X2177Y31254D02*
G01X2154Y31231D01*
G01X2154Y31231D02*
G01X2131Y31186D01*
G01X2131Y31186D02*
G01X2131Y31140D01*
G01X2131Y31140D02*
G01X2154Y31095D01*
G01X2154Y31095D02*
G01X2177Y31072D01*
G01X2177Y31072D02*
G01X2245Y31050D01*
G01X2245Y31050D02*
G01X2450Y31050D01*
G01X2245Y31050D02*
G01X2177Y31027D01*
G01X2177Y31027D02*
G01X2154Y31004D01*
G01X2154Y31004D02*
G01X2131Y30959D01*
G01X2131Y30959D02*
G01X2131Y30890D01*
G01X2131Y30890D02*
G01X2154Y30845D01*
G01X2154Y30845D02*
G01X2177Y30822D01*
G01X2177Y30822D02*
G01X2245Y30800D01*
G01X2450Y30800D02*
G01X2245Y30800D01*
G01X1540Y30800D02*
G01X1950Y30800D01*
G01X1040Y31209D02*
G01X1018Y31163D01*
G01X1086Y31254D02*
G01X1040Y31209D01*
G01X1131Y31277D02*
G01X1086Y31254D01*
G01X1222Y31277D02*
G01X1131Y31277D01*
G01X1222Y31277D02*
G01X1268Y31254D01*
G01X1268Y31254D02*
G01X1313Y31209D01*
G01X1313Y31209D02*
G01X1336Y31163D01*
G01X1336Y31163D02*
G01X1359Y31095D01*
G01X1359Y31095D02*
G01X1359Y30981D01*
G01X1359Y30981D02*
G01X1336Y30913D01*
G01X1336Y30913D02*
G01X1313Y30868D01*
G01X1313Y30868D02*
G01X1268Y30822D01*
G01X1268Y30822D02*
G01X1222Y30800D01*
G01X1131Y30800D02*
G01X1222Y30800D01*
G01X1086Y30822D02*
G01X1131Y30800D01*
G01X1040Y30868D02*
G01X1086Y30822D01*
G01X1018Y30913D02*
G01X1040Y30868D01*
G01X813Y31186D02*
G01X813Y31163D01*
G01X790Y31231D02*
G01X813Y31186D01*
G01X768Y31254D02*
G01X790Y31231D01*
G01X722Y31277D02*
G01X768Y31254D01*
G01X631Y31277D02*
G01X722Y31277D01*
G01X631Y31277D02*
G01X586Y31254D01*
G01X586Y31254D02*
G01X563Y31231D01*
G01X563Y31231D02*
G01X540Y31186D01*
G01X540Y31186D02*
G01X540Y31140D01*
G01X540Y31140D02*
G01X563Y31095D01*
G01X563Y31095D02*
G01X609Y31027D01*
G01X609Y31027D02*
G01X836Y30800D01*
G01X518Y30800D02*
G01X836Y30800D01*
G04 Draw part B_C4*
G04 draw part outline for part B_C4*
G04 draw reference designator for part B_C4*
G01X3722Y27800D02*
G01X4200Y27800D01*
G01X3722Y27595D02*
G01X3722Y27800D01*
G01X3722Y27595D02*
G01X3745Y27527D01*
G01X3745Y27527D02*
G01X3768Y27504D01*
G01X3768Y27504D02*
G01X3813Y27481D01*
G01X3813Y27481D02*
G01X3859Y27481D01*
G01X3859Y27481D02*
G01X3904Y27504D01*
G01X3904Y27504D02*
G01X3927Y27527D01*
G01X3927Y27527D02*
G01X3950Y27595D01*
G01X3950Y27595D02*
G01X3950Y27800D01*
G01X3950Y27595D02*
G01X3972Y27527D01*
G01X3972Y27527D02*
G01X3995Y27504D01*
G01X3995Y27504D02*
G01X4040Y27481D01*
G01X4040Y27481D02*
G01X4109Y27481D01*
G01X4109Y27481D02*
G01X4154Y27504D01*
G01X4154Y27504D02*
G01X4177Y27527D01*
G01X4177Y27527D02*
G01X4200Y27595D01*
G01X4200Y27800D02*
G01X4200Y27595D01*
G01X4200Y26890D02*
G01X4200Y27300D01*
G01X3790Y26390D02*
G01X3836Y26368D01*
G01X3745Y26436D02*
G01X3790Y26390D01*
G01X3722Y26481D02*
G01X3745Y26436D01*
G01X3722Y26572D02*
G01X3722Y26481D01*
G01X3722Y26572D02*
G01X3745Y26618D01*
G01X3745Y26618D02*
G01X3790Y26663D01*
G01X3790Y26663D02*
G01X3836Y26686D01*
G01X3836Y26686D02*
G01X3904Y26709D01*
G01X3904Y26709D02*
G01X4018Y26709D01*
G01X4018Y26709D02*
G01X4086Y26686D01*
G01X4086Y26686D02*
G01X4131Y26663D01*
G01X4131Y26663D02*
G01X4177Y26618D01*
G01X4177Y26618D02*
G01X4200Y26572D01*
G01X4200Y26481D02*
G01X4200Y26572D01*
G01X4177Y26436D02*
G01X4200Y26481D01*
G01X4131Y26390D02*
G01X4177Y26436D01*
G01X4086Y26368D02*
G01X4131Y26390D01*
G01X3722Y25959D02*
G01X4040Y26186D01*
G01X4040Y25845D02*
G01X4040Y26186D01*
G01X3722Y25959D02*
G01X4200Y25959D01*
G04 Draw part B_C3*
G04 draw part outline for part B_C3*
G04 draw reference designator for part B_C3*
G01X4122Y27800D02*
G01X4600Y27800D01*
G01X4122Y27595D02*
G01X4122Y27800D01*
G01X4122Y27595D02*
G01X4145Y27527D01*
G01X4145Y27527D02*
G01X4168Y27504D01*
G01X4168Y27504D02*
G01X4213Y27481D01*
G01X4213Y27481D02*
G01X4259Y27481D01*
G01X4259Y27481D02*
G01X4304Y27504D01*
G01X4304Y27504D02*
G01X4327Y27527D01*
G01X4327Y27527D02*
G01X4350Y27595D01*
G01X4350Y27595D02*
G01X4350Y27800D01*
G01X4350Y27595D02*
G01X4372Y27527D01*
G01X4372Y27527D02*
G01X4395Y27504D01*
G01X4395Y27504D02*
G01X4440Y27481D01*
G01X4440Y27481D02*
G01X4509Y27481D01*
G01X4509Y27481D02*
G01X4554Y27504D01*
G01X4554Y27504D02*
G01X4577Y27527D01*
G01X4577Y27527D02*
G01X4600Y27595D01*
G01X4600Y27800D02*
G01X4600Y27595D01*
G01X4600Y26890D02*
G01X4600Y27300D01*
G01X4190Y26390D02*
G01X4236Y26368D01*
G01X4145Y26436D02*
G01X4190Y26390D01*
G01X4122Y26481D02*
G01X4145Y26436D01*
G01X4122Y26572D02*
G01X4122Y26481D01*
G01X4122Y26572D02*
G01X4145Y26618D01*
G01X4145Y26618D02*
G01X4190Y26663D01*
G01X4190Y26663D02*
G01X4236Y26686D01*
G01X4236Y26686D02*
G01X4304Y26709D01*
G01X4304Y26709D02*
G01X4418Y26709D01*
G01X4418Y26709D02*
G01X4486Y26686D01*
G01X4486Y26686D02*
G01X4531Y26663D01*
G01X4531Y26663D02*
G01X4577Y26618D01*
G01X4577Y26618D02*
G01X4600Y26572D01*
G01X4600Y26481D02*
G01X4600Y26572D01*
G01X4577Y26436D02*
G01X4600Y26481D01*
G01X4531Y26390D02*
G01X4577Y26436D01*
G01X4486Y26368D02*
G01X4531Y26390D01*
G01X4122Y25890D02*
G01X4122Y26140D01*
G01X4122Y25890D02*
G01X4304Y26027D01*
G01X4304Y25959D02*
G01X4304Y26027D01*
G01X4304Y25959D02*
G01X4327Y25913D01*
G01X4327Y25913D02*
G01X4350Y25890D01*
G01X4350Y25890D02*
G01X4418Y25868D01*
G01X4418Y25868D02*
G01X4463Y25868D01*
G01X4463Y25868D02*
G01X4531Y25890D01*
G01X4531Y25890D02*
G01X4577Y25936D01*
G01X4577Y25936D02*
G01X4600Y26004D01*
G01X4600Y26072D02*
G01X4600Y26004D01*
G01X4577Y26140D02*
G01X4600Y26072D01*
G01X4554Y26163D02*
G01X4577Y26140D01*
G01X4509Y26186D02*
G01X4554Y26163D01*
G04 Draw part B_C7*
G04 draw part outline for part B_C7*
G04 draw reference designator for part B_C7*
G01X1922Y25800D02*
G01X2400Y25800D01*
G01X1922Y25595D02*
G01X1922Y25800D01*
G01X1922Y25595D02*
G01X1945Y25527D01*
G01X1945Y25527D02*
G01X1968Y25504D01*
G01X1968Y25504D02*
G01X2013Y25481D01*
G01X2013Y25481D02*
G01X2059Y25481D01*
G01X2059Y25481D02*
G01X2104Y25504D01*
G01X2104Y25504D02*
G01X2127Y25527D01*
G01X2127Y25527D02*
G01X2150Y25595D01*
G01X2150Y25595D02*
G01X2150Y25800D01*
G01X2150Y25595D02*
G01X2172Y25527D01*
G01X2172Y25527D02*
G01X2195Y25504D01*
G01X2195Y25504D02*
G01X2240Y25481D01*
G01X2240Y25481D02*
G01X2309Y25481D01*
G01X2309Y25481D02*
G01X2354Y25504D01*
G01X2354Y25504D02*
G01X2377Y25527D01*
G01X2377Y25527D02*
G01X2400Y25595D01*
G01X2400Y25800D02*
G01X2400Y25595D01*
G01X2400Y24890D02*
G01X2400Y25300D01*
G01X1990Y24390D02*
G01X2036Y24368D01*
G01X1945Y24436D02*
G01X1990Y24390D01*
G01X1922Y24481D02*
G01X1945Y24436D01*
G01X1922Y24572D02*
G01X1922Y24481D01*
G01X1922Y24572D02*
G01X1945Y24618D01*
G01X1945Y24618D02*
G01X1990Y24663D01*
G01X1990Y24663D02*
G01X2036Y24686D01*
G01X2036Y24686D02*
G01X2104Y24709D01*
G01X2104Y24709D02*
G01X2218Y24709D01*
G01X2218Y24709D02*
G01X2286Y24686D01*
G01X2286Y24686D02*
G01X2331Y24663D01*
G01X2331Y24663D02*
G01X2377Y24618D01*
G01X2377Y24618D02*
G01X2400Y24572D01*
G01X2400Y24481D02*
G01X2400Y24572D01*
G01X2377Y24436D02*
G01X2400Y24481D01*
G01X2331Y24390D02*
G01X2377Y24436D01*
G01X2286Y24368D02*
G01X2331Y24390D01*
G01X1922Y23868D02*
G01X2400Y24095D01*
G01X1922Y23868D02*
G01X1922Y24186D01*
G04 Draw part B_C8*
G04 draw part outline for part B_C8*
G04 draw reference designator for part B_C8*
G01X3300Y28477D02*
G01X3300Y28000D01*
G01X3095Y28477D02*
G01X3300Y28477D01*
G01X3095Y28477D02*
G01X3027Y28454D01*
G01X3027Y28454D02*
G01X3004Y28431D01*
G01X3004Y28431D02*
G01X2981Y28386D01*
G01X2981Y28386D02*
G01X2981Y28340D01*
G01X2981Y28340D02*
G01X3004Y28295D01*
G01X3004Y28295D02*
G01X3027Y28272D01*
G01X3027Y28272D02*
G01X3095Y28250D01*
G01X3095Y28250D02*
G01X3300Y28250D01*
G01X3095Y28250D02*
G01X3027Y28227D01*
G01X3027Y28227D02*
G01X3004Y28204D01*
G01X3004Y28204D02*
G01X2981Y28159D01*
G01X2981Y28159D02*
G01X2981Y28090D01*
G01X2981Y28090D02*
G01X3004Y28045D01*
G01X3004Y28045D02*
G01X3027Y28022D01*
G01X3027Y28022D02*
G01X3095Y28000D01*
G01X3300Y28000D02*
G01X3095Y28000D01*
G01X2390Y28000D02*
G01X2800Y28000D01*
G01X1890Y28409D02*
G01X1868Y28363D01*
G01X1936Y28454D02*
G01X1890Y28409D01*
G01X1981Y28477D02*
G01X1936Y28454D01*
G01X2072Y28477D02*
G01X1981Y28477D01*
G01X2072Y28477D02*
G01X2118Y28454D01*
G01X2118Y28454D02*
G01X2163Y28409D01*
G01X2163Y28409D02*
G01X2186Y28363D01*
G01X2186Y28363D02*
G01X2209Y28295D01*
G01X2209Y28295D02*
G01X2209Y28181D01*
G01X2209Y28181D02*
G01X2186Y28113D01*
G01X2186Y28113D02*
G01X2163Y28068D01*
G01X2163Y28068D02*
G01X2118Y28022D01*
G01X2118Y28022D02*
G01X2072Y28000D01*
G01X1981Y28000D02*
G01X2072Y28000D01*
G01X1936Y28022D02*
G01X1981Y28000D01*
G01X1890Y28068D02*
G01X1936Y28022D01*
G01X1868Y28113D02*
G01X1890Y28068D01*
G01X1572Y28477D02*
G01X1640Y28454D01*
G01X1640Y28454D02*
G01X1663Y28409D01*
G01X1663Y28409D02*
G01X1663Y28363D01*
G01X1663Y28363D02*
G01X1640Y28318D01*
G01X1640Y28318D02*
G01X1595Y28295D01*
G01X1595Y28295D02*
G01X1504Y28272D01*
G01X1504Y28272D02*
G01X1436Y28250D01*
G01X1436Y28250D02*
G01X1390Y28204D01*
G01X1390Y28204D02*
G01X1368Y28159D01*
G01X1368Y28159D02*
G01X1368Y28090D01*
G01X1368Y28090D02*
G01X1390Y28045D01*
G01X1390Y28045D02*
G01X1413Y28022D01*
G01X1413Y28022D02*
G01X1481Y28000D01*
G01X1572Y28000D02*
G01X1481Y28000D01*
G01X1640Y28022D02*
G01X1572Y28000D01*
G01X1663Y28045D02*
G01X1640Y28022D01*
G01X1686Y28090D02*
G01X1663Y28045D01*
G01X1686Y28159D02*
G01X1686Y28090D01*
G01X1663Y28204D02*
G01X1686Y28159D01*
G01X1618Y28250D02*
G01X1663Y28204D01*
G01X1550Y28272D02*
G01X1618Y28250D01*
G01X1459Y28295D02*
G01X1550Y28272D01*
G01X1413Y28318D02*
G01X1459Y28295D01*
G01X1390Y28363D02*
G01X1413Y28318D01*
G01X1390Y28409D02*
G01X1390Y28363D01*
G01X1413Y28454D02*
G01X1390Y28409D01*
G01X1481Y28477D02*
G01X1413Y28454D01*
G01X1572Y28477D02*
G01X1481Y28477D01*
G04 Draw part B_C9*
G04 draw part outline for part B_C9*
G04 draw reference designator for part B_C9*
G01X3300Y28077D02*
G01X3300Y27600D01*
G01X3095Y28077D02*
G01X3300Y28077D01*
G01X3095Y28077D02*
G01X3027Y28054D01*
G01X3027Y28054D02*
G01X3004Y28031D01*
G01X3004Y28031D02*
G01X2981Y27986D01*
G01X2981Y27986D02*
G01X2981Y27940D01*
G01X2981Y27940D02*
G01X3004Y27895D01*
G01X3004Y27895D02*
G01X3027Y27872D01*
G01X3027Y27872D02*
G01X3095Y27850D01*
G01X3095Y27850D02*
G01X3300Y27850D01*
G01X3095Y27850D02*
G01X3027Y27827D01*
G01X3027Y27827D02*
G01X3004Y27804D01*
G01X3004Y27804D02*
G01X2981Y27759D01*
G01X2981Y27759D02*
G01X2981Y27690D01*
G01X2981Y27690D02*
G01X3004Y27645D01*
G01X3004Y27645D02*
G01X3027Y27622D01*
G01X3027Y27622D02*
G01X3095Y27600D01*
G01X3300Y27600D02*
G01X3095Y27600D01*
G01X2390Y27600D02*
G01X2800Y27600D01*
G01X1890Y28009D02*
G01X1868Y27963D01*
G01X1936Y28054D02*
G01X1890Y28009D01*
G01X1981Y28077D02*
G01X1936Y28054D01*
G01X2072Y28077D02*
G01X1981Y28077D01*
G01X2072Y28077D02*
G01X2118Y28054D01*
G01X2118Y28054D02*
G01X2163Y28009D01*
G01X2163Y28009D02*
G01X2186Y27963D01*
G01X2186Y27963D02*
G01X2209Y27895D01*
G01X2209Y27895D02*
G01X2209Y27781D01*
G01X2209Y27781D02*
G01X2186Y27713D01*
G01X2186Y27713D02*
G01X2163Y27668D01*
G01X2163Y27668D02*
G01X2118Y27622D01*
G01X2118Y27622D02*
G01X2072Y27600D01*
G01X1981Y27600D02*
G01X2072Y27600D01*
G01X1936Y27622D02*
G01X1981Y27600D01*
G01X1890Y27668D02*
G01X1936Y27622D01*
G01X1868Y27713D02*
G01X1890Y27668D01*
G01X1390Y27918D02*
G01X1413Y27850D01*
G01X1413Y27850D02*
G01X1459Y27804D01*
G01X1459Y27804D02*
G01X1527Y27781D01*
G01X1550Y27781D02*
G01X1527Y27781D01*
G01X1618Y27804D02*
G01X1550Y27781D01*
G01X1663Y27850D02*
G01X1618Y27804D01*
G01X1686Y27918D02*
G01X1663Y27850D01*
G01X1686Y27940D02*
G01X1686Y27918D01*
G01X1663Y28009D02*
G01X1686Y27940D01*
G01X1618Y28054D02*
G01X1663Y28009D01*
G01X1550Y28077D02*
G01X1618Y28054D01*
G01X1527Y28077D02*
G01X1550Y28077D01*
G01X1527Y28077D02*
G01X1459Y28054D01*
G01X1459Y28054D02*
G01X1413Y28009D01*
G01X1413Y28009D02*
G01X1390Y27918D01*
G01X1390Y27918D02*
G01X1390Y27804D01*
G01X1390Y27804D02*
G01X1413Y27690D01*
G01X1413Y27690D02*
G01X1459Y27622D01*
G01X1459Y27622D02*
G01X1527Y27600D01*
G01X1572Y27600D02*
G01X1527Y27600D01*
G01X1640Y27622D02*
G01X1572Y27600D01*
G01X1663Y27668D02*
G01X1640Y27622D01*
G04 Draw part B_A1*
G04 draw part outline for part B_A1*
G04 draw reference designator for part B_A1*
G01X8100Y33677D02*
G01X8100Y33200D01*
G01X7895Y33677D02*
G01X8100Y33677D01*
G01X7895Y33677D02*
G01X7827Y33654D01*
G01X7827Y33654D02*
G01X7804Y33631D01*
G01X7804Y33631D02*
G01X7781Y33586D01*
G01X7781Y33586D02*
G01X7781Y33540D01*
G01X7781Y33540D02*
G01X7804Y33495D01*
G01X7804Y33495D02*
G01X7827Y33472D01*
G01X7827Y33472D02*
G01X7895Y33450D01*
G01X7895Y33450D02*
G01X8100Y33450D01*
G01X7895Y33450D02*
G01X7827Y33427D01*
G01X7827Y33427D02*
G01X7804Y33404D01*
G01X7804Y33404D02*
G01X7781Y33359D01*
G01X7781Y33359D02*
G01X7781Y33290D01*
G01X7781Y33290D02*
G01X7804Y33245D01*
G01X7804Y33245D02*
G01X7827Y33222D01*
G01X7827Y33222D02*
G01X7895Y33200D01*
G01X8100Y33200D02*
G01X7895Y33200D01*
G01X7190Y33200D02*
G01X7600Y33200D01*
G01X6827Y33677D02*
G01X7009Y33200D01*
G01X6827Y33677D02*
G01X6645Y33200D01*
G01X6713Y33359D02*
G01X6940Y33359D01*
G01X6418Y33609D02*
G01X6463Y33586D01*
G01X6350Y33677D02*
G01X6418Y33609D01*
G01X6350Y33677D02*
G01X6350Y33200D01*
G04 Draw part B_v1*
G04 Draw part B_v2*
G04 Draw part B_v3*
G04 Draw part B_v4*
G04 Draw part B_v5*
G04 Draw part B_v6*
G04 Draw part B_v7*
G04 Draw part B_v8*
G04 Draw part B_v11*
G04 Draw part B_v12*
G04 Draw part B_v13*
G04 Draw part B_B1*
G04 draw part outline for part B_B1*
G04 draw reference designator for part B_B1*
G01X3622Y27500D02*
G01X4100Y27500D01*
G01X3622Y27295D02*
G01X3622Y27500D01*
G01X3622Y27295D02*
G01X3645Y27227D01*
G01X3645Y27227D02*
G01X3668Y27204D01*
G01X3668Y27204D02*
G01X3713Y27181D01*
G01X3713Y27181D02*
G01X3759Y27181D01*
G01X3759Y27181D02*
G01X3804Y27204D01*
G01X3804Y27204D02*
G01X3827Y27227D01*
G01X3827Y27227D02*
G01X3850Y27295D01*
G01X3850Y27295D02*
G01X3850Y27500D01*
G01X3850Y27295D02*
G01X3872Y27227D01*
G01X3872Y27227D02*
G01X3895Y27204D01*
G01X3895Y27204D02*
G01X3940Y27181D01*
G01X3940Y27181D02*
G01X4009Y27181D01*
G01X4009Y27181D02*
G01X4054Y27204D01*
G01X4054Y27204D02*
G01X4077Y27227D01*
G01X4077Y27227D02*
G01X4100Y27295D01*
G01X4100Y27500D02*
G01X4100Y27295D01*
G01X4100Y26590D02*
G01X4100Y27000D01*
G01X3622Y26409D02*
G01X4100Y26409D01*
G01X3622Y26204D02*
G01X3622Y26409D01*
G01X3622Y26204D02*
G01X3645Y26136D01*
G01X3645Y26136D02*
G01X3668Y26113D01*
G01X3668Y26113D02*
G01X3713Y26090D01*
G01X3713Y26090D02*
G01X3759Y26090D01*
G01X3759Y26090D02*
G01X3804Y26113D01*
G01X3804Y26113D02*
G01X3827Y26136D01*
G01X3827Y26136D02*
G01X3850Y26204D01*
G01X3850Y26204D02*
G01X3850Y26409D01*
G01X3850Y26204D02*
G01X3872Y26136D01*
G01X3872Y26136D02*
G01X3895Y26113D01*
G01X3895Y26113D02*
G01X3940Y26090D01*
G01X3940Y26090D02*
G01X4009Y26090D01*
G01X4009Y26090D02*
G01X4054Y26113D01*
G01X4054Y26113D02*
G01X4077Y26136D01*
G01X4077Y26136D02*
G01X4100Y26204D01*
G01X4100Y26409D02*
G01X4100Y26204D01*
G01X3690Y25863D02*
G01X3713Y25909D01*
G01X3622Y25795D02*
G01X3690Y25863D01*
G01X3622Y25795D02*
G01X4100Y25795D01*

G04 Draw traces*

G04 Draw Text*
M00*
M02*
