G04 FreePCB version 1.359*
G04 C:\Users\Jack Ruby\Documents\GitHub\DAQpack_mk2\baseCAM\bottom_paste_mask.grb*
G04 bottom paste mask layer *
G04 Scale: 100 percent, Rotated: No, Reflected: No *
%FSLAX24Y24*%
%MOIN*%
%LN bottom paste mask *%
G04 Rounded Rectangle Macro, params: W/2, H/2, R *
%AMRNDREC*
21,1,$1+$1,$2+$2-$3-$3,0,0,0*
21,1,$1+$1-$3-$3,$2+$2,0,0,0*
1,1,$3+$3,$1-$3,$2-$3*
1,1,$3+$3,$3-$1,$2-$3*
1,1,$3+$3,$1-$3,$3-$2*
1,1,$3+$3,$3-$1,$3-$2*%
G04 Rectangular Thermal Macro, params: W/2, H/2, T/2 *
%AMRECTHERM*
$4=$3/2*
21,1,$1-$3,$2-$3,0-$1/2-$4,0-$2/2-$4,0*
21,1,$1-$3,$2-$3,0-$1/2-$4,$2/2+$4,0*
21,1,$1-$3,$2-$3,$1/2+$4,0-$2/2-$4,0*
21,1,$1-$3,$2-$3,$1/2+$4,$2/2+$4,0*%
%ADD10C,0.005000*%
%ADD11R,0.023622X0.009055*%
%ADD12R,0.009055X0.023622*%
%ADD13R,0.122047X0.122047*%
%ADD14R,0.049213X0.023622*%
%ADD15R,0.047244X0.023622*%
%ADD16R,0.019685X0.023622*%
%ADD17R,0.023622X0.019685*%
%ADD18R,0.094488X0.074803*%
%ADD19R,0.053150X0.015748*%
%ADD20R,0.055118X0.062992*%
%ADD21R,0.051181X0.090551*%
%ADD22R,0.074803X0.070866*%
%ADD23R,0.023622X0.035433*%
%ADD24R,0.035433X0.023622*%
%ADD25R,0.027559X0.011811*%
%ADD26R,0.039370X0.011811*%
%ADD27R,0.011811X0.023622*%
%ADD28R,0.023622X0.011811*%
%ADD29RNDREC,0.062992X0.062992X0.019685*%
%ADD30R,0.062992X0.035433*%
%ADD31R,0.027559X0.009843*%
%ADD32R,0.009843X0.027559*%
%ADD33R,0.102362X0.102362*%
%ADD34R,0.035433X0.031496*%
%ADD35R,0.060000X0.160000*%
%ADD36R,0.014000X0.014000*%
%ADD37R,0.011000X0.011000*%
G90*
G70D02*

G04 Step and Repeat for panelization *

G04 ----------------------- Draw board outline (positive)*
%LPD*%
G54D10*
G01X0Y0D02*
G01X10200Y0D01*
G04 end of side 1*
G01X10200Y22700D01*
G04 end of side 2*
G01X0Y22700D01*
G04 end of side 3*
G01X0Y0D01*
G01X0Y23700D02*
G01X0Y31400D01*
G04 end of side 1*
G01X10300Y31400D01*
G04 end of side 2*
G01X10300Y23700D01*
G04 end of side 3*
G01X0Y23700D01*

G04 -------------- Draw Parts, Pads, Traces, Vias and Text (positive)*
%LPD*%
G04 Draw part A_U1*
G54D11*
G01X4374Y13222D03*
G01X4374Y13418D03*
G01X4374Y13615D03*
G01X4374Y13812D03*
G01X4374Y14009D03*
G01X4374Y14206D03*
G01X4374Y14403D03*
G01X4374Y14600D03*
G54D12*
G01X4630Y14855D03*
G01X4826Y14855D03*
G01X5023Y14855D03*
G01X5220Y14855D03*
G01X5417Y14855D03*
G01X5614Y14855D03*
G01X5811Y14855D03*
G01X6007Y14855D03*
G54D11*
G01X6263Y14600D03*
G01X6263Y14403D03*
G01X6263Y14206D03*
G01X6263Y14009D03*
G01X6263Y13812D03*
G01X6263Y13615D03*
G01X6263Y13418D03*
G01X6263Y13222D03*
G54D12*
G01X6007Y12966D03*
G01X5811Y12966D03*
G01X5614Y12966D03*
G01X5417Y12966D03*
G01X5220Y12966D03*
G01X5023Y12966D03*
G01X4826Y12966D03*
G01X4630Y12966D03*
G54D13*
G01X5318Y13911D03*
G04 Draw part A_U5*
G54D14*
G01X6400Y2400D03*
G01X6400Y1651D03*
G01X5553Y2025D03*
G04 Draw part A_U6*
G54D15*
G01X8900Y12000D03*
G01X8900Y11625D03*
G01X8900Y11251D03*
G01X7955Y11251D03*
G01X7955Y12000D03*
G04 Draw part A_C3*
G54D16*
G01X6800Y14000D03*
G01X7095Y14000D03*
G04 Draw part A_R4*
G54D17*
G01X5800Y11700D03*
G01X5800Y11404D03*
G04 Draw part A_C4*
G01X5400Y11300D03*
G01X5400Y11595D03*
G04 Draw part A_X1*
G54D18*
G01X2600Y13100D03*
G01X2600Y14714D03*
G04 Draw part A_C1*
G54D16*
G01X1500Y13100D03*
G01X1795Y13100D03*
G04 Draw part A_C2*
G01X1500Y14710D03*
G01X1795Y14710D03*
G04 Draw part A_D3*
G04 Draw part A_R3*
G04 Draw part A_D2*
G04 Draw part A_R2*
G04 Draw part A_D1*
G04 Draw part A_R1*
G04 Draw part A_H2*
G54D19*
G01X1834Y5100D03*
G01X1834Y5355D03*
G01X1834Y5611D03*
G01X1834Y4844D03*
G01X1834Y4588D03*
G54D20*
G01X1745Y3840D03*
G01X1745Y6359D03*
G54D21*
G01X781Y3623D03*
G01X781Y6576D03*
G54D22*
G01X781Y4647D03*
G01X781Y5552D03*
G04 Draw part A_R5*
G04 Draw part A_D4*
G04 Draw part A_D5*
G04 Draw part A_R6*
G04 Draw part A_C7*
G54D16*
G01X3500Y5900D03*
G01X3795Y5900D03*
G04 Draw part A_C6*
G01X4700Y6800D03*
G01X4995Y6800D03*
G04 Draw part A_C5*
G01X4700Y6300D03*
G01X4995Y6300D03*
G04 Draw part A_F1*
G54D23*
G01X3100Y4200D03*
G01X3690Y4200D03*
G04 Draw part A_C11*
G54D24*
G01X7300Y10600D03*
G01X7300Y11190D03*
G04 Draw part A_R9*
G54D17*
G01X7300Y12300D03*
G01X7300Y12004D03*
G04 Draw part A_D7*
G04 Draw part A_R10*
G04 Draw part A_C10*
G54D24*
G01X9600Y11900D03*
G01X9600Y11309D03*
G04 Draw part A_C9*
G54D17*
G01X4900Y1900D03*
G01X4900Y2195D03*
G04 Draw part A_C8*
G01X7000Y2200D03*
G01X7000Y1904D03*
G04 Draw part A_D6*
G04 Draw part A_R8*
G04 Draw part A_H4*
G54D25*
G01X8500Y8900D03*
G01X8500Y8703D03*
G01X8500Y8506D03*
G01X8500Y8309D03*
G01X8500Y8112D03*
G01X8500Y7915D03*
G01X8500Y7718D03*
G01X8500Y7522D03*
G54D26*
G01X9543Y9211D03*
G01X9543Y7211D03*
G04 Draw part A_U2*
G54D27*
G01X6000Y3903D03*
G01X5803Y3903D03*
G01X5606Y3903D03*
G01X5409Y3903D03*
G01X5212Y3903D03*
G01X5015Y3903D03*
G01X4818Y3903D03*
G01X4622Y3903D03*
G54D28*
G01X4405Y4120D03*
G01X4405Y4316D03*
G01X4405Y4513D03*
G01X4405Y4710D03*
G01X4405Y4907D03*
G01X4405Y5104D03*
G01X4405Y5301D03*
G01X4405Y5497D03*
G54D27*
G01X4622Y5714D03*
G01X4818Y5714D03*
G01X5015Y5714D03*
G01X5212Y5714D03*
G01X5409Y5714D03*
G01X5606Y5714D03*
G01X5803Y5714D03*
G01X6000Y5714D03*
G54D28*
G01X6216Y5497D03*
G01X6216Y5301D03*
G01X6216Y5104D03*
G01X6216Y4907D03*
G01X6216Y4710D03*
G01X6216Y4513D03*
G01X6216Y4316D03*
G01X6216Y4120D03*
G54D29*
G01X5311Y4808D03*
G04 Draw part A_H1*
G04 Draw part A_H3*
G04 Draw part A_H7*
G04 Draw part A_H6*
G04 Draw part A_H5*
G04 Draw part A_H8*
G04 Draw part A_H9*
G04 Draw part A_H10*
G04 Draw part A_H11*
G04 Draw part A_H12*
G04 Draw part A_H13*
G04 Draw part A_H14*
G04 Draw part A_C12*
G54D24*
G01X4200Y1700D03*
G01X4200Y2290D03*
G04 Draw part A_C13*
G01X2600Y1700D03*
G01X2600Y2290D03*
G04 Draw part A_Fuse1*
G54D30*
G01X3400Y2300D03*
G01X3400Y3441D03*
G04 Draw part A_c10*
G04 Draw part A_c11*
G54D24*
G01X7500Y1000D03*
G01X7500Y1590D03*
G04 Draw part B_H2*
G04 Draw part B_H1*
G04 Draw part B_U1*
G54D31*
G01X2325Y28412D03*
G01X2325Y28609D03*
G01X2325Y28806D03*
G01X2325Y29003D03*
G01X2325Y29200D03*
G54D32*
G01X2700Y29574D03*
G01X2896Y29574D03*
G01X3093Y29574D03*
G01X3290Y29574D03*
G01X3487Y29574D03*
G54D31*
G01X3861Y29200D03*
G01X3861Y29003D03*
G01X3861Y28806D03*
G01X3861Y28609D03*
G01X3861Y28412D03*
G54D32*
G01X3487Y28038D03*
G01X3290Y28038D03*
G01X3093Y28038D03*
G01X2896Y28038D03*
G01X2700Y28038D03*
G54D33*
G01X3093Y28806D03*
G04 Draw part B_L1*
G54D16*
G01X4600Y28500D03*
G01X4895Y28500D03*
G04 Draw part B_R2*
G01X3700Y27700D03*
G01X3995Y27700D03*
G04 Draw part B_X1*
G54D34*
G01X3400Y30500D03*
G01X2848Y30500D03*
G01X2848Y30933D03*
G01X3400Y30933D03*
G04 Draw part B_C1*
G54D16*
G01X2000Y30950D03*
G01X2295Y30950D03*
G04 Draw part B_C2*
G01X4250Y30500D03*
G01X3954Y30500D03*
G04 Draw part B_C4*
G54D17*
G01X4500Y29600D03*
G01X4500Y29304D03*
G04 Draw part B_C3*
G01X4900Y29600D03*
G01X4900Y29304D03*
G04 Draw part B_C7*
G01X2700Y27600D03*
G01X2700Y27304D03*
G04 Draw part B_C8*
G54D16*
G01X5100Y27700D03*
G01X4804Y27700D03*
G04 Draw part B_C9*
G01X5100Y27300D03*
G01X4804Y27300D03*
G04 Draw part B_A1*
G54D35*
G01X9100Y30200D03*
G01X8100Y30200D03*
G01X7100Y30200D03*
G04 Draw part B_v1*
G04 Draw part B_v2*
G04 Draw part B_v3*
G04 Draw part B_v4*
G04 Draw part B_v5*
G04 Draw part B_v6*
G04 Draw part B_v7*
G04 Draw part B_v8*
G04 Draw part B_v11*
G04 Draw part B_v12*
G04 Draw part B_v13*
G04 Draw part B_B1*
G54D36*
G01X4615Y29015D03*
G54D37*
G01X4600Y28800D03*
G01X4400Y28800D03*
G01X4400Y29000D03*

G04 Draw traces*

G04 Draw Text*
M00*
M02*
