;Holesize 1 =   40.0 PLATED MILS
;Holesize 2 =  117.0 PLATED MILS
;Holesize 3 =   15.0 PLATED MILS
M48
INCH,00.0000
T01C0.040
T02C0.117
T03C0.015
%
G05
G90
T01
X008500Y015100
X008500Y014100
X008500Y013100
X009500Y013100
X009500Y014100
X009500Y015100
X008500Y004100
X008500Y005100
X008500Y006100
X009500Y006100
X009500Y005100
X009500Y004100
X008500Y010320
X009500Y010320
X000600Y018100
X001600Y018100
X002600Y018100
X003600Y018100
X004600Y018100
X005600Y018100
X006600Y018100
X007600Y018100
X008600Y018100
X009600Y018100
X000600Y020100
X001600Y020100
X002600Y020100
X003600Y020100
X004600Y020100
X005600Y020100
X006600Y020100
X007600Y020100
X008600Y020100
X009600Y020100
X005600Y000800
X004600Y000800
X008500Y002100
X008500Y003100
X009500Y003100
X004600Y021100
X005600Y021100
X006600Y021100
X000600Y024300
X001600Y024300
X002600Y024300
X003600Y024300
X004600Y024300
X005600Y024300
X006600Y024300
X007600Y024300
X008600Y024300
X009600Y024300
X000600Y026300
X001600Y026300
X002600Y026300
X003600Y026300
X004600Y026300
X005600Y026300
X006600Y026300
X007600Y026300
X008600Y026300
X009600Y026300
T02
X001100Y001100
X009100Y001100
X009100Y021600
X001100Y021600
T03
X000600Y030800
X001100Y030800
X006100Y029800
X006100Y027500
X006100Y030800
X008100Y027500
X000600Y030300
X005100Y030800
X009100Y028500
X009100Y027500
X007100Y027500
X003650Y015100
X007990Y007760
X006650Y012130
X006800Y004510
X005130Y010960
X005020Y012130
X004050Y012630
X004250Y015700
X007170Y004090
X005430Y010660
X003460Y009100
X005680Y003470
X004830Y010660
X004540Y012130
X001110Y028990
X001450Y029330
X003950Y015400
X007820Y014000
X007360Y003470
X005790Y010960
X003760Y013640
X003760Y014270
X004260Y027300
X003090Y027300
X001800Y029970
X002630Y010290
X004000Y003440
X001450Y028660
X005720Y012130
X000600Y013700
X000800Y002250
X007000Y009880
X002610Y005900
X001700Y002240
X003700Y010800
X004740Y007220
X002290Y009950
X003400Y001680
X007320Y013320
X003530Y004720
X003530Y005420
X006980Y012980
X006190Y012130
X003460Y007100
X006650Y012640
X004050Y012140
M30
