G04 FreePCB version 1.359*
G04 C:\Users\Jack Ruby\Documents\GitHub\DAQpack_mk2\baseCAM\top_copper.grb*
G04 top copper layer *
G04 Scale: 100 percent, Rotated: No, Reflected: No *
%FSLAX24Y24*%
%MOIN*%
%LN top copper *%
G04 Rounded Rectangle Macro, params: W/2, H/2, R *
%AMRNDREC*
21,1,$1+$1,$2+$2-$3-$3,0,0,0*
21,1,$1+$1-$3-$3,$2+$2,0,0,0*
1,1,$3+$3,$1-$3,$2-$3*
1,1,$3+$3,$3-$1,$2-$3*
1,1,$3+$3,$1-$3,$3-$2*
1,1,$3+$3,$3-$1,$3-$2*%
G04 Rectangular Thermal Macro, params: W/2, H/2, T/2 *
%AMRECTHERM*
$4=$3/2*
21,1,$1-$3,$2-$3,0-$1/2-$4,0-$2/2-$4,0*
21,1,$1-$3,$2-$3,0-$1/2-$4,$2/2+$4,0*
21,1,$1-$3,$2-$3,$1/2+$4,0-$2/2-$4,0*
21,1,$1-$3,$2-$3,$1/2+$4,$2/2+$4,0*%
%ADD10C,0.005000*%
%ADD11R,0.088898X0.079055*%
%ADD12R,0.039685X0.043622*%
%ADD13C,0.080000*%
%ADD14C,0.147000*%
%ADD15R,0.043622X0.039685*%
%ADD16R,0.080000X0.180000*%
%AMTHERM17*7,0,0,0.049000,0.029000,0.020000,45.0*%
%ADD17THERM17*%
%ADD18C,0.001000*%
%ADD19C,0.051000*%
%ADD20C,0.028000*%
%ADD21C,0.032000*%
%ADD22R,0.068898X0.059055*%
%ADD23R,0.019685X0.023622*%
%ADD24C,0.060000*%
%ADD25R,0.023622X0.019685*%
%ADD26R,0.060000X0.160000*%
%ADD27C,0.029000*%
%ADD28C,0.008000*%
%ADD29C,0.031000*%
%ADD30C,0.012000*%
%ADD31C,0.015000*%
%ADD32C,0.010000*%
%ADD33C,0.025000*%
G90*
G70D02*

G04 Step and Repeat for panelization *

G04 ----------------------- Draw board outline (positive)*
%LPD*%
G54D10*
G01X0Y0D02*
G01X10200Y0D01*
G04 end of side 1*
G01X10200Y22700D01*
G04 end of side 2*
G01X0Y22700D01*
G04 end of side 3*
G01X0Y0D01*
G01X0Y23700D02*
G01X0Y31400D01*
G04 end of side 1*
G01X10300Y31400D01*
G04 end of side 2*
G01X10300Y23700D01*
G04 end of side 3*
G01X0Y23700D01*

G04 ----------------------- Draw copper area (positive)*
G36*
G01X2680Y4820D02*
G01X2560Y4818D01*
G01X2560Y5390D01*
G01X2680Y4820D01*
G37*

G04 ----------------------- Draw copper area (positive)*
G36*
G01X6630Y31000D02*
G01X6800Y31000D01*
G01X6800Y30920D01*
G01X7400Y30920D01*
G01X7400Y31000D01*
G01X8790Y31000D01*
G01X8790Y30910D01*
G01X9390Y30910D01*
G01X9390Y31000D01*
G01X9910Y31000D01*
G01X9910Y26600D01*
G01X9320Y26600D01*
G01X9030Y26890D01*
G01X4670Y26890D01*
G01X4270Y27290D01*
G01X2340Y27290D01*
G01X1810Y27820D01*
G01X1790Y30080D01*
G01X1790Y29480D01*
G01X1400Y29480D01*
G01X1260Y29340D01*
G01X970Y29340D01*
G01X760Y29130D01*
G01X760Y27440D01*
G01X1090Y27110D01*
G01X1090Y26600D01*
G01X290Y26600D01*
G01X290Y31110D01*
G01X6630Y31110D01*
G01X6630Y31000D01*
G37*

G04 -------------------- Draw copper area cutout (negative)*
%LPC*%
G36*
G01X5020Y29700D02*
G01X4360Y29700D01*
G01X4360Y29350D01*
G01X4190Y29350D01*
G01X4100Y29260D01*
G01X3720Y29260D01*
G01X3720Y28450D01*
G01X4200Y28450D01*
G01X4300Y28350D01*
G01X4300Y27960D01*
G01X5270Y27960D01*
G01X5270Y28990D01*
G01X5020Y28990D01*
G01X5020Y29210D01*
G01X5020Y29700D01*
G37*

G04 -------------------- Draw copper area clearances (negative)*
%LPC*%

G04 Draw clearances for pads*
G54D11*
G01X2850Y11100D03*
G01X1373Y11100D03*
G54D12*
G01X1200Y11700D03*
G01X1495Y11700D03*
G54D11*
G01X2850Y13100D03*
G01X1373Y13100D03*
G54D12*
G01X1200Y13700D03*
G01X1495Y13700D03*
G54D11*
G01X2850Y15100D03*
G01X1373Y15100D03*
G54D12*
G01X1200Y15700D03*
G01X1495Y15700D03*
G01X1700Y9700D03*
G01X1404Y9700D03*
G54D11*
G01X1350Y9100D03*
G01X2826Y9100D03*
G01X1350Y7100D03*
G01X2826Y7100D03*
G54D12*
G01X1700Y7800D03*
G01X1404Y7800D03*
G54D11*
G01X2850Y5100D03*
G01X1373Y5100D03*
G54D12*
G01X1400Y5700D03*
G01X1695Y5700D03*
G54D11*
G01X2850Y3100D03*
G01X1373Y3100D03*
G54D12*
G01X1400Y3700D03*
G01X1104Y3700D03*
G54D13*
G01X8500Y15100D03*
G01X8500Y14100D03*
G01X8500Y13100D03*
G01X9500Y13100D03*
G01X9500Y14100D03*
G01X9500Y15100D03*
G01X8500Y4100D03*
G01X8500Y5100D03*
G01X8500Y6100D03*
G01X9500Y6100D03*
G01X9500Y5100D03*
G01X9500Y4100D03*
G01X8500Y10320D03*
G01X9500Y10320D03*
G01X600Y18100D03*
G01X1600Y18100D03*
G01X2600Y18100D03*
G01X3600Y18100D03*
G01X4600Y18100D03*
G01X5600Y18100D03*
G01X6600Y18100D03*
G01X7600Y18100D03*
G01X8600Y18100D03*
G01X9600Y18100D03*
G01X600Y20100D03*
G01X1600Y20100D03*
G01X2600Y20100D03*
G01X3600Y20100D03*
G01X4600Y20100D03*
G01X5600Y20100D03*
G01X6600Y20100D03*
G01X7600Y20100D03*
G01X8600Y20100D03*
G01X9600Y20100D03*
G01X5600Y800D03*
G01X4600Y800D03*
G54D14*
G01X1100Y1100D03*
G01X9100Y1100D03*
G01X9100Y21600D03*
G01X1100Y21600D03*
G54D13*
G01X8500Y2100D03*
G01X8500Y3100D03*
G01X9500Y3100D03*
G01X4600Y21100D03*
G01X5600Y21100D03*
G01X6600Y21100D03*
G54D15*
G01X3700Y11500D03*
G01X3700Y11204D03*
G54D13*
G01X600Y24300D03*
G01X1600Y24300D03*
G01X2600Y24300D03*
G01X3600Y24300D03*
G01X4600Y24300D03*
G01X5600Y24300D03*
G01X6600Y24300D03*
G01X7600Y24300D03*
G01X8600Y24300D03*
G01X9600Y24300D03*
G01X600Y26300D03*
G01X1600Y26300D03*
G01X2600Y26300D03*
G01X3600Y26300D03*
G01X4600Y26300D03*
G01X5600Y26300D03*
G01X6600Y26300D03*
G01X7600Y26300D03*
G01X8600Y26300D03*
G01X9600Y26300D03*
G54D16*
G01X9100Y30200D03*
G01X7100Y30200D03*
G54D17*
G01X600Y30800D03*
G54D18*
G54D17*
G01X1100Y30800D03*
G54D18*
G54D17*
G01X6100Y29800D03*
G54D18*
G54D17*
G01X6100Y27500D03*
G54D18*
G54D17*
G01X6100Y30800D03*
G54D18*
G54D17*
G01X8100Y27500D03*
G54D18*
G54D17*
G01X600Y30300D03*
G54D18*
G54D17*
G01X5100Y30800D03*
G54D18*
G54D17*
G01X9100Y28500D03*
G54D18*
G54D17*
G01X9100Y27500D03*
G54D18*
G54D17*
G01X7100Y27500D03*
G54D18*

G04 Draw clearances for traces*
G54D19*
G01X3650Y15100D03*
G54D20*
G01X2850Y15100D02*
G01X3650Y15100D01*
G01X8500Y10320D02*
G01X7990Y9810D01*
G54D19*
G01X7990Y7760D03*
G54D20*
G01X7990Y9810D02*
G01X7990Y7760D01*
G54D19*
G01X6650Y12130D03*
G54D20*
G01X6650Y12130D02*
G01X6290Y12490D01*
G01X6290Y12490D02*
G01X6280Y16290D01*
G01X6280Y16290D02*
G01X4700Y17870D01*
G01X4700Y17870D02*
G01X4600Y18050D01*
G01X4600Y18050D02*
G01X4600Y18100D01*
G54D19*
G01X6800Y4510D03*
G54D20*
G01X6800Y4510D02*
G01X6800Y4830D01*
G01X6800Y4830D02*
G01X6010Y5620D01*
G01X6010Y5620D02*
G01X6010Y8630D01*
G01X6010Y8630D02*
G01X5130Y9510D01*
G54D19*
G01X5130Y10960D03*
G54D20*
G01X5130Y9510D02*
G01X5130Y10960D01*
G54D19*
G01X5020Y12130D03*
G54D20*
G01X2600Y20100D02*
G01X2670Y20140D01*
G01X2670Y20140D02*
G01X2614Y20084D01*
G01X2614Y20084D02*
G01X2614Y19286D01*
G01X2614Y19286D02*
G01X3080Y18820D01*
G01X3080Y18820D02*
G01X3080Y17040D01*
G01X3080Y17040D02*
G01X3210Y16910D01*
G01X3210Y16910D02*
G01X4560Y16910D01*
G01X4560Y16910D02*
G01X5290Y16180D01*
G01X5290Y16180D02*
G01X5300Y12410D01*
G01X5300Y12410D02*
G01X5020Y12130D01*
G54D19*
G01X4050Y12630D03*
G54D20*
G01X4050Y12630D02*
G01X4050Y14970D01*
G01X4050Y14970D02*
G01X4590Y15510D01*
G01X4590Y15510D02*
G01X4590Y15860D01*
G01X4590Y15860D02*
G01X4370Y16080D01*
G01X4370Y16080D02*
G01X1770Y16080D01*
G01X1770Y16080D02*
G01X1600Y16250D01*
G01X1600Y16250D02*
G01X1600Y18100D01*
G01X1404Y9700D02*
G01X1404Y9215D01*
G01X1404Y9215D02*
G01X1410Y9210D01*
G01X1410Y9210D02*
G01X1350Y9100D01*
G01X2850Y11100D02*
G01X2840Y11060D01*
G01X2840Y11060D02*
G01X2150Y11750D01*
G01X2150Y11750D02*
G01X2150Y15560D01*
G01X2150Y15560D02*
G01X2330Y15740D01*
G01X2330Y15740D02*
G01X4210Y15740D01*
G54D19*
G01X4250Y15700D03*
G54D20*
G01X4210Y15740D02*
G01X4250Y15700D01*
G54D19*
G01X7170Y4090D03*
G54D20*
G01X7170Y4090D02*
G01X7170Y4820D01*
G01X7170Y4820D02*
G01X6210Y5780D01*
G01X6210Y5780D02*
G01X6210Y8730D01*
G01X6210Y8730D02*
G01X5430Y9510D01*
G54D19*
G01X5430Y10660D03*
G54D20*
G01X5430Y9510D02*
G01X5430Y10660D01*
G54D19*
G01X3460Y9100D03*
G54D20*
G01X3460Y9100D02*
G01X2670Y9100D01*
G01X2670Y9100D02*
G01X2826Y9100D01*
G54D19*
G01X5680Y3470D03*
G54D20*
G01X5680Y3470D02*
G01X5800Y3590D01*
G01X5800Y3590D02*
G01X5800Y8540D01*
G01X5800Y8540D02*
G01X4830Y9500D01*
G54D19*
G01X4830Y10660D03*
G54D20*
G01X4830Y9500D02*
G01X4830Y10660D01*
G54D19*
G01X4540Y12130D03*
G54D20*
G01X2600Y18100D02*
G01X2600Y16760D01*
G01X2600Y16760D02*
G01X2800Y16560D01*
G01X2800Y16560D02*
G01X4601Y16560D01*
G01X4601Y16560D02*
G01X5060Y16100D01*
G01X5060Y16100D02*
G01X5060Y15290D01*
G01X5060Y15290D02*
G01X4690Y14921D01*
G01X4690Y14921D02*
G01X4680Y12270D01*
G01X4680Y12270D02*
G01X4540Y12130D01*
G01X1404Y7800D02*
G01X1404Y7294D01*
G01X1404Y7294D02*
G01X1390Y7280D01*
G01X1390Y7280D02*
G01X1350Y7100D01*
G54D19*
G01X1110Y28990D03*
G54D20*
G01X1110Y28990D02*
G01X1110Y27570D01*
G01X1110Y27570D02*
G01X2110Y26570D01*
G01X2110Y26570D02*
G01X2110Y25590D01*
G01X2110Y25590D02*
G01X2440Y25260D01*
G01X2440Y25260D02*
G01X7560Y25260D01*
G01X7560Y25260D02*
G01X8600Y26300D01*
G54D19*
G01X1450Y29330D03*
G54D20*
G01X1450Y29330D02*
G01X980Y29330D01*
G01X980Y29330D02*
G01X790Y29140D01*
G01X790Y29140D02*
G01X790Y27390D01*
G01X790Y27390D02*
G01X1090Y27090D01*
G01X1090Y27090D02*
G01X1090Y25240D01*
G01X1090Y25240D02*
G01X1360Y24970D01*
G01X1360Y24970D02*
G01X7930Y24970D01*
G01X7930Y24970D02*
G01X8600Y24300D01*
G01X1495Y11700D02*
G01X1495Y11285D01*
G01X1495Y11285D02*
G01X1450Y11240D01*
G01X1450Y11240D02*
G01X1404Y11205D01*
G01X1404Y11205D02*
G01X1410Y11200D01*
G01X1410Y11200D02*
G01X1373Y11100D01*
G54D19*
G01X3950Y15400D03*
G54D20*
G01X3950Y15400D02*
G01X3780Y15570D01*
G01X3780Y15570D02*
G01X2410Y15570D01*
G01X2410Y15570D02*
G01X2340Y15500D01*
G01X2340Y15500D02*
G01X2340Y13560D01*
G01X2340Y13560D02*
G01X2830Y13070D01*
G01X2830Y13070D02*
G01X2850Y13100D01*
G01X8500Y15100D02*
G01X8600Y15200D01*
G01X8600Y15200D02*
G01X8600Y18210D01*
G01X8600Y18210D02*
G01X8600Y18100D01*
G54D19*
G01X7820Y14000D03*
G54D21*
G01X7820Y14000D02*
G01X7820Y13600D01*
G01X8980Y13600D02*
G01X8980Y14580D01*
G01X8980Y14580D02*
G01X9500Y15100D01*
G54D19*
G01X7360Y3470D03*
G01X5790Y10960D03*
G54D21*
G01X5790Y10960D02*
G01X5790Y9480D01*
G01X5790Y9480D02*
G01X6440Y8830D01*
G01X6440Y8830D02*
G01X6440Y5940D01*
G01X6440Y5940D02*
G01X7480Y4900D01*
G01X7480Y4900D02*
G01X7480Y3470D01*
G01X7480Y3470D02*
G01X7360Y3470D01*
G54D19*
G01X3760Y13640D03*
G54D21*
G01X3760Y13640D02*
G01X3810Y13630D01*
G01X3810Y13630D02*
G01X3760Y13630D01*
G01X3760Y13630D02*
G01X3440Y13320D01*
G01X3440Y13320D02*
G01X3440Y11710D01*
G01X3440Y11710D02*
G01X3530Y11620D01*
G01X3530Y11620D02*
G01X3710Y11620D01*
G01X3710Y11620D02*
G01X5790Y11620D01*
G01X5790Y11620D02*
G01X5790Y10960D01*
G54D19*
G01X3760Y14270D03*
G54D21*
G01X3760Y14270D02*
G01X3760Y13640D01*
G01X9500Y15100D02*
G01X8980Y14580D01*
G01X8980Y14580D02*
G01X8980Y11790D01*
G01X8980Y11790D02*
G01X8810Y11620D01*
G01X8810Y11620D02*
G01X7820Y11620D01*
G01X7820Y11620D02*
G01X7820Y14010D01*
G01X7820Y14010D02*
G01X7820Y11620D01*
G01X7820Y11620D02*
G01X5790Y11620D01*
G01X9600Y20100D02*
G01X9600Y18070D01*
G01X9600Y18070D02*
G01X9600Y18100D01*
G01X9600Y18100D02*
G01X9600Y18190D01*
G01X9600Y18190D02*
G01X9600Y15200D01*
G01X9600Y15200D02*
G01X9500Y15100D01*
G54D20*
G01X3700Y11500D02*
G01X3710Y11570D01*
G01X3710Y11570D02*
G01X3710Y11620D01*
G01X9600Y26300D02*
G01X9600Y24300D01*
G54D19*
G01X4260Y27300D03*
G54D20*
G01X4260Y27300D02*
G01X4680Y26880D01*
G01X4680Y26880D02*
G01X9020Y26880D01*
G01X9020Y26880D02*
G01X9600Y26300D01*
G54D19*
G01X3090Y27300D03*
G54D20*
G01X3090Y27300D02*
G01X4260Y27300D01*
G54D19*
G01X1800Y29970D03*
G54D20*
G01X1800Y29970D02*
G01X1800Y27840D01*
G01X1800Y27840D02*
G01X2340Y27300D01*
G01X2340Y27300D02*
G01X3090Y27300D01*
G01X1400Y5700D02*
G01X1400Y5240D01*
G01X1400Y5240D02*
G01X1373Y5100D01*
G01X1495Y13700D02*
G01X1495Y13265D01*
G01X1495Y13265D02*
G01X1450Y13220D01*
G01X1450Y13220D02*
G01X1404Y13214D01*
G01X1404Y13214D02*
G01X1400Y13210D01*
G01X1400Y13210D02*
G01X1373Y13100D01*
G54D19*
G01X2630Y10290D03*
G54D20*
G01X2630Y10290D02*
G01X850Y10290D01*
G01X850Y10290D02*
G01X740Y10180D01*
G01X740Y10180D02*
G01X740Y6620D01*
G01X740Y6620D02*
G01X930Y6430D01*
G01X930Y6430D02*
G01X1460Y6430D01*
G01X1460Y6430D02*
G01X1650Y6240D01*
G01X1650Y6240D02*
G01X1650Y5760D01*
G01X1650Y5760D02*
G01X1695Y5700D01*
G01X1495Y15700D02*
G01X1495Y15295D01*
G01X1495Y15295D02*
G01X1490Y15290D01*
G01X1490Y15290D02*
G01X1404Y15184D01*
G01X1404Y15184D02*
G01X1400Y15180D01*
G01X1400Y15180D02*
G01X1373Y15100D01*
G54D21*
G01X4600Y800D02*
G01X4600Y2840D01*
G54D19*
G01X4000Y3440D03*
G54D21*
G01X4600Y2840D02*
G01X4000Y3440D01*
G54D20*
G01X8500Y5100D02*
G01X7980Y4580D01*
G01X7980Y4580D02*
G01X7980Y3470D01*
G01X7980Y3470D02*
G01X8390Y3060D01*
G01X8390Y3060D02*
G01X8500Y3100D01*
G01X9500Y5100D02*
G01X9000Y4600D01*
G01X9000Y4600D02*
G01X9000Y3920D01*
G01X9000Y3920D02*
G01X9500Y3420D01*
G01X9500Y3420D02*
G01X9500Y3100D01*
G01X8500Y6100D02*
G01X7730Y5330D01*
G01X7730Y5330D02*
G01X7730Y2820D01*
G01X7730Y2820D02*
G01X8430Y2120D01*
G01X8430Y2120D02*
G01X8500Y2100D01*
G01X8500Y14100D02*
G01X8500Y14350D01*
G01X8500Y14350D02*
G01X8490Y14090D01*
G01X8490Y14090D02*
G01X7910Y14670D01*
G01X7910Y14670D02*
G01X7910Y15300D01*
G01X7910Y15300D02*
G01X8110Y15500D01*
G01X8110Y15500D02*
G01X8110Y18810D01*
G01X8110Y18810D02*
G01X7581Y19339D01*
G01X7581Y19339D02*
G01X7581Y19991D01*
G01X7581Y19991D02*
G01X7590Y20000D01*
G01X7590Y20000D02*
G01X7600Y20100D01*
G54D19*
G01X1450Y28660D03*
G54D20*
G01X1450Y28660D02*
G01X1450Y27760D01*
G01X1450Y27760D02*
G01X2330Y26890D01*
G01X2330Y26890D02*
G01X2980Y26890D01*
G01X2980Y26890D02*
G01X3090Y26780D01*
G01X3090Y26780D02*
G01X3090Y25910D01*
G01X3090Y25910D02*
G01X3470Y25530D01*
G01X3470Y25530D02*
G01X6830Y25530D01*
G01X6830Y25530D02*
G01X7600Y26300D01*
G54D19*
G01X5720Y12130D03*
G54D20*
G01X5720Y12130D02*
G01X5590Y12260D01*
G01X5590Y12260D02*
G01X5590Y16180D01*
G01X5590Y16180D02*
G01X4520Y17250D01*
G01X4520Y17250D02*
G01X3680Y17250D01*
G01X3680Y17250D02*
G01X3600Y17330D01*
G01X3600Y17330D02*
G01X3600Y18160D01*
G01X3600Y18160D02*
G01X3600Y18100D01*
G54D18*
G54D19*
G01X600Y13700D03*
G54D18*
G54D21*
G01X1104Y3700D02*
G01X790Y3700D01*
G01X790Y3700D02*
G01X650Y3560D01*
G54D18*
G54D19*
G01X800Y2250D03*
G54D18*
G54D21*
G01X9500Y13100D02*
G01X9500Y11620D01*
G01X9500Y11620D02*
G01X9070Y11190D01*
G54D18*
G54D19*
G01X7000Y9880D03*
G54D18*
G54D19*
G01X2610Y5900D03*
G54D18*
G54D19*
G01X1700Y2240D03*
G54D18*
G54D19*
G01X3700Y10800D03*
G54D18*
G54D20*
G01X1400Y3700D02*
G01X1400Y3190D01*
G01X1400Y3190D02*
G01X1373Y3100D01*
G01X7600Y18100D02*
G01X7100Y18600D01*
G01X7100Y18600D02*
G01X7100Y21620D01*
G01X7100Y21620D02*
G01X6930Y21790D01*
G01X6930Y21790D02*
G01X5770Y21790D01*
G01X5770Y21790D02*
G01X5590Y21610D01*
G01X5590Y21610D02*
G01X5590Y21260D01*
G01X5590Y21260D02*
G01X5600Y21100D01*
G54D21*
G01X2850Y5100D02*
G01X2800Y5150D01*
G01X2800Y5150D02*
G01X3130Y5340D01*
G01X3130Y5340D02*
G01X3130Y6430D01*
G01X3130Y6430D02*
G01X2800Y6430D01*
G01X2800Y6430D02*
G01X2210Y6430D01*
G01X2210Y6430D02*
G01X2040Y6600D01*
G01X2040Y6600D02*
G01X2040Y7800D01*
G01X2040Y7800D02*
G01X1700Y7800D01*
G01X1700Y9700D02*
G01X2040Y9700D01*
G01X2040Y9700D02*
G01X2040Y7800D01*
G54D19*
G01X4740Y7220D03*
G54D21*
G01X4740Y7220D02*
G01X4180Y7220D01*
G01X4180Y7220D02*
G01X3400Y6430D01*
G01X3400Y6430D02*
G01X2800Y6430D01*
G54D19*
G01X2290Y9950D03*
G54D21*
G01X2290Y9950D02*
G01X2040Y9700D01*
G54D19*
G01X3400Y1680D03*
G54D21*
G01X3400Y1680D02*
G01X2800Y2280D01*
G01X2800Y2280D02*
G01X2800Y2870D01*
G01X2800Y2870D02*
G01X2850Y3200D01*
G01X2850Y3200D02*
G01X2850Y3100D01*
G01X2850Y3100D02*
G01X2800Y3120D01*
G01X2800Y3120D02*
G01X2800Y4870D01*
G01X2800Y4870D02*
G01X2850Y5120D01*
G01X2850Y5120D02*
G01X2850Y5100D01*
G54D19*
G01X7320Y13320D03*
G54D20*
G01X7320Y13320D02*
G01X7320Y16650D01*
G01X7320Y16650D02*
G01X6100Y17870D01*
G01X6100Y17870D02*
G01X6100Y18800D01*
G01X6100Y18800D02*
G01X5600Y19300D01*
G01X5600Y19300D02*
G01X5600Y20100D01*
G54D18*
G54D19*
G01X3530Y4720D03*
G01X3530Y5420D03*
G54D20*
G01X3530Y4720D02*
G01X3530Y5420D01*
G54D19*
G01X6980Y12980D03*
G54D20*
G01X6980Y12980D02*
G01X6960Y13001D01*
G01X6960Y13001D02*
G01X6960Y16550D01*
G01X6960Y16550D02*
G01X5660Y17850D01*
G01X5660Y17850D02*
G01X5600Y17960D01*
G01X5600Y17960D02*
G01X5600Y18100D01*
G54D19*
G01X6190Y12130D03*
G54D20*
G01X6190Y12130D02*
G01X5890Y12430D01*
G01X5890Y12430D02*
G01X5890Y16240D01*
G01X5890Y16240D02*
G01X4630Y17500D01*
G01X4630Y17500D02*
G01X4200Y17500D01*
G01X4200Y17500D02*
G01X4070Y17630D01*
G01X4070Y17630D02*
G01X4070Y18820D01*
G01X4070Y18820D02*
G01X3600Y19290D01*
G01X3600Y19290D02*
G01X3600Y20100D01*
G01X2826Y7100D02*
G01X2820Y7100D01*
G54D19*
G01X3460Y7100D03*
G54D20*
G01X2820Y7100D02*
G01X3460Y7100D01*
G54D19*
G01X6650Y12640D03*
G54D20*
G01X6650Y12640D02*
G01X6630Y12660D01*
G01X6630Y12660D02*
G01X6630Y16390D01*
G01X6630Y16390D02*
G01X5100Y17920D01*
G01X5100Y17920D02*
G01X5100Y18820D01*
G01X5100Y18820D02*
G01X4600Y19320D01*
G01X4600Y19320D02*
G01X4600Y20100D01*
G54D19*
G01X4050Y12140D03*
G54D20*
G01X4050Y12140D02*
G01X4380Y12470D01*
G01X4380Y12470D02*
G01X4380Y14920D01*
G01X4380Y14920D02*
G01X4830Y15370D01*
G01X4830Y15370D02*
G01X4830Y15990D01*
G01X4830Y15990D02*
G01X4491Y16330D01*
G01X4491Y16330D02*
G01X2240Y16330D01*
G01X2240Y16330D02*
G01X2070Y16500D01*
G01X2070Y16500D02*
G01X2070Y18790D01*
G01X2070Y18790D02*
G01X1610Y19250D01*
G01X1610Y19250D02*
G01X1610Y19860D01*
G01X1610Y19860D02*
G01X1625Y20095D01*
G01X1625Y20095D02*
G01X1630Y20100D01*
G01X1630Y20100D02*
G01X1600Y20100D01*

G04 Draw clearances for text*

G04 -------------- Draw Parts, Pads, Traces, Vias and Text (positive)*
%LPD*%
G04 Draw part A_U1*
G04 Draw part A_U5*
G04 Draw part A_U6*
G04 Draw part A_C3*
G04 Draw part A_R4*
G04 Draw part A_C4*
G04 Draw part A_X1*
G04 Draw part A_C1*
G04 Draw part A_C2*
G04 Draw part A_D3*
G54D22*
G01X2850Y11100D03*
G01X1373Y11100D03*
G04 Draw part A_R3*
G54D23*
G01X1200Y11700D03*
G01X1495Y11700D03*
G04 Draw part A_D2*
G54D22*
G01X2850Y13100D03*
G01X1373Y13100D03*
G04 Draw part A_R2*
G54D23*
G01X1200Y13700D03*
G01X1495Y13700D03*
G04 Draw part A_D1*
G54D22*
G01X2850Y15100D03*
G01X1373Y15100D03*
G04 Draw part A_R1*
G54D23*
G01X1200Y15700D03*
G01X1495Y15700D03*
G04 Draw part A_H2*
G04 Draw part A_R5*
G01X1700Y9700D03*
G01X1404Y9700D03*
G04 Draw part A_D4*
G54D22*
G01X1350Y9100D03*
G01X2826Y9100D03*
G04 Draw part A_D5*
G01X1350Y7100D03*
G01X2826Y7100D03*
G04 Draw part A_R6*
G54D23*
G01X1700Y7800D03*
G01X1404Y7800D03*
G04 Draw part A_C7*
G04 Draw part A_C6*
G04 Draw part A_C5*
G04 Draw part A_F1*
G04 Draw part A_C11*
G04 Draw part A_R9*
G04 Draw part A_D7*
G54D22*
G01X2850Y5100D03*
G01X1373Y5100D03*
G04 Draw part A_R10*
G54D23*
G01X1400Y5700D03*
G01X1695Y5700D03*
G04 Draw part A_C10*
G04 Draw part A_C9*
G04 Draw part A_C8*
G04 Draw part A_D6*
G54D22*
G01X2850Y3100D03*
G01X1373Y3100D03*
G04 Draw part A_R8*
G54D23*
G01X1400Y3700D03*
G01X1104Y3700D03*
G04 Draw part A_H4*
G04 Draw part A_U2*
G04 Draw part A_H1*
G54D24*
G01X8500Y15100D03*
G01X8500Y14100D03*
G01X8500Y13100D03*
G01X9500Y13100D03*
G01X9500Y14100D03*
G01X9500Y15100D03*
G04 Draw part A_H3*
G01X8500Y4100D03*
G01X8500Y5100D03*
G01X8500Y6100D03*
G01X9500Y6100D03*
G01X9500Y5100D03*
G01X9500Y4100D03*
G04 Draw part A_H7*
G01X8500Y10320D03*
G01X9500Y10320D03*
G04 Draw part A_H6*
G01X600Y18100D03*
G01X1600Y18100D03*
G01X2600Y18100D03*
G01X3600Y18100D03*
G01X4600Y18100D03*
G01X5600Y18100D03*
G01X6600Y18100D03*
G01X7600Y18100D03*
G01X8600Y18100D03*
G01X9600Y18100D03*
G04 Draw part A_H5*
G01X600Y20100D03*
G01X1600Y20100D03*
G01X2600Y20100D03*
G01X3600Y20100D03*
G01X4600Y20100D03*
G01X5600Y20100D03*
G01X6600Y20100D03*
G01X7600Y20100D03*
G01X8600Y20100D03*
G01X9600Y20100D03*
G04 Draw part A_H8*
G01X5600Y800D03*
G01X4600Y800D03*
G04 Draw part A_H9*
G04 Draw part A_H10*
G04 Draw part A_H11*
G04 Draw part A_H12*
G04 Draw part A_H13*
G01X8500Y2100D03*
G01X8500Y3100D03*
G01X9500Y3100D03*
G04 Draw part A_H14*
G01X4600Y21100D03*
G01X5600Y21100D03*
G01X6600Y21100D03*
G04 Draw part A_C12*
G04 Draw part A_C13*
G04 Draw part A_Fuse1*
G04 Draw part A_c10*
G54D25*
G01X3700Y11500D03*
G01X3700Y11204D03*
G04 Draw part A_c11*
G04 Draw part B_H2*
G54D24*
G01X600Y24300D03*
G01X1600Y24300D03*
G01X2600Y24300D03*
G01X3600Y24300D03*
G01X4600Y24300D03*
G01X5600Y24300D03*
G01X6600Y24300D03*
G01X7600Y24300D03*
G01X8600Y24300D03*
G01X9600Y24300D03*
G04 Draw part B_H1*
G01X600Y26300D03*
G01X1600Y26300D03*
G01X2600Y26300D03*
G01X3600Y26300D03*
G01X4600Y26300D03*
G01X5600Y26300D03*
G01X6600Y26300D03*
G01X7600Y26300D03*
G01X8600Y26300D03*
G01X9600Y26300D03*
G04 Draw part B_U1*
G04 Draw part B_L1*
G04 Draw part B_R2*
G04 Draw part B_X1*
G04 Draw part B_C1*
G04 Draw part B_C2*
G04 Draw part B_C4*
G04 Draw part B_C3*
G04 Draw part B_C7*
G04 Draw part B_C8*
G04 Draw part B_C9*
G04 Draw part B_A1*
G54D26*
G01X9100Y30200D03*
G01X7100Y30200D03*
G04 Draw part B_v1*
G54D27*
G01X600Y30800D03*
G04 Draw part B_v2*
G01X1100Y30800D03*
G04 Draw part B_v3*
G01X6100Y29800D03*
G04 Draw part B_v4*
G01X6100Y27500D03*
G04 Draw part B_v5*
G01X6100Y30800D03*
G04 Draw part B_v6*
G01X8100Y27500D03*
G04 Draw part B_v7*
G01X600Y30300D03*
G04 Draw part B_v8*
G01X5100Y30800D03*
G04 Draw part B_v11*
G01X9100Y28500D03*
G04 Draw part B_v12*
G01X9100Y27500D03*
G04 Draw part B_v13*
G01X7100Y27500D03*
G04 Draw part B_B1*

G04 Draw traces*
G54D28*
G01X2850Y15100D02*
G01X3650Y15100D01*
G54D29*
G01X3650Y15100D03*
G54D28*
G01X8500Y10320D02*
G01X7990Y9810D01*
G01X7990Y9810D02*
G01X7990Y7760D01*
G54D29*
G01X7990Y7760D03*
G01X6650Y12130D03*
G54D28*
G01X6650Y12130D02*
G01X6290Y12490D01*
G01X6290Y12490D02*
G01X6280Y16290D01*
G01X6280Y16290D02*
G01X4700Y17870D01*
G01X4700Y17870D02*
G01X4600Y18050D01*
G01X4600Y18050D02*
G01X4600Y18100D01*
G54D29*
G01X6800Y4510D03*
G54D28*
G01X6800Y4510D02*
G01X6800Y4830D01*
G01X6800Y4830D02*
G01X6010Y5620D01*
G01X6010Y5620D02*
G01X6010Y8630D01*
G01X6010Y8630D02*
G01X5130Y9510D01*
G01X5130Y9510D02*
G01X5130Y10960D01*
G54D29*
G01X5130Y10960D03*
G01X5020Y12130D03*
G54D28*
G01X2600Y20100D02*
G01X2670Y20140D01*
G01X2670Y20140D02*
G01X2614Y20084D01*
G01X2614Y20084D02*
G01X2614Y19286D01*
G01X2614Y19286D02*
G01X3080Y18820D01*
G01X3080Y18820D02*
G01X3080Y17040D01*
G01X3080Y17040D02*
G01X3210Y16910D01*
G01X3210Y16910D02*
G01X4560Y16910D01*
G01X4560Y16910D02*
G01X5290Y16180D01*
G01X5290Y16180D02*
G01X5300Y12410D01*
G01X5300Y12410D02*
G01X5020Y12130D01*
G54D29*
G01X4050Y12630D03*
G54D28*
G01X4050Y12630D02*
G01X4050Y14970D01*
G01X4050Y14970D02*
G01X4590Y15510D01*
G01X4590Y15510D02*
G01X4590Y15860D01*
G01X4590Y15860D02*
G01X4370Y16080D01*
G01X4370Y16080D02*
G01X1770Y16080D01*
G01X1770Y16080D02*
G01X1600Y16250D01*
G01X1600Y16250D02*
G01X1600Y18100D01*
G01X1404Y9700D02*
G01X1404Y9215D01*
G01X1404Y9215D02*
G01X1410Y9210D01*
G01X1410Y9210D02*
G01X1350Y9100D01*
G01X2850Y11100D02*
G01X2840Y11060D01*
G01X2840Y11060D02*
G01X2150Y11750D01*
G01X2150Y11750D02*
G01X2150Y15560D01*
G01X2150Y15560D02*
G01X2330Y15740D01*
G01X2330Y15740D02*
G01X4210Y15740D01*
G01X4210Y15740D02*
G01X4250Y15700D01*
G54D29*
G01X4250Y15700D03*
G01X7170Y4090D03*
G54D28*
G01X7170Y4090D02*
G01X7170Y4820D01*
G01X7170Y4820D02*
G01X6210Y5780D01*
G01X6210Y5780D02*
G01X6210Y8730D01*
G01X6210Y8730D02*
G01X5430Y9510D01*
G01X5430Y9510D02*
G01X5430Y10660D01*
G54D29*
G01X5430Y10660D03*
G01X3460Y9100D03*
G54D28*
G01X3460Y9100D02*
G01X2670Y9100D01*
G01X2670Y9100D02*
G01X2826Y9100D01*
G54D29*
G01X5680Y3470D03*
G54D28*
G01X5680Y3470D02*
G01X5800Y3590D01*
G01X5800Y3590D02*
G01X5800Y8540D01*
G01X5800Y8540D02*
G01X4830Y9500D01*
G01X4830Y9500D02*
G01X4830Y10660D01*
G54D29*
G01X4830Y10660D03*
G01X4540Y12130D03*
G54D28*
G01X2600Y18100D02*
G01X2600Y16760D01*
G01X2600Y16760D02*
G01X2800Y16560D01*
G01X2800Y16560D02*
G01X4601Y16560D01*
G01X4601Y16560D02*
G01X5060Y16100D01*
G01X5060Y16100D02*
G01X5060Y15290D01*
G01X5060Y15290D02*
G01X4690Y14921D01*
G01X4690Y14921D02*
G01X4680Y12270D01*
G01X4680Y12270D02*
G01X4540Y12130D01*
G01X1404Y7800D02*
G01X1404Y7294D01*
G01X1404Y7294D02*
G01X1390Y7280D01*
G01X1390Y7280D02*
G01X1350Y7100D01*
G54D29*
G01X1110Y28990D03*
G54D28*
G01X1110Y28990D02*
G01X1110Y27570D01*
G01X1110Y27570D02*
G01X2110Y26570D01*
G01X2110Y26570D02*
G01X2110Y25590D01*
G01X2110Y25590D02*
G01X2440Y25260D01*
G01X2440Y25260D02*
G01X7560Y25260D01*
G01X7560Y25260D02*
G01X8600Y26300D01*
G54D29*
G01X1450Y29330D03*
G54D28*
G01X1450Y29330D02*
G01X980Y29330D01*
G01X980Y29330D02*
G01X790Y29140D01*
G01X790Y29140D02*
G01X790Y27390D01*
G01X790Y27390D02*
G01X1090Y27090D01*
G01X1090Y27090D02*
G01X1090Y25240D01*
G01X1090Y25240D02*
G01X1360Y24970D01*
G01X1360Y24970D02*
G01X7930Y24970D01*
G01X7930Y24970D02*
G01X8600Y24300D01*
G01X1495Y11700D02*
G01X1495Y11285D01*
G01X1495Y11285D02*
G01X1450Y11240D01*
G01X1450Y11240D02*
G01X1404Y11205D01*
G01X1404Y11205D02*
G01X1410Y11200D01*
G01X1410Y11200D02*
G01X1373Y11100D01*
G54D29*
G01X3950Y15400D03*
G54D28*
G01X3950Y15400D02*
G01X3780Y15570D01*
G01X3780Y15570D02*
G01X2410Y15570D01*
G01X2410Y15570D02*
G01X2340Y15500D01*
G01X2340Y15500D02*
G01X2340Y13560D01*
G01X2340Y13560D02*
G01X2830Y13070D01*
G01X2830Y13070D02*
G01X2850Y13100D01*
G01X8500Y15100D02*
G01X8600Y15200D01*
G01X8600Y15200D02*
G01X8600Y18210D01*
G01X8600Y18210D02*
G01X8600Y18100D01*
G54D29*
G01X7820Y14000D03*
G54D30*
G01X7820Y14000D02*
G01X7820Y13600D01*
G01X8980Y13600D02*
G01X8980Y14580D01*
G01X8980Y14580D02*
G01X9500Y15100D01*
G54D29*
G01X7360Y3470D03*
G01X5790Y10960D03*
G54D30*
G01X5790Y10960D02*
G01X5790Y9480D01*
G01X5790Y9480D02*
G01X6440Y8830D01*
G01X6440Y8830D02*
G01X6440Y5940D01*
G01X6440Y5940D02*
G01X7480Y4900D01*
G01X7480Y4900D02*
G01X7480Y3470D01*
G01X7480Y3470D02*
G01X7360Y3470D01*
G54D29*
G01X3760Y13640D03*
G54D30*
G01X3760Y13640D02*
G01X3810Y13630D01*
G01X3810Y13630D02*
G01X3760Y13630D01*
G01X3760Y13630D02*
G01X3440Y13320D01*
G01X3440Y13320D02*
G01X3440Y11710D01*
G01X3440Y11710D02*
G01X3530Y11620D01*
G01X3530Y11620D02*
G01X3710Y11620D01*
G01X3710Y11620D02*
G01X5790Y11620D01*
G01X5790Y11620D02*
G01X5790Y10960D01*
G54D29*
G01X3760Y14270D03*
G54D30*
G01X3760Y14270D02*
G01X3760Y13640D01*
G01X9500Y15100D02*
G01X8980Y14580D01*
G01X8980Y14580D02*
G01X8980Y11790D01*
G01X8980Y11790D02*
G01X8810Y11620D01*
G01X8810Y11620D02*
G01X7820Y11620D01*
G01X7820Y11620D02*
G01X7820Y14010D01*
G01X7820Y14010D02*
G01X7820Y11620D01*
G01X7820Y11620D02*
G01X5790Y11620D01*
G01X9600Y20100D02*
G01X9600Y18070D01*
G01X9600Y18070D02*
G01X9600Y18100D01*
G01X9600Y18100D02*
G01X9600Y18190D01*
G01X9600Y18190D02*
G01X9600Y15200D01*
G01X9600Y15200D02*
G01X9500Y15100D01*
G54D28*
G01X3700Y11500D02*
G01X3710Y11570D01*
G01X3710Y11570D02*
G01X3710Y11620D01*
G01X9600Y26300D02*
G01X9600Y24300D01*
G54D29*
G01X4260Y27300D03*
G54D28*
G01X4260Y27300D02*
G01X4680Y26880D01*
G01X4680Y26880D02*
G01X9020Y26880D01*
G01X9020Y26880D02*
G01X9600Y26300D01*
G54D29*
G01X3090Y27300D03*
G54D28*
G01X3090Y27300D02*
G01X4260Y27300D01*
G54D29*
G01X1800Y29970D03*
G54D28*
G01X1800Y29970D02*
G01X1800Y27840D01*
G01X1800Y27840D02*
G01X2340Y27300D01*
G01X2340Y27300D02*
G01X3090Y27300D01*
G01X1400Y5700D02*
G01X1400Y5240D01*
G01X1400Y5240D02*
G01X1373Y5100D01*
G01X1495Y13700D02*
G01X1495Y13265D01*
G01X1495Y13265D02*
G01X1450Y13220D01*
G01X1450Y13220D02*
G01X1404Y13214D01*
G01X1404Y13214D02*
G01X1400Y13210D01*
G01X1400Y13210D02*
G01X1373Y13100D01*
G54D29*
G01X2630Y10290D03*
G54D28*
G01X2630Y10290D02*
G01X850Y10290D01*
G01X850Y10290D02*
G01X740Y10180D01*
G01X740Y10180D02*
G01X740Y6620D01*
G01X740Y6620D02*
G01X930Y6430D01*
G01X930Y6430D02*
G01X1460Y6430D01*
G01X1460Y6430D02*
G01X1650Y6240D01*
G01X1650Y6240D02*
G01X1650Y5760D01*
G01X1650Y5760D02*
G01X1695Y5700D01*
G01X1495Y15700D02*
G01X1495Y15295D01*
G01X1495Y15295D02*
G01X1490Y15290D01*
G01X1490Y15290D02*
G01X1404Y15184D01*
G01X1404Y15184D02*
G01X1400Y15180D01*
G01X1400Y15180D02*
G01X1373Y15100D01*
G54D30*
G01X4600Y800D02*
G01X4600Y2840D01*
G01X4600Y2840D02*
G01X4000Y3440D01*
G54D29*
G01X4000Y3440D03*
G54D28*
G01X8500Y5100D02*
G01X7980Y4580D01*
G01X7980Y4580D02*
G01X7980Y3470D01*
G01X7980Y3470D02*
G01X8390Y3060D01*
G01X8390Y3060D02*
G01X8500Y3100D01*
G01X9500Y5100D02*
G01X9000Y4600D01*
G01X9000Y4600D02*
G01X9000Y3920D01*
G01X9000Y3920D02*
G01X9500Y3420D01*
G01X9500Y3420D02*
G01X9500Y3100D01*
G01X8500Y6100D02*
G01X7730Y5330D01*
G01X7730Y5330D02*
G01X7730Y2820D01*
G01X7730Y2820D02*
G01X8430Y2120D01*
G01X8430Y2120D02*
G01X8500Y2100D01*
G01X8500Y14100D02*
G01X8500Y14350D01*
G01X8500Y14350D02*
G01X8490Y14090D01*
G01X8490Y14090D02*
G01X7910Y14670D01*
G01X7910Y14670D02*
G01X7910Y15300D01*
G01X7910Y15300D02*
G01X8110Y15500D01*
G01X8110Y15500D02*
G01X8110Y18810D01*
G01X8110Y18810D02*
G01X7581Y19339D01*
G01X7581Y19339D02*
G01X7581Y19991D01*
G01X7581Y19991D02*
G01X7590Y20000D01*
G01X7590Y20000D02*
G01X7600Y20100D01*
G54D29*
G01X1450Y28660D03*
G54D28*
G01X1450Y28660D02*
G01X1450Y27760D01*
G01X1450Y27760D02*
G01X2330Y26890D01*
G01X2330Y26890D02*
G01X2980Y26890D01*
G01X2980Y26890D02*
G01X3090Y26780D01*
G01X3090Y26780D02*
G01X3090Y25910D01*
G01X3090Y25910D02*
G01X3470Y25530D01*
G01X3470Y25530D02*
G01X6830Y25530D01*
G01X6830Y25530D02*
G01X7600Y26300D01*
G54D29*
G01X5720Y12130D03*
G54D28*
G01X5720Y12130D02*
G01X5590Y12260D01*
G01X5590Y12260D02*
G01X5590Y16180D01*
G01X5590Y16180D02*
G01X4520Y17250D01*
G01X4520Y17250D02*
G01X3680Y17250D01*
G01X3680Y17250D02*
G01X3600Y17330D01*
G01X3600Y17330D02*
G01X3600Y18160D01*
G01X3600Y18160D02*
G01X3600Y18100D01*
G54D30*
G01X1200Y15700D02*
G01X780Y15700D01*
G01X780Y15700D02*
G01X610Y15530D01*
G01X610Y15530D02*
G01X610Y13700D01*
G01X610Y13700D02*
G01X1200Y13700D01*
G01X1200Y11700D02*
G01X810Y11700D01*
G01X810Y11700D02*
G01X610Y11900D01*
G01X610Y11900D02*
G01X610Y13700D01*
G01X1200Y13700D02*
G01X600Y13700D01*
G54D29*
G01X600Y13700D03*
G54D30*
G01X1104Y3700D02*
G01X790Y3700D01*
G01X790Y3700D02*
G01X650Y3560D01*
G01X650Y3560D02*
G01X650Y2400D01*
G01X650Y2400D02*
G01X800Y2250D01*
G54D29*
G01X800Y2250D03*
G54D30*
G01X9500Y13100D02*
G01X9500Y11620D01*
G01X9500Y11620D02*
G01X9070Y11190D01*
G01X9070Y11190D02*
G01X8310Y11190D01*
G01X8310Y11190D02*
G01X7000Y9880D01*
G54D29*
G01X7000Y9880D03*
G01X2610Y5900D03*
G54D31*
G01X2610Y5900D02*
G01X2090Y5380D01*
G01X2090Y5380D02*
G01X2090Y2630D01*
G01X2090Y2630D02*
G01X1700Y2240D01*
G54D29*
G01X1700Y2240D03*
G54D30*
G01X3700Y11204D02*
G01X3700Y10820D01*
G01X3700Y10820D02*
G01X3730Y10790D01*
G01X3730Y10790D02*
G01X3700Y10800D01*
G54D29*
G01X3700Y10800D03*
G54D28*
G01X1400Y3700D02*
G01X1400Y3190D01*
G01X1400Y3190D02*
G01X1373Y3100D01*
G01X7600Y18100D02*
G01X7100Y18600D01*
G01X7100Y18600D02*
G01X7100Y21620D01*
G01X7100Y21620D02*
G01X6930Y21790D01*
G01X6930Y21790D02*
G01X5770Y21790D01*
G01X5770Y21790D02*
G01X5590Y21610D01*
G01X5590Y21610D02*
G01X5590Y21260D01*
G01X5590Y21260D02*
G01X5600Y21100D01*
G54D30*
G01X2850Y5100D02*
G01X2800Y5150D01*
G01X2800Y5150D02*
G01X3130Y5340D01*
G01X3130Y5340D02*
G01X3130Y6430D01*
G01X3130Y6430D02*
G01X2800Y6430D01*
G01X2800Y6430D02*
G01X2210Y6430D01*
G01X2210Y6430D02*
G01X2040Y6600D01*
G01X2040Y6600D02*
G01X2040Y7800D01*
G01X2040Y7800D02*
G01X1700Y7800D01*
G01X1700Y9700D02*
G01X2040Y9700D01*
G01X2040Y9700D02*
G01X2040Y7800D01*
G54D29*
G01X4740Y7220D03*
G54D30*
G01X4740Y7220D02*
G01X4180Y7220D01*
G01X4180Y7220D02*
G01X3400Y6430D01*
G01X3400Y6430D02*
G01X2800Y6430D01*
G54D29*
G01X2290Y9950D03*
G54D30*
G01X2290Y9950D02*
G01X2040Y9700D01*
G54D29*
G01X3400Y1680D03*
G54D30*
G01X3400Y1680D02*
G01X2800Y2280D01*
G01X2800Y2280D02*
G01X2800Y2870D01*
G01X2800Y2870D02*
G01X2850Y3200D01*
G01X2850Y3200D02*
G01X2850Y3100D01*
G01X2850Y3100D02*
G01X2800Y3120D01*
G01X2800Y3120D02*
G01X2800Y4870D01*
G01X2800Y4870D02*
G01X2850Y5120D01*
G01X2850Y5120D02*
G01X2850Y5100D01*
G54D29*
G01X7320Y13320D03*
G54D28*
G01X7320Y13320D02*
G01X7320Y16650D01*
G01X7320Y16650D02*
G01X6100Y17870D01*
G01X6100Y17870D02*
G01X6100Y18800D01*
G01X6100Y18800D02*
G01X5600Y19300D01*
G01X5600Y19300D02*
G01X5600Y20100D01*
G54D32*
G01X7100Y30200D02*
G01X7100Y29210D01*
G01X9100Y30200D02*
G01X9100Y29210D01*
G01X7100Y30200D02*
G01X6590Y30200D01*
G01X9100Y30200D02*
G01X9550Y30200D01*
G54D33*
G01X600Y24300D02*
G01X600Y27080D01*
G54D29*
G01X3530Y4720D03*
G54D28*
G01X3530Y4720D02*
G01X3530Y5420D01*
G54D29*
G01X3530Y5420D03*
G01X6980Y12980D03*
G54D28*
G01X6980Y12980D02*
G01X6960Y13001D01*
G01X6960Y13001D02*
G01X6960Y16550D01*
G01X6960Y16550D02*
G01X5660Y17850D01*
G01X5660Y17850D02*
G01X5600Y17960D01*
G01X5600Y17960D02*
G01X5600Y18100D01*
G54D29*
G01X6190Y12130D03*
G54D28*
G01X6190Y12130D02*
G01X5890Y12430D01*
G01X5890Y12430D02*
G01X5890Y16240D01*
G01X5890Y16240D02*
G01X4630Y17500D01*
G01X4630Y17500D02*
G01X4200Y17500D01*
G01X4200Y17500D02*
G01X4070Y17630D01*
G01X4070Y17630D02*
G01X4070Y18820D01*
G01X4070Y18820D02*
G01X3600Y19290D01*
G01X3600Y19290D02*
G01X3600Y20100D01*
G01X2826Y7100D02*
G01X2820Y7100D01*
G01X2820Y7100D02*
G01X3460Y7100D01*
G54D29*
G01X3460Y7100D03*
G01X6650Y12640D03*
G54D28*
G01X6650Y12640D02*
G01X6630Y12660D01*
G01X6630Y12660D02*
G01X6630Y16390D01*
G01X6630Y16390D02*
G01X5100Y17920D01*
G01X5100Y17920D02*
G01X5100Y18820D01*
G01X5100Y18820D02*
G01X4600Y19320D01*
G01X4600Y19320D02*
G01X4600Y20100D01*
G54D29*
G01X4050Y12140D03*
G54D28*
G01X4050Y12140D02*
G01X4380Y12470D01*
G01X4380Y12470D02*
G01X4380Y14920D01*
G01X4380Y14920D02*
G01X4830Y15370D01*
G01X4830Y15370D02*
G01X4830Y15990D01*
G01X4830Y15990D02*
G01X4491Y16330D01*
G01X4491Y16330D02*
G01X2240Y16330D01*
G01X2240Y16330D02*
G01X2070Y16500D01*
G01X2070Y16500D02*
G01X2070Y18790D01*
G01X2070Y18790D02*
G01X1610Y19250D01*
G01X1610Y19250D02*
G01X1610Y19860D01*
G01X1610Y19860D02*
G01X1625Y20095D01*
G01X1625Y20095D02*
G01X1630Y20100D01*
G01X1630Y20100D02*
G01X1600Y20100D01*

G04 Draw Text*
M00*
M02*
