;Holesize 1 =   25.0 PLATED MILS
;Holesize 2 =   18.0 PLATED MILS
;Holesize 3 =    8.0 PLATED MILS
;Holesize 4 =   15.0 PLATED MILS
M48
INCH,00.0000
T01C0.025
T02C0.018
T03C0.008
T04C0.015
%
G05
G90
T01
X001000Y037100
X001000Y037600
X003900Y037100
X003900Y037600
X003500Y001100
X000600Y001100
X003500Y006500
X000600Y006500
X003500Y000600
X000600Y000600
X027350Y017050
X026100Y017550
X027100Y017550
X027600Y017550
X025600Y017550
X026600Y017550
X025850Y017050
X026350Y017050
X026850Y017050
X025350Y017050
X025100Y017550
X016650Y042700
X019550Y042700
X016650Y042200
X019550Y042200
X020700Y049100
X016300Y049100
X003600Y039700
X004100Y039700
X002500Y046600
X002500Y045100
X002500Y044100
X002500Y046100
X002500Y045600
X002500Y044600
X005200Y046600
X005200Y045100
X005200Y044100
X005200Y046100
X005200Y045600
X005200Y044600
X001100Y046000
X001100Y044950
X001100Y042750
X001100Y047150
X001100Y043800
X001100Y041600
X006500Y041600
X006500Y044950
X006500Y047150
X006500Y042750
X006500Y043800
X006500Y046000
X001000Y034500
X001000Y035000
X003900Y034500
X003900Y035000
X008400Y001100
X005500Y001100
X008400Y006500
X005500Y006500
X008400Y000600
X005500Y000600
X032250Y017050
X031000Y017550
X032000Y017550
X032500Y017550
X030500Y017550
X031500Y017550
X030750Y017050
X031250Y017050
X031750Y017050
X030250Y017050
X030000Y017550
X022950Y042700
X025850Y042700
X022950Y042200
X025850Y042200
X027000Y049100
X022600Y049100
X011100Y039700
X011600Y039700
X010000Y046600
X010000Y045100
X010000Y044100
X010000Y046100
X010000Y045600
X010000Y044600
X012700Y046600
X012700Y045100
X012700Y044100
X012700Y046100
X012700Y045600
X012700Y044600
X008600Y046000
X008600Y044950
X008600Y042750
X008600Y047150
X008600Y043800
X008600Y041600
X014000Y041600
X014000Y044950
X014000Y047150
X014000Y042750
X014000Y043800
X014000Y046000
X013300Y001100
X010400Y001100
X013300Y006500
X010400Y006500
X013300Y000600
X010400Y000600
X018200Y001100
X015300Y001100
X018200Y006500
X015300Y006500
X018200Y000600
X015300Y000600
X023100Y001100
X020200Y001100
X023100Y006500
X020200Y006500
X023100Y000600
X020200Y000600
X027800Y001100
X024900Y001100
X027800Y006500
X024900Y006500
X027800Y000600
X024900Y000600
X032700Y001100
X029800Y001100
X032700Y006500
X029800Y006500
X032700Y000600
X029800Y000600
X037600Y001100
X034700Y001100
X037600Y006500
X034700Y006500
X037600Y000600
X034700Y000600
X042500Y001100
X039600Y001100
X042500Y006500
X039600Y006500
X042500Y000600
X039600Y000600
X047300Y001100
X044400Y001100
X047300Y006500
X044400Y006500
X047300Y000600
X044400Y000600
X037250Y017050
X036000Y017550
X037000Y017550
X037500Y017550
X035500Y017550
X036500Y017550
X035750Y017050
X036250Y017050
X036750Y017050
X035250Y017050
X035000Y017550
X042150Y017050
X040900Y017550
X041900Y017550
X042400Y017550
X040400Y017550
X041400Y017550
X040650Y017050
X041150Y017050
X041650Y017050
X040150Y017050
X039900Y017550
X046850Y017050
X045600Y017550
X046600Y017550
X047100Y017550
X045100Y017550
X046100Y017550
X045350Y017050
X045850Y017050
X046350Y017050
X044850Y017050
X044600Y017550
X029250Y042800
X032150Y042800
X029250Y042300
X032150Y042300
X033300Y049200
X028900Y049200
X035550Y042800
X038450Y042800
X035550Y042300
X038450Y042300
X039600Y049200
X035200Y049200
X041650Y042800
X044550Y042800
X041650Y042300
X044550Y042300
X045700Y049200
X041300Y049200
X005700Y037100
X005700Y037600
X008600Y037100
X008600Y037600
X005700Y034500
X005700Y035000
X008600Y034500
X008600Y035000
X010400Y037100
X010400Y037600
X013300Y037100
X013300Y037600
X010400Y034500
X010400Y035000
X013300Y034500
X013300Y035000
X015200Y034500
X015200Y035000
X018100Y034500
X018100Y035000
X019900Y034500
X019900Y035000
X022800Y034500
X022800Y035000
X049100Y008500
X049600Y008500
X049100Y005600
X049600Y005600
X049100Y003600
X049600Y003600
X049100Y000700
X049600Y000700
X024900Y034500
X024900Y035000
X027800Y034500
X027800Y035000
X029600Y034500
X029600Y035000
X032500Y034500
X032500Y035000
X034300Y034500
X034300Y035000
X037200Y034500
X037200Y035000
X039100Y034500
X039100Y035000
X042000Y034500
X042000Y035000
X043800Y034500
X043800Y035000
X046700Y034500
X046700Y035000
X049100Y018400
X049600Y018400
X049100Y015500
X049600Y015500
X049100Y013500
X049600Y013500
X049100Y010600
X049600Y010600
X049100Y028400
X049600Y028400
X049100Y025500
X049600Y025500
X049100Y023500
X049600Y023500
X049100Y020600
X049600Y020600
X049100Y033300
X049600Y033300
X049100Y030400
X049600Y030400
T02
X003650Y016550
X003650Y017050
X003650Y016050
X016300Y038200
X016800Y040600
X016300Y040600
X017300Y040600
X018300Y040600
X018800Y040600
X016800Y038200
X017800Y040600
X018800Y038200
X018300Y038200
X017300Y038200
X017800Y038200
X008350Y016550
X008350Y017050
X008350Y016050
X020400Y038200
X020900Y040600
X020400Y040600
X021400Y040600
X022400Y040600
X022900Y040600
X020900Y038200
X021900Y040600
X022900Y038200
X022400Y038200
X021400Y038200
X021900Y038200
X013150Y016550
X013150Y017050
X013150Y016050
X018150Y016550
X018150Y017050
X018150Y016050
X022950Y016550
X022950Y017050
X022950Y016050
X024800Y038200
X025300Y040600
X024800Y040600
X025800Y040600
X026800Y040600
X027300Y040600
X025300Y038200
X026300Y040600
X027300Y038200
X026800Y038200
X025800Y038200
X026300Y038200
X028900Y038200
X029400Y040600
X028900Y040600
X029900Y040600
X030900Y040600
X031400Y040600
X029400Y038200
X030400Y040600
X031400Y038200
X030900Y038200
X029900Y038200
X030400Y038200
X033100Y038200
X033600Y040600
X033100Y040600
X034100Y040600
X035100Y040600
X035600Y040600
X033600Y038200
X034600Y040600
X035600Y038200
X035100Y038200
X034100Y038200
X034600Y038200
X037200Y038200
X037700Y040600
X037200Y040600
X038200Y040600
X039200Y040600
X039700Y040600
X037700Y038200
X038700Y040600
X039700Y038200
X039200Y038200
X038200Y038200
X038700Y038200
X041400Y038200
X041900Y040600
X041400Y040600
X042400Y040600
X043400Y040600
X043900Y040600
X041900Y038200
X042900Y040600
X043900Y038200
X043400Y038200
X042400Y038200
X042900Y038200
X045500Y038200
X046000Y040600
X045500Y040600
X046500Y040600
X047500Y040600
X048000Y040600
X046000Y038200
X047000Y040600
X048000Y038200
X047500Y038200
X046500Y038200
X047000Y038200
X047200Y042300
X047700Y044700
X047200Y044700
X048200Y044700
X049200Y044700
X049700Y044700
X047700Y042300
X048700Y044700
X049700Y042300
X049200Y042300
X048200Y042300
X048700Y042300
X047200Y046700
X047700Y049100
X047200Y049100
X048200Y049100
X049200Y049100
X049700Y049100
X047700Y046700
X048700Y049100
X049700Y046700
X049200Y046700
X048200Y046700
X048700Y046700
T03
X031235Y031200
X026590Y031440
X041192Y031520
X039300Y027280
X042120Y031510
X040877Y031240
X032300Y027990
X031670Y027680
X029490Y028230
X029690Y031380
X031260Y030100
X030605Y031480
X010650Y029100
X042790Y047050
X044590Y047490
X031220Y047490
X031890Y047190
X045935Y025050
X045305Y025330
X044700Y024240
X044400Y024240
X045900Y023010
X029650Y024830
X032090Y024200
X030961Y025470
X031410Y022150
X030650Y022490
X036435Y012080
X026635Y012180
X041390Y011840
X027700Y008690
X027070Y008380
X024890Y008930
X025090Y012080
X026660Y010800
X026005Y012180
X021735Y012180
X016305Y012000
X044790Y004920
X017350Y006170
X011780Y004740
X011500Y001940
X011970Y002060
X002170Y002060
X002160Y004920
X002492Y012520
X000600Y008280
X003420Y012510
X000800Y016590
X001590Y014950
X001760Y016150
X003550Y018830
X001805Y018830
X026692Y018690
X003500Y023250
X002435Y025330
X007070Y002060
X007135Y012100
X006980Y012520
X006505Y018550
X006490Y024240
X045720Y011700
X021420Y018830
X021261Y018690
X021577Y018970
X041020Y018550
X045877Y018690
X046192Y018690
X010990Y024240
X012092Y025190
X025490Y024240
X021792Y025470
X021005Y025050
X031080Y031620
X045992Y031520
X044100Y027280
X046920Y031510
X010590Y027580
X043620Y047190
X043990Y047190
X030990Y047050
X032190Y047190
X037000Y048780
X035400Y044600
X037490Y045790
X031220Y047190
X031590Y047190
X030490Y024240
X037500Y008590
X036870Y008280
X034690Y008830
X034890Y011980
X036460Y010700
X035805Y012080
X031435Y012080
X026005Y011900
X022800Y008690
X022170Y008380
X019990Y008930
X020190Y012080
X021760Y010800
X021105Y012180
X036470Y002250
X040700Y001940
X026950Y006170
X036270Y002060
X016680Y004740
X021970Y002250
X016400Y001940
X021770Y002060
X016870Y002060
X025590Y047390
X023700Y046440
X002620Y001550
X002335Y012100
X002592Y018970
X002592Y025190
X019180Y048430
X019320Y044140
X006880Y002250
X008200Y008890
X007570Y008580
X005390Y009130
X005590Y012280
X007160Y011000
X006505Y012380
X006661Y018690
X030805Y018550
X031435Y018830
X032750Y015360
X032580Y018830
X006190Y024240
X016620Y018830
X040861Y018970
X039590Y018550
X040050Y018550
X045561Y018690
X045877Y018970
X045100Y016610
X020690Y024240
X017092Y025470
X018170Y023460
X016620Y025330
X021792Y025190
X040561Y031240
X035761Y031340
X030920Y031200
X020350Y029000
X022050Y028410
X020290Y027480
X017350Y029490
X017570Y029960
X017570Y029490
X043680Y048530
X043990Y044240
X030690Y047050
X032190Y046900
X031780Y048530
X031920Y044240
X035490Y024240
X042200Y023250
X041135Y025330
X032500Y008590
X031870Y008280
X029690Y008830
X029890Y011980
X031460Y010700
X030805Y012080
X012092Y012420
X010200Y008180
X013020Y012410
X047050Y004690
X045970Y006010
X045180Y001940
X045970Y002060
X040980Y004740
X026280Y004740
X031570Y002250
X026000Y001940
X031370Y002060
X026470Y002060
X011390Y004740
X002120Y018830
X002277Y018970
X002435Y018550
X002560Y028610
X001050Y028490
X001100Y031850
X001570Y030020
X018620Y047090
X018990Y047090
X007060Y004920
X007292Y012520
X005400Y008280
X008220Y012510
X006570Y017440
X007410Y016580
X006900Y015940
X008080Y017640
X006661Y018970
X006820Y018550
X031592Y018690
X030961Y018690
X046035Y011700
X010900Y015140
X010900Y015550
X017600Y015520
X017810Y016810
X021170Y017440
X022010Y016580
X021500Y015940
X022680Y017640
X021261Y018970
X045720Y018830
X027500Y023250
X026435Y025330
X045677Y031240
X036390Y031340
X040610Y030210
X040090Y030000
X039490Y030540
X039860Y027860
X040561Y031520
X041190Y031240
X021150Y030280
X020300Y031410
X022470Y029960
X022470Y029490
X030390Y047050
X032190Y047490
X045305Y025050
X040505Y025330
X039900Y024240
X039600Y024240
X041100Y023010
X032500Y023250
X031435Y025330
X045290Y024240
X047170Y023060
X045777Y025190
X035805Y025330
X035200Y024240
X034900Y024240
X036400Y023010
X036120Y011800
X021420Y011900
X017092Y012420
X015200Y008180
X018020Y012410
X012910Y010560
X011620Y012280
X012090Y012140
X041330Y006170
X040030Y001940
X042020Y004920
X035090Y005930
X035900Y005770
X035090Y000850
X037590Y004200
X041370Y002250
X016290Y004740
X020590Y005930
X021400Y005770
X020590Y000850
X023090Y004200
X010790Y005930
X011600Y005770
X010790Y000850
X013290Y004200
X023750Y044110
X003310Y010660
X002020Y012380
X002180Y012520
X002160Y028610
X001090Y027680
X025905Y018830
X024970Y015120
X006977Y018690
X031120Y018550
X045405Y011700
X011620Y018830
X016370Y017440
X017210Y016580
X016700Y015940
X017880Y017640
X016461Y018970
X015900Y015140
X015900Y015550
X017092Y018690
X036592Y018690
X036120Y018830
X010150Y024830
X012590Y024200
X011461Y025470
X011910Y022150
X011150Y022490
X025805Y025330
X025200Y024240
X024900Y024240
X026400Y023010
X026277Y031440
X045680Y031520
X026280Y031720
X025961Y031440
X010710Y030800
X012010Y030030
X011070Y030200
X012160Y029590
X010180Y031290
X010180Y032370
X012350Y028510
X043690Y044240
X043090Y047050
X044590Y046900
X037290Y047050
X038490Y047190
X031270Y042350
X037190Y048530
X037070Y043970
X030805Y025330
X030200Y024240
X029900Y024240
X031400Y023010
X047170Y023460
X045620Y025330
X041077Y011840
X031120Y011800
X041392Y012120
X039500Y007880
X042320Y012110
X040605Y011700
X036592Y012220
X034700Y007980
X037520Y012210
X026792Y012320
X024900Y008080
X027720Y012310
X035805Y011800
X021105Y011900
X017910Y010560
X016620Y012280
X017090Y012140
X021892Y012320
X020000Y008080
X022820Y012310
X011461Y012140
X011780Y012420
X045960Y004920
X040390Y004920
X025890Y004740
X030190Y005930
X031000Y005770
X030190Y000850
X032690Y004200
X015690Y005930
X016500Y005770
X015690Y000850
X018190Y004200
X010790Y004920
X024590Y048430
X024470Y043870
X024400Y048680
X022800Y044500
X024890Y045690
X001700Y001940
X002330Y006170
X001030Y001940
X003020Y004920
X003250Y004690
X002170Y006010
X001380Y001940
X002850Y028610
X003270Y030160
X003270Y029690
X026692Y018970
X001805Y025330
X001200Y024240
X000900Y024240
X002400Y023010
X018690Y044140
X006980Y003450
X006500Y006170
X007930Y002300
X007550Y006170
X006960Y028510
X008250Y030240
X031277Y018690
X007135Y025050
X046035Y011980
X011461Y018690
X011935Y018550
X017600Y017270
X017600Y016300
X016940Y018830
X016777Y018690
X020100Y016590
X020890Y014950
X021060Y016150
X022850Y018830
X021105Y018830
X036435Y018830
X037750Y015360
X037580Y018830
X011461Y025190
X013170Y023460
X011620Y025330
X018170Y023060
X016777Y025190
X019850Y024830
X022290Y024200
X021161Y025470
X021610Y022150
X020850Y022490
X015150Y024830
X017590Y024200
X016461Y025470
X016910Y022150
X016150Y022490
X042100Y027890
X041470Y027580
X039290Y028130
X039490Y031280
X041060Y030000
X040405Y031380
X026010Y030410
X025490Y030200
X024890Y030740
X025260Y028060
X025961Y031720
X011660Y028510
X012060Y028510
X010550Y028390
X010600Y031750
X011070Y029920
X043670Y042350
X031280Y043250
X033370Y043700
X035805Y025050
X037670Y023060
X036277Y025190
X030805Y011800
X027610Y010460
X026320Y012180
X042210Y010260
X040920Y011980
X040810Y010810
X040290Y010600
X039690Y011140
X040060Y008460
X040761Y012120
X036435Y011800
X026790Y012040
X031592Y012220
X029700Y007980
X032520Y012210
X041235Y011980
X016461Y012140
X021735Y011900
X016780Y012420
X045390Y004740
X046290Y006010
X044830Y002250
X047050Y004920
X046130Y006170
X044830Y001940
X046820Y004920
X036080Y002250
X025290Y005930
X026100Y005770
X025290Y000850
X027790Y004200
X021580Y002250
X015690Y004920
X012420Y001550
X003050Y029690
X026535Y018550
X002592Y025470
X018100Y048680
X016500Y044500
X018590Y045690
X006600Y001940
X005890Y004920
X006710Y011210
X006190Y011000
X005590Y011540
X005960Y008860
X006661Y012520
X006820Y018830
X007650Y028510
X047010Y010260
X045720Y011980
X011777Y018970
X017380Y016140
X017380Y017050
X016620Y018550
X020700Y015140
X020700Y015550
X041177Y018690
X045561Y018970
X044290Y018550
X044750Y018550
X011777Y025470
X016305Y025330
X015700Y024240
X015400Y024240
X016900Y023010
X016935Y025050
X021161Y025190
X018000Y022860
X016620Y025050
X022870Y023460
X021320Y025330
X045410Y030210
X044890Y030000
X044290Y030540
X044660Y027860
X045361Y031520
X027410Y029860
X026120Y031580
X022650Y030140
X015400Y031410
X016860Y028410
X015350Y028290
X015400Y031650
X015870Y029820
X012770Y030060
X012770Y029590
X031380Y048780
X032390Y044460
X037520Y047190
X037890Y047190
X042370Y023060
X040977Y025190
X040977Y025470
X040661Y025190
X036435Y025050
X026161Y012040
X031435Y011800
X026480Y012320
X011510Y011110
X010990Y010900
X010390Y011440
X010760Y008760
X011461Y012420
X046170Y002250
X036590Y006010
X035130Y002250
X037350Y004920
X036430Y006170
X035130Y001940
X037120Y004920
X041650Y006170
X035280Y004740
X031180Y002250
X025290Y004920
X035690Y004740
X022090Y006010
X020630Y002250
X022850Y004920
X017320Y001550
X021930Y006170
X020630Y001940
X022620Y004920
X020780Y004740
X021190Y004740
X011780Y002250
X000990Y005930
X001800Y005770
X000990Y000850
X003490Y004200
X002435Y025050
X017790Y046950
X019590Y047390
X019290Y047390
X017400Y046440
X018680Y043150
X020770Y043600
X006080Y004740
X006977Y018970
X031120Y018830
X006505Y025330
X005900Y024240
X005600Y024240
X007100Y023010
X007292Y025470
X016461Y018690
X021577Y018690
X021105Y018550
X041335Y018550
X036277Y018690
X025961Y025190
X026277Y025470
X016461Y025190
X021477Y025470
X027670Y023060
X026277Y025190
X045520Y031100
X016460Y028410
X043780Y048780
X044790Y044460
X043290Y048530
X043170Y043970
X043100Y048780
X041500Y044600
X043590Y045790
X035790Y024240
X032670Y023060
X031277Y025190
X045777Y025470
X031277Y025470
X034650Y024830
X037090Y024200
X035961Y025470
X036410Y022150
X035650Y022490
X030961Y025190
X041292Y025470
X016510Y011110
X015990Y010900
X015390Y011440
X015760Y008760
X016461Y012420
X044980Y004740
X036180Y003450
X035700Y006170
X037130Y002300
X031690Y006010
X030230Y002250
X032450Y004920
X026920Y001550
X031530Y006170
X030230Y001940
X032220Y004920
X030380Y004740
X041490Y006010
X040030Y002250
X042250Y004920
X040980Y002250
X039990Y005930
X040800Y005770
X039990Y000850
X042490Y004200
X030790Y004740
X021680Y003450
X021200Y006170
X022630Y002300
X016680Y002250
X011960Y004920
X024980Y048430
X025290Y044140
X001910Y011210
X001390Y011000
X000790Y011540
X001160Y008860
X001861Y012520
X001870Y017180
X003210Y017880
X000900Y017250
X000910Y016150
X001805Y025050
X018090Y046950
X019590Y046800
X005890Y005930
X006700Y005770
X005890Y000850
X008390Y004200
X006290Y004920
X006570Y017180
X007910Y017880
X005600Y017250
X005610Y016150
X031435Y018550
X031277Y018970
X030500Y016610
X006505Y025050
X045880Y012120
X012600Y015520
X012810Y016810
X016305Y018550
X021735Y018550
X040705Y018550
X036120Y018550
X016305Y025050
X026592Y025470
X030761Y031340
X036077Y031340
X045990Y031240
X036392Y031620
X034500Y027380
X037320Y031610
X035605Y031200
X010600Y031990
X042400Y047690
X042450Y044210
X043390Y047050
X044590Y047190
X031890Y047490
X030000Y046540
X036350Y044210
X031592Y025470
X047000Y022860
X045620Y025050
X040490Y024240
X046092Y025190
X036592Y025190
X041135Y025050
X042370Y023460
X040820Y025330
X041235Y011700
X026210Y011010
X025690Y010800
X025090Y011340
X025460Y008660
X026161Y012320
X036590Y011940
X042300Y008490
X041670Y008180
X039490Y008730
X039690Y011880
X041260Y010600
X040605Y011980
X021890Y012040
X031280Y003450
X030800Y006170
X032230Y002300
X037350Y004690
X036270Y006010
X035480Y001940
X041620Y001550
X026280Y002250
X022850Y004690
X021770Y006010
X020980Y001940
X016860Y004920
X023700Y047590
X001870Y017440
X002710Y016580
X002200Y015940
X003380Y017640
X001961Y018970
X001150Y029200
X025905Y018550
X001961Y025190
X018390Y046950
X019590Y047090
X006490Y004740
X007140Y018830
X030805Y018830
X029870Y015120
X006661Y025190
X045877Y011840
X046192Y012120
X044300Y007880
X047120Y012110
X011940Y018830
X010300Y016590
X011090Y014950
X011260Y016150
X013050Y018830
X011305Y018830
X016370Y017180
X017710Y017880
X015400Y017250
X015410Y016150
X035961Y018690
X011935Y025050
X027670Y023460
X026120Y025330
X026435Y025050
X025790Y024240
X037210Y029760
X035920Y031480
X035810Y030310
X035290Y030100
X034690Y030640
X035060Y027960
X035761Y031620
X040720Y031100
X031390Y031340
X036235Y031480
X026435Y031580
X010600Y031510
X044290Y047490
X042400Y046540
X037680Y048780
X038690Y044460
X036990Y047050
X038490Y046900
X037580Y048530
X037890Y044240
X038190Y047490
X036300Y046540
X030790Y024240
X031435Y025050
X032670Y023460
X031120Y025330
X041080Y012120
X031590Y011940
X011620Y012000
X045780Y002250
X045500Y001940
X032450Y004690
X031370Y006010
X030580Y001940
X036720Y001550
X026460Y004920
X022220Y001550
X013050Y004690
X011970Y006010
X011180Y001940
X010980Y004740
X024990Y044140
X001950Y030480
X026061Y018690
X003500Y022860
X002120Y025050
X018620Y047390
X019290Y047090
X017450Y044110
X007270Y002250
X007580Y016140
X007580Y017050
X007292Y018690
X008070Y030060
X008070Y029590
X005950Y029100
X031592Y018970
X008200Y022860
X006820Y025050
X011620Y018550
X012380Y016140
X012380Y017050
X016777Y018970
X021892Y018690
X021170Y017180
X022510Y017880
X020200Y017250
X020210Y016150
X035805Y018550
X045720Y018550
X045405Y018550
X045405Y018830
X044470Y015120
X046035Y018830
X047350Y015360
X047180Y018830
X013000Y022860
X011620Y025050
X021635Y025050
X016777Y025470
X045361Y031240
X027500Y028090
X026870Y027780
X024690Y028330
X024890Y031480
X026460Y030200
X025805Y031580
X030050Y044210
X040920Y011700
X016620Y012000
X046450Y006170
X041160Y004920
X041080Y003450
X040600Y006170
X042030Y002300
X040180Y004740
X031820Y001550
X035800Y001940
X036750Y006170
X022250Y006170
X017950Y004690
X016870Y006010
X016080Y001940
X015880Y004740
X021300Y001940
X012130Y006170
X010830Y001940
X012820Y004920
X012170Y002250
X024920Y047390
X025590Y047090
X001210Y030900
X002510Y030130
X001570Y030300
X002660Y029690
X000680Y031390
X000680Y032470
X026220Y018550
X003670Y023060
X002277Y025190
X018670Y042250
X017400Y047590
X008150Y004690
X007070Y006010
X006280Y001940
X007800Y017270
X007800Y016300
X008370Y023060
X006977Y025190
X005350Y024830
X007790Y024200
X006661Y025470
X007110Y022150
X006350Y022490
X045561Y011840
X017092Y018970
X022400Y017270
X022400Y016300
X041335Y018830
X042650Y015360
X042480Y018830
X036592Y018970
X040705Y018830
X039770Y015120
X022700Y022860
X021320Y025050
X046900Y027890
X046270Y027580
X044090Y028130
X044290Y031280
X045860Y030000
X045205Y031380
X041035Y031100
X037300Y027990
X036670Y027680
X034490Y028230
X034690Y031380
X036260Y030100
X035605Y031480
X020410Y030700
X021710Y029930
X020770Y030100
X021860Y029490
X019880Y031190
X019880Y032270
X020300Y031890
X021360Y028410
X012950Y030240
X015400Y031890
X015390Y027480
X011450Y030380
X043680Y043250
X045770Y043700
X030890Y048530
X030770Y043970
X037590Y044240
X030700Y048780
X029100Y044600
X031190Y045790
X037500Y022860
X036120Y025050
X041292Y025190
X036592Y025470
X026320Y011900
X011935Y012000
X031850Y006170
X027550Y004690
X026470Y006010
X025680Y001940
X036260Y004920
X025480Y004740
X041170Y002060
X030900Y001940
X017030Y006170
X015730Y001940
X017720Y004920
X017070Y002250
X021760Y004920
X011880Y003450
X011400Y006170
X012830Y002300
X024690Y046950
X025890Y047090
X024920Y047090
X025290Y047090
X002490Y006010
X001030Y002250
X003250Y004920
X001805Y018550
X002880Y016140
X002880Y017050
X001100Y031610
X026061Y018970
X024790Y018550
X025250Y018550
X026377Y018690
X007230Y006170
X005930Y001940
X007920Y004920
X006505Y012100
X007135Y012380
X006100Y015140
X006100Y015550
X007360Y028510
X005850Y028390
X005900Y031750
X006370Y029920
X005890Y027580
X046190Y011840
X045610Y010810
X045090Y010600
X044490Y011140
X044860Y008460
X045561Y012120
X026592Y025190
X017092Y025190
X026120Y031300
X036235Y031200
X045835Y031380
X040405Y031100
X017150Y028410
X017750Y030140
X043620Y047490
X044290Y047190
X037570Y042350
X038080Y048530
X038220Y044240
X031592Y025190
X036277Y011940
X036280Y012220
X035961Y011940
X021577Y012040
X021580Y012320
X021261Y012040
X016935Y012000
X044790Y005930
X045600Y005770
X044790Y000850
X047290Y004200
X026630Y006170
X025330Y001940
X027320Y004920
X026670Y002250
X031360Y004920
X016780Y003450
X016300Y006170
X017730Y002300
X012290Y006010
X010830Y002250
X013050Y004920
X024390Y046950
X025890Y046800
X025480Y048430
X025620Y044140
X001980Y004740
X001705Y012100
X002335Y012380
X001961Y018690
X003100Y017270
X003100Y016300
X001100Y032090
X000650Y024830
X003090Y024200
X001961Y025470
X002410Y022150
X001650Y022490
X001790Y024240
X007520Y001550
X006661Y012240
X007290Y012240
X007800Y015520
X008010Y016810
X006750Y030380
X030961Y018970
X029690Y018550
X030150Y018550
X008370Y023460
X006820Y025330
X012092Y018970
X021420Y018550
X021892Y018970
X040861Y018690
X041020Y018830
X036277Y018970
X035500Y016610
X011290Y024240
X011305Y025330
X010700Y024240
X010400Y024240
X011900Y023010
X013000Y023250
X011935Y025330
X018000Y023250
X016935Y025330
X031077Y031340
X036080Y031620
X041035Y031380
X031392Y031620
X029500Y027380
X032320Y031610
X030605Y031200
X026592Y031720
X024700Y027480
X027520Y031710
X035920Y031200
X025805Y031300
X022250Y029490
X016250Y030280
X046092Y025470
X031277Y011940
X036010Y010910
X035490Y010700
X034890Y011240
X035260Y008560
X035961Y012220
X031280Y012220
X030961Y011940
X026635Y011900
X021310Y011010
X020790Y010800
X020190Y011340
X020560Y008660
X021261Y012320
X046420Y001550
X045780Y004740
X026380Y003450
X025900Y006170
X027330Y002300
X017190Y006010
X015730Y002250
X017950Y004920
X024090Y046950
X025890Y047390
X000990Y004920
X001980Y002250
X001861Y012240
X002490Y012240
X002120Y018550
X002440Y018830
X001400Y015140
X001400Y015550
X001490Y024240
X018290Y048430
X018170Y043870
X007390Y006010
X005930Y002250
X008150Y004920
X006820Y012100
X006977Y025470
X047100Y008490
X046470Y008180
X044290Y008730
X044490Y011880
X046060Y010600
X045405Y011980
X012092Y018690
X041177Y018970
X040400Y016610
X035961Y018970
X034690Y018550
X035150Y018550
X046192Y018970
X020990Y024240
X021005Y025330
X020400Y024240
X020100Y024240
X021600Y023010
X022700Y023250
X021635Y025330
X032210Y029760
X030920Y031480
X030810Y030310
X030290Y030100
X029690Y030640
X030060Y027960
X030761Y031620
X026435Y031300
X046810Y029660
X045520Y031380
X042010Y029660
X040720Y031380
X045205Y031100
X045835Y031100
X031235Y031480
X044180Y048530
X044320Y044240
X037580Y043250
X039670Y043700
X031280Y048530
X031590Y044240
X044150Y024830
X046590Y024200
X045461Y025470
X045910Y022150
X045150Y022490
X037500Y023250
X036435Y025330
X045461Y025190
X047000Y023250
X045935Y025330
X044990Y024240
X031010Y010910
X030490Y010700
X029890Y011240
X030260Y008560
X030961Y012220
X037410Y010360
X036120Y012080
X022710Y010460
X021420Y012180
X011777Y012140
X026790Y006010
X025330Y002250
X027550Y004920
X036080Y004740
X021580Y004740
X011190Y004920
X024970Y042250
X001180Y004740
X002020Y012100
X002277Y018690
X002592Y018690
X003100Y015520
X003310Y016810
X018680Y048430
X018990Y044140
X018780Y048680
X019790Y044360
X006880Y004740
X006977Y012240
X007135Y018550
X006010Y030800
X007310Y030030
X006370Y030200
X007460Y029590
X005480Y031290
X005480Y032370
X005900Y031510
X011777Y018690
X012600Y017270
X012600Y016300
X015300Y016590
X016090Y014950
X016260Y016150
X018050Y018830
X016305Y018830
X035805Y018830
X034870Y015120
X036435Y018550
X041492Y018970
X046035Y018550
X013170Y023060
X011777Y025190
X015990Y024240
X021760Y028410
X020250Y028290
X020300Y031650
X020770Y029820
X015510Y030700
X016810Y029930
X015870Y030100
X016960Y029490
X014980Y031190
X014980Y032270
X015450Y029000
X036690Y047050
X038490Y047490
X037520Y047490
X038190Y047190
X030000Y047690
X042200Y022860
X040820Y025050
X037670Y023460
X036120Y025330
X040505Y025050
X032410Y010360
X031120Y012080
X016777Y012140
X011935Y012280
X013000Y008790
X012370Y008480
X010190Y009030
X010390Y012180
X011960Y010900
X011305Y012280
X045880Y003450
X045400Y006170
X046830Y002300
X045190Y004920
X039990Y004920
X035490Y004920
X040590Y004740
X035090Y004920
X031180Y004740
X020990Y004920
X016090Y004920
X020590Y004920
X024980Y043150
X027070Y043600
X001390Y004920
X002370Y002250
X002080Y003450
X001600Y006170
X003030Y002300
X002177Y012240
X002277Y025470
X003670Y023460
X002120Y025330
X007850Y029590
X005900Y031990
X008200Y023250
X007135Y025330
X011370Y017180
X012710Y017880
X010400Y017250
X010410Y016150
X016935Y018550
X021740Y018830
X041492Y018690
X027500Y022860
X026120Y025050
X022870Y023060
X021477Y025190
X016290Y024240
X025805Y025050
X040880Y031520
X012550Y029590
X036300Y047690
X031290Y044240
X030805Y025050
X036277Y025470
X032500Y022860
X031120Y025050
X035961Y025190
X039350Y024830
X041790Y024200
X040661Y025470
X041110Y022150
X040350Y022490
X040190Y024240
X026477Y012040
X040761Y011840
X016935Y012280
X018000Y008790
X017370Y008480
X015190Y009030
X015390Y012180
X016960Y010900
X016305Y012280
X011305Y012000
X030590Y004920
X042250Y004690
X041170Y006010
X040380Y001940
X025690Y004920
X030190Y004920
X012450Y006170
X025080Y048680
X026090Y044360
X001590Y004740
X002650Y006170
X003400Y008890
X002770Y008580
X000590Y009130
X000790Y012280
X002360Y011000
X001705Y012380
X003450Y030340
X026535Y018830
X027850Y015360
X027680Y018830
X026377Y018970
X025600Y016610
X026220Y018830
X008110Y010660
X006820Y012380
X005500Y016590
X006290Y014950
X006460Y016150
X008250Y018830
X006505Y018830
X007292Y018970
X007292Y025190
X011305Y018550
X011370Y017440
X012210Y016580
X011700Y015940
X012880Y017640
X011461Y018970
X022400Y015520
X022610Y016810
X022180Y016140
X022180Y017050
X012092Y025470
X011305Y025050
X024650Y024830
X027090Y024200
X025961Y025470
X026410Y022150
X025650Y022490
T04
X012700Y048260
X010630Y040310
X010630Y043790
X012080Y046810
X005200Y048260
X003130Y040310
X003130Y043790
X004580Y046810
X011820Y047110
X004720Y048900
X003040Y048900
X002910Y047510
X003530Y045880
X004190Y045880
X003900Y043210
X011350Y048880
X011400Y041170
X012220Y048900
X010540Y048900
X010410Y047510
X011030Y045880
X011690Y045880
X011400Y043210
X012580Y047540
X005080Y047540
X004320Y047110
X003850Y048880
X003900Y041170
M30
