G04 FreePCB version 1.359*
G04 C:\Users\Dwight Springthorpe\Documents\GitHub\DAQpack_mk2\memoryModule_CAM\top_copper.grb*
G04 top copper layer *
G04 Scale: 100 percent, Rotated: No, Reflected: No *
%FSLAX24Y24*%
%MOIN*%
%LN top copper *%
G04 Rounded Rectangle Macro, params: W/2, H/2, R *
%AMRNDREC*
21,1,$1+$1,$2+$2-$3-$3,0,0,0*
21,1,$1+$1-$3-$3,$2+$2,0,0,0*
1,1,$3+$3,$1-$3,$2-$3*
1,1,$3+$3,$3-$1,$2-$3*
1,1,$3+$3,$1-$3,$3-$2*
1,1,$3+$3,$3-$1,$3-$2*%
G04 Rectangular Thermal Macro, params: W/2, H/2, T/2 *
%AMRECTHERM*
$4=$3/2*
21,1,$1-$3,$2-$3,0-$1/2-$4,0-$2/2-$4,0*
21,1,$1-$3,$2-$3,0-$1/2-$4,$2/2+$4,0*
21,1,$1-$3,$2-$3,$1/2+$4,0-$2/2-$4,0*
21,1,$1-$3,$2-$3,$1/2+$4,$2/2+$4,0*%
%ADD10C,0.005000*%
%ADD11R,0.035433X0.019685*%
%ADD12R,0.086614X0.086614*%
%ADD13R,0.008661X0.027559*%
%ADD14R,0.039370X0.019685*%
%ADD15C,0.040000*%
%ADD16R,0.011811X0.011811*%
%ADD17C,0.016000*%
%ADD18C,0.004000*%
%ADD19C,0.006000*%
G90*
G70D02*

G04 Step and Repeat for panelization *

G04 ----------------------- Draw board outline (positive)*
%LPD*%
G54D10*
G01X0Y0D02*
G01X0Y5200D01*
G04 end of side 1*
G01X3500Y5200D01*
G04 end of side 2*
G01X3500Y0D01*
G04 end of side 3*
G01X0Y0D01*

G04 -------------- Draw Parts, Pads, Traces, Vias and Text (positive)*
%LPD*%
G04 Draw part U2*
G54D11*
G01X700Y1800D03*
G01X700Y1300D03*
G01X700Y800D03*
G01X700Y300D03*
G01X2865Y300D03*
G01X2865Y800D03*
G01X2865Y1300D03*
G01X2865Y1800D03*
G54D12*
G01X1782Y1050D03*
G04 Draw part H1*
G54D13*
G01X1300Y3600D03*
G01X1457Y3600D03*
G01X1614Y3600D03*
G01X1772Y3600D03*
G01X1929Y3600D03*
G01X2087Y3600D03*
G01X2087Y4820D03*
G01X1929Y4820D03*
G01X1772Y4820D03*
G01X1614Y4820D03*
G01X1457Y4820D03*
G01X1300Y4820D03*
G54D14*
G01X925Y3619D03*
G01X925Y4800D03*
G01X2461Y4800D03*
G01X2461Y3619D03*
G04 Draw part H2*
G04 Draw part P2*
G54D15*
G01X2750Y2500D03*
G04 Draw part P4*
G01X1500Y3000D03*
G04 Draw part P6*
G01X2500Y3000D03*
G04 Draw part P1*
G01X3000Y3000D03*
G04 Draw part P3*
G01X1000Y3000D03*
G04 Draw part P5*
G01X2000Y3000D03*
G04 Draw part P8*
G01X1250Y2500D03*
G04 Draw part P7*
G01X1750Y2500D03*
G04 Draw part P9*
G01X2250Y2500D03*
G04 Draw part C1*
G54D16*
G01X400Y4000D03*
G01X400Y3793D03*
G04 Draw part P10*
G54D15*
G01X750Y2500D03*
G04 Draw part P11*
G01X500Y3000D03*

G04 Draw traces*
G54D17*
G01X1305Y4000D03*
G54D18*
G01X1305Y4000D02*
G01X1300Y3970D01*
G01X1300Y3970D02*
G01X1300Y3600D01*
G01X1000Y3000D02*
G01X1000Y3120D01*
G01X1000Y3120D02*
G01X1300Y3420D01*
G01X1300Y3420D02*
G01X1300Y3600D01*
G54D17*
G01X1461Y4420D03*
G54D19*
G01X1461Y4420D02*
G01X1457Y4422D01*
G01X1457Y4422D02*
G01X1457Y4820D01*
G01X400Y4000D02*
G01X190Y4000D01*
G54D17*
G01X190Y4000D03*
G54D19*
G01X2750Y2500D02*
G01X2750Y1820D01*
G01X2750Y1820D02*
G01X2865Y1800D01*
G01X400Y4000D02*
G01X650Y4000D01*
G54D17*
G01X650Y4000D03*
G01X1461Y4140D03*
G54D18*
G01X1461Y4140D02*
G01X1457Y4147D01*
G01X1457Y4147D02*
G01X1457Y3600D01*
G01X1500Y3000D02*
G01X1450Y3130D01*
G01X1450Y3130D02*
G01X1457Y3137D01*
G01X1457Y3137D02*
G01X1457Y3600D01*
G54D17*
G01X1620Y4000D03*
G54D18*
G01X1620Y4000D02*
G01X1620Y3580D01*
G01X1620Y3580D02*
G01X1614Y3600D01*
G01X2000Y3000D02*
G01X1920Y3120D01*
G01X1920Y3120D02*
G01X1614Y3425D01*
G01X1614Y3425D02*
G01X1614Y3600D01*
G54D17*
G01X1777Y4140D03*
G54D18*
G01X1777Y4140D02*
G01X1770Y4120D01*
G01X1770Y4120D02*
G01X1770Y3720D01*
G01X1770Y3720D02*
G01X1780Y3570D01*
G01X1780Y3570D02*
G01X1772Y3600D01*
G01X2500Y3000D02*
G01X2180Y3320D01*
G01X2180Y3320D02*
G01X1920Y3320D01*
G01X1920Y3320D02*
G01X1772Y3467D01*
G01X1772Y3467D02*
G01X1772Y3600D01*
G01X1750Y2500D02*
G01X1750Y2150D01*
G01X1750Y2150D02*
G01X1120Y1520D01*
G01X1120Y1520D02*
G01X1120Y890D01*
G01X1120Y890D02*
G01X1030Y800D01*
G01X1030Y800D02*
G01X700Y800D01*
G01X2865Y1300D02*
G01X2470Y1300D01*
G01X2470Y1300D02*
G01X2360Y1410D01*
G01X2360Y1410D02*
G01X2360Y2080D01*
G01X2360Y2080D02*
G01X2250Y2190D01*
G01X2250Y2190D02*
G01X2250Y2500D01*
G54D17*
G01X1935Y4280D03*
G54D18*
G01X1935Y4280D02*
G01X1930Y4320D01*
G01X1930Y4320D02*
G01X1930Y4720D01*
G01X1930Y4720D02*
G01X1940Y4780D01*
G01X1940Y4780D02*
G01X1929Y4820D01*
G01X2865Y800D02*
G01X2890Y780D01*
G01X2890Y780D02*
G01X2950Y780D01*
G01X2950Y780D02*
G01X2980Y810D01*
G01X2980Y810D02*
G01X3250Y810D01*
G54D17*
G01X3250Y810D03*
G01X3080Y4280D03*
G54D18*
G01X3080Y4280D02*
G01X1935Y4280D01*
G54D17*
G01X2092Y4140D03*
G54D18*
G01X2092Y4140D02*
G01X2087Y4117D01*
G01X2087Y4117D02*
G01X2087Y3600D01*
G54D17*
G01X1777Y4420D03*
G54D18*
G01X1777Y4420D02*
G01X1770Y4440D01*
G01X1770Y4440D02*
G01X1770Y4770D01*
G01X1770Y4770D02*
G01X1772Y4820D01*
G01X700Y1300D02*
G01X420Y1300D01*
G01X420Y1300D02*
G01X310Y1410D01*
G01X310Y1410D02*
G01X310Y1940D01*
G01X310Y1940D02*
G01X430Y2060D01*
G01X430Y2060D02*
G01X1000Y2060D01*
G54D17*
G01X1000Y2060D03*
G01X1620Y4280D03*
G54D18*
G01X1620Y4280D02*
G01X1614Y4244D01*
G01X1614Y4244D02*
G01X1614Y4820D01*
G01X2865Y300D02*
G01X2580Y300D01*
G01X2580Y300D02*
G01X2460Y420D01*
G01X2460Y420D02*
G01X2460Y930D01*
G01X2460Y930D02*
G01X2580Y1050D01*
G01X2580Y1050D02*
G01X3200Y1050D01*
G01X3200Y1050D02*
G01X3300Y1150D01*
G01X3300Y1150D02*
G01X3300Y4910D01*
G01X3300Y4910D02*
G01X3140Y5070D01*
G01X3140Y5070D02*
G01X1670Y5070D01*
G01X1670Y5070D02*
G01X1610Y5010D01*
G01X1610Y5010D02*
G01X1610Y4840D01*
G01X1610Y4840D02*
G01X1614Y4820D01*
G01X1250Y2500D02*
G01X1250Y1940D01*
G01X1250Y1940D02*
G01X1110Y1800D01*
G01X1110Y1800D02*
G01X700Y1800D01*
G54D17*
G01X1305Y4280D03*
G54D19*
G01X1305Y4280D02*
G01X1300Y4300D01*
G01X1300Y4300D02*
G01X1300Y4740D01*
G01X1300Y4740D02*
G01X1310Y4840D01*
G01X1310Y4840D02*
G01X1300Y4820D01*
G01X700Y300D02*
G01X680Y280D01*
G01X680Y280D02*
G01X450Y280D01*
G01X450Y280D02*
G01X370Y370D01*
G01X370Y370D02*
G01X370Y570D01*
G54D17*
G01X370Y570D03*
G54D19*
G01X750Y2500D02*
G01X750Y2490D01*
G01X750Y2490D02*
G01X500Y2740D01*
G01X500Y2740D02*
G01X500Y3000D01*
G01X500Y3000D02*
G01X410Y3050D01*
G01X410Y3050D02*
G01X400Y3060D01*
G01X400Y3060D02*
G01X400Y3793D01*
G54D17*
G01X2092Y4420D03*
G54D18*
G01X2092Y4420D02*
G01X2090Y4450D01*
G01X2090Y4450D02*
G01X2090Y4780D01*
G01X2090Y4780D02*
G01X2087Y4820D01*
G54D17*
G01X1935Y4000D03*
G54D18*
G01X1935Y4000D02*
G01X1929Y3999D01*
G01X1929Y3999D02*
G01X1929Y3600D01*

G04 Draw Text*
M00*
M02*
