;Holesize 1 =    8.0 PLATED MILS
M48
INCH,00.0000
T01C0.008
%
G05
G90
T01
X001510Y003110
X000990Y002900
X000390Y003440
X000760Y000760
X001461Y004420
X001305Y004000
X001461Y004140
X001620Y004000
X001777Y004140
X001935Y004280
X002090Y004140
X002910Y002560
X001620Y004280
X001780Y004420
X003000Y000790
X002370Y000480
X000190Y001030
X000390Y004180
X001960Y002900
X001305Y004280
X002092Y004420
X000200Y000180
X003020Y004410
X001935Y004000
M30
