G04 FreePCB version 1.359*
G04 C:\Users\Jack Ruby\Documents\GitHub\DAQpack_mk2\radioModule_CAM\top_copper.grb*
G04 top copper layer *
G04 Scale: 100 percent, Rotated: No, Reflected: No *
%FSLAX24Y24*%
%MOIN*%
%LN top copper *%
G04 Rounded Rectangle Macro, params: W/2, H/2, R *
%AMRNDREC*
21,1,$1+$1,$2+$2-$3-$3,0,0,0*
21,1,$1+$1-$3-$3,$2+$2,0,0,0*
1,1,$3+$3,$1-$3,$2-$3*
1,1,$3+$3,$3-$1,$2-$3*
1,1,$3+$3,$1-$3,$3-$2*
1,1,$3+$3,$3-$1,$3-$2*%
G04 Rectangular Thermal Macro, params: W/2, H/2, T/2 *
%AMRECTHERM*
$4=$3/2*
21,1,$1-$3,$2-$3,0-$1/2-$4,0-$2/2-$4,0*
21,1,$1-$3,$2-$3,0-$1/2-$4,$2/2+$4,0*
21,1,$1-$3,$2-$3,$1/2+$4,0-$2/2-$4,0*
21,1,$1-$3,$2-$3,$1/2+$4,$2/2+$4,0*%
%ADD10C,0.005000*%
%ADD11R,0.027559X0.009843*%
%ADD12R,0.009843X0.027559*%
%ADD13R,0.102362X0.102362*%
%ADD14R,0.011811X0.011811*%
%ADD15R,0.008661X0.027559*%
%ADD16R,0.039370X0.019685*%
%ADD17R,0.040000X0.090000*%
%ADD18R,0.014000X0.014000*%
%ADD19R,0.011000X0.011000*%
%ADD20C,0.016000*%
%ADD21C,0.004000*%
%ADD22C,0.006000*%
%ADD23C,0.010000*%
%ADD24C,0.012000*%
G90*
G70D02*

G04 Step and Repeat for panelization *

G04 ----------------------- Draw board outline (positive)*
%LPD*%
G54D10*
G01X0Y0D02*
G01X0Y5150D01*
G04 end of side 1*
G01X3430Y5150D01*
G04 end of side 2*
G01X3430Y0D01*
G04 end of side 3*
G01X0Y0D01*

G04 -------------- Draw Parts, Pads, Traces, Vias and Text (positive)*
%LPD*%
G04 Draw part H1*
G04 Draw part U1*
G54D11*
G01X2674Y1812D03*
G01X2674Y2009D03*
G01X2674Y2206D03*
G01X2674Y2403D03*
G01X2674Y2600D03*
G54D12*
G01X2300Y2974D03*
G01X2103Y2974D03*
G01X1906Y2974D03*
G01X1709Y2974D03*
G01X1512Y2974D03*
G54D11*
G01X1138Y2600D03*
G01X1138Y2403D03*
G01X1138Y2206D03*
G01X1138Y2009D03*
G01X1138Y1812D03*
G54D12*
G01X1512Y1438D03*
G01X1709Y1438D03*
G01X1906Y1438D03*
G01X2103Y1438D03*
G01X2300Y1438D03*
G54D13*
G01X1906Y2206D03*
G04 Draw part R2*
G54D14*
G01X1300Y1100D03*
G01X1506Y1100D03*
G04 Draw part X1*
G04 Draw part C1*
G04 Draw part C2*
G04 Draw part C7*
G01X2300Y1100D03*
G01X2506Y1100D03*
G04 Draw part C8*
G04 Draw part C9*
G04 Draw part H2*
G54D15*
G01X1305Y3600D03*
G01X1462Y3600D03*
G01X1619Y3600D03*
G01X1777Y3600D03*
G01X1934Y3600D03*
G01X2092Y3600D03*
G01X2092Y4820D03*
G01X1934Y4820D03*
G01X1777Y4820D03*
G01X1619Y4820D03*
G01X1462Y4820D03*
G01X1305Y4820D03*
G54D16*
G01X930Y3619D03*
G01X930Y4800D03*
G01X2466Y4800D03*
G01X2466Y3619D03*
G04 Draw part A1*
G54D17*
G01X3020Y550D03*
G01X420Y550D03*
G04 Draw part hole3*
G54D18*
G01X585Y2415D03*
G54D19*
G01X600Y2200D03*
G01X800Y2200D03*
G01X800Y2400D03*
G04 Draw part L1*
G54D14*
G01X600Y1700D03*
G01X600Y1906D03*
G04 Draw part C4*
G01X400Y2900D03*
G01X400Y2693D03*
G04 Draw part C3*
G01X700Y2900D03*
G01X700Y2693D03*

G04 Draw traces*
G54D20*
G01X1305Y4000D03*
G54D21*
G01X1305Y4000D02*
G01X1310Y3950D01*
G01X1310Y3950D02*
G01X1310Y3670D01*
G01X1310Y3670D02*
G01X1300Y3560D01*
G01X1300Y3560D02*
G01X1305Y3600D01*
G54D20*
G01X150Y3780D03*
G54D22*
G01X150Y3780D02*
G01X580Y3350D01*
G01X580Y3350D02*
G01X2020Y3350D01*
G01X2020Y3350D02*
G01X2110Y3260D01*
G01X2110Y3260D02*
G01X2480Y3260D01*
G01X2480Y3260D02*
G01X2590Y3150D01*
G54D20*
G01X2590Y3150D03*
G54D22*
G01X2590Y3150D02*
G01X2480Y3260D01*
G01X2480Y3260D02*
G01X2100Y3260D01*
G01X2100Y3260D02*
G01X2100Y2960D01*
G01X2100Y2960D02*
G01X2103Y2974D01*
G54D20*
G01X1461Y4420D03*
G54D22*
G01X1461Y4420D02*
G01X1462Y4402D01*
G01X1462Y4402D02*
G01X1462Y4820D01*
G01X1906Y1438D02*
G01X1910Y1400D01*
G01X1910Y1400D02*
G01X1910Y1100D01*
G54D20*
G01X1910Y1100D03*
G54D22*
G01X1138Y1812D02*
G01X1140Y1820D01*
G01X1140Y1820D02*
G01X1150Y1800D01*
G01X1150Y1800D02*
G01X1150Y1440D01*
G54D20*
G01X1150Y1440D03*
G01X1461Y4140D03*
G54D21*
G01X1461Y4140D02*
G01X1460Y3620D01*
G01X1460Y3620D02*
G01X1462Y3600D01*
G01X2674Y1812D02*
G01X2680Y1810D01*
G01X2680Y1810D02*
G01X2690Y1800D01*
G01X2690Y1800D02*
G01X2750Y1810D01*
G01X2750Y1810D02*
G01X3000Y1810D01*
G54D20*
G01X3000Y1810D03*
G01X1620Y4000D03*
G54D21*
G01X1620Y4000D02*
G01X1620Y3620D01*
G01X1620Y3620D02*
G01X1619Y3600D01*
G01X2674Y2009D02*
G01X2690Y2010D01*
G01X2690Y2010D02*
G01X3170Y2010D01*
G54D20*
G01X3170Y2010D03*
G01X1777Y4140D03*
G54D21*
G01X1777Y4140D02*
G01X1780Y4090D01*
G01X1780Y4090D02*
G01X1780Y3610D01*
G01X1780Y3610D02*
G01X1777Y3600D01*
G01X1138Y2403D02*
G01X1080Y2400D01*
G54D23*
G01X1080Y2400D02*
G01X800Y2400D01*
G54D21*
G01X1512Y1438D02*
G01X1520Y1440D01*
G01X1520Y1440D02*
G01X1420Y1440D01*
G01X1420Y1440D02*
G01X1300Y1320D01*
G01X1300Y1320D02*
G01X1300Y1100D01*
G01X2674Y2206D02*
G01X2650Y2200D01*
G01X2650Y2200D02*
G01X3000Y2200D01*
G54D20*
G01X3000Y2200D03*
G01X1935Y4280D03*
G54D21*
G01X1935Y4280D02*
G01X1940Y4320D01*
G01X1940Y4320D02*
G01X1940Y4760D01*
G01X1940Y4760D02*
G01X1930Y4800D01*
G01X1930Y4800D02*
G01X1934Y4820D01*
G01X1709Y2974D02*
G01X1709Y3180D01*
G01X1709Y3180D02*
G01X1670Y3220D01*
G01X1670Y3220D02*
G01X1320Y3220D01*
G01X1320Y3220D02*
G01X1290Y3190D01*
G54D20*
G01X1290Y3190D03*
G01X2092Y4140D03*
G54D21*
G01X2092Y4140D02*
G01X2090Y4110D01*
G01X2090Y4110D02*
G01X2090Y3640D01*
G01X2090Y3640D02*
G01X2092Y3600D01*
G01X1512Y2974D02*
G01X1205Y2974D01*
G01X1205Y2974D02*
G01X990Y3190D01*
G54D20*
G01X990Y3190D03*
G54D23*
G01X585Y2415D02*
G01X590Y2440D01*
G01X590Y2440D02*
G01X590Y2690D01*
G01X590Y2690D02*
G01X670Y2690D01*
G01X670Y2690D02*
G01X700Y2693D01*
G01X700Y2693D02*
G01X436Y2693D01*
G01X436Y2693D02*
G01X410Y2690D01*
G01X410Y2690D02*
G01X400Y2693D01*
G54D20*
G01X3170Y2410D03*
G54D21*
G01X3170Y2410D02*
G01X2730Y2410D01*
G01X2730Y2410D02*
G01X2674Y2403D01*
G54D20*
G01X1620Y4280D03*
G54D21*
G01X1620Y4280D02*
G01X1619Y4269D01*
G01X1619Y4269D02*
G01X1619Y4820D01*
G01X1777Y4820D02*
G01X1780Y4750D01*
G01X1780Y4750D02*
G01X1780Y5000D01*
G01X1780Y5000D02*
G01X1810Y5030D01*
G01X1810Y5030D02*
G01X2930Y5030D01*
G01X2930Y5030D02*
G01X3080Y4880D01*
G01X3080Y4880D02*
G01X3080Y3140D01*
G01X3080Y3140D02*
G01X2660Y2720D01*
G01X2660Y2720D02*
G01X2660Y2600D01*
G01X2660Y2600D02*
G01X2674Y2600D01*
G54D20*
G01X1777Y4420D03*
G54D21*
G01X1777Y4420D02*
G01X1777Y4392D01*
G01X1777Y4392D02*
G01X1777Y4820D01*
G01X600Y1906D02*
G01X600Y1940D01*
G54D23*
G01X600Y1940D02*
G01X600Y2200D01*
G54D21*
G01X2103Y1438D02*
G01X2100Y1440D01*
G01X2100Y1440D02*
G01X2100Y1450D01*
G01X2100Y1450D02*
G01X2100Y1300D01*
G01X2100Y1300D02*
G01X2300Y1100D01*
G54D22*
G01X1906Y2206D02*
G01X1890Y2220D01*
G01X1890Y2220D02*
G01X1856Y2186D01*
G54D20*
G01X1305Y4280D03*
G54D22*
G01X1305Y4280D02*
G01X1305Y4275D01*
G01X1305Y4275D02*
G01X1305Y4820D01*
G01X1709Y1438D02*
G01X1710Y1300D01*
G01X1710Y1300D02*
G01X1510Y1100D01*
G01X1510Y1100D02*
G01X1506Y1100D01*
G01X2506Y1100D02*
G01X2506Y1343D01*
G01X2506Y1343D02*
G01X2410Y1440D01*
G01X2410Y1440D02*
G01X2330Y1440D01*
G01X2330Y1440D02*
G01X2300Y1438D01*
G01X1138Y2009D02*
G01X1620Y2009D01*
G01X1620Y2009D02*
G01X1660Y1970D01*
G01X1660Y1970D02*
G01X1906Y2206D01*
G01X1906Y2206D02*
G01X2300Y1830D01*
G01X2300Y1830D02*
G01X2300Y1438D01*
G01X1906Y2206D02*
G01X1720Y1920D01*
G01X1720Y1920D02*
G01X1709Y1909D01*
G01X1709Y1909D02*
G01X1709Y1438D01*
G01X1906Y2974D02*
G01X1906Y2573D01*
G01X1906Y2573D02*
G01X1920Y2560D01*
G01X1920Y2560D02*
G01X1906Y2206D01*
G01X700Y2900D02*
G01X700Y3190D01*
G54D20*
G01X700Y3190D03*
G54D22*
G01X400Y2900D02*
G01X400Y2890D01*
G01X400Y2890D02*
G01X400Y3190D01*
G54D20*
G01X400Y3190D03*
G54D22*
G01X1906Y2206D02*
G01X1880Y1960D01*
G01X1880Y1960D02*
G01X1900Y1960D01*
G54D20*
G01X1900Y1960D03*
G54D21*
G01X1138Y2206D02*
G01X1100Y2200D01*
G54D23*
G01X1100Y2200D02*
G01X800Y2200D01*
G54D21*
G01X2300Y2974D02*
G01X2290Y2970D01*
G01X2290Y2970D02*
G01X2294Y2974D01*
G01X2294Y2974D02*
G01X2724Y2974D01*
G01X2724Y2974D02*
G01X2800Y3050D01*
G01X2800Y3050D02*
G01X2800Y4350D01*
G01X2800Y4350D02*
G01X2730Y4420D01*
G01X2730Y4420D02*
G01X2090Y4420D01*
G01X2090Y4420D02*
G01X2092Y4420D01*
G54D20*
G01X2092Y4420D03*
G54D21*
G01X2092Y4420D02*
G01X2092Y4392D01*
G01X2092Y4392D02*
G01X2092Y4820D01*
G54D24*
G01X600Y1700D02*
G01X600Y1520D01*
G01X600Y1520D02*
G01X420Y1340D01*
G01X420Y1340D02*
G01X420Y550D01*
G54D20*
G01X1935Y4000D03*
G54D21*
G01X1935Y4000D02*
G01X1940Y3970D01*
G01X1940Y3970D02*
G01X1940Y3670D01*
G01X1940Y3670D02*
G01X1930Y3590D01*
G01X1930Y3590D02*
G01X1934Y3600D01*

G04 Draw Text*
M00*
M02*
