G04 FreePCB version 1.359*
G04 C:\Users\Jack Ruby\Documents\GitHub\DAQpack_mk2\environmentalModule_CAM\bottom_copper.grb*
G04 bottom copper layer *
G04 Scale: 100 percent, Rotated: No, Reflected: No *
%FSLAX24Y24*%
%MOIN*%
%LN bottom copper *%
G04 Rounded Rectangle Macro, params: W/2, H/2, R *
%AMRNDREC*
21,1,$1+$1,$2+$2-$3-$3,0,0,0*
21,1,$1+$1-$3-$3,$2+$2,0,0,0*
1,1,$3+$3,$1-$3,$2-$3*
1,1,$3+$3,$3-$1,$2-$3*
1,1,$3+$3,$1-$3,$3-$2*
1,1,$3+$3,$3-$1,$3-$2*%
G04 Rectangular Thermal Macro, params: W/2, H/2, T/2 *
%AMRECTHERM*
$4=$3/2*
21,1,$1-$3,$2-$3,0-$1/2-$4,0-$2/2-$4,0*
21,1,$1-$3,$2-$3,0-$1/2-$4,$2/2+$4,0*
21,1,$1-$3,$2-$3,$1/2+$4,0-$2/2-$4,0*
21,1,$1-$3,$2-$3,$1/2+$4,$2/2+$4,0*%
%ADD10C,0.005000*%
%ADD11R,0.030000X0.055433*%
%ADD12R,0.039685X0.053465*%
%ADD13R,0.031811X0.031811*%
%ADD14C,0.024000*%
%ADD15C,0.038000*%
%ADD16C,0.026000*%
%ADD17R,0.008661X0.035433*%
%ADD18R,0.019685X0.033465*%
%ADD19R,0.011811X0.011811*%
%ADD20C,0.004000*%
%ADD21C,0.016000*%
%ADD22C,0.006000*%
G90*
G70D02*

G04 Step and Repeat for panelization *

G04 ----------------------- Draw board outline (positive)*
%LPD*%
G54D10*
G01X0Y0D02*
G01X0Y5150D01*
G04 end of side 1*
G01X3430Y5150D01*
G04 end of side 2*
G01X3430Y0D01*
G04 end of side 3*
G01X0Y0D01*

G04 ----------------------- Draw copper area (positive)*
G36*
G01X3330Y210D02*
G01X3230Y110D01*
G01X110Y110D01*
G01X110Y1640D01*
G01X160Y1640D01*
G01X160Y2160D01*
G01X3300Y2160D01*
G01X3330Y210D01*
G37*

G04 -------------------- Draw copper area clearances (negative)*
%LPC*%

G04 Draw clearances for pads*
G54D11*
G01X2090Y3690D03*
G01X1932Y3690D03*
G01X1775Y3690D03*
G01X1617Y3690D03*
G01X1460Y3690D03*
G01X1302Y3690D03*
G01X1302Y4725D03*
G01X1460Y4725D03*
G01X1617Y4725D03*
G01X1775Y4725D03*
G01X1932Y4725D03*
G01X2090Y4725D03*
G54D12*
G01X2404Y3916D03*
G01X2404Y4499D03*
G01X987Y4499D03*
G01X987Y3916D03*
G54D13*
G01X3000Y2400D03*
G01X3000Y2606D03*
G01X3000Y2100D03*
G01X3000Y1893D03*
G01X2150Y1900D03*
G01X1943Y1900D03*
G01X2150Y1600D03*
G01X1943Y1600D03*
G01X1660Y800D03*
G01X1660Y593D03*
G01X2350Y600D03*
G01X2350Y806D03*
G01X900Y3200D03*
G01X693Y3200D03*
G01X1700Y2630D03*
G01X1493Y2630D03*
G01X1450Y3200D03*
G01X1243Y3200D03*
G01X170Y1700D03*
G01X376Y1700D03*
G01X700Y2600D03*
G01X700Y2806D03*
G01X2800Y1600D03*
G01X3006Y1600D03*

G04 Draw clearances for traces*
G54D14*
G01X1450Y3200D02*
G01X1450Y3310D01*
G01X1450Y3310D02*
G01X1300Y3460D01*
G01X1300Y3460D02*
G01X1300Y3610D01*
G01X1300Y3610D02*
G01X1300Y3590D01*
G01X1300Y3590D02*
G01X1302Y3690D01*
G54D15*
G01X1450Y2980D03*
G54D14*
G01X1450Y2980D02*
G01X1450Y3180D01*
G01X1450Y3180D02*
G01X1440Y3180D01*
G01X1440Y3180D02*
G01X1450Y3200D01*
G54D15*
G01X710Y3400D03*
G54D16*
G01X710Y3400D02*
G01X690Y3400D01*
G01X690Y3400D02*
G01X693Y3396D01*
G01X693Y3396D02*
G01X693Y3200D01*
G54D15*
G01X2010Y2630D03*
G54D16*
G01X1700Y2630D02*
G01X2010Y2630D01*
G01X1460Y4725D02*
G01X1460Y4860D01*
G01X1460Y4860D02*
G01X1460Y5020D01*
G01X1460Y5020D02*
G01X130Y5020D01*
G01X130Y5020D02*
G01X130Y3890D01*
G01X130Y3890D02*
G01X130Y3400D01*
G01X130Y3400D02*
G01X710Y3400D01*
G01X700Y2806D02*
G01X690Y2800D01*
G01X690Y2800D02*
G01X130Y2800D01*
G01X130Y2800D02*
G01X130Y3400D01*
G54D15*
G01X1070Y2800D03*
G54D16*
G01X1070Y2800D02*
G01X690Y2800D01*
G01X690Y2800D02*
G01X700Y2806D01*
G54D15*
G01X2160Y2190D03*
G54D16*
G01X2160Y2190D02*
G01X130Y2190D01*
G01X130Y2190D02*
G01X130Y2800D01*
G01X2150Y1900D02*
G01X2160Y1900D01*
G01X2160Y1900D02*
G01X2150Y1920D01*
G01X2150Y1920D02*
G01X2150Y2170D01*
G01X2150Y2170D02*
G01X2160Y2190D01*
G01X170Y1700D02*
G01X130Y1700D01*
G01X130Y1700D02*
G01X130Y2190D01*
G54D15*
G01X180Y3890D03*
G54D16*
G01X180Y3890D02*
G01X130Y3890D01*
G01X3000Y2400D02*
G01X3000Y2080D01*
G01X3000Y2080D02*
G01X3000Y2100D01*
G01X1460Y4725D02*
G01X1460Y4409D01*
G01X1460Y4409D02*
G01X1470Y4400D01*
G01X1470Y4400D02*
G01X1670Y4400D01*
G01X1670Y4400D02*
G01X1870Y4200D01*
G01X1870Y4200D02*
G01X2980Y4200D01*
G01X2980Y4200D02*
G01X3180Y4000D01*
G01X3180Y4000D02*
G01X3180Y2360D01*
G01X3180Y2360D02*
G01X3080Y2260D01*
G01X3080Y2260D02*
G01X3000Y2260D01*
G01X3000Y2260D02*
G01X3000Y2400D01*
G54D15*
G01X180Y4970D03*
G54D16*
G01X180Y4970D02*
G01X130Y5020D01*
G01X2150Y1600D02*
G01X2150Y1910D01*
G01X2150Y1910D02*
G01X2150Y1900D01*
G54D15*
G01X600Y4110D03*
G54D14*
G01X600Y4110D02*
G01X600Y4160D01*
G01X600Y4160D02*
G01X1520Y4160D01*
G01X1520Y4160D02*
G01X1620Y4060D01*
G01X1620Y4060D02*
G01X1620Y3700D01*
G01X1620Y3700D02*
G01X1617Y3690D01*
G54D15*
G01X600Y4590D03*
G54D14*
G01X600Y4590D02*
G01X780Y4410D01*
G01X780Y4410D02*
G01X780Y4300D01*
G01X780Y4300D02*
G01X820Y4260D01*
G01X820Y4260D02*
G01X1610Y4260D01*
G01X1610Y4260D02*
G01X1780Y4090D01*
G01X1780Y4090D02*
G01X1780Y3650D01*
G01X1780Y3650D02*
G01X1775Y3690D01*
G01X2800Y1600D02*
G01X2550Y1850D01*
G54D15*
G01X2550Y2190D03*
G54D14*
G01X2550Y1850D02*
G01X2550Y2190D01*
G54D15*
G01X2950Y2840D03*
G54D14*
G01X2090Y3690D02*
G01X2090Y3450D01*
G01X2090Y3450D02*
G01X2140Y3400D01*
G01X2140Y3400D02*
G01X2910Y3400D01*
G01X2910Y3400D02*
G01X2950Y3360D01*
G01X2950Y3360D02*
G01X2950Y2840D01*
G01X3000Y2606D02*
G01X3000Y2790D01*
G01X3000Y2790D02*
G01X2950Y2840D01*
G54D15*
G01X1660Y1110D03*
G54D14*
G01X1660Y1110D02*
G01X1660Y790D01*
G01X1660Y790D02*
G01X1660Y800D01*
G54D15*
G01X2350Y1110D03*
G54D14*
G01X2350Y1110D02*
G01X2350Y806D01*
G54D15*
G01X600Y4350D03*
G01X1070Y2520D03*
G01X590Y180D03*
G54D14*
G01X590Y180D02*
G01X590Y120D01*
G01X590Y120D02*
G01X3240Y120D01*
G01X3240Y120D02*
G01X3310Y190D01*
G01X3310Y190D02*
G01X3310Y4960D01*
G01X3310Y4960D02*
G01X3240Y5030D01*
G01X3240Y5030D02*
G01X2130Y5030D01*
G01X2130Y5030D02*
G01X2090Y4990D01*
G01X2090Y4990D02*
G01X2090Y4710D01*
G01X2090Y4710D02*
G01X2090Y4725D01*
G54D15*
G01X2770Y2660D03*
G01X2770Y2190D03*
G54D14*
G01X2770Y2660D02*
G01X2770Y2190D01*
G01X1932Y3690D02*
G01X1930Y3520D01*
G01X1930Y3520D02*
G01X1930Y3320D01*
G01X1930Y3320D02*
G01X1990Y3260D01*
G01X1990Y3260D02*
G01X2720Y3260D01*
G01X2720Y3260D02*
G01X2770Y3210D01*
G01X2770Y3210D02*
G01X2770Y2660D01*
G01X3000Y1893D02*
G01X2980Y1890D01*
G01X2980Y1890D02*
G01X2840Y1890D01*
G01X2840Y1890D02*
G01X2770Y1960D01*
G01X2770Y1960D02*
G01X2770Y2190D01*
G54D15*
G01X650Y1700D03*
G54D14*
G01X650Y1700D02*
G01X376Y1700D01*

G04 Draw clearances for text*

G04 -------------- Draw Parts, Pads, Traces, Vias and Text (positive)*
%LPD*%
G04 Draw part H2*
G54D17*
G01X2090Y3690D03*
G01X1932Y3690D03*
G01X1775Y3690D03*
G01X1617Y3690D03*
G01X1460Y3690D03*
G01X1302Y3690D03*
G01X1302Y4725D03*
G01X1460Y4725D03*
G01X1617Y4725D03*
G01X1775Y4725D03*
G01X1932Y4725D03*
G01X2090Y4725D03*
G54D18*
G01X2404Y3916D03*
G01X2404Y4499D03*
G01X987Y4499D03*
G01X987Y3916D03*
G04 Draw part U1*
G04 Draw part U2*
G04 Draw part R1*
G54D19*
G01X3000Y2400D03*
G01X3000Y2606D03*
G04 Draw part R2*
G01X3000Y2100D03*
G01X3000Y1893D03*
G04 Draw part C4*
G01X2150Y1900D03*
G01X1943Y1900D03*
G04 Draw part C3*
G01X2150Y1600D03*
G01X1943Y1600D03*
G04 Draw part C1*
G01X1660Y800D03*
G01X1660Y593D03*
G04 Draw part C2*
G01X2350Y600D03*
G01X2350Y806D03*
G04 Draw part C5*
G01X900Y3200D03*
G01X693Y3200D03*
G04 Draw part C6*
G01X1700Y2630D03*
G01X1493Y2630D03*
G04 Draw part J1*
G04 Draw part J2*
G04 Draw part J4*
G04 Draw part J5*
G04 Draw part J6*
G04 Draw part J3*
G04 Draw part T1*
G04 Draw part R3*
G01X1450Y3200D03*
G01X1243Y3200D03*
G04 Draw part U3*
G04 Draw part J7*
G04 Draw part J8*
G04 Draw part R4*
G01X170Y1700D03*
G01X376Y1700D03*
G04 Draw part C7*
G01X700Y2600D03*
G01X700Y2806D03*
G04 Draw part P9*
G01X2800Y1600D03*
G01X3006Y1600D03*

G04 Draw traces*
G54D20*
G01X1450Y3200D02*
G01X1450Y3310D01*
G01X1450Y3310D02*
G01X1300Y3460D01*
G01X1300Y3460D02*
G01X1300Y3610D01*
G01X1300Y3610D02*
G01X1300Y3590D01*
G01X1300Y3590D02*
G01X1302Y3690D01*
G54D21*
G01X1450Y2980D03*
G54D20*
G01X1450Y2980D02*
G01X1450Y3180D01*
G01X1450Y3180D02*
G01X1440Y3180D01*
G01X1440Y3180D02*
G01X1450Y3200D01*
G54D21*
G01X710Y3400D03*
G54D22*
G01X710Y3400D02*
G01X690Y3400D01*
G01X690Y3400D02*
G01X693Y3396D01*
G01X693Y3396D02*
G01X693Y3200D01*
G01X1700Y2630D02*
G01X2010Y2630D01*
G54D21*
G01X2010Y2630D03*
G54D22*
G01X1460Y4725D02*
G01X1460Y4860D01*
G01X1460Y4860D02*
G01X1460Y5020D01*
G01X1460Y5020D02*
G01X130Y5020D01*
G01X130Y5020D02*
G01X130Y3890D01*
G01X130Y3890D02*
G01X130Y3400D01*
G01X130Y3400D02*
G01X710Y3400D01*
G01X700Y2806D02*
G01X690Y2800D01*
G01X690Y2800D02*
G01X130Y2800D01*
G01X130Y2800D02*
G01X130Y3400D01*
G54D21*
G01X1070Y2800D03*
G54D22*
G01X1070Y2800D02*
G01X690Y2800D01*
G01X690Y2800D02*
G01X700Y2806D01*
G54D21*
G01X2160Y2190D03*
G54D22*
G01X2160Y2190D02*
G01X130Y2190D01*
G01X130Y2190D02*
G01X130Y2800D01*
G01X2150Y1900D02*
G01X2160Y1900D01*
G01X2160Y1900D02*
G01X2150Y1920D01*
G01X2150Y1920D02*
G01X2150Y2170D01*
G01X2150Y2170D02*
G01X2160Y2190D01*
G01X170Y1700D02*
G01X130Y1700D01*
G01X130Y1700D02*
G01X130Y2190D01*
G54D21*
G01X180Y3890D03*
G54D22*
G01X180Y3890D02*
G01X130Y3890D01*
G01X3000Y2400D02*
G01X3000Y2080D01*
G01X3000Y2080D02*
G01X3000Y2100D01*
G01X1460Y4725D02*
G01X1460Y4409D01*
G01X1460Y4409D02*
G01X1470Y4400D01*
G01X1470Y4400D02*
G01X1670Y4400D01*
G01X1670Y4400D02*
G01X1870Y4200D01*
G01X1870Y4200D02*
G01X2980Y4200D01*
G01X2980Y4200D02*
G01X3180Y4000D01*
G01X3180Y4000D02*
G01X3180Y2360D01*
G01X3180Y2360D02*
G01X3080Y2260D01*
G01X3080Y2260D02*
G01X3000Y2260D01*
G01X3000Y2260D02*
G01X3000Y2400D01*
G54D21*
G01X180Y4970D03*
G54D22*
G01X180Y4970D02*
G01X130Y5020D01*
G01X2150Y1600D02*
G01X2150Y1910D01*
G01X2150Y1910D02*
G01X2150Y1900D01*
G54D21*
G01X600Y4110D03*
G54D20*
G01X600Y4110D02*
G01X600Y4160D01*
G01X600Y4160D02*
G01X1520Y4160D01*
G01X1520Y4160D02*
G01X1620Y4060D01*
G01X1620Y4060D02*
G01X1620Y3700D01*
G01X1620Y3700D02*
G01X1617Y3690D01*
G54D21*
G01X600Y4590D03*
G54D20*
G01X600Y4590D02*
G01X780Y4410D01*
G01X780Y4410D02*
G01X780Y4300D01*
G01X780Y4300D02*
G01X820Y4260D01*
G01X820Y4260D02*
G01X1610Y4260D01*
G01X1610Y4260D02*
G01X1780Y4090D01*
G01X1780Y4090D02*
G01X1780Y3650D01*
G01X1780Y3650D02*
G01X1775Y3690D01*
G01X2800Y1600D02*
G01X2550Y1850D01*
G01X2550Y1850D02*
G01X2550Y2190D01*
G54D21*
G01X2550Y2190D03*
G01X2950Y2840D03*
G54D20*
G01X2090Y3690D02*
G01X2090Y3450D01*
G01X2090Y3450D02*
G01X2140Y3400D01*
G01X2140Y3400D02*
G01X2910Y3400D01*
G01X2910Y3400D02*
G01X2950Y3360D01*
G01X2950Y3360D02*
G01X2950Y2840D01*
G01X3000Y2606D02*
G01X3000Y2790D01*
G01X3000Y2790D02*
G01X2950Y2840D01*
G54D21*
G01X1660Y1110D03*
G54D20*
G01X1660Y1110D02*
G01X1660Y790D01*
G01X1660Y790D02*
G01X1660Y800D01*
G54D21*
G01X2350Y1110D03*
G54D20*
G01X2350Y1110D02*
G01X2350Y806D01*
G54D21*
G01X2060Y1110D03*
G54D22*
G01X2060Y1110D02*
G01X2070Y1120D01*
G54D21*
G01X550Y990D03*
G54D22*
G01X550Y990D02*
G01X530Y990D01*
G54D21*
G01X600Y4350D03*
G54D22*
G01X600Y4350D02*
G01X300Y4350D01*
G01X300Y4350D02*
G01X300Y4700D01*
G01X300Y4700D02*
G01X440Y4840D01*
G01X440Y4840D02*
G01X1310Y4840D01*
G01X1310Y4840D02*
G01X1302Y4725D01*
G01X2350Y600D02*
G01X2700Y600D01*
G01X1660Y593D02*
G01X1670Y590D01*
G01X1670Y590D02*
G01X1350Y590D01*
G01X1943Y1600D02*
G01X1610Y1600D01*
G01X1943Y1900D02*
G01X1590Y1900D01*
G01X3006Y1600D02*
G01X3010Y1590D01*
G01X3010Y1590D02*
G01X3010Y1220D01*
G01X900Y3200D02*
G01X910Y3200D01*
G01X910Y3200D02*
G01X1080Y3200D01*
G01X1080Y3200D02*
G01X1080Y3340D01*
G01X1080Y3340D02*
G01X300Y4120D01*
G01X300Y4120D02*
G01X300Y4350D01*
G01X1243Y3200D02*
G01X1230Y3200D01*
G01X1230Y3200D02*
G01X1080Y3200D01*
G54D21*
G01X1070Y2520D03*
G54D22*
G01X1070Y2520D02*
G01X990Y2600D01*
G01X990Y2600D02*
G01X700Y2600D01*
G01X1243Y3200D02*
G01X1243Y2876D01*
G01X1243Y2876D02*
G01X1450Y2670D01*
G01X1450Y2670D02*
G01X1493Y2630D01*
G01X1493Y2630D02*
G01X1510Y2610D01*
G01X1510Y2610D02*
G01X1490Y2630D01*
G01X1490Y2630D02*
G01X1490Y2390D01*
G01X1490Y2390D02*
G01X1200Y2390D01*
G01X1200Y2390D02*
G01X1070Y2520D01*
G01X1493Y2630D02*
G01X1493Y2566D01*
G01X1493Y2566D02*
G01X1490Y2390D01*
G01X1490Y2390D02*
G01X2260Y2390D01*
G01X2260Y2390D02*
G01X2370Y2290D01*
G01X2370Y2290D02*
G01X2370Y2020D01*
G54D21*
G01X590Y180D03*
G54D20*
G01X590Y180D02*
G01X590Y120D01*
G01X590Y120D02*
G01X3240Y120D01*
G01X3240Y120D02*
G01X3310Y190D01*
G01X3310Y190D02*
G01X3310Y4960D01*
G01X3310Y4960D02*
G01X3240Y5030D01*
G01X3240Y5030D02*
G01X2130Y5030D01*
G01X2130Y5030D02*
G01X2090Y4990D01*
G01X2090Y4990D02*
G01X2090Y4710D01*
G01X2090Y4710D02*
G01X2090Y4725D01*
G54D21*
G01X2770Y2660D03*
G54D20*
G01X2770Y2660D02*
G01X2770Y2190D01*
G54D21*
G01X2770Y2190D03*
G54D20*
G01X1932Y3690D02*
G01X1930Y3520D01*
G01X1930Y3520D02*
G01X1930Y3320D01*
G01X1930Y3320D02*
G01X1990Y3260D01*
G01X1990Y3260D02*
G01X2720Y3260D01*
G01X2720Y3260D02*
G01X2770Y3210D01*
G01X2770Y3210D02*
G01X2770Y2660D01*
G01X3000Y1893D02*
G01X2980Y1890D01*
G01X2980Y1890D02*
G01X2840Y1890D01*
G01X2840Y1890D02*
G01X2770Y1960D01*
G01X2770Y1960D02*
G01X2770Y2190D01*
G54D21*
G01X650Y1700D03*
G54D20*
G01X650Y1700D02*
G01X376Y1700D01*

G04 Draw Text*
M00*
M02*
