;Holesize 1 =    8.0 PLATED MILS
M48
INCH,00.0000
T01C0.008
%
G05
G90
T01
X001450Y002980
X000710Y003400
X002010Y002630
X001070Y002800
X002160Y002190
X000180Y003890
X000180Y004970
X000600Y004110
X000600Y004590
X002550Y002190
X002950Y002840
X001660Y001110
X002350Y001110
X002060Y001110
X000550Y000990
X000600Y004350
X001070Y002520
X000590Y000180
X002770Y002660
X002770Y002190
X000650Y001700
M30
