G04 FreePCB version 1.359*
G04 C:\Users\Dwight Springthorpe\Documents\GitHub\DAQpack_mk2\baseRadioModule_CAM\bottom_silk.grb*
G04 bottom silk layer *
G04 Scale: 100 percent, Rotated: No, Reflected: No *
%FSLAX24Y24*%
%MOIN*%
%LN bottom silk *%
G04 Rounded Rectangle Macro, params: W/2, H/2, R *
%AMRNDREC*
21,1,$1+$1,$2+$2-$3-$3,0,0,0*
21,1,$1+$1-$3-$3,$2+$2,0,0,0*
1,1,$3+$3,$1-$3,$2-$3*
1,1,$3+$3,$3-$1,$2-$3*
1,1,$3+$3,$1-$3,$3-$2*
1,1,$3+$3,$3-$1,$3-$2*%
G04 Rectangular Thermal Macro, params: W/2, H/2, T/2 *
%AMRECTHERM*
$4=$3/2*
21,1,$1-$3,$2-$3,0-$1/2-$4,0-$2/2-$4,0*
21,1,$1-$3,$2-$3,0-$1/2-$4,$2/2+$4,0*
21,1,$1-$3,$2-$3,$1/2+$4,0-$2/2-$4,0*
21,1,$1-$3,$2-$3,$1/2+$4,$2/2+$4,0*%
%ADD10C,0.005000*%
%ADD11C,0.010000*%
G90*
G70D02*

G04 Step and Repeat for panelization *

G04 ----------------------- Draw board outline (positive)*
%LPD*%
G54D10*
G01X-100Y-100D02*
G01X-100Y7600D01*
G04 end of side 1*
G01X10100Y7600D01*
G04 end of side 2*
G01X10100Y-100D01*
G04 end of side 3*
G01X-100Y-100D01*

G04 -------------- Draw Parts, Pads, Traces, Vias and Text (positive)*
%LPD*%
G04 Draw part H2*
G04 Draw part H1*
G04 Draw part U1*
G04 draw part outline for part U1*
G54D11*
G01X1945Y3909D02*
G01X1900Y3954D01*
G01X1900Y3954D02*
G01X1945Y4000D01*
G01X1990Y3954D02*
G01X1945Y4000D01*
G01X1945Y3909D02*
G01X1990Y3954D01*
G04 draw reference designator for part U1*
G54D10*
G01X5100Y3522D02*
G01X5100Y3863D01*
G01X5100Y3863D02*
G01X5122Y3931D01*
G01X5122Y3931D02*
G01X5168Y3977D01*
G01X5168Y3977D02*
G01X5236Y4000D01*
G01X5281Y4000D02*
G01X5236Y4000D01*
G01X5350Y3977D02*
G01X5281Y4000D01*
G01X5395Y3931D02*
G01X5350Y3977D01*
G01X5418Y3863D02*
G01X5395Y3931D01*
G01X5418Y3522D02*
G01X5418Y3863D01*
G01X5645Y3590D02*
G01X5600Y3613D01*
G01X5713Y3522D02*
G01X5645Y3590D01*
G01X5713Y3522D02*
G01X5713Y4000D01*
G04 Draw part L1*
G04 draw part outline for part L1*
G04 draw reference designator for part L1*
G01X6300Y3922D02*
G01X6300Y4400D01*
G01X6572Y4400D02*
G01X6300Y4400D01*
G01X6800Y3990D02*
G01X6754Y4013D01*
G01X6868Y3922D02*
G01X6800Y3990D01*
G01X6868Y3922D02*
G01X6868Y4400D01*
G04 Draw part R2*
G04 draw part outline for part R2*
G04 draw reference designator for part R2*
G01X5400Y3122D02*
G01X5400Y3600D01*
G01X5604Y3122D02*
G01X5400Y3122D01*
G01X5604Y3122D02*
G01X5672Y3145D01*
G01X5672Y3145D02*
G01X5695Y3168D01*
G01X5695Y3168D02*
G01X5718Y3213D01*
G01X5718Y3213D02*
G01X5718Y3259D01*
G01X5718Y3259D02*
G01X5695Y3304D01*
G01X5695Y3304D02*
G01X5672Y3327D01*
G01X5672Y3327D02*
G01X5604Y3350D01*
G01X5400Y3350D02*
G01X5604Y3350D01*
G01X5559Y3350D02*
G01X5718Y3600D01*
G01X5922Y3213D02*
G01X5922Y3236D01*
G01X5945Y3168D02*
G01X5922Y3213D01*
G01X5968Y3145D02*
G01X5945Y3168D01*
G01X6013Y3122D02*
G01X5968Y3145D01*
G01X6104Y3122D02*
G01X6013Y3122D01*
G01X6104Y3122D02*
G01X6150Y3145D01*
G01X6150Y3145D02*
G01X6172Y3168D01*
G01X6172Y3168D02*
G01X6195Y3213D01*
G01X6195Y3213D02*
G01X6195Y3259D01*
G01X6195Y3259D02*
G01X6172Y3304D01*
G01X6172Y3304D02*
G01X6127Y3372D01*
G01X6127Y3372D02*
G01X5900Y3600D01*
G01X6218Y3600D02*
G01X5900Y3600D01*
G04 Draw part X1*
G04 draw part outline for part X1*
G04 draw reference designator for part X1*
G01X2300Y10177D02*
G01X1981Y9700D01*
G01X1981Y10177D02*
G01X2300Y9700D01*
G01X1754Y10109D02*
G01X1800Y10086D01*
G01X1686Y10177D02*
G01X1754Y10109D01*
G01X1686Y10177D02*
G01X1686Y9700D01*
G04 Draw part C1*
G04 draw part outline for part C1*
G04 draw reference designator for part C1*
G01X4018Y6440D02*
G01X4040Y6486D01*
G01X3972Y6395D02*
G01X4018Y6440D01*
G01X3927Y6372D02*
G01X3972Y6395D01*
G01X3836Y6372D02*
G01X3927Y6372D01*
G01X3836Y6372D02*
G01X3790Y6395D01*
G01X3790Y6395D02*
G01X3745Y6440D01*
G01X3745Y6440D02*
G01X3722Y6486D01*
G01X3722Y6486D02*
G01X3700Y6554D01*
G01X3700Y6554D02*
G01X3700Y6668D01*
G01X3700Y6668D02*
G01X3722Y6736D01*
G01X3722Y6736D02*
G01X3745Y6781D01*
G01X3745Y6781D02*
G01X3790Y6827D01*
G01X3790Y6827D02*
G01X3836Y6850D01*
G01X3927Y6850D02*
G01X3836Y6850D01*
G01X3972Y6827D02*
G01X3927Y6850D01*
G01X4018Y6781D02*
G01X3972Y6827D01*
G01X4040Y6736D02*
G01X4018Y6781D01*
G01X4268Y6440D02*
G01X4222Y6463D01*
G01X4336Y6372D02*
G01X4268Y6440D01*
G01X4336Y6372D02*
G01X4336Y6850D01*
G04 Draw part C2*
G04 draw part outline for part C2*
G04 draw reference designator for part C2*
G01X2031Y7409D02*
G01X2009Y7363D01*
G01X2077Y7454D02*
G01X2031Y7409D01*
G01X2122Y7477D02*
G01X2077Y7454D01*
G01X2213Y7477D02*
G01X2122Y7477D01*
G01X2213Y7477D02*
G01X2259Y7454D01*
G01X2259Y7454D02*
G01X2304Y7409D01*
G01X2304Y7409D02*
G01X2327Y7363D01*
G01X2327Y7363D02*
G01X2350Y7295D01*
G01X2350Y7295D02*
G01X2350Y7181D01*
G01X2350Y7181D02*
G01X2327Y7113D01*
G01X2327Y7113D02*
G01X2304Y7068D01*
G01X2304Y7068D02*
G01X2259Y7022D01*
G01X2259Y7022D02*
G01X2213Y7000D01*
G01X2122Y7000D02*
G01X2213Y7000D01*
G01X2077Y7022D02*
G01X2122Y7000D01*
G01X2031Y7068D02*
G01X2077Y7022D01*
G01X2009Y7113D02*
G01X2031Y7068D01*
G01X1804Y7386D02*
G01X1804Y7363D01*
G01X1781Y7431D02*
G01X1804Y7386D01*
G01X1759Y7454D02*
G01X1781Y7431D01*
G01X1713Y7477D02*
G01X1759Y7454D01*
G01X1622Y7477D02*
G01X1713Y7477D01*
G01X1622Y7477D02*
G01X1577Y7454D01*
G01X1577Y7454D02*
G01X1554Y7431D01*
G01X1554Y7431D02*
G01X1531Y7386D01*
G01X1531Y7386D02*
G01X1531Y7340D01*
G01X1531Y7340D02*
G01X1554Y7295D01*
G01X1554Y7295D02*
G01X1600Y7227D01*
G01X1600Y7227D02*
G01X1827Y7000D01*
G01X1509Y7000D02*
G01X1827Y7000D01*
G04 Draw part C4*
G04 draw part outline for part C4*
G04 draw reference designator for part C4*
G01X3690Y3681D02*
G01X3736Y3659D01*
G01X3645Y3727D02*
G01X3690Y3681D01*
G01X3622Y3772D02*
G01X3645Y3727D01*
G01X3622Y3863D02*
G01X3622Y3772D01*
G01X3622Y3863D02*
G01X3645Y3909D01*
G01X3645Y3909D02*
G01X3690Y3954D01*
G01X3690Y3954D02*
G01X3736Y3977D01*
G01X3736Y3977D02*
G01X3804Y4000D01*
G01X3804Y4000D02*
G01X3918Y4000D01*
G01X3918Y4000D02*
G01X3986Y3977D01*
G01X3986Y3977D02*
G01X4031Y3954D01*
G01X4031Y3954D02*
G01X4077Y3909D01*
G01X4077Y3909D02*
G01X4100Y3863D01*
G01X4100Y3772D02*
G01X4100Y3863D01*
G01X4077Y3727D02*
G01X4100Y3772D01*
G01X4031Y3681D02*
G01X4077Y3727D01*
G01X3986Y3659D02*
G01X4031Y3681D01*
G01X3622Y3250D02*
G01X3940Y3477D01*
G01X3940Y3136D02*
G01X3940Y3477D01*
G01X3622Y3250D02*
G01X4100Y3250D01*
G04 Draw part C3*
G04 draw part outline for part C3*
G04 draw reference designator for part C3*
G01X4090Y3681D02*
G01X4136Y3659D01*
G01X4045Y3727D02*
G01X4090Y3681D01*
G01X4022Y3772D02*
G01X4045Y3727D01*
G01X4022Y3863D02*
G01X4022Y3772D01*
G01X4022Y3863D02*
G01X4045Y3909D01*
G01X4045Y3909D02*
G01X4090Y3954D01*
G01X4090Y3954D02*
G01X4136Y3977D01*
G01X4136Y3977D02*
G01X4204Y4000D01*
G01X4204Y4000D02*
G01X4318Y4000D01*
G01X4318Y4000D02*
G01X4386Y3977D01*
G01X4386Y3977D02*
G01X4431Y3954D01*
G01X4431Y3954D02*
G01X4477Y3909D01*
G01X4477Y3909D02*
G01X4500Y3863D01*
G01X4500Y3772D02*
G01X4500Y3863D01*
G01X4477Y3727D02*
G01X4500Y3772D01*
G01X4431Y3681D02*
G01X4477Y3727D01*
G01X4386Y3659D02*
G01X4431Y3681D01*
G01X4022Y3181D02*
G01X4022Y3431D01*
G01X4022Y3181D02*
G01X4204Y3318D01*
G01X4204Y3250D02*
G01X4204Y3318D01*
G01X4204Y3250D02*
G01X4227Y3204D01*
G01X4227Y3204D02*
G01X4250Y3181D01*
G01X4250Y3181D02*
G01X4318Y3159D01*
G01X4318Y3159D02*
G01X4363Y3159D01*
G01X4363Y3159D02*
G01X4431Y3181D01*
G01X4431Y3181D02*
G01X4477Y3227D01*
G01X4477Y3227D02*
G01X4500Y3295D01*
G01X4500Y3363D02*
G01X4500Y3295D01*
G01X4477Y3431D02*
G01X4500Y3363D01*
G01X4454Y3454D02*
G01X4477Y3431D01*
G01X4409Y3477D02*
G01X4454Y3454D01*
G04 Draw part C7*
G04 draw part outline for part C7*
G04 draw reference designator for part C7*
G01X1890Y1681D02*
G01X1936Y1659D01*
G01X1845Y1727D02*
G01X1890Y1681D01*
G01X1822Y1772D02*
G01X1845Y1727D01*
G01X1822Y1863D02*
G01X1822Y1772D01*
G01X1822Y1863D02*
G01X1845Y1909D01*
G01X1845Y1909D02*
G01X1890Y1954D01*
G01X1890Y1954D02*
G01X1936Y1977D01*
G01X1936Y1977D02*
G01X2004Y2000D01*
G01X2004Y2000D02*
G01X2118Y2000D01*
G01X2118Y2000D02*
G01X2186Y1977D01*
G01X2186Y1977D02*
G01X2231Y1954D01*
G01X2231Y1954D02*
G01X2277Y1909D01*
G01X2277Y1909D02*
G01X2300Y1863D01*
G01X2300Y1772D02*
G01X2300Y1863D01*
G01X2277Y1727D02*
G01X2300Y1772D01*
G01X2231Y1681D02*
G01X2277Y1727D01*
G01X2186Y1659D02*
G01X2231Y1681D01*
G01X1822Y1159D02*
G01X2300Y1386D01*
G01X1822Y1159D02*
G01X1822Y1477D01*
G04 Draw part C8*
G04 draw part outline for part C8*
G04 draw reference designator for part C8*
G01X2881Y4609D02*
G01X2859Y4563D01*
G01X2927Y4654D02*
G01X2881Y4609D01*
G01X2972Y4677D02*
G01X2927Y4654D01*
G01X3063Y4677D02*
G01X2972Y4677D01*
G01X3063Y4677D02*
G01X3109Y4654D01*
G01X3109Y4654D02*
G01X3154Y4609D01*
G01X3154Y4609D02*
G01X3177Y4563D01*
G01X3177Y4563D02*
G01X3200Y4495D01*
G01X3200Y4495D02*
G01X3200Y4381D01*
G01X3200Y4381D02*
G01X3177Y4313D01*
G01X3177Y4313D02*
G01X3154Y4268D01*
G01X3154Y4268D02*
G01X3109Y4222D01*
G01X3109Y4222D02*
G01X3063Y4200D01*
G01X2972Y4200D02*
G01X3063Y4200D01*
G01X2927Y4222D02*
G01X2972Y4200D01*
G01X2881Y4268D02*
G01X2927Y4222D01*
G01X2859Y4313D02*
G01X2881Y4268D01*
G01X2563Y4677D02*
G01X2631Y4654D01*
G01X2631Y4654D02*
G01X2654Y4609D01*
G01X2654Y4609D02*
G01X2654Y4563D01*
G01X2654Y4563D02*
G01X2631Y4518D01*
G01X2631Y4518D02*
G01X2586Y4495D01*
G01X2586Y4495D02*
G01X2495Y4472D01*
G01X2495Y4472D02*
G01X2427Y4450D01*
G01X2427Y4450D02*
G01X2381Y4404D01*
G01X2381Y4404D02*
G01X2359Y4359D01*
G01X2359Y4359D02*
G01X2359Y4290D01*
G01X2359Y4290D02*
G01X2381Y4245D01*
G01X2381Y4245D02*
G01X2404Y4222D01*
G01X2404Y4222D02*
G01X2472Y4200D01*
G01X2563Y4200D02*
G01X2472Y4200D01*
G01X2631Y4222D02*
G01X2563Y4200D01*
G01X2654Y4245D02*
G01X2631Y4222D01*
G01X2677Y4290D02*
G01X2654Y4245D01*
G01X2677Y4359D02*
G01X2677Y4290D01*
G01X2654Y4404D02*
G01X2677Y4359D01*
G01X2609Y4450D02*
G01X2654Y4404D01*
G01X2540Y4472D02*
G01X2609Y4450D01*
G01X2450Y4495D02*
G01X2540Y4472D01*
G01X2404Y4518D02*
G01X2450Y4495D01*
G01X2381Y4563D02*
G01X2404Y4518D01*
G01X2381Y4609D02*
G01X2381Y4563D01*
G01X2404Y4654D02*
G01X2381Y4609D01*
G01X2472Y4677D02*
G01X2404Y4654D01*
G01X2563Y4677D02*
G01X2472Y4677D01*
G04 Draw part C9*
G04 draw part outline for part C9*
G04 draw reference designator for part C9*
G01X2881Y4209D02*
G01X2859Y4163D01*
G01X2927Y4254D02*
G01X2881Y4209D01*
G01X2972Y4277D02*
G01X2927Y4254D01*
G01X3063Y4277D02*
G01X2972Y4277D01*
G01X3063Y4277D02*
G01X3109Y4254D01*
G01X3109Y4254D02*
G01X3154Y4209D01*
G01X3154Y4209D02*
G01X3177Y4163D01*
G01X3177Y4163D02*
G01X3200Y4095D01*
G01X3200Y4095D02*
G01X3200Y3981D01*
G01X3200Y3981D02*
G01X3177Y3913D01*
G01X3177Y3913D02*
G01X3154Y3868D01*
G01X3154Y3868D02*
G01X3109Y3822D01*
G01X3109Y3822D02*
G01X3063Y3800D01*
G01X2972Y3800D02*
G01X3063Y3800D01*
G01X2927Y3822D02*
G01X2972Y3800D01*
G01X2881Y3868D02*
G01X2927Y3822D01*
G01X2859Y3913D02*
G01X2881Y3868D01*
G01X2381Y4118D02*
G01X2404Y4050D01*
G01X2404Y4050D02*
G01X2450Y4004D01*
G01X2450Y4004D02*
G01X2518Y3981D01*
G01X2540Y3981D02*
G01X2518Y3981D01*
G01X2609Y4004D02*
G01X2540Y3981D01*
G01X2654Y4050D02*
G01X2609Y4004D01*
G01X2677Y4118D02*
G01X2654Y4050D01*
G01X2677Y4140D02*
G01X2677Y4118D01*
G01X2654Y4209D02*
G01X2677Y4140D01*
G01X2609Y4254D02*
G01X2654Y4209D01*
G01X2540Y4277D02*
G01X2609Y4254D01*
G01X2518Y4277D02*
G01X2540Y4277D01*
G01X2518Y4277D02*
G01X2450Y4254D01*
G01X2450Y4254D02*
G01X2404Y4209D01*
G01X2404Y4209D02*
G01X2381Y4118D01*
G01X2381Y4118D02*
G01X2381Y4004D01*
G01X2381Y4004D02*
G01X2404Y3890D01*
G01X2404Y3890D02*
G01X2450Y3822D01*
G01X2450Y3822D02*
G01X2518Y3800D01*
G01X2563Y3800D02*
G01X2518Y3800D01*
G01X2631Y3822D02*
G01X2563Y3800D01*
G01X2654Y3868D02*
G01X2631Y3822D01*
G04 Draw part A1*
G04 draw part outline for part A1*
G04 draw reference designator for part A1*
G01X7818Y9877D02*
G01X8000Y9400D01*
G01X7818Y9877D02*
G01X7636Y9400D01*
G01X7704Y9559D02*
G01X7931Y9559D01*
G01X7409Y9809D02*
G01X7454Y9786D01*
G01X7340Y9877D02*
G01X7409Y9809D01*
G01X7340Y9877D02*
G01X7340Y9400D01*
G04 Draw part v1*
G04 Draw part v2*
G04 Draw part v3*
G04 Draw part v4*
G04 Draw part v5*
G04 Draw part v6*
G04 Draw part v7*
G04 Draw part v8*
G04 Draw part v11*
G04 Draw part v12*
G04 Draw part v13*
G04 Draw part B1*
G04 draw part outline for part B1*
G04 draw reference designator for part B1*
G01X3522Y3700D02*
G01X4000Y3700D01*
G01X3522Y3495D02*
G01X3522Y3700D01*
G01X3522Y3495D02*
G01X3545Y3427D01*
G01X3545Y3427D02*
G01X3568Y3404D01*
G01X3568Y3404D02*
G01X3613Y3381D01*
G01X3613Y3381D02*
G01X3659Y3381D01*
G01X3659Y3381D02*
G01X3704Y3404D01*
G01X3704Y3404D02*
G01X3727Y3427D01*
G01X3727Y3427D02*
G01X3750Y3495D01*
G01X3750Y3495D02*
G01X3750Y3700D01*
G01X3750Y3495D02*
G01X3772Y3427D01*
G01X3772Y3427D02*
G01X3795Y3404D01*
G01X3795Y3404D02*
G01X3840Y3381D01*
G01X3840Y3381D02*
G01X3909Y3381D01*
G01X3909Y3381D02*
G01X3954Y3404D01*
G01X3954Y3404D02*
G01X3977Y3427D01*
G01X3977Y3427D02*
G01X4000Y3495D01*
G01X4000Y3700D02*
G01X4000Y3495D01*
G01X3590Y3154D02*
G01X3613Y3200D01*
G01X3522Y3086D02*
G01X3590Y3154D01*
G01X3522Y3086D02*
G01X4000Y3086D01*

G04 Draw traces*

G04 Draw Text*
M00*
M02*
