G04 FreePCB version 1.359*
G04 C:\Users\Dwight Springthorpe\Documents\GitHub\DAQpack_mk2\baseRadioModule_CAM\bottom_copper.grb*
G04 bottom copper layer *
G04 Scale: 100 percent, Rotated: No, Reflected: No *
%FSLAX24Y24*%
%MOIN*%
%LN bottom copper *%
G04 Rounded Rectangle Macro, params: W/2, H/2, R *
%AMRNDREC*
21,1,$1+$1,$2+$2-$3-$3,0,0,0*
21,1,$1+$1-$3-$3,$2+$2,0,0,0*
1,1,$3+$3,$1-$3,$2-$3*
1,1,$3+$3,$3-$1,$2-$3*
1,1,$3+$3,$1-$3,$3-$2*
1,1,$3+$3,$3-$1,$3-$2*%
G04 Rectangular Thermal Macro, params: W/2, H/2, T/2 *
%AMRECTHERM*
$4=$3/2*
21,1,$1-$3,$2-$3,0-$1/2-$4,0-$2/2-$4,0*
21,1,$1-$3,$2-$3,0-$1/2-$4,$2/2+$4,0*
21,1,$1-$3,$2-$3,$1/2+$4,0-$2/2-$4,0*
21,1,$1-$3,$2-$3,$1/2+$4,$2/2+$4,0*%
%ADD10C,0.005000*%
%ADD11C,0.080000*%
%ADD12R,0.047559X0.030000*%
%ADD13R,0.030000X0.047559*%
%ADD14R,0.122362X0.122362*%
%ADD15R,0.039685X0.043622*%
%ADD16R,0.055433X0.051496*%
%ADD17R,0.043622X0.039685*%
%ADD18R,0.080000X0.180000*%
%AMTHERM19*7,0,0,0.049000,0.029000,0.020000,45.0*%
%ADD19THERM19*%
%ADD20C,0.001000*%
%ADD21R,0.034000X0.034000*%
%ADD22R,0.031000X0.031000*%
%ADD23C,0.028000*%
%ADD24C,0.051000*%
%ADD25C,0.030000*%
%ADD26C,0.040000*%
%ADD27C,0.060000*%
%ADD28R,0.027559X0.009843*%
%ADD29R,0.009843X0.027559*%
%ADD30R,0.102362X0.102362*%
%ADD31R,0.019685X0.023622*%
%ADD32R,0.035433X0.031496*%
%ADD33R,0.023622X0.019685*%
%ADD34R,0.060000X0.160000*%
%ADD35C,0.029000*%
%ADD36R,0.014000X0.014000*%
%ADD37R,0.011000X0.011000*%
%ADD38C,0.008000*%
%ADD39C,0.031000*%
%ADD40C,0.010000*%
%ADD41C,0.020000*%
G90*
G70D02*

G04 Step and Repeat for panelization *

G04 ----------------------- Draw board outline (positive)*
%LPD*%
G54D10*
G01X-100Y-100D02*
G01X-100Y7600D01*
G04 end of side 1*
G01X10100Y7600D01*
G04 end of side 2*
G01X10100Y-100D01*
G04 end of side 3*
G01X-100Y-100D01*

G04 ----------------------- Draw copper area (positive)*
G36*
G01X6530Y7200D02*
G01X7300Y7200D01*
G01X7300Y5750D01*
G01X7050Y5650D01*
G01X7050Y5360D01*
G01X6880Y5190D01*
G01X5070Y5190D01*
G01X5070Y5400D01*
G01X4910Y5400D01*
G01X4910Y5900D01*
G01X4250Y5900D01*
G01X4250Y5560D01*
G01X4070Y5560D01*
G01X3970Y5460D01*
G01X3620Y5460D01*
G01X3620Y4650D01*
G01X4090Y4650D01*
G01X4159Y4580D01*
G01X3370Y4630D01*
G01X3370Y3690D01*
G01X4120Y3690D01*
G01X4120Y3380D01*
G01X5100Y3380D01*
G01X5100Y3790D01*
G01X5100Y3810D01*
G01X5260Y3810D01*
G01X5260Y4160D01*
G01X7550Y4160D01*
G01X8670Y5280D01*
G01X8790Y5400D01*
G01X8950Y5400D01*
G01X8950Y5560D01*
G01X9070Y5680D01*
G01X8970Y5780D01*
G01X8690Y5780D01*
G01X8690Y7200D01*
G01X9810Y7200D01*
G01X9810Y2800D01*
G01X3030Y2800D01*
G01X3030Y2830D01*
G01X2860Y3000D01*
G01X2650Y3000D01*
G01X2650Y4600D01*
G01X1900Y4600D01*
G01X1430Y4130D01*
G01X1430Y4160D01*
G01X1910Y4640D01*
G01X2350Y4640D01*
G01X2350Y5440D01*
G01X2640Y5440D01*
G01X2640Y5890D01*
G01X870Y5890D01*
G01X570Y5590D01*
G01X570Y3410D01*
G01X1180Y2800D01*
G01X190Y2800D01*
G01X190Y7310D01*
G01X1790Y7310D01*
G01X1790Y7040D01*
G01X2370Y7040D01*
G01X2370Y6460D01*
G01X2510Y6320D01*
G01X3760Y6320D01*
G01X3760Y6510D01*
G01X3760Y6580D01*
G01X4240Y6580D01*
G01X4240Y6820D01*
G01X3760Y6820D01*
G01X3760Y6880D01*
G01X3760Y7270D01*
G01X3760Y7310D01*
G01X6530Y7310D01*
G01X6530Y7200D01*
G37*

G04 ----------------------- Draw copper area (positive)*
G36*
G01X4200Y4540D02*
G01X4200Y4331D01*
G01X4170Y4334D01*
G01X4170Y4570D01*
G01X4200Y4540D01*
G37*

G04 -------------------- Draw copper area clearances (negative)*
%LPC*%

G04 Draw clearances for pads*
G54D11*
G01X500Y500D03*
G01X1500Y500D03*
G01X2500Y500D03*
G01X3500Y500D03*
G01X4500Y500D03*
G01X5500Y500D03*
G01X6500Y500D03*
G01X7500Y500D03*
G01X8500Y500D03*
G01X9500Y500D03*
G01X500Y2500D03*
G01X1500Y2500D03*
G01X2500Y2500D03*
G01X3500Y2500D03*
G01X4500Y2500D03*
G01X5500Y2500D03*
G01X6500Y2500D03*
G01X7500Y2500D03*
G01X8500Y2500D03*
G01X9500Y2500D03*
G54D12*
G01X2225Y4612D03*
G01X2225Y4809D03*
G01X2225Y5006D03*
G01X2225Y5203D03*
G01X2225Y5400D03*
G54D13*
G01X2600Y5774D03*
G01X2796Y5774D03*
G01X2993Y5774D03*
G01X3190Y5774D03*
G01X3387Y5774D03*
G54D12*
G01X3761Y5400D03*
G01X3761Y5203D03*
G01X3761Y5006D03*
G01X3761Y4809D03*
G01X3761Y4612D03*
G54D13*
G01X3387Y4238D03*
G01X3190Y4238D03*
G01X2993Y4238D03*
G01X2796Y4238D03*
G01X2600Y4238D03*
G54D14*
G01X2993Y5006D03*
G54D15*
G01X4500Y4700D03*
G01X4795Y4700D03*
G01X3600Y3900D03*
G01X3895Y3900D03*
G54D16*
G01X3300Y6700D03*
G01X2748Y6700D03*
G01X2748Y7133D03*
G01X3300Y7133D03*
G54D15*
G01X1900Y7150D03*
G01X2195Y7150D03*
G01X4150Y6700D03*
G01X3854Y6700D03*
G54D17*
G01X4400Y5800D03*
G01X4400Y5504D03*
G01X4800Y5800D03*
G01X4800Y5504D03*
G01X2600Y3800D03*
G01X2600Y3504D03*
G54D15*
G01X5000Y3900D03*
G01X4704Y3900D03*
G01X5000Y3500D03*
G01X4704Y3500D03*
G54D18*
G01X9000Y6400D03*
G01X8000Y6400D03*
G01X7000Y6400D03*
G54D19*
G01X500Y7000D03*
G54D20*
G54D19*
G01X1000Y7000D03*
G54D20*
G54D19*
G01X6000Y6000D03*
G54D20*
G54D19*
G01X6000Y3700D03*
G54D20*
G54D19*
G01X6000Y7000D03*
G54D20*
G54D19*
G01X8000Y3700D03*
G54D20*
G54D19*
G01X500Y6500D03*
G54D20*
G54D19*
G01X5000Y7000D03*
G54D20*
G54D19*
G01X9000Y4700D03*
G54D20*
G54D19*
G01X9000Y3700D03*
G54D20*
G54D19*
G01X7000Y3700D03*
G54D20*
G54D21*
G01X4515Y5215D03*
G54D22*
G01X4500Y5000D03*
G01X4300Y5000D03*
G01X4300Y5200D03*

G04 Draw clearances for traces*
G54D23*
G01X3761Y4612D02*
G01X3790Y4610D01*
G01X3790Y4610D02*
G01X4080Y4610D01*
G01X4080Y4610D02*
G01X4160Y4530D01*
G01X4160Y4530D02*
G01X4160Y4300D01*
G01X4160Y4300D02*
G01X4160Y3800D01*
G54D24*
G01X4160Y3500D03*
G54D23*
G01X4160Y3800D02*
G01X4160Y3500D01*
G01X2993Y4238D02*
G01X2990Y4260D01*
G54D24*
G01X2990Y3500D03*
G54D23*
G01X2990Y4260D02*
G01X2990Y3500D01*
G01X2796Y5774D02*
G01X2790Y5770D01*
G01X2790Y5770D02*
G01X2790Y5970D01*
G01X2790Y5970D02*
G01X2700Y6060D01*
G01X2700Y6060D02*
G01X1700Y6060D01*
G54D24*
G01X1700Y6170D03*
G54D23*
G01X1700Y6060D02*
G01X1700Y6170D01*
G01X4704Y3900D02*
G01X4720Y3910D01*
G01X4720Y3910D02*
G01X4160Y3910D01*
G01X4160Y3910D02*
G01X4160Y4300D01*
G01X4704Y3500D02*
G01X4160Y3500D01*
G01X4160Y3500D02*
G01X4160Y3800D01*
G01X2225Y4612D02*
G01X2210Y4610D01*
G01X2210Y4610D02*
G01X1900Y4610D01*
G01X1900Y4610D02*
G01X1410Y4120D01*
G01X1410Y4120D02*
G01X1410Y3730D01*
G01X1410Y3730D02*
G01X2150Y2990D01*
G01X2150Y2990D02*
G01X2850Y2990D01*
G01X2850Y2990D02*
G01X3010Y2830D01*
G01X3010Y2830D02*
G01X3010Y1960D01*
G01X3010Y1960D02*
G01X3140Y1830D01*
G01X3140Y1830D02*
G01X3830Y1830D01*
G01X3830Y1830D02*
G01X4500Y2500D01*
G01X2600Y5774D02*
G01X2600Y5880D01*
G01X2600Y5880D02*
G01X870Y5880D01*
G01X870Y5880D02*
G01X580Y5590D01*
G01X580Y5590D02*
G01X580Y3420D01*
G01X580Y3420D02*
G01X1500Y2500D01*
G01X2225Y4809D02*
G01X2190Y4810D01*
G01X2190Y4810D02*
G01X1780Y4810D01*
G01X1780Y4810D02*
G01X1190Y4220D01*
G01X1190Y4220D02*
G01X1190Y3610D01*
G01X1190Y3610D02*
G01X2000Y2800D01*
G01X2000Y2800D02*
G01X2000Y1270D01*
G01X2000Y1270D02*
G01X2220Y1050D01*
G01X2220Y1050D02*
G01X3950Y1050D01*
G01X3950Y1050D02*
G01X4500Y500D01*
G54D25*
G01X4300Y5200D02*
G01X3850Y5200D01*
G54D23*
G01X3850Y5200D02*
G01X3761Y5203D01*
G01X4500Y4700D02*
G01X4500Y4710D01*
G54D25*
G01X4500Y4710D02*
G01X4500Y5000D01*
G54D23*
G01X3387Y4238D02*
G01X3390Y3920D01*
G01X3390Y3920D02*
G01X3490Y3830D01*
G01X3490Y3830D02*
G01X3550Y3830D01*
G01X3550Y3830D02*
G01X3600Y3900D01*
G01X2225Y5006D02*
G01X2240Y5010D01*
G01X2240Y5010D02*
G01X1680Y5010D01*
G01X1680Y5010D02*
G01X1540Y4870D01*
G54D24*
G01X1350Y4860D03*
G54D23*
G01X1540Y4870D02*
G01X1350Y4860D01*
G01X2748Y7133D02*
G01X2750Y7140D01*
G01X2750Y7140D02*
G01X2420Y7140D01*
G01X2420Y7140D02*
G01X2420Y6470D01*
G01X2420Y6470D02*
G01X2510Y6380D01*
G01X2510Y6380D02*
G01X3000Y6380D01*
G01X3000Y6380D02*
G01X3190Y6189D01*
G01X3190Y6189D02*
G01X3190Y5774D01*
G01X2195Y7150D02*
G01X2220Y7140D01*
G01X2220Y7140D02*
G01X2420Y7140D01*
G01X3300Y6700D02*
G01X3860Y6700D01*
G01X3860Y6700D02*
G01X3854Y6700D01*
G01X3387Y5774D02*
G01X3387Y6352D01*
G01X3387Y6352D02*
G01X3300Y6440D01*
G01X3300Y6440D02*
G01X3300Y6700D01*
G54D25*
G01X4800Y5504D02*
G01X4740Y5410D01*
G01X4740Y5410D02*
G01X4510Y5410D01*
G01X4510Y5410D02*
G01X4415Y5504D01*
G01X4415Y5504D02*
G01X4400Y5504D01*
G01X3761Y5400D02*
G01X4010Y5400D01*
G01X4010Y5400D02*
G01X4110Y5500D01*
G01X4110Y5500D02*
G01X4360Y5500D01*
G01X4360Y5500D02*
G01X4400Y5504D01*
G01X4515Y5215D02*
G01X4515Y5405D01*
G01X4515Y5405D02*
G01X4450Y5470D01*
G01X4450Y5470D02*
G01X4400Y5504D01*
G54D23*
G01X2225Y5203D02*
G01X2180Y5200D01*
G01X2180Y5200D02*
G01X1090Y5200D01*
G54D24*
G01X1010Y5190D03*
G54D23*
G01X1090Y5200D02*
G01X1010Y5190D01*
G01X2225Y5400D02*
G01X1680Y5400D01*
G01X1680Y5400D02*
G01X1550Y5530D01*
G54D24*
G01X1350Y5530D03*
G54D23*
G01X1550Y5530D02*
G01X1350Y5530D01*
G01X2796Y4238D02*
G01X2800Y4130D01*
G01X2800Y4130D02*
G01X2800Y3840D01*
G01X2800Y3840D02*
G01X2760Y3800D01*
G01X2760Y3800D02*
G01X2600Y3800D01*
G54D25*
G01X4300Y5000D02*
G01X3780Y5000D01*
G54D23*
G01X3780Y5000D02*
G01X3761Y5006D01*
G54D26*
G01X4795Y4700D02*
G01X7270Y4700D01*
G01X7270Y4700D02*
G01X8000Y5430D01*
G01X8000Y5430D02*
G01X8000Y6400D01*

G04 Draw clearances for text*

G04 -------------- Draw Parts, Pads, Traces, Vias and Text (positive)*
%LPD*%
G04 Draw part H2*
G54D27*
G01X500Y500D03*
G01X1500Y500D03*
G01X2500Y500D03*
G01X3500Y500D03*
G01X4500Y500D03*
G01X5500Y500D03*
G01X6500Y500D03*
G01X7500Y500D03*
G01X8500Y500D03*
G01X9500Y500D03*
G04 Draw part H1*
G01X500Y2500D03*
G01X1500Y2500D03*
G01X2500Y2500D03*
G01X3500Y2500D03*
G01X4500Y2500D03*
G01X5500Y2500D03*
G01X6500Y2500D03*
G01X7500Y2500D03*
G01X8500Y2500D03*
G01X9500Y2500D03*
G04 Draw part U1*
G54D28*
G01X2225Y4612D03*
G01X2225Y4809D03*
G01X2225Y5006D03*
G01X2225Y5203D03*
G01X2225Y5400D03*
G54D29*
G01X2600Y5774D03*
G01X2796Y5774D03*
G01X2993Y5774D03*
G01X3190Y5774D03*
G01X3387Y5774D03*
G54D28*
G01X3761Y5400D03*
G01X3761Y5203D03*
G01X3761Y5006D03*
G01X3761Y4809D03*
G01X3761Y4612D03*
G54D29*
G01X3387Y4238D03*
G01X3190Y4238D03*
G01X2993Y4238D03*
G01X2796Y4238D03*
G01X2600Y4238D03*
G54D30*
G01X2993Y5006D03*
G04 Draw part L1*
G54D31*
G01X4500Y4700D03*
G01X4795Y4700D03*
G04 Draw part R2*
G01X3600Y3900D03*
G01X3895Y3900D03*
G04 Draw part X1*
G54D32*
G01X3300Y6700D03*
G01X2748Y6700D03*
G01X2748Y7133D03*
G01X3300Y7133D03*
G04 Draw part C1*
G54D31*
G01X1900Y7150D03*
G01X2195Y7150D03*
G04 Draw part C2*
G01X4150Y6700D03*
G01X3854Y6700D03*
G04 Draw part C4*
G54D33*
G01X4400Y5800D03*
G01X4400Y5504D03*
G04 Draw part C3*
G01X4800Y5800D03*
G01X4800Y5504D03*
G04 Draw part C7*
G01X2600Y3800D03*
G01X2600Y3504D03*
G04 Draw part C8*
G54D31*
G01X5000Y3900D03*
G01X4704Y3900D03*
G04 Draw part C9*
G01X5000Y3500D03*
G01X4704Y3500D03*
G04 Draw part A1*
G54D34*
G01X9000Y6400D03*
G01X8000Y6400D03*
G01X7000Y6400D03*
G04 Draw part v1*
G54D35*
G01X500Y7000D03*
G04 Draw part v2*
G01X1000Y7000D03*
G04 Draw part v3*
G01X6000Y6000D03*
G04 Draw part v4*
G01X6000Y3700D03*
G04 Draw part v5*
G01X6000Y7000D03*
G04 Draw part v6*
G01X8000Y3700D03*
G04 Draw part v7*
G01X500Y6500D03*
G04 Draw part v8*
G01X5000Y7000D03*
G04 Draw part v11*
G01X9000Y4700D03*
G04 Draw part v12*
G01X9000Y3700D03*
G04 Draw part v13*
G01X7000Y3700D03*
G04 Draw part B1*
G54D36*
G01X4515Y5215D03*
G54D37*
G01X4500Y5000D03*
G01X4300Y5000D03*
G01X4300Y5200D03*

G04 Draw traces*
G54D38*
G01X3761Y4612D02*
G01X3790Y4610D01*
G01X3790Y4610D02*
G01X4080Y4610D01*
G01X4080Y4610D02*
G01X4160Y4530D01*
G01X4160Y4530D02*
G01X4160Y4300D01*
G01X4160Y4300D02*
G01X4160Y3800D01*
G01X4160Y3800D02*
G01X4160Y3500D01*
G54D39*
G01X4160Y3500D03*
G54D38*
G01X2993Y4238D02*
G01X2990Y4260D01*
G01X2990Y4260D02*
G01X2990Y3500D01*
G54D39*
G01X2990Y3500D03*
G54D38*
G01X2796Y5774D02*
G01X2790Y5770D01*
G01X2790Y5770D02*
G01X2790Y5970D01*
G01X2790Y5970D02*
G01X2700Y6060D01*
G01X2700Y6060D02*
G01X1700Y6060D01*
G01X1700Y6060D02*
G01X1700Y6170D01*
G54D39*
G01X1700Y6170D03*
G54D38*
G01X4704Y3900D02*
G01X4720Y3910D01*
G01X4720Y3910D02*
G01X4160Y3910D01*
G01X4160Y3910D02*
G01X4160Y4300D01*
G01X4704Y3500D02*
G01X4160Y3500D01*
G01X4160Y3500D02*
G01X4160Y3800D01*
G01X2225Y4612D02*
G01X2210Y4610D01*
G01X2210Y4610D02*
G01X1900Y4610D01*
G01X1900Y4610D02*
G01X1410Y4120D01*
G01X1410Y4120D02*
G01X1410Y3730D01*
G01X1410Y3730D02*
G01X2150Y2990D01*
G01X2150Y2990D02*
G01X2850Y2990D01*
G01X2850Y2990D02*
G01X3010Y2830D01*
G01X3010Y2830D02*
G01X3010Y1960D01*
G01X3010Y1960D02*
G01X3140Y1830D01*
G01X3140Y1830D02*
G01X3830Y1830D01*
G01X3830Y1830D02*
G01X4500Y2500D01*
G01X2600Y5774D02*
G01X2600Y5880D01*
G01X2600Y5880D02*
G01X870Y5880D01*
G01X870Y5880D02*
G01X580Y5590D01*
G01X580Y5590D02*
G01X580Y3420D01*
G01X580Y3420D02*
G01X1500Y2500D01*
G01X2225Y4809D02*
G01X2190Y4810D01*
G01X2190Y4810D02*
G01X1780Y4810D01*
G01X1780Y4810D02*
G01X1190Y4220D01*
G01X1190Y4220D02*
G01X1190Y3610D01*
G01X1190Y3610D02*
G01X2000Y2800D01*
G01X2000Y2800D02*
G01X2000Y1270D01*
G01X2000Y1270D02*
G01X2220Y1050D01*
G01X2220Y1050D02*
G01X3950Y1050D01*
G01X3950Y1050D02*
G01X4500Y500D01*
G54D40*
G01X4300Y5200D02*
G01X3850Y5200D01*
G54D38*
G01X3850Y5200D02*
G01X3761Y5203D01*
G01X4500Y4700D02*
G01X4500Y4710D01*
G54D40*
G01X4500Y4710D02*
G01X4500Y5000D01*
G54D38*
G01X3387Y4238D02*
G01X3390Y3920D01*
G01X3390Y3920D02*
G01X3490Y3830D01*
G01X3490Y3830D02*
G01X3550Y3830D01*
G01X3550Y3830D02*
G01X3600Y3900D01*
G01X2225Y5006D02*
G01X2240Y5010D01*
G01X2240Y5010D02*
G01X1680Y5010D01*
G01X1680Y5010D02*
G01X1540Y4870D01*
G01X1540Y4870D02*
G01X1350Y4860D01*
G54D39*
G01X1350Y4860D03*
G54D38*
G01X2748Y7133D02*
G01X2750Y7140D01*
G01X2750Y7140D02*
G01X2420Y7140D01*
G01X2420Y7140D02*
G01X2420Y6470D01*
G01X2420Y6470D02*
G01X2510Y6380D01*
G01X2510Y6380D02*
G01X3000Y6380D01*
G01X3000Y6380D02*
G01X3190Y6189D01*
G01X3190Y6189D02*
G01X3190Y5774D01*
G01X2195Y7150D02*
G01X2220Y7140D01*
G01X2220Y7140D02*
G01X2420Y7140D01*
G01X3300Y6700D02*
G01X3860Y6700D01*
G01X3860Y6700D02*
G01X3854Y6700D01*
G01X3387Y5774D02*
G01X3387Y6352D01*
G01X3387Y6352D02*
G01X3300Y6440D01*
G01X3300Y6440D02*
G01X3300Y6700D01*
G54D40*
G01X4800Y5504D02*
G01X4740Y5410D01*
G01X4740Y5410D02*
G01X4510Y5410D01*
G01X4510Y5410D02*
G01X4415Y5504D01*
G01X4415Y5504D02*
G01X4400Y5504D01*
G01X3761Y5400D02*
G01X4010Y5400D01*
G01X4010Y5400D02*
G01X4110Y5500D01*
G01X4110Y5500D02*
G01X4360Y5500D01*
G01X4360Y5500D02*
G01X4400Y5504D01*
G01X4515Y5215D02*
G01X4515Y5405D01*
G01X4515Y5405D02*
G01X4450Y5470D01*
G01X4450Y5470D02*
G01X4400Y5504D01*
G54D38*
G01X2225Y5203D02*
G01X2180Y5200D01*
G01X2180Y5200D02*
G01X1090Y5200D01*
G01X1090Y5200D02*
G01X1010Y5190D01*
G54D39*
G01X1010Y5190D03*
G54D38*
G01X2225Y5400D02*
G01X1680Y5400D01*
G01X1680Y5400D02*
G01X1550Y5530D01*
G01X1550Y5530D02*
G01X1350Y5530D01*
G54D39*
G01X1350Y5530D03*
G54D38*
G01X2796Y4238D02*
G01X2800Y4130D01*
G01X2800Y4130D02*
G01X2800Y3840D01*
G01X2800Y3840D02*
G01X2760Y3800D01*
G01X2760Y3800D02*
G01X2600Y3800D01*
G54D40*
G01X3190Y4238D02*
G01X3190Y3730D01*
G01X3190Y3730D02*
G01X3550Y3370D01*
G01X2600Y3504D02*
G01X2600Y3170D01*
G54D38*
G01X2993Y5774D02*
G01X2990Y6040D01*
G01X2990Y6040D02*
G01X2810Y6220D01*
G01X2810Y6220D02*
G01X2220Y6220D01*
G01X2220Y6220D02*
G01X2030Y6410D01*
G54D40*
G01X4150Y6700D02*
G01X4330Y6700D01*
G01X1900Y7150D02*
G01X1710Y7150D01*
G01X2993Y5006D02*
G01X3030Y5190D01*
G01X3030Y5190D02*
G01X2993Y5226D01*
G01X2993Y5226D02*
G01X2993Y5774D01*
G01X3761Y4809D02*
G01X3340Y4809D01*
G01X3340Y4809D02*
G01X3290Y4860D01*
G01X3290Y4860D02*
G01X2993Y5006D01*
G01X3190Y4238D02*
G01X3190Y4659D01*
G01X3190Y4659D02*
G01X3140Y4710D01*
G01X3140Y4710D02*
G01X2993Y5006D01*
G01X2600Y4238D02*
G01X2600Y4640D01*
G01X2600Y4640D02*
G01X2650Y4690D01*
G01X2650Y4690D02*
G01X2993Y5006D01*
G01X2600Y4238D02*
G01X2381Y4238D01*
G01X2381Y4238D02*
G01X2220Y4070D01*
G01X2220Y4070D02*
G01X2220Y3310D01*
G01X2220Y3310D02*
G01X2360Y3170D01*
G01X2360Y3170D02*
G01X3060Y3170D01*
G01X9000Y6400D02*
G01X9000Y5410D01*
G01X7000Y6400D02*
G01X7000Y5410D01*
G01X7000Y6400D02*
G01X6490Y6400D01*
G01X9000Y6400D02*
G01X9450Y6400D01*
G01X5000Y3900D02*
G01X5270Y3900D01*
G01X5000Y3500D02*
G01X5280Y3500D01*
G01X4400Y5800D02*
G01X4400Y6020D01*
G01X4800Y5800D02*
G01X4800Y6020D01*
G01X500Y500D02*
G01X500Y2540D01*
G01X500Y2540D02*
G01X500Y2500D01*
G01X500Y2500D02*
G01X500Y3000D01*
G01X3895Y3900D02*
G01X3895Y3815D01*
G01X3895Y3815D02*
G01X3850Y3770D01*
G01X3850Y3770D02*
G01X3850Y3440D01*
G01X3850Y3440D02*
G01X3795Y3445D01*
G01X3795Y3445D02*
G01X3790Y3440D01*
G01X4300Y5000D02*
G01X3780Y5000D01*
G54D38*
G01X3780Y5000D02*
G01X3761Y5006D01*
G54D41*
G01X4795Y4700D02*
G01X7270Y4700D01*
G01X7270Y4700D02*
G01X8000Y5430D01*
G01X8000Y5430D02*
G01X8000Y6400D01*

G04 Draw Text*
M00*
M02*
