;Holesize 1 =   40.0 PLATED MILS
;Holesize 2 =   15.0 PLATED MILS
M48
INCH,00.0000
T01C0.040
T02C0.015
%
G05
G90
T01
X000500Y000500
X001500Y000500
X002500Y000500
X003500Y000500
X004500Y000500
X005500Y000500
X006500Y000500
X007500Y000500
X008500Y000500
X009500Y000500
X000500Y002500
X001500Y002500
X002500Y002500
X003500Y002500
X004500Y002500
X005500Y002500
X006500Y002500
X007500Y002500
X008500Y002500
X009500Y002500
T02
X000500Y007000
X001000Y007000
X006000Y006000
X006000Y003700
X006000Y007000
X008000Y003700
X000500Y006500
X005000Y007000
X009000Y004700
X009000Y003700
X007000Y003700
X004160Y003500
X002990Y003500
X001700Y006170
X001350Y004860
X001010Y005190
X001350Y005530
M30
