G04 FreePCB version 1.359*
G04 C:\Users\Dwight Springthorpe\Documents\GitHub\DAQpack_mk2\baseRadioModule_CAM\top_copper.grb*
G04 top copper layer *
G04 Scale: 100 percent, Rotated: No, Reflected: No *
%FSLAX24Y24*%
%MOIN*%
%LN top copper *%
G04 Rounded Rectangle Macro, params: W/2, H/2, R *
%AMRNDREC*
21,1,$1+$1,$2+$2-$3-$3,0,0,0*
21,1,$1+$1-$3-$3,$2+$2,0,0,0*
1,1,$3+$3,$1-$3,$2-$3*
1,1,$3+$3,$3-$1,$2-$3*
1,1,$3+$3,$1-$3,$3-$2*
1,1,$3+$3,$3-$1,$3-$2*%
G04 Rectangular Thermal Macro, params: W/2, H/2, T/2 *
%AMRECTHERM*
$4=$3/2*
21,1,$1-$3,$2-$3,0-$1/2-$4,0-$2/2-$4,0*
21,1,$1-$3,$2-$3,0-$1/2-$4,$2/2+$4,0*
21,1,$1-$3,$2-$3,$1/2+$4,0-$2/2-$4,0*
21,1,$1-$3,$2-$3,$1/2+$4,$2/2+$4,0*%
%ADD10C,0.005000*%
%ADD11C,0.080000*%
%ADD12R,0.080000X0.180000*%
%AMTHERM13*7,0,0,0.049000,0.029000,0.020000,45.0*%
%ADD13THERM13*%
%ADD14C,0.001000*%
%ADD15C,0.028000*%
%ADD16C,0.051000*%
%ADD17C,0.060000*%
%ADD18R,0.060000X0.160000*%
%ADD19C,0.029000*%
%ADD20C,0.008000*%
%ADD21C,0.031000*%
%ADD22C,0.010000*%
G90*
G70D02*

G04 Step and Repeat for panelization *

G04 ----------------------- Draw board outline (positive)*
%LPD*%
G54D10*
G01X-100Y-100D02*
G01X-100Y7600D01*
G04 end of side 1*
G01X10100Y7600D01*
G04 end of side 2*
G01X10100Y-100D01*
G04 end of side 3*
G01X-100Y-100D01*

G04 ----------------------- Draw copper area (positive)*
G36*
G01X6530Y7200D02*
G01X6700Y7200D01*
G01X6700Y7120D01*
G01X7300Y7120D01*
G01X7300Y7200D01*
G01X8690Y7200D01*
G01X8690Y7110D01*
G01X9290Y7110D01*
G01X9290Y7200D01*
G01X9810Y7200D01*
G01X9810Y2800D01*
G01X9220Y2800D01*
G01X8930Y3090D01*
G01X4570Y3090D01*
G01X4170Y3490D01*
G01X2240Y3490D01*
G01X1710Y4020D01*
G01X1690Y6280D01*
G01X1690Y5680D01*
G01X1300Y5680D01*
G01X1160Y5540D01*
G01X870Y5540D01*
G01X660Y5330D01*
G01X660Y3640D01*
G01X990Y3310D01*
G01X990Y2800D01*
G01X190Y2800D01*
G01X190Y7310D01*
G01X6530Y7310D01*
G01X6530Y7200D01*
G37*

G04 -------------------- Draw copper area cutout (negative)*
%LPC*%
G36*
G01X4920Y5900D02*
G01X4260Y5900D01*
G01X4260Y5550D01*
G01X4090Y5550D01*
G01X4000Y5460D01*
G01X3620Y5460D01*
G01X3620Y4650D01*
G01X4100Y4650D01*
G01X4200Y4550D01*
G01X4200Y4160D01*
G01X5170Y4160D01*
G01X5170Y5190D01*
G01X4920Y5190D01*
G01X4920Y5410D01*
G01X4920Y5900D01*
G37*

G04 -------------------- Draw copper area clearances (negative)*
%LPC*%

G04 Draw clearances for pads*
G54D11*
G01X500Y500D03*
G01X1500Y500D03*
G01X2500Y500D03*
G01X3500Y500D03*
G01X4500Y500D03*
G01X5500Y500D03*
G01X6500Y500D03*
G01X7500Y500D03*
G01X8500Y500D03*
G01X9500Y500D03*
G01X500Y2500D03*
G01X1500Y2500D03*
G01X2500Y2500D03*
G01X3500Y2500D03*
G01X4500Y2500D03*
G01X5500Y2500D03*
G01X6500Y2500D03*
G01X7500Y2500D03*
G01X8500Y2500D03*
G01X9500Y2500D03*
G54D12*
G01X9000Y6400D03*
G01X7000Y6400D03*
G54D13*
G01X500Y7000D03*
G54D14*
G54D13*
G01X1000Y7000D03*
G54D14*
G54D13*
G01X6000Y6000D03*
G54D14*
G54D13*
G01X6000Y3700D03*
G54D14*
G54D13*
G01X6000Y7000D03*
G54D14*
G54D13*
G01X8000Y3700D03*
G54D14*
G54D13*
G01X500Y6500D03*
G54D14*
G54D13*
G01X5000Y7000D03*
G54D14*
G54D13*
G01X9000Y4700D03*
G54D14*
G54D13*
G01X9000Y3700D03*
G54D14*
G54D13*
G01X7000Y3700D03*
G54D14*

G04 Draw clearances for traces*
G54D15*
G01X9500Y2500D02*
G01X9500Y500D01*
G54D16*
G01X4160Y3500D03*
G54D15*
G01X4160Y3500D02*
G01X4580Y3080D01*
G01X4580Y3080D02*
G01X8920Y3080D01*
G01X8920Y3080D02*
G01X9500Y2500D01*
G54D16*
G01X2990Y3500D03*
G54D15*
G01X2990Y3500D02*
G01X4160Y3500D01*
G54D16*
G01X1700Y6170D03*
G54D15*
G01X1700Y6170D02*
G01X1700Y4040D01*
G01X1700Y4040D02*
G01X2240Y3500D01*
G01X2240Y3500D02*
G01X2990Y3500D01*
G54D16*
G01X1350Y4860D03*
G54D15*
G01X1350Y4860D02*
G01X1350Y3960D01*
G01X1350Y3960D02*
G01X2230Y3090D01*
G01X2230Y3090D02*
G01X2880Y3090D01*
G01X2880Y3090D02*
G01X2990Y2980D01*
G01X2990Y2980D02*
G01X2990Y2110D01*
G01X2990Y2110D02*
G01X3370Y1730D01*
G01X3370Y1730D02*
G01X6730Y1730D01*
G01X6730Y1730D02*
G01X7500Y2500D01*
G54D16*
G01X1010Y5190D03*
G54D15*
G01X1010Y5190D02*
G01X1010Y3770D01*
G01X1010Y3770D02*
G01X2010Y2770D01*
G01X2010Y2770D02*
G01X2010Y1790D01*
G01X2010Y1790D02*
G01X2340Y1460D01*
G01X2340Y1460D02*
G01X7460Y1460D01*
G01X7460Y1460D02*
G01X8500Y2500D01*
G54D16*
G01X1350Y5530D03*
G54D15*
G01X1350Y5530D02*
G01X880Y5530D01*
G01X880Y5530D02*
G01X690Y5340D01*
G01X690Y5340D02*
G01X690Y3590D01*
G01X690Y3590D02*
G01X990Y3290D01*
G01X990Y3290D02*
G01X990Y1440D01*
G01X990Y1440D02*
G01X1260Y1170D01*
G01X1260Y1170D02*
G01X7830Y1170D01*
G01X7830Y1170D02*
G01X8500Y500D01*

G04 Draw clearances for text*

G04 -------------- Draw Parts, Pads, Traces, Vias and Text (positive)*
%LPD*%
G04 Draw part H2*
G54D17*
G01X500Y500D03*
G01X1500Y500D03*
G01X2500Y500D03*
G01X3500Y500D03*
G01X4500Y500D03*
G01X5500Y500D03*
G01X6500Y500D03*
G01X7500Y500D03*
G01X8500Y500D03*
G01X9500Y500D03*
G04 Draw part H1*
G01X500Y2500D03*
G01X1500Y2500D03*
G01X2500Y2500D03*
G01X3500Y2500D03*
G01X4500Y2500D03*
G01X5500Y2500D03*
G01X6500Y2500D03*
G01X7500Y2500D03*
G01X8500Y2500D03*
G01X9500Y2500D03*
G04 Draw part U1*
G04 Draw part L1*
G04 Draw part R2*
G04 Draw part X1*
G04 Draw part C1*
G04 Draw part C2*
G04 Draw part C4*
G04 Draw part C3*
G04 Draw part C7*
G04 Draw part C8*
G04 Draw part C9*
G04 Draw part A1*
G54D18*
G01X9000Y6400D03*
G01X7000Y6400D03*
G04 Draw part v1*
G54D19*
G01X500Y7000D03*
G04 Draw part v2*
G01X1000Y7000D03*
G04 Draw part v3*
G01X6000Y6000D03*
G04 Draw part v4*
G01X6000Y3700D03*
G04 Draw part v5*
G01X6000Y7000D03*
G04 Draw part v6*
G01X8000Y3700D03*
G04 Draw part v7*
G01X500Y6500D03*
G04 Draw part v8*
G01X5000Y7000D03*
G04 Draw part v11*
G01X9000Y4700D03*
G04 Draw part v12*
G01X9000Y3700D03*
G04 Draw part v13*
G01X7000Y3700D03*
G04 Draw part B1*

G04 Draw traces*
G54D20*
G01X9500Y2500D02*
G01X9500Y500D01*
G54D21*
G01X4160Y3500D03*
G54D20*
G01X4160Y3500D02*
G01X4580Y3080D01*
G01X4580Y3080D02*
G01X8920Y3080D01*
G01X8920Y3080D02*
G01X9500Y2500D01*
G54D21*
G01X2990Y3500D03*
G54D20*
G01X2990Y3500D02*
G01X4160Y3500D01*
G54D21*
G01X1700Y6170D03*
G54D20*
G01X1700Y6170D02*
G01X1700Y4040D01*
G01X1700Y4040D02*
G01X2240Y3500D01*
G01X2240Y3500D02*
G01X2990Y3500D01*
G54D21*
G01X1350Y4860D03*
G54D20*
G01X1350Y4860D02*
G01X1350Y3960D01*
G01X1350Y3960D02*
G01X2230Y3090D01*
G01X2230Y3090D02*
G01X2880Y3090D01*
G01X2880Y3090D02*
G01X2990Y2980D01*
G01X2990Y2980D02*
G01X2990Y2110D01*
G01X2990Y2110D02*
G01X3370Y1730D01*
G01X3370Y1730D02*
G01X6730Y1730D01*
G01X6730Y1730D02*
G01X7500Y2500D01*
G54D21*
G01X1010Y5190D03*
G54D20*
G01X1010Y5190D02*
G01X1010Y3770D01*
G01X1010Y3770D02*
G01X2010Y2770D01*
G01X2010Y2770D02*
G01X2010Y1790D01*
G01X2010Y1790D02*
G01X2340Y1460D01*
G01X2340Y1460D02*
G01X7460Y1460D01*
G01X7460Y1460D02*
G01X8500Y2500D01*
G54D21*
G01X1350Y5530D03*
G54D20*
G01X1350Y5530D02*
G01X880Y5530D01*
G01X880Y5530D02*
G01X690Y5340D01*
G01X690Y5340D02*
G01X690Y3590D01*
G01X690Y3590D02*
G01X990Y3290D01*
G01X990Y3290D02*
G01X990Y1440D01*
G01X990Y1440D02*
G01X1260Y1170D01*
G01X1260Y1170D02*
G01X7830Y1170D01*
G01X7830Y1170D02*
G01X8500Y500D01*
G54D22*
G01X7000Y6400D02*
G01X7000Y5410D01*
G01X9000Y6400D02*
G01X9000Y5410D01*
G01X7000Y6400D02*
G01X6490Y6400D01*
G01X9000Y6400D02*
G01X9450Y6400D01*
G01X500Y500D02*
G01X500Y2550D01*
G01X500Y2550D02*
G01X500Y3280D01*

G04 Draw Text*
M00*
M02*
