G04 FreePCB version 1.359*
G04 C:\Users\Jack Ruby\Documents\GitHub\DAQpack_mk2\environmentalModule_CAM\top_copper.grb*
G04 top copper layer *
G04 Scale: 100 percent, Rotated: No, Reflected: No *
%FSLAX24Y24*%
%MOIN*%
%LN top copper *%
G04 Rounded Rectangle Macro, params: W/2, H/2, R *
%AMRNDREC*
21,1,$1+$1,$2+$2-$3-$3,0,0,0*
21,1,$1+$1-$3-$3,$2+$2,0,0,0*
1,1,$3+$3,$1-$3,$2-$3*
1,1,$3+$3,$3-$1,$2-$3*
1,1,$3+$3,$1-$3,$3-$2*
1,1,$3+$3,$3-$1,$3-$2*%
G04 Rectangular Thermal Macro, params: W/2, H/2, T/2 *
%AMRECTHERM*
$4=$3/2*
21,1,$1-$3,$2-$3,0-$1/2-$4,0-$2/2-$4,0*
21,1,$1-$3,$2-$3,0-$1/2-$4,$2/2+$4,0*
21,1,$1-$3,$2-$3,$1/2+$4,0-$2/2-$4,0*
21,1,$1-$3,$2-$3,$1/2+$4,$2/2+$4,0*%
%ADD10C,0.005000*%
%ADD11R,0.013780X0.033465*%
%ADD12R,0.033465X0.013780*%
%ADD13R,0.065748X0.031496*%
%ADD14R,0.031496X0.098425*%
%ADD15R,0.031496X0.065748*%
%ADD16R,0.011811X0.011811*%
%ADD17R,0.031496X0.031496*%
%ADD18R,0.014173X0.018898*%
%ADD19R,0.055118X0.027953*%
%ADD20C,0.004000*%
%ADD21C,0.016000*%
%ADD22C,0.006000*%
G90*
G70D02*

G04 Step and Repeat for panelization *

G04 ----------------------- Draw board outline (positive)*
%LPD*%
G54D10*
G01X0Y0D02*
G01X0Y5150D01*
G04 end of side 1*
G01X3430Y5150D01*
G04 end of side 2*
G01X3430Y0D01*
G04 end of side 3*
G01X0Y0D01*

G04 -------------- Draw Parts, Pads, Traces, Vias and Text (positive)*
%LPD*%
G04 Draw part H2*
G04 Draw part U1*
G54D11*
G01X2550Y1885D03*
G01X2353Y1885D03*
G01X2156Y1885D03*
G01X1959Y1885D03*
G01X1762Y1885D03*
G01X1565Y1885D03*
G54D12*
G01X1280Y1600D03*
G01X1280Y1403D03*
G01X1280Y1206D03*
G01X1280Y1009D03*
G01X1280Y812D03*
G01X1280Y615D03*
G54D11*
G01X1565Y330D03*
G01X1762Y330D03*
G01X1959Y330D03*
G01X2156Y330D03*
G01X2353Y330D03*
G01X2550Y330D03*
G54D12*
G01X2835Y615D03*
G01X2835Y812D03*
G01X2835Y1009D03*
G01X2835Y1206D03*
G01X2835Y1403D03*
G01X2835Y1600D03*
G04 Draw part U2*
G54D13*
G01X1200Y4400D03*
G01X1200Y3900D03*
G01X1200Y3400D03*
G01X2825Y3400D03*
G01X2825Y3900D03*
G01X2825Y4400D03*
G54D14*
G01X2012Y4549D03*
G54D15*
G01X2012Y3087D03*
G04 Draw part R1*
G04 Draw part R2*
G04 Draw part C4*
G04 Draw part C3*
G04 Draw part C1*
G04 Draw part C2*
G04 Draw part C5*
G04 Draw part C6*
G04 Draw part J1*
G54D16*
G01X800Y700D03*
G01X593Y700D03*
G04 Draw part J2*
G01X800Y500D03*
G01X593Y500D03*
G04 Draw part J4*
G01X600Y3700D03*
G01X600Y3906D03*
G04 Draw part J5*
G01X600Y4780D03*
G01X600Y4986D03*
G04 Draw part J6*
G01X800Y1200D03*
G01X800Y1406D03*
G01X800Y993D03*
G04 Draw part J3*
G01X3270Y900D03*
G01X3270Y1106D03*
G04 Draw part T1*
G54D17*
G01X260Y4260D03*
G01X260Y4889D03*
G04 Draw part R3*
G04 Draw part U3*
G54D18*
G01X800Y2800D03*
G01X544Y2800D03*
G01X288Y2800D03*
G01X288Y2071D03*
G01X544Y2071D03*
G01X800Y2071D03*
G54D19*
G01X544Y2435D03*
G04 Draw part J7*
G54D16*
G01X300Y3400D03*
G01X300Y3606D03*
G01X300Y3193D03*
G04 Draw part J8*
G01X280Y1700D03*
G01X280Y1493D03*
G04 Draw part R4*
G04 Draw part C7*
G04 Draw part P9*

G04 Draw traces*
G54D20*
G01X260Y4260D02*
G01X450Y4070D01*
G01X450Y4070D02*
G01X450Y3390D01*
G01X450Y3390D02*
G01X800Y3040D01*
G01X800Y3040D02*
G01X1450Y3040D01*
G01X1450Y3040D02*
G01X1450Y2980D01*
G54D21*
G01X1450Y2980D03*
G54D22*
G01X800Y1406D02*
G01X800Y1400D01*
G01X800Y1400D02*
G01X803Y1403D01*
G01X803Y1403D02*
G01X1223Y1403D01*
G01X1223Y1403D02*
G01X1230Y1410D01*
G01X1230Y1410D02*
G01X1280Y1403D01*
G01X2156Y1885D02*
G01X2160Y1840D01*
G01X2160Y1840D02*
G01X2160Y1540D01*
G01X2160Y1540D02*
G01X1860Y1240D01*
G01X1860Y1240D02*
G01X1700Y1400D01*
G01X1700Y1400D02*
G01X1400Y1400D01*
G01X1400Y1400D02*
G01X1280Y1403D01*
G01X1565Y330D02*
G01X1565Y575D01*
G01X1565Y575D02*
G01X1860Y870D01*
G01X1860Y870D02*
G01X1860Y1240D01*
G01X1200Y3400D02*
G01X710Y3400D01*
G54D21*
G01X710Y3400D03*
G01X2010Y2630D03*
G54D22*
G01X2010Y2630D02*
G01X2012Y2632D01*
G01X2012Y2632D02*
G01X2012Y3087D01*
G01X2012Y3087D02*
G01X2020Y2930D01*
G01X2020Y2930D02*
G01X2010Y3150D01*
G01X2010Y3150D02*
G01X2010Y3400D01*
G01X2010Y3400D02*
G01X1200Y3400D01*
G01X800Y2800D02*
G01X1070Y2800D01*
G54D21*
G01X1070Y2800D03*
G54D22*
G01X2156Y1885D02*
G01X2160Y1900D01*
G01X2160Y1900D02*
G01X2160Y2190D01*
G54D21*
G01X2160Y2190D03*
G54D22*
G01X300Y3606D02*
G01X300Y3770D01*
G01X300Y3770D02*
G01X180Y3890D01*
G54D21*
G01X180Y3890D03*
G54D22*
G01X260Y4889D02*
G01X260Y4890D01*
G01X260Y4890D02*
G01X180Y4970D01*
G54D21*
G01X180Y4970D03*
G54D20*
G01X600Y3906D02*
G01X600Y4110D01*
G54D21*
G01X600Y4110D03*
G54D20*
G01X800Y1200D02*
G01X820Y1200D01*
G01X820Y1200D02*
G01X826Y1206D01*
G01X826Y1206D02*
G01X1276Y1206D01*
G01X1276Y1206D02*
G01X1280Y1210D01*
G01X1280Y1210D02*
G01X1280Y1206D01*
G01X600Y4780D02*
G01X600Y4590D01*
G54D21*
G01X600Y4590D03*
G54D20*
G01X3270Y1106D02*
G01X3200Y1190D01*
G01X3200Y1190D02*
G01X3183Y1206D01*
G01X3183Y1206D02*
G01X2835Y1206D01*
G54D21*
G01X2550Y2190D03*
G54D20*
G01X2550Y2190D02*
G01X2550Y1850D01*
G01X2550Y1850D02*
G01X2550Y1885D01*
G01X600Y3700D02*
G01X740Y3700D01*
G01X740Y3700D02*
G01X940Y3900D01*
G01X940Y3900D02*
G01X1200Y3900D01*
G01X600Y4986D02*
G01X610Y4990D01*
G01X610Y4990D02*
G01X2010Y4990D01*
G01X2010Y4990D02*
G01X2012Y4987D01*
G01X2012Y4987D02*
G01X2012Y4549D01*
G01X544Y2071D02*
G01X550Y2090D01*
G01X550Y2090D02*
G01X550Y1960D01*
G01X550Y1960D02*
G01X640Y1870D01*
G01X640Y1870D02*
G01X980Y1870D01*
G01X980Y1870D02*
G01X1470Y2360D01*
G01X1470Y2360D02*
G01X2330Y2360D01*
G01X2330Y2360D02*
G01X2450Y2490D01*
G01X2450Y2490D02*
G01X2950Y2490D01*
G01X2950Y2490D02*
G01X2950Y2840D01*
G54D21*
G01X2950Y2840D03*
G54D20*
G01X2840Y1400D02*
G01X2835Y1403D01*
G01X2825Y3900D02*
G01X2930Y3890D01*
G01X2930Y3890D02*
G01X3230Y3890D01*
G01X3230Y3890D02*
G01X3270Y3850D01*
G01X3270Y3850D02*
G01X3270Y2900D01*
G01X3270Y2900D02*
G01X3210Y2840D01*
G01X3210Y2840D02*
G01X2950Y2840D01*
G01X2835Y1403D02*
G01X2890Y1390D01*
G01X2890Y1390D02*
G01X2940Y1400D01*
G01X2940Y1400D02*
G01X3060Y1400D01*
G01X3060Y1400D02*
G01X3120Y1460D01*
G01X3120Y1460D02*
G01X3120Y2320D01*
G01X3120Y2320D02*
G01X2950Y2490D01*
G01X1280Y1009D02*
G01X1390Y1010D01*
G01X1390Y1010D02*
G01X1560Y1010D01*
G01X1560Y1010D02*
G01X1660Y1110D01*
G54D21*
G01X1660Y1110D03*
G54D20*
G01X2835Y812D02*
G01X2647Y812D01*
G01X2647Y812D02*
G01X2350Y1110D01*
G54D21*
G01X2350Y1110D03*
G54D20*
G01X1280Y812D02*
G01X1310Y800D01*
G01X1310Y800D02*
G01X1297Y812D01*
G01X1297Y812D02*
G01X1120Y810D01*
G01X1120Y810D02*
G01X930Y810D01*
G01X930Y810D02*
G01X820Y700D01*
G01X820Y700D02*
G01X800Y700D01*
G54D22*
G01X1959Y330D02*
G01X1959Y619D01*
G01X1959Y619D02*
G01X2060Y720D01*
G01X2060Y720D02*
G01X2060Y1110D01*
G01X2550Y330D02*
G01X2550Y620D01*
G01X2550Y620D02*
G01X2353Y816D01*
G01X2353Y330D02*
G01X2353Y816D01*
G01X2353Y816D02*
G01X2060Y1110D01*
G54D21*
G01X2060Y1110D03*
G54D22*
G01X3270Y900D02*
G01X3270Y550D01*
G01X3270Y550D02*
G01X3050Y330D01*
G01X3050Y330D02*
G01X2530Y330D01*
G01X2530Y330D02*
G01X2550Y330D01*
G01X593Y700D02*
G01X590Y730D01*
G01X590Y730D02*
G01X590Y960D01*
G01X590Y960D02*
G01X550Y990D01*
G54D21*
G01X550Y990D03*
G54D22*
G01X800Y993D02*
G01X810Y990D01*
G01X810Y990D02*
G01X550Y990D01*
G01X544Y2435D02*
G01X550Y2450D01*
G01X550Y2450D02*
G01X544Y2455D01*
G01X544Y2455D02*
G01X544Y2800D01*
G01X300Y3193D02*
G01X426Y3193D01*
G01X426Y3193D02*
G01X540Y3080D01*
G01X540Y3080D02*
G01X540Y2800D01*
G01X540Y2800D02*
G01X544Y2800D01*
G01X1200Y4400D02*
G01X910Y4350D01*
G01X910Y4350D02*
G01X600Y4350D01*
G54D21*
G01X600Y4350D03*
G54D22*
G01X544Y2435D02*
G01X985Y2435D01*
G01X985Y2435D02*
G01X1070Y2520D01*
G54D21*
G01X1070Y2520D03*
G54D20*
G01X1280Y615D02*
G01X1330Y630D01*
G01X1330Y630D02*
G01X1315Y615D01*
G01X1315Y615D02*
G01X1120Y620D01*
G01X1120Y620D02*
G01X1050Y620D01*
G01X1050Y620D02*
G01X930Y500D01*
G01X930Y500D02*
G01X780Y500D01*
G01X780Y500D02*
G01X800Y500D01*
G01X280Y1493D02*
G01X280Y550D01*
G01X280Y550D02*
G01X330Y500D01*
G01X330Y500D02*
G01X593Y500D01*
G01X593Y500D02*
G01X593Y183D01*
G01X593Y183D02*
G01X590Y180D01*
G54D21*
G01X590Y180D03*
G54D20*
G01X300Y3400D02*
G01X310Y3400D01*
G01X310Y3400D02*
G01X230Y3400D01*
G01X230Y3400D02*
G01X120Y3290D01*
G01X120Y3290D02*
G01X120Y2970D01*
G01X120Y2970D02*
G01X288Y2801D01*
G01X288Y2801D02*
G01X288Y2800D01*
G01X800Y2071D02*
G01X770Y2070D01*
G01X770Y2070D02*
G01X1030Y2070D01*
G01X1030Y2070D02*
G01X1420Y2460D01*
G01X1420Y2460D02*
G01X2230Y2460D01*
G01X2230Y2460D02*
G01X2340Y2570D01*
G01X2340Y2570D02*
G01X2340Y2660D01*
G01X2340Y2660D02*
G01X2770Y2660D01*
G54D21*
G01X2770Y2660D03*
G01X2770Y2190D03*
G54D20*
G01X2770Y2190D02*
G01X2770Y1610D01*
G01X2770Y1610D02*
G01X2940Y1590D01*
G01X2940Y1590D02*
G01X2930Y1630D01*
G01X2930Y1630D02*
G01X2850Y1610D01*
G01X2850Y1610D02*
G01X2835Y1600D01*
G01X2825Y4400D02*
G01X2890Y4400D01*
G01X2890Y4400D02*
G01X2340Y4400D01*
G01X2340Y4400D02*
G01X2340Y2660D01*
G01X2340Y2660D02*
G01X2770Y2660D01*
G01X288Y2071D02*
G01X280Y2060D01*
G01X280Y2060D02*
G01X280Y1700D01*
G01X280Y1700D02*
G01X650Y1700D01*
G54D21*
G01X650Y1700D03*

G04 Draw Text*
M00*
M02*
