G04 FreePCB version 1.359*
G04 C:\Users\Jack Ruby\Documents\GitHub\DAQpack_mk2\radioModule_CAM\bottom_copper.grb*
G04 bottom copper layer *
G04 Scale: 100 percent, Rotated: No, Reflected: No *
%FSLAX24Y24*%
%MOIN*%
%LN bottom copper *%
G04 Rounded Rectangle Macro, params: W/2, H/2, R *
%AMRNDREC*
21,1,$1+$1,$2+$2-$3-$3,0,0,0*
21,1,$1+$1-$3-$3,$2+$2,0,0,0*
1,1,$3+$3,$1-$3,$2-$3*
1,1,$3+$3,$3-$1,$2-$3*
1,1,$3+$3,$1-$3,$3-$2*
1,1,$3+$3,$3-$1,$3-$2*%
G04 Rectangular Thermal Macro, params: W/2, H/2, T/2 *
%AMRECTHERM*
$4=$3/2*
21,1,$1-$3,$2-$3,0-$1/2-$4,0-$2/2-$4,0*
21,1,$1-$3,$2-$3,0-$1/2-$4,$2/2+$4,0*
21,1,$1-$3,$2-$3,$1/2+$4,0-$2/2-$4,0*
21,1,$1-$3,$2-$3,$1/2+$4,$2/2+$4,0*%
%ADD10C,0.005000*%
%ADD11R,0.030000X0.055433*%
%ADD12R,0.039685X0.053465*%
%ADD13R,0.055433X0.051496*%
%ADD14R,0.031811X0.031811*%
%ADD15C,0.024000*%
%ADD16C,0.038000*%
%ADD17C,0.026000*%
%ADD18R,0.008661X0.035433*%
%ADD19R,0.019685X0.033465*%
%ADD20R,0.035433X0.031496*%
%ADD21R,0.011811X0.011811*%
%ADD22C,0.004000*%
%ADD23C,0.016000*%
%ADD24C,0.006000*%
G90*
G70D02*

G04 Step and Repeat for panelization *

G04 ----------------------- Draw board outline (positive)*
%LPD*%
G54D10*
G01X0Y0D02*
G01X0Y5150D01*
G04 end of side 1*
G01X3430Y5150D01*
G04 end of side 2*
G01X3430Y0D01*
G04 end of side 3*
G01X0Y0D01*

G04 ----------------------- Draw copper area (positive)*
G36*
G01X1250Y3339D02*
G01X1250Y3339D01*
G01X1250Y3339D01*
G01X1250Y3339D01*
G37*

G04 -------------------- Draw copper area clearances (negative)*
%LPC*%

G04 Draw clearances for pads*
G54D11*
G01X2095Y3690D03*
G01X1937Y3690D03*
G01X1780Y3690D03*
G01X1622Y3690D03*
G01X1465Y3690D03*
G01X1307Y3690D03*
G01X1307Y4725D03*
G01X1465Y4725D03*
G01X1622Y4725D03*
G01X1780Y4725D03*
G01X1937Y4725D03*
G01X2095Y4725D03*
G54D12*
G01X2409Y3916D03*
G01X2409Y4499D03*
G01X992Y4499D03*
G01X992Y3916D03*
G54D13*
G01X1600Y2700D03*
G01X2151Y2700D03*
G01X2151Y2266D03*
G01X1600Y2266D03*
G54D14*
G01X2300Y3000D03*
G01X2093Y3000D03*
G01X1300Y2200D03*
G01X1300Y2406D03*
G01X600Y3950D03*
G01X393Y3950D03*
G01X600Y4500D03*
G01X393Y4500D03*

G04 Draw clearances for traces*
G54D15*
G01X1307Y3690D02*
G01X1307Y3992D01*
G54D16*
G01X1305Y4000D03*
G54D15*
G01X1307Y3992D02*
G01X1305Y4000D01*
G54D17*
G01X393Y4500D02*
G01X150Y4500D01*
G01X393Y3950D02*
G01X150Y3950D01*
G01X1465Y4725D02*
G01X1470Y4700D01*
G01X1470Y4700D02*
G01X1470Y4940D01*
G01X1470Y4940D02*
G01X1410Y5000D01*
G01X1410Y5000D02*
G01X220Y5000D01*
G01X220Y5000D02*
G01X150Y4930D01*
G01X150Y4930D02*
G01X150Y4500D01*
G01X150Y4500D02*
G01X150Y3950D01*
G54D16*
G01X150Y3780D03*
G54D17*
G01X150Y3950D02*
G01X150Y3780D01*
G54D16*
G01X2590Y3150D03*
G54D17*
G01X1465Y4725D02*
G01X1450Y4680D01*
G01X1450Y4680D02*
G01X1460Y4590D01*
G54D16*
G01X1461Y4420D03*
G54D17*
G01X1460Y4590D02*
G01X1461Y4420D01*
G54D16*
G01X1910Y1100D03*
G54D17*
G01X1910Y1100D02*
G01X2590Y1780D01*
G01X2590Y1780D02*
G01X2590Y3150D01*
G54D16*
G01X1150Y1440D03*
G54D17*
G01X1150Y1440D02*
G01X2250Y1440D01*
G01X2250Y1440D02*
G01X2590Y1780D01*
G54D15*
G01X1465Y3690D02*
G01X1465Y4134D01*
G54D16*
G01X1461Y4140D03*
G54D15*
G01X1465Y4134D02*
G01X1461Y4140D01*
G54D16*
G01X3000Y1810D03*
G54D15*
G01X3000Y1810D02*
G01X2740Y1810D01*
G01X2740Y1810D02*
G01X2720Y1830D01*
G01X2720Y1830D02*
G01X2720Y2500D01*
G01X2720Y2500D02*
G01X2760Y2540D01*
G01X2760Y2540D02*
G01X2760Y3210D01*
G01X2760Y3210D02*
G01X2630Y3340D01*
G01X2630Y3340D02*
G01X1660Y3340D01*
G01X1660Y3340D02*
G01X1620Y3380D01*
G01X1620Y3380D02*
G01X1620Y3620D01*
G01X1620Y3620D02*
G01X1622Y3690D01*
G01X1622Y3690D02*
G01X1622Y3997D01*
G54D16*
G01X1620Y4000D03*
G54D15*
G01X1622Y3997D02*
G01X1620Y4000D01*
G54D16*
G01X3170Y2010D03*
G54D15*
G01X3170Y2010D02*
G01X2870Y2010D01*
G01X2870Y2010D02*
G01X2820Y2060D01*
G01X2820Y2060D02*
G01X2820Y2350D01*
G01X2820Y2350D02*
G01X2880Y2410D01*
G01X2880Y2410D02*
G01X2880Y3310D01*
G01X2880Y3310D02*
G01X2750Y3440D01*
G01X2750Y3440D02*
G01X1820Y3440D01*
G01X1820Y3440D02*
G01X1780Y3480D01*
G01X1780Y3480D02*
G01X1780Y3700D01*
G01X1780Y3700D02*
G01X1780Y3690D01*
G01X1780Y3690D02*
G01X1780Y4139D01*
G54D16*
G01X1777Y4140D03*
G54D15*
G01X1780Y4139D02*
G01X1777Y4140D01*
G54D16*
G01X3000Y2200D03*
G54D15*
G01X3000Y2200D02*
G01X3000Y4150D01*
G01X3000Y4150D02*
G01X2940Y4210D01*
G01X2940Y4210D02*
G01X2310Y4210D01*
G01X2310Y4210D02*
G01X2240Y4280D01*
G01X2240Y4280D02*
G01X1935Y4280D01*
G01X1937Y4725D02*
G01X1937Y4267D01*
G54D16*
G01X1935Y4280D03*
G54D15*
G01X1937Y4267D02*
G01X1935Y4280D01*
G54D16*
G01X1290Y3190D03*
G54D15*
G01X1290Y3190D02*
G01X1870Y3190D01*
G01X1870Y3190D02*
G01X2050Y3010D01*
G01X2050Y3010D02*
G01X2080Y3010D01*
G01X2080Y3010D02*
G01X2093Y3000D01*
G01X2151Y2266D02*
G01X2050Y2350D01*
G01X2050Y2350D02*
G01X1870Y2530D01*
G01X1870Y2530D02*
G01X1870Y3190D01*
G01X2095Y3690D02*
G01X2095Y4135D01*
G54D16*
G01X2092Y4140D03*
G54D15*
G01X2095Y4135D02*
G01X2092Y4140D01*
G54D16*
G01X990Y3190D03*
G54D15*
G01X990Y3190D02*
G01X1310Y2870D01*
G01X1310Y2870D02*
G01X1310Y2730D01*
G01X1310Y2730D02*
G01X1590Y2730D01*
G01X1590Y2730D02*
G01X1600Y2700D01*
G01X1300Y2406D02*
G01X1310Y2410D01*
G01X1310Y2410D02*
G01X1310Y2730D01*
G01X1622Y4725D02*
G01X1620Y4660D01*
G01X1620Y4660D02*
G01X1620Y4960D01*
G01X1620Y4960D02*
G01X1660Y5000D01*
G01X1660Y5000D02*
G01X3110Y5000D01*
G01X3110Y5000D02*
G01X3170Y4940D01*
G54D16*
G01X3170Y2410D03*
G54D15*
G01X3170Y4940D02*
G01X3170Y2410D01*
G01X1622Y4725D02*
G01X1610Y4710D01*
G01X1610Y4710D02*
G01X1620Y4570D01*
G54D16*
G01X1620Y4280D03*
G54D15*
G01X1620Y4570D02*
G01X1620Y4280D01*
G01X1780Y4725D02*
G01X1780Y4710D01*
G01X1780Y4710D02*
G01X1780Y4470D01*
G54D16*
G01X1777Y4420D03*
G54D15*
G01X1780Y4470D02*
G01X1777Y4420D01*
G54D16*
G01X1305Y4280D03*
G01X700Y3190D03*
G01X400Y3190D03*
G01X1900Y1960D03*
G54D15*
G01X2095Y4725D02*
G01X2090Y4700D01*
G01X2090Y4700D02*
G01X2090Y4460D01*
G54D16*
G01X2092Y4420D03*
G54D15*
G01X2090Y4460D02*
G01X2092Y4420D01*
G01X1937Y3690D02*
G01X1937Y3997D01*
G01X1937Y3997D02*
G01X1940Y4000D01*
G54D16*
G01X1935Y4000D03*
G54D15*
G01X1940Y4000D02*
G01X1935Y4000D01*

G04 Draw clearances for text*

G04 -------------- Draw Parts, Pads, Traces, Vias and Text (positive)*
%LPD*%
G04 Draw part H1*
G54D18*
G01X2095Y3690D03*
G01X1937Y3690D03*
G01X1780Y3690D03*
G01X1622Y3690D03*
G01X1465Y3690D03*
G01X1307Y3690D03*
G01X1307Y4725D03*
G01X1465Y4725D03*
G01X1622Y4725D03*
G01X1780Y4725D03*
G01X1937Y4725D03*
G01X2095Y4725D03*
G54D19*
G01X2409Y3916D03*
G01X2409Y4499D03*
G01X992Y4499D03*
G01X992Y3916D03*
G04 Draw part U1*
G04 Draw part R2*
G04 Draw part X1*
G54D20*
G01X1600Y2700D03*
G01X2151Y2700D03*
G01X2151Y2266D03*
G01X1600Y2266D03*
G04 Draw part C1*
G54D21*
G01X2300Y3000D03*
G01X2093Y3000D03*
G04 Draw part C2*
G01X1300Y2200D03*
G01X1300Y2406D03*
G04 Draw part C7*
G04 Draw part C8*
G01X600Y3950D03*
G01X393Y3950D03*
G04 Draw part C9*
G01X600Y4500D03*
G01X393Y4500D03*
G04 Draw part H2*
G04 Draw part A1*
G04 Draw part hole3*
G04 Draw part L1*
G04 Draw part C4*
G04 Draw part C3*

G04 Draw traces*
G54D22*
G01X1307Y3690D02*
G01X1307Y3992D01*
G01X1307Y3992D02*
G01X1305Y4000D01*
G54D23*
G01X1305Y4000D03*
G54D24*
G01X393Y4500D02*
G01X150Y4500D01*
G01X393Y3950D02*
G01X150Y3950D01*
G01X1465Y4725D02*
G01X1470Y4700D01*
G01X1470Y4700D02*
G01X1470Y4940D01*
G01X1470Y4940D02*
G01X1410Y5000D01*
G01X1410Y5000D02*
G01X220Y5000D01*
G01X220Y5000D02*
G01X150Y4930D01*
G01X150Y4930D02*
G01X150Y4500D01*
G01X150Y4500D02*
G01X150Y3950D01*
G01X150Y3950D02*
G01X150Y3780D01*
G54D23*
G01X150Y3780D03*
G01X2590Y3150D03*
G54D24*
G01X1465Y4725D02*
G01X1450Y4680D01*
G01X1450Y4680D02*
G01X1460Y4590D01*
G01X1460Y4590D02*
G01X1461Y4420D01*
G54D23*
G01X1461Y4420D03*
G01X1910Y1100D03*
G54D24*
G01X1910Y1100D02*
G01X2590Y1780D01*
G01X2590Y1780D02*
G01X2590Y3150D01*
G54D23*
G01X1150Y1440D03*
G54D24*
G01X1150Y1440D02*
G01X2250Y1440D01*
G01X2250Y1440D02*
G01X2590Y1780D01*
G54D22*
G01X1465Y3690D02*
G01X1465Y4134D01*
G01X1465Y4134D02*
G01X1461Y4140D01*
G54D23*
G01X1461Y4140D03*
G01X3000Y1810D03*
G54D22*
G01X3000Y1810D02*
G01X2740Y1810D01*
G01X2740Y1810D02*
G01X2720Y1830D01*
G01X2720Y1830D02*
G01X2720Y2500D01*
G01X2720Y2500D02*
G01X2760Y2540D01*
G01X2760Y2540D02*
G01X2760Y3210D01*
G01X2760Y3210D02*
G01X2630Y3340D01*
G01X2630Y3340D02*
G01X1660Y3340D01*
G01X1660Y3340D02*
G01X1620Y3380D01*
G01X1620Y3380D02*
G01X1620Y3620D01*
G01X1620Y3620D02*
G01X1622Y3690D01*
G01X1622Y3690D02*
G01X1622Y3997D01*
G01X1622Y3997D02*
G01X1620Y4000D01*
G54D23*
G01X1620Y4000D03*
G01X3170Y2010D03*
G54D22*
G01X3170Y2010D02*
G01X2870Y2010D01*
G01X2870Y2010D02*
G01X2820Y2060D01*
G01X2820Y2060D02*
G01X2820Y2350D01*
G01X2820Y2350D02*
G01X2880Y2410D01*
G01X2880Y2410D02*
G01X2880Y3310D01*
G01X2880Y3310D02*
G01X2750Y3440D01*
G01X2750Y3440D02*
G01X1820Y3440D01*
G01X1820Y3440D02*
G01X1780Y3480D01*
G01X1780Y3480D02*
G01X1780Y3700D01*
G01X1780Y3700D02*
G01X1780Y3690D01*
G01X1780Y3690D02*
G01X1780Y4139D01*
G01X1780Y4139D02*
G01X1777Y4140D01*
G54D23*
G01X1777Y4140D03*
G01X3000Y2200D03*
G54D22*
G01X3000Y2200D02*
G01X3000Y4150D01*
G01X3000Y4150D02*
G01X2940Y4210D01*
G01X2940Y4210D02*
G01X2310Y4210D01*
G01X2310Y4210D02*
G01X2240Y4280D01*
G01X2240Y4280D02*
G01X1935Y4280D01*
G01X1937Y4725D02*
G01X1937Y4267D01*
G01X1937Y4267D02*
G01X1935Y4280D01*
G54D23*
G01X1935Y4280D03*
G01X1290Y3190D03*
G54D22*
G01X1290Y3190D02*
G01X1870Y3190D01*
G01X1870Y3190D02*
G01X2050Y3010D01*
G01X2050Y3010D02*
G01X2080Y3010D01*
G01X2080Y3010D02*
G01X2093Y3000D01*
G01X2151Y2266D02*
G01X2050Y2350D01*
G01X2050Y2350D02*
G01X1870Y2530D01*
G01X1870Y2530D02*
G01X1870Y3190D01*
G01X2095Y3690D02*
G01X2095Y4135D01*
G01X2095Y4135D02*
G01X2092Y4140D01*
G54D23*
G01X2092Y4140D03*
G01X990Y3190D03*
G54D22*
G01X990Y3190D02*
G01X1310Y2870D01*
G01X1310Y2870D02*
G01X1310Y2730D01*
G01X1310Y2730D02*
G01X1590Y2730D01*
G01X1590Y2730D02*
G01X1600Y2700D01*
G01X1300Y2406D02*
G01X1310Y2410D01*
G01X1310Y2410D02*
G01X1310Y2730D01*
G01X1622Y4725D02*
G01X1620Y4660D01*
G01X1620Y4660D02*
G01X1620Y4960D01*
G01X1620Y4960D02*
G01X1660Y5000D01*
G01X1660Y5000D02*
G01X3110Y5000D01*
G01X3110Y5000D02*
G01X3170Y4940D01*
G01X3170Y4940D02*
G01X3170Y2410D01*
G54D23*
G01X3170Y2410D03*
G54D22*
G01X1622Y4725D02*
G01X1610Y4710D01*
G01X1610Y4710D02*
G01X1620Y4570D01*
G01X1620Y4570D02*
G01X1620Y4280D01*
G54D23*
G01X1620Y4280D03*
G54D22*
G01X1780Y4725D02*
G01X1780Y4710D01*
G01X1780Y4710D02*
G01X1780Y4470D01*
G01X1780Y4470D02*
G01X1777Y4420D01*
G54D23*
G01X1777Y4420D03*
G54D24*
G01X1307Y4725D02*
G01X1290Y4730D01*
G01X1290Y4730D02*
G01X1300Y4590D01*
G01X1300Y4590D02*
G01X1300Y4340D01*
G01X1300Y4340D02*
G01X1305Y4280D01*
G54D23*
G01X1305Y4280D03*
G54D24*
G01X600Y4500D02*
G01X600Y3950D01*
G01X1600Y2266D02*
G01X1600Y2170D01*
G01X1300Y2200D02*
G01X1300Y2220D01*
G54D23*
G01X700Y3190D03*
G54D24*
G01X700Y3190D02*
G01X700Y3670D01*
G01X700Y3670D02*
G01X600Y3770D01*
G01X600Y3770D02*
G01X600Y3950D01*
G01X1307Y4725D02*
G01X1307Y4822D01*
G01X1307Y4822D02*
G01X1300Y4830D01*
G01X1300Y4830D02*
G01X680Y4830D01*
G01X680Y4830D02*
G01X600Y4750D01*
G01X600Y4750D02*
G01X600Y4510D01*
G01X600Y4510D02*
G01X600Y4500D01*
G54D23*
G01X400Y3190D03*
G54D24*
G01X400Y3190D02*
G01X700Y3190D01*
G01X1300Y2200D02*
G01X1280Y2200D01*
G01X1280Y2200D02*
G01X1080Y2200D01*
G01X1080Y2200D02*
G01X1080Y2680D01*
G01X1080Y2680D02*
G01X700Y3060D01*
G01X700Y3060D02*
G01X700Y3190D01*
G01X1600Y2266D02*
G01X1600Y2220D01*
G01X1600Y2220D02*
G01X1600Y1840D01*
G01X1600Y1840D02*
G01X1230Y1840D01*
G01X1230Y1840D02*
G01X1080Y1990D01*
G01X1080Y1990D02*
G01X1080Y2200D01*
G54D23*
G01X1900Y1960D03*
G54D24*
G01X1900Y1960D02*
G01X1900Y1880D01*
G01X1900Y1880D02*
G01X1900Y1840D01*
G01X1900Y1840D02*
G01X1600Y1840D01*
G01X2151Y2700D02*
G01X2270Y2700D01*
G01X2270Y2700D02*
G01X2440Y2700D01*
G01X2440Y2700D02*
G01X2440Y1970D01*
G01X2440Y1970D02*
G01X2310Y1840D01*
G01X2310Y1840D02*
G01X1900Y1840D01*
G01X2300Y3000D02*
G01X2330Y3000D01*
G01X2330Y3000D02*
G01X2400Y3000D01*
G01X2400Y3000D02*
G01X2440Y2960D01*
G01X2440Y2960D02*
G01X2440Y2700D01*
G54D22*
G01X2095Y4725D02*
G01X2090Y4700D01*
G01X2090Y4700D02*
G01X2090Y4460D01*
G01X2090Y4460D02*
G01X2092Y4420D01*
G54D23*
G01X2092Y4420D03*
G54D22*
G01X1937Y3690D02*
G01X1937Y3997D01*
G01X1937Y3997D02*
G01X1940Y4000D01*
G01X1940Y4000D02*
G01X1935Y4000D01*
G54D23*
G01X1935Y4000D03*

G04 Draw Text*
M00*
M02*
