;Holesize 1 =    8.0 PLATED MILS
M48
INCH,00.0000
T01C0.008
%
G05
G90
T01
X001305Y004000
X000150Y003780
X002590Y003150
X001461Y004420
X001910Y001100
X001150Y001440
X001461Y004140
X003000Y001810
X001620Y004000
X003170Y002010
X001777Y004140
X003000Y002200
X001935Y004280
X001290Y003190
X002092Y004140
X000990Y003190
X003170Y002410
X001620Y004280
X001777Y004420
X001305Y004280
X000700Y003190
X000400Y003190
X001900Y001960
X002092Y004420
X001935Y004000
M30
