;Holesize 1 =   25.0 PLATED MILS
;Holesize 2 =    8.0 PLATED MILS
M48
INCH,00.0000
T01C0.025
T02C0.008
%
G05
G90
T01
X002750Y002500
X001500Y003000
X002500Y003000
X003000Y003000
X001000Y003000
X002000Y003000
X001250Y002500
X001750Y002500
X002250Y002500
X000750Y002500
X000500Y003000
T02
X001305Y004000
X001461Y004420
X000400Y004280
X003210Y000300
X001461Y004140
X001620Y004000
X001777Y004140
X001935Y004280
X003210Y001300
X002092Y004140
X001777Y004420
X001620Y004280
X001305Y004280
X000370Y000570
X000400Y003470
X002092Y004420
X001935Y004000
M30
