G04 FreePCB version 1.359*
G04 C:\Users\Jack Ruby\Documents\GitHub\DAQpack_mk2\DAQ_v2_SD_CAM\bottom_copper.grb*
G04 bottom copper layer *
G04 Scale: 100 percent, Rotated: No, Reflected: No *
%FSLAX24Y24*%
%MOIN*%
%LN bottom copper *%
G04 Rounded Rectangle Macro, params: W/2, H/2, R *
%AMRNDREC*
21,1,$1+$1,$2+$2-$3-$3,0,0,0*
21,1,$1+$1-$3-$3,$2+$2,0,0,0*
1,1,$3+$3,$1-$3,$2-$3*
1,1,$3+$3,$3-$1,$2-$3*
1,1,$3+$3,$1-$3,$3-$2*
1,1,$3+$3,$3-$1,$3-$2*%
G04 Rectangular Thermal Macro, params: W/2, H/2, T/2 *
%AMRECTHERM*
$4=$3/2*
21,1,$1-$3,$2-$3,0-$1/2-$4,0-$2/2-$4,0*
21,1,$1-$3,$2-$3,0-$1/2-$4,$2/2+$4,0*
21,1,$1-$3,$2-$3,$1/2+$4,0-$2/2-$4,0*
21,1,$1-$3,$2-$3,$1/2+$4,$2/2+$4,0*%
%ADD10C,0.005000*%
%ADD11C,0.060000*%
%ADD12C,0.001000*%
%ADD13R,0.031811X0.047559*%
%ADD14R,0.031811X0.059370*%
%ADD15R,0.039685X0.059370*%
%ADD16R,0.061339X0.067244*%
%ADD17C,0.038000*%
%ADD18C,0.024000*%
%ADD19C,0.028000*%
%ADD20C,0.040000*%
%ADD21R,0.011811X0.027559*%
%ADD22R,0.011811X0.039370*%
%ADD23R,0.019685X0.039370*%
%ADD24R,0.041339X0.047244*%
%ADD25C,0.016000*%
%ADD26C,0.004000*%
%ADD27C,0.008000*%
G90*
G70D02*

G04 Step and Repeat for panelization *

G04 ----------------------- Draw board outline (positive)*
%LPD*%
G54D10*
G01X0Y0D02*
G01X5000Y0D01*
G04 end of side 1*
G01X5000Y7500D01*
G04 end of side 2*
G01X0Y7500D01*
G04 end of side 3*
G01X0Y0D01*

G04 ----------------------- Draw copper area (positive)*
G36*
G01X3202Y4510D02*
G01X3200Y4510D01*
G01X3200Y4530D01*
G01X3202Y4510D01*
G37*

G04 ----------------------- Draw copper area (positive)*
G36*
G01X1650Y6220D02*
G01X2230Y6220D01*
G01X2230Y5980D01*
G01X1920Y5980D01*
G01X1920Y5820D01*
G01X1800Y5700D01*
G01X1380Y5700D01*
G01X1380Y5450D01*
G01X1690Y5450D01*
G01X1690Y5270D01*
G01X1680Y5270D01*
G01X1380Y4970D01*
G01X1380Y4610D01*
G01X1330Y4610D01*
G01X1330Y4480D01*
G01X1470Y4480D01*
G01X1470Y4510D01*
G01X1450Y4510D01*
G01X1470Y4544D01*
G01X1440Y4510D01*
G01X1462Y4567D01*
G01X1430Y4510D01*
G01X1430Y4600D01*
G01X1462Y4567D01*
G01X1470Y4560D01*
G01X1470Y4544D01*
G01X1470Y4510D01*
G01X3200Y4510D01*
G01X3200Y3680D01*
G01X2760Y3680D01*
G01X2610Y3530D01*
G01X1970Y3530D01*
G01X1840Y3400D01*
G01X1840Y3350D01*
G01X1760Y3350D01*
G01X1760Y3290D01*
G01X1490Y3290D01*
G01X1450Y3250D01*
G01X1450Y2140D01*
G01X1850Y2140D01*
G01X1850Y1900D01*
G01X2000Y1750D01*
G01X2940Y1750D01*
G01X3370Y2180D01*
G01X3410Y2220D01*
G01X3410Y2260D01*
G01X3350Y2320D01*
G01X3350Y2390D01*
G01X3790Y2390D01*
G01X3830Y2550D01*
G01X3811Y2399D01*
G01X3880Y2430D01*
G01X3840Y2390D01*
G01X3950Y2390D01*
G01X3950Y2890D01*
G01X3950Y3270D01*
G01X4850Y3270D01*
G01X4850Y150D01*
G01X2740Y150D01*
G01X2740Y340D01*
G01X1300Y340D01*
G01X1130Y510D01*
G01X1130Y1000D01*
G01X950Y1180D01*
G01X360Y1180D01*
G01X150Y1390D01*
G01X150Y6309D01*
G01X450Y6590D01*
G01X1650Y6590D01*
G01X1650Y6220D01*
G37*

G04 -------------------- Draw copper area cutout (negative)*
%LPC*%
G36*
G01X3820Y2400D02*
G01X3811Y2399D01*
G01X3790Y2390D01*
G01X3820Y2400D01*
G37*

G04 -------------------- Draw copper area clearances (negative)*
%LPC*%

G04 Draw clearances for pads*
G54D11*
G01X650Y800D03*
G54D12*
G54D13*
G01X1900Y6100D03*
G01X2096Y6100D03*
G01X2293Y6100D03*
G01X2490Y6100D03*
G01X2687Y6100D03*
G01X2884Y6100D03*
G01X3081Y6100D03*
G01X3277Y6100D03*
G54D14*
G01X1588Y7143D03*
G01X3588Y7143D03*
G54D15*
G01X1009Y3096D03*
G01X1442Y3096D03*
G01X1875Y3096D03*
G01X2170Y3096D03*
G01X2446Y3096D03*
G01X2741Y3096D03*
G01X3174Y3096D03*
G01X3607Y3096D03*
G01X4040Y3096D03*
G54D16*
G01X4582Y5482D03*
G01X467Y5482D03*
G01X4582Y3730D03*
G01X467Y3730D03*
G54D11*
G01X650Y300D03*
G54D12*

G04 Draw clearances for traces*
G54D17*
G01X1790Y5050D03*
G54D18*
G01X1790Y5050D02*
G01X1790Y4900D01*
G01X1790Y4900D02*
G01X2150Y4540D01*
G01X2150Y4540D02*
G01X3600Y4540D01*
G01X3600Y4540D02*
G01X3790Y4730D01*
G01X3790Y4730D02*
G01X3790Y5290D01*
G54D17*
G01X3590Y5490D03*
G54D18*
G01X3790Y5290D02*
G01X3590Y5490D01*
G54D17*
G01X2290Y6530D03*
G54D19*
G01X2290Y6530D02*
G01X2290Y6110D01*
G01X2290Y6110D02*
G01X2293Y6100D01*
G01X2170Y3096D02*
G01X2170Y3130D01*
G54D17*
G01X2170Y1970D03*
G54D19*
G01X2170Y3130D02*
G01X2170Y1970D01*
G54D17*
G01X2090Y5050D03*
G54D18*
G01X2090Y5050D02*
G01X2090Y4900D01*
G01X2090Y4900D02*
G01X2300Y4690D01*
G01X2300Y4690D02*
G01X3380Y4690D01*
G54D17*
G01X3590Y4900D03*
G54D18*
G01X3380Y4690D02*
G01X3590Y4900D01*
G54D17*
G01X2390Y5050D03*
G54D18*
G01X2390Y5050D02*
G01X2390Y4900D01*
G01X2390Y4900D02*
G01X2450Y4840D01*
G01X2450Y4840D02*
G01X3223Y4840D01*
G54D17*
G01X3590Y5190D03*
G54D18*
G01X3223Y4840D02*
G01X3590Y5190D01*
G54D17*
G01X2620Y5490D03*
G54D18*
G01X2620Y5490D02*
G01X2730Y5380D01*
G01X2730Y5380D02*
G01X3100Y5380D01*
G54D17*
G01X3290Y5190D03*
G54D18*
G01X3100Y5380D02*
G01X3290Y5190D01*
G54D17*
G01X3180Y6530D03*
G54D18*
G01X3180Y6530D02*
G01X3280Y6440D01*
G01X3280Y6440D02*
G01X3280Y6100D01*
G01X3280Y6100D02*
G01X3277Y6100D01*
G01X2741Y3096D02*
G01X2740Y2960D01*
G01X2740Y2960D02*
G01X2740Y3420D01*
G01X2740Y3420D02*
G01X2830Y3510D01*
G01X2830Y3510D02*
G01X3290Y3510D01*
G01X3290Y3510D02*
G01X3460Y3680D01*
G01X3460Y3680D02*
G01X3460Y3940D01*
G01X3460Y3940D02*
G01X4010Y4490D01*
G01X4010Y4490D02*
G01X4010Y5720D01*
G01X4010Y5720D02*
G01X3850Y5880D01*
G01X3850Y5880D02*
G01X3321Y5880D01*
G01X3321Y5880D02*
G01X3277Y5923D01*
G01X3277Y5923D02*
G01X3277Y6100D01*
G01X2741Y3096D02*
G01X2741Y2728D01*
G01X2741Y2728D02*
G01X2840Y2630D01*
G01X2840Y2630D02*
G01X3210Y2630D01*
G01X3210Y2630D02*
G01X3320Y2520D01*
G54D17*
G01X3320Y2240D03*
G54D18*
G01X3320Y2520D02*
G01X3320Y2240D01*
G54D19*
G01X650Y300D02*
G01X650Y810D01*
G01X650Y810D02*
G01X650Y800D01*
G54D17*
G01X2620Y5190D03*
G01X2990Y5190D03*
G54D18*
G01X2620Y5190D02*
G01X2990Y5190D01*
G01X2446Y3096D02*
G01X2446Y2483D01*
G54D17*
G01X2690Y2240D03*
G54D18*
G01X2446Y2483D02*
G01X2690Y2240D01*
G54D17*
G01X2680Y6530D03*
G54D18*
G01X2680Y6530D02*
G01X2690Y6460D01*
G01X2690Y6460D02*
G01X2730Y6420D01*
G01X2730Y6420D02*
G01X2840Y6420D01*
G01X2840Y6420D02*
G01X2880Y6380D01*
G01X2880Y6380D02*
G01X2880Y6110D01*
G01X2880Y6110D02*
G01X2884Y6100D01*
G01X1875Y3096D02*
G01X1880Y3120D01*
G01X1880Y3120D02*
G01X1880Y3390D01*
G01X1880Y3390D02*
G01X1980Y3490D01*
G01X1980Y3490D02*
G01X2620Y3490D01*
G01X2620Y3490D02*
G01X2770Y3640D01*
G01X2770Y3640D02*
G01X3210Y3640D01*
G01X3210Y3640D02*
G01X3300Y3730D01*
G01X3300Y3730D02*
G01X3300Y4020D01*
G01X3300Y4020D02*
G01X3900Y4620D01*
G01X3900Y4620D02*
G01X3900Y5600D01*
G01X3900Y5600D02*
G01X3780Y5720D01*
G01X3780Y5720D02*
G01X3021Y5720D01*
G01X3021Y5720D02*
G01X2884Y5856D01*
G01X2884Y5856D02*
G01X2884Y6100D01*
G01X1875Y3096D02*
G01X1880Y3070D01*
G01X1880Y3070D02*
G01X1880Y2980D01*
G01X1880Y2980D02*
G01X1870Y2970D01*
G01X1870Y2970D02*
G01X1870Y1910D01*
G01X1870Y1910D02*
G01X2010Y1770D01*
G01X2010Y1770D02*
G01X2850Y1770D01*
G01X2850Y1770D02*
G01X2990Y1910D01*
G54D17*
G01X2990Y2240D03*
G54D18*
G01X2990Y1910D02*
G01X2990Y2240D01*
G01X1442Y3096D02*
G01X1450Y3060D01*
G54D17*
G01X1450Y2210D03*
G54D18*
G01X1450Y3060D02*
G01X1450Y2210D01*
G54D17*
G01X2780Y6780D03*
G54D18*
G01X2780Y6780D02*
G01X2940Y6780D01*
G01X2940Y6780D02*
G01X2940Y6510D01*
G01X2940Y6510D02*
G01X3080Y6370D01*
G01X3080Y6370D02*
G01X3080Y6120D01*
G01X3080Y6120D02*
G01X3081Y6100D01*
G01X3607Y3096D02*
G01X3610Y3180D01*
G01X3610Y3180D02*
G01X3610Y3870D01*
G01X3610Y3870D02*
G01X4120Y4380D01*
G01X4120Y4380D02*
G01X4120Y5850D01*
G01X4120Y5850D02*
G01X3920Y6050D01*
G01X3920Y6050D02*
G01X3620Y6050D01*
G01X3620Y6050D02*
G01X3530Y6140D01*
G01X3530Y6140D02*
G01X3530Y6450D01*
G01X3530Y6450D02*
G01X3200Y6780D01*
G01X3200Y6780D02*
G01X2780Y6780D01*
G01X3607Y3096D02*
G01X3600Y3100D01*
G01X3600Y3100D02*
G01X3610Y2920D01*
G01X3610Y2920D02*
G01X3610Y2860D01*
G01X3610Y2860D02*
G01X3790Y2680D01*
G54D17*
G01X3790Y2460D03*
G54D18*
G01X3790Y2680D02*
G01X3790Y2460D01*
G54D17*
G01X2100Y6780D03*
G01X3290Y5490D03*
G54D18*
G01X3290Y5490D02*
G01X3200Y5580D01*
G01X3200Y5580D02*
G01X2810Y5580D01*
G01X2810Y5580D02*
G01X2700Y5690D01*
G01X2700Y5690D02*
G01X2510Y5690D01*
G01X2510Y5690D02*
G01X2400Y5580D01*
G01X2400Y5580D02*
G01X2400Y5330D01*
G01X2400Y5330D02*
G01X2320Y5250D01*
G01X2320Y5250D02*
G01X1700Y5250D01*
G01X1700Y5250D02*
G01X1400Y4950D01*
G54D17*
G01X1400Y4540D03*
G54D18*
G01X1400Y4950D02*
G01X1400Y4540D01*
G54D17*
G01X2670Y350D03*
G54D19*
G01X2670Y350D02*
G01X1290Y350D01*
G01X1290Y350D02*
G01X1110Y530D01*
G01X1110Y530D02*
G01X1110Y1020D01*
G01X1110Y1020D02*
G01X930Y1200D01*
G01X930Y1200D02*
G01X360Y1200D01*
G01X360Y1200D02*
G01X140Y1420D01*
G01X140Y1420D02*
G01X140Y6280D01*
G01X140Y6280D02*
G01X440Y6580D01*
G01X440Y6580D02*
G01X1660Y6580D01*
G01X1660Y6580D02*
G01X1830Y6750D01*
G01X1830Y6750D02*
G01X1830Y6920D01*
G01X1830Y6920D02*
G01X1960Y7050D01*
G01X1960Y7050D02*
G01X2340Y7050D01*
G01X2340Y7050D02*
G01X2490Y6900D01*
G01X2490Y6900D02*
G01X2490Y6460D01*
G01X2490Y6460D02*
G01X2680Y6270D01*
G01X2680Y6270D02*
G01X2680Y6070D01*
G01X2680Y6070D02*
G01X2687Y6100D01*
G54D17*
G01X1400Y5690D03*
G54D18*
G01X1400Y5690D02*
G01X1780Y5690D01*
G01X1780Y5690D02*
G01X1900Y5810D01*
G01X1900Y5810D02*
G01X1900Y6100D01*
G54D17*
G01X2680Y1250D03*
G54D19*
G01X2680Y1250D02*
G01X4610Y1250D01*
G01X4610Y1250D02*
G01X4770Y1410D01*
G54D17*
G01X4770Y1700D03*
G54D19*
G01X4770Y1410D02*
G01X4770Y1700D01*

G04 Draw clearances for text*

G04 -------------- Draw Parts, Pads, Traces, Vias and Text (positive)*
%LPD*%
G04 Draw part U3*
G04 Draw part C14*
G04 Draw part C15*
G04 Draw part P1*
G54D20*
G01X650Y800D03*
G04 Draw part P2*
G01X3550Y800D03*
G04 Draw part H2*
G54D21*
G01X1900Y6100D03*
G01X2096Y6100D03*
G01X2293Y6100D03*
G01X2490Y6100D03*
G01X2687Y6100D03*
G01X2884Y6100D03*
G01X3081Y6100D03*
G01X3277Y6100D03*
G54D22*
G01X1588Y7143D03*
G01X3588Y7143D03*
G04 Draw part U1*
G04 Draw part C16*
G04 Draw part R1*
G04 Draw part H1*
G04 Draw part D1*
G04 Draw part R2*
G04 Draw part S1*
G04 Draw part H3*
G54D23*
G01X1009Y3096D03*
G01X1442Y3096D03*
G01X1875Y3096D03*
G01X2170Y3096D03*
G01X2446Y3096D03*
G01X2741Y3096D03*
G01X3174Y3096D03*
G01X3607Y3096D03*
G01X4040Y3096D03*
G54D24*
G01X4582Y5482D03*
G01X467Y5482D03*
G01X4582Y3730D03*
G01X467Y3730D03*
G04 Draw part P3*
G54D20*
G01X650Y300D03*
G04 Draw part P4*
G01X3550Y300D03*
G04 Draw part C17*

G04 Draw traces*
G54D25*
G01X1790Y5050D03*
G54D26*
G01X1790Y5050D02*
G01X1790Y4900D01*
G01X1790Y4900D02*
G01X2150Y4540D01*
G01X2150Y4540D02*
G01X3600Y4540D01*
G01X3600Y4540D02*
G01X3790Y4730D01*
G01X3790Y4730D02*
G01X3790Y5290D01*
G01X3790Y5290D02*
G01X3590Y5490D01*
G54D25*
G01X3590Y5490D03*
G01X2290Y6530D03*
G54D27*
G01X2290Y6530D02*
G01X2290Y6110D01*
G01X2290Y6110D02*
G01X2293Y6100D01*
G01X2170Y3096D02*
G01X2170Y3130D01*
G01X2170Y3130D02*
G01X2170Y1970D01*
G54D25*
G01X2170Y1970D03*
G01X2090Y5050D03*
G54D26*
G01X2090Y5050D02*
G01X2090Y4900D01*
G01X2090Y4900D02*
G01X2300Y4690D01*
G01X2300Y4690D02*
G01X3380Y4690D01*
G01X3380Y4690D02*
G01X3590Y4900D01*
G54D25*
G01X3590Y4900D03*
G01X2390Y5050D03*
G54D26*
G01X2390Y5050D02*
G01X2390Y4900D01*
G01X2390Y4900D02*
G01X2450Y4840D01*
G01X2450Y4840D02*
G01X3223Y4840D01*
G01X3223Y4840D02*
G01X3590Y5190D01*
G54D25*
G01X3590Y5190D03*
G01X2620Y5490D03*
G54D26*
G01X2620Y5490D02*
G01X2730Y5380D01*
G01X2730Y5380D02*
G01X3100Y5380D01*
G01X3100Y5380D02*
G01X3290Y5190D01*
G54D25*
G01X3290Y5190D03*
G01X3180Y6530D03*
G54D26*
G01X3180Y6530D02*
G01X3280Y6440D01*
G01X3280Y6440D02*
G01X3280Y6100D01*
G01X3280Y6100D02*
G01X3277Y6100D01*
G01X2741Y3096D02*
G01X2740Y2960D01*
G01X2740Y2960D02*
G01X2740Y3420D01*
G01X2740Y3420D02*
G01X2830Y3510D01*
G01X2830Y3510D02*
G01X3290Y3510D01*
G01X3290Y3510D02*
G01X3460Y3680D01*
G01X3460Y3680D02*
G01X3460Y3940D01*
G01X3460Y3940D02*
G01X4010Y4490D01*
G01X4010Y4490D02*
G01X4010Y5720D01*
G01X4010Y5720D02*
G01X3850Y5880D01*
G01X3850Y5880D02*
G01X3321Y5880D01*
G01X3321Y5880D02*
G01X3277Y5923D01*
G01X3277Y5923D02*
G01X3277Y6100D01*
G01X2741Y3096D02*
G01X2741Y2728D01*
G01X2741Y2728D02*
G01X2840Y2630D01*
G01X2840Y2630D02*
G01X3210Y2630D01*
G01X3210Y2630D02*
G01X3320Y2520D01*
G01X3320Y2520D02*
G01X3320Y2240D01*
G54D25*
G01X3320Y2240D03*
G54D27*
G01X650Y300D02*
G01X650Y810D01*
G01X650Y810D02*
G01X650Y800D01*
G54D25*
G01X2620Y5190D03*
G54D26*
G01X2620Y5190D02*
G01X2990Y5190D01*
G54D25*
G01X2990Y5190D03*
G54D26*
G01X2446Y3096D02*
G01X2446Y2483D01*
G01X2446Y2483D02*
G01X2690Y2240D01*
G54D25*
G01X2690Y2240D03*
G01X2680Y6530D03*
G54D26*
G01X2680Y6530D02*
G01X2690Y6460D01*
G01X2690Y6460D02*
G01X2730Y6420D01*
G01X2730Y6420D02*
G01X2840Y6420D01*
G01X2840Y6420D02*
G01X2880Y6380D01*
G01X2880Y6380D02*
G01X2880Y6110D01*
G01X2880Y6110D02*
G01X2884Y6100D01*
G01X1875Y3096D02*
G01X1880Y3120D01*
G01X1880Y3120D02*
G01X1880Y3390D01*
G01X1880Y3390D02*
G01X1980Y3490D01*
G01X1980Y3490D02*
G01X2620Y3490D01*
G01X2620Y3490D02*
G01X2770Y3640D01*
G01X2770Y3640D02*
G01X3210Y3640D01*
G01X3210Y3640D02*
G01X3300Y3730D01*
G01X3300Y3730D02*
G01X3300Y4020D01*
G01X3300Y4020D02*
G01X3900Y4620D01*
G01X3900Y4620D02*
G01X3900Y5600D01*
G01X3900Y5600D02*
G01X3780Y5720D01*
G01X3780Y5720D02*
G01X3021Y5720D01*
G01X3021Y5720D02*
G01X2884Y5856D01*
G01X2884Y5856D02*
G01X2884Y6100D01*
G01X1875Y3096D02*
G01X1880Y3070D01*
G01X1880Y3070D02*
G01X1880Y2980D01*
G01X1880Y2980D02*
G01X1870Y2970D01*
G01X1870Y2970D02*
G01X1870Y1910D01*
G01X1870Y1910D02*
G01X2010Y1770D01*
G01X2010Y1770D02*
G01X2850Y1770D01*
G01X2850Y1770D02*
G01X2990Y1910D01*
G01X2990Y1910D02*
G01X2990Y2240D01*
G54D25*
G01X2990Y2240D03*
G54D26*
G01X1442Y3096D02*
G01X1450Y3060D01*
G01X1450Y3060D02*
G01X1450Y2210D01*
G54D25*
G01X1450Y2210D03*
G01X2780Y6780D03*
G54D26*
G01X2780Y6780D02*
G01X2940Y6780D01*
G01X2940Y6780D02*
G01X2940Y6510D01*
G01X2940Y6510D02*
G01X3080Y6370D01*
G01X3080Y6370D02*
G01X3080Y6120D01*
G01X3080Y6120D02*
G01X3081Y6100D01*
G01X3607Y3096D02*
G01X3610Y3180D01*
G01X3610Y3180D02*
G01X3610Y3870D01*
G01X3610Y3870D02*
G01X4120Y4380D01*
G01X4120Y4380D02*
G01X4120Y5850D01*
G01X4120Y5850D02*
G01X3920Y6050D01*
G01X3920Y6050D02*
G01X3620Y6050D01*
G01X3620Y6050D02*
G01X3530Y6140D01*
G01X3530Y6140D02*
G01X3530Y6450D01*
G01X3530Y6450D02*
G01X3200Y6780D01*
G01X3200Y6780D02*
G01X2780Y6780D01*
G01X3607Y3096D02*
G01X3600Y3100D01*
G01X3600Y3100D02*
G01X3610Y2920D01*
G01X3610Y2920D02*
G01X3610Y2860D01*
G01X3610Y2860D02*
G01X3790Y2680D01*
G01X3790Y2680D02*
G01X3790Y2460D01*
G54D25*
G01X3790Y2460D03*
G01X2100Y6780D03*
G54D27*
G01X2100Y6780D02*
G01X2100Y6100D01*
G01X2100Y6100D02*
G01X2096Y6100D01*
G01X3174Y3096D02*
G01X3174Y2955D01*
G01X3174Y2955D02*
G01X3550Y2580D01*
G01X3550Y2580D02*
G01X3550Y2070D01*
G54D25*
G01X500Y2600D03*
G01X2590Y3790D03*
G54D27*
G01X2590Y3790D02*
G01X2580Y3820D01*
G01X2096Y6100D02*
G01X2096Y5586D01*
G01X2096Y5586D02*
G01X1960Y5450D01*
G01X1960Y5450D02*
G01X1120Y5450D01*
G01X1120Y5450D02*
G01X980Y5310D01*
G01X980Y5310D02*
G01X980Y3580D01*
G01X980Y3580D02*
G01X640Y3240D01*
G54D25*
G01X3290Y5490D03*
G54D26*
G01X3290Y5490D02*
G01X3200Y5580D01*
G01X3200Y5580D02*
G01X2810Y5580D01*
G01X2810Y5580D02*
G01X2700Y5690D01*
G01X2700Y5690D02*
G01X2510Y5690D01*
G01X2510Y5690D02*
G01X2400Y5580D01*
G01X2400Y5580D02*
G01X2400Y5330D01*
G01X2400Y5330D02*
G01X2320Y5250D01*
G01X2320Y5250D02*
G01X1700Y5250D01*
G01X1700Y5250D02*
G01X1400Y4950D01*
G01X1400Y4950D02*
G01X1400Y4540D01*
G54D25*
G01X1400Y4540D03*
G01X2670Y350D03*
G54D27*
G01X2670Y350D02*
G01X1290Y350D01*
G01X1290Y350D02*
G01X1110Y530D01*
G01X1110Y530D02*
G01X1110Y1020D01*
G01X1110Y1020D02*
G01X930Y1200D01*
G01X930Y1200D02*
G01X360Y1200D01*
G01X360Y1200D02*
G01X140Y1420D01*
G01X140Y1420D02*
G01X140Y6280D01*
G01X140Y6280D02*
G01X440Y6580D01*
G01X440Y6580D02*
G01X1660Y6580D01*
G01X1660Y6580D02*
G01X1830Y6750D01*
G01X1830Y6750D02*
G01X1830Y6920D01*
G01X1830Y6920D02*
G01X1960Y7050D01*
G01X1960Y7050D02*
G01X2340Y7050D01*
G01X2340Y7050D02*
G01X2490Y6900D01*
G01X2490Y6900D02*
G01X2490Y6460D01*
G01X2490Y6460D02*
G01X2680Y6270D01*
G01X2680Y6270D02*
G01X2680Y6070D01*
G01X2680Y6070D02*
G01X2687Y6100D01*
G54D25*
G01X1400Y5690D03*
G54D26*
G01X1400Y5690D02*
G01X1780Y5690D01*
G01X1780Y5690D02*
G01X1900Y5810D01*
G01X1900Y5810D02*
G01X1900Y6100D01*
G54D25*
G01X2680Y1250D03*
G54D27*
G01X2680Y1250D02*
G01X4610Y1250D01*
G01X4610Y1250D02*
G01X4770Y1410D01*
G01X4770Y1410D02*
G01X4770Y1700D01*
G54D25*
G01X4770Y1700D03*

G04 Draw Text*
M00*
M02*
