;Holesize 1 =   25.0 PLATED MILS
;Holesize 2 =    8.0 PLATED MILS
M48
INCH,00.0000
T01C0.025
T02C0.008
%
G05
G90
T01
X003200Y000800
X000300Y000800
X003200Y006200
X000300Y006200
X003200Y000300
X000300Y000300
T02
X000690Y005630
X001500Y005440
X000640Y000550
X003170Y002390
X000690Y004620
X000880Y004440
X001090Y004620
X001290Y004440
X001680Y001950
X001490Y001760
X002190Y005710
X002910Y004620
X000690Y001950
X002070Y001950
X001680Y004440
X001870Y005710
X000890Y001750
X002520Y004630
X002030Y005870
X001090Y001950
X002710Y004440
X001870Y001760
X001780Y003150
X001300Y005870
X002740Y002030
X002350Y005870
X001860Y004620
X002320Y001250
M30
