G04 FreePCB version 1.359*
G04 C:\Users\Jack Ruby\Documents\GitHub\DAQpack_mk2\bioampModule_CAM\top_copper.grb*
G04 top copper layer *
G04 Scale: 100 percent, Rotated: No, Reflected: No *
%FSLAX24Y24*%
%MOIN*%
%LN top copper *%
G04 Rounded Rectangle Macro, params: W/2, H/2, R *
%AMRNDREC*
21,1,$1+$1,$2+$2-$3-$3,0,0,0*
21,1,$1+$1-$3-$3,$2+$2,0,0,0*
1,1,$3+$3,$1-$3,$2-$3*
1,1,$3+$3,$3-$1,$2-$3*
1,1,$3+$3,$1-$3,$3-$2*
1,1,$3+$3,$3-$1,$3-$2*%
G04 Rectangular Thermal Macro, params: W/2, H/2, T/2 *
%AMRECTHERM*
$4=$3/2*
21,1,$1-$3,$2-$3,0-$1/2-$4,0-$2/2-$4,0*
21,1,$1-$3,$2-$3,0-$1/2-$4,$2/2+$4,0*
21,1,$1-$3,$2-$3,$1/2+$4,0-$2/2-$4,0*
21,1,$1-$3,$2-$3,$1/2+$4,$2/2+$4,0*%
%ADD10C,0.005000*%
%ADD11C,0.013780*%
%ADD12R,0.008661X0.027559*%
%ADD13R,0.039370X0.019685*%
%ADD14C,0.010236*%
%ADD15R,0.011811X0.011811*%
%ADD16C,0.034000*%
%ADD17C,0.006000*%
%ADD18C,0.016000*%
%ADD19C,0.004000*%
G90*
G70D02*

G04 Step and Repeat for panelization *

G04 ----------------------- Draw board outline (positive)*
%LPD*%
G54D10*
G01X0Y0D02*
G01X0Y5150D01*
G04 end of side 1*
G01X3430Y5150D01*
G04 end of side 2*
G01X3430Y0D01*
G04 end of side 3*
G01X0Y0D01*

G04 -------------- Draw Parts, Pads, Traces, Vias and Text (positive)*
%LPD*%
G04 Draw part U1*
G54D11*
G01X1500Y400D03*
G01X1696Y400D03*
G01X1893Y400D03*
G01X1500Y596D03*
G01X1893Y596D03*
G01X1500Y793D03*
G01X1696Y793D03*
G01X1893Y793D03*
G01X1500Y990D03*
G01X1696Y990D03*
G01X1893Y990D03*
G04 Draw part H1*
G54D12*
G01X1305Y3600D03*
G01X1462Y3600D03*
G01X1619Y3600D03*
G01X1777Y3600D03*
G01X1934Y3600D03*
G01X2092Y3600D03*
G01X2092Y4820D03*
G01X1934Y4820D03*
G01X1777Y4820D03*
G01X1619Y4820D03*
G01X1462Y4820D03*
G01X1305Y4820D03*
G54D13*
G01X930Y3619D03*
G01X930Y4800D03*
G01X2466Y4800D03*
G01X2466Y3619D03*
G04 Draw part H2*
G04 Draw part U2*
G54D14*
G01X1900Y2330D03*
G01X1703Y2330D03*
G01X1506Y2330D03*
G01X1900Y2133D03*
G01X1506Y2133D03*
G01X1900Y1936D03*
G01X1703Y1936D03*
G01X1506Y1936D03*
G04 Draw part U3*
G01X1000Y2340D03*
G01X803Y2340D03*
G01X606Y2340D03*
G01X1000Y2143D03*
G01X606Y2143D03*
G01X1000Y1946D03*
G01X803Y1946D03*
G01X606Y1946D03*
G04 Draw part C1*
G54D15*
G01X1700Y3000D03*
G01X1906Y3000D03*
G04 Draw part R1*
G01X2600Y2000D03*
G01X2806Y2000D03*
G04 Draw part R2*
G01X1700Y2700D03*
G01X1906Y2700D03*
G04 Draw part R3*
G01X2200Y3000D03*
G01X2200Y2793D03*
G04 Draw part R4*
G01X2600Y2500D03*
G01X2806Y2500D03*
G04 Draw part R5*
G01X2800Y1500D03*
G01X2593Y1500D03*
G04 Draw part C2*
G01X700Y1400D03*
G01X906Y1400D03*
G04 Draw part C3*
G01X700Y3000D03*
G01X906Y3000D03*
G04 Draw part P1*
G54D16*
G01X3150Y2000D03*
G04 Draw part P2*
G01X3150Y2500D03*
G04 Draw part P3*
G01X3150Y1500D03*
G04 Draw part R6*
G54D15*
G01X200Y1400D03*
G01X406Y1400D03*
G04 Draw part R7*
G01X400Y3000D03*
G01X193Y3000D03*
G04 Draw part R8*
G01X700Y2700D03*
G01X906Y2700D03*
G04 Draw part R9*
G01X3050Y3500D03*
G01X3050Y3293D03*
G04 Draw part R10*
G01X2900Y4000D03*
G01X2900Y3793D03*
G04 Draw part C4*
G01X3200Y3800D03*
G01X3200Y4006D03*
G04 Draw part R11*
G01X2300Y600D03*
G01X2300Y806D03*

G04 Draw traces*
G54D17*
G01X1500Y990D02*
G01X1500Y1160D01*
G01X1500Y1160D02*
G01X1700Y1160D01*
G01X1700Y1160D02*
G01X1700Y1000D01*
G01X1700Y1000D02*
G01X1696Y990D01*
G01X1000Y2143D02*
G01X1030Y2140D01*
G01X1030Y2140D02*
G01X1070Y2140D01*
G01X1070Y2140D02*
G01X1170Y2240D01*
G01X1170Y2240D02*
G01X1170Y2690D01*
G01X1170Y2690D02*
G01X1370Y2890D01*
G54D18*
G01X1370Y2890D03*
G01X2210Y2030D03*
G54D17*
G01X2210Y2030D02*
G01X2110Y2130D01*
G01X2110Y2130D02*
G01X1930Y2130D01*
G01X1930Y2130D02*
G01X1900Y2133D01*
G01X1696Y990D02*
G01X1700Y990D01*
G01X1700Y990D02*
G01X1700Y1390D01*
G54D18*
G01X1700Y1390D03*
G01X2880Y3090D03*
G54D17*
G01X3050Y3293D02*
G01X3050Y3140D01*
G01X3050Y3140D02*
G01X3000Y3090D01*
G01X3000Y3090D02*
G01X2880Y3090D01*
G54D19*
G01X1462Y4820D02*
G01X1460Y4760D01*
G01X1460Y4760D02*
G01X1460Y4430D01*
G01X1460Y4430D02*
G01X1461Y4420D01*
G54D18*
G01X1461Y4420D03*
G01X1305Y4000D03*
G54D19*
G01X1305Y4000D02*
G01X1310Y3940D01*
G01X1310Y3940D02*
G01X1310Y3620D01*
G01X1310Y3620D02*
G01X1305Y3600D01*
G01X906Y2700D02*
G01X906Y2986D01*
G01X906Y2986D02*
G01X910Y2990D01*
G01X910Y2990D02*
G01X906Y3000D01*
G01X1000Y2340D02*
G01X1000Y2480D01*
G01X1000Y2480D02*
G01X900Y2580D01*
G01X900Y2580D02*
G01X900Y2660D01*
G01X900Y2660D02*
G01X906Y2700D01*
G01X906Y3000D02*
G01X1070Y3000D01*
G01X1070Y3000D02*
G01X1460Y3390D01*
G01X1460Y3390D02*
G01X1460Y3670D01*
G01X1460Y3670D02*
G01X1462Y3600D01*
G54D18*
G01X1461Y4140D03*
G54D19*
G01X1461Y4140D02*
G01X1460Y4130D01*
G01X1460Y4130D02*
G01X1460Y3710D01*
G01X1460Y3710D02*
G01X1470Y3640D01*
G01X1470Y3640D02*
G01X1462Y3600D01*
G01X700Y2700D02*
G01X700Y3000D01*
G01X700Y2700D02*
G01X700Y2580D01*
G01X700Y2580D02*
G01X800Y2480D01*
G01X800Y2480D02*
G01X800Y2340D01*
G01X800Y2340D02*
G01X803Y2340D01*
G01X700Y3000D02*
G01X400Y3000D01*
G54D18*
G01X1620Y4000D03*
G54D19*
G01X1620Y4000D02*
G01X1620Y3630D01*
G01X1620Y3630D02*
G01X1619Y3600D01*
G01X3150Y1500D02*
G01X2800Y1500D01*
G01X2800Y1500D02*
G01X2800Y1530D01*
G01X2800Y1530D02*
G01X2800Y500D01*
G01X2800Y500D02*
G01X2700Y400D01*
G01X2700Y400D02*
G01X1893Y400D01*
G54D17*
G01X2900Y3793D02*
G01X2910Y3780D01*
G01X2910Y3780D02*
G01X3050Y3640D01*
G01X3050Y3640D02*
G01X3050Y3500D01*
G01X3200Y3800D02*
G01X3190Y3780D01*
G01X3190Y3780D02*
G01X3050Y3640D01*
G01X1506Y2330D02*
G01X1500Y2370D01*
G01X1500Y2370D02*
G01X1500Y2500D01*
G01X1500Y2500D02*
G01X1370Y2630D01*
G54D18*
G01X1370Y2630D03*
G01X2710Y3330D03*
G54D17*
G01X2710Y3330D02*
G01X2880Y3500D01*
G01X2880Y3500D02*
G01X3050Y3500D01*
G01X606Y2340D02*
G01X600Y2350D01*
G01X600Y2350D02*
G01X400Y2550D01*
G01X400Y2550D02*
G01X400Y2700D01*
G54D18*
G01X400Y2700D03*
G54D17*
G01X606Y1946D02*
G01X610Y1950D01*
G01X610Y1950D02*
G01X410Y1750D01*
G01X410Y1750D02*
G01X410Y1600D01*
G54D18*
G01X410Y1600D03*
G01X1777Y4140D03*
G54D19*
G01X1777Y4140D02*
G01X1780Y4090D01*
G01X1780Y4090D02*
G01X1780Y3650D01*
G01X1780Y3650D02*
G01X1777Y3600D01*
G01X2300Y806D02*
G01X2290Y810D01*
G01X2290Y810D02*
G01X2273Y793D01*
G01X2273Y793D02*
G01X1893Y793D01*
G01X193Y3000D02*
G01X120Y3000D01*
G01X120Y3000D02*
G01X120Y1400D01*
G01X120Y1400D02*
G01X200Y1400D01*
G01X200Y1400D02*
G01X120Y1400D01*
G01X120Y1400D02*
G01X120Y1590D01*
G01X120Y1590D02*
G01X120Y1290D01*
G01X120Y1290D02*
G01X616Y793D01*
G01X616Y793D02*
G01X1500Y793D01*
G01X2300Y600D02*
G01X2310Y590D01*
G01X2310Y590D02*
G01X2303Y596D01*
G01X2303Y596D02*
G01X1893Y596D01*
G01X1906Y2700D02*
G01X1906Y2983D01*
G01X1906Y2983D02*
G01X1900Y2990D01*
G01X1900Y2990D02*
G01X1906Y3000D01*
G01X1906Y2700D02*
G01X1900Y2690D01*
G01X1900Y2690D02*
G01X1900Y2330D01*
G01X2600Y2000D02*
G01X2550Y2000D01*
G01X2550Y2000D02*
G01X2220Y2330D01*
G01X2220Y2330D02*
G01X1900Y2330D01*
G54D18*
G01X1940Y4280D03*
G54D19*
G01X1940Y4280D02*
G01X1940Y4780D01*
G01X1940Y4780D02*
G01X1934Y4820D01*
G01X1700Y2700D02*
G01X1700Y3000D01*
G01X1700Y2700D02*
G01X1700Y2690D01*
G01X1700Y2690D02*
G01X1703Y2686D01*
G01X1703Y2686D02*
G01X1703Y2330D01*
G01X2200Y3000D02*
G01X2200Y3160D01*
G01X2200Y3160D02*
G01X1700Y3160D01*
G01X1700Y3160D02*
G01X1700Y3000D01*
G54D18*
G01X2092Y4140D03*
G54D19*
G01X2092Y4140D02*
G01X2090Y4070D01*
G01X2090Y4070D02*
G01X2090Y3690D01*
G01X2090Y3690D02*
G01X2100Y3610D01*
G01X2100Y3610D02*
G01X2092Y3600D01*
G01X3150Y2000D02*
G01X2806Y2000D01*
G01X1703Y1936D02*
G01X1700Y1920D01*
G01X1700Y1920D02*
G01X1700Y1750D01*
G01X1700Y1750D02*
G01X1900Y1750D01*
G01X1900Y1750D02*
G01X1900Y1936D01*
G01X1900Y1936D02*
G01X1900Y1750D01*
G01X1900Y1750D02*
G01X2220Y1750D01*
G01X2220Y1750D02*
G01X2380Y1590D01*
G54D18*
G01X2380Y1590D03*
G01X2380Y2500D03*
G54D19*
G01X2380Y2500D02*
G01X2200Y2680D01*
G01X2200Y2680D02*
G01X2200Y2793D01*
G54D18*
G01X1620Y4280D03*
G54D19*
G01X1620Y4280D02*
G01X1619Y4310D01*
G01X1619Y4310D02*
G01X1619Y4820D01*
G54D18*
G01X1777Y4420D03*
G54D19*
G01X1777Y4420D02*
G01X1777Y4432D01*
G01X1777Y4432D02*
G01X1777Y4820D01*
G01X2600Y2500D02*
G01X2600Y2720D01*
G54D18*
G01X2600Y2720D03*
G01X2600Y1750D03*
G54D19*
G01X2600Y1750D02*
G01X2600Y1500D01*
G01X2600Y1500D02*
G01X2593Y1500D01*
G01X1506Y1936D02*
G01X1500Y1940D01*
G01X1500Y1940D02*
G01X1500Y1590D01*
G01X1500Y1590D02*
G01X2100Y1590D01*
G01X2100Y1590D02*
G01X2290Y1400D01*
G01X2290Y1400D02*
G01X2490Y1400D01*
G01X2490Y1400D02*
G01X2593Y1500D01*
G54D17*
G01X606Y2143D02*
G01X600Y2140D01*
G01X600Y2140D02*
G01X596Y2143D01*
G01X596Y2143D02*
G01X590Y2140D01*
G01X590Y2140D02*
G01X400Y2140D01*
G01X400Y2140D02*
G01X300Y2040D01*
G54D18*
G01X300Y2040D03*
G54D17*
G01X1500Y400D02*
G01X1090Y400D01*
G54D18*
G01X1090Y400D03*
G54D17*
G01X1506Y2133D02*
G01X1490Y2130D01*
G01X1490Y2130D02*
G01X1370Y2130D01*
G01X1370Y2130D02*
G01X1260Y2020D01*
G01X1260Y2020D02*
G01X1260Y1600D01*
G54D18*
G01X1260Y1600D03*
G54D17*
G01X2900Y4000D02*
G01X3050Y4150D01*
G01X3050Y4150D02*
G01X3190Y4010D01*
G01X3190Y4010D02*
G01X3200Y4006D01*
G54D18*
G01X3050Y4280D03*
G54D17*
G01X3050Y4280D02*
G01X3050Y4150D01*
G54D18*
G01X1305Y4280D03*
G54D17*
G01X1305Y4280D02*
G01X1310Y4800D01*
G01X1310Y4800D02*
G01X1305Y4820D01*
G54D19*
G01X1000Y1946D02*
G01X1000Y1820D01*
G01X1000Y1820D02*
G01X900Y1720D01*
G01X900Y1720D02*
G01X900Y1390D01*
G01X900Y1390D02*
G01X906Y1400D01*
G01X1500Y596D02*
G01X906Y596D01*
G01X906Y596D02*
G01X900Y590D01*
G54D18*
G01X900Y590D03*
G01X900Y1000D03*
G54D19*
G01X900Y1000D02*
G01X900Y1580D01*
G01X900Y1580D02*
G01X900Y1410D01*
G01X900Y1410D02*
G01X906Y1400D01*
G54D18*
G01X2092Y4420D03*
G54D19*
G01X2092Y4420D02*
G01X2090Y4460D01*
G01X2090Y4460D02*
G01X2090Y4810D01*
G01X2090Y4810D02*
G01X2092Y4820D01*
G01X1893Y990D02*
G01X1910Y970D01*
G01X1910Y970D02*
G01X2600Y970D01*
G54D18*
G01X2600Y970D03*
G01X2810Y2260D03*
G54D19*
G01X2810Y2260D02*
G01X2806Y2263D01*
G01X2806Y2263D02*
G01X2806Y2500D01*
G01X2806Y2500D02*
G01X3150Y2500D01*
G54D18*
G01X1935Y4000D03*
G54D19*
G01X1935Y4000D02*
G01X1930Y3940D01*
G01X1930Y3940D02*
G01X1930Y3680D01*
G01X1930Y3680D02*
G01X1940Y3610D01*
G01X1940Y3610D02*
G01X1934Y3600D01*
G01X700Y1400D02*
G01X720Y1400D01*
G01X720Y1400D02*
G01X380Y1400D01*
G01X380Y1400D02*
G01X406Y1400D01*
G01X700Y1400D02*
G01X710Y1400D01*
G01X710Y1400D02*
G01X703Y1406D01*
G01X703Y1406D02*
G01X703Y1723D01*
G01X703Y1723D02*
G01X800Y1820D01*
G01X800Y1820D02*
G01X800Y1940D01*
G01X800Y1940D02*
G01X803Y1946D01*

G04 Draw Text*
M00*
M02*
