G04 FreePCB version 1.359*
G04 C:\Users\Jack Ruby\Documents\GitHub\DAQpack_mk2\bioampModule_CAM\top_silk.grb*
G04 top silk layer *
G04 Scale: 100 percent, Rotated: No, Reflected: No *
%FSLAX24Y24*%
%MOIN*%
%LN top silk *%
G04 Rounded Rectangle Macro, params: W/2, H/2, R *
%AMRNDREC*
21,1,$1+$1,$2+$2-$3-$3,0,0,0*
21,1,$1+$1-$3-$3,$2+$2,0,0,0*
1,1,$3+$3,$1-$3,$2-$3*
1,1,$3+$3,$3-$1,$2-$3*
1,1,$3+$3,$1-$3,$3-$2*
1,1,$3+$3,$3-$1,$3-$2*%
G04 Rectangular Thermal Macro, params: W/2, H/2, T/2 *
%AMRECTHERM*
$4=$3/2*
21,1,$1-$3,$2-$3,0-$1/2-$4,0-$2/2-$4,0*
21,1,$1-$3,$2-$3,0-$1/2-$4,$2/2+$4,0*
21,1,$1-$3,$2-$3,$1/2+$4,0-$2/2-$4,0*
21,1,$1-$3,$2-$3,$1/2+$4,$2/2+$4,0*%
%ADD10C,0.005000*%
%ADD11C,0.010000*%
G90*
G70D02*

G04 Step and Repeat for panelization *

G04 ----------------------- Draw board outline (positive)*
%LPD*%
G54D10*
G01X0Y0D02*
G01X0Y5150D01*
G04 end of side 1*
G01X3430Y5150D01*
G04 end of side 2*
G01X3430Y0D01*
G04 end of side 3*
G01X0Y0D01*

G04 -------------- Draw Parts, Pads, Traces, Vias and Text (positive)*
%LPD*%
G04 Draw part U1*
G04 draw part outline for part U1*
G04 draw reference designator for part U1*
G54D10*
G01X2500Y-122D02*
G01X2500Y-463D01*
G01X2500Y-463D02*
G01X2522Y-531D01*
G01X2522Y-531D02*
G01X2568Y-577D01*
G01X2568Y-577D02*
G01X2636Y-600D01*
G01X2681Y-600D02*
G01X2636Y-600D01*
G01X2750Y-577D02*
G01X2681Y-600D01*
G01X2795Y-531D02*
G01X2750Y-577D01*
G01X2818Y-463D02*
G01X2795Y-531D01*
G01X2818Y-122D02*
G01X2818Y-463D01*
G01X3045Y-190D02*
G01X3000Y-213D01*
G01X3113Y-122D02*
G01X3045Y-190D01*
G01X3113Y-122D02*
G01X3113Y-600D01*
G04 Draw part H1*
G04 draw part outline for part H1*
G04 draw reference designator for part H1*
G01X2505Y6877D02*
G01X2505Y6400D01*
G01X2823Y6877D02*
G01X2823Y6400D01*
G01X2823Y6650D02*
G01X2505Y6650D01*
G01X3050Y6809D02*
G01X3005Y6786D01*
G01X3118Y6877D02*
G01X3050Y6809D01*
G01X3118Y6877D02*
G01X3118Y6400D01*
G04 Draw part H2*
G04 Draw part U2*
G04 draw part outline for part U2*
G04 draw reference designator for part U2*
G01X900Y852D02*
G01X900Y1193D01*
G01X900Y1193D02*
G01X877Y1261D01*
G01X877Y1261D02*
G01X831Y1307D01*
G01X831Y1307D02*
G01X763Y1330D01*
G01X718Y1330D02*
G01X763Y1330D01*
G01X650Y1307D02*
G01X718Y1330D01*
G01X604Y1261D02*
G01X650Y1307D01*
G01X581Y1193D02*
G01X604Y1261D01*
G01X581Y852D02*
G01X581Y1193D01*
G01X377Y943D02*
G01X377Y966D01*
G01X354Y898D02*
G01X377Y943D01*
G01X331Y875D02*
G01X354Y898D01*
G01X286Y852D02*
G01X331Y875D01*
G01X195Y852D02*
G01X286Y852D01*
G01X195Y852D02*
G01X150Y875D01*
G01X150Y875D02*
G01X127Y898D01*
G01X127Y898D02*
G01X104Y943D01*
G01X104Y943D02*
G01X104Y989D01*
G01X104Y989D02*
G01X127Y1034D01*
G01X127Y1034D02*
G01X172Y1102D01*
G01X172Y1102D02*
G01X400Y1330D01*
G01X81Y1330D02*
G01X400Y1330D01*
G04 Draw part U3*
G04 draw part outline for part U3*
G04 draw reference designator for part U3*
G01X0Y862D02*
G01X0Y1203D01*
G01X0Y1203D02*
G01X-22Y1271D01*
G01X-22Y1271D02*
G01X-68Y1317D01*
G01X-68Y1317D02*
G01X-136Y1340D01*
G01X-181Y1340D02*
G01X-136Y1340D01*
G01X-250Y1317D02*
G01X-181Y1340D01*
G01X-295Y1271D02*
G01X-250Y1317D01*
G01X-318Y1203D02*
G01X-295Y1271D01*
G01X-318Y862D02*
G01X-318Y1203D01*
G01X-795Y862D02*
G01X-545Y862D01*
G01X-795Y862D02*
G01X-659Y1044D01*
G01X-727Y1044D02*
G01X-659Y1044D01*
G01X-727Y1044D02*
G01X-772Y1067D01*
G01X-772Y1067D02*
G01X-795Y1090D01*
G01X-795Y1090D02*
G01X-818Y1158D01*
G01X-818Y1158D02*
G01X-818Y1203D01*
G01X-818Y1203D02*
G01X-795Y1271D01*
G01X-795Y1271D02*
G01X-750Y1317D01*
G01X-750Y1317D02*
G01X-681Y1340D01*
G01X-613Y1340D02*
G01X-681Y1340D01*
G01X-545Y1317D02*
G01X-613Y1340D01*
G01X-522Y1294D02*
G01X-545Y1317D01*
G01X-500Y1249D02*
G01X-522Y1294D01*
G04 Draw part C1*
G04 draw part outline for part C1*
G04 draw reference designator for part C1*
G01X3518Y3609D02*
G01X3540Y3563D01*
G01X3472Y3654D02*
G01X3518Y3609D01*
G01X3427Y3677D02*
G01X3472Y3654D01*
G01X3336Y3677D02*
G01X3427Y3677D01*
G01X3336Y3677D02*
G01X3290Y3654D01*
G01X3290Y3654D02*
G01X3245Y3609D01*
G01X3245Y3609D02*
G01X3222Y3563D01*
G01X3222Y3563D02*
G01X3200Y3495D01*
G01X3200Y3495D02*
G01X3200Y3381D01*
G01X3200Y3381D02*
G01X3222Y3313D01*
G01X3222Y3313D02*
G01X3245Y3268D01*
G01X3245Y3268D02*
G01X3290Y3222D01*
G01X3290Y3222D02*
G01X3336Y3200D01*
G01X3427Y3200D02*
G01X3336Y3200D01*
G01X3472Y3222D02*
G01X3427Y3200D01*
G01X3518Y3268D02*
G01X3472Y3222D01*
G01X3540Y3313D02*
G01X3518Y3268D01*
G01X3768Y3609D02*
G01X3722Y3586D01*
G01X3836Y3677D02*
G01X3768Y3609D01*
G01X3836Y3677D02*
G01X3836Y3200D01*
G04 draw value for part C1*
G01X2490Y4854D02*
G01X2945Y4854D01*
G01X2490Y4854D02*
G01X2445Y4445D01*
G01X2490Y4490D02*
G01X2445Y4445D01*
G01X2627Y4536D02*
G01X2490Y4490D01*
G01X2763Y4536D02*
G01X2627Y4536D01*
G01X2763Y4536D02*
G01X2900Y4490D01*
G01X2900Y4490D02*
G01X2990Y4400D01*
G01X2990Y4400D02*
G01X3036Y4263D01*
G01X3036Y4263D02*
G01X3036Y4172D01*
G01X3036Y4172D02*
G01X2990Y4036D01*
G01X2990Y4036D02*
G01X2900Y3945D01*
G01X2900Y3945D02*
G01X2763Y3900D01*
G01X2627Y3900D02*
G01X2763Y3900D01*
G01X2490Y3945D02*
G01X2627Y3900D01*
G01X2445Y3990D02*
G01X2490Y3945D01*
G01X2400Y4081D02*
G01X2445Y3990D01*
G01X3672Y4854D02*
G01X3536Y4809D01*
G01X3536Y4809D02*
G01X3445Y4672D01*
G01X3445Y4672D02*
G01X3400Y4445D01*
G01X3400Y4445D02*
G01X3400Y4309D01*
G01X3400Y4309D02*
G01X3445Y4081D01*
G01X3445Y4081D02*
G01X3536Y3945D01*
G01X3536Y3945D02*
G01X3672Y3900D01*
G01X3763Y3900D02*
G01X3672Y3900D01*
G01X3900Y3945D02*
G01X3763Y3900D01*
G01X3990Y4081D02*
G01X3900Y3945D01*
G01X4036Y4309D02*
G01X3990Y4081D01*
G01X4036Y4445D02*
G01X4036Y4309D01*
G01X3990Y4672D02*
G01X4036Y4445D01*
G01X3900Y4809D02*
G01X3990Y4672D01*
G01X3763Y4854D02*
G01X3900Y4809D01*
G01X3672Y4854D02*
G01X3763Y4854D01*
G01X4400Y4536D02*
G01X4400Y3581D01*
G01X4490Y4490D02*
G01X4400Y4400D01*
G01X4581Y4536D02*
G01X4490Y4490D01*
G01X4718Y4536D02*
G01X4581Y4536D01*
G01X4718Y4536D02*
G01X4809Y4490D01*
G01X4809Y4490D02*
G01X4900Y4400D01*
G01X4900Y4400D02*
G01X4945Y4263D01*
G01X4945Y4263D02*
G01X4945Y4172D01*
G01X4945Y4172D02*
G01X4900Y4036D01*
G01X4900Y4036D02*
G01X4809Y3945D01*
G01X4809Y3945D02*
G01X4718Y3900D01*
G01X4581Y3900D02*
G01X4718Y3900D01*
G01X4490Y3945D02*
G01X4581Y3900D01*
G01X4400Y4036D02*
G01X4490Y3945D01*
G01X5309Y4854D02*
G01X5309Y3900D01*
G01X5900Y4854D02*
G01X5309Y4854D01*
G01X5672Y4400D02*
G01X5309Y4400D01*
G04 Draw part R1*
G04 draw part outline for part R1*
G04 draw reference designator for part R1*
G01X4100Y2677D02*
G01X4100Y2200D01*
G01X4304Y2677D02*
G01X4100Y2677D01*
G01X4304Y2677D02*
G01X4372Y2654D01*
G01X4372Y2654D02*
G01X4395Y2631D01*
G01X4395Y2631D02*
G01X4418Y2586D01*
G01X4418Y2586D02*
G01X4418Y2540D01*
G01X4418Y2540D02*
G01X4395Y2495D01*
G01X4395Y2495D02*
G01X4372Y2472D01*
G01X4372Y2472D02*
G01X4304Y2450D01*
G01X4100Y2450D02*
G01X4304Y2450D01*
G01X4259Y2450D02*
G01X4418Y2200D01*
G01X4645Y2609D02*
G01X4600Y2586D01*
G01X4713Y2677D02*
G01X4645Y2609D01*
G01X4713Y2677D02*
G01X4713Y2200D01*
G04 draw value for part R1*
G01X3390Y3718D02*
G01X3300Y3672D01*
G01X3527Y3854D02*
G01X3390Y3718D01*
G01X3527Y3854D02*
G01X3527Y2900D01*
G01X4163Y3854D02*
G01X4027Y3809D01*
G01X4027Y3809D02*
G01X3936Y3672D01*
G01X3936Y3672D02*
G01X3890Y3445D01*
G01X3890Y3445D02*
G01X3890Y3309D01*
G01X3890Y3309D02*
G01X3936Y3081D01*
G01X3936Y3081D02*
G01X4027Y2945D01*
G01X4027Y2945D02*
G01X4163Y2900D01*
G01X4254Y2900D02*
G01X4163Y2900D01*
G01X4390Y2945D02*
G01X4254Y2900D01*
G01X4481Y3081D02*
G01X4390Y2945D01*
G01X4527Y3309D02*
G01X4481Y3081D01*
G01X4527Y3445D02*
G01X4527Y3309D01*
G01X4481Y3672D02*
G01X4527Y3445D01*
G01X4390Y3809D02*
G01X4481Y3672D01*
G01X4254Y3854D02*
G01X4390Y3809D01*
G01X4163Y3854D02*
G01X4254Y3854D01*
G01X5163Y3854D02*
G01X5027Y3809D01*
G01X5027Y3809D02*
G01X4936Y3672D01*
G01X4936Y3672D02*
G01X4890Y3445D01*
G01X4890Y3445D02*
G01X4890Y3309D01*
G01X4890Y3309D02*
G01X4936Y3081D01*
G01X4936Y3081D02*
G01X5027Y2945D01*
G01X5027Y2945D02*
G01X5163Y2900D01*
G01X5254Y2900D02*
G01X5163Y2900D01*
G01X5390Y2945D02*
G01X5254Y2900D01*
G01X5481Y3081D02*
G01X5390Y2945D01*
G01X5527Y3309D02*
G01X5481Y3081D01*
G01X5527Y3445D02*
G01X5527Y3309D01*
G01X5481Y3672D02*
G01X5527Y3445D01*
G01X5390Y3809D02*
G01X5481Y3672D01*
G01X5254Y3854D02*
G01X5390Y3809D01*
G01X5163Y3854D02*
G01X5254Y3854D01*
G01X5890Y3854D02*
G01X5890Y2900D01*
G01X6527Y3854D02*
G01X5890Y3218D01*
G01X6118Y3445D02*
G01X6527Y2900D01*
G04 Draw part R2*
G04 draw part outline for part R2*
G04 draw reference designator for part R2*
G01X3200Y3377D02*
G01X3200Y2900D01*
G01X3404Y3377D02*
G01X3200Y3377D01*
G01X3404Y3377D02*
G01X3472Y3354D01*
G01X3472Y3354D02*
G01X3495Y3331D01*
G01X3495Y3331D02*
G01X3518Y3286D01*
G01X3518Y3286D02*
G01X3518Y3240D01*
G01X3518Y3240D02*
G01X3495Y3195D01*
G01X3495Y3195D02*
G01X3472Y3172D01*
G01X3472Y3172D02*
G01X3404Y3150D01*
G01X3200Y3150D02*
G01X3404Y3150D01*
G01X3359Y3150D02*
G01X3518Y2900D01*
G01X3722Y3286D02*
G01X3722Y3263D01*
G01X3745Y3331D02*
G01X3722Y3286D01*
G01X3768Y3354D02*
G01X3745Y3331D01*
G01X3813Y3377D02*
G01X3768Y3354D01*
G01X3904Y3377D02*
G01X3813Y3377D01*
G01X3904Y3377D02*
G01X3950Y3354D01*
G01X3950Y3354D02*
G01X3972Y3331D01*
G01X3972Y3331D02*
G01X3995Y3286D01*
G01X3995Y3286D02*
G01X3995Y3240D01*
G01X3995Y3240D02*
G01X3972Y3195D01*
G01X3972Y3195D02*
G01X3927Y3127D01*
G01X3927Y3127D02*
G01X3700Y2900D01*
G01X4018Y2900D02*
G01X3700Y2900D01*
G04 draw value for part R2*
G01X2990Y4554D02*
G01X2490Y4554D01*
G01X2990Y4554D02*
G01X2718Y4190D01*
G01X2854Y4190D02*
G01X2718Y4190D01*
G01X2854Y4190D02*
G01X2945Y4145D01*
G01X2945Y4145D02*
G01X2990Y4100D01*
G01X2990Y4100D02*
G01X3036Y3963D01*
G01X3036Y3963D02*
G01X3036Y3872D01*
G01X3036Y3872D02*
G01X2990Y3736D01*
G01X2990Y3736D02*
G01X2900Y3645D01*
G01X2900Y3645D02*
G01X2763Y3600D01*
G01X2627Y3600D02*
G01X2763Y3600D01*
G01X2490Y3645D02*
G01X2627Y3600D01*
G01X2445Y3690D02*
G01X2490Y3645D01*
G01X2400Y3781D02*
G01X2445Y3690D01*
G01X3990Y4236D02*
G01X3945Y4100D01*
G01X3945Y4100D02*
G01X3854Y4009D01*
G01X3854Y4009D02*
G01X3718Y3963D01*
G01X3672Y3963D02*
G01X3718Y3963D01*
G01X3536Y4009D02*
G01X3672Y3963D01*
G01X3445Y4100D02*
G01X3536Y4009D01*
G01X3400Y4236D02*
G01X3445Y4100D01*
G01X3400Y4281D02*
G01X3400Y4236D01*
G01X3445Y4418D02*
G01X3400Y4281D01*
G01X3536Y4509D02*
G01X3445Y4418D01*
G01X3672Y4554D02*
G01X3536Y4509D01*
G01X3718Y4554D02*
G01X3672Y4554D01*
G01X3718Y4554D02*
G01X3854Y4509D01*
G01X3854Y4509D02*
G01X3945Y4418D01*
G01X3945Y4418D02*
G01X3990Y4236D01*
G01X3990Y4236D02*
G01X3990Y4009D01*
G01X3990Y4009D02*
G01X3945Y3781D01*
G01X3945Y3781D02*
G01X3854Y3645D01*
G01X3854Y3645D02*
G01X3718Y3600D01*
G01X3627Y3600D02*
G01X3718Y3600D01*
G01X3490Y3645D02*
G01X3627Y3600D01*
G01X3445Y3736D02*
G01X3490Y3645D01*
G01X4627Y4554D02*
G01X4490Y4509D01*
G01X4490Y4509D02*
G01X4400Y4372D01*
G01X4400Y4372D02*
G01X4354Y4145D01*
G01X4354Y4145D02*
G01X4354Y4009D01*
G01X4354Y4009D02*
G01X4400Y3781D01*
G01X4400Y3781D02*
G01X4490Y3645D01*
G01X4490Y3645D02*
G01X4627Y3600D01*
G01X4718Y3600D02*
G01X4627Y3600D01*
G01X4854Y3645D02*
G01X4718Y3600D01*
G01X4945Y3781D02*
G01X4854Y3645D01*
G01X4990Y4009D02*
G01X4945Y3781D01*
G01X4990Y4145D02*
G01X4990Y4009D01*
G01X4945Y4372D02*
G01X4990Y4145D01*
G01X4854Y4509D02*
G01X4945Y4372D01*
G01X4718Y4554D02*
G01X4854Y4509D01*
G01X4627Y4554D02*
G01X4718Y4554D01*
G01X5354Y4554D02*
G01X5354Y3600D01*
G01X5990Y4554D02*
G01X5354Y3918D01*
G01X5581Y4145D02*
G01X5990Y3600D01*
G04 Draw part R3*
G04 draw part outline for part R3*
G04 draw reference designator for part R3*
G01X2877Y1500D02*
G01X2400Y1500D01*
G01X2877Y1295D02*
G01X2877Y1500D01*
G01X2877Y1295D02*
G01X2854Y1227D01*
G01X2854Y1227D02*
G01X2831Y1204D01*
G01X2831Y1204D02*
G01X2786Y1181D01*
G01X2786Y1181D02*
G01X2740Y1181D01*
G01X2740Y1181D02*
G01X2695Y1204D01*
G01X2695Y1204D02*
G01X2672Y1227D01*
G01X2672Y1227D02*
G01X2650Y1295D01*
G01X2650Y1500D02*
G01X2650Y1295D01*
G01X2650Y1340D02*
G01X2400Y1181D01*
G01X2877Y704D02*
G01X2877Y954D01*
G01X2877Y704D02*
G01X2695Y840D01*
G01X2695Y772D02*
G01X2695Y840D01*
G01X2695Y772D02*
G01X2672Y727D01*
G01X2672Y727D02*
G01X2650Y704D01*
G01X2650Y704D02*
G01X2581Y681D01*
G01X2581Y681D02*
G01X2536Y681D01*
G01X2536Y681D02*
G01X2468Y704D01*
G01X2468Y704D02*
G01X2422Y750D01*
G01X2422Y750D02*
G01X2400Y818D01*
G01X2400Y886D02*
G01X2400Y818D01*
G01X2422Y954D02*
G01X2400Y886D01*
G01X2445Y977D02*
G01X2422Y954D01*
G01X2490Y1000D02*
G01X2445Y977D01*
G04 draw value for part R3*
G01X3872Y2254D02*
G01X3827Y2254D01*
G01X3963Y2209D02*
G01X3872Y2254D01*
G01X4009Y2163D02*
G01X3963Y2209D01*
G01X4054Y2072D02*
G01X4009Y2163D01*
G01X4054Y1890D02*
G01X4054Y2072D01*
G01X4054Y1890D02*
G01X4009Y1800D01*
G01X4009Y1800D02*
G01X3963Y1754D01*
G01X3963Y1754D02*
G01X3872Y1709D01*
G01X3872Y1709D02*
G01X3781Y1709D01*
G01X3781Y1709D02*
G01X3690Y1754D01*
G01X3690Y1754D02*
G01X3554Y1845D01*
G01X3554Y1845D02*
G01X3100Y2300D01*
G01X3100Y1663D02*
G01X3100Y2300D01*
G01X4054Y1027D02*
G01X4009Y1163D01*
G01X4009Y1163D02*
G01X3872Y1254D01*
G01X3872Y1254D02*
G01X3645Y1300D01*
G01X3645Y1300D02*
G01X3509Y1300D01*
G01X3509Y1300D02*
G01X3281Y1254D01*
G01X3281Y1254D02*
G01X3145Y1163D01*
G01X3145Y1163D02*
G01X3100Y1027D01*
G01X3100Y936D02*
G01X3100Y1027D01*
G01X3145Y800D02*
G01X3100Y936D01*
G01X3281Y709D02*
G01X3145Y800D01*
G01X3509Y663D02*
G01X3281Y709D01*
G01X3645Y663D02*
G01X3509Y663D01*
G01X3872Y709D02*
G01X3645Y663D01*
G01X4009Y800D02*
G01X3872Y709D01*
G01X4054Y936D02*
G01X4009Y800D01*
G01X4054Y1027D02*
G01X4054Y936D01*
G01X4054Y300D02*
G01X3100Y300D01*
G01X4054Y-336D02*
G01X3418Y300D01*
G01X3645Y72D02*
G01X3100Y-336D01*
G04 Draw part R4*
G04 draw part outline for part R4*
G04 draw reference designator for part R4*
G01X4100Y3177D02*
G01X4100Y2700D01*
G01X4304Y3177D02*
G01X4100Y3177D01*
G01X4304Y3177D02*
G01X4372Y3154D01*
G01X4372Y3154D02*
G01X4395Y3131D01*
G01X4395Y3131D02*
G01X4418Y3086D01*
G01X4418Y3086D02*
G01X4418Y3040D01*
G01X4418Y3040D02*
G01X4395Y2995D01*
G01X4395Y2995D02*
G01X4372Y2972D01*
G01X4372Y2972D02*
G01X4304Y2950D01*
G01X4100Y2950D02*
G01X4304Y2950D01*
G01X4259Y2950D02*
G01X4418Y2700D01*
G01X4827Y3177D02*
G01X4600Y2859D01*
G01X4940Y2859D02*
G01X4600Y2859D01*
G01X4827Y3177D02*
G01X4827Y2700D01*
G04 draw value for part R4*
G01X3390Y4218D02*
G01X3300Y4172D01*
G01X3527Y4354D02*
G01X3390Y4218D01*
G01X3527Y4354D02*
G01X3527Y3400D01*
G01X4163Y4354D02*
G01X4027Y4309D01*
G01X4027Y4309D02*
G01X3936Y4172D01*
G01X3936Y4172D02*
G01X3890Y3945D01*
G01X3890Y3945D02*
G01X3890Y3809D01*
G01X3890Y3809D02*
G01X3936Y3581D01*
G01X3936Y3581D02*
G01X4027Y3445D01*
G01X4027Y3445D02*
G01X4163Y3400D01*
G01X4254Y3400D02*
G01X4163Y3400D01*
G01X4390Y3445D02*
G01X4254Y3400D01*
G01X4481Y3581D02*
G01X4390Y3445D01*
G01X4527Y3809D02*
G01X4481Y3581D01*
G01X4527Y3945D02*
G01X4527Y3809D01*
G01X4481Y4172D02*
G01X4527Y3945D01*
G01X4390Y4309D02*
G01X4481Y4172D01*
G01X4254Y4354D02*
G01X4390Y4309D01*
G01X4163Y4354D02*
G01X4254Y4354D01*
G01X5163Y4354D02*
G01X5027Y4309D01*
G01X5027Y4309D02*
G01X4936Y4172D01*
G01X4936Y4172D02*
G01X4890Y3945D01*
G01X4890Y3945D02*
G01X4890Y3809D01*
G01X4890Y3809D02*
G01X4936Y3581D01*
G01X4936Y3581D02*
G01X5027Y3445D01*
G01X5027Y3445D02*
G01X5163Y3400D01*
G01X5254Y3400D02*
G01X5163Y3400D01*
G01X5390Y3445D02*
G01X5254Y3400D01*
G01X5481Y3581D02*
G01X5390Y3445D01*
G01X5527Y3809D02*
G01X5481Y3581D01*
G01X5527Y3945D02*
G01X5527Y3809D01*
G01X5481Y4172D02*
G01X5527Y3945D01*
G01X5390Y4309D02*
G01X5481Y4172D01*
G01X5254Y4354D02*
G01X5390Y4309D01*
G01X5163Y4354D02*
G01X5254Y4354D01*
G01X5890Y4354D02*
G01X5890Y3400D01*
G01X6527Y4354D02*
G01X5890Y3718D01*
G01X6118Y3945D02*
G01X6527Y3400D01*
G04 Draw part R5*
G04 draw part outline for part R5*
G04 draw reference designator for part R5*
G01X1300Y822D02*
G01X1300Y1300D01*
G01X1095Y822D02*
G01X1300Y822D01*
G01X1095Y822D02*
G01X1027Y845D01*
G01X1027Y845D02*
G01X1004Y868D01*
G01X1004Y868D02*
G01X981Y913D01*
G01X981Y913D02*
G01X981Y959D01*
G01X981Y959D02*
G01X1004Y1004D01*
G01X1004Y1004D02*
G01X1027Y1027D01*
G01X1027Y1027D02*
G01X1095Y1050D01*
G01X1300Y1050D02*
G01X1095Y1050D01*
G01X1140Y1050D02*
G01X981Y1300D01*
G01X754Y822D02*
G01X527Y822D01*
G01X754Y822D02*
G01X777Y1027D01*
G01X754Y1004D02*
G01X777Y1027D01*
G01X686Y981D02*
G01X754Y1004D01*
G01X618Y981D02*
G01X686Y981D01*
G01X618Y981D02*
G01X550Y1004D01*
G01X550Y1004D02*
G01X504Y1050D01*
G01X504Y1050D02*
G01X481Y1118D01*
G01X481Y1118D02*
G01X481Y1163D01*
G01X481Y1163D02*
G01X504Y1231D01*
G01X504Y1231D02*
G01X550Y1277D01*
G01X550Y1277D02*
G01X618Y1300D01*
G01X686Y1300D02*
G01X618Y1300D01*
G01X754Y1277D02*
G01X686Y1300D01*
G01X777Y1254D02*
G01X754Y1277D01*
G01X800Y1209D02*
G01X777Y1254D01*
G04 draw value for part R5*
G01X2009Y-218D02*
G01X2100Y-172D01*
G01X1872Y-354D02*
G01X2009Y-218D01*
G01X1872Y-354D02*
G01X1872Y600D01*
G01X1236Y-354D02*
G01X1372Y-309D01*
G01X1372Y-309D02*
G01X1463Y-172D01*
G01X1463Y-172D02*
G01X1509Y54D01*
G01X1509Y54D02*
G01X1509Y190D01*
G01X1509Y190D02*
G01X1463Y418D01*
G01X1463Y418D02*
G01X1372Y554D01*
G01X1372Y554D02*
G01X1236Y600D01*
G01X1145Y600D02*
G01X1236Y600D01*
G01X1009Y554D02*
G01X1145Y600D01*
G01X918Y418D02*
G01X1009Y554D01*
G01X872Y190D02*
G01X918Y418D01*
G01X872Y54D02*
G01X872Y190D01*
G01X918Y-172D02*
G01X872Y54D01*
G01X1009Y-309D02*
G01X918Y-172D01*
G01X1145Y-354D02*
G01X1009Y-309D01*
G01X1236Y-354D02*
G01X1145Y-354D01*
G01X236Y-354D02*
G01X372Y-309D01*
G01X372Y-309D02*
G01X463Y-172D01*
G01X463Y-172D02*
G01X509Y54D01*
G01X509Y54D02*
G01X509Y190D01*
G01X509Y190D02*
G01X463Y418D01*
G01X463Y418D02*
G01X372Y554D01*
G01X372Y554D02*
G01X236Y600D01*
G01X145Y600D02*
G01X236Y600D01*
G01X9Y554D02*
G01X145Y600D01*
G01X-81Y418D02*
G01X9Y554D01*
G01X-127Y190D02*
G01X-81Y418D01*
G01X-127Y54D02*
G01X-127Y190D01*
G01X-81Y-172D02*
G01X-127Y54D01*
G01X9Y-309D02*
G01X-81Y-172D01*
G01X145Y-354D02*
G01X9Y-309D01*
G01X236Y-354D02*
G01X145Y-354D01*
G01X-490Y-354D02*
G01X-490Y600D01*
G01X-1127Y-354D02*
G01X-490Y281D01*
G01X-718Y54D02*
G01X-1127Y600D01*
G04 Draw part C2*
G04 draw part outline for part C2*
G04 draw reference designator for part C2*
G01X2518Y2009D02*
G01X2540Y1963D01*
G01X2472Y2054D02*
G01X2518Y2009D01*
G01X2427Y2077D02*
G01X2472Y2054D01*
G01X2336Y2077D02*
G01X2427Y2077D01*
G01X2336Y2077D02*
G01X2290Y2054D01*
G01X2290Y2054D02*
G01X2245Y2009D01*
G01X2245Y2009D02*
G01X2222Y1963D01*
G01X2222Y1963D02*
G01X2200Y1895D01*
G01X2200Y1895D02*
G01X2200Y1781D01*
G01X2200Y1781D02*
G01X2222Y1713D01*
G01X2222Y1713D02*
G01X2245Y1668D01*
G01X2245Y1668D02*
G01X2290Y1622D01*
G01X2290Y1622D02*
G01X2336Y1600D01*
G01X2427Y1600D02*
G01X2336Y1600D01*
G01X2472Y1622D02*
G01X2427Y1600D01*
G01X2518Y1668D02*
G01X2472Y1622D01*
G01X2540Y1713D02*
G01X2518Y1668D01*
G01X2745Y1986D02*
G01X2745Y1963D01*
G01X2768Y2031D02*
G01X2745Y1986D01*
G01X2790Y2054D02*
G01X2768Y2031D01*
G01X2836Y2077D02*
G01X2790Y2054D01*
G01X2927Y2077D02*
G01X2836Y2077D01*
G01X2927Y2077D02*
G01X2972Y2054D01*
G01X2972Y2054D02*
G01X2995Y2031D01*
G01X2995Y2031D02*
G01X3018Y1986D01*
G01X3018Y1986D02*
G01X3018Y1940D01*
G01X3018Y1940D02*
G01X2995Y1895D01*
G01X2995Y1895D02*
G01X2950Y1827D01*
G01X2950Y1827D02*
G01X2722Y1600D01*
G01X3040Y1600D02*
G01X2722Y1600D01*
G04 draw value for part C2*
G01X1490Y3118D02*
G01X1400Y3072D01*
G01X1627Y3254D02*
G01X1490Y3118D01*
G01X1627Y3254D02*
G01X1627Y2300D01*
G01X1990Y2936D02*
G01X1990Y2481D01*
G01X1990Y2481D02*
G01X2036Y2345D01*
G01X2036Y2345D02*
G01X2127Y2300D01*
G01X2263Y2300D02*
G01X2127Y2300D01*
G01X2354Y2345D02*
G01X2263Y2300D01*
G01X2490Y2481D02*
G01X2354Y2345D01*
G01X2490Y2936D02*
G01X2490Y2300D01*
G01X2854Y3254D02*
G01X2854Y2300D01*
G01X3445Y3254D02*
G01X2854Y3254D01*
G01X3218Y2800D02*
G01X2854Y2800D01*
G04 Draw part C3*
G04 draw part outline for part C3*
G04 draw reference designator for part C3*
G01X2518Y3609D02*
G01X2540Y3563D01*
G01X2472Y3654D02*
G01X2518Y3609D01*
G01X2427Y3677D02*
G01X2472Y3654D01*
G01X2336Y3677D02*
G01X2427Y3677D01*
G01X2336Y3677D02*
G01X2290Y3654D01*
G01X2290Y3654D02*
G01X2245Y3609D01*
G01X2245Y3609D02*
G01X2222Y3563D01*
G01X2222Y3563D02*
G01X2200Y3495D01*
G01X2200Y3495D02*
G01X2200Y3381D01*
G01X2200Y3381D02*
G01X2222Y3313D01*
G01X2222Y3313D02*
G01X2245Y3268D01*
G01X2245Y3268D02*
G01X2290Y3222D01*
G01X2290Y3222D02*
G01X2336Y3200D01*
G01X2427Y3200D02*
G01X2336Y3200D01*
G01X2472Y3222D02*
G01X2427Y3200D01*
G01X2518Y3268D02*
G01X2472Y3222D01*
G01X2540Y3313D02*
G01X2518Y3268D01*
G01X3018Y3677D02*
G01X2768Y3677D01*
G01X3018Y3677D02*
G01X2881Y3495D01*
G01X2950Y3495D02*
G01X2881Y3495D01*
G01X2950Y3495D02*
G01X2995Y3472D01*
G01X2995Y3472D02*
G01X3018Y3450D01*
G01X3018Y3450D02*
G01X3040Y3381D01*
G01X3040Y3381D02*
G01X3040Y3336D01*
G01X3040Y3336D02*
G01X3018Y3268D01*
G01X3018Y3268D02*
G01X2972Y3222D01*
G01X2972Y3222D02*
G01X2904Y3200D01*
G01X2836Y3200D02*
G01X2904Y3200D01*
G01X2768Y3222D02*
G01X2836Y3200D01*
G01X2745Y3245D02*
G01X2768Y3222D01*
G01X2722Y3290D02*
G01X2745Y3245D01*
G04 draw value for part C3*
G01X1490Y4718D02*
G01X1400Y4672D01*
G01X1627Y4854D02*
G01X1490Y4718D01*
G01X1627Y4854D02*
G01X1627Y3900D01*
G01X1990Y4536D02*
G01X1990Y3900D01*
G01X2127Y4490D02*
G01X1990Y4354D01*
G01X2218Y4536D02*
G01X2127Y4490D01*
G01X2354Y4536D02*
G01X2218Y4536D01*
G01X2354Y4536D02*
G01X2445Y4490D01*
G01X2445Y4490D02*
G01X2490Y4354D01*
G01X2490Y4354D02*
G01X2490Y3900D01*
G01X2854Y4854D02*
G01X2854Y3900D01*
G01X3445Y4854D02*
G01X2854Y4854D01*
G01X3218Y4400D02*
G01X2854Y4400D01*
G04 Draw part P1*
G04 draw part outline for part P1*
G04 draw reference designator for part P1*
G54D11*
G01X4150Y4954D02*
G01X4150Y4000D01*
G01X4559Y4954D02*
G01X4150Y4954D01*
G01X4559Y4954D02*
G01X4695Y4909D01*
G01X4695Y4909D02*
G01X4740Y4863D01*
G01X4740Y4863D02*
G01X4786Y4772D01*
G01X4786Y4772D02*
G01X4786Y4636D01*
G01X4786Y4636D02*
G01X4740Y4545D01*
G01X4740Y4545D02*
G01X4695Y4500D01*
G01X4695Y4500D02*
G01X4559Y4454D01*
G01X4150Y4454D02*
G01X4559Y4454D01*
G01X5240Y4818D02*
G01X5150Y4772D01*
G01X5377Y4954D02*
G01X5240Y4818D01*
G01X5377Y4954D02*
G01X5377Y4000D01*
G04 Draw part P2*
G04 draw part outline for part P2*
G04 draw reference designator for part P2*
G01X4150Y5454D02*
G01X4150Y4500D01*
G01X4559Y5454D02*
G01X4150Y5454D01*
G01X4559Y5454D02*
G01X4695Y5409D01*
G01X4695Y5409D02*
G01X4740Y5363D01*
G01X4740Y5363D02*
G01X4786Y5272D01*
G01X4786Y5272D02*
G01X4786Y5136D01*
G01X4786Y5136D02*
G01X4740Y5045D01*
G01X4740Y5045D02*
G01X4695Y5000D01*
G01X4695Y5000D02*
G01X4559Y4954D01*
G01X4150Y4954D02*
G01X4559Y4954D01*
G01X5195Y5272D02*
G01X5195Y5227D01*
G01X5240Y5363D02*
G01X5195Y5272D01*
G01X5286Y5409D02*
G01X5240Y5363D01*
G01X5377Y5454D02*
G01X5286Y5409D01*
G01X5559Y5454D02*
G01X5377Y5454D01*
G01X5559Y5454D02*
G01X5650Y5409D01*
G01X5650Y5409D02*
G01X5695Y5363D01*
G01X5695Y5363D02*
G01X5740Y5272D01*
G01X5740Y5272D02*
G01X5740Y5181D01*
G01X5740Y5181D02*
G01X5695Y5090D01*
G01X5695Y5090D02*
G01X5604Y4954D01*
G01X5604Y4954D02*
G01X5150Y4500D01*
G01X5786Y4500D02*
G01X5150Y4500D01*
G04 Draw part P3*
G04 draw part outline for part P3*
G04 draw reference designator for part P3*
G01X4150Y4454D02*
G01X4150Y3500D01*
G01X4559Y4454D02*
G01X4150Y4454D01*
G01X4559Y4454D02*
G01X4695Y4409D01*
G01X4695Y4409D02*
G01X4740Y4363D01*
G01X4740Y4363D02*
G01X4786Y4272D01*
G01X4786Y4272D02*
G01X4786Y4136D01*
G01X4786Y4136D02*
G01X4740Y4045D01*
G01X4740Y4045D02*
G01X4695Y4000D01*
G01X4695Y4000D02*
G01X4559Y3954D01*
G01X4150Y3954D02*
G01X4559Y3954D01*
G01X5740Y4454D02*
G01X5240Y4454D01*
G01X5740Y4454D02*
G01X5468Y4090D01*
G01X5604Y4090D02*
G01X5468Y4090D01*
G01X5604Y4090D02*
G01X5695Y4045D01*
G01X5695Y4045D02*
G01X5740Y4000D01*
G01X5740Y4000D02*
G01X5786Y3863D01*
G01X5786Y3863D02*
G01X5786Y3772D01*
G01X5786Y3772D02*
G01X5740Y3636D01*
G01X5740Y3636D02*
G01X5650Y3545D01*
G01X5650Y3545D02*
G01X5513Y3500D01*
G01X5377Y3500D02*
G01X5513Y3500D01*
G01X5240Y3545D02*
G01X5377Y3500D01*
G01X5195Y3590D02*
G01X5240Y3545D01*
G01X5150Y3681D02*
G01X5195Y3590D01*
G04 Draw part R6*
G04 draw part outline for part R6*
G04 draw reference designator for part R6*
G54D10*
G01X1700Y2077D02*
G01X1700Y1600D01*
G01X1904Y2077D02*
G01X1700Y2077D01*
G01X1904Y2077D02*
G01X1972Y2054D01*
G01X1972Y2054D02*
G01X1995Y2031D01*
G01X1995Y2031D02*
G01X2018Y1986D01*
G01X2018Y1986D02*
G01X2018Y1940D01*
G01X2018Y1940D02*
G01X1995Y1895D01*
G01X1995Y1895D02*
G01X1972Y1872D01*
G01X1972Y1872D02*
G01X1904Y1850D01*
G01X1700Y1850D02*
G01X1904Y1850D01*
G01X1859Y1850D02*
G01X2018Y1600D01*
G01X2450Y2054D02*
G01X2472Y2009D01*
G01X2381Y2077D02*
G01X2450Y2054D01*
G01X2336Y2077D02*
G01X2381Y2077D01*
G01X2336Y2077D02*
G01X2268Y2054D01*
G01X2268Y2054D02*
G01X2222Y1986D01*
G01X2222Y1986D02*
G01X2200Y1872D01*
G01X2200Y1872D02*
G01X2200Y1759D01*
G01X2200Y1759D02*
G01X2222Y1668D01*
G01X2222Y1668D02*
G01X2268Y1622D01*
G01X2268Y1622D02*
G01X2336Y1600D01*
G01X2359Y1600D02*
G01X2336Y1600D01*
G01X2427Y1622D02*
G01X2359Y1600D01*
G01X2472Y1668D02*
G01X2427Y1622D01*
G01X2495Y1736D02*
G01X2472Y1668D01*
G01X2495Y1759D02*
G01X2495Y1736D01*
G01X2472Y1827D02*
G01X2495Y1759D01*
G01X2427Y1872D02*
G01X2472Y1827D01*
G01X2359Y1895D02*
G01X2427Y1872D01*
G01X2336Y1895D02*
G01X2359Y1895D01*
G01X2336Y1895D02*
G01X2268Y1872D01*
G01X2268Y1872D02*
G01X2222Y1827D01*
G01X2222Y1827D02*
G01X2200Y1759D01*
G04 draw value for part R6*
G01X1490Y3254D02*
G01X990Y3254D01*
G01X1490Y3254D02*
G01X1218Y2890D01*
G01X1354Y2890D02*
G01X1218Y2890D01*
G01X1354Y2890D02*
G01X1445Y2845D01*
G01X1445Y2845D02*
G01X1490Y2800D01*
G01X1490Y2800D02*
G01X1536Y2663D01*
G01X1536Y2663D02*
G01X1536Y2572D01*
G01X1536Y2572D02*
G01X1490Y2436D01*
G01X1490Y2436D02*
G01X1400Y2345D01*
G01X1400Y2345D02*
G01X1263Y2300D01*
G01X1127Y2300D02*
G01X1263Y2300D01*
G01X990Y2345D02*
G01X1127Y2300D01*
G01X945Y2390D02*
G01X990Y2345D01*
G01X900Y2481D02*
G01X945Y2390D01*
G01X2490Y3254D02*
G01X1990Y3254D01*
G01X2490Y3254D02*
G01X2218Y2890D01*
G01X2354Y2890D02*
G01X2218Y2890D01*
G01X2354Y2890D02*
G01X2445Y2845D01*
G01X2445Y2845D02*
G01X2490Y2800D01*
G01X2490Y2800D02*
G01X2536Y2663D01*
G01X2536Y2663D02*
G01X2536Y2572D01*
G01X2536Y2572D02*
G01X2490Y2436D01*
G01X2490Y2436D02*
G01X2400Y2345D01*
G01X2400Y2345D02*
G01X2263Y2300D01*
G01X2127Y2300D02*
G01X2263Y2300D01*
G01X1990Y2345D02*
G01X2127Y2300D01*
G01X1945Y2390D02*
G01X1990Y2345D01*
G01X1900Y2481D02*
G01X1945Y2390D01*
G01X3172Y3254D02*
G01X3036Y3209D01*
G01X3036Y3209D02*
G01X2945Y3072D01*
G01X2945Y3072D02*
G01X2900Y2845D01*
G01X2900Y2845D02*
G01X2900Y2709D01*
G01X2900Y2709D02*
G01X2945Y2481D01*
G01X2945Y2481D02*
G01X3036Y2345D01*
G01X3036Y2345D02*
G01X3172Y2300D01*
G01X3263Y2300D02*
G01X3172Y2300D01*
G01X3400Y2345D02*
G01X3263Y2300D01*
G01X3490Y2481D02*
G01X3400Y2345D01*
G01X3536Y2709D02*
G01X3490Y2481D01*
G01X3536Y2845D02*
G01X3536Y2709D01*
G01X3490Y3072D02*
G01X3536Y2845D01*
G01X3400Y3209D02*
G01X3490Y3072D01*
G01X3263Y3254D02*
G01X3400Y3209D01*
G01X3172Y3254D02*
G01X3263Y3254D01*
G01X3900Y3254D02*
G01X3900Y2300D01*
G01X4536Y3254D02*
G01X3900Y2618D01*
G01X4127Y2845D02*
G01X4536Y2300D01*
G04 Draw part R7*
G04 draw part outline for part R7*
G04 draw reference designator for part R7*
G01X-1100Y2322D02*
G01X-1100Y2800D01*
G01X-1304Y2322D02*
G01X-1100Y2322D01*
G01X-1304Y2322D02*
G01X-1372Y2345D01*
G01X-1372Y2345D02*
G01X-1395Y2368D01*
G01X-1395Y2368D02*
G01X-1418Y2413D01*
G01X-1418Y2413D02*
G01X-1418Y2459D01*
G01X-1418Y2459D02*
G01X-1395Y2504D01*
G01X-1395Y2504D02*
G01X-1372Y2527D01*
G01X-1372Y2527D02*
G01X-1304Y2550D01*
G01X-1100Y2550D02*
G01X-1304Y2550D01*
G01X-1259Y2550D02*
G01X-1418Y2800D01*
G01X-1918Y2322D02*
G01X-1690Y2800D01*
G01X-1918Y2322D02*
G01X-1600Y2322D01*
G04 draw value for part R7*
G01X-754Y1145D02*
G01X-300Y1781D01*
G01X-981Y1781D02*
G01X-300Y1781D01*
G01X-754Y1145D02*
G01X-754Y2100D01*
G01X-1390Y2009D02*
G01X-1345Y2054D01*
G01X-1345Y2054D02*
G01X-1390Y2100D01*
G01X-1436Y2054D02*
G01X-1390Y2100D01*
G01X-1390Y2009D02*
G01X-1436Y2054D01*
G01X-2436Y1145D02*
G01X-1981Y2100D01*
G01X-2436Y1145D02*
G01X-1800Y1145D01*
G01X-2800Y1145D02*
G01X-2800Y2100D01*
G01X-3436Y1145D02*
G01X-2800Y1781D01*
G01X-3027Y1554D02*
G01X-3436Y2100D01*
G04 Draw part R8*
G04 draw part outline for part R8*
G04 draw reference designator for part R8*
G01X2200Y3377D02*
G01X2200Y2900D01*
G01X2404Y3377D02*
G01X2200Y3377D01*
G01X2404Y3377D02*
G01X2472Y3354D01*
G01X2472Y3354D02*
G01X2495Y3331D01*
G01X2495Y3331D02*
G01X2518Y3286D01*
G01X2518Y3286D02*
G01X2518Y3240D01*
G01X2518Y3240D02*
G01X2495Y3195D01*
G01X2495Y3195D02*
G01X2472Y3172D01*
G01X2472Y3172D02*
G01X2404Y3150D01*
G01X2200Y3150D02*
G01X2404Y3150D01*
G01X2359Y3150D02*
G01X2518Y2900D01*
G01X2813Y3377D02*
G01X2745Y3354D01*
G01X2745Y3354D02*
G01X2722Y3309D01*
G01X2722Y3309D02*
G01X2722Y3263D01*
G01X2722Y3263D02*
G01X2745Y3218D01*
G01X2745Y3218D02*
G01X2790Y3195D01*
G01X2790Y3195D02*
G01X2881Y3172D01*
G01X2881Y3172D02*
G01X2950Y3150D01*
G01X2950Y3150D02*
G01X2995Y3104D01*
G01X2995Y3104D02*
G01X3018Y3059D01*
G01X3018Y3059D02*
G01X3018Y2990D01*
G01X3018Y2990D02*
G01X2995Y2945D01*
G01X2995Y2945D02*
G01X2972Y2922D01*
G01X2972Y2922D02*
G01X2904Y2900D01*
G01X2813Y2900D02*
G01X2904Y2900D01*
G01X2745Y2922D02*
G01X2813Y2900D01*
G01X2722Y2945D02*
G01X2745Y2922D01*
G01X2700Y2990D02*
G01X2722Y2945D01*
G01X2700Y3059D02*
G01X2700Y2990D01*
G01X2722Y3104D02*
G01X2700Y3059D01*
G01X2768Y3150D02*
G01X2722Y3104D01*
G01X2836Y3172D02*
G01X2768Y3150D01*
G01X2927Y3195D02*
G01X2836Y3172D01*
G01X2972Y3218D02*
G01X2927Y3195D01*
G01X2995Y3263D02*
G01X2972Y3218D01*
G01X2995Y3309D02*
G01X2995Y3263D01*
G01X2972Y3354D02*
G01X2995Y3309D01*
G01X2904Y3377D02*
G01X2972Y3354D01*
G01X2813Y3377D02*
G01X2904Y3377D01*
G04 draw value for part R8*
G01X1627Y4554D02*
G01X1490Y4509D01*
G01X1490Y4509D02*
G01X1445Y4418D01*
G01X1445Y4418D02*
G01X1445Y4327D01*
G01X1445Y4327D02*
G01X1490Y4236D01*
G01X1490Y4236D02*
G01X1581Y4190D01*
G01X1581Y4190D02*
G01X1763Y4145D01*
G01X1763Y4145D02*
G01X1900Y4100D01*
G01X1900Y4100D02*
G01X1990Y4009D01*
G01X1990Y4009D02*
G01X2036Y3918D01*
G01X2036Y3918D02*
G01X2036Y3781D01*
G01X2036Y3781D02*
G01X1990Y3690D01*
G01X1990Y3690D02*
G01X1945Y3645D01*
G01X1945Y3645D02*
G01X1809Y3600D01*
G01X1627Y3600D02*
G01X1809Y3600D01*
G01X1490Y3645D02*
G01X1627Y3600D01*
G01X1445Y3690D02*
G01X1490Y3645D01*
G01X1400Y3781D02*
G01X1445Y3690D01*
G01X1400Y3918D02*
G01X1400Y3781D01*
G01X1445Y4009D02*
G01X1400Y3918D01*
G01X1536Y4100D02*
G01X1445Y4009D01*
G01X1672Y4145D02*
G01X1536Y4100D01*
G01X1854Y4190D02*
G01X1672Y4145D01*
G01X1945Y4236D02*
G01X1854Y4190D01*
G01X1990Y4327D02*
G01X1945Y4236D01*
G01X1990Y4418D02*
G01X1990Y4327D01*
G01X1945Y4509D02*
G01X1990Y4418D01*
G01X1809Y4554D02*
G01X1945Y4509D01*
G01X1627Y4554D02*
G01X1809Y4554D01*
G01X2900Y4509D02*
G01X2945Y4418D01*
G01X2763Y4554D02*
G01X2900Y4509D01*
G01X2672Y4554D02*
G01X2763Y4554D01*
G01X2672Y4554D02*
G01X2536Y4509D01*
G01X2536Y4509D02*
G01X2445Y4372D01*
G01X2445Y4372D02*
G01X2400Y4145D01*
G01X2400Y4145D02*
G01X2400Y3918D01*
G01X2400Y3918D02*
G01X2445Y3736D01*
G01X2445Y3736D02*
G01X2536Y3645D01*
G01X2536Y3645D02*
G01X2672Y3600D01*
G01X2718Y3600D02*
G01X2672Y3600D01*
G01X2854Y3645D02*
G01X2718Y3600D01*
G01X2945Y3736D02*
G01X2854Y3645D01*
G01X2990Y3872D02*
G01X2945Y3736D01*
G01X2990Y3918D02*
G01X2990Y3872D01*
G01X2945Y4054D02*
G01X2990Y3918D01*
G01X2854Y4145D02*
G01X2945Y4054D01*
G01X2718Y4190D02*
G01X2854Y4145D01*
G01X2672Y4190D02*
G01X2718Y4190D01*
G01X2672Y4190D02*
G01X2536Y4145D01*
G01X2536Y4145D02*
G01X2445Y4054D01*
G01X2445Y4054D02*
G01X2400Y3918D01*
G01X3627Y4554D02*
G01X3490Y4509D01*
G01X3490Y4509D02*
G01X3400Y4372D01*
G01X3400Y4372D02*
G01X3354Y4145D01*
G01X3354Y4145D02*
G01X3354Y4009D01*
G01X3354Y4009D02*
G01X3400Y3781D01*
G01X3400Y3781D02*
G01X3490Y3645D01*
G01X3490Y3645D02*
G01X3627Y3600D01*
G01X3718Y3600D02*
G01X3627Y3600D01*
G01X3854Y3645D02*
G01X3718Y3600D01*
G01X3945Y3781D02*
G01X3854Y3645D01*
G01X3990Y4009D02*
G01X3945Y3781D01*
G01X3990Y4145D02*
G01X3990Y4009D01*
G01X3945Y4372D02*
G01X3990Y4145D01*
G01X3854Y4509D02*
G01X3945Y4372D01*
G01X3718Y4554D02*
G01X3854Y4509D01*
G01X3627Y4554D02*
G01X3718Y4554D01*
G01X4354Y4554D02*
G01X4354Y3600D01*
G01X4990Y4554D02*
G01X4354Y3918D01*
G01X4581Y4145D02*
G01X4990Y3600D01*
G04 Draw part R9*
G04 draw part outline for part R9*
G04 draw reference designator for part R9*
G01X3727Y2000D02*
G01X3250Y2000D01*
G01X3727Y1795D02*
G01X3727Y2000D01*
G01X3727Y1795D02*
G01X3704Y1727D01*
G01X3704Y1727D02*
G01X3681Y1704D01*
G01X3681Y1704D02*
G01X3636Y1681D01*
G01X3636Y1681D02*
G01X3590Y1681D01*
G01X3590Y1681D02*
G01X3545Y1704D01*
G01X3545Y1704D02*
G01X3522Y1727D01*
G01X3522Y1727D02*
G01X3500Y1795D01*
G01X3500Y2000D02*
G01X3500Y1795D01*
G01X3500Y1840D02*
G01X3250Y1681D01*
G01X3568Y1204D02*
G01X3500Y1227D01*
G01X3500Y1227D02*
G01X3454Y1272D01*
G01X3454Y1272D02*
G01X3431Y1340D01*
G01X3431Y1363D02*
G01X3431Y1340D01*
G01X3454Y1431D02*
G01X3431Y1363D01*
G01X3500Y1477D02*
G01X3454Y1431D01*
G01X3568Y1500D02*
G01X3500Y1477D01*
G01X3590Y1500D02*
G01X3568Y1500D01*
G01X3659Y1477D02*
G01X3590Y1500D01*
G01X3704Y1431D02*
G01X3659Y1477D01*
G01X3727Y1363D02*
G01X3704Y1431D01*
G01X3727Y1340D02*
G01X3727Y1363D01*
G01X3727Y1340D02*
G01X3704Y1272D01*
G01X3704Y1272D02*
G01X3659Y1227D01*
G01X3659Y1227D02*
G01X3568Y1204D01*
G01X3568Y1204D02*
G01X3454Y1204D01*
G01X3454Y1204D02*
G01X3340Y1227D01*
G01X3340Y1227D02*
G01X3272Y1272D01*
G01X3272Y1272D02*
G01X3250Y1340D01*
G01X3250Y1386D02*
G01X3250Y1340D01*
G01X3272Y1454D02*
G01X3250Y1386D01*
G01X3318Y1477D02*
G01X3272Y1454D01*
G04 draw value for part R9*
G01X4768Y2709D02*
G01X4722Y2800D01*
G01X4904Y2572D02*
G01X4768Y2709D01*
G01X4904Y2572D02*
G01X3950Y2572D01*
G01X4904Y2209D02*
G01X3950Y2209D01*
G01X4904Y2209D02*
G01X3950Y1845D01*
G01X4904Y1481D02*
G01X3950Y1845D01*
G01X4904Y1481D02*
G01X3950Y1481D01*
G04 Draw part R10*
G04 draw part outline for part R10*
G04 draw reference designator for part R10*
G01X3577Y2500D02*
G01X3100Y2500D01*
G01X3577Y2295D02*
G01X3577Y2500D01*
G01X3577Y2295D02*
G01X3554Y2227D01*
G01X3554Y2227D02*
G01X3531Y2204D01*
G01X3531Y2204D02*
G01X3486Y2181D01*
G01X3486Y2181D02*
G01X3440Y2181D01*
G01X3440Y2181D02*
G01X3395Y2204D01*
G01X3395Y2204D02*
G01X3372Y2227D01*
G01X3372Y2227D02*
G01X3350Y2295D01*
G01X3350Y2500D02*
G01X3350Y2295D01*
G01X3350Y2340D02*
G01X3100Y2181D01*
G01X3509Y1954D02*
G01X3486Y2000D01*
G01X3577Y1886D02*
G01X3509Y1954D01*
G01X3577Y1886D02*
G01X3100Y1886D01*
G01X3577Y1568D02*
G01X3554Y1636D01*
G01X3554Y1636D02*
G01X3486Y1681D01*
G01X3486Y1681D02*
G01X3372Y1704D01*
G01X3372Y1704D02*
G01X3304Y1704D01*
G01X3304Y1704D02*
G01X3190Y1681D01*
G01X3190Y1681D02*
G01X3122Y1636D01*
G01X3122Y1636D02*
G01X3100Y1568D01*
G01X3100Y1522D02*
G01X3100Y1568D01*
G01X3122Y1454D02*
G01X3100Y1522D01*
G01X3190Y1409D02*
G01X3122Y1454D01*
G01X3304Y1386D02*
G01X3190Y1409D01*
G01X3372Y1386D02*
G01X3304Y1386D01*
G01X3486Y1409D02*
G01X3372Y1386D01*
G01X3554Y1454D02*
G01X3486Y1409D01*
G01X3577Y1522D02*
G01X3554Y1454D01*
G01X3577Y1568D02*
G01X3577Y1522D01*
G04 draw value for part R10*
G01X4618Y3209D02*
G01X4572Y3300D01*
G01X4754Y3072D02*
G01X4618Y3209D01*
G01X4754Y3072D02*
G01X3800Y3072D01*
G01X4754Y2709D02*
G01X3800Y2709D01*
G01X4754Y2709D02*
G01X3800Y2345D01*
G01X4754Y1981D02*
G01X3800Y2345D01*
G01X4754Y1981D02*
G01X3800Y1981D01*
G04 Draw part C4*
G04 draw part outline for part C4*
G04 draw reference designator for part C4*
G01X2590Y5618D02*
G01X2636Y5640D01*
G01X2545Y5572D02*
G01X2590Y5618D01*
G01X2522Y5527D02*
G01X2545Y5572D01*
G01X2522Y5436D02*
G01X2522Y5527D01*
G01X2522Y5436D02*
G01X2545Y5390D01*
G01X2545Y5390D02*
G01X2590Y5345D01*
G01X2590Y5345D02*
G01X2636Y5322D01*
G01X2636Y5322D02*
G01X2704Y5300D01*
G01X2704Y5300D02*
G01X2818Y5300D01*
G01X2818Y5300D02*
G01X2886Y5322D01*
G01X2886Y5322D02*
G01X2931Y5345D01*
G01X2931Y5345D02*
G01X2977Y5390D01*
G01X2977Y5390D02*
G01X3000Y5436D01*
G01X3000Y5527D02*
G01X3000Y5436D01*
G01X2977Y5572D02*
G01X3000Y5527D01*
G01X2931Y5618D02*
G01X2977Y5572D01*
G01X2886Y5640D02*
G01X2931Y5618D01*
G01X2522Y6050D02*
G01X2840Y5822D01*
G01X2840Y6163D02*
G01X2840Y5822D01*
G01X2522Y6050D02*
G01X3000Y6050D01*
G04 draw value for part C4*
G01X1481Y4590D02*
G01X1527Y4500D01*
G01X1345Y4727D02*
G01X1481Y4590D01*
G01X1345Y4727D02*
G01X2300Y4727D01*
G01X1663Y5090D02*
G01X2118Y5090D01*
G01X2118Y5090D02*
G01X2254Y5136D01*
G01X2254Y5136D02*
G01X2300Y5227D01*
G01X2300Y5363D02*
G01X2300Y5227D01*
G01X2254Y5454D02*
G01X2300Y5363D01*
G01X2118Y5590D02*
G01X2254Y5454D01*
G01X1663Y5590D02*
G01X2300Y5590D01*
G01X1345Y5954D02*
G01X2300Y5954D01*
G01X1345Y6545D02*
G01X1345Y5954D01*
G01X1800Y6318D02*
G01X1800Y5954D01*
G04 Draw part R11*
G04 draw part outline for part R11*
G04 draw reference designator for part R11*
G01X1622Y2100D02*
G01X2100Y2100D01*
G01X1622Y2304D02*
G01X1622Y2100D01*
G01X1622Y2304D02*
G01X1645Y2372D01*
G01X1645Y2372D02*
G01X1668Y2395D01*
G01X1668Y2395D02*
G01X1713Y2418D01*
G01X1713Y2418D02*
G01X1759Y2418D01*
G01X1759Y2418D02*
G01X1804Y2395D01*
G01X1804Y2395D02*
G01X1827Y2372D01*
G01X1827Y2372D02*
G01X1850Y2304D01*
G01X1850Y2100D02*
G01X1850Y2304D01*
G01X1850Y2259D02*
G01X2100Y2418D01*
G01X1690Y2645D02*
G01X1713Y2600D01*
G01X1622Y2713D02*
G01X1690Y2645D01*
G01X1622Y2713D02*
G01X2100Y2713D01*
G01X1690Y2940D02*
G01X1713Y2895D01*
G01X1622Y3009D02*
G01X1690Y2940D01*
G01X1622Y3009D02*
G01X2100Y3009D01*

G04 Draw traces*

G04 Draw Text*
M00*
M02*
