G04 FreePCB version 1.359*
G04 C:\Users\Dwight Springthorpe\Documents\GitHub\DAQpack_mk2\base_CAM\bottom_copper.grb*
G04 bottom copper layer *
G04 Scale: 100 percent, Rotated: No, Reflected: No *
%FSLAX24Y24*%
%MOIN*%
%LN bottom copper *%
G04 Rounded Rectangle Macro, params: W/2, H/2, R *
%AMRNDREC*
21,1,$1+$1,$2+$2-$3-$3,0,0,0*
21,1,$1+$1-$3-$3,$2+$2,0,0,0*
1,1,$3+$3,$1-$3,$2-$3*
1,1,$3+$3,$3-$1,$2-$3*
1,1,$3+$3,$1-$3,$3-$2*
1,1,$3+$3,$3-$1,$3-$2*%
G04 Rectangular Thermal Macro, params: W/2, H/2, T/2 *
%AMRECTHERM*
$4=$3/2*
21,1,$1-$3,$2-$3,0-$1/2-$4,0-$2/2-$4,0*
21,1,$1-$3,$2-$3,0-$1/2-$4,$2/2+$4,0*
21,1,$1-$3,$2-$3,$1/2+$4,0-$2/2-$4,0*
21,1,$1-$3,$2-$3,$1/2+$4,$2/2+$4,0*%
%ADD10C,0.005000*%
%ADD11R,0.043622X0.030000*%
%ADD12R,0.030000X0.043622*%
%ADD13R,0.142047X0.142047*%
%ADD14R,0.069213X0.043622*%
%ADD15R,0.067244X0.043622*%
%ADD16R,0.039685X0.043622*%
%ADD17R,0.043622X0.039685*%
%ADD18R,0.114488X0.094803*%
%ADD19R,0.073150X0.035748*%
%ADD20R,0.075118X0.082992*%
%ADD21R,0.071181X0.110551*%
%ADD22R,0.094803X0.090866*%
%ADD23R,0.043622X0.055433*%
%ADD24R,0.047559X0.031811*%
%ADD25R,0.059370X0.031811*%
%ADD26R,0.031811X0.043622*%
%ADD27R,0.043622X0.031811*%
%ADD28RNDREC,0.072992X0.072992X0.029685*%
%ADD29C,0.080000*%
%AMTHERM30*7,0,0,0.080000,0.060000,0.020000,45.0*%
%ADD30THERM30*%
%ADD31C,0.001000*%
%ADD32C,0.147000*%
%ADD33R,0.055433X0.043622*%
%ADD34R,0.082992X0.055433*%
%ADD35C,0.028000*%
%ADD36C,0.032000*%
%ADD37C,0.051000*%
%AMTHERM38*7,0,0,0.051000,0.031000,0.020000,45.0*%
%ADD38THERM38*%
%ADD39R,0.023622X0.009055*%
%ADD40R,0.009055X0.023622*%
%ADD41R,0.122047X0.122047*%
%ADD42R,0.049213X0.023622*%
%ADD43R,0.047244X0.023622*%
%ADD44R,0.019685X0.023622*%
%ADD45R,0.023622X0.019685*%
%ADD46R,0.094488X0.074803*%
%ADD47R,0.053150X0.015748*%
%ADD48R,0.055118X0.062992*%
%ADD49R,0.051181X0.090551*%
%ADD50R,0.074803X0.070866*%
%ADD51R,0.023622X0.035433*%
%ADD52R,0.027559X0.011811*%
%ADD53R,0.039370X0.011811*%
%ADD54R,0.011811X0.023622*%
%ADD55R,0.023622X0.011811*%
%ADD56RNDREC,0.062992X0.062992X0.019685*%
%ADD57C,0.060000*%
%ADD58R,0.035433X0.023622*%
%ADD59R,0.062992X0.035433*%
%ADD60C,0.008000*%
%ADD61C,0.012000*%
%ADD62C,0.031000*%
%ADD63C,0.015000*%
G90*
G70D02*

G04 Step and Repeat for panelization *

G04 ----------------------- Draw board outline (positive)*
%LPD*%
G54D10*
G01X-100Y-100D02*
G01X-100Y22600D01*
G04 end of side 1*
G01X10100Y22600D01*
G04 end of side 2*
G01X10100Y-100D01*
G04 end of side 3*
G01X-100Y-100D01*

G04 ----------------------- Draw copper area (positive)*
G36*
G01X6000Y16260D02*
G01X5090Y15350D01*
G01X4930Y15350D01*
G01X4660Y15620D01*
G01X4040Y15620D01*
G01X3460Y15040D01*
G01X2960Y15040D01*
G01X2960Y13370D01*
G01X2850Y13260D01*
G01X2850Y12680D01*
G01X3930Y12680D01*
G01X3930Y12650D01*
G01X3820Y12540D01*
G01X3820Y11920D01*
G01X4600Y11920D01*
G01X4720Y11800D01*
G01X4720Y10750D01*
G01X4570Y10600D01*
G01X4570Y10180D01*
G01X5710Y10180D01*
G01X7090Y11560D01*
G01X7208Y11560D01*
G01X7240Y11130D01*
G01X7800Y11130D01*
G01X7800Y11560D01*
G01X8810Y11560D01*
G01X8810Y11130D01*
G01X8800Y11130D01*
G01X8800Y10610D01*
G01X8200Y10010D01*
G01X8200Y8810D01*
G01X8210Y8810D01*
G01X8200Y8800D01*
G01X8200Y8810D01*
G01X8100Y8810D01*
G01X7340Y8050D01*
G01X7340Y4790D01*
G01X7900Y4260D01*
G01X8000Y4020D01*
G01X8110Y4010D01*
G01X8110Y2940D01*
G01X8110Y1930D01*
G01X8330Y1710D01*
G01X8420Y1710D01*
G01X8420Y250D01*
G01X4800Y250D01*
G01X4800Y790D01*
G01X4200Y730D01*
G01X4200Y250D01*
G01X1590Y250D01*
G01X1590Y1060D01*
G01X1000Y1590D01*
G01X250Y1590D01*
G01X250Y3060D01*
G01X940Y3060D01*
G01X940Y3430D01*
G01X1720Y3430D01*
G01X1720Y4030D01*
G01X2870Y4040D01*
G01X2870Y3130D01*
G01X3800Y3130D01*
G01X3800Y3370D01*
G01X3970Y3200D01*
G01X4460Y3690D01*
G01X4460Y3980D01*
G01X4380Y3980D01*
G01X4380Y5410D01*
G01X4070Y5410D01*
G01X3770Y5710D01*
G01X3770Y5920D01*
G01X3300Y5920D01*
G01X3300Y4980D01*
G01X2680Y4989D01*
G01X2680Y5650D01*
G01X2680Y5970D01*
G01X1920Y5970D01*
G01X1920Y6580D01*
G01X940Y6580D01*
G01X930Y6584D01*
G01X930Y6930D01*
G01X250Y6930D01*
G01X250Y17700D01*
G01X6000Y17700D01*
G01X6000Y16260D01*
G37*

G04 ----------------------- Draw copper area (positive)*
G36*
G01X8260Y8810D02*
G01X8210Y8810D01*
G01X8260Y8860D01*
G01X8260Y8810D01*
G37*

G04 ----------------------- Draw copper area (positive)*
G36*
G01X1980Y4969D02*
G01X1980Y4500D01*
G01X2280Y4500D01*
G01X2290Y4490D01*
G01X1720Y4490D01*
G01X1720Y5061D01*
G01X1980Y4969D01*
G37*

G04 -------------------- Draw copper area cutout (negative)*
%LPC*%
G36*
G01X4910Y6250D02*
G01X4500Y6130D01*
G01X4500Y5530D01*
G01X4910Y5530D01*
G01X4910Y6250D01*
G37*

G04 -------------------- Draw copper area cutout (negative)*
G36*
G01X6810Y4480D02*
G01X6600Y4270D01*
G01X6440Y4430D01*
G01X5870Y4430D01*
G01X5870Y3520D01*
G01X6030Y3440D01*
G01X7390Y3450D01*
G01X7290Y3550D01*
G01X7290Y4000D01*
G01X6810Y4480D01*
G37*

G04 -------------------- Draw copper area cutout (negative)*
G36*
G01X5220Y2190D02*
G01X4840Y2190D01*
G01X4870Y1730D01*
G01X5220Y1730D01*
G01X5220Y2190D01*
G37*

G04 -------------------- Draw copper area clearances (negative)*
%LPC*%

G04 Draw clearances for pads*
G54D11*
G01X4274Y13122D03*
G01X4274Y13318D03*
G01X4274Y13515D03*
G01X4274Y13712D03*
G01X4274Y13909D03*
G01X4274Y14106D03*
G01X4274Y14303D03*
G01X4274Y14500D03*
G54D12*
G01X4530Y14755D03*
G01X4726Y14755D03*
G01X4923Y14755D03*
G01X5120Y14755D03*
G01X5317Y14755D03*
G01X5514Y14755D03*
G01X5711Y14755D03*
G01X5907Y14755D03*
G54D11*
G01X6163Y14500D03*
G01X6163Y14303D03*
G01X6163Y14106D03*
G01X6163Y13909D03*
G01X6163Y13712D03*
G01X6163Y13515D03*
G01X6163Y13318D03*
G01X6163Y13122D03*
G54D12*
G01X5907Y12866D03*
G01X5711Y12866D03*
G01X5514Y12866D03*
G01X5317Y12866D03*
G01X5120Y12866D03*
G01X4923Y12866D03*
G01X4726Y12866D03*
G01X4530Y12866D03*
G54D13*
G01X5218Y13811D03*
G54D14*
G01X6300Y2300D03*
G01X6300Y1551D03*
G01X5453Y1925D03*
G54D15*
G01X8800Y11900D03*
G01X8800Y11525D03*
G01X8800Y11151D03*
G01X7855Y11151D03*
G01X7855Y11900D03*
G54D16*
G01X6700Y13900D03*
G01X6995Y13900D03*
G54D17*
G01X5700Y11600D03*
G01X5700Y11304D03*
G01X5300Y11200D03*
G01X5300Y11495D03*
G54D18*
G01X2500Y13000D03*
G01X2500Y14614D03*
G54D16*
G01X1400Y13000D03*
G01X1695Y13000D03*
G01X1400Y14610D03*
G01X1695Y14610D03*
G54D19*
G01X1734Y5000D03*
G01X1734Y5255D03*
G01X1734Y5511D03*
G01X1734Y4744D03*
G01X1734Y4488D03*
G54D20*
G01X1645Y3740D03*
G01X1645Y6259D03*
G54D21*
G01X681Y3523D03*
G01X681Y6476D03*
G54D22*
G01X681Y4547D03*
G01X681Y5452D03*
G54D16*
G01X3400Y5800D03*
G01X3695Y5800D03*
G01X4600Y6700D03*
G01X4895Y6700D03*
G01X4600Y6200D03*
G01X4895Y6200D03*
G54D23*
G01X3000Y4100D03*
G01X3590Y4100D03*
G54D17*
G01X7200Y10850D03*
G01X7200Y11145D03*
G01X7200Y12200D03*
G01X7200Y11904D03*
G01X9500Y11450D03*
G01X9500Y11154D03*
G01X4800Y1800D03*
G01X4800Y2095D03*
G01X6900Y2100D03*
G01X6900Y1804D03*
G54D24*
G01X8400Y8800D03*
G01X8400Y8603D03*
G01X8400Y8406D03*
G01X8400Y8209D03*
G01X8400Y8012D03*
G01X8400Y7815D03*
G01X8400Y7618D03*
G01X8400Y7422D03*
G54D25*
G01X9443Y9111D03*
G01X9443Y7111D03*
G54D26*
G01X5900Y3803D03*
G01X5703Y3803D03*
G01X5506Y3803D03*
G01X5309Y3803D03*
G01X5112Y3803D03*
G01X4915Y3803D03*
G01X4718Y3803D03*
G01X4522Y3803D03*
G54D27*
G01X4305Y4020D03*
G01X4305Y4216D03*
G01X4305Y4413D03*
G01X4305Y4610D03*
G01X4305Y4807D03*
G01X4305Y5004D03*
G01X4305Y5201D03*
G01X4305Y5397D03*
G54D26*
G01X4522Y5614D03*
G01X4718Y5614D03*
G01X4915Y5614D03*
G01X5112Y5614D03*
G01X5309Y5614D03*
G01X5506Y5614D03*
G01X5703Y5614D03*
G01X5900Y5614D03*
G54D27*
G01X6116Y5397D03*
G01X6116Y5201D03*
G01X6116Y5004D03*
G01X6116Y4807D03*
G01X6116Y4610D03*
G01X6116Y4413D03*
G01X6116Y4216D03*
G01X6116Y4020D03*
G54D28*
G01X5211Y4708D03*
G54D29*
G01X8400Y15000D03*
G01X8400Y14000D03*
G01X8400Y13000D03*
G01X9400Y13000D03*
G01X9400Y14000D03*
G01X9400Y15000D03*
G01X8400Y4000D03*
G01X8400Y5000D03*
G01X8400Y6000D03*
G01X9400Y6000D03*
G01X9400Y5000D03*
G01X9400Y4000D03*
G01X8400Y10220D03*
G01X9400Y10220D03*
G01X500Y18000D03*
G01X1500Y18000D03*
G01X2500Y18000D03*
G01X3500Y18000D03*
G01X4500Y18000D03*
G01X5500Y18000D03*
G01X6500Y18000D03*
G01X7500Y18000D03*
G01X8500Y18000D03*
G01X9500Y18000D03*
G01X500Y20000D03*
G01X1500Y20000D03*
G01X2500Y20000D03*
G01X3500Y20000D03*
G01X4500Y20000D03*
G01X5500Y20000D03*
G01X6500Y20000D03*
G01X7500Y20000D03*
G01X8500Y20000D03*
G01X9500Y20000D03*
G54D30*
G01X5500Y700D03*
G54D31*
G54D29*
G01X4500Y700D03*
G54D32*
G01X1000Y1000D03*
G01X9000Y1000D03*
G01X9000Y21500D03*
G01X1000Y21500D03*
G54D29*
G01X8400Y2000D03*
G01X8400Y3000D03*
G01X9400Y3000D03*
G01X4500Y21000D03*
G01X5500Y21000D03*
G01X6500Y21000D03*
G54D33*
G01X4100Y1600D03*
G01X4100Y2190D03*
G01X2500Y1600D03*
G01X2500Y2190D03*
G54D34*
G01X3300Y2200D03*
G01X3300Y3341D03*

G04 Draw clearances for traces*
G54D35*
G01X5317Y14755D02*
G01X5317Y15257D01*
G01X5317Y15257D02*
G01X6500Y16440D01*
G01X6500Y16440D02*
G01X6500Y18030D01*
G01X6500Y18030D02*
G01X6500Y18000D01*
G01X6500Y18000D02*
G01X6990Y18490D01*
G01X6990Y18490D02*
G01X6990Y20360D01*
G01X6990Y20360D02*
G01X6990Y20510D01*
G01X6990Y20510D02*
G01X6490Y21010D01*
G01X6490Y21010D02*
G01X6500Y21000D01*
G01X7810Y8210D02*
G01X8080Y8480D01*
G01X8080Y8480D02*
G01X7560Y7960D01*
G01X7560Y7960D02*
G01X7560Y5010D01*
G01X7560Y5010D02*
G01X8060Y4510D01*
G01X8060Y4510D02*
G01X8890Y4510D01*
G01X8890Y4510D02*
G01X9400Y4000D01*
G01X8400Y8603D02*
G01X8340Y8610D01*
G01X8340Y8610D02*
G01X8210Y8610D01*
G01X8210Y8610D02*
G01X8080Y8480D01*
G01X9400Y10220D02*
G01X9450Y10270D01*
G01X9450Y10270D02*
G01X9060Y9880D01*
G01X9060Y9880D02*
G01X9060Y8820D01*
G01X9060Y8820D02*
G01X8840Y8600D01*
G01X8840Y8600D02*
G01X8500Y8600D01*
G01X8500Y8600D02*
G01X8400Y8603D01*
G01X5514Y14755D02*
G01X5514Y15164D01*
G01X5514Y15164D02*
G01X6190Y15840D01*
G01X6190Y15840D02*
G01X7330Y15840D01*
G01X7330Y15840D02*
G01X7500Y16010D01*
G01X7500Y16010D02*
G01X7500Y18120D01*
G01X7500Y18120D02*
G01X7500Y18000D01*
G54D36*
G01X5453Y1925D02*
G01X5410Y1990D01*
G01X5410Y1990D02*
G01X5210Y2190D01*
G01X5210Y2190D02*
G01X4800Y2190D01*
G01X4800Y2190D02*
G01X4800Y2095D01*
G01X4895Y6200D02*
G01X4910Y6200D01*
G01X4910Y6200D02*
G01X4910Y6700D01*
G01X4910Y6700D02*
G01X4895Y6700D01*
G01X4895Y6200D02*
G01X4910Y6240D01*
G01X4910Y6240D02*
G01X4915Y6234D01*
G01X4915Y6234D02*
G01X4910Y6130D01*
G01X4910Y6130D02*
G01X4910Y5710D01*
G01X4910Y5710D02*
G01X4915Y5614D01*
G01X7855Y11151D02*
G01X7238Y11151D01*
G01X7238Y11151D02*
G01X7230Y11160D01*
G01X7230Y11160D02*
G01X7200Y11145D01*
G01X4895Y6700D02*
G01X4910Y6730D01*
G01X4910Y6730D02*
G01X4910Y6990D01*
G01X4910Y6990D02*
G01X4780Y7120D01*
G54D37*
G01X4640Y7120D03*
G54D36*
G01X4780Y7120D02*
G01X4640Y7120D01*
G01X7200Y11145D02*
G01X7190Y11150D01*
G01X7190Y11150D02*
G01X7030Y11150D01*
G01X7030Y11150D02*
G01X5730Y9850D01*
G54D37*
G01X2190Y9850D03*
G54D36*
G01X5730Y9850D02*
G01X2190Y9850D01*
G01X4100Y2190D02*
G01X4080Y2190D01*
G01X4080Y2190D02*
G01X4800Y2190D01*
G01X4800Y2190D02*
G01X4800Y2095D01*
G01X3300Y2200D02*
G01X3310Y2210D01*
G01X3310Y2210D02*
G01X3290Y2190D01*
G01X3290Y2190D02*
G01X2500Y2190D01*
G01X3300Y2200D02*
G01X3330Y2200D01*
G01X3330Y2200D02*
G01X3339Y2190D01*
G01X3339Y2190D02*
G01X4100Y2190D01*
G54D37*
G01X3300Y1580D03*
G54D36*
G01X3300Y2200D02*
G01X3300Y1580D01*
G54D35*
G01X6163Y13318D02*
G01X6220Y13320D01*
G01X6220Y13320D02*
G01X7120Y13320D01*
G54D37*
G01X7220Y13220D03*
G54D35*
G01X7120Y13320D02*
G01X7220Y13220D01*
G01X6163Y14303D02*
G01X6230Y14300D01*
G01X6230Y14300D02*
G01X7590Y14300D01*
G01X7590Y14300D02*
G01X7720Y14170D01*
G54D37*
G01X7720Y13900D03*
G54D35*
G01X7720Y14170D02*
G01X7720Y13900D01*
G54D36*
G01X6900Y1804D02*
G01X6930Y1810D01*
G01X6930Y1810D02*
G01X7270Y1810D01*
G01X7270Y1810D02*
G01X7380Y1920D01*
G01X7380Y1920D02*
G01X7380Y2360D01*
G01X7380Y2360D02*
G01X7380Y3370D01*
G54D37*
G01X7260Y3370D03*
G54D36*
G01X7380Y3370D02*
G01X7260Y3370D01*
G01X7260Y3370D02*
G01X7300Y3470D01*
G01X7300Y3470D02*
G01X6000Y3470D01*
G01X6000Y3470D02*
G01X5900Y3570D01*
G01X5900Y3570D02*
G01X5900Y3803D01*
G01X5700Y11304D02*
G01X5690Y11170D01*
G54D37*
G01X5690Y10860D03*
G54D36*
G01X5690Y11170D02*
G01X5690Y10860D01*
G54D35*
G01X4274Y13712D02*
G01X4260Y13710D01*
G01X4260Y13710D02*
G01X3830Y13710D01*
G54D37*
G01X3660Y13540D03*
G54D35*
G01X3830Y13710D02*
G01X3660Y13540D01*
G01X4274Y14106D02*
G01X4280Y14110D01*
G01X4280Y14110D02*
G01X3700Y14110D01*
G01X3700Y14110D02*
G01X3730Y14100D01*
G54D37*
G01X3660Y14170D03*
G54D36*
G01X3730Y14100D02*
G01X3660Y14170D01*
G01X6300Y1551D02*
G01X6771Y1551D01*
G01X6771Y1551D02*
G01X6900Y1680D01*
G01X6900Y1680D02*
G01X6900Y1780D01*
G01X6900Y1780D02*
G01X6900Y1804D01*
G54D35*
G01X6163Y13122D02*
G01X6200Y13120D01*
G01X6200Y13120D02*
G01X6640Y13120D01*
G54D37*
G01X6880Y12880D03*
G54D35*
G01X6640Y13120D02*
G01X6880Y12880D01*
G01X1734Y4744D02*
G01X1970Y4740D01*
G01X1970Y4740D02*
G01X3190Y4740D01*
G01X3190Y4740D02*
G01X3310Y4620D01*
G54D37*
G01X3430Y4620D03*
G54D35*
G01X3310Y4620D02*
G01X3430Y4620D01*
G54D37*
G01X3430Y5320D03*
G54D35*
G01X3430Y5320D02*
G01X3547Y5313D01*
G01X3547Y5313D02*
G01X3660Y5200D01*
G01X3660Y5200D02*
G01X4330Y5200D01*
G01X4330Y5200D02*
G01X4305Y5201D01*
G01X5907Y12866D02*
G01X5940Y12860D01*
G01X5940Y12860D02*
G01X6230Y12860D01*
G54D37*
G01X6550Y12540D03*
G54D35*
G01X6230Y12860D02*
G01X6550Y12540D01*
G01X4530Y12866D02*
G01X4530Y12620D01*
G54D37*
G01X3950Y12040D03*
G54D35*
G01X4530Y12620D02*
G01X3950Y12040D01*
G54D37*
G01X3360Y7000D03*
G54D35*
G01X3360Y7000D02*
G01X3560Y7000D01*
G01X3560Y7000D02*
G01X4460Y7900D01*
G01X4460Y7900D02*
G01X5010Y7900D01*
G01X5010Y7900D02*
G01X5310Y7600D01*
G01X5310Y7600D02*
G01X5309Y5614D01*
G01X1695Y13000D02*
G01X2500Y13000D01*
G01X2500Y13000D02*
G01X2930Y13000D01*
G01X2930Y13000D02*
G01X2930Y13330D01*
G01X2930Y13330D02*
G01X3180Y13580D01*
G01X3180Y13580D02*
G01X3180Y14420D01*
G01X3180Y14420D02*
G01X3280Y14520D01*
G01X3280Y14520D02*
G01X3710Y14520D01*
G01X3710Y14520D02*
G01X3930Y14300D01*
G01X3930Y14300D02*
G01X4290Y14300D01*
G01X4290Y14300D02*
G01X4274Y14303D01*
G01X5711Y12866D02*
G01X5711Y12838D01*
G01X5711Y12838D02*
G01X5710Y12700D01*
G01X5710Y12700D02*
G01X6040Y12370D01*
G01X6040Y12370D02*
G01X6210Y12370D01*
G54D37*
G01X6550Y12030D03*
G54D35*
G01X6210Y12370D02*
G01X6550Y12030D01*
G01X6116Y4413D02*
G01X6150Y4410D01*
G54D37*
G01X6700Y4410D03*
G54D35*
G01X6150Y4410D02*
G01X6700Y4410D01*
G54D37*
G01X5030Y10860D03*
G54D35*
G01X5030Y10860D02*
G01X4920Y10970D01*
G54D37*
G01X4920Y12030D03*
G54D35*
G01X4920Y10970D02*
G01X4920Y12030D01*
G01X4920Y12030D02*
G01X4920Y12790D01*
G01X4920Y12790D02*
G01X4923Y12866D01*
G01X4274Y13122D02*
G01X3992Y13122D01*
G01X3992Y13122D02*
G01X3950Y13080D01*
G54D37*
G01X3950Y12530D03*
G54D35*
G01X3950Y13080D02*
G01X3950Y12530D01*
G01X9400Y5000D02*
G01X8870Y5530D01*
G01X8870Y5530D02*
G01X8870Y7650D01*
G01X8870Y7650D02*
G01X8710Y7810D01*
G01X8710Y7810D02*
G01X8390Y7810D01*
G01X8390Y7810D02*
G01X8400Y7815D01*
G01X8400Y6000D02*
G01X8680Y6280D01*
G01X8680Y6280D02*
G01X8680Y7550D01*
G01X8680Y7550D02*
G01X8620Y7610D01*
G01X8620Y7610D02*
G01X8400Y7610D01*
G01X8400Y7610D02*
G01X8400Y7618D01*
G54D36*
G01X3590Y4100D02*
G01X3590Y3870D01*
G01X3590Y3870D02*
G01X3300Y3580D01*
G01X3300Y3580D02*
G01X3300Y3341D01*
G54D37*
G01X3900Y3340D03*
G54D36*
G01X3900Y3340D02*
G01X3240Y3340D01*
G01X3240Y3340D02*
G01X3300Y3341D01*
G01X1734Y4488D02*
G01X2311Y4488D01*
G01X2311Y4488D02*
G01X2700Y4100D01*
G01X2700Y4100D02*
G01X3000Y4100D01*
G54D37*
G01X3550Y15000D03*
G54D35*
G01X3550Y15000D02*
G01X4420Y15000D01*
G01X4420Y15000D02*
G01X4530Y14890D01*
G01X4530Y14890D02*
G01X4530Y14755D01*
G54D37*
G01X7890Y7660D03*
G54D35*
G01X7890Y7660D02*
G01X7900Y7750D01*
G01X7900Y7750D02*
G01X8160Y8010D01*
G01X8160Y8010D02*
G01X8420Y8010D01*
G01X8420Y8010D02*
G01X8400Y8012D01*
G01X9500Y11154D02*
G01X9450Y11170D01*
G01X9450Y11170D02*
G01X9431Y11151D01*
G01X9431Y11151D02*
G01X8800Y11151D01*
G01X8400Y10220D02*
G01X8800Y10620D01*
G01X8800Y10620D02*
G01X8800Y11151D01*
G01X8400Y4000D02*
G01X7990Y4000D01*
G01X7990Y4000D02*
G01X7910Y4080D01*
G01X7910Y4080D02*
G01X7910Y4250D01*
G01X7910Y4250D02*
G01X7350Y4810D01*
G01X7350Y4810D02*
G01X7350Y8050D01*
G01X7350Y8050D02*
G01X8100Y8800D01*
G01X8100Y8800D02*
G01X8400Y8800D01*
G54D37*
G01X4150Y15600D03*
G54D35*
G01X4150Y15600D02*
G01X4690Y15600D01*
G01X4690Y15600D02*
G01X4923Y15366D01*
G01X4923Y15366D02*
G01X4923Y14755D01*
G01X5703Y3803D02*
G01X5700Y3740D01*
G01X5700Y3740D02*
G01X5700Y3490D01*
G54D37*
G01X5580Y3370D03*
G54D35*
G01X5700Y3490D02*
G01X5580Y3370D01*
G54D37*
G01X4730Y10560D03*
G54D35*
G01X4730Y10560D02*
G01X4730Y11740D01*
G54D37*
G01X4440Y12030D03*
G54D35*
G01X4730Y11740D02*
G01X4440Y12030D01*
G01X4440Y12030D02*
G01X4730Y12320D01*
G01X4730Y12320D02*
G01X4730Y12920D01*
G01X4730Y12920D02*
G01X4726Y12866D01*
G01X8400Y14000D02*
G01X7900Y14500D01*
G01X7900Y14500D02*
G01X6163Y14500D01*
G01X5506Y5614D02*
G01X5510Y5740D01*
G01X5510Y5740D02*
G01X5510Y7710D01*
G01X5510Y7710D02*
G01X4220Y9000D01*
G54D37*
G01X3360Y9000D03*
G54D35*
G01X4220Y9000D02*
G01X3360Y9000D01*
G01X6163Y13909D02*
G01X6619Y13909D01*
G01X6619Y13909D02*
G01X6620Y13910D01*
G01X6620Y13910D02*
G01X6700Y13900D01*
G01X5317Y12866D02*
G01X5320Y12760D01*
G01X5320Y12760D02*
G01X5320Y12360D01*
G01X5320Y12360D02*
G01X5600Y12080D01*
G54D37*
G01X5620Y12030D03*
G54D35*
G01X5600Y12080D02*
G01X5620Y12030D01*
G01X2500Y14614D02*
G01X2390Y14620D01*
G01X2390Y14620D02*
G01X2380Y14610D01*
G01X2380Y14610D02*
G01X1695Y14610D01*
G01X2500Y14614D02*
G01X2730Y14530D01*
G01X2730Y14530D02*
G01X2760Y14500D01*
G01X2760Y14500D02*
G01X2830Y14700D01*
G01X2830Y14700D02*
G01X3830Y14700D01*
G01X3830Y14700D02*
G01X4030Y14500D01*
G01X4030Y14500D02*
G01X4274Y14500D01*
G01X9400Y6000D02*
G01X9060Y6340D01*
G01X9060Y6340D02*
G01X9060Y8180D01*
G01X9060Y8180D02*
G01X8840Y8400D01*
G01X8840Y8400D02*
G01X8430Y8400D01*
G01X8430Y8400D02*
G01X8400Y8406D01*
G01X4305Y5397D02*
G01X4082Y5397D01*
G01X4082Y5397D02*
G01X3720Y5760D01*
G01X3720Y5760D02*
G01X3695Y5800D01*
G01X8400Y15000D02*
G01X6020Y15000D01*
G01X6020Y15000D02*
G01X5910Y14890D01*
G01X5910Y14890D02*
G01X5910Y14750D01*
G01X5910Y14750D02*
G01X5907Y14755D01*
G01X9400Y14000D02*
G01X8910Y14490D01*
G01X8910Y14490D02*
G01X8910Y15300D01*
G01X8910Y15300D02*
G01X8700Y15510D01*
G01X8700Y15510D02*
G01X6160Y15510D01*
G01X6160Y15510D02*
G01X5711Y15061D01*
G01X5711Y15061D02*
G01X5711Y14755D01*
G01X8500Y20000D02*
G01X8500Y19300D01*
G01X8500Y19300D02*
G01X8990Y18810D01*
G01X8990Y18810D02*
G01X8990Y15870D01*
G01X8990Y15870D02*
G01X8700Y15510D01*
G01X7855Y11900D02*
G01X7220Y11900D01*
G01X7220Y11900D02*
G01X7210Y11910D01*
G01X7210Y11910D02*
G01X7200Y11904D01*
G01X4726Y14755D02*
G01X4726Y15073D01*
G01X4726Y15073D02*
G01X4500Y15300D01*
G54D37*
G01X3850Y15300D03*
G54D35*
G01X4500Y15300D02*
G01X3850Y15300D01*
G54D38*
G01X500Y13600D03*
G01X700Y2150D03*
G01X7320Y10200D03*
G54D37*
G01X2510Y5800D03*
G54D38*
G01X1600Y2140D03*
G54D35*
G01X8800Y11900D02*
G01X8390Y11900D01*
G01X8390Y11900D02*
G01X8310Y11820D01*
G01X8310Y11820D02*
G01X8310Y11640D01*
G01X8310Y11640D02*
G01X8190Y11520D01*
G01X8190Y11520D02*
G01X7040Y11520D01*
G01X7040Y11520D02*
G01X5710Y10190D01*
G54D37*
G01X2530Y10190D03*
G54D35*
G01X5710Y10190D02*
G01X2530Y10190D01*
G01X5514Y12866D02*
G01X5514Y12575D01*
G01X5514Y12575D02*
G01X5970Y12120D01*
G01X5970Y12120D02*
G01X6010Y12120D01*
G54D37*
G01X6090Y12030D03*
G54D35*
G01X6010Y12120D02*
G01X6090Y12030D01*
G01X1734Y5000D02*
G01X1750Y5000D01*
G01X1750Y5000D02*
G01X1754Y5004D01*
G01X1754Y5004D02*
G01X4305Y5004D01*
G01X8400Y5000D02*
G01X7760Y5640D01*
G01X7760Y5640D02*
G01X7760Y7050D01*
G01X7760Y7050D02*
G01X8130Y7420D01*
G01X8130Y7420D02*
G01X8360Y7420D01*
G01X8360Y7420D02*
G01X8400Y7422D01*
G01X5300Y11495D02*
G01X5300Y12110D01*
G01X5300Y12110D02*
G01X5120Y12290D01*
G01X5120Y12290D02*
G01X5120Y12890D01*
G01X5120Y12890D02*
G01X5120Y12866D01*
G01X5700Y11600D02*
G01X6780Y11600D01*
G01X6780Y11600D02*
G01X6890Y11710D01*
G01X6890Y11710D02*
G01X6890Y12460D01*
G01X6890Y12460D02*
G01X7430Y13000D01*
G01X7430Y13000D02*
G01X8400Y13000D01*
G01X5300Y11495D02*
G01X5330Y11500D01*
G01X5330Y11500D02*
G01X5420Y11500D01*
G01X5420Y11500D02*
G01X5520Y11600D01*
G01X5520Y11600D02*
G01X5700Y11600D01*
G01X6116Y4216D02*
G01X6190Y4210D01*
G01X6190Y4210D02*
G01X6450Y4210D01*
G01X6450Y4210D02*
G01X6670Y3990D01*
G54D37*
G01X7070Y3990D03*
G54D35*
G01X6670Y3990D02*
G01X7070Y3990D01*
G54D37*
G01X5330Y10560D03*
G54D35*
G01X5330Y10560D02*
G01X5330Y11090D01*
G01X5330Y11090D02*
G01X5300Y11200D01*
G01X5120Y14755D02*
G01X5120Y15360D01*
G01X5120Y15360D02*
G01X6000Y16240D01*
G01X6000Y16240D02*
G01X6000Y18740D01*
G01X6000Y18740D02*
G01X6506Y19246D01*
G01X6506Y19246D02*
G01X6506Y20114D01*
G01X6506Y20114D02*
G01X6480Y20140D01*
G01X6480Y20140D02*
G01X6500Y20000D01*
G01X4500Y21000D02*
G01X4550Y21060D01*
G01X4550Y21060D02*
G01X4850Y20760D01*
G01X4850Y20760D02*
G01X5000Y20610D01*
G01X5000Y20610D02*
G01X5000Y19740D01*
G01X5000Y19740D02*
G01X6000Y18740D01*

G04 Draw clearances for text*

G04 -------------- Draw Parts, Pads, Traces, Vias and Text (positive)*
%LPD*%
G04 Draw part U1*
G54D39*
G01X4274Y13122D03*
G01X4274Y13318D03*
G01X4274Y13515D03*
G01X4274Y13712D03*
G01X4274Y13909D03*
G01X4274Y14106D03*
G01X4274Y14303D03*
G01X4274Y14500D03*
G54D40*
G01X4530Y14755D03*
G01X4726Y14755D03*
G01X4923Y14755D03*
G01X5120Y14755D03*
G01X5317Y14755D03*
G01X5514Y14755D03*
G01X5711Y14755D03*
G01X5907Y14755D03*
G54D39*
G01X6163Y14500D03*
G01X6163Y14303D03*
G01X6163Y14106D03*
G01X6163Y13909D03*
G01X6163Y13712D03*
G01X6163Y13515D03*
G01X6163Y13318D03*
G01X6163Y13122D03*
G54D40*
G01X5907Y12866D03*
G01X5711Y12866D03*
G01X5514Y12866D03*
G01X5317Y12866D03*
G01X5120Y12866D03*
G01X4923Y12866D03*
G01X4726Y12866D03*
G01X4530Y12866D03*
G54D41*
G01X5218Y13811D03*
G04 Draw part U5*
G54D42*
G01X6300Y2300D03*
G01X6300Y1551D03*
G01X5453Y1925D03*
G04 Draw part U6*
G54D43*
G01X8800Y11900D03*
G01X8800Y11525D03*
G01X8800Y11151D03*
G01X7855Y11151D03*
G01X7855Y11900D03*
G04 Draw part C3*
G54D44*
G01X6700Y13900D03*
G01X6995Y13900D03*
G04 Draw part R4*
G54D45*
G01X5700Y11600D03*
G01X5700Y11304D03*
G04 Draw part C4*
G01X5300Y11200D03*
G01X5300Y11495D03*
G04 Draw part X1*
G54D46*
G01X2500Y13000D03*
G01X2500Y14614D03*
G04 Draw part C1*
G54D44*
G01X1400Y13000D03*
G01X1695Y13000D03*
G04 Draw part C2*
G01X1400Y14610D03*
G01X1695Y14610D03*
G04 Draw part D3*
G04 Draw part R3*
G04 Draw part D2*
G04 Draw part R2*
G04 Draw part D1*
G04 Draw part R1*
G04 Draw part H2*
G54D47*
G01X1734Y5000D03*
G01X1734Y5255D03*
G01X1734Y5511D03*
G01X1734Y4744D03*
G01X1734Y4488D03*
G54D48*
G01X1645Y3740D03*
G01X1645Y6259D03*
G54D49*
G01X681Y3523D03*
G01X681Y6476D03*
G54D50*
G01X681Y4547D03*
G01X681Y5452D03*
G04 Draw part R5*
G04 Draw part D4*
G04 Draw part D5*
G04 Draw part R6*
G04 Draw part C7*
G54D44*
G01X3400Y5800D03*
G01X3695Y5800D03*
G04 Draw part C6*
G01X4600Y6700D03*
G01X4895Y6700D03*
G04 Draw part C5*
G01X4600Y6200D03*
G01X4895Y6200D03*
G04 Draw part F1*
G54D51*
G01X3000Y4100D03*
G01X3590Y4100D03*
G04 Draw part C11*
G54D45*
G01X7200Y10850D03*
G01X7200Y11145D03*
G04 Draw part R9*
G01X7200Y12200D03*
G01X7200Y11904D03*
G04 Draw part D7*
G04 Draw part R10*
G04 Draw part C10*
G01X9500Y11450D03*
G01X9500Y11154D03*
G04 Draw part C9*
G01X4800Y1800D03*
G01X4800Y2095D03*
G04 Draw part C8*
G01X6900Y2100D03*
G01X6900Y1804D03*
G04 Draw part D6*
G04 Draw part R8*
G04 Draw part H4*
G54D52*
G01X8400Y8800D03*
G01X8400Y8603D03*
G01X8400Y8406D03*
G01X8400Y8209D03*
G01X8400Y8012D03*
G01X8400Y7815D03*
G01X8400Y7618D03*
G01X8400Y7422D03*
G54D53*
G01X9443Y9111D03*
G01X9443Y7111D03*
G04 Draw part U2*
G54D54*
G01X5900Y3803D03*
G01X5703Y3803D03*
G01X5506Y3803D03*
G01X5309Y3803D03*
G01X5112Y3803D03*
G01X4915Y3803D03*
G01X4718Y3803D03*
G01X4522Y3803D03*
G54D55*
G01X4305Y4020D03*
G01X4305Y4216D03*
G01X4305Y4413D03*
G01X4305Y4610D03*
G01X4305Y4807D03*
G01X4305Y5004D03*
G01X4305Y5201D03*
G01X4305Y5397D03*
G54D54*
G01X4522Y5614D03*
G01X4718Y5614D03*
G01X4915Y5614D03*
G01X5112Y5614D03*
G01X5309Y5614D03*
G01X5506Y5614D03*
G01X5703Y5614D03*
G01X5900Y5614D03*
G54D55*
G01X6116Y5397D03*
G01X6116Y5201D03*
G01X6116Y5004D03*
G01X6116Y4807D03*
G01X6116Y4610D03*
G01X6116Y4413D03*
G01X6116Y4216D03*
G01X6116Y4020D03*
G54D56*
G01X5211Y4708D03*
G04 Draw part H1*
G54D57*
G01X8400Y15000D03*
G01X8400Y14000D03*
G01X8400Y13000D03*
G01X9400Y13000D03*
G01X9400Y14000D03*
G01X9400Y15000D03*
G04 Draw part H3*
G01X8400Y4000D03*
G01X8400Y5000D03*
G01X8400Y6000D03*
G01X9400Y6000D03*
G01X9400Y5000D03*
G01X9400Y4000D03*
G04 Draw part H7*
G01X8400Y10220D03*
G01X9400Y10220D03*
G04 Draw part H6*
G01X500Y18000D03*
G01X1500Y18000D03*
G01X2500Y18000D03*
G01X3500Y18000D03*
G01X4500Y18000D03*
G01X5500Y18000D03*
G01X6500Y18000D03*
G01X7500Y18000D03*
G01X8500Y18000D03*
G01X9500Y18000D03*
G04 Draw part H5*
G01X500Y20000D03*
G01X1500Y20000D03*
G01X2500Y20000D03*
G01X3500Y20000D03*
G01X4500Y20000D03*
G01X5500Y20000D03*
G01X6500Y20000D03*
G01X7500Y20000D03*
G01X8500Y20000D03*
G01X9500Y20000D03*
G04 Draw part H8*
G01X5500Y700D03*
G01X4500Y700D03*
G04 Draw part H9*
G04 Draw part H10*
G04 Draw part H11*
G04 Draw part H12*
G04 Draw part H13*
G01X8400Y2000D03*
G01X8400Y3000D03*
G01X9400Y3000D03*
G04 Draw part H14*
G01X4500Y21000D03*
G01X5500Y21000D03*
G01X6500Y21000D03*
G04 Draw part C12*
G54D58*
G01X4100Y1600D03*
G01X4100Y2190D03*
G04 Draw part C13*
G01X2500Y1600D03*
G01X2500Y2190D03*
G04 Draw part Fuse1*
G54D59*
G01X3300Y2200D03*
G01X3300Y3341D03*

G04 Draw traces*
G54D60*
G01X5317Y14755D02*
G01X5317Y15257D01*
G01X5317Y15257D02*
G01X6500Y16440D01*
G01X6500Y16440D02*
G01X6500Y18030D01*
G01X6500Y18030D02*
G01X6500Y18000D01*
G01X6500Y18000D02*
G01X6990Y18490D01*
G01X6990Y18490D02*
G01X6990Y20360D01*
G01X6990Y20360D02*
G01X6990Y20510D01*
G01X6990Y20510D02*
G01X6490Y21010D01*
G01X6490Y21010D02*
G01X6500Y21000D01*
G01X7810Y8210D02*
G01X8080Y8480D01*
G01X8080Y8480D02*
G01X7560Y7960D01*
G01X7560Y7960D02*
G01X7560Y5010D01*
G01X7560Y5010D02*
G01X8060Y4510D01*
G01X8060Y4510D02*
G01X8890Y4510D01*
G01X8890Y4510D02*
G01X9400Y4000D01*
G01X8400Y8603D02*
G01X8340Y8610D01*
G01X8340Y8610D02*
G01X8210Y8610D01*
G01X8210Y8610D02*
G01X8080Y8480D01*
G01X9400Y10220D02*
G01X9450Y10270D01*
G01X9450Y10270D02*
G01X9060Y9880D01*
G01X9060Y9880D02*
G01X9060Y8820D01*
G01X9060Y8820D02*
G01X8840Y8600D01*
G01X8840Y8600D02*
G01X8500Y8600D01*
G01X8500Y8600D02*
G01X8400Y8603D01*
G01X5514Y14755D02*
G01X5514Y15164D01*
G01X5514Y15164D02*
G01X6190Y15840D01*
G01X6190Y15840D02*
G01X7330Y15840D01*
G01X7330Y15840D02*
G01X7500Y16010D01*
G01X7500Y16010D02*
G01X7500Y18120D01*
G01X7500Y18120D02*
G01X7500Y18000D01*
G54D61*
G01X5453Y1925D02*
G01X5410Y1990D01*
G01X5410Y1990D02*
G01X5210Y2190D01*
G01X5210Y2190D02*
G01X4800Y2190D01*
G01X4800Y2190D02*
G01X4800Y2095D01*
G01X4895Y6200D02*
G01X4910Y6200D01*
G01X4910Y6200D02*
G01X4910Y6700D01*
G01X4910Y6700D02*
G01X4895Y6700D01*
G01X4895Y6200D02*
G01X4910Y6240D01*
G01X4910Y6240D02*
G01X4915Y6234D01*
G01X4915Y6234D02*
G01X4910Y6130D01*
G01X4910Y6130D02*
G01X4910Y5710D01*
G01X4910Y5710D02*
G01X4915Y5614D01*
G01X7855Y11151D02*
G01X7238Y11151D01*
G01X7238Y11151D02*
G01X7230Y11160D01*
G01X7230Y11160D02*
G01X7200Y11145D01*
G01X4895Y6700D02*
G01X4910Y6730D01*
G01X4910Y6730D02*
G01X4910Y6990D01*
G01X4910Y6990D02*
G01X4780Y7120D01*
G01X4780Y7120D02*
G01X4640Y7120D01*
G54D62*
G01X4640Y7120D03*
G54D61*
G01X7200Y11145D02*
G01X7190Y11150D01*
G01X7190Y11150D02*
G01X7030Y11150D01*
G01X7030Y11150D02*
G01X5730Y9850D01*
G01X5730Y9850D02*
G01X2190Y9850D01*
G54D62*
G01X2190Y9850D03*
G54D61*
G01X4100Y2190D02*
G01X4080Y2190D01*
G01X4080Y2190D02*
G01X4800Y2190D01*
G01X4800Y2190D02*
G01X4800Y2095D01*
G01X3300Y2200D02*
G01X3310Y2210D01*
G01X3310Y2210D02*
G01X3290Y2190D01*
G01X3290Y2190D02*
G01X2500Y2190D01*
G01X3300Y2200D02*
G01X3330Y2200D01*
G01X3330Y2200D02*
G01X3339Y2190D01*
G01X3339Y2190D02*
G01X4100Y2190D01*
G01X3300Y2200D02*
G01X3300Y1580D01*
G54D62*
G01X3300Y1580D03*
G54D60*
G01X6163Y13318D02*
G01X6220Y13320D01*
G01X6220Y13320D02*
G01X7120Y13320D01*
G01X7120Y13320D02*
G01X7220Y13220D01*
G54D62*
G01X7220Y13220D03*
G54D60*
G01X6163Y14303D02*
G01X6230Y14300D01*
G01X6230Y14300D02*
G01X7590Y14300D01*
G01X7590Y14300D02*
G01X7720Y14170D01*
G01X7720Y14170D02*
G01X7720Y13900D01*
G54D62*
G01X7720Y13900D03*
G54D61*
G01X6900Y1804D02*
G01X6930Y1810D01*
G01X6930Y1810D02*
G01X7270Y1810D01*
G01X7270Y1810D02*
G01X7380Y1920D01*
G01X7380Y1920D02*
G01X7380Y2360D01*
G01X7380Y2360D02*
G01X7380Y3370D01*
G01X7380Y3370D02*
G01X7260Y3370D01*
G54D62*
G01X7260Y3370D03*
G54D61*
G01X7260Y3370D02*
G01X7300Y3470D01*
G01X7300Y3470D02*
G01X6000Y3470D01*
G01X6000Y3470D02*
G01X5900Y3570D01*
G01X5900Y3570D02*
G01X5900Y3803D01*
G01X5700Y11304D02*
G01X5690Y11170D01*
G01X5690Y11170D02*
G01X5690Y10860D01*
G54D62*
G01X5690Y10860D03*
G54D60*
G01X4274Y13712D02*
G01X4260Y13710D01*
G01X4260Y13710D02*
G01X3830Y13710D01*
G01X3830Y13710D02*
G01X3660Y13540D01*
G54D62*
G01X3660Y13540D03*
G54D60*
G01X4274Y14106D02*
G01X4280Y14110D01*
G01X4280Y14110D02*
G01X3700Y14110D01*
G01X3700Y14110D02*
G01X3730Y14100D01*
G54D61*
G01X3730Y14100D02*
G01X3660Y14170D01*
G54D62*
G01X3660Y14170D03*
G54D61*
G01X6300Y1551D02*
G01X6771Y1551D01*
G01X6771Y1551D02*
G01X6900Y1680D01*
G01X6900Y1680D02*
G01X6900Y1780D01*
G01X6900Y1780D02*
G01X6900Y1804D01*
G54D60*
G01X6163Y13122D02*
G01X6200Y13120D01*
G01X6200Y13120D02*
G01X6640Y13120D01*
G01X6640Y13120D02*
G01X6880Y12880D01*
G54D62*
G01X6880Y12880D03*
G54D60*
G01X1734Y4744D02*
G01X1970Y4740D01*
G01X1970Y4740D02*
G01X3190Y4740D01*
G01X3190Y4740D02*
G01X3310Y4620D01*
G01X3310Y4620D02*
G01X3430Y4620D01*
G54D62*
G01X3430Y4620D03*
G01X3430Y5320D03*
G54D60*
G01X3430Y5320D02*
G01X3547Y5313D01*
G01X3547Y5313D02*
G01X3660Y5200D01*
G01X3660Y5200D02*
G01X4330Y5200D01*
G01X4330Y5200D02*
G01X4305Y5201D01*
G01X5907Y12866D02*
G01X5940Y12860D01*
G01X5940Y12860D02*
G01X6230Y12860D01*
G01X6230Y12860D02*
G01X6550Y12540D01*
G54D62*
G01X6550Y12540D03*
G54D60*
G01X4530Y12866D02*
G01X4530Y12620D01*
G01X4530Y12620D02*
G01X3950Y12040D01*
G54D62*
G01X3950Y12040D03*
G01X3360Y7000D03*
G54D60*
G01X3360Y7000D02*
G01X3560Y7000D01*
G01X3560Y7000D02*
G01X4460Y7900D01*
G01X4460Y7900D02*
G01X5010Y7900D01*
G01X5010Y7900D02*
G01X5310Y7600D01*
G01X5310Y7600D02*
G01X5309Y5614D01*
G01X1695Y13000D02*
G01X2500Y13000D01*
G01X2500Y13000D02*
G01X2930Y13000D01*
G01X2930Y13000D02*
G01X2930Y13330D01*
G01X2930Y13330D02*
G01X3180Y13580D01*
G01X3180Y13580D02*
G01X3180Y14420D01*
G01X3180Y14420D02*
G01X3280Y14520D01*
G01X3280Y14520D02*
G01X3710Y14520D01*
G01X3710Y14520D02*
G01X3930Y14300D01*
G01X3930Y14300D02*
G01X4290Y14300D01*
G01X4290Y14300D02*
G01X4274Y14303D01*
G01X5711Y12866D02*
G01X5711Y12838D01*
G01X5711Y12838D02*
G01X5710Y12700D01*
G01X5710Y12700D02*
G01X6040Y12370D01*
G01X6040Y12370D02*
G01X6210Y12370D01*
G01X6210Y12370D02*
G01X6550Y12030D01*
G54D62*
G01X6550Y12030D03*
G54D60*
G01X6116Y4413D02*
G01X6150Y4410D01*
G01X6150Y4410D02*
G01X6700Y4410D01*
G54D62*
G01X6700Y4410D03*
G01X5030Y10860D03*
G54D60*
G01X5030Y10860D02*
G01X4920Y10970D01*
G01X4920Y10970D02*
G01X4920Y12030D01*
G54D62*
G01X4920Y12030D03*
G54D60*
G01X4920Y12030D02*
G01X4920Y12790D01*
G01X4920Y12790D02*
G01X4923Y12866D01*
G01X4274Y13122D02*
G01X3992Y13122D01*
G01X3992Y13122D02*
G01X3950Y13080D01*
G01X3950Y13080D02*
G01X3950Y12530D01*
G54D62*
G01X3950Y12530D03*
G54D60*
G01X9400Y5000D02*
G01X8870Y5530D01*
G01X8870Y5530D02*
G01X8870Y7650D01*
G01X8870Y7650D02*
G01X8710Y7810D01*
G01X8710Y7810D02*
G01X8390Y7810D01*
G01X8390Y7810D02*
G01X8400Y7815D01*
G01X8400Y6000D02*
G01X8680Y6280D01*
G01X8680Y6280D02*
G01X8680Y7550D01*
G01X8680Y7550D02*
G01X8620Y7610D01*
G01X8620Y7610D02*
G01X8400Y7610D01*
G01X8400Y7610D02*
G01X8400Y7618D01*
G54D61*
G01X3590Y4100D02*
G01X3590Y3870D01*
G01X3590Y3870D02*
G01X3300Y3580D01*
G01X3300Y3580D02*
G01X3300Y3341D01*
G54D62*
G01X3900Y3340D03*
G54D61*
G01X3900Y3340D02*
G01X3240Y3340D01*
G01X3240Y3340D02*
G01X3300Y3341D01*
G01X1734Y4488D02*
G01X2311Y4488D01*
G01X2311Y4488D02*
G01X2700Y4100D01*
G01X2700Y4100D02*
G01X3000Y4100D01*
G54D62*
G01X3550Y15000D03*
G54D60*
G01X3550Y15000D02*
G01X4420Y15000D01*
G01X4420Y15000D02*
G01X4530Y14890D01*
G01X4530Y14890D02*
G01X4530Y14755D01*
G54D62*
G01X7890Y7660D03*
G54D60*
G01X7890Y7660D02*
G01X7900Y7750D01*
G01X7900Y7750D02*
G01X8160Y8010D01*
G01X8160Y8010D02*
G01X8420Y8010D01*
G01X8420Y8010D02*
G01X8400Y8012D01*
G01X9500Y11154D02*
G01X9450Y11170D01*
G01X9450Y11170D02*
G01X9431Y11151D01*
G01X9431Y11151D02*
G01X8800Y11151D01*
G01X8400Y10220D02*
G01X8800Y10620D01*
G01X8800Y10620D02*
G01X8800Y11151D01*
G01X8400Y4000D02*
G01X7990Y4000D01*
G01X7990Y4000D02*
G01X7910Y4080D01*
G01X7910Y4080D02*
G01X7910Y4250D01*
G01X7910Y4250D02*
G01X7350Y4810D01*
G01X7350Y4810D02*
G01X7350Y8050D01*
G01X7350Y8050D02*
G01X8100Y8800D01*
G01X8100Y8800D02*
G01X8400Y8800D01*
G54D62*
G01X4150Y15600D03*
G54D60*
G01X4150Y15600D02*
G01X4690Y15600D01*
G01X4690Y15600D02*
G01X4923Y15366D01*
G01X4923Y15366D02*
G01X4923Y14755D01*
G01X5703Y3803D02*
G01X5700Y3740D01*
G01X5700Y3740D02*
G01X5700Y3490D01*
G01X5700Y3490D02*
G01X5580Y3370D01*
G54D62*
G01X5580Y3370D03*
G01X4730Y10560D03*
G54D60*
G01X4730Y10560D02*
G01X4730Y11740D01*
G01X4730Y11740D02*
G01X4440Y12030D01*
G54D62*
G01X4440Y12030D03*
G54D60*
G01X4440Y12030D02*
G01X4730Y12320D01*
G01X4730Y12320D02*
G01X4730Y12920D01*
G01X4730Y12920D02*
G01X4726Y12866D01*
G01X8400Y14000D02*
G01X7900Y14500D01*
G01X7900Y14500D02*
G01X6163Y14500D01*
G01X5506Y5614D02*
G01X5510Y5740D01*
G01X5510Y5740D02*
G01X5510Y7710D01*
G01X5510Y7710D02*
G01X4220Y9000D01*
G01X4220Y9000D02*
G01X3360Y9000D01*
G54D62*
G01X3360Y9000D03*
G54D60*
G01X6163Y13909D02*
G01X6619Y13909D01*
G01X6619Y13909D02*
G01X6620Y13910D01*
G01X6620Y13910D02*
G01X6700Y13900D01*
G01X5317Y12866D02*
G01X5320Y12760D01*
G01X5320Y12760D02*
G01X5320Y12360D01*
G01X5320Y12360D02*
G01X5600Y12080D01*
G01X5600Y12080D02*
G01X5620Y12030D01*
G54D62*
G01X5620Y12030D03*
G54D60*
G01X2500Y14614D02*
G01X2390Y14620D01*
G01X2390Y14620D02*
G01X2380Y14610D01*
G01X2380Y14610D02*
G01X1695Y14610D01*
G01X2500Y14614D02*
G01X2730Y14530D01*
G01X2730Y14530D02*
G01X2760Y14500D01*
G01X2760Y14500D02*
G01X2830Y14700D01*
G01X2830Y14700D02*
G01X3830Y14700D01*
G01X3830Y14700D02*
G01X4030Y14500D01*
G01X4030Y14500D02*
G01X4274Y14500D01*
G01X9400Y6000D02*
G01X9060Y6340D01*
G01X9060Y6340D02*
G01X9060Y8180D01*
G01X9060Y8180D02*
G01X8840Y8400D01*
G01X8840Y8400D02*
G01X8430Y8400D01*
G01X8430Y8400D02*
G01X8400Y8406D01*
G01X4305Y5397D02*
G01X4082Y5397D01*
G01X4082Y5397D02*
G01X3720Y5760D01*
G01X3720Y5760D02*
G01X3695Y5800D01*
G01X8400Y15000D02*
G01X6020Y15000D01*
G01X6020Y15000D02*
G01X5910Y14890D01*
G01X5910Y14890D02*
G01X5910Y14750D01*
G01X5910Y14750D02*
G01X5907Y14755D01*
G01X9400Y14000D02*
G01X8910Y14490D01*
G01X8910Y14490D02*
G01X8910Y15300D01*
G01X8910Y15300D02*
G01X8700Y15510D01*
G01X8700Y15510D02*
G01X6160Y15510D01*
G01X6160Y15510D02*
G01X5711Y15061D01*
G01X5711Y15061D02*
G01X5711Y14755D01*
G01X8500Y20000D02*
G01X8500Y19300D01*
G01X8500Y19300D02*
G01X8990Y18810D01*
G01X8990Y18810D02*
G01X8990Y15870D01*
G01X8990Y15870D02*
G01X8700Y15510D01*
G01X7855Y11900D02*
G01X7220Y11900D01*
G01X7220Y11900D02*
G01X7210Y11910D01*
G01X7210Y11910D02*
G01X7200Y11904D01*
G01X4726Y14755D02*
G01X4726Y15073D01*
G01X4726Y15073D02*
G01X4500Y15300D01*
G01X4500Y15300D02*
G01X3850Y15300D01*
G54D62*
G01X3850Y15300D03*
G54D61*
G01X5309Y3803D02*
G01X5309Y3540D01*
G01X5309Y3540D02*
G01X4960Y3190D01*
G01X6116Y5201D02*
G01X6368Y5201D01*
G01X5900Y5614D02*
G01X5900Y5860D01*
G54D60*
G01X5112Y5614D02*
G01X5110Y7320D01*
G54D61*
G01X4522Y5614D02*
G01X4520Y5850D01*
G01X4520Y5850D02*
G01X4050Y5850D01*
G01X4600Y6200D02*
G01X4410Y6200D01*
G01X4600Y6700D02*
G01X4410Y6700D01*
G01X7200Y10850D02*
G01X7480Y10850D01*
G01X7200Y12200D02*
G01X7440Y12200D01*
G01X7440Y12200D02*
G01X7590Y12350D01*
G01X7590Y12350D02*
G01X9270Y12350D01*
G01X9270Y12350D02*
G01X9480Y12140D01*
G01X9480Y12140D02*
G01X9480Y11470D01*
G01X9480Y11470D02*
G01X9500Y11450D01*
G01X1400Y13000D02*
G01X1200Y13000D01*
G01X1400Y14610D02*
G01X1200Y14610D01*
G54D60*
G01X4274Y13909D02*
G01X4750Y13909D01*
G54D61*
G01X4750Y13909D02*
G01X5218Y13811D01*
G01X5218Y13811D02*
G01X5680Y13740D01*
G01X5680Y13740D02*
G01X5707Y13712D01*
G54D60*
G01X5707Y13712D02*
G01X6163Y13712D01*
G01X4274Y13515D02*
G01X4694Y13515D01*
G54D61*
G01X4694Y13515D02*
G01X4700Y13510D01*
G01X3400Y5800D02*
G01X3210Y5800D01*
G01X2500Y1600D02*
G01X2500Y1240D01*
G01X4100Y1600D02*
G01X4100Y1290D01*
G01X4800Y1800D02*
G01X4800Y1790D01*
G01X4800Y1790D02*
G01X4800Y1780D01*
G54D62*
G01X500Y13600D03*
G01X700Y2150D03*
G01X7320Y10200D03*
G54D61*
G01X9500Y11450D02*
G01X9480Y11490D01*
G01X9480Y11490D02*
G01X9444Y11525D01*
G01X9444Y11525D02*
G01X8800Y11525D01*
G01X8800Y11525D02*
G01X8525Y11525D01*
G01X8525Y11525D02*
G01X8330Y11330D01*
G01X8330Y11330D02*
G01X8330Y10930D01*
G01X8330Y10930D02*
G01X7930Y10530D01*
G01X500Y20000D02*
G01X500Y18010D01*
G01X500Y18010D02*
G01X500Y18000D01*
G01X500Y18000D02*
G01X500Y17330D01*
G01X6995Y13900D02*
G01X6990Y13890D01*
G54D60*
G01X6990Y13890D02*
G01X6990Y13660D01*
G01X6990Y13660D02*
G01X6930Y13600D01*
G01X6930Y13600D02*
G01X6530Y13600D01*
G01X6530Y13600D02*
G01X6420Y13710D01*
G01X6420Y13710D02*
G01X6220Y13710D01*
G01X6220Y13710D02*
G01X6163Y13712D01*
G01X4274Y13909D02*
G01X3479Y13909D01*
G01X3479Y13909D02*
G01X3380Y13810D01*
G01X3380Y13810D02*
G01X3380Y13180D01*
G01X3380Y13180D02*
G01X3380Y11890D01*
G01X4274Y13515D02*
G01X4075Y13515D01*
G01X4075Y13515D02*
G01X3680Y13120D01*
G01X3680Y13120D02*
G01X3380Y13120D01*
G01X3380Y13120D02*
G01X3380Y13220D01*
G01X3380Y13220D02*
G01X3380Y13180D01*
G54D61*
G01X4800Y1800D02*
G01X4800Y1490D01*
G01X6300Y2300D02*
G01X6890Y2300D01*
G01X6890Y2300D02*
G01X6890Y2180D01*
G01X6890Y2180D02*
G01X6900Y2100D01*
G54D63*
G01X1734Y5511D02*
G01X2221Y5511D01*
G01X2221Y5511D02*
G01X2510Y5800D01*
G54D62*
G01X2510Y5800D03*
G01X1600Y2140D03*
G54D63*
G01X1600Y2140D02*
G01X1600Y2100D01*
G54D60*
G01X8800Y11900D02*
G01X8390Y11900D01*
G01X8390Y11900D02*
G01X8310Y11820D01*
G01X8310Y11820D02*
G01X8310Y11640D01*
G01X8310Y11640D02*
G01X8190Y11520D01*
G01X8190Y11520D02*
G01X7040Y11520D01*
G01X7040Y11520D02*
G01X5710Y10190D01*
G01X5710Y10190D02*
G01X2530Y10190D01*
G54D62*
G01X2530Y10190D03*
G54D60*
G01X5514Y12866D02*
G01X5514Y12575D01*
G01X5514Y12575D02*
G01X5970Y12120D01*
G01X5970Y12120D02*
G01X6010Y12120D01*
G01X6010Y12120D02*
G01X6090Y12030D01*
G54D62*
G01X6090Y12030D03*
G54D60*
G01X1734Y5000D02*
G01X1750Y5000D01*
G01X1750Y5000D02*
G01X1754Y5004D01*
G01X1754Y5004D02*
G01X4305Y5004D01*
G01X8400Y5000D02*
G01X7760Y5640D01*
G01X7760Y5640D02*
G01X7760Y7050D01*
G01X7760Y7050D02*
G01X8130Y7420D01*
G01X8130Y7420D02*
G01X8360Y7420D01*
G01X8360Y7420D02*
G01X8400Y7422D01*
G01X5300Y11495D02*
G01X5300Y12110D01*
G01X5300Y12110D02*
G01X5120Y12290D01*
G01X5120Y12290D02*
G01X5120Y12890D01*
G01X5120Y12890D02*
G01X5120Y12866D01*
G01X5700Y11600D02*
G01X6780Y11600D01*
G01X6780Y11600D02*
G01X6890Y11710D01*
G01X6890Y11710D02*
G01X6890Y12460D01*
G01X6890Y12460D02*
G01X7430Y13000D01*
G01X7430Y13000D02*
G01X8400Y13000D01*
G01X5300Y11495D02*
G01X5330Y11500D01*
G01X5330Y11500D02*
G01X5420Y11500D01*
G01X5420Y11500D02*
G01X5520Y11600D01*
G01X5520Y11600D02*
G01X5700Y11600D01*
G01X6116Y4216D02*
G01X6190Y4210D01*
G01X6190Y4210D02*
G01X6450Y4210D01*
G01X6450Y4210D02*
G01X6670Y3990D01*
G01X6670Y3990D02*
G01X7070Y3990D01*
G54D62*
G01X7070Y3990D03*
G01X5330Y10560D03*
G54D60*
G01X5330Y10560D02*
G01X5330Y11090D01*
G01X5330Y11090D02*
G01X5300Y11200D01*
G01X5120Y14755D02*
G01X5120Y15360D01*
G01X5120Y15360D02*
G01X6000Y16240D01*
G01X6000Y16240D02*
G01X6000Y18740D01*
G01X6000Y18740D02*
G01X6506Y19246D01*
G01X6506Y19246D02*
G01X6506Y20114D01*
G01X6506Y20114D02*
G01X6480Y20140D01*
G01X6480Y20140D02*
G01X6500Y20000D01*
G01X4500Y21000D02*
G01X4550Y21060D01*
G01X4550Y21060D02*
G01X4850Y20760D01*
G01X4850Y20760D02*
G01X5000Y20610D01*
G01X5000Y20610D02*
G01X5000Y19740D01*
G01X5000Y19740D02*
G01X6000Y18740D01*

G04 Draw Text*
M00*
M02*
