G04 FreePCB version 1.359*
G04 C:\Users\Dwight Springthorpe\Documents\GitHub\DAQpack_mk2\base_CAM\top_silk.grb*
G04 top silk layer *
G04 Scale: 100 percent, Rotated: No, Reflected: No *
%FSLAX24Y24*%
%MOIN*%
%LN top silk *%
G04 Rounded Rectangle Macro, params: W/2, H/2, R *
%AMRNDREC*
21,1,$1+$1,$2+$2-$3-$3,0,0,0*
21,1,$1+$1-$3-$3,$2+$2,0,0,0*
1,1,$3+$3,$1-$3,$2-$3*
1,1,$3+$3,$3-$1,$2-$3*
1,1,$3+$3,$1-$3,$3-$2*
1,1,$3+$3,$3-$1,$3-$2*%
G04 Rectangular Thermal Macro, params: W/2, H/2, T/2 *
%AMRECTHERM*
$4=$3/2*
21,1,$1-$3,$2-$3,0-$1/2-$4,0-$2/2-$4,0*
21,1,$1-$3,$2-$3,0-$1/2-$4,$2/2+$4,0*
21,1,$1-$3,$2-$3,$1/2+$4,0-$2/2-$4,0*
21,1,$1-$3,$2-$3,$1/2+$4,$2/2+$4,0*%
%ADD10C,0.005000*%
%ADD11C,0.007000*%
%ADD12C,0.010000*%
G90*
G70D02*

G04 Step and Repeat for panelization *

G04 ----------------------- Draw board outline (positive)*
%LPD*%
G54D10*
G01X-100Y-100D02*
G01X-100Y22600D01*
G04 end of side 1*
G01X10100Y22600D01*
G04 end of side 2*
G01X10100Y-100D01*
G04 end of side 3*
G01X-100Y-100D01*

G04 -------------- Draw Parts, Pads, Traces, Vias and Text (positive)*
%LPD*%
G04 Draw part U1*
G04 Draw part U5*
G04 Draw part U6*
G04 Draw part C3*
G04 Draw part R4*
G04 Draw part C4*
G04 Draw part X1*
G04 Draw part C1*
G04 Draw part C2*
G04 Draw part D3*
G04 draw part outline for part D3*
G54D11*
G01X3224Y11425D02*
G01X799Y11425D01*
G01X799Y11425D02*
G01X799Y10574D01*
G01X799Y10574D02*
G01X3224Y10574D01*
G01X3224Y10574D02*
G01X3224Y11425D01*
G54D12*
G01X550Y10500D02*
G01X550Y11500D01*
G04 draw reference designator for part D3*
G54D10*
G01X350Y9222D02*
G01X350Y9700D01*
G01X190Y9222D02*
G01X350Y9222D01*
G01X190Y9222D02*
G01X122Y9245D01*
G01X122Y9245D02*
G01X77Y9290D01*
G01X77Y9290D02*
G01X54Y9336D01*
G01X54Y9336D02*
G01X31Y9404D01*
G01X31Y9404D02*
G01X31Y9518D01*
G01X31Y9518D02*
G01X54Y9586D01*
G01X54Y9586D02*
G01X77Y9631D01*
G01X77Y9631D02*
G01X122Y9677D01*
G01X122Y9677D02*
G01X190Y9700D01*
G01X350Y9700D02*
G01X190Y9700D01*
G01X-445Y9222D02*
G01X-195Y9222D01*
G01X-445Y9222D02*
G01X-309Y9404D01*
G01X-377Y9404D02*
G01X-309Y9404D01*
G01X-377Y9404D02*
G01X-422Y9427D01*
G01X-422Y9427D02*
G01X-445Y9450D01*
G01X-445Y9450D02*
G01X-468Y9518D01*
G01X-468Y9518D02*
G01X-468Y9563D01*
G01X-468Y9563D02*
G01X-445Y9631D01*
G01X-445Y9631D02*
G01X-400Y9677D01*
G01X-400Y9677D02*
G01X-331Y9700D01*
G01X-263Y9700D02*
G01X-331Y9700D01*
G01X-195Y9677D02*
G01X-263Y9700D01*
G01X-172Y9654D02*
G01X-195Y9677D01*
G01X-150Y9609D02*
G01X-172Y9654D01*
G04 Draw part R3*
G04 draw part outline for part R3*
G04 draw reference designator for part R3*
G01X2900Y12377D02*
G01X2900Y11900D01*
G01X3104Y12377D02*
G01X2900Y12377D01*
G01X3104Y12377D02*
G01X3172Y12354D01*
G01X3172Y12354D02*
G01X3195Y12331D01*
G01X3195Y12331D02*
G01X3218Y12286D01*
G01X3218Y12286D02*
G01X3218Y12240D01*
G01X3218Y12240D02*
G01X3195Y12195D01*
G01X3195Y12195D02*
G01X3172Y12172D01*
G01X3172Y12172D02*
G01X3104Y12150D01*
G01X2900Y12150D02*
G01X3104Y12150D01*
G01X3059Y12150D02*
G01X3218Y11900D01*
G01X3695Y12377D02*
G01X3445Y12377D01*
G01X3695Y12377D02*
G01X3559Y12195D01*
G01X3627Y12195D02*
G01X3559Y12195D01*
G01X3627Y12195D02*
G01X3672Y12172D01*
G01X3672Y12172D02*
G01X3695Y12150D01*
G01X3695Y12150D02*
G01X3718Y12081D01*
G01X3718Y12081D02*
G01X3718Y12036D01*
G01X3718Y12036D02*
G01X3695Y11968D01*
G01X3695Y11968D02*
G01X3650Y11922D01*
G01X3650Y11922D02*
G01X3581Y11900D01*
G01X3513Y11900D02*
G01X3581Y11900D01*
G01X3445Y11922D02*
G01X3513Y11900D01*
G01X3422Y11945D02*
G01X3445Y11922D01*
G01X3400Y11990D02*
G01X3422Y11945D01*
G04 Draw part D2*
G04 draw part outline for part D2*
G54D11*
G01X3224Y13425D02*
G01X799Y13425D01*
G01X799Y13425D02*
G01X799Y12574D01*
G01X799Y12574D02*
G01X3224Y12574D01*
G01X3224Y12574D02*
G01X3224Y13425D01*
G54D12*
G01X550Y12500D02*
G01X550Y13500D01*
G04 draw reference designator for part D2*
G54D10*
G01X350Y11222D02*
G01X350Y11700D01*
G01X190Y11222D02*
G01X350Y11222D01*
G01X190Y11222D02*
G01X122Y11245D01*
G01X122Y11245D02*
G01X77Y11290D01*
G01X77Y11290D02*
G01X54Y11336D01*
G01X54Y11336D02*
G01X31Y11404D01*
G01X31Y11404D02*
G01X31Y11518D01*
G01X31Y11518D02*
G01X54Y11586D01*
G01X54Y11586D02*
G01X77Y11631D01*
G01X77Y11631D02*
G01X122Y11677D01*
G01X122Y11677D02*
G01X190Y11700D01*
G01X350Y11700D02*
G01X190Y11700D01*
G01X-172Y11313D02*
G01X-172Y11336D01*
G01X-195Y11268D02*
G01X-172Y11313D01*
G01X-218Y11245D02*
G01X-195Y11268D01*
G01X-263Y11222D02*
G01X-218Y11245D01*
G01X-354Y11222D02*
G01X-263Y11222D01*
G01X-354Y11222D02*
G01X-400Y11245D01*
G01X-400Y11245D02*
G01X-422Y11268D01*
G01X-422Y11268D02*
G01X-445Y11313D01*
G01X-445Y11313D02*
G01X-445Y11359D01*
G01X-445Y11359D02*
G01X-422Y11404D01*
G01X-422Y11404D02*
G01X-377Y11472D01*
G01X-377Y11472D02*
G01X-150Y11700D01*
G01X-468Y11700D02*
G01X-150Y11700D01*
G04 Draw part R2*
G04 draw part outline for part R2*
G04 draw reference designator for part R2*
G01X2900Y14377D02*
G01X2900Y13900D01*
G01X3104Y14377D02*
G01X2900Y14377D01*
G01X3104Y14377D02*
G01X3172Y14354D01*
G01X3172Y14354D02*
G01X3195Y14331D01*
G01X3195Y14331D02*
G01X3218Y14286D01*
G01X3218Y14286D02*
G01X3218Y14240D01*
G01X3218Y14240D02*
G01X3195Y14195D01*
G01X3195Y14195D02*
G01X3172Y14172D01*
G01X3172Y14172D02*
G01X3104Y14150D01*
G01X2900Y14150D02*
G01X3104Y14150D01*
G01X3059Y14150D02*
G01X3218Y13900D01*
G01X3422Y14286D02*
G01X3422Y14263D01*
G01X3445Y14331D02*
G01X3422Y14286D01*
G01X3468Y14354D02*
G01X3445Y14331D01*
G01X3513Y14377D02*
G01X3468Y14354D01*
G01X3604Y14377D02*
G01X3513Y14377D01*
G01X3604Y14377D02*
G01X3650Y14354D01*
G01X3650Y14354D02*
G01X3672Y14331D01*
G01X3672Y14331D02*
G01X3695Y14286D01*
G01X3695Y14286D02*
G01X3695Y14240D01*
G01X3695Y14240D02*
G01X3672Y14195D01*
G01X3672Y14195D02*
G01X3627Y14127D01*
G01X3627Y14127D02*
G01X3400Y13900D01*
G01X3718Y13900D02*
G01X3400Y13900D01*
G04 Draw part D1*
G04 draw part outline for part D1*
G54D11*
G01X3224Y15425D02*
G01X799Y15425D01*
G01X799Y15425D02*
G01X799Y14574D01*
G01X799Y14574D02*
G01X3224Y14574D01*
G01X3224Y14574D02*
G01X3224Y15425D01*
G54D12*
G01X550Y14500D02*
G01X550Y15500D01*
G04 draw reference designator for part D1*
G54D10*
G01X350Y13222D02*
G01X350Y13700D01*
G01X190Y13222D02*
G01X350Y13222D01*
G01X190Y13222D02*
G01X122Y13245D01*
G01X122Y13245D02*
G01X77Y13290D01*
G01X77Y13290D02*
G01X54Y13336D01*
G01X54Y13336D02*
G01X31Y13404D01*
G01X31Y13404D02*
G01X31Y13518D01*
G01X31Y13518D02*
G01X54Y13586D01*
G01X54Y13586D02*
G01X77Y13631D01*
G01X77Y13631D02*
G01X122Y13677D01*
G01X122Y13677D02*
G01X190Y13700D01*
G01X350Y13700D02*
G01X190Y13700D01*
G01X-195Y13290D02*
G01X-150Y13313D01*
G01X-263Y13222D02*
G01X-195Y13290D01*
G01X-263Y13222D02*
G01X-263Y13700D01*
G04 Draw part R1*
G04 draw part outline for part R1*
G04 draw reference designator for part R1*
G01X2900Y16377D02*
G01X2900Y15900D01*
G01X3104Y16377D02*
G01X2900Y16377D01*
G01X3104Y16377D02*
G01X3172Y16354D01*
G01X3172Y16354D02*
G01X3195Y16331D01*
G01X3195Y16331D02*
G01X3218Y16286D01*
G01X3218Y16286D02*
G01X3218Y16240D01*
G01X3218Y16240D02*
G01X3195Y16195D01*
G01X3195Y16195D02*
G01X3172Y16172D01*
G01X3172Y16172D02*
G01X3104Y16150D01*
G01X2900Y16150D02*
G01X3104Y16150D01*
G01X3059Y16150D02*
G01X3218Y15900D01*
G01X3445Y16309D02*
G01X3400Y16286D01*
G01X3513Y16377D02*
G01X3445Y16309D01*
G01X3513Y16377D02*
G01X3513Y15900D01*
G04 Draw part H2*
G04 Draw part R5*
G04 draw part outline for part R5*
G04 draw reference designator for part R5*
G01X-200Y8822D02*
G01X-200Y9300D01*
G01X-404Y8822D02*
G01X-200Y8822D01*
G01X-404Y8822D02*
G01X-472Y8845D01*
G01X-472Y8845D02*
G01X-495Y8868D01*
G01X-495Y8868D02*
G01X-518Y8913D01*
G01X-518Y8913D02*
G01X-518Y8959D01*
G01X-518Y8959D02*
G01X-495Y9004D01*
G01X-495Y9004D02*
G01X-472Y9027D01*
G01X-472Y9027D02*
G01X-404Y9050D01*
G01X-200Y9050D02*
G01X-404Y9050D01*
G01X-359Y9050D02*
G01X-518Y9300D01*
G01X-745Y8822D02*
G01X-972Y8822D01*
G01X-745Y8822D02*
G01X-722Y9027D01*
G01X-745Y9004D02*
G01X-722Y9027D01*
G01X-813Y8981D02*
G01X-745Y9004D01*
G01X-881Y8981D02*
G01X-813Y8981D01*
G01X-881Y8981D02*
G01X-950Y9004D01*
G01X-950Y9004D02*
G01X-995Y9050D01*
G01X-995Y9050D02*
G01X-1018Y9118D01*
G01X-1018Y9118D02*
G01X-1018Y9163D01*
G01X-1018Y9163D02*
G01X-995Y9231D01*
G01X-995Y9231D02*
G01X-950Y9277D01*
G01X-950Y9277D02*
G01X-881Y9300D01*
G01X-813Y9300D02*
G01X-881Y9300D01*
G01X-745Y9277D02*
G01X-813Y9300D01*
G01X-722Y9254D02*
G01X-745Y9277D01*
G01X-700Y9209D02*
G01X-722Y9254D01*
G04 Draw part D4*
G04 draw part outline for part D4*
G54D11*
G01X775Y8574D02*
G01X3200Y8574D01*
G01X3200Y8574D02*
G01X3200Y9425D01*
G01X3200Y9425D02*
G01X775Y9425D01*
G01X775Y9425D02*
G01X775Y8574D01*
G54D12*
G01X3450Y9500D02*
G01X3450Y8500D01*
G04 draw reference designator for part D4*
G54D10*
G01X3650Y10777D02*
G01X3650Y10300D01*
G01X3809Y10777D02*
G01X3650Y10777D01*
G01X3809Y10777D02*
G01X3877Y10754D01*
G01X3877Y10754D02*
G01X3922Y10709D01*
G01X3922Y10709D02*
G01X3945Y10663D01*
G01X3945Y10663D02*
G01X3968Y10595D01*
G01X3968Y10595D02*
G01X3968Y10481D01*
G01X3968Y10481D02*
G01X3945Y10413D01*
G01X3945Y10413D02*
G01X3922Y10368D01*
G01X3922Y10368D02*
G01X3877Y10322D01*
G01X3877Y10322D02*
G01X3809Y10300D01*
G01X3650Y10300D02*
G01X3809Y10300D01*
G01X4377Y10777D02*
G01X4150Y10459D01*
G01X4490Y10459D02*
G01X4150Y10459D01*
G01X4377Y10777D02*
G01X4377Y10300D01*
G04 Draw part D5*
G04 draw part outline for part D5*
G54D11*
G01X775Y6574D02*
G01X3200Y6574D01*
G01X3200Y6574D02*
G01X3200Y7425D01*
G01X3200Y7425D02*
G01X775Y7425D01*
G01X775Y7425D02*
G01X775Y6574D01*
G54D12*
G01X3450Y7500D02*
G01X3450Y6500D01*
G04 draw reference designator for part D5*
G54D10*
G01X3650Y8777D02*
G01X3650Y8300D01*
G01X3809Y8777D02*
G01X3650Y8777D01*
G01X3809Y8777D02*
G01X3877Y8754D01*
G01X3877Y8754D02*
G01X3922Y8709D01*
G01X3922Y8709D02*
G01X3945Y8663D01*
G01X3945Y8663D02*
G01X3968Y8595D01*
G01X3968Y8595D02*
G01X3968Y8481D01*
G01X3968Y8481D02*
G01X3945Y8413D01*
G01X3945Y8413D02*
G01X3922Y8368D01*
G01X3922Y8368D02*
G01X3877Y8322D01*
G01X3877Y8322D02*
G01X3809Y8300D01*
G01X3650Y8300D02*
G01X3809Y8300D01*
G01X4195Y8777D02*
G01X4422Y8777D01*
G01X4195Y8777D02*
G01X4172Y8572D01*
G01X4195Y8595D02*
G01X4172Y8572D01*
G01X4263Y8618D02*
G01X4195Y8595D01*
G01X4331Y8618D02*
G01X4263Y8618D01*
G01X4331Y8618D02*
G01X4400Y8595D01*
G01X4400Y8595D02*
G01X4445Y8550D01*
G01X4445Y8550D02*
G01X4468Y8481D01*
G01X4468Y8481D02*
G01X4468Y8436D01*
G01X4468Y8436D02*
G01X4445Y8368D01*
G01X4445Y8368D02*
G01X4400Y8322D01*
G01X4400Y8322D02*
G01X4331Y8300D01*
G01X4263Y8300D02*
G01X4331Y8300D01*
G01X4195Y8322D02*
G01X4263Y8300D01*
G01X4172Y8345D02*
G01X4195Y8322D01*
G01X4150Y8390D02*
G01X4172Y8345D01*
G04 Draw part R6*
G04 draw part outline for part R6*
G04 draw reference designator for part R6*
G01X-200Y6922D02*
G01X-200Y7400D01*
G01X-404Y6922D02*
G01X-200Y6922D01*
G01X-404Y6922D02*
G01X-472Y6945D01*
G01X-472Y6945D02*
G01X-495Y6968D01*
G01X-495Y6968D02*
G01X-518Y7013D01*
G01X-518Y7013D02*
G01X-518Y7059D01*
G01X-518Y7059D02*
G01X-495Y7104D01*
G01X-495Y7104D02*
G01X-472Y7127D01*
G01X-472Y7127D02*
G01X-404Y7150D01*
G01X-200Y7150D02*
G01X-404Y7150D01*
G01X-359Y7150D02*
G01X-518Y7400D01*
G01X-950Y6945D02*
G01X-972Y6990D01*
G01X-881Y6922D02*
G01X-950Y6945D01*
G01X-836Y6922D02*
G01X-881Y6922D01*
G01X-836Y6922D02*
G01X-768Y6945D01*
G01X-768Y6945D02*
G01X-722Y7013D01*
G01X-722Y7013D02*
G01X-700Y7127D01*
G01X-700Y7127D02*
G01X-700Y7240D01*
G01X-700Y7240D02*
G01X-722Y7331D01*
G01X-722Y7331D02*
G01X-768Y7377D01*
G01X-768Y7377D02*
G01X-836Y7400D01*
G01X-859Y7400D02*
G01X-836Y7400D01*
G01X-927Y7377D02*
G01X-859Y7400D01*
G01X-972Y7331D02*
G01X-927Y7377D01*
G01X-995Y7263D02*
G01X-972Y7331D01*
G01X-995Y7240D02*
G01X-995Y7263D01*
G01X-972Y7172D02*
G01X-995Y7240D01*
G01X-927Y7127D02*
G01X-972Y7172D01*
G01X-859Y7104D02*
G01X-927Y7127D01*
G01X-836Y7104D02*
G01X-859Y7104D01*
G01X-836Y7104D02*
G01X-768Y7127D01*
G01X-768Y7127D02*
G01X-722Y7172D01*
G01X-722Y7172D02*
G01X-700Y7240D01*
G04 Draw part C7*
G04 Draw part C6*
G04 Draw part C5*
G04 Draw part F1*
G04 Draw part C11*
G04 Draw part R9*
G04 Draw part D7*
G04 draw part outline for part D7*
G54D11*
G01X3224Y5425D02*
G01X799Y5425D01*
G01X799Y5425D02*
G01X799Y4574D01*
G01X799Y4574D02*
G01X3224Y4574D01*
G01X3224Y4574D02*
G01X3224Y5425D01*
G54D12*
G01X550Y4500D02*
G01X550Y5500D01*
G04 draw reference designator for part D7*
G54D10*
G01X350Y3222D02*
G01X350Y3700D01*
G01X190Y3222D02*
G01X350Y3222D01*
G01X190Y3222D02*
G01X122Y3245D01*
G01X122Y3245D02*
G01X77Y3290D01*
G01X77Y3290D02*
G01X54Y3336D01*
G01X54Y3336D02*
G01X31Y3404D01*
G01X31Y3404D02*
G01X31Y3518D01*
G01X31Y3518D02*
G01X54Y3586D01*
G01X54Y3586D02*
G01X77Y3631D01*
G01X77Y3631D02*
G01X122Y3677D01*
G01X122Y3677D02*
G01X190Y3700D01*
G01X350Y3700D02*
G01X190Y3700D01*
G01X-468Y3222D02*
G01X-240Y3700D01*
G01X-468Y3222D02*
G01X-150Y3222D01*
G04 Draw part R10*
G04 draw part outline for part R10*
G04 draw reference designator for part R10*
G01X3100Y6377D02*
G01X3100Y5900D01*
G01X3304Y6377D02*
G01X3100Y6377D01*
G01X3304Y6377D02*
G01X3372Y6354D01*
G01X3372Y6354D02*
G01X3395Y6331D01*
G01X3395Y6331D02*
G01X3418Y6286D01*
G01X3418Y6286D02*
G01X3418Y6240D01*
G01X3418Y6240D02*
G01X3395Y6195D01*
G01X3395Y6195D02*
G01X3372Y6172D01*
G01X3372Y6172D02*
G01X3304Y6150D01*
G01X3100Y6150D02*
G01X3304Y6150D01*
G01X3259Y6150D02*
G01X3418Y5900D01*
G01X3645Y6309D02*
G01X3600Y6286D01*
G01X3713Y6377D02*
G01X3645Y6309D01*
G01X3713Y6377D02*
G01X3713Y5900D01*
G01X4031Y6377D02*
G01X3963Y6354D01*
G01X3963Y6354D02*
G01X3918Y6286D01*
G01X3918Y6286D02*
G01X3895Y6172D01*
G01X3895Y6172D02*
G01X3895Y6104D01*
G01X3895Y6104D02*
G01X3918Y5990D01*
G01X3918Y5990D02*
G01X3963Y5922D01*
G01X3963Y5922D02*
G01X4031Y5900D01*
G01X4077Y5900D02*
G01X4031Y5900D01*
G01X4145Y5922D02*
G01X4077Y5900D01*
G01X4190Y5990D02*
G01X4145Y5922D01*
G01X4213Y6104D02*
G01X4190Y5990D01*
G01X4213Y6172D02*
G01X4213Y6104D01*
G01X4190Y6286D02*
G01X4213Y6172D01*
G01X4145Y6354D02*
G01X4190Y6286D01*
G01X4077Y6377D02*
G01X4145Y6354D01*
G01X4031Y6377D02*
G01X4077Y6377D01*
G04 Draw part C10*
G04 Draw part C9*
G04 Draw part C8*
G04 Draw part D6*
G04 draw part outline for part D6*
G54D11*
G01X3224Y3425D02*
G01X799Y3425D01*
G01X799Y3425D02*
G01X799Y2574D01*
G01X799Y2574D02*
G01X3224Y2574D01*
G01X3224Y2574D02*
G01X3224Y3425D01*
G54D12*
G01X550Y2500D02*
G01X550Y3500D01*
G04 draw reference designator for part D6*
G54D10*
G01X350Y1222D02*
G01X350Y1700D01*
G01X190Y1222D02*
G01X350Y1222D01*
G01X190Y1222D02*
G01X122Y1245D01*
G01X122Y1245D02*
G01X77Y1290D01*
G01X77Y1290D02*
G01X54Y1336D01*
G01X54Y1336D02*
G01X31Y1404D01*
G01X31Y1404D02*
G01X31Y1518D01*
G01X31Y1518D02*
G01X54Y1586D01*
G01X54Y1586D02*
G01X77Y1631D01*
G01X77Y1631D02*
G01X122Y1677D01*
G01X122Y1677D02*
G01X190Y1700D01*
G01X350Y1700D02*
G01X190Y1700D01*
G01X-400Y1245D02*
G01X-422Y1290D01*
G01X-331Y1222D02*
G01X-400Y1245D01*
G01X-286Y1222D02*
G01X-331Y1222D01*
G01X-286Y1222D02*
G01X-218Y1245D01*
G01X-218Y1245D02*
G01X-172Y1313D01*
G01X-172Y1313D02*
G01X-150Y1427D01*
G01X-150Y1427D02*
G01X-150Y1540D01*
G01X-150Y1540D02*
G01X-172Y1631D01*
G01X-172Y1631D02*
G01X-218Y1677D01*
G01X-218Y1677D02*
G01X-286Y1700D01*
G01X-309Y1700D02*
G01X-286Y1700D01*
G01X-377Y1677D02*
G01X-309Y1700D01*
G01X-422Y1631D02*
G01X-377Y1677D01*
G01X-445Y1563D02*
G01X-422Y1631D01*
G01X-445Y1540D02*
G01X-445Y1563D01*
G01X-422Y1472D02*
G01X-445Y1540D01*
G01X-377Y1427D02*
G01X-422Y1472D01*
G01X-309Y1404D02*
G01X-377Y1427D01*
G01X-286Y1404D02*
G01X-309Y1404D01*
G01X-286Y1404D02*
G01X-218Y1427D01*
G01X-218Y1427D02*
G01X-172Y1472D01*
G01X-172Y1472D02*
G01X-150Y1540D01*
G04 Draw part R8*
G04 draw part outline for part R8*
G04 draw reference designator for part R8*
G01X-500Y2822D02*
G01X-500Y3300D01*
G01X-704Y2822D02*
G01X-500Y2822D01*
G01X-704Y2822D02*
G01X-772Y2845D01*
G01X-772Y2845D02*
G01X-795Y2868D01*
G01X-795Y2868D02*
G01X-818Y2913D01*
G01X-818Y2913D02*
G01X-818Y2959D01*
G01X-818Y2959D02*
G01X-795Y3004D01*
G01X-795Y3004D02*
G01X-772Y3027D01*
G01X-772Y3027D02*
G01X-704Y3050D01*
G01X-500Y3050D02*
G01X-704Y3050D01*
G01X-659Y3050D02*
G01X-818Y3300D01*
G01X-1113Y2822D02*
G01X-1045Y2845D01*
G01X-1045Y2845D02*
G01X-1022Y2890D01*
G01X-1022Y2890D02*
G01X-1022Y2936D01*
G01X-1022Y2936D02*
G01X-1045Y2981D01*
G01X-1045Y2981D02*
G01X-1090Y3004D01*
G01X-1090Y3004D02*
G01X-1181Y3027D01*
G01X-1181Y3027D02*
G01X-1250Y3050D01*
G01X-1250Y3050D02*
G01X-1295Y3095D01*
G01X-1295Y3095D02*
G01X-1318Y3140D01*
G01X-1318Y3140D02*
G01X-1318Y3209D01*
G01X-1318Y3209D02*
G01X-1295Y3254D01*
G01X-1295Y3254D02*
G01X-1272Y3277D01*
G01X-1272Y3277D02*
G01X-1204Y3300D01*
G01X-1113Y3300D02*
G01X-1204Y3300D01*
G01X-1045Y3277D02*
G01X-1113Y3300D01*
G01X-1022Y3254D02*
G01X-1045Y3277D01*
G01X-1000Y3209D02*
G01X-1022Y3254D01*
G01X-1000Y3140D02*
G01X-1000Y3209D01*
G01X-1022Y3095D02*
G01X-1000Y3140D01*
G01X-1068Y3050D02*
G01X-1022Y3095D01*
G01X-1136Y3027D02*
G01X-1068Y3050D01*
G01X-1227Y3004D02*
G01X-1136Y3027D01*
G01X-1272Y2981D02*
G01X-1227Y3004D01*
G01X-1295Y2936D02*
G01X-1272Y2981D01*
G01X-1295Y2890D02*
G01X-1295Y2936D01*
G01X-1272Y2845D02*
G01X-1295Y2890D01*
G01X-1204Y2822D02*
G01X-1272Y2845D01*
G01X-1113Y2822D02*
G01X-1204Y2822D01*
G04 Draw part H4*
G04 Draw part U2*
G04 Draw part H1*
G04 draw part outline for part H1*
G54D12*
G01X7890Y15454D02*
G01X7845Y15500D01*
G01X7845Y15500D02*
G01X7800Y15454D01*
G01X7845Y15409D02*
G01X7800Y15454D01*
G01X7890Y15454D02*
G01X7845Y15409D01*
G04 draw reference designator for part H1*
G54D10*
G01X10877Y14000D02*
G01X10400Y14000D01*
G01X10877Y13681D02*
G01X10400Y13681D01*
G01X10650Y13681D02*
G01X10650Y14000D01*
G01X10809Y13454D02*
G01X10786Y13500D01*
G01X10877Y13386D02*
G01X10809Y13454D01*
G01X10877Y13386D02*
G01X10400Y13386D01*
G04 Draw part H3*
G04 Draw part H7*
G04 draw part outline for part H7*
G54D11*
G01X7970Y9790D02*
G01X9830Y9790D01*
G01X9830Y9790D02*
G01X9830Y10650D01*
G01X9830Y10650D02*
G01X7970Y10650D01*
G01X7970Y10650D02*
G01X7970Y9790D01*
G04 draw reference designator for part H7*
G54D10*
G01X8650Y10697D02*
G01X8650Y10220D01*
G01X8968Y10697D02*
G01X8968Y10220D01*
G01X8968Y10470D02*
G01X8650Y10470D01*
G01X9468Y10697D02*
G01X9240Y10220D01*
G01X9468Y10697D02*
G01X9150Y10697D01*
G04 Draw part H6*
G04 draw part outline for part H6*
G54D11*
G01X70Y17570D02*
G01X9930Y17570D01*
G01X9930Y17570D02*
G01X9930Y18430D01*
G01X9930Y18430D02*
G01X70Y18430D01*
G01X70Y18430D02*
G01X70Y17570D01*
G04 draw reference designator for part H6*
G54D10*
G01X5400Y19877D02*
G01X5400Y19400D01*
G01X5718Y19877D02*
G01X5718Y19400D01*
G01X5718Y19650D02*
G01X5400Y19650D01*
G01X6150Y19854D02*
G01X6172Y19809D01*
G01X6081Y19877D02*
G01X6150Y19854D01*
G01X6036Y19877D02*
G01X6081Y19877D01*
G01X6036Y19877D02*
G01X5968Y19854D01*
G01X5968Y19854D02*
G01X5922Y19786D01*
G01X5922Y19786D02*
G01X5900Y19672D01*
G01X5900Y19672D02*
G01X5900Y19559D01*
G01X5900Y19559D02*
G01X5922Y19468D01*
G01X5922Y19468D02*
G01X5968Y19422D01*
G01X5968Y19422D02*
G01X6036Y19400D01*
G01X6059Y19400D02*
G01X6036Y19400D01*
G01X6127Y19422D02*
G01X6059Y19400D01*
G01X6172Y19468D02*
G01X6127Y19422D01*
G01X6195Y19536D02*
G01X6172Y19468D01*
G01X6195Y19559D02*
G01X6195Y19536D01*
G01X6172Y19627D02*
G01X6195Y19559D01*
G01X6127Y19672D02*
G01X6172Y19627D01*
G01X6059Y19695D02*
G01X6127Y19672D01*
G01X6036Y19695D02*
G01X6059Y19695D01*
G01X6036Y19695D02*
G01X5968Y19672D01*
G01X5968Y19672D02*
G01X5922Y19627D01*
G01X5922Y19627D02*
G01X5900Y19559D01*
G04 Draw part H5*
G04 draw part outline for part H5*
G54D11*
G01X70Y19570D02*
G01X9930Y19570D01*
G01X9930Y19570D02*
G01X9930Y20430D01*
G01X9930Y20430D02*
G01X70Y20430D01*
G01X70Y20430D02*
G01X70Y19570D01*
G04 draw reference designator for part H5*
G54D10*
G01X5400Y21877D02*
G01X5400Y21400D01*
G01X5718Y21877D02*
G01X5718Y21400D01*
G01X5718Y21650D02*
G01X5400Y21650D01*
G01X5945Y21877D02*
G01X6172Y21877D01*
G01X5945Y21877D02*
G01X5922Y21672D01*
G01X5945Y21695D02*
G01X5922Y21672D01*
G01X6013Y21718D02*
G01X5945Y21695D01*
G01X6081Y21718D02*
G01X6013Y21718D01*
G01X6081Y21718D02*
G01X6150Y21695D01*
G01X6150Y21695D02*
G01X6195Y21650D01*
G01X6195Y21650D02*
G01X6218Y21581D01*
G01X6218Y21581D02*
G01X6218Y21536D01*
G01X6218Y21536D02*
G01X6195Y21468D01*
G01X6195Y21468D02*
G01X6150Y21422D01*
G01X6150Y21422D02*
G01X6081Y21400D01*
G01X6013Y21400D02*
G01X6081Y21400D01*
G01X5945Y21422D02*
G01X6013Y21400D01*
G01X5922Y21445D02*
G01X5945Y21422D01*
G01X5900Y21490D02*
G01X5922Y21445D01*
G04 Draw part H8*
G04 draw part outline for part H8*
G54D11*
G01X5930Y1130D02*
G01X4070Y1130D01*
G01X4070Y1130D02*
G01X4070Y270D01*
G01X4070Y270D02*
G01X5930Y270D01*
G01X5930Y270D02*
G01X5930Y1130D01*
G04 draw reference designator for part H8*
G54D10*
G01X5250Y222D02*
G01X5250Y700D01*
G01X4931Y222D02*
G01X4931Y700D01*
G01X4931Y450D02*
G01X5250Y450D01*
G01X4636Y222D02*
G01X4704Y245D01*
G01X4704Y245D02*
G01X4727Y290D01*
G01X4727Y290D02*
G01X4727Y336D01*
G01X4727Y336D02*
G01X4704Y381D01*
G01X4704Y381D02*
G01X4659Y404D01*
G01X4659Y404D02*
G01X4568Y427D01*
G01X4568Y427D02*
G01X4500Y450D01*
G01X4500Y450D02*
G01X4454Y495D01*
G01X4454Y495D02*
G01X4431Y540D01*
G01X4431Y540D02*
G01X4431Y609D01*
G01X4431Y609D02*
G01X4454Y654D01*
G01X4454Y654D02*
G01X4477Y677D01*
G01X4477Y677D02*
G01X4545Y700D01*
G01X4636Y700D02*
G01X4545Y700D01*
G01X4704Y677D02*
G01X4636Y700D01*
G01X4727Y654D02*
G01X4704Y677D01*
G01X4750Y609D02*
G01X4727Y654D01*
G01X4750Y540D02*
G01X4750Y609D01*
G01X4727Y495D02*
G01X4750Y540D01*
G01X4681Y450D02*
G01X4727Y495D01*
G01X4613Y427D02*
G01X4681Y450D01*
G01X4522Y404D02*
G01X4613Y427D01*
G01X4477Y381D02*
G01X4522Y404D01*
G01X4454Y336D02*
G01X4477Y381D01*
G01X4454Y290D02*
G01X4454Y336D01*
G01X4477Y245D02*
G01X4454Y290D01*
G01X4545Y222D02*
G01X4477Y245D01*
G01X4636Y222D02*
G01X4545Y222D01*
G04 Draw part H9*
G04 draw part outline for part H9*
G04 draw reference designator for part H9*
G54D12*
G01X2000Y3954D02*
G01X2000Y3000D01*
G01X2636Y3954D02*
G01X2636Y3000D01*
G01X2636Y3500D02*
G01X2000Y3500D01*
G01X3590Y3636D02*
G01X3545Y3500D01*
G01X3545Y3500D02*
G01X3454Y3409D01*
G01X3454Y3409D02*
G01X3318Y3363D01*
G01X3272Y3363D02*
G01X3318Y3363D01*
G01X3136Y3409D02*
G01X3272Y3363D01*
G01X3045Y3500D02*
G01X3136Y3409D01*
G01X3000Y3636D02*
G01X3045Y3500D01*
G01X3000Y3681D02*
G01X3000Y3636D01*
G01X3045Y3818D02*
G01X3000Y3681D01*
G01X3136Y3909D02*
G01X3045Y3818D01*
G01X3272Y3954D02*
G01X3136Y3909D01*
G01X3318Y3954D02*
G01X3272Y3954D01*
G01X3318Y3954D02*
G01X3454Y3909D01*
G01X3454Y3909D02*
G01X3545Y3818D01*
G01X3545Y3818D02*
G01X3590Y3636D01*
G01X3590Y3636D02*
G01X3590Y3409D01*
G01X3590Y3409D02*
G01X3545Y3181D01*
G01X3545Y3181D02*
G01X3454Y3045D01*
G01X3454Y3045D02*
G01X3318Y3000D01*
G01X3227Y3000D02*
G01X3318Y3000D01*
G01X3090Y3045D02*
G01X3227Y3000D01*
G01X3045Y3136D02*
G01X3090Y3045D01*
G04 Draw part H10*
G04 draw part outline for part H10*
G04 draw reference designator for part H10*
G01X10000Y3954D02*
G01X10000Y3000D01*
G01X10636Y3954D02*
G01X10636Y3000D01*
G01X10636Y3500D02*
G01X10000Y3500D01*
G01X11090Y3818D02*
G01X11000Y3772D01*
G01X11227Y3954D02*
G01X11090Y3818D01*
G01X11227Y3954D02*
G01X11227Y3000D01*
G01X11863Y3954D02*
G01X11727Y3909D01*
G01X11727Y3909D02*
G01X11636Y3772D01*
G01X11636Y3772D02*
G01X11590Y3545D01*
G01X11590Y3545D02*
G01X11590Y3409D01*
G01X11590Y3409D02*
G01X11636Y3181D01*
G01X11636Y3181D02*
G01X11727Y3045D01*
G01X11727Y3045D02*
G01X11863Y3000D01*
G01X11954Y3000D02*
G01X11863Y3000D01*
G01X12090Y3045D02*
G01X11954Y3000D01*
G01X12181Y3181D02*
G01X12090Y3045D01*
G01X12227Y3409D02*
G01X12181Y3181D01*
G01X12227Y3545D02*
G01X12227Y3409D01*
G01X12181Y3772D02*
G01X12227Y3545D01*
G01X12090Y3909D02*
G01X12181Y3772D01*
G01X11954Y3954D02*
G01X12090Y3909D01*
G01X11863Y3954D02*
G01X11954Y3954D01*
G04 Draw part H11*
G04 draw part outline for part H11*
G04 draw reference designator for part H11*
G01X10000Y24454D02*
G01X10000Y23500D01*
G01X10636Y24454D02*
G01X10636Y23500D01*
G01X10636Y24000D02*
G01X10000Y24000D01*
G01X11090Y24318D02*
G01X11000Y24272D01*
G01X11227Y24454D02*
G01X11090Y24318D01*
G01X11227Y24454D02*
G01X11227Y23500D01*
G01X11681Y24318D02*
G01X11590Y24272D01*
G01X11818Y24454D02*
G01X11681Y24318D01*
G01X11818Y24454D02*
G01X11818Y23500D01*
G04 Draw part H12*
G04 draw part outline for part H12*
G04 draw reference designator for part H12*
G01X2000Y24454D02*
G01X2000Y23500D01*
G01X2636Y24454D02*
G01X2636Y23500D01*
G01X2636Y24000D02*
G01X2000Y24000D01*
G01X3090Y24318D02*
G01X3000Y24272D01*
G01X3227Y24454D02*
G01X3090Y24318D01*
G01X3227Y24454D02*
G01X3227Y23500D01*
G01X3636Y24272D02*
G01X3636Y24227D01*
G01X3681Y24363D02*
G01X3636Y24272D01*
G01X3727Y24409D02*
G01X3681Y24363D01*
G01X3818Y24454D02*
G01X3727Y24409D01*
G01X4000Y24454D02*
G01X3818Y24454D01*
G01X4000Y24454D02*
G01X4090Y24409D01*
G01X4090Y24409D02*
G01X4136Y24363D01*
G01X4136Y24363D02*
G01X4181Y24272D01*
G01X4181Y24272D02*
G01X4181Y24181D01*
G01X4181Y24181D02*
G01X4136Y24090D01*
G01X4136Y24090D02*
G01X4045Y23954D01*
G01X4045Y23954D02*
G01X3590Y23500D01*
G01X4227Y23500D02*
G01X3590Y23500D01*
G04 Draw part H13*
G04 draw part outline for part H13*
G04 draw reference designator for part H13*
G54D10*
G01X9300Y4677D02*
G01X9300Y4200D01*
G01X9618Y4677D02*
G01X9618Y4200D01*
G01X9618Y4450D02*
G01X9300Y4450D01*
G01X9845Y4609D02*
G01X9800Y4586D01*
G01X9913Y4677D02*
G01X9845Y4609D01*
G01X9913Y4677D02*
G01X9913Y4200D01*
G01X10390Y4677D02*
G01X10140Y4677D01*
G01X10390Y4677D02*
G01X10254Y4495D01*
G01X10322Y4495D02*
G01X10254Y4495D01*
G01X10322Y4495D02*
G01X10368Y4472D01*
G01X10368Y4472D02*
G01X10390Y4450D01*
G01X10390Y4450D02*
G01X10413Y4381D01*
G01X10413Y4381D02*
G01X10413Y4336D01*
G01X10413Y4336D02*
G01X10390Y4268D01*
G01X10390Y4268D02*
G01X10345Y4222D01*
G01X10345Y4222D02*
G01X10277Y4200D01*
G01X10209Y4200D02*
G01X10277Y4200D01*
G01X10140Y4222D02*
G01X10209Y4200D01*
G01X10118Y4245D02*
G01X10140Y4222D01*
G01X10095Y4290D02*
G01X10118Y4245D01*
G04 Draw part H14*
G04 draw part outline for part H14*
G04 draw reference designator for part H14*
G01X6400Y23677D02*
G01X6400Y23200D01*
G01X6718Y23677D02*
G01X6718Y23200D01*
G01X6718Y23450D02*
G01X6400Y23450D01*
G01X6945Y23609D02*
G01X6900Y23586D01*
G01X7013Y23677D02*
G01X6945Y23609D01*
G01X7013Y23677D02*
G01X7013Y23200D01*
G01X7422Y23677D02*
G01X7195Y23359D01*
G01X7536Y23359D02*
G01X7195Y23359D01*
G01X7422Y23677D02*
G01X7422Y23200D01*
G04 Draw part C12*
G04 Draw part C13*
G04 Draw part Fuse1*

G04 Draw traces*

G04 Draw Text*
M00*
M02*
